ISO-10303-21;
HEADER;
FILE_DESCRIPTION (( 'STEP AP214' ),
    '1' );
FILE_NAME ('0851-0-15-20-82-14-11-0-CAD.STEP',
    '2022-12-04T16:53:45',
    ( '' ),
    ( '' ),
    'SwSTEP 2.0',
    'SolidWorks 2020',
    '' );
FILE_SCHEMA (( 'AUTOMOTIVE_DESIGN' ));
ENDSEC;

DATA;
#1 = EDGE_LOOP ( 'NONE', ( #337, #189, #417, #379 ) ) ;
#2 = CYLINDRICAL_SURFACE ( 'NONE', #237, 1.205000000000000737 ) ;
#3 = ORIENTED_EDGE ( 'NONE', *, *, #256, .T. ) ;
#4 = CARTESIAN_POINT ( 'NONE',  ( -1.105000000000001537, 0.000000000000000000, -6.730000000000000426 ) ) ;
#5 = EDGE_CURVE ( 'NONE', #329, #123, #272, .T. ) ;
#6 = FACE_OUTER_BOUND ( 'NONE', #24, .T. ) ;
#7 = LINE ( 'NONE', #260, #30 ) ;
#8 = FACE_BOUND ( 'NONE', #306, .T. ) ;
#9 = DIRECTION ( 'NONE',  ( 0.000000000000000000, 0.000000000000000000, -1.000000000000000000 ) ) ;
#10 = DIRECTION ( 'NONE',  ( 1.418274085798151442E-16, -0.000000000000000000, 1.000000000000000000 ) ) ;
#11 = LINE ( 'NONE', #299, #449 ) ;
#12 = ORIENTED_EDGE ( 'NONE', *, *, #256, .F. ) ;
#13 = CIRCLE ( 'NONE', #314, 0.6299999999999994493 ) ;
#14 = DIRECTION ( 'NONE',  ( -1.418274085798151442E-16, 0.000000000000000000, -1.000000000000000000 ) ) ;
#15 =( NAMED_UNIT ( * ) SI_UNIT ( $, .STERADIAN. ) SOLID_ANGLE_UNIT ( ) );
#16 = VECTOR ( 'NONE', #165, 1000.000000000000000 ) ;
#17 = ORIENTED_EDGE ( 'NONE', *, *, #178, .F. ) ;
#18 = AXIS2_PLACEMENT_3D ( 'NONE', #339, #366, #88 ) ;
#19 = DIRECTION ( 'NONE',  ( -1.224646799147353207E-16, 1.000000000000000000, 1.736884819486344882E-32 ) ) ;
#20 = DIRECTION ( 'NONE',  ( 1.418274085798151442E-16, -0.000000000000000000, 1.000000000000000000 ) ) ;
#21 = EDGE_CURVE ( 'NONE', #148, #75, #29, .T. ) ;
#22 = AXIS2_PLACEMENT_3D ( 'NONE', #93, #367, #262 ) ;
#23 = DIRECTION ( 'NONE',  ( 1.418274085798151442E-16, -0.000000000000000000, 1.000000000000000000 ) ) ;
#24 = EDGE_LOOP ( 'NONE', ( #56, #199, #201, #278 ) ) ;
#25 = AXIS2_PLACEMENT_3D ( 'NONE', #308, #461, #71 ) ;
#26 = AXIS2_PLACEMENT_3D ( 'NONE', #421, #27, #469 ) ;
#27 = DIRECTION ( 'NONE',  ( 1.418274085798151442E-16, -0.000000000000000000, 1.000000000000000000 ) ) ;
#28 = CYLINDRICAL_SURFACE ( 'NONE', #408, 1.945000000000000284 ) ;
#29 = LINE ( 'NONE', #236, #167 ) ;
#30 = VECTOR ( 'NONE', #222, 1000.000000000000000 ) ;
#31 = VERTEX_POINT ( 'NONE', #353 ) ;
#32 = ADVANCED_FACE ( 'NONE', ( #383 ), #28, .T. ) ;
#33 = DIRECTION ( 'NONE',  ( 1.000000000000000000, 0.000000000000000000, -1.418274085798151442E-16 ) ) ;
#34 = DIRECTION ( 'NONE',  ( 1.000000000000000000, 0.000000000000000000, 0.000000000000000000 ) ) ;
#35 = EDGE_CURVE ( 'NONE', #153, #419, #114, .T. ) ;
#36 = CIRCLE ( 'NONE', #288, 1.205000000000000293 ) ;
#37 = DIRECTION ( 'NONE',  ( -1.418274085798151442E-16, 0.000000000000000000, -1.000000000000000000 ) ) ;
#38 = VERTEX_POINT ( 'NONE', #493 ) ;
#39 = DIRECTION ( 'NONE',  ( 1.418274085798151442E-16, -0.000000000000000000, 1.000000000000000000 ) ) ;
#40 = TOROIDAL_SURFACE ( 'NONE', #261, 1.105000000000000648, 0.1000000000000000056 ) ;
#41 = VERTEX_POINT ( 'NONE', #203 ) ;
#42 = EDGE_CURVE ( 'NONE', #289, #234, #137, .T. ) ;
#43 = FACE_OUTER_BOUND ( 'NONE', #1, .T. ) ;
#44 = ORIENTED_EDGE ( 'NONE', *, *, #100, .T. ) ;
#45 = FACE_OUTER_BOUND ( 'NONE', #170, .T. ) ;
#46 = SURFACE_STYLE_FILL_AREA ( #338 ) ;
#47 = PLANE ( 'NONE',  #94 ) ;
#48 = DIRECTION ( 'NONE',  ( 1.418274085798151442E-16, -0.000000000000000000, 1.000000000000000000 ) ) ;
#49 = LINE ( 'NONE', #175, #487 ) ;
#50 = CARTESIAN_POINT ( 'NONE',  ( 1.945000000000000062, 0.000000000000000000, -2.280000000000000693 ) ) ;
#51 = CIRCLE ( 'NONE', #119, 0.9550000000000000711 ) ;
#52 = DIRECTION ( 'NONE',  ( 1.224646799147353207E-16, 1.000000000000000000, -1.736884819486344882E-32 ) ) ;
#53 = CARTESIAN_POINT ( 'NONE',  ( 0.000000000000000000, 0.000000000000000000, 0.000000000000000000 ) ) ;
#54 = DIRECTION ( 'NONE',  ( 1.418274085798151442E-16, -0.000000000000000000, 1.000000000000000000 ) ) ;
#55 = ADVANCED_FACE ( 'NONE', ( #193 ), #64, .T. ) ;
#56 = ORIENTED_EDGE ( 'NONE', *, *, #142, .T. ) ;
#57 =( NAMED_UNIT ( * ) SI_UNIT ( $, .STERADIAN. ) SOLID_ANGLE_UNIT ( ) );
#58 = DIRECTION ( 'NONE',  ( 1.418274085798151442E-16, -0.000000000000000000, 1.000000000000000000 ) ) ;
#59 = VERTEX_POINT ( 'NONE', #247 ) ;
#60 = FACE_OUTER_BOUND ( 'NONE', #277, .T. ) ;
#61 = FACE_OUTER_BOUND ( 'NONE', #309, .T. ) ;
#62 = VERTEX_POINT ( 'NONE', #321 ) ;
#63 = EDGE_CURVE ( 'NONE', #234, #75, #164, .T. ) ;
#64 = CYLINDRICAL_SURFACE ( 'NONE', #103, 1.104999999999999982 ) ;
#65 = ORIENTED_EDGE ( 'NONE', *, *, #266, .F. ) ;
#66 = DIRECTION ( 'NONE',  ( 1.418274085798151442E-16, -0.000000000000000000, 1.000000000000000000 ) ) ;
#67 = CIRCLE ( 'NONE', #132, 1.105000000000000204 ) ;
#68 = ORIENTED_EDGE ( 'NONE', *, *, #333, .F. ) ;
#69 = PRODUCT_DEFINITION_CONTEXT ( 'detailed design', #185, 'design' ) ;
#70 = COLOUR_RGB ( '',1.000000000000000000, 0.9294117647058823817, 0.1215686274509803905 ) ;
#71 = DIRECTION ( 'NONE',  ( 1.000000000000000000, 0.000000000000000000, 0.000000000000000000 ) ) ;
#72 = TOROIDAL_SURFACE ( 'NONE', #212, 1.105000000000000648, 0.1000000000000000056 ) ;
#73 = CIRCLE ( 'NONE', #85, 1.105000000000000648 ) ;
#74 = LINE ( 'NONE', #472, #378 ) ;
#75 = VERTEX_POINT ( 'NONE', #245 ) ;
#76 = CARTESIAN_POINT ( 'NONE',  ( -3.233664915619786195E-16, 0.000000000000000000, -2.280000000000000693 ) ) ;
#77 = ORIENTED_EDGE ( 'NONE', *, *, #211, .F. ) ;
#78 = ORIENTED_EDGE ( 'NONE', *, *, #142, .F. ) ;
#79 = ADVANCED_FACE ( 'NONE', ( #84 ), #401, .T. ) ;
#80 = FILL_AREA_STYLE_COLOUR ( '', #161 ) ;
#81 = ORIENTED_EDGE ( 'NONE', *, *, #440, .F. ) ;
#82 = AXIS2_PLACEMENT_3D ( 'NONE', #198, #239, #304 ) ;
#83 = EDGE_CURVE ( 'NONE', #41, #123, #205, .T. ) ;
#84 = FACE_OUTER_BOUND ( 'NONE', #281, .T. ) ;
#85 = AXIS2_PLACEMENT_3D ( 'NONE', #89, #14, #365 ) ;
#86 = PRODUCT_DEFINITION_FORMATION_WITH_SPECIFIED_SOURCE ( 'ANY', '', #491, .NOT_KNOWN. ) ;
#87 = ORIENTED_EDGE ( 'NONE', *, *, #463, .T. ) ;
#88 = DIRECTION ( 'NONE',  ( -1.000000000000000000, 0.000000000000000000, 0.000000000000000000 ) ) ;
#89 = CARTESIAN_POINT ( 'NONE',  ( -9.544984597421559914E-16, 0.000000000000000000, -6.730000000000000426 ) ) ;
#90 = FACE_OUTER_BOUND ( 'NONE', #495, .T. ) ;
#91 = DIRECTION ( 'NONE',  ( 1.000000000000000000, 0.000000000000000000, 0.000000000000000000 ) ) ;
#92 = DIRECTION ( 'NONE',  ( 1.000000000000000000, 0.000000000000000000, 0.000000000000000000 ) ) ;
#93 = CARTESIAN_POINT ( 'NONE',  ( -2.155776610413190714E-16, 0.000000000000000000, -1.520000000000000240 ) ) ;
#94 = AXIS2_PLACEMENT_3D ( 'NONE', #485, #58, #334 ) ;
#95 = FILL_AREA_STYLE_COLOUR ( '', #70 ) ;
#96 = CARTESIAN_POINT ( 'NONE',  ( 0.000000000000000000, 0.000000000000000000, 0.000000000000000000 ) ) ;
#97 = PRESENTATION_STYLE_ASSIGNMENT (( #394 ) ) ;
#98 = VERTEX_POINT ( 'NONE', #207 ) ;
#99 = DIRECTION ( 'NONE',  ( 1.000000000000000000, 0.000000000000000000, -1.418274085798151442E-16 ) ) ;
#100 = EDGE_CURVE ( 'NONE', #234, #289, #51, .T. ) ;
#101 = ORIENTED_EDGE ( 'NONE', *, *, #163, .T. ) ;
#102 = AXIS2_PLACEMENT_3D ( 'NONE', #336, #139, #452 ) ;
#103 = AXIS2_PLACEMENT_3D ( 'NONE', #151, #105, #274 ) ;
#104 = ORIENTED_EDGE ( 'NONE', *, *, #333, .T. ) ;
#105 = DIRECTION ( 'NONE',  ( 1.418274085798151442E-16, -0.000000000000000000, 1.000000000000000000 ) ) ;
#106 = ORIENTED_EDGE ( 'NONE', *, *, #385, .F. ) ;
#107 = CARTESIAN_POINT ( 'NONE',  ( -1.205000000000000515, 1.475699392972561415E-16, -2.280000000000000693 ) ) ;
#108 = CIRCLE ( 'NONE', #82, 0.6299999999999985612 ) ;
#109 = EDGE_LOOP ( 'NONE', ( #200, #346, #364, #183 ) ) ;
#110 = ADVANCED_FACE ( 'NONE', ( #506, #283 ), #326, .T. ) ;
#111 = EDGE_LOOP ( 'NONE', ( #371, #380, #402, #77 ) ) ;
#112 = MANIFOLD_SOLID_BREP ( 'Fillet1', #398 ) ;
#113 = ORIENTED_EDGE ( 'NONE', *, *, #171, .T. ) ;
#114 = LINE ( 'NONE', #427, #324 ) ;
#115 = AXIS2_PLACEMENT_3D ( 'NONE', #265, #335, #145 ) ;
#116 = ADVANCED_FACE ( 'NONE', ( #43 ), #2, .T. ) ;
#117 = SURFACE_SIDE_STYLE ('',( #356 ) ) ;
#118 =( GEOMETRIC_REPRESENTATION_CONTEXT ( 3 ) GLOBAL_UNCERTAINTY_ASSIGNED_CONTEXT ( ( #410 ) ) GLOBAL_UNIT_ASSIGNED_CONTEXT ( ( #146, #226, #57 ) ) REPRESENTATION_CONTEXT ( 'NONE', 'WORKASPACE' ) );
#119 = AXIS2_PLACEMENT_3D ( 'NONE', #358, #253, #505 ) ;
#120 = AXIS2_PLACEMENT_3D ( 'NONE', #411, #66, #150 ) ;
#121 = CARTESIAN_POINT ( 'NONE',  ( 0.9550000000000000711, 1.169537693185722558E-16, 0.000000000000000000 ) ) ;
#122 =( LENGTH_UNIT ( ) NAMED_UNIT ( * ) SI_UNIT ( .MILLI., .METRE. ) );
#123 = VERTEX_POINT ( 'NONE', #360 ) ;
#124 = AXIS2_PLACEMENT_3D ( 'NONE', #186, #270, #177 ) ;
#125 = DIRECTION ( 'NONE',  ( 1.000000000000000000, 0.000000000000000000, -2.229721691486898147E-16 ) ) ;
#126 = ADVANCED_FACE ( 'NONE', ( #174 ), #507, .T. ) ;
#127 = CARTESIAN_POINT ( 'NONE',  ( -1.272191854960941851E-15, 0.000000000000000000, -8.969999999999998863 ) ) ;
#128 = MECHANICAL_DESIGN_GEOMETRIC_PRESENTATION_REPRESENTATION (  '', ( #230 ), #152 ) ;
#129 = SHAPE_DEFINITION_REPRESENTATION ( #416, #244 ) ;
#130 = DIRECTION ( 'NONE',  ( 1.000000000000000000, 0.000000000000000000, -1.114860845743449073E-16 ) ) ;
#131 = ADVANCED_FACE ( 'NONE', ( #479 ), #72, .T. ) ;
#132 = AXIS2_PLACEMENT_3D ( 'NONE', #307, #392, #255 ) ;
#133 = CARTESIAN_POINT ( 'NONE',  ( -0.9550000000000000711, 0.000000000000000000, 2.708903503874469491E-16 ) ) ;
#134 = CYLINDRICAL_SURFACE ( 'NONE', #115, 1.205000000000000737 ) ;
#135 = DIRECTION ( 'NONE',  ( 1.418274085798151442E-16, -0.000000000000000000, 1.000000000000000000 ) ) ;
#136 = CARTESIAN_POINT ( 'NONE',  ( 0.000000000000000000, 0.000000000000000000, 0.000000000000000000 ) ) ;
#137 = CIRCLE ( 'NONE', #382, 0.9550000000000000711 ) ;
#138 = CIRCLE ( 'NONE', #376, 0.6300000000000010036 ) ;
#139 = DIRECTION ( 'NONE',  ( -0.000000000000000000, 1.000000000000000000, 0.000000000000000000 ) ) ;
#140 = ORIENTED_EDGE ( 'NONE', *, *, #463, .F. ) ;
#141 = CARTESIAN_POINT ( 'NONE',  ( 0.6299999999999997824, 0.000000000000000000, -8.969999999999998863 ) ) ;
#142 = EDGE_CURVE ( 'NONE', #153, #287, #340, .T. ) ;
#143 = DIRECTION ( 'NONE',  ( -1.418274085798151442E-16, 0.000000000000000000, -1.000000000000000000 ) ) ;
#144 = ORIENTED_EDGE ( 'NONE', *, *, #157, .T. ) ;
#145 = DIRECTION ( 'NONE',  ( 1.000000000000000000, 0.000000000000000000, -1.418274085798151442E-16 ) ) ;
#146 =( LENGTH_UNIT ( ) NAMED_UNIT ( * ) SI_UNIT ( .MILLI., .METRE. ) );
#147 = DIRECTION ( 'NONE',  ( 0.000000000000000000, 0.000000000000000000, 1.000000000000000000 ) ) ;
#148 = VERTEX_POINT ( 'NONE', #290 ) ;
#149 = CARTESIAN_POINT ( 'NONE',  ( 1.920983820236486022E-32, 0.000000000000000000, 1.354451751937234745E-16 ) ) ;
#150 = DIRECTION ( 'NONE',  ( 1.000000000000000000, 0.000000000000000000, -1.114860845743449073E-16 ) ) ;
#151 = CARTESIAN_POINT ( 'NONE',  ( 0.000000000000000000, 0.000000000000000000, 0.000000000000000000 ) ) ;
#152 =( GEOMETRIC_REPRESENTATION_CONTEXT ( 3 ) GLOBAL_UNCERTAINTY_ASSIGNED_CONTEXT ( ( #492 ) ) GLOBAL_UNIT_ASSIGNED_CONTEXT ( ( #122, #430, #435 ) ) REPRESENTATION_CONTEXT ( 'NONE', 'WORKASPACE' ) );
#153 = VERTEX_POINT ( 'NONE', #50 ) ;
#154 = DIRECTION ( 'NONE',  ( 1.418274085798151442E-16, -0.000000000000000000, 1.000000000000000000 ) ) ;
#155 = CARTESIAN_POINT ( 'NONE',  ( -3.233664915619785702E-16, 0.000000000000000000, -2.280000000000000249 ) ) ;
#156 = ORIENTED_EDGE ( 'NONE', *, *, #429, .T. ) ;
#157 = EDGE_CURVE ( 'NONE', #41, #98, #471, .T. ) ;
#158 = AXIS2_PLACEMENT_3D ( 'NONE', #155, #310, #242 ) ;
#159 = ORIENTED_EDGE ( 'NONE', *, *, #63, .F. ) ;
#160 = ORIENTED_EDGE ( 'NONE', *, *, #413, .F. ) ;
#161 = COLOUR_RGB ( '',1.000000000000000000, 0.9294117647058823817, 0.1215686274509803905 ) ;
#162 = ORIENTED_EDGE ( 'NONE', *, *, #21, .T. ) ;
#163 = EDGE_CURVE ( 'NONE', #62, #31, #372, .T. ) ;
#164 = LINE ( 'NONE', #121, #16 ) ;
#165 = DIRECTION ( 'NONE',  ( 0.7071067811865474617, 8.659560562354934091E-17, -0.7071067811865476838 ) ) ;
#166 = CIRCLE ( 'NONE', #388, 1.205000000000000737 ) ;
#167 = VECTOR ( 'NONE', #313, 1000.000000000000000 ) ;
#168 = AXIS2_PLACEMENT_3D ( 'NONE', #330, #264, #9 ) ;
#169 = DIRECTION ( 'NONE',  ( 1.418274085798151442E-16, -0.000000000000000000, 1.000000000000000000 ) ) ;
#170 = EDGE_LOOP ( 'NONE', ( #78, #243 ) ) ;
#171 = EDGE_CURVE ( 'NONE', #457, #59, #300, .T. ) ;
#172 = CARTESIAN_POINT ( 'NONE',  ( -3.233664915619785702E-16, 0.000000000000000000, -2.280000000000000249 ) ) ;
#173 = ORIENTED_EDGE ( 'NONE', *, *, #298, .T. ) ;
#174 = FACE_OUTER_BOUND ( 'NONE', #275, .T. ) ;
#175 = CARTESIAN_POINT ( 'NONE',  ( -0.6300000000000010036, 7.715274834628337704E-17, 8.935126740528368333E-17 ) ) ;
#176 = DIRECTION ( 'NONE',  ( 1.000000000000000000, 0.000000000000000000, -1.418274085798151442E-16 ) ) ;
#177 = DIRECTION ( 'NONE',  ( -1.000000000000000000, 0.000000000000000000, 1.418274085798151442E-16 ) ) ;
#178 = EDGE_CURVE ( 'NONE', #59, #457, #73, .T. ) ;
#179 = DIRECTION ( 'NONE',  ( 1.418274085798151442E-16, -0.000000000000000000, 1.000000000000000000 ) ) ;
#180 = CARTESIAN_POINT ( 'NONE',  ( -9.403157188841744375E-16, 0.000000000000000000, -6.630000000000000782 ) ) ;
#181 = DIRECTION ( 'NONE',  ( -1.000000000000000000, 0.000000000000000000, 0.000000000000000000 ) ) ;
#182 = AXIS2_PLACEMENT_3D ( 'NONE', #297, #295, #442 ) ;
#183 = ORIENTED_EDGE ( 'NONE', *, *, #291, .F. ) ;
#184 = DIRECTION ( 'NONE',  ( 1.418274085798151442E-16, -0.000000000000000000, 1.000000000000000000 ) ) ;
#185 = APPLICATION_CONTEXT ( 'automotive_design' ) ;
#186 = CARTESIAN_POINT ( 'NONE',  ( 1.920983820236486022E-32, 0.000000000000000000, 1.354451751937234745E-16 ) ) ;
#187 = AXIS2_PLACEMENT_3D ( 'NONE', #127, #184, #490 ) ;
#188 = DIRECTION ( 'NONE',  ( -1.000000000000000000, 0.000000000000000000, 1.418274085798151442E-16 ) ) ;
#189 = ORIENTED_EDGE ( 'NONE', *, *, #500, .T. ) ;
#190 = CARTESIAN_POINT ( 'NONE',  ( 0.6300000000000000044, 0.000000000000000000, -6.730000000000000426 ) ) ;
#191 = DIRECTION ( 'NONE',  ( 1.000000000000000000, 0.000000000000000000, -1.418274085798151688E-16 ) ) ;
#192 = ORIENTED_EDGE ( 'NONE', *, *, #217, .T. ) ;
#193 = FACE_OUTER_BOUND ( 'NONE', #312, .T. ) ;
#194 = ORIENTED_EDGE ( 'NONE', *, *, #163, .F. ) ;
#195 = ORIENTED_EDGE ( 'NONE', *, *, #63, .T. ) ;
#196 = AXIS2_PLACEMENT_3D ( 'NONE', #331, #375, #176 ) ;
#197 = EDGE_LOOP ( 'NONE', ( #144, #192, #361, #351 ) ) ;
#198 = CARTESIAN_POINT ( 'NONE',  ( 3.345511474509943567E-16, 0.000000000000000000, -8.969999999999998863 ) ) ;
#199 = ORIENTED_EDGE ( 'NONE', *, *, #241, .T. ) ;
#200 = ORIENTED_EDGE ( 'NONE', *, *, #241, .F. ) ;
#201 = ORIENTED_EDGE ( 'NONE', *, *, #315, .F. ) ;
#202 = ADVANCED_FACE ( 'NONE', ( #6 ), #259, .T. ) ;
#203 = CARTESIAN_POINT ( 'NONE',  ( 1.204999999999999849, 0.000000000000000000, -6.630000000000000782 ) ) ;
#204 = CARTESIAN_POINT ( 'NONE',  ( 1.945000000000000062, 0.000000000000000000, -1.520000000000000462 ) ) ;
#205 = LINE ( 'NONE', #250, #374 ) ;
#206 = DIRECTION ( 'NONE',  ( 1.418274085798151442E-16, -0.000000000000000000, 1.000000000000000000 ) ) ;
#207 = CARTESIAN_POINT ( 'NONE',  ( -1.205000000000001625, 1.475699392972562401E-16, -6.630000000000000782 ) ) ;
#208 = AXIS2_PLACEMENT_3D ( 'NONE', #451, #48, #219 ) ;
#209 = DIRECTION ( 'NONE',  ( 1.000000000000000000, 0.000000000000000000, -1.418274085798151442E-16 ) ) ;
#210 = ORIENTED_EDGE ( 'NONE', *, *, #500, .F. ) ;
#211 = EDGE_CURVE ( 'NONE', #98, #457, #426, .T. ) ;
#212 = AXIS2_PLACEMENT_3D ( 'NONE', #216, #481, #483 ) ;
#213 = CIRCLE ( 'NONE', #238, 0.1000000000000000472 ) ;
#214 = FILL_AREA_STYLE ('',( #80 ) ) ;
#215 = EDGE_LOOP ( 'NONE', ( #501, #503, #65, #160 ) ) ;
#216 = CARTESIAN_POINT ( 'NONE',  ( -9.403157188841744375E-16, 0.000000000000000000, -6.630000000000000782 ) ) ;
#217 = EDGE_CURVE ( 'NONE', #98, #329, #11, .T. ) ;
#218 = CARTESIAN_POINT ( 'NONE',  ( -2.127411128697224759E-17, 0.000000000000000000, -0.1499999999999998279 ) ) ;
#219 = DIRECTION ( 'NONE',  ( 1.000000000000000000, 0.000000000000000000, -1.418274085798151442E-16 ) ) ;
#220 = CARTESIAN_POINT ( 'NONE',  ( 3.345511474509943567E-16, 0.000000000000000000, -8.969999999999998863 ) ) ;
#221 = DIRECTION ( 'NONE',  ( -1.000000000000000000, 0.000000000000000000, 0.000000000000000000 ) ) ;
#222 = DIRECTION ( 'NONE',  ( -0.7071067811865476838, 0.000000000000000000, -0.7071067811865474617 ) ) ;
#223 = PLANE ( 'NONE',  #434 ) ;
#224 = DIRECTION ( 'NONE',  ( 1.000000000000000000, 0.000000000000000000, 0.000000000000000000 ) ) ;
#225 = DIRECTION ( 'NONE',  ( 1.418274085798151442E-16, -0.000000000000000000, 1.000000000000000000 ) ) ;
#226 =( NAMED_UNIT ( * ) PLANE_ANGLE_UNIT ( ) SI_UNIT ( $, .RADIAN. ) );
#227 = ADVANCED_FACE ( 'NONE', ( #294 ), #412, .T. ) ;
#228 = EDGE_LOOP ( 'NONE', ( #319, #431 ) ) ;
#229 = DIRECTION ( 'NONE',  ( 1.418274085798151442E-16, -0.000000000000000000, 1.000000000000000000 ) ) ;
#230 = STYLED_ITEM ( 'NONE', ( #284 ), #112 ) ;
#231 = CIRCLE ( 'NONE', #489, 1.945000000000000284 ) ;
#232 = ORIENTED_EDGE ( 'NONE', *, *, #248, .F. ) ;
#233 = ADVANCED_FACE ( 'NONE', ( #60 ), #47, .T. ) ;
#234 = VERTEX_POINT ( 'NONE', #454 ) ;
#235 = CARTESIAN_POINT ( 'NONE',  ( -0.6300000000000007816, 7.715274834628338936E-17, -8.969999999999998863 ) ) ;
#236 = CARTESIAN_POINT ( 'NONE',  ( 1.104999999999999982, 0.000000000000000000, -1.567192864806957560E-16 ) ) ;
#237 = AXIS2_PLACEMENT_3D ( 'NONE', #476, #395, #209 ) ;
#238 = AXIS2_PLACEMENT_3D ( 'NONE', #414, #19, #342 ) ;
#239 = DIRECTION ( 'NONE',  ( 0.000000000000000000, -1.000000000000000000, -0.000000000000000000 ) ) ;
#240 = VERTEX_POINT ( 'NONE', #190 ) ;
#241 = EDGE_CURVE ( 'NONE', #287, #482, #486, .T. ) ;
#242 = DIRECTION ( 'NONE',  ( 1.000000000000000000, 0.000000000000000000, -2.229721691486898147E-16 ) ) ;
#243 = ORIENTED_EDGE ( 'NONE', *, *, #328, .F. ) ;
#244 = ADVANCED_BREP_SHAPE_REPRESENTATION ( '0851-0-15-20-82-14-11-0-CAD', ( #112, #424 ), #118 ) ;
#245 = CARTESIAN_POINT ( 'NONE',  ( 1.104999999999999982, 0.000000000000000000, -0.1499999999999999944 ) ) ;
#246 = SURFACE_SIDE_STYLE ('',( #46 ) ) ;
#247 = CARTESIAN_POINT ( 'NONE',  ( 1.104999999999999760, 1.414467053015194136E-16, -6.730000000000000426 ) ) ;
#248 = EDGE_CURVE ( 'NONE', #254, #399, #252, .T. ) ;
#249 = ORIENTED_EDGE ( 'NONE', *, *, #291, .T. ) ;
#250 = CARTESIAN_POINT ( 'NONE',  ( 1.205000000000000737, 0.000000000000000000, -1.709020273386773592E-16 ) ) ;
#251 = ORIENTED_EDGE ( 'NONE', *, *, #385, .T. ) ;
#252 = CIRCLE ( 'NONE', #187, 0.6300000000000011147 ) ;
#253 = DIRECTION ( 'NONE',  ( 1.418274085798151442E-16, -0.000000000000000000, 1.000000000000000000 ) ) ;
#254 = VERTEX_POINT ( 'NONE', #141 ) ;
#255 = DIRECTION ( 'NONE',  ( 1.000000000000000000, 0.000000000000000000, -1.962356873276930787E-16 ) ) ;
#256 = EDGE_CURVE ( 'NONE', #316, #240, #317, .T. ) ;
#257 = APPLICATION_PROTOCOL_DEFINITION ( 'draft international standard', 'automotive_design', 1998, #185 ) ;
#258 = CARTESIAN_POINT ( 'NONE',  ( -1.945000000000000284, 2.381938024341602260E-16, 2.758543096877405028E-16 ) ) ;
#259 = CYLINDRICAL_SURFACE ( 'NONE', #196, 1.945000000000000284 ) ;
#260 = CARTESIAN_POINT ( 'NONE',  ( -0.9550000000000000711, 0.000000000000000000, 2.708903503874469491E-16 ) ) ;
#261 = AXIS2_PLACEMENT_3D ( 'NONE', #180, #464, #348 ) ;
#262 = DIRECTION ( 'NONE',  ( 1.000000000000000000, 0.000000000000000000, -1.962356873276930787E-16 ) ) ;
#263 = DIRECTION ( 'NONE',  ( -1.000000000000000000, 1.224646799147353207E-16, 0.000000000000000000 ) ) ;
#264 = DIRECTION ( 'NONE',  ( -0.000000000000000000, -1.000000000000000000, 0.000000000000000000 ) ) ;
#265 = CARTESIAN_POINT ( 'NONE',  ( 0.000000000000000000, 0.000000000000000000, 0.000000000000000000 ) ) ;
#266 = EDGE_CURVE ( 'NONE', #240, #316, #138, .T. ) ;
#267 =( LENGTH_UNIT ( ) NAMED_UNIT ( * ) SI_UNIT ( .MILLI., .METRE. ) );
#268 = EDGE_LOOP ( 'NONE', ( #465, #195, #462, #106 ) ) ;
#269 = CARTESIAN_POINT ( 'NONE',  ( -9.544984597421559914E-16, 0.000000000000000000, -6.730000000000000426 ) ) ;
#270 = DIRECTION ( 'NONE',  ( -1.418274085798151442E-16, 0.000000000000000000, -1.000000000000000000 ) ) ;
#271 = CIRCLE ( 'NONE', #182, 1.104999999999999982 ) ;
#272 = CIRCLE ( 'NONE', #25, 1.205000000000000293 ) ;
#273 = EDGE_CURVE ( 'NONE', #41, #59, #213, .T. ) ;
#274 = DIRECTION ( 'NONE',  ( 1.000000000000000000, 0.000000000000000000, -1.418274085798151688E-16 ) ) ;
#275 = EDGE_LOOP ( 'NONE', ( #381, #480, #386, #12 ) ) ;
#276 = CONICAL_SURFACE ( 'NONE', #320, 0.9550000000000000711, 0.7853981633974482790 ) ;
#277 = EDGE_LOOP ( 'NONE', ( #453, #44 ) ) ;
#278 = ORIENTED_EDGE ( 'NONE', *, *, #35, .F. ) ;
#279 = CIRCLE ( 'NONE', #504, 1.104999999999999982 ) ;
#280 = DIRECTION ( 'NONE',  ( 1.000000000000000000, 0.000000000000000000, -1.418274085798151442E-16 ) ) ;
#281 = EDGE_LOOP ( 'NONE', ( #140, #104, #415 ) ) ;
#282 = AXIS2_PLACEMENT_3D ( 'NONE', #136, #10, #191 ) ;
#283 = FACE_BOUND ( 'NONE', #428, .T. ) ;
#284 = PRESENTATION_STYLE_ASSIGNMENT (( #286 ) ) ;
#285 = PRODUCT_DEFINITION ( 'UNKNOWN', '', #86, #69 ) ;
#286 = SURFACE_STYLE_USAGE ( .BOTH. , #117 ) ;
#287 = VERTEX_POINT ( 'NONE', #438 ) ;
#288 = AXIS2_PLACEMENT_3D ( 'NONE', #76, #498, #467 ) ;
#289 = VERTEX_POINT ( 'NONE', #133 ) ;
#290 = CARTESIAN_POINT ( 'NONE',  ( 1.104999999999999982, 0.000000000000000000, -1.520000000000000462 ) ) ;
#291 = EDGE_CURVE ( 'NONE', #482, #419, #231, .T. ) ;
#292 = ORIENTED_EDGE ( 'NONE', *, *, #389, .T. ) ;
#293 = DIRECTION ( 'NONE',  ( 1.418274085798151442E-16, -0.000000000000000000, 1.000000000000000000 ) ) ;
#294 = FACE_OUTER_BOUND ( 'NONE', #215, .T. ) ;
#295 = DIRECTION ( 'NONE',  ( 1.418274085798151442E-16, -0.000000000000000000, 1.000000000000000000 ) ) ;
#296 = DIRECTION ( 'NONE',  ( 1.418274085798151442E-16, -0.000000000000000000, 1.000000000000000000 ) ) ;
#297 = CARTESIAN_POINT ( 'NONE',  ( -2.127411128697224759E-17, 0.000000000000000000, -0.1499999999999998279 ) ) ;
#298 = EDGE_CURVE ( 'NONE', #31, #75, #279, .T. ) ;
#299 = CARTESIAN_POINT ( 'NONE',  ( -1.205000000000000737, 1.475699392972561661E-16, 1.709020273386773592E-16 ) ) ;
#300 = CIRCLE ( 'NONE', #18, 1.105000000000000648 ) ;
#301 = FACE_OUTER_BOUND ( 'NONE', #466, .T. ) ;
#302 = CARTESIAN_POINT ( 'NONE',  ( -9.403157188841744375E-16, 0.000000000000000000, -6.630000000000000782 ) ) ;
#303 = SPHERICAL_SURFACE ( 'NONE', #102, 0.6299999999999994493 ) ;
#304 = DIRECTION ( 'NONE',  ( 0.000000000000000000, 0.000000000000000000, -1.000000000000000000 ) ) ;
#305 = ADVANCED_FACE ( 'NONE', ( #441 ), #40, .T. ) ;
#306 = EDGE_LOOP ( 'NONE', ( #460, #418 ) ) ;
#307 = CARTESIAN_POINT ( 'NONE',  ( -2.155776610413190714E-16, 0.000000000000000000, -1.520000000000000240 ) ) ;
#308 = CARTESIAN_POINT ( 'NONE',  ( -3.233664915619786195E-16, 0.000000000000000000, -2.280000000000000693 ) ) ;
#309 = EDGE_LOOP ( 'NONE', ( #194, #156, #162, #470 ) ) ;
#310 = DIRECTION ( 'NONE',  ( 1.418274085798151442E-16, -0.000000000000000000, 1.000000000000000000 ) ) ;
#311 = ORIENTED_EDGE ( 'NONE', *, *, #266, .T. ) ;
#312 = EDGE_LOOP ( 'NONE', ( #292, #101, #81, #396 ) ) ;
#313 = DIRECTION ( 'NONE',  ( 1.418274085798151442E-16, -0.000000000000000000, 1.000000000000000000 ) ) ;
#314 = AXIS2_PLACEMENT_3D ( 'NONE', #220, #52, #263 ) ;
#315 = EDGE_CURVE ( 'NONE', #419, #482, #350, .T. ) ;
#316 = VERTEX_POINT ( 'NONE', #494 ) ;
#317 = CIRCLE ( 'NONE', #437, 0.6300000000000010036 ) ;
#318 = DIRECTION ( 'NONE',  ( -1.000000000000000000, 0.000000000000000000, 1.418274085798151442E-16 ) ) ;
#319 = ORIENTED_EDGE ( 'NONE', *, *, #389, .F. ) ;
#320 = AXIS2_PLACEMENT_3D ( 'NONE', #149, #497, #318 ) ;
#321 = CARTESIAN_POINT ( 'NONE',  ( -1.105000000000000426, 1.353234713057825872E-16, -1.520000000000000018 ) ) ;
#322 = EDGE_CURVE ( 'NONE', #399, #254, #384, .T. ) ;
#323 = STYLED_ITEM ( 'NONE', ( #97 ), #244 ) ;
#324 = VECTOR ( 'NONE', #387, 1000.000000000000000 ) ;
#325 = CIRCLE ( 'NONE', #158, 1.945000000000000284 ) ;
#326 = PLANE ( 'NONE',  #391 ) ;
#327 = ORIENTED_EDGE ( 'NONE', *, *, #315, .T. ) ;
#328 = EDGE_CURVE ( 'NONE', #287, #153, #325, .T. ) ;
#329 = VERTEX_POINT ( 'NONE', #107 ) ;
#330 = CARTESIAN_POINT ( 'NONE',  ( -1.105000000000001537, 0.000000000000000000, -6.630000000000000782 ) ) ;
#331 = CARTESIAN_POINT ( 'NONE',  ( 0.000000000000000000, 0.000000000000000000, 0.000000000000000000 ) ) ;
#332 = CYLINDRICAL_SURFACE ( 'NONE', #282, 1.104999999999999982 ) ;
#333 = EDGE_CURVE ( 'NONE', #38, #254, #108, .T. ) ;
#334 = DIRECTION ( 'NONE',  ( 1.000000000000000000, 0.000000000000000000, -1.418274085798151442E-16 ) ) ;
#335 = DIRECTION ( 'NONE',  ( 1.418274085798151442E-16, -0.000000000000000000, 1.000000000000000000 ) ) ;
#336 = CARTESIAN_POINT ( 'NONE',  ( 3.345511474509943567E-16, 0.000000000000000000, -8.969999999999998863 ) ) ;
#337 = ORIENTED_EDGE ( 'NONE', *, *, #217, .F. ) ;
#338 = FILL_AREA_STYLE ('',( #95 ) ) ;
#339 = CARTESIAN_POINT ( 'NONE',  ( -9.544984597421559914E-16, 0.000000000000000000, -6.730000000000000426 ) ) ;
#340 = CIRCLE ( 'NONE', #409, 1.945000000000000284 ) ;
#341 = ORIENTED_EDGE ( 'NONE', *, *, #178, .T. ) ;
#342 = DIRECTION ( 'NONE',  ( -1.000000000000000000, -1.224646799147353207E-16, 0.000000000000000000 ) ) ;
#343 = EDGE_CURVE ( 'NONE', #123, #329, #36, .T. ) ;
#344 = PLANE ( 'NONE',  #208 ) ;
#345 = CARTESIAN_POINT ( 'NONE',  ( -9.403157188841744375E-16, 0.000000000000000000, -6.630000000000000782 ) ) ;
#346 = ORIENTED_EDGE ( 'NONE', *, *, #328, .T. ) ;
#347 = EDGE_LOOP ( 'NONE', ( #113, #341 ) ) ;
#348 = DIRECTION ( 'NONE',  ( -1.000000000000000000, 0.000000000000000000, 1.418274085798151442E-16 ) ) ;
#349 = EDGE_LOOP ( 'NONE', ( #496, #210, #436, #17 ) ) ;
#350 = CIRCLE ( 'NONE', #120, 1.945000000000000284 ) ;
#351 = ORIENTED_EDGE ( 'NONE', *, *, #83, .F. ) ;
#352 = ADVANCED_FACE ( 'NONE', ( #90 ), #420, .T. ) ;
#353 = CARTESIAN_POINT ( 'NONE',  ( -1.104999999999999982, 1.353234713057825625E-16, -0.1499999999999996614 ) ) ;
#354 = FACE_OUTER_BOUND ( 'NONE', #268, .T. ) ;
#355 = CARTESIAN_POINT ( 'NONE',  ( 1.920983820236486022E-32, 0.000000000000000000, 1.354451751937234745E-16 ) ) ;
#356 = SURFACE_STYLE_FILL_AREA ( #214 ) ;
#357 = ADVANCED_FACE ( 'NONE', ( #455 ), #134, .T. ) ;
#358 = CARTESIAN_POINT ( 'NONE',  ( 1.920983820236486022E-32, 0.000000000000000000, 1.354451751937234745E-16 ) ) ;
#359 =( GEOMETRIC_REPRESENTATION_CONTEXT ( 3 ) GLOBAL_UNCERTAINTY_ASSIGNED_CONTEXT ( ( #474 ) ) GLOBAL_UNIT_ASSIGNED_CONTEXT ( ( #267, #447, #15 ) ) REPRESENTATION_CONTEXT ( 'NONE', 'WORKASPACE' ) );
#360 = CARTESIAN_POINT ( 'NONE',  ( 1.205000000000000071, 0.000000000000000000, -2.280000000000000693 ) ) ;
#361 = ORIENTED_EDGE ( 'NONE', *, *, #343, .F. ) ;
#362 = AXIS2_PLACEMENT_3D ( 'NONE', #96, #54, #99 ) ;
#363 = CARTESIAN_POINT ( 'NONE',  ( 3.345511474509943567E-16, 0.000000000000000000, -8.969999999999998863 ) ) ;
#364 = ORIENTED_EDGE ( 'NONE', *, *, #35, .T. ) ;
#365 = DIRECTION ( 'NONE',  ( -1.000000000000000000, 0.000000000000000000, 0.000000000000000000 ) ) ;
#366 = DIRECTION ( 'NONE',  ( -1.418274085798151442E-16, 0.000000000000000000, -1.000000000000000000 ) ) ;
#367 = DIRECTION ( 'NONE',  ( 1.418274085798151442E-16, -0.000000000000000000, 1.000000000000000000 ) ) ;
#368 = ADVANCED_FACE ( 'NONE', ( #61 ), #332, .T. ) ;
#369 = APPLICATION_PROTOCOL_DEFINITION ( 'draft international standard', 'automotive_design', 1998, #439 ) ;
#370 = CARTESIAN_POINT ( 'NONE',  ( -9.544984597421559914E-16, 0.000000000000000000, -6.730000000000000426 ) ) ;
#371 = ORIENTED_EDGE ( 'NONE', *, *, #157, .F. ) ;
#372 = LINE ( 'NONE', #450, #400 ) ;
#373 = ADVANCED_FACE ( 'NONE', ( #301, #445 ), #344, .T. ) ;
#374 = VECTOR ( 'NONE', #39, 1000.000000000000000 ) ;
#375 = DIRECTION ( 'NONE',  ( 1.418274085798151442E-16, -0.000000000000000000, 1.000000000000000000 ) ) ;
#376 = AXIS2_PLACEMENT_3D ( 'NONE', #370, #407, #224 ) ;
#377 = EDGE_LOOP ( 'NONE', ( #68, #87, #232 ) ) ;
#378 = VECTOR ( 'NONE', #154, 1000.000000000000000 ) ;
#379 = ORIENTED_EDGE ( 'NONE', *, *, #5, .F. ) ;
#380 = ORIENTED_EDGE ( 'NONE', *, *, #273, .T. ) ;
#381 = ORIENTED_EDGE ( 'NONE', *, *, #433, .F. ) ;
#382 = AXIS2_PLACEMENT_3D ( 'NONE', #355, #23, #473 ) ;
#383 = FACE_OUTER_BOUND ( 'NONE', #109, .T. ) ;
#384 = CIRCLE ( 'NONE', #26, 0.6300000000000011147 ) ;
#385 = EDGE_CURVE ( 'NONE', #289, #31, #7, .T. ) ;
#386 = ORIENTED_EDGE ( 'NONE', *, *, #413, .T. ) ;
#387 = DIRECTION ( 'NONE',  ( 1.418274085798151442E-16, -0.000000000000000000, 1.000000000000000000 ) ) ;
#388 = AXIS2_PLACEMENT_3D ( 'NONE', #345, #20, #181 ) ;
#389 = EDGE_CURVE ( 'NONE', #148, #62, #404, .T. ) ;
#390 = CARTESIAN_POINT ( 'NONE',  ( 0.000000000000000000, 0.000000000000000000, 0.000000000000000000 ) ) ;
#391 = AXIS2_PLACEMENT_3D ( 'NONE', #397, #37, #475 ) ;
#392 = DIRECTION ( 'NONE',  ( 1.418274085798151442E-16, -0.000000000000000000, 1.000000000000000000 ) ) ;
#393 = DIRECTION ( 'NONE',  ( -0.000000000000000000, 1.000000000000000000, 0.000000000000000000 ) ) ;
#394 = SURFACE_STYLE_USAGE ( .BOTH. , #246 ) ;
#395 = DIRECTION ( 'NONE',  ( 1.418274085798151442E-16, -0.000000000000000000, 1.000000000000000000 ) ) ;
#396 = ORIENTED_EDGE ( 'NONE', *, *, #21, .F. ) ;
#397 = CARTESIAN_POINT ( 'NONE',  ( 1.205000000000000071, 0.000000000000000000, -6.730000000000000426 ) ) ;
#398 = CLOSED_SHELL ( 'NONE', ( #131, #406, #55, #202, #357, #227, #484, #233, #79, #126, #110, #116, #478, #32, #373, #368, #352, #305 ) ) ;
#399 = VERTEX_POINT ( 'NONE', #235 ) ;
#400 = VECTOR ( 'NONE', #225, 1000.000000000000000 ) ;
#401 = SPHERICAL_SURFACE ( 'NONE', #448, 0.6299999999999994493 ) ;
#402 = ORIENTED_EDGE ( 'NONE', *, *, #171, .F. ) ;
#403 = CARTESIAN_POINT ( 'NONE',  ( -2.155776610413190714E-16, 0.000000000000000000, -1.520000000000000240 ) ) ;
#404 = CIRCLE ( 'NONE', #22, 1.105000000000000204 ) ;
#405 = MECHANICAL_DESIGN_GEOMETRIC_PRESENTATION_REPRESENTATION (  '', ( #323 ), #359 ) ;
#406 = ADVANCED_FACE ( 'NONE', ( #354 ), #276, .T. ) ;
#407 = DIRECTION ( 'NONE',  ( 1.418274085798151442E-16, -0.000000000000000000, 1.000000000000000000 ) ) ;
#408 = AXIS2_PLACEMENT_3D ( 'NONE', #468, #499, #280 ) ;
#409 = AXIS2_PLACEMENT_3D ( 'NONE', #172, #432, #125 ) ;
#410 = UNCERTAINTY_MEASURE_WITH_UNIT (LENGTH_MEASURE( 1.000000000000000082E-05 ), #146, 'distance_accuracy_value', 'NONE');
#411 = CARTESIAN_POINT ( 'NONE',  ( -2.155776610413190714E-16, 0.000000000000000000, -1.520000000000000240 ) ) ;
#412 = CYLINDRICAL_SURFACE ( 'NONE', #362, 0.6300000000000010036 ) ;
#413 = EDGE_CURVE ( 'NONE', #254, #240, #74, .T. ) ;
#414 = CARTESIAN_POINT ( 'NONE',  ( 1.104999999999999760, 1.353234713057826119E-16, -6.630000000000000782 ) ) ;
#415 = ORIENTED_EDGE ( 'NONE', *, *, #322, .F. ) ;
#416 = PRODUCT_DEFINITION_SHAPE ( 'NONE', 'NONE',  #285 ) ;
#417 = ORIENTED_EDGE ( 'NONE', *, *, #83, .T. ) ;
#418 = ORIENTED_EDGE ( 'NONE', *, *, #5, .T. ) ;
#419 = VERTEX_POINT ( 'NONE', #204 ) ;
#420 = CONICAL_SURFACE ( 'NONE', #124, 0.9550000000000000711, 0.7853981633974482790 ) ;
#421 = CARTESIAN_POINT ( 'NONE',  ( -1.272191854960941851E-15, 0.000000000000000000, -8.969999999999998863 ) ) ;
#422 = PRODUCT_RELATED_PRODUCT_CATEGORY ( 'part', '', ( #491 ) ) ;
#423 = ORIENTED_EDGE ( 'NONE', *, *, #42, .F. ) ;
#424 = AXIS2_PLACEMENT_3D ( 'NONE', #53, #147, #91 ) ;
#425 = AXIS2_PLACEMENT_3D ( 'NONE', #390, #169, #33 ) ;
#426 = CIRCLE ( 'NONE', #168, 0.1000000000000002554 ) ;
#427 = CARTESIAN_POINT ( 'NONE',  ( 1.945000000000000284, 0.000000000000000000, -2.758543096877405028E-16 ) ) ;
#428 = EDGE_LOOP ( 'NONE', ( #311, #3 ) ) ;
#429 = EDGE_CURVE ( 'NONE', #62, #148, #67, .T. ) ;
#430 =( NAMED_UNIT ( * ) PLANE_ANGLE_UNIT ( ) SI_UNIT ( $, .RADIAN. ) );
#431 = ORIENTED_EDGE ( 'NONE', *, *, #429, .F. ) ;
#432 = DIRECTION ( 'NONE',  ( 1.418274085798151442E-16, -0.000000000000000000, 1.000000000000000000 ) ) ;
#433 = EDGE_CURVE ( 'NONE', #399, #316, #49, .T. ) ;
#434 = AXIS2_PLACEMENT_3D ( 'NONE', #446, #143, #188 ) ;
#435 =( NAMED_UNIT ( * ) SI_UNIT ( $, .STERADIAN. ) SOLID_ANGLE_UNIT ( ) );
#436 = ORIENTED_EDGE ( 'NONE', *, *, #211, .T. ) ;
#437 = AXIS2_PLACEMENT_3D ( 'NONE', #269, #293, #92 ) ;
#438 = CARTESIAN_POINT ( 'NONE',  ( -1.945000000000000506, 2.381938024341602260E-16, -2.279999999999999805 ) ) ;
#439 = APPLICATION_CONTEXT ( 'automotive_design' ) ;
#440 = EDGE_CURVE ( 'NONE', #75, #31, #271, .T. ) ;
#441 = FACE_OUTER_BOUND ( 'NONE', #349, .T. ) ;
#442 = DIRECTION ( 'NONE',  ( 1.000000000000000000, 0.000000000000000000, -1.471767654957698398E-16 ) ) ;
#443 = PRESENTATION_LAYER_ASSIGNMENT (  '', '', ( #323 ) ) ;
#444 = DIRECTION ( 'NONE',  ( 1.418274085798151442E-16, -0.000000000000000000, 1.000000000000000000 ) ) ;
#445 = FACE_BOUND ( 'NONE', #228, .T. ) ;
#446 = CARTESIAN_POINT ( 'NONE',  ( 1.945000000000000062, 0.000000000000000000, -2.280000000000000693 ) ) ;
#447 =( NAMED_UNIT ( * ) PLANE_ANGLE_UNIT ( ) SI_UNIT ( $, .RADIAN. ) );
#448 = AXIS2_PLACEMENT_3D ( 'NONE', #363, #393, #34 ) ;
#449 = VECTOR ( 'NONE', #229, 1000.000000000000000 ) ;
#450 = CARTESIAN_POINT ( 'NONE',  ( -1.104999999999999982, 1.353234713057825625E-16, 1.567192864806957560E-16 ) ) ;
#451 = CARTESIAN_POINT ( 'NONE',  ( 1.104999999999999982, 0.000000000000000000, -1.520000000000000462 ) ) ;
#452 = DIRECTION ( 'NONE',  ( 1.000000000000000000, 0.000000000000000000, 0.000000000000000000 ) ) ;
#453 = ORIENTED_EDGE ( 'NONE', *, *, #42, .T. ) ;
#454 = CARTESIAN_POINT ( 'NONE',  ( 0.9550000000000000711, 1.261386203121773969E-16, 0.000000000000000000 ) ) ;
#455 = FACE_OUTER_BOUND ( 'NONE', #197, .T. ) ;
#456 = FACE_OUTER_BOUND ( 'NONE', #377, .T. ) ;
#457 = VERTEX_POINT ( 'NONE', #4 ) ;
#458 = PRODUCT_CONTEXT ( 'NONE', #439, 'mechanical' ) ;
#459 = CARTESIAN_POINT ( 'NONE',  ( -1.945000000000000506, 2.381938024341602260E-16, -1.520000000000000018 ) ) ;
#460 = ORIENTED_EDGE ( 'NONE', *, *, #343, .T. ) ;
#461 = DIRECTION ( 'NONE',  ( 1.418274085798151442E-16, -0.000000000000000000, 1.000000000000000000 ) ) ;
#462 = ORIENTED_EDGE ( 'NONE', *, *, #440, .T. ) ;
#463 = EDGE_CURVE ( 'NONE', #38, #399, #13, .T. ) ;
#464 = DIRECTION ( 'NONE',  ( -1.418274085798151442E-16, 0.000000000000000000, -1.000000000000000000 ) ) ;
#465 = ORIENTED_EDGE ( 'NONE', *, *, #100, .F. ) ;
#466 = EDGE_LOOP ( 'NONE', ( #327, #249 ) ) ;
#467 = DIRECTION ( 'NONE',  ( 1.000000000000000000, 0.000000000000000000, 0.000000000000000000 ) ) ;
#468 = CARTESIAN_POINT ( 'NONE',  ( 0.000000000000000000, 0.000000000000000000, 0.000000000000000000 ) ) ;
#469 = DIRECTION ( 'NONE',  ( 1.000000000000000000, 0.000000000000000000, 0.000000000000000000 ) ) ;
#470 = ORIENTED_EDGE ( 'NONE', *, *, #298, .F. ) ;
#471 = CIRCLE ( 'NONE', #508, 1.205000000000000737 ) ;
#472 = CARTESIAN_POINT ( 'NONE',  ( 0.6300000000000010036, 0.000000000000000000, -8.935126740528368333E-17 ) ) ;
#473 = DIRECTION ( 'NONE',  ( 1.000000000000000000, 0.000000000000000000, -1.418274085798151442E-16 ) ) ;
#474 = UNCERTAINTY_MEASURE_WITH_UNIT (LENGTH_MEASURE( 1.000000000000000082E-05 ), #267, 'distance_accuracy_value', 'NONE');
#475 = DIRECTION ( 'NONE',  ( -1.000000000000000000, 0.000000000000000000, 1.418274085798151442E-16 ) ) ;
#476 = CARTESIAN_POINT ( 'NONE',  ( 0.000000000000000000, 0.000000000000000000, 0.000000000000000000 ) ) ;
#477 = VECTOR ( 'NONE', #179, 1000.000000000000000 ) ;
#478 = ADVANCED_FACE ( 'NONE', ( #8, #45 ), #223, .T. ) ;
#479 = FACE_OUTER_BOUND ( 'NONE', #111, .T. ) ;
#480 = ORIENTED_EDGE ( 'NONE', *, *, #322, .T. ) ;
#481 = DIRECTION ( 'NONE',  ( -1.418274085798151442E-16, 0.000000000000000000, -1.000000000000000000 ) ) ;
#482 = VERTEX_POINT ( 'NONE', #459 ) ;
#483 = DIRECTION ( 'NONE',  ( -1.000000000000000000, 0.000000000000000000, 1.418274085798151442E-16 ) ) ;
#484 = ADVANCED_FACE ( 'NONE', ( #456 ), #303, .T. ) ;
#485 = CARTESIAN_POINT ( 'NONE',  ( 9.604919101182430109E-33, 0.000000000000000000, 6.772258759686173727E-17 ) ) ;
#486 = LINE ( 'NONE', #258, #477 ) ;
#487 = VECTOR ( 'NONE', #206, 1000.000000000000000 ) ;
#488 = DIRECTION ( 'NONE',  ( 1.000000000000000000, 0.000000000000000000, -1.471767654957698398E-16 ) ) ;
#489 = AXIS2_PLACEMENT_3D ( 'NONE', #403, #296, #130 ) ;
#490 = DIRECTION ( 'NONE',  ( 1.000000000000000000, 0.000000000000000000, 0.000000000000000000 ) ) ;
#491 = PRODUCT ( '0851-0-15-20-82-14-11-0-CAD', '0851-0-15-20-82-14-11-0-CAD', '', ( #458 ) ) ;
#492 = UNCERTAINTY_MEASURE_WITH_UNIT (LENGTH_MEASURE( 1.000000000000000082E-05 ), #122, 'distance_accuracy_value', 'NONE');
#493 = CARTESIAN_POINT ( 'NONE',  ( 2.837762542188525098E-16, 0.000000000000000000, -9.599999999999997868 ) ) ;
#494 = CARTESIAN_POINT ( 'NONE',  ( -0.6300000000000020028, 7.715274834628337704E-17, -6.730000000000000426 ) ) ;
#495 = EDGE_LOOP ( 'NONE', ( #159, #423, #251, #173 ) ) ;
#496 = ORIENTED_EDGE ( 'NONE', *, *, #273, .F. ) ;
#497 = DIRECTION ( 'NONE',  ( -1.418274085798151442E-16, 0.000000000000000000, -1.000000000000000000 ) ) ;
#498 = DIRECTION ( 'NONE',  ( 1.418274085798151442E-16, -0.000000000000000000, 1.000000000000000000 ) ) ;
#499 = DIRECTION ( 'NONE',  ( 1.418274085798151442E-16, -0.000000000000000000, 1.000000000000000000 ) ) ;
#500 = EDGE_CURVE ( 'NONE', #98, #41, #166, .T. ) ;
#501 = ORIENTED_EDGE ( 'NONE', *, *, #248, .T. ) ;
#502 = PRESENTATION_LAYER_ASSIGNMENT (  '', '', ( #230 ) ) ;
#503 = ORIENTED_EDGE ( 'NONE', *, *, #433, .T. ) ;
#504 = AXIS2_PLACEMENT_3D ( 'NONE', #218, #444, #488 ) ;
#505 = DIRECTION ( 'NONE',  ( 1.000000000000000000, 0.000000000000000000, -1.418274085798151442E-16 ) ) ;
#506 = FACE_OUTER_BOUND ( 'NONE', #347, .T. ) ;
#507 = CYLINDRICAL_SURFACE ( 'NONE', #425, 0.6300000000000010036 ) ;
#508 = AXIS2_PLACEMENT_3D ( 'NONE', #302, #135, #221 ) ;
ENDSEC;
END-ISO-10303-21;
