ISO-10303-21;
HEADER;
FILE_DESCRIPTION (( 'STEP AP214' ),
    '1' );
FILE_NAME ('8E428D4E-6680-4AF4-911A-D72FA3E48E5F.STEP',
    '2022-07-15T15:32:32',
    ( '' ),
    ( '' ),
    'SwSTEP 2.0',
    'SolidWorks 2022',
    '' );
FILE_SCHEMA (( 'AUTOMOTIVE_DESIGN' ));
ENDSEC;

DATA;
#1 = DIRECTION ( 'NONE',  ( -1.000000000000000000, -3.938932990415365386E-18, -0.0000000000000000000 ) ) ;
#2 = TOROIDAL_SURFACE ( 'NONE', #324, 0.01150000000000020103, 0.003000000000000000062 ) ;
#3 = DIRECTION ( 'NONE',  ( 0.0000000000000000000, -1.000000000000000000, 0.0000000000000000000 ) ) ;
#4 = LINE ( 'NONE', #50, #298 ) ;
#5 = EDGE_CURVE ( 'NONE', #345, #196, #289, .T. ) ;
#6 = CARTESIAN_POINT ( 'NONE',  ( 0.3431000000000011263, 0.0000000000000000000, 0.0000000000000000000 ) ) ;
#7 = DIRECTION ( 'NONE',  ( -1.000000000000000000, -3.938932990415365386E-18, -0.0000000000000000000 ) ) ;
#8 = AXIS2_PLACEMENT_3D ( 'NONE', #474, #472, #537 ) ;
#9 = CARTESIAN_POINT ( 'NONE',  ( 0.08500000000000113021, -0.03599999999999999728, 0.0000000000000000000 ) ) ;
#10 = LINE ( 'NONE', #482, #636 ) ;
#11 = UNCERTAINTY_MEASURE_WITH_UNIT (LENGTH_MEASURE( 1.000000000000000082E-05 ), #364, 'distance_accuracy_value', 'NONE');
#12 = EDGE_CURVE ( 'NONE', #93, #230, #435, .T. ) ;
#13 = EDGE_LOOP ( 'NONE', ( #217, #594, #185, #351 ) ) ;
#14 = CARTESIAN_POINT ( 'NONE',  ( -8.232369949968109538E-20, 0.02089999999999999150, 2.559511810217967004E-18 ) ) ;
#15 = AXIS2_PLACEMENT_3D ( 'NONE', #288, #333, #507 ) ;
#16 = VERTEX_POINT ( 'NONE', #235 ) ;
#17 = AXIS2_PLACEMENT_3D ( 'NONE', #617, #565, #401 ) ;
#18 = CIRCLE ( 'NONE', #396, 0.008500000000000193165 ) ;
#19 = FACE_BOUND ( 'NONE', #566, .T. ) ;
#20 = DIRECTION ( 'NONE',  ( -1.000000000000000000, -3.938932990415365386E-18, -0.0000000000000000000 ) ) ;
#21 = ORIENTED_EDGE ( 'NONE', *, *, #276, .F. ) ;
#22 = EDGE_CURVE ( 'NONE', #71, #332, #139, .T. ) ;
#23 = DIRECTION ( 'NONE',  ( 3.938932990415366157E-18, -1.000000000000000000, 0.0000000000000000000 ) ) ;
#24 = VERTEX_POINT ( 'NONE', #285 ) ;
#25 = APPLICATION_PROTOCOL_DEFINITION ( 'draft international standard', 'automotive_design', 1998, #197 ) ;
#26 = DIRECTION ( 'NONE',  ( -1.000000000000000000, -3.938932990415365386E-18, -0.0000000000000000000 ) ) ;
#27 = ORIENTED_EDGE ( 'NONE', *, *, #293, .F. ) ;
#28 = AXIS2_PLACEMENT_3D ( 'NONE', #82, #86, #181 ) ;
#29 = CARTESIAN_POINT ( 'NONE',  ( 0.0000000000000000000, 0.0000000000000000000, 0.0000000000000000000 ) ) ;
#30 = CIRCLE ( 'NONE', #247, 0.02089999999999999844 ) ;
#31 = DIRECTION ( 'NONE',  ( 0.0000000000000000000, -1.000000000000000000, 0.0000000000000000000 ) ) ;
#32 = ORIENTED_EDGE ( 'NONE', *, *, #555, .T. ) ;
#33 = DIRECTION ( 'NONE',  ( 4.823801678768089671E-34, -1.224646799147353207E-16, 1.000000000000000000 ) ) ;
#34 = DIRECTION ( 'NONE',  ( -1.000000000000000000, -3.938932990415365386E-18, -0.0000000000000000000 ) ) ;
#35 = EDGE_CURVE ( 'NONE', #61, #596, #4, .T. ) ;
#36 = DIRECTION ( 'NONE',  ( 0.0000000000000000000, -1.000000000000000000, 0.0000000000000000000 ) ) ;
#37 = PLANE ( 'NONE',  #311 ) ;
#38 = CARTESIAN_POINT ( 'NONE',  ( 0.2670000000000011253, 0.02726794919243106380, 0.0000000000000000000 ) ) ;
#39 = AXIS2_PLACEMENT_3D ( 'NONE', #593, #309, #365 ) ;
#40 = ORIENTED_EDGE ( 'NONE', *, *, #555, .F. ) ;
#41 = DIRECTION ( 'NONE',  ( -1.000000000000000000, -3.938932990415365386E-18, -0.0000000000000000000 ) ) ;
#42 = CYLINDRICAL_SURFACE ( 'NONE', #495, 0.02089999999999999150 ) ;
#43 = ORIENTED_EDGE ( 'NONE', *, *, #458, .F. ) ;
#44 = DIRECTION ( 'NONE',  ( -1.000000000000000000, -3.938932990415365386E-18, -0.0000000000000000000 ) ) ;
#45 = VERTEX_POINT ( 'NONE', #626 ) ;
#46 = CARTESIAN_POINT ( 'NONE',  ( 0.0000000000000000000, 0.0000000000000000000, 0.0000000000000000000 ) ) ;
#47 = AXIS2_PLACEMENT_3D ( 'NONE', #328, #283, #125 ) ;
#48 = ADVANCED_FACE ( 'NONE', ( #466 ), #149, .T. ) ;
#49 = CARTESIAN_POINT ( 'NONE',  ( 0.0000000000000000000, 0.0000000000000000000, 0.0000000000000000000 ) ) ;
#50 = CARTESIAN_POINT ( 'NONE',  ( 3.348093041853138391E-20, -0.008500000000000196634, 0.0000000000000000000 ) ) ;
#51 = EDGE_CURVE ( 'NONE', #570, #133, #670, .T. ) ;
#52 = SURFACE_STYLE_USAGE ( .BOTH. , #666 ) ;
#53 = DIRECTION ( 'NONE',  ( 0.0000000000000000000, -1.000000000000000000, 0.0000000000000000000 ) ) ;
#54 = CARTESIAN_POINT ( 'NONE',  ( 0.08500000000000113021, 0.03049999999999999586, 3.735172737399426715E-18 ) ) ;
#55 = FACE_OUTER_BOUND ( 'NONE', #613, .T. ) ;
#56 = AXIS2_PLACEMENT_3D ( 'NONE', #120, #70, #271 ) ;
#57 = CARTESIAN_POINT ( 'NONE',  ( 0.0000000000000000000, 0.0000000000000000000, 0.0000000000000000000 ) ) ;
#58 = CARTESIAN_POINT ( 'NONE',  ( 0.1130000000000009330, 0.03049999999999999239, 3.735172737399426715E-18 ) ) ;
#59 = FACE_OUTER_BOUND ( 'NONE', #543, .T. ) ;
#60 = FACE_OUTER_BOUND ( 'NONE', #605, .T. ) ;
#61 = VERTEX_POINT ( 'NONE', #503 ) ;
#62 = DIRECTION ( 'NONE',  ( 0.0000000000000000000, -1.000000000000000000, 0.0000000000000000000 ) ) ;
#63 = DIRECTION ( 'NONE',  ( -0.0000000000000000000, 0.0000000000000000000, -1.000000000000000000 ) ) ;
#64 = EDGE_LOOP ( 'NONE', ( #73, #142, #296, #393 ) ) ;
#65 = AXIS2_PLACEMENT_3D ( 'NONE', #49, #240, #450 ) ;
#66 = COLOUR_RGB ( '',1.000000000000000000, 0.8078431372549019773, 0.4980392156862745168 ) ;
#67 = FACE_OUTER_BOUND ( 'NONE', #459, .T. ) ;
#68 = ADVANCED_FACE ( 'NONE', ( #389, #130 ), #37, .F. ) ;
#69 = ORIENTED_EDGE ( 'NONE', *, *, #483, .T. ) ;
#70 = DIRECTION ( 'NONE',  ( -1.000000000000000000, -3.938932990415365386E-18, -0.0000000000000000000 ) ) ;
#71 = VERTEX_POINT ( 'NONE', #411 ) ;
#72 = DIRECTION ( 'NONE',  ( 0.0000000000000000000, -1.000000000000000000, 0.0000000000000000000 ) ) ;
#73 = ORIENTED_EDGE ( 'NONE', *, *, #630, .F. ) ;
#74 = CIRCLE ( 'NONE', #97, 0.03049999999999999239 ) ;
#75 = AXIS2_PLACEMENT_3D ( 'NONE', #152, #362, #477 ) ;
#76 =( CONVERSION_BASED_UNIT ( 'INCH', #273 ) LENGTH_UNIT ( ) NAMED_UNIT ( #167 ) );
#77 = CARTESIAN_POINT ( 'NONE',  ( 0.08500000000000113021, 3.348093041853105048E-19, 0.0000000000000000000 ) ) ;
#78 = ORIENTED_EDGE ( 'NONE', *, *, #257, .T. ) ;
#79 = ORIENTED_EDGE ( 'NONE', *, *, #580, .F. ) ;
#80 = DIRECTION ( 'NONE',  ( -1.000000000000000000, -3.938932990415365386E-18, -0.0000000000000000000 ) ) ;
#81 = ORIENTED_EDGE ( 'NONE', *, *, #630, .T. ) ;
#82 = CARTESIAN_POINT ( 'NONE',  ( 0.1130000000000009330, 4.450994279169399964E-19, 0.0000000000000000000 ) ) ;
#83 = FACE_BOUND ( 'NONE', #319, .T. ) ;
#84 = ORIENTED_EDGE ( 'NONE', *, *, #487, .F. ) ;
#85 = EDGE_CURVE ( 'NONE', #316, #623, #404, .T. ) ;
#86 = DIRECTION ( 'NONE',  ( -1.000000000000000000, -3.938932990415365386E-18, -0.0000000000000000000 ) ) ;
#87 = ADVANCED_BREP_SHAPE_REPRESENTATION ( '8E428D4E-6680-4AF4-911A-D72FA3E48E5F', ( #524, #336 ), #219 ) ;
#88 = CARTESIAN_POINT ( 'NONE',  ( 8.232369949968109538E-20, -0.02089999999999999150, 0.0000000000000000000 ) ) ;
#89 = AXIS2_PLACEMENT_3D ( 'NONE', #549, #493, #31 ) ;
#90 = ORIENTED_EDGE ( 'NONE', *, *, #257, .F. ) ;
#91 = EDGE_CURVE ( 'NONE', #196, #345, #74, .T. ) ;
#92 = CARTESIAN_POINT ( 'NONE',  ( 0.2670000000000011253, 1.051695108440906943E-18, 0.0000000000000000000 ) ) ;
#93 = VERTEX_POINT ( 'NONE', #561 ) ;
#94 = EDGE_CURVE ( 'NONE', #433, #45, #10, .T. ) ;
#95 = CARTESIAN_POINT ( 'NONE',  ( 0.3640000000000011005, -1.197432205609302274E-18, 0.0000000000000000000 ) ) ;
#96 = FACE_OUTER_BOUND ( 'NONE', #505, .T. ) ;
#97 = AXIS2_PLACEMENT_3D ( 'NONE', #134, #41, #342 ) ;
#98 = ADVANCED_FACE ( 'NONE', ( #526 ), #640, .T. ) ;
#99 = CIRCLE ( 'NONE', #17, 0.01150000000000020103 ) ;
#100 = VECTOR ( 'NONE', #1, 39.37007874015748143 ) ;
#101 = DIRECTION ( 'NONE',  ( -1.000000000000000000, -3.938932990415365386E-18, -0.0000000000000000000 ) ) ;
#102 = DIRECTION ( 'NONE',  ( 0.0000000000000000000, -1.000000000000000000, 0.0000000000000000000 ) ) ;
#103 = FACE_BOUND ( 'NONE', #400, .T. ) ;
#104 = PLANE ( 'NONE',  #266 ) ;
#105 = AXIS2_PLACEMENT_3D ( 'NONE', #434, #80, #36 ) ;
#106 = AXIS2_PLACEMENT_3D ( 'NONE', #420, #522, #3 ) ;
#107 = PRESENTATION_STYLE_ASSIGNMENT (( #52 ) ) ;
#108 = CIRCLE ( 'NONE', #186, 0.02900000000000000147 ) ;
#109 = DIRECTION ( 'NONE',  ( -1.000000000000000000, -3.938932990415365386E-18, -0.0000000000000000000 ) ) ;
#110 = ORIENTED_EDGE ( 'NONE', *, *, #458, .T. ) ;
#111 =( NAMED_UNIT ( * ) PLANE_ANGLE_UNIT ( ) SI_UNIT ( $, .RADIAN. ) );
#112 = CARTESIAN_POINT ( 'NONE',  ( 0.2670000000000011253, 1.051695108440906943E-18, 0.0000000000000000000 ) ) ;
#113 = ORIENTED_EDGE ( 'NONE', *, *, #51, .T. ) ;
#114 = FACE_OUTER_BOUND ( 'NONE', #621, .T. ) ;
#115 = DIRECTION ( 'NONE',  ( -0.8660254037844391517, 0.4999999999999991118, 6.123233995736754943E-17 ) ) ;
#116 = EDGE_CURVE ( 'NONE', #284, #606, #355, .T. ) ;
#117 = EDGE_LOOP ( 'NONE', ( #79, #553, #27 ) ) ;
#118 = CIRCLE ( 'NONE', #89, 0.02900000000000000147 ) ;
#119 = FILL_AREA_STYLE ('',( #597 ) ) ;
#120 = CARTESIAN_POINT ( 'NONE',  ( 0.0000000000000000000, 0.0000000000000000000, 0.0000000000000000000 ) ) ;
#121 = ADVANCED_FACE ( 'NONE', ( #55 ), #469, .T. ) ;
#122 = ORIENTED_EDGE ( 'NONE', *, *, #293, .T. ) ;
#123 = EDGE_CURVE ( 'NONE', #61, #570, #460, .T. ) ;
#124 = CARTESIAN_POINT ( 'NONE',  ( -1.142290567220455993E-19, 0.02900000000000000147, 3.551475717527324911E-18 ) ) ;
#125 = DIRECTION ( 'NONE',  ( 0.0000000000000000000, -1.000000000000000000, 0.0000000000000000000 ) ) ;
#126 = DIRECTION ( 'NONE',  ( -1.000000000000000000, -3.938932990415365386E-18, -0.0000000000000000000 ) ) ;
#127 = AXIS2_PLACEMENT_3D ( 'NONE', #361, #412, #634 ) ;
#128 = DIRECTION ( 'NONE',  ( 0.0000000000000000000, -1.000000000000000000, 0.0000000000000000000 ) ) ;
#129 = ORIENTED_EDGE ( 'NONE', *, *, #188, .F. ) ;
#130 = FACE_BOUND ( 'NONE', #499, .T. ) ;
#131 = CARTESIAN_POINT ( 'NONE',  ( 0.1241961524226974228, 0.02900000000000000147, 3.551475717527324911E-18 ) ) ;
#132 = EDGE_CURVE ( 'NONE', #623, #316, #172, .T. ) ;
#133 = VERTEX_POINT ( 'NONE', #253 ) ;
#134 = CARTESIAN_POINT ( 'NONE',  ( 0.1130000000000009330, 4.450994279169399964E-19, 0.0000000000000000000 ) ) ;
#135 = CARTESIAN_POINT ( 'NONE',  ( 0.2640000000000010116, -0.02900000000000000147, 0.0000000000000000000 ) ) ;
#136 = EDGE_CURVE ( 'NONE', #61, #337, #619, .T. ) ;
#137 = ORIENTED_EDGE ( 'NONE', *, *, #607, .F. ) ;
#138 = APPLICATION_PROTOCOL_DEFINITION ( 'draft international standard', 'automotive_design', 1998, #264 ) ;
#139 = CIRCLE ( 'NONE', #528, 0.03599999999999999728 ) ;
#140 = CYLINDRICAL_SURFACE ( 'NONE', #65, 0.02089999999999999150 ) ;
#141 = CIRCLE ( 'NONE', #424, 0.03599999999999999728 ) ;
#142 = ORIENTED_EDGE ( 'NONE', *, *, #91, .T. ) ;
#143 = CARTESIAN_POINT ( 'NONE',  ( 0.008500000000000194900, -1.067128122525102820E-18, 0.0000000000000000000 ) ) ;
#144 = ORIENTED_EDGE ( 'NONE', *, *, #334, .T. ) ;
#145 = SHAPE_DEFINITION_REPRESENTATION ( #569, #87 ) ;
#146 = DIRECTION ( 'NONE',  ( 0.0000000000000000000, -1.000000000000000000, 0.0000000000000000000 ) ) ;
#147 = ORIENTED_EDGE ( 'NONE', *, *, #51, .F. ) ;
#148 = VECTOR ( 'NONE', #115, 39.37007874015748143 ) ;
#149 = CYLINDRICAL_SURFACE ( 'NONE', #15, 0.03049999999999999586 ) ;
#150 =( GEOMETRIC_REPRESENTATION_CONTEXT ( 3 ) GLOBAL_UNCERTAINTY_ASSIGNED_CONTEXT ( ( #11 ) ) GLOBAL_UNIT_ASSIGNED_CONTEXT ( ( #364, #111, #366 ) ) REPRESENTATION_CONTEXT ( 'NONE', 'WORKASPACE' ) );
#151 = CARTESIAN_POINT ( 'NONE',  ( 0.06600000000000109945, 0.0000000000000000000, 0.0000000000000000000 ) ) ;
#152 = CARTESIAN_POINT ( 'NONE',  ( 0.008500000000000194900, -1.067128122525102820E-18, 0.0000000000000000000 ) ) ;
#153 = DIRECTION ( 'NONE',  ( -0.0000000000000000000, 0.0000000000000000000, 1.000000000000000000 ) ) ;
#154 = DIRECTION ( 'NONE',  ( 1.000000000000000000, 3.938932990415365386E-18, 0.0000000000000000000 ) ) ;
#155 = FACE_OUTER_BOUND ( 'NONE', #326, .T. ) ;
#156 = FACE_OUTER_BOUND ( 'NONE', #672, .T. ) ;
#157 = CLOSED_SHELL ( 'NONE', ( #385, #587, #419, #649, #542, #352, #492, #453, #538, #207, #98, #390, #529, #516, #245, #346, #121, #667, #48, #68, #415, #234, #314, #559 ) ) ;
#158 = AXIS2_PLACEMENT_3D ( 'NONE', #418, #205, #531 ) ;
#159 = MECHANICAL_DESIGN_GEOMETRIC_PRESENTATION_REPRESENTATION (  '', ( #301 ), #150 ) ;
#160 = ORIENTED_EDGE ( 'NONE', *, *, #431, .T. ) ;
#161 = EDGE_CURVE ( 'NONE', #606, #71, #265, .T. ) ;
#162 = LINE ( 'NONE', #206, #578 ) ;
#163 = CARTESIAN_POINT ( 'NONE',  ( 0.06900000000000108824, 0.03599999999999999728, 0.0000000000000000000 ) ) ;
#164 = ORIENTED_EDGE ( 'NONE', *, *, #224, .T. ) ;
#165 = PRODUCT_DEFINITION ( 'UNKNOWN', '', #650, #625 ) ;
#166 = CARTESIAN_POINT ( 'NONE',  ( 1.418015876549531527E-19, -0.03599999999999999728, 0.0000000000000000000 ) ) ;
#167 = DIMENSIONAL_EXPONENTS ( 1.000000000000000000, 0.0000000000000000000, 0.0000000000000000000, 0.0000000000000000000, 0.0000000000000000000, 0.0000000000000000000, 0.0000000000000000000 ) ;
#168 = ORIENTED_EDGE ( 'NONE', *, *, #512, .F. ) ;
#169 = CARTESIAN_POINT ( 'NONE',  ( 0.3431000000000011263, 1.351447909011516175E-18, 0.0000000000000000000 ) ) ;
#170 = EDGE_CURVE ( 'NONE', #651, #24, #256, .T. ) ;
#171 = ORIENTED_EDGE ( 'NONE', *, *, #254, .F. ) ;
#172 = CIRCLE ( 'NONE', #204, 0.02726794919243106380 ) ;
#173 = CARTESIAN_POINT ( 'NONE',  ( 0.06900000000000108824, 2.717863763386644826E-19, 0.0000000000000000000 ) ) ;
#174 = EDGE_LOOP ( 'NONE', ( #147, #341, #658, #160 ) ) ;
#175 = DIRECTION ( 'NONE',  ( -3.938932990415365386E-18, 1.000000000000000000, 0.0000000000000000000 ) ) ;
#176 = CARTESIAN_POINT ( 'NONE',  ( 0.008500000000000194900, -1.067128122525102820E-18, 0.0000000000000000000 ) ) ;
#177 = ORIENTED_EDGE ( 'NONE', *, *, #91, .F. ) ;
#178 = ORIENTED_EDGE ( 'NONE', *, *, #359, .T. ) ;
#179 = CYLINDRICAL_SURFACE ( 'NONE', #56, 0.02900000000000000147 ) ;
#180 = ORIENTED_EDGE ( 'NONE', *, *, #85, .F. ) ;
#181 = DIRECTION ( 'NONE',  ( 0.0000000000000000000, -1.000000000000000000, 0.0000000000000000000 ) ) ;
#182 = CIRCLE ( 'NONE', #158, 0.02089999999999998803 ) ;
#183 = AXIS2_PLACEMENT_3D ( 'NONE', #191, #286, #397 ) ;
#184 = CARTESIAN_POINT ( 'NONE',  ( 0.06900000000000110212, 2.717863763386645307E-19, 0.0000000000000000000 ) ) ;
#185 = ORIENTED_EDGE ( 'NONE', *, *, #161, .T. ) ;
#186 = AXIS2_PLACEMENT_3D ( 'NONE', #476, #423, #62 ) ;
#187 = DIRECTION ( 'NONE',  ( -1.000000000000000000, -3.938932990415365386E-18, -0.0000000000000000000 ) ) ;
#188 = EDGE_CURVE ( 'NONE', #463, #354, #182, .T. ) ;
#189 = DIRECTION ( 'NONE',  ( -1.000000000000000000, -3.938932990415365386E-18, -0.0000000000000000000 ) ) ;
#190 = ORIENTED_EDGE ( 'NONE', *, *, #508, .F. ) ;
#191 = CARTESIAN_POINT ( 'NONE',  ( 0.3431000000000011263, 1.351447909011516175E-18, 0.0000000000000000000 ) ) ;
#192 = ORIENTED_EDGE ( 'NONE', *, *, #310, .T. ) ;
#193 =( NAMED_UNIT ( * ) SI_UNIT ( $, .STERADIAN. ) SOLID_ANGLE_UNIT ( ) );
#194 = CIRCLE ( 'NONE', #279, 0.03049999999999999586 ) ;
#195 = FACE_OUTER_BOUND ( 'NONE', #637, .T. ) ;
#196 = VERTEX_POINT ( 'NONE', #58 ) ;
#197 = APPLICATION_CONTEXT ( 'automotive_design' ) ;
#198 = EDGE_CURVE ( 'NONE', #590, #381, #671, .T. ) ;
#199 = STYLED_ITEM ( 'NONE', ( #223 ), #87 ) ;
#200 = DIRECTION ( 'NONE',  ( -1.000000000000000000, -3.938932990415365386E-18, -0.0000000000000000000 ) ) ;
#201 = DIRECTION ( 'NONE',  ( -1.000000000000000000, -3.938932990415365386E-18, -0.0000000000000000000 ) ) ;
#202 = DIRECTION ( 'NONE',  ( 3.938932990415366157E-18, -1.000000000000000000, 0.0000000000000000000 ) ) ;
#203 = CARTESIAN_POINT ( 'NONE',  ( 0.008500000000000193165, 3.348093041853136585E-20, 0.0000000000000000000 ) ) ;
#204 = AXIS2_PLACEMENT_3D ( 'NONE', #112, #429, #53 ) ;
#205 = DIRECTION ( 'NONE',  ( 4.823801678768089671E-34, -1.224646799147353207E-16, 1.000000000000000000 ) ) ;
#206 = CARTESIAN_POINT ( 'NONE',  ( 0.2670000000000011253, -0.02726794919243106380, 0.0000000000000000000 ) ) ;
#207 = ADVANCED_FACE ( 'NONE', ( #633 ), #416, .T. ) ;
#208 = CARTESIAN_POINT ( 'NONE',  ( 0.008500000000000194900, -1.067128122525102820E-18, 0.0000000000000000000 ) ) ;
#209 = DIRECTION ( 'NONE',  ( -1.000000000000000000, -3.938932990415365386E-18, -0.0000000000000000000 ) ) ;
#210 = DIRECTION ( 'NONE',  ( -1.000000000000000000, -3.938932990415365386E-18, -0.0000000000000000000 ) ) ;
#211 = ORIENTED_EDGE ( 'NONE', *, *, #567, .T. ) ;
#212 = DIRECTION ( 'NONE',  ( -1.000000000000000000, -3.938932990415365386E-18, -0.0000000000000000000 ) ) ;
#213 = DIRECTION ( 'NONE',  ( -0.9659258262890096924, -0.2588190451027395089, 0.0000000000000000000 ) ) ;
#214 = AXIS2_PLACEMENT_3D ( 'NONE', #353, #558, #615 ) ;
#215 = VECTOR ( 'NONE', #344, 39.37007874015748143 ) ;
#216 = EDGE_CURVE ( 'NONE', #570, #16, #635, .T. ) ;
#217 = ORIENTED_EDGE ( 'NONE', *, *, #409, .F. ) ;
#218 = LINE ( 'NONE', #124, #631 ) ;
#219 =( GEOMETRIC_REPRESENTATION_CONTEXT ( 3 ) GLOBAL_UNCERTAINTY_ASSIGNED_CONTEXT ( ( #295 ) ) GLOBAL_UNIT_ASSIGNED_CONTEXT ( ( #76, #269, #374 ) ) REPRESENTATION_CONTEXT ( 'NONE', 'WORKASPACE' ) );
#220 = ORIENTED_EDGE ( 'NONE', *, *, #470, .T. ) ;
#221 = CARTESIAN_POINT ( 'NONE',  ( 0.08500000000000113021, -0.03049999999999999586, 0.0000000000000000000 ) ) ;
#222 = ORIENTED_EDGE ( 'NONE', *, *, #310, .F. ) ;
#223 = PRESENTATION_STYLE_ASSIGNMENT (( #382 ) ) ;
#224 = EDGE_CURVE ( 'NONE', #354, #93, #315, .T. ) ;
#225 = CARTESIAN_POINT ( 'NONE',  ( 0.2670000000000011253, 0.02726794919243106380, 3.339360669782335402E-18 ) ) ;
#226 = ORIENTED_EDGE ( 'NONE', *, *, #478, .F. ) ;
#227 = AXIS2_PLACEMENT_3D ( 'NONE', #443, #608, #236 ) ;
#228 = DIRECTION ( 'NONE',  ( 3.938932990415365386E-18, -1.000000000000000000, 0.0000000000000000000 ) ) ;
#229 = DIRECTION ( 'NONE',  ( -4.823801678768089671E-34, 1.224646799147353207E-16, -1.000000000000000000 ) ) ;
#230 = VERTEX_POINT ( 'NONE', #582 ) ;
#231 = CARTESIAN_POINT ( 'NONE',  ( -1.201374562076686293E-19, 0.03049999999999999586, 3.735172737399426715E-18 ) ) ;
#232 = CARTESIAN_POINT ( 'NONE',  ( 0.06900000000000108824, 0.03599999999999999728, 4.408728476930471028E-18 ) ) ;
#233 = ORIENTED_EDGE ( 'NONE', *, *, #216, .T. ) ;
#234 = ADVANCED_FACE ( 'NONE', ( #103, #156 ), #104, .F. ) ;
#235 = CARTESIAN_POINT ( 'NONE',  ( 0.008500000000000193165, 0.008500000000000193165, 0.0000000000000000000 ) ) ;
#236 = DIRECTION ( 'NONE',  ( 3.938932990415365386E-18, -1.000000000000000000, 0.0000000000000000000 ) ) ;
#237 = ORIENTED_EDGE ( 'NONE', *, *, #242, .F. ) ;
#238 = DIRECTION ( 'NONE',  ( 3.938932990415365386E-18, -1.000000000000000000, 0.0000000000000000000 ) ) ;
#239 = AXIS2_PLACEMENT_3D ( 'NONE', #369, #421, #579 ) ;
#240 = DIRECTION ( 'NONE',  ( -1.000000000000000000, -3.938932990415365386E-18, -0.0000000000000000000 ) ) ;
#241 = EDGE_LOOP ( 'NONE', ( #644, #81, #430, #84 ) ) ;
#242 = EDGE_CURVE ( 'NONE', #606, #284, #321, .T. ) ;
#243 = LINE ( 'NONE', #294, #367 ) ;
#244 = DIRECTION ( 'NONE',  ( 3.938932990415365386E-18, -1.000000000000000000, 0.0000000000000000000 ) ) ;
#245 = ADVANCED_FACE ( 'NONE', ( #60 ), #255, .T. ) ;
#246 = ORIENTED_EDGE ( 'NONE', *, *, #94, .F. ) ;
#247 = AXIS2_PLACEMENT_3D ( 'NONE', #320, #446, #128 ) ;
#248 = FACE_OUTER_BOUND ( 'NONE', #13, .T. ) ;
#249 = CIRCLE ( 'NONE', #588, 0.008500000000000193165 ) ;
#250 = DIRECTION ( 'NONE',  ( -1.000000000000000000, -3.938932990415365386E-18, -0.0000000000000000000 ) ) ;
#251 = ORIENTED_EDGE ( 'NONE', *, *, #402, .T. ) ;
#252 = CARTESIAN_POINT ( 'NONE',  ( 1.067128122525102820E-18, -5.801341633059971166E-19, 0.0000000000000000000 ) ) ;
#253 = CARTESIAN_POINT ( 'NONE',  ( 0.06900000000000110212, 0.01150000000000020103, 1.408343819019480803E-18 ) ) ;
#254 = EDGE_CURVE ( 'NONE', #230, #93, #30, .T. ) ;
#255 = CONICAL_SURFACE ( 'NONE', #299, 0.02726794919243106380, 0.5235987755982978165 ) ;
#256 = LINE ( 'NONE', #468, #564 ) ;
#257 = EDGE_CURVE ( 'NONE', #623, #665, #595, .T. ) ;
#258 = DIRECTION ( 'NONE',  ( 0.0000000000000000000, 1.000000000000000000, 0.0000000000000000000 ) ) ;
#259 = VERTEX_POINT ( 'NONE', #432 ) ;
#260 = CARTESIAN_POINT ( 'NONE',  ( 0.1241961524226974228, 4.892003220604181318E-19, 0.0000000000000000000 ) ) ;
#261 = DIRECTION ( 'NONE',  ( -1.000000000000000000, -3.938932990415365386E-18, -0.0000000000000000000 ) ) ;
#262 = ORIENTED_EDGE ( 'NONE', *, *, #359, .F. ) ;
#263 = DIRECTION ( 'NONE',  ( 0.0000000000000000000, -1.000000000000000000, 0.0000000000000000000 ) ) ;
#264 = APPLICATION_CONTEXT ( 'automotive_design' ) ;
#265 = LINE ( 'NONE', #166, #394 ) ;
#266 = AXIS2_PLACEMENT_3D ( 'NONE', #163, #154, #535 ) ;
#267 = CIRCLE ( 'NONE', #183, 0.02089999999999998803 ) ;
#268 = ORIENTED_EDGE ( 'NONE', *, *, #170, .F. ) ;
#269 =( NAMED_UNIT ( * ) PLANE_ANGLE_UNIT ( ) SI_UNIT ( $, .RADIAN. ) );
#270 = PRESENTATION_LAYER_ASSIGNMENT (  '', '', ( #199 ) ) ;
#271 = DIRECTION ( 'NONE',  ( 3.938932990415365386E-18, -1.000000000000000000, 0.0000000000000000000 ) ) ;
#272 = ORIENTED_EDGE ( 'NONE', *, *, #428, .T. ) ;
#273 = LENGTH_MEASURE_WITH_UNIT ( LENGTH_MEASURE( 0.02539999999999999897 ), #656 );
#274 = DIRECTION ( 'NONE',  ( -1.000000000000000000, -3.938932990415365386E-18, -0.0000000000000000000 ) ) ;
#275 = ORIENTED_EDGE ( 'NONE', *, *, #22, .T. ) ;
#276 = EDGE_CURVE ( 'NONE', #665, #447, #380, .T. ) ;
#277 = LENGTH_MEASURE_WITH_UNIT ( LENGTH_MEASURE( 0.02539999999999999897 ), #601 );
#278 = DIRECTION ( 'NONE',  ( -1.000000000000000000, -3.938932990415365386E-18, -0.0000000000000000000 ) ) ;
#279 = AXIS2_PLACEMENT_3D ( 'NONE', #77, #26, #509 ) ;
#280 = DIRECTION ( 'NONE',  ( 0.0000000000000000000, -1.000000000000000000, 0.0000000000000000000 ) ) ;
#281 = FACE_OUTER_BOUND ( 'NONE', #174, .T. ) ;
#282 = ORIENTED_EDGE ( 'NONE', *, *, #35, .T. ) ;
#283 = DIRECTION ( 'NONE',  ( -0.0000000000000000000, 0.0000000000000000000, 1.000000000000000000 ) ) ;
#284 = VERTEX_POINT ( 'NONE', #501 ) ;
#285 = CARTESIAN_POINT ( 'NONE',  ( 0.1130000000000009330, -0.03200000000000000067, 0.0000000000000000000 ) ) ;
#286 = DIRECTION ( 'NONE',  ( -1.000000000000000000, -3.938932990415365386E-18, -0.0000000000000000000 ) ) ;
#287 = ORIENTED_EDGE ( 'NONE', *, *, #224, .F. ) ;
#288 = CARTESIAN_POINT ( 'NONE',  ( 0.0000000000000000000, 0.0000000000000000000, 0.0000000000000000000 ) ) ;
#289 = CIRCLE ( 'NONE', #28, 0.03049999999999999239 ) ;
#290 = CIRCLE ( 'NONE', #406, 0.02089999999999998803 ) ;
#291 = DIRECTION ( 'NONE',  ( 3.938932990415365386E-18, -1.000000000000000000, 0.0000000000000000000 ) ) ;
#292 = ORIENTED_EDGE ( 'NONE', *, *, #85, .T. ) ;
#293 = EDGE_CURVE ( 'NONE', #259, #354, #290, .T. ) ;
#294 = CARTESIAN_POINT ( 'NONE',  ( -1.418015876549531527E-19, 0.03599999999999999728, 4.408728476930471028E-18 ) ) ;
#295 = UNCERTAINTY_MEASURE_WITH_UNIT (LENGTH_MEASURE( 1.000000000000000082E-05 ), #76, 'distance_accuracy_value', 'NONE');
#296 = ORIENTED_EDGE ( 'NONE', *, *, #487, .T. ) ;
#297 = CARTESIAN_POINT ( 'NONE',  ( 0.008500000000000193165, 3.348093041853136585E-20, 0.0000000000000000000 ) ) ;
#298 = VECTOR ( 'NONE', #126, 39.37007874015748143 ) ;
#299 = AXIS2_PLACEMENT_3D ( 'NONE', #584, #261, #72 ) ;
#300 = CYLINDRICAL_SURFACE ( 'NONE', #518, 0.03599999999999999728 ) ;
#301 = STYLED_ITEM ( 'NONE', ( #107 ), #524 ) ;
#302 = ORIENTED_EDGE ( 'NONE', *, *, #254, .T. ) ;
#303 = COLOUR_RGB ( '',1.000000000000000000, 0.8078431372549019773, 0.4980392156862745168 ) ;
#304 = AXIS2_PLACEMENT_3D ( 'NONE', #642, #438, #175 ) ;
#305 = FACE_OUTER_BOUND ( 'NONE', #444, .T. ) ;
#306 = CARTESIAN_POINT ( 'NONE',  ( 0.08500000000000113021, 3.348093041853105048E-19, 0.0000000000000000000 ) ) ;
#307 = EDGE_CURVE ( 'NONE', #596, #556, #405, .T. ) ;
#308 = DIRECTION ( 'NONE',  ( -1.000000000000000000, -3.938932990415365386E-18, -0.0000000000000000000 ) ) ;
#309 = DIRECTION ( 'NONE',  ( -1.000000000000000000, -3.938932990415365386E-18, -0.0000000000000000000 ) ) ;
#310 = EDGE_CURVE ( 'NONE', #651, #433, #118, .T. ) ;
#311 = AXIS2_PLACEMENT_3D ( 'NONE', #338, #655, #238 ) ;
#312 = SPHERICAL_SURFACE ( 'NONE', #519, 0.02089999999999998803 ) ;
#313 = DIRECTION ( 'NONE',  ( -0.9659258262890096924, 0.2588190451027395089, 3.169619151434443987E-17 ) ) ;
#314 = ADVANCED_FACE ( 'NONE', ( #281 ), #530, .F. ) ;
#315 = LINE ( 'NONE', #14, #506 ) ;
#316 = VERTEX_POINT ( 'NONE', #602 ) ;
#317 =( LENGTH_UNIT ( ) NAMED_UNIT ( * ) SI_UNIT ( $, .METRE. ) );
#318 = DIRECTION ( 'NONE',  ( 0.0000000000000000000, -1.000000000000000000, 0.0000000000000000000 ) ) ;
#319 = EDGE_LOOP ( 'NONE', ( #302, #376 ) ) ;
#320 = CARTESIAN_POINT ( 'NONE',  ( 0.2670000000000011253, 1.051695108440906943E-18, 0.0000000000000000000 ) ) ;
#321 = CIRCLE ( 'NONE', #39, 0.03599999999999999728 ) ;
#322 = AXIS2_PLACEMENT_3D ( 'NONE', #260, #308, #102 ) ;
#323 = ORIENTED_EDGE ( 'NONE', *, *, #22, .F. ) ;
#324 = AXIS2_PLACEMENT_3D ( 'NONE', #151, #577, #534 ) ;
#325 = CARTESIAN_POINT ( 'NONE',  ( 0.0000000000000000000, 0.0000000000000000000, 0.0000000000000000000 ) ) ;
#326 = EDGE_LOOP ( 'NONE', ( #190, #113, #110, #456 ) ) ;
#327 = CARTESIAN_POINT ( 'NONE',  ( 0.2640000000000010116, 0.02900000000000000147, 3.551475717527324141E-18 ) ) ;
#328 = CARTESIAN_POINT ( 'NONE',  ( 0.3431000000000011263, 0.0000000000000000000, 0.0000000000000000000 ) ) ;
#329 = ORIENTED_EDGE ( 'NONE', *, *, #483, .F. ) ;
#330 = CARTESIAN_POINT ( 'NONE',  ( 0.2640000000000010116, 1.039878309469660402E-18, 0.0000000000000000000 ) ) ;
#331 = AXIS2_PLACEMENT_3D ( 'NONE', #500, #360, #398 ) ;
#332 = VERTEX_POINT ( 'NONE', #232 ) ;
#333 = DIRECTION ( 'NONE',  ( -1.000000000000000000, -3.938932990415365386E-18, -0.0000000000000000000 ) ) ;
#334 = EDGE_CURVE ( 'NONE', #45, #24, #575, .T. ) ;
#335 = CARTESIAN_POINT ( 'NONE',  ( 0.1130000000000009330, 4.450994279169399964E-19, 0.0000000000000000000 ) ) ;
#336 = AXIS2_PLACEMENT_3D ( 'NONE', #452, #571, #562 ) ;
#337 = VERTEX_POINT ( 'NONE', #498 ) ;
#338 = CARTESIAN_POINT ( 'NONE',  ( 0.08500000000000113021, 0.03599999999999999728, 0.0000000000000000000 ) ) ;
#339 = PRODUCT_CONTEXT ( 'NONE', #197, 'mechanical' ) ;
#340 = DIRECTION ( 'NONE',  ( -1.000000000000000000, -3.938932990415365386E-18, -0.0000000000000000000 ) ) ;
#341 = ORIENTED_EDGE ( 'NONE', *, *, #123, .F. ) ;
#342 = DIRECTION ( 'NONE',  ( 0.0000000000000000000, -1.000000000000000000, 0.0000000000000000000 ) ) ;
#343 =( NAMED_UNIT ( * ) PLANE_ANGLE_UNIT ( ) SI_UNIT ( $, .RADIAN. ) );
#344 = DIRECTION ( 'NONE',  ( -1.000000000000000000, -3.938932990415365386E-18, -0.0000000000000000000 ) ) ;
#345 = VERTEX_POINT ( 'NONE', #653 ) ;
#346 = ADVANCED_FACE ( 'NONE', ( #657 ), #661, .T. ) ;
#347 = DIRECTION ( 'NONE',  ( 1.000000000000000000, 0.0000000000000000000, 0.0000000000000000000 ) ) ;
#348 = ORIENTED_EDGE ( 'NONE', *, *, #170, .T. ) ;
#349 =( GEOMETRIC_REPRESENTATION_CONTEXT ( 3 ) GLOBAL_UNCERTAINTY_ASSIGNED_CONTEXT ( ( #510 ) ) GLOBAL_UNIT_ASSIGNED_CONTEXT ( ( #491, #343, #193 ) ) REPRESENTATION_CONTEXT ( 'NONE', 'WORKASPACE' ) );
#350 = LINE ( 'NONE', #410, #609 ) ;
#351 = ORIENTED_EDGE ( 'NONE', *, *, #363, .F. ) ;
#352 = ADVANCED_FACE ( 'NONE', ( #67 ), #179, .T. ) ;
#353 = CARTESIAN_POINT ( 'NONE',  ( 0.0000000000000000000, 0.0000000000000000000, 0.0000000000000000000 ) ) ;
#354 = VERTEX_POINT ( 'NONE', #648 ) ;
#355 = CIRCLE ( 'NONE', #550, 0.03599999999999999728 ) ;
#356 = CIRCLE ( 'NONE', #449, 0.01150000000000020103 ) ;
#357 = FACE_OUTER_BOUND ( 'NONE', #117, .T. ) ;
#358 = PRESENTATION_LAYER_ASSIGNMENT (  '', '', ( #301 ) ) ;
#359 = EDGE_CURVE ( 'NONE', #24, #45, #638, .T. ) ;
#360 = DIRECTION ( 'NONE',  ( -1.000000000000000000, -3.938932990415365386E-18, -0.0000000000000000000 ) ) ;
#361 = CARTESIAN_POINT ( 'NONE',  ( 0.3431000000000011263, 0.0000000000000000000, 0.0000000000000000000 ) ) ;
#362 = DIRECTION ( 'NONE',  ( -0.0000000000000000000, 0.0000000000000000000, -1.000000000000000000 ) ) ;
#363 = EDGE_CURVE ( 'NONE', #332, #71, #141, .T. ) ;
#364 =( CONVERSION_BASED_UNIT ( 'INCH', #525 ) LENGTH_UNIT ( ) NAMED_UNIT ( #533 ) );
#365 = DIRECTION ( 'NONE',  ( 0.0000000000000000000, -1.000000000000000000, 0.0000000000000000000 ) ) ;
#366 =( NAMED_UNIT ( * ) SI_UNIT ( $, .STERADIAN. ) SOLID_ANGLE_UNIT ( ) );
#367 = VECTOR ( 'NONE', #664, 39.37007874015748143 ) ;
#368 = CIRCLE ( 'NONE', #461, 0.008500000000000200104 ) ;
#369 = CARTESIAN_POINT ( 'NONE',  ( 0.06600000000000109945, -0.01150000000000020103, 0.0000000000000000000 ) ) ;
#370 = ORIENTED_EDGE ( 'NONE', *, *, #660, .T. ) ;
#371 = LINE ( 'NONE', #231, #383 ) ;
#372 = CARTESIAN_POINT ( 'NONE',  ( 0.1241961524226974228, 4.892003220604181318E-19, 0.0000000000000000000 ) ) ;
#373 = ORIENTED_EDGE ( 'NONE', *, *, #12, .F. ) ;
#374 =( NAMED_UNIT ( * ) SI_UNIT ( $, .STERADIAN. ) SOLID_ANGLE_UNIT ( ) );
#375 = DIRECTION ( 'NONE',  ( 0.0000000000000000000, 1.000000000000000000, 1.224646799147352961E-16 ) ) ;
#376 = ORIENTED_EDGE ( 'NONE', *, *, #12, .T. ) ;
#377 = CYLINDRICAL_SURFACE ( 'NONE', #532, 0.03049999999999999586 ) ;
#378 = DIRECTION ( 'NONE',  ( 0.0000000000000000000, -1.000000000000000000, 0.0000000000000000000 ) ) ;
#379 = PRODUCT_RELATED_PRODUCT_CATEGORY ( 'part', '', ( #455 ) ) ;
#380 = CIRCLE ( 'NONE', #598, 0.02900000000000000147 ) ;
#381 = VERTEX_POINT ( 'NONE', #221 ) ;
#382 = SURFACE_STYLE_USAGE ( .BOTH. , #488 ) ;
#383 = VECTOR ( 'NONE', #442, 39.37007874015748143 ) ;
#384 = DIRECTION ( 'NONE',  ( -1.000000000000000000, -3.938932990415365386E-18, -0.0000000000000000000 ) ) ;
#385 = ADVANCED_FACE ( 'NONE', ( #485 ), #392, .T. ) ;
#386 = EDGE_LOOP ( 'NONE', ( #413, #663, #272, #40 ) ) ;
#387 = DIRECTION ( 'NONE',  ( -1.000000000000000000, -3.938932990415365386E-18, -0.0000000000000000000 ) ) ;
#388 = DIRECTION ( 'NONE',  ( -1.000000000000000000, -3.938932990415365386E-18, -0.0000000000000000000 ) ) ;
#389 = FACE_OUTER_BOUND ( 'NONE', #557, .T. ) ;
#390 = ADVANCED_FACE ( 'NONE', ( #489 ), #554, .T. ) ;
#391 = DIRECTION ( 'NONE',  ( -1.000000000000000000, -3.938932990415365386E-18, -0.0000000000000000000 ) ) ;
#392 = CYLINDRICAL_SURFACE ( 'NONE', #586, 0.008500000000000196634 ) ;
#393 = ORIENTED_EDGE ( 'NONE', *, *, #198, .F. ) ;
#394 = VECTOR ( 'NONE', #101, 39.37007874015748143 ) ;
#395 = ORIENTED_EDGE ( 'NONE', *, *, #35, .F. ) ;
#396 = AXIS2_PLACEMENT_3D ( 'NONE', #297, #340, #399 ) ;
#397 = DIRECTION ( 'NONE',  ( 0.0000000000000000000, -1.000000000000000000, 0.0000000000000000000 ) ) ;
#398 = DIRECTION ( 'NONE',  ( 0.0000000000000000000, -1.000000000000000000, 0.0000000000000000000 ) ) ;
#399 = DIRECTION ( 'NONE',  ( 0.0000000000000000000, -1.000000000000000000, 0.0000000000000000000 ) ) ;
#400 = EDGE_LOOP ( 'NONE', ( #496, #43 ) ) ;
#401 = DIRECTION ( 'NONE',  ( 0.0000000000000000000, -1.000000000000000000, 0.0000000000000000000 ) ) ;
#402 = EDGE_CURVE ( 'NONE', #381, #590, #194, .T. ) ;
#403 = ORIENTED_EDGE ( 'NONE', *, *, #428, .F. ) ;
#404 = CIRCLE ( 'NONE', #585, 0.02726794919243106380 ) ;
#405 = CIRCLE ( 'NONE', #414, 0.008500000000000194900 ) ;
#406 = AXIS2_PLACEMENT_3D ( 'NONE', #169, #278, #378 ) ;
#407 = FILL_AREA_STYLE ('',( #454 ) ) ;
#408 = ORIENTED_EDGE ( 'NONE', *, *, #470, .F. ) ;
#409 = EDGE_CURVE ( 'NONE', #284, #332, #243, .T. ) ;
#410 = CARTESIAN_POINT ( 'NONE',  ( 1.142290567220455993E-19, -0.02900000000000000147, 0.0000000000000000000 ) ) ;
#411 = CARTESIAN_POINT ( 'NONE',  ( 0.06900000000000108824, -0.03599999999999999728, 0.0000000000000000000 ) ) ;
#412 = DIRECTION ( 'NONE',  ( 0.0000000000000000000, 0.0000000000000000000, -1.000000000000000000 ) ) ;
#413 = ORIENTED_EDGE ( 'NONE', *, *, #660, .F. ) ;
#414 = AXIS2_PLACEMENT_3D ( 'NONE', #176, #229, #375 ) ;
#415 = ADVANCED_FACE ( 'NONE', ( #248 ), #300, .T. ) ;
#416 = SPHERICAL_SURFACE ( 'NONE', #75, 0.008500000000000194900 ) ;
#417 = DIRECTION ( 'NONE',  ( -0.8660254037844391517, -0.4999999999999991118, 0.0000000000000000000 ) ) ;
#418 = CARTESIAN_POINT ( 'NONE',  ( 0.3431000000000011263, 0.0000000000000000000, 0.0000000000000000000 ) ) ;
#419 = ADVANCED_FACE ( 'NONE', ( #520 ), #515, .T. ) ;
#420 = CARTESIAN_POINT ( 'NONE',  ( 0.1241961524226974228, 4.892003220604181318E-19, 0.0000000000000000000 ) ) ;
#421 = DIRECTION ( 'NONE',  ( 0.0000000000000000000, 0.0000000000000000000, -1.000000000000000000 ) ) ;
#422 = EDGE_LOOP ( 'NONE', ( #122, #164, #171, #329 ) ) ;
#423 = DIRECTION ( 'NONE',  ( -1.000000000000000000, -3.938932990415365386E-18, -0.0000000000000000000 ) ) ;
#424 = AXIS2_PLACEMENT_3D ( 'NONE', #173, #388, #604 ) ;
#425 = CIRCLE ( 'NONE', #127, 0.02089999999999997415 ) ;
#426 = DIRECTION ( 'NONE',  ( 0.0000000000000000000, -1.000000000000000000, 0.0000000000000000000 ) ) ;
#427 = ORIENTED_EDGE ( 'NONE', *, *, #409, .T. ) ;
#428 = EDGE_CURVE ( 'NONE', #447, #651, #350, .T. ) ;
#429 = DIRECTION ( 'NONE',  ( -1.000000000000000000, -3.938932990415365386E-18, -0.0000000000000000000 ) ) ;
#430 = ORIENTED_EDGE ( 'NONE', *, *, #402, .F. ) ;
#431 = EDGE_CURVE ( 'NONE', #337, #133, #99, .T. ) ;
#432 = CARTESIAN_POINT ( 'NONE',  ( 0.3431000000000011263, -0.02089999999999998803, 0.0000000000000000000 ) ) ;
#433 = VERTEX_POINT ( 'NONE', #131 ) ;
#434 = CARTESIAN_POINT ( 'NONE',  ( 0.1130000000000009330, 4.450994279169399964E-19, 0.0000000000000000000 ) ) ;
#435 = CIRCLE ( 'NONE', #331, 0.02089999999999999844 ) ;
#436 = AXIS2_PLACEMENT_3D ( 'NONE', #645, #599, #541 ) ;
#437 = EDGE_LOOP ( 'NONE', ( #220, #511, #226 ) ) ;
#438 = DIRECTION ( 'NONE',  ( 1.000000000000000000, 3.938932990415365386E-18, 0.0000000000000000000 ) ) ;
#439 = DIRECTION ( 'NONE',  ( 0.0000000000000000000, -1.000000000000000000, 0.0000000000000000000 ) ) ;
#440 = ORIENTED_EDGE ( 'NONE', *, *, #567, .F. ) ;
#441 = EDGE_LOOP ( 'NONE', ( #490, #233, #440, #395 ) ) ;
#442 = DIRECTION ( 'NONE',  ( -1.000000000000000000, -3.938932990415365386E-18, -0.0000000000000000000 ) ) ;
#443 = CARTESIAN_POINT ( 'NONE',  ( 0.06600000000000109945, 0.0000000000000000000, 0.0000000000000000000 ) ) ;
#444 = EDGE_LOOP ( 'NONE', ( #192, #514, #262, #268 ) ) ;
#445 = ORIENTED_EDGE ( 'NONE', *, *, #216, .F. ) ;
#446 = DIRECTION ( 'NONE',  ( -1.000000000000000000, -3.938932990415365386E-18, -0.0000000000000000000 ) ) ;
#447 = VERTEX_POINT ( 'NONE', #135 ) ;
#448 = CARTESIAN_POINT ( 'NONE',  ( 0.2670000000000011253, 1.051695108440906943E-18, 0.0000000000000000000 ) ) ;
#449 = AXIS2_PLACEMENT_3D ( 'NONE', #184, #572, #513 ) ;
#450 = DIRECTION ( 'NONE',  ( 3.938932990415365386E-18, -1.000000000000000000, 0.0000000000000000000 ) ) ;
#451 = ORIENTED_EDGE ( 'NONE', *, *, #132, .T. ) ;
#452 = CARTESIAN_POINT ( 'NONE',  ( 0.0000000000000000000, 0.0000000000000000000, 0.0000000000000000000 ) ) ;
#453 = ADVANCED_FACE ( 'NONE', ( #457 ), #140, .T. ) ;
#454 = FILL_AREA_STYLE_COLOUR ( '', #66 ) ;
#455 = PRODUCT ( '8E428D4E-6680-4AF4-911A-D72FA3E48E5F', '8E428D4E-6680-4AF4-911A-D72FA3E48E5F', '', ( #339 ) ) ;
#456 = ORIENTED_EDGE ( 'NONE', *, *, #136, .F. ) ;
#457 = FACE_OUTER_BOUND ( 'NONE', #422, .T. ) ;
#458 = EDGE_CURVE ( 'NONE', #133, #337, #356, .T. ) ;
#459 = EDGE_LOOP ( 'NONE', ( #600, #370, #222, #403 ) ) ;
#460 = CIRCLE ( 'NONE', #8, 0.008500000000000200104 ) ;
#461 = AXIS2_PLACEMENT_3D ( 'NONE', #465, #200, #146 ) ;
#462 = DIRECTION ( 'NONE',  ( -0.0000000000000000000, 0.0000000000000000000, 1.000000000000000000 ) ) ;
#463 = VERTEX_POINT ( 'NONE', #95 ) ;
#464 = MECHANICAL_DESIGN_GEOMETRIC_PRESENTATION_REPRESENTATION (  '', ( #199 ), #349 ) ;
#465 = CARTESIAN_POINT ( 'NONE',  ( 0.06600000000000109945, 2.599695773674184226E-19, 0.0000000000000000000 ) ) ;
#466 = FACE_OUTER_BOUND ( 'NONE', #64, .T. ) ;
#467 = CARTESIAN_POINT ( 'NONE',  ( 0.2670000000000011253, 0.02726794919243106380, 3.445418193654829964E-18 ) ) ;
#468 = CARTESIAN_POINT ( 'NONE',  ( 0.1241961524226974228, -0.02900000000000000147, 0.0000000000000000000 ) ) ;
#469 = CONICAL_SURFACE ( 'NONE', #480, 0.02900000000000000147, 0.2617993877993758933 ) ;
#470 = EDGE_CURVE ( 'NONE', #16, #596, #18, .T. ) ;
#471 = CARTESIAN_POINT ( 'NONE',  ( 0.0000000000000000000, 0.0000000000000000000, 0.0000000000000000000 ) ) ;
#472 = DIRECTION ( 'NONE',  ( -1.000000000000000000, -3.938932990415365386E-18, -0.0000000000000000000 ) ) ;
#473 = DIRECTION ( 'NONE',  ( -1.000000000000000000, -3.938932990415365386E-18, -0.0000000000000000000 ) ) ;
#474 = CARTESIAN_POINT ( 'NONE',  ( 0.06600000000000109945, 2.599695773674184226E-19, 0.0000000000000000000 ) ) ;
#475 = ORIENTED_EDGE ( 'NONE', *, *, #132, .F. ) ;
#476 = CARTESIAN_POINT ( 'NONE',  ( 0.2640000000000010116, 1.039878309469660402E-18, 0.0000000000000000000 ) ) ;
#477 = DIRECTION ( 'NONE',  ( 0.0000000000000000000, 1.000000000000000000, 0.0000000000000000000 ) ) ;
#478 = EDGE_CURVE ( 'NONE', #16, #556, #576, .T. ) ;
#479 = ORIENTED_EDGE ( 'NONE', *, *, #334, .F. ) ;
#480 = AXIS2_PLACEMENT_3D ( 'NONE', #372, #20, #426 ) ;
#481 = AXIS2_PLACEMENT_3D ( 'NONE', #143, #462, #347 ) ;
#482 = CARTESIAN_POINT ( 'NONE',  ( 0.1241961524226974228, 0.02900000000000000147, 3.551475717527324911E-18 ) ) ;
#483 = EDGE_CURVE ( 'NONE', #259, #230, #622, .T. ) ;
#484 = ORIENTED_EDGE ( 'NONE', *, *, #512, .T. ) ;
#485 = FACE_OUTER_BOUND ( 'NONE', #441, .T. ) ;
#486 = EDGE_LOOP ( 'NONE', ( #560, #211, #646 ) ) ;
#487 = EDGE_CURVE ( 'NONE', #345, #381, #568, .T. ) ;
#488 = SURFACE_SIDE_STYLE ('',( #544 ) ) ;
#489 = FACE_OUTER_BOUND ( 'NONE', #545, .T. ) ;
#490 = ORIENTED_EDGE ( 'NONE', *, *, #123, .T. ) ;
#491 =( CONVERSION_BASED_UNIT ( 'INCH', #277 ) LENGTH_UNIT ( ) NAMED_UNIT ( #527 ) );
#492 = ADVANCED_FACE ( 'NONE', ( #96 ), #673, .T. ) ;
#493 = DIRECTION ( 'NONE',  ( -1.000000000000000000, -3.938932990415365386E-18, -0.0000000000000000000 ) ) ;
#494 = AXIS2_PLACEMENT_3D ( 'NONE', #335, #384, #439 ) ;
#495 = AXIS2_PLACEMENT_3D ( 'NONE', #471, #209, #581 ) ;
#496 = ORIENTED_EDGE ( 'NONE', *, *, #431, .F. ) ;
#497 = CARTESIAN_POINT ( 'NONE',  ( 0.06600000000000109945, 0.01150000000000020103, 1.408343819019480803E-18 ) ) ;
#498 = CARTESIAN_POINT ( 'NONE',  ( 0.06900000000000110212, -0.01150000000000020103, 0.0000000000000000000 ) ) ;
#499 = EDGE_LOOP ( 'NONE', ( #251, #641 ) ) ;
#500 = CARTESIAN_POINT ( 'NONE',  ( 0.2670000000000011253, 1.051695108440906943E-18, 0.0000000000000000000 ) ) ;
#501 = CARTESIAN_POINT ( 'NONE',  ( 0.08500000000000113021, 0.03599999999999999728, 4.408728476930471028E-18 ) ) ;
#502 = ORIENTED_EDGE ( 'NONE', *, *, #607, .T. ) ;
#503 = CARTESIAN_POINT ( 'NONE',  ( 0.06600000000000109945, -0.008500000000000200104, 0.0000000000000000000 ) ) ;
#504 = PLANE ( 'NONE',  #662 ) ;
#505 = EDGE_LOOP ( 'NONE', ( #292, #78, #603, #137 ) ) ;
#506 = VECTOR ( 'NONE', #210, 39.37007874015748143 ) ;
#507 = DIRECTION ( 'NONE',  ( 3.938932990415365386E-18, -1.000000000000000000, 0.0000000000000000000 ) ) ;
#508 = EDGE_CURVE ( 'NONE', #570, #61, #368, .T. ) ;
#509 = DIRECTION ( 'NONE',  ( 0.0000000000000000000, -1.000000000000000000, 0.0000000000000000000 ) ) ;
#510 = UNCERTAINTY_MEASURE_WITH_UNIT (LENGTH_MEASURE( 1.000000000000000082E-05 ), #491, 'distance_accuracy_value', 'NONE');
#511 = ORIENTED_EDGE ( 'NONE', *, *, #307, .T. ) ;
#512 = EDGE_CURVE ( 'NONE', #354, #259, #267, .T. ) ;
#513 = DIRECTION ( 'NONE',  ( 0.0000000000000000000, -1.000000000000000000, 0.0000000000000000000 ) ) ;
#514 = ORIENTED_EDGE ( 'NONE', *, *, #94, .T. ) ;
#515 = CYLINDRICAL_SURFACE ( 'NONE', #214, 0.03599999999999999728 ) ;
#516 = ADVANCED_FACE ( 'NONE', ( #195, #83 ), #504, .F. ) ;
#517 = AXIS2_PLACEMENT_3D ( 'NONE', #497, #33, #611 ) ;
#518 = AXIS2_PLACEMENT_3D ( 'NONE', #46, #44, #244 ) ;
#519 = AXIS2_PLACEMENT_3D ( 'NONE', #6, #153, #263 ) ;
#520 = FACE_OUTER_BOUND ( 'NONE', #536, .T. ) ;
#521 = ORIENTED_EDGE ( 'NONE', *, *, #580, .T. ) ;
#522 = DIRECTION ( 'NONE',  ( -1.000000000000000000, -3.938932990415365386E-18, -0.0000000000000000000 ) ) ;
#523 = CARTESIAN_POINT ( 'NONE',  ( 0.08500000000000113021, 3.348093041853105048E-19, 0.0000000000000000000 ) ) ;
#524 = MANIFOLD_SOLID_BREP ( 'Revolve1', #157 ) ;
#525 = LENGTH_MEASURE_WITH_UNIT ( LENGTH_MEASURE( 0.02539999999999999897 ), #317 );
#526 = FACE_OUTER_BOUND ( 'NONE', #486, .T. ) ;
#527 = DIMENSIONAL_EXPONENTS ( 1.000000000000000000, 0.0000000000000000000, 0.0000000000000000000, 0.0000000000000000000, 0.0000000000000000000, 0.0000000000000000000, 0.0000000000000000000 ) ;
#528 = AXIS2_PLACEMENT_3D ( 'NONE', #573, #201, #280 ) ;
#529 = ADVANCED_FACE ( 'NONE', ( #59 ), #42, .T. ) ;
#530 = TOROIDAL_SURFACE ( 'NONE', #227, 0.01150000000000020103, 0.003000000000000000062 ) ;
#531 = DIRECTION ( 'NONE',  ( 0.0000000000000000000, -1.000000000000000000, -1.224646799147353207E-16 ) ) ;
#532 = AXIS2_PLACEMENT_3D ( 'NONE', #29, #391, #228 ) ;
#533 = DIMENSIONAL_EXPONENTS ( 1.000000000000000000, 0.0000000000000000000, 0.0000000000000000000, 0.0000000000000000000, 0.0000000000000000000, 0.0000000000000000000, 0.0000000000000000000 ) ;
#534 = DIRECTION ( 'NONE',  ( 3.938932990415365386E-18, -1.000000000000000000, 0.0000000000000000000 ) ) ;
#535 = DIRECTION ( 'NONE',  ( -3.938932990415365386E-18, 1.000000000000000000, 0.0000000000000000000 ) ) ;
#536 = EDGE_LOOP ( 'NONE', ( #659, #427, #323, #654 ) ) ;
#537 = DIRECTION ( 'NONE',  ( 0.0000000000000000000, -1.000000000000000000, 0.0000000000000000000 ) ) ;
#538 = ADVANCED_FACE ( 'NONE', ( #357 ), #312, .T. ) ;
#539 = AXIS2_PLACEMENT_3D ( 'NONE', #306, #109, #632 ) ;
#540 = CIRCLE ( 'NONE', #322, 0.02900000000000000147 ) ;
#541 = DIRECTION ( 'NONE',  ( 3.938932990415365386E-18, -1.000000000000000000, 0.0000000000000000000 ) ) ;
#542 = ADVANCED_FACE ( 'NONE', ( #305 ), #628, .T. ) ;
#543 = EDGE_LOOP ( 'NONE', ( #287, #484, #69, #373 ) ) ;
#544 = SURFACE_STYLE_FILL_AREA ( #119 ) ;
#545 = EDGE_LOOP ( 'NONE', ( #129, #521, #168 ) ) ;
#546 = PLANE ( 'NONE',  #304 ) ;
#547 = DIRECTION ( 'NONE',  ( 0.0000000000000000000, -1.000000000000000000, 0.0000000000000000000 ) ) ;
#548 = ORIENTED_EDGE ( 'NONE', *, *, #363, .T. ) ;
#549 = CARTESIAN_POINT ( 'NONE',  ( 0.1241961524226974228, 4.892003220604181318E-19, 0.0000000000000000000 ) ) ;
#550 = AXIS2_PLACEMENT_3D ( 'NONE', #523, #643, #318 ) ;
#551 = AXIS2_PLACEMENT_3D ( 'NONE', #57, #212, #202 ) ;
#552 = ORIENTED_EDGE ( 'NONE', *, *, #5, .F. ) ;
#553 = ORIENTED_EDGE ( 'NONE', *, *, #188, .T. ) ;
#554 = SPHERICAL_SURFACE ( 'NONE', #47, 0.02089999999999998803 ) ;
#555 = EDGE_CURVE ( 'NONE', #433, #651, #540, .T. ) ;
#556 = VERTEX_POINT ( 'NONE', #252 ) ;
#557 = EDGE_LOOP ( 'NONE', ( #237, #616 ) ) ;
#558 = DIRECTION ( 'NONE',  ( -1.000000000000000000, -3.938932990415365386E-18, -0.0000000000000000000 ) ) ;
#559 = ADVANCED_FACE ( 'NONE', ( #592 ), #583, .T. ) ;
#560 = ORIENTED_EDGE ( 'NONE', *, *, #307, .F. ) ;
#561 = CARTESIAN_POINT ( 'NONE',  ( 0.2670000000000011253, 0.02089999999999999844, 2.559511810217967774E-18 ) ) ;
#562 = DIRECTION ( 'NONE',  ( 1.000000000000000000, 0.0000000000000000000, 0.0000000000000000000 ) ) ;
#563 = DIRECTION ( 'NONE',  ( -1.000000000000000000, -3.938932990415365386E-18, 0.0000000000000000000 ) ) ;
#564 = VECTOR ( 'NONE', #213, 39.37007874015748143 ) ;
#565 = DIRECTION ( 'NONE',  ( -1.000000000000000000, -3.938932990415365386E-18, -0.0000000000000000000 ) ) ;
#566 = EDGE_LOOP ( 'NONE', ( #552, #177 ) ) ;
#567 = EDGE_CURVE ( 'NONE', #596, #16, #249, .T. ) ;
#568 = LINE ( 'NONE', #612, #215 ) ;
#569 = PRODUCT_DEFINITION_SHAPE ( 'NONE', 'NONE',  #165 ) ;
#570 = VERTEX_POINT ( 'NONE', #624 ) ;
#571 = DIRECTION ( 'NONE',  ( 0.0000000000000000000, 0.0000000000000000000, 1.000000000000000000 ) ) ;
#572 = DIRECTION ( 'NONE',  ( -1.000000000000000000, -3.938932990415365386E-18, -0.0000000000000000000 ) ) ;
#573 = CARTESIAN_POINT ( 'NONE',  ( 0.06900000000000108824, 2.717863763386644826E-19, 0.0000000000000000000 ) ) ;
#574 = AXIS2_PLACEMENT_3D ( 'NONE', #208, #63, #258 ) ;
#575 = CIRCLE ( 'NONE', #105, 0.03200000000000000067 ) ;
#576 = CIRCLE ( 'NONE', #481, 0.008500000000000193165 ) ;
#577 = DIRECTION ( 'NONE',  ( -1.000000000000000000, -3.938932990415365386E-18, -0.0000000000000000000 ) ) ;
#578 = VECTOR ( 'NONE', #417, 39.37007874015748143 ) ;
#579 = DIRECTION ( 'NONE',  ( -1.000000000000000000, 0.0000000000000000000, 0.0000000000000000000 ) ) ;
#580 = EDGE_CURVE ( 'NONE', #463, #259, #425, .T. ) ;
#581 = DIRECTION ( 'NONE',  ( 3.938932990415365386E-18, -1.000000000000000000, 0.0000000000000000000 ) ) ;
#582 = CARTESIAN_POINT ( 'NONE',  ( 0.2670000000000011253, -0.02089999999999999844, 0.0000000000000000000 ) ) ;
#583 = CYLINDRICAL_SURFACE ( 'NONE', #551, 0.008500000000000196634 ) ;
#584 = CARTESIAN_POINT ( 'NONE',  ( 0.2670000000000011253, 1.051695108440906943E-18, 0.0000000000000000000 ) ) ;
#585 = AXIS2_PLACEMENT_3D ( 'NONE', #448, #187, #614 ) ;
#586 = AXIS2_PLACEMENT_3D ( 'NONE', #325, #274, #23 ) ;
#587 = ADVANCED_FACE ( 'NONE', ( #155 ), #2, .F. ) ;
#588 = AXIS2_PLACEMENT_3D ( 'NONE', #203, #473, #629 ) ;
#589 = CARTESIAN_POINT ( 'NONE',  ( -3.348093041853138391E-20, 0.008500000000000196634, 1.040949779275274306E-18 ) ) ;
#590 = VERTEX_POINT ( 'NONE', #54 ) ;
#591 = EDGE_CURVE ( 'NONE', #447, #665, #108, .T. ) ;
#592 = FACE_OUTER_BOUND ( 'NONE', #618, .T. ) ;
#593 = CARTESIAN_POINT ( 'NONE',  ( 0.08500000000000113021, 3.348093041853105048E-19, 0.0000000000000000000 ) ) ;
#594 = ORIENTED_EDGE ( 'NONE', *, *, #116, .T. ) ;
#595 = LINE ( 'NONE', #225, #148 ) ;
#596 = VERTEX_POINT ( 'NONE', #639 ) ;
#597 = FILL_AREA_STYLE_COLOUR ( '', #303 ) ;
#598 = AXIS2_PLACEMENT_3D ( 'NONE', #330, #34, #547 ) ;
#599 = DIRECTION ( 'NONE',  ( -1.000000000000000000, -3.938932990415365386E-18, -0.0000000000000000000 ) ) ;
#600 = ORIENTED_EDGE ( 'NONE', *, *, #591, .T. ) ;
#601 =( LENGTH_UNIT ( ) NAMED_UNIT ( * ) SI_UNIT ( $, .METRE. ) );
#602 = CARTESIAN_POINT ( 'NONE',  ( 0.2670000000000011253, -0.02726794919243106380, 0.0000000000000000000 ) ) ;
#603 = ORIENTED_EDGE ( 'NONE', *, *, #591, .F. ) ;
#604 = DIRECTION ( 'NONE',  ( 0.0000000000000000000, -1.000000000000000000, 0.0000000000000000000 ) ) ;
#605 = EDGE_LOOP ( 'NONE', ( #90, #451, #502, #21 ) ) ;
#606 = VERTEX_POINT ( 'NONE', #9 ) ;
#607 = EDGE_CURVE ( 'NONE', #316, #447, #162, .T. ) ;
#608 = DIRECTION ( 'NONE',  ( -1.000000000000000000, -3.938932990415365386E-18, -0.0000000000000000000 ) ) ;
#609 = VECTOR ( 'NONE', #189, 39.37007874015748143 ) ;
#610 = AXIS2_PLACEMENT_3D ( 'NONE', #92, #250, #669 ) ;
#611 = DIRECTION ( 'NONE',  ( 0.0000000000000000000, -1.000000000000000000, -1.224646799147353207E-16 ) ) ;
#612 = CARTESIAN_POINT ( 'NONE',  ( 1.201374562076686293E-19, -0.03049999999999999586, 0.0000000000000000000 ) ) ;
#613 = EDGE_LOOP ( 'NONE', ( #246, #32, #348, #479 ) ) ;
#614 = DIRECTION ( 'NONE',  ( 0.0000000000000000000, -1.000000000000000000, 0.0000000000000000000 ) ) ;
#615 = DIRECTION ( 'NONE',  ( 3.938932990415365386E-18, -1.000000000000000000, 0.0000000000000000000 ) ) ;
#616 = ORIENTED_EDGE ( 'NONE', *, *, #116, .F. ) ;
#617 = CARTESIAN_POINT ( 'NONE',  ( 0.06900000000000110212, 2.717863763386645307E-19, 0.0000000000000000000 ) ) ;
#618 = EDGE_LOOP ( 'NONE', ( #445, #668, #282, #408 ) ) ;
#619 = CIRCLE ( 'NONE', #239, 0.003000000000000000496 ) ;
#620 = SURFACE_STYLE_FILL_AREA ( #407 ) ;
#621 = EDGE_LOOP ( 'NONE', ( #178, #144 ) ) ;
#622 = LINE ( 'NONE', #88, #100 ) ;
#623 = VERTEX_POINT ( 'NONE', #467 ) ;
#624 = CARTESIAN_POINT ( 'NONE',  ( 0.06600000000000109945, 0.008500000000000200104, 1.224646799147377651E-18 ) ) ;
#625 = PRODUCT_DEFINITION_CONTEXT ( 'detailed design', #264, 'design' ) ;
#626 = CARTESIAN_POINT ( 'NONE',  ( 0.1130000000000009330, 0.03200000000000000067, 3.918869757271530830E-18 ) ) ;
#627 = VECTOR ( 'NONE', #7, 39.37007874015748143 ) ;
#628 = CONICAL_SURFACE ( 'NONE', #106, 0.02900000000000000147, 0.2617993877993758933 ) ;
#629 = DIRECTION ( 'NONE',  ( 0.0000000000000000000, -1.000000000000000000, 0.0000000000000000000 ) ) ;
#630 = EDGE_CURVE ( 'NONE', #196, #590, #371, .T. ) ;
#631 = VECTOR ( 'NONE', #387, 39.37007874015748143 ) ;
#632 = DIRECTION ( 'NONE',  ( 0.0000000000000000000, -1.000000000000000000, 0.0000000000000000000 ) ) ;
#633 = FACE_OUTER_BOUND ( 'NONE', #437, .T. ) ;
#634 = DIRECTION ( 'NONE',  ( -1.000000000000000000, 0.0000000000000000000, 0.0000000000000000000 ) ) ;
#635 = LINE ( 'NONE', #589, #627 ) ;
#636 = VECTOR ( 'NONE', #313, 39.37007874015748143 ) ;
#637 = EDGE_LOOP ( 'NONE', ( #180, #475 ) ) ;
#638 = CIRCLE ( 'NONE', #494, 0.03200000000000000067 ) ;
#639 = CARTESIAN_POINT ( 'NONE',  ( 0.008500000000000193165, -0.008500000000000194900, -1.040949779275273921E-18 ) ) ;
#640 = SPHERICAL_SURFACE ( 'NONE', #574, 0.008500000000000194900 ) ;
#641 = ORIENTED_EDGE ( 'NONE', *, *, #198, .T. ) ;
#642 = CARTESIAN_POINT ( 'NONE',  ( 0.1130000000000009330, 0.03049999999999999239, 0.0000000000000000000 ) ) ;
#643 = DIRECTION ( 'NONE',  ( -1.000000000000000000, -3.938932990415365386E-18, -0.0000000000000000000 ) ) ;
#644 = ORIENTED_EDGE ( 'NONE', *, *, #5, .T. ) ;
#645 = CARTESIAN_POINT ( 'NONE',  ( 0.0000000000000000000, 0.0000000000000000000, 0.0000000000000000000 ) ) ;
#646 = ORIENTED_EDGE ( 'NONE', *, *, #478, .T. ) ;
#647 = FACE_OUTER_BOUND ( 'NONE', #241, .T. ) ;
#648 = CARTESIAN_POINT ( 'NONE',  ( 0.3431000000000011263, 0.02089999999999998803, 2.559511810217966618E-18 ) ) ;
#649 = ADVANCED_FACE ( 'NONE', ( #647 ), #377, .T. ) ;
#650 = PRODUCT_DEFINITION_FORMATION_WITH_SPECIFIED_SOURCE ( 'ANY', '', #455, .NOT_KNOWN. ) ;
#651 = VERTEX_POINT ( 'NONE', #652 ) ;
#652 = CARTESIAN_POINT ( 'NONE',  ( 0.1241961524226974228, -0.02900000000000000147, 0.0000000000000000000 ) ) ;
#653 = CARTESIAN_POINT ( 'NONE',  ( 0.1130000000000009330, -0.03049999999999999239, 0.0000000000000000000 ) ) ;
#654 = ORIENTED_EDGE ( 'NONE', *, *, #161, .F. ) ;
#655 = DIRECTION ( 'NONE',  ( -1.000000000000000000, -3.938932990415365386E-18, 0.0000000000000000000 ) ) ;
#656 =( LENGTH_UNIT ( ) NAMED_UNIT ( * ) SI_UNIT ( $, .METRE. ) );
#657 = FACE_OUTER_BOUND ( 'NONE', #386, .T. ) ;
#658 = ORIENTED_EDGE ( 'NONE', *, *, #136, .T. ) ;
#659 = ORIENTED_EDGE ( 'NONE', *, *, #242, .T. ) ;
#660 = EDGE_CURVE ( 'NONE', #665, #433, #218, .T. ) ;
#661 = CYLINDRICAL_SURFACE ( 'NONE', #436, 0.02900000000000000147 ) ;
#662 = AXIS2_PLACEMENT_3D ( 'NONE', #38, #563, #291 ) ;
#663 = ORIENTED_EDGE ( 'NONE', *, *, #276, .T. ) ;
#664 = DIRECTION ( 'NONE',  ( -1.000000000000000000, -3.938932990415365386E-18, -0.0000000000000000000 ) ) ;
#665 = VERTEX_POINT ( 'NONE', #327 ) ;
#666 = SURFACE_SIDE_STYLE ('',( #620 ) ) ;
#667 = ADVANCED_FACE ( 'NONE', ( #19, #114 ), #546, .F. ) ;
#668 = ORIENTED_EDGE ( 'NONE', *, *, #508, .T. ) ;
#669 = DIRECTION ( 'NONE',  ( 0.0000000000000000000, -1.000000000000000000, 0.0000000000000000000 ) ) ;
#670 = CIRCLE ( 'NONE', #517, 0.003000000000000000496 ) ;
#671 = CIRCLE ( 'NONE', #539, 0.03049999999999999586 ) ;
#672 = EDGE_LOOP ( 'NONE', ( #275, #548 ) ) ;
#673 = CONICAL_SURFACE ( 'NONE', #610, 0.02726794919243106380, 0.5235987755982978165 ) ;
ENDSEC;
END-ISO-10303-21;
