ISO-10303-21;
HEADER;
FILE_DESCRIPTION (( 'STEP AP214' ),
    '1' );
FILE_NAME ('1578-2-57-15-00-00-03-0.STEP',
    '2024-01-04T20:49:53',
    ( '' ),
    ( '' ),
    'SwSTEP 2.0',
    'SolidWorks 2022',
    '' );
FILE_SCHEMA (( 'AUTOMOTIVE_DESIGN' ));
ENDSEC;

DATA;
#1 = DIRECTION ( 'NONE',  ( 0.000000000000000000, -1.000000000000000000, -0.000000000000000000 ) ) ;
#2 = STYLED_ITEM ( 'NONE', ( #154 ), #85 ) ;
#3 = CARTESIAN_POINT ( 'NONE',  ( 1.151167991198510452E-16, 9.117891366006542722E-17, -0.9399999999999987255 ) ) ;
#4 = CARTESIAN_POINT ( 'NONE',  ( 0.000000000000000000, 9.117891366006542722E-17, 0.000000000000000000 ) ) ;
#5 = CARTESIAN_POINT ( 'NONE',  ( 0.000000000000000000, 0.000000000000000000, 0.000000000000000000 ) ) ;
#6 = EDGE_CURVE ( 'NONE', #140, #157, #111, .T. ) ;
#7 =( LENGTH_UNIT ( ) NAMED_UNIT ( * ) SI_UNIT ( .MILLI., .METRE. ) );
#8 = ORIENTED_EDGE ( 'NONE', *, *, #136, .F. ) ;
#9 = AXIS2_PLACEMENT_3D ( 'NONE', #182, #10, #109 ) ;
#10 = DIRECTION ( 'NONE',  ( -0.000000000000000000, -1.000000000000000000, -0.000000000000000000 ) ) ;
#11 = ORIENTED_EDGE ( 'NONE', *, *, #145, .F. ) ;
#12 = DIRECTION ( 'NONE',  ( 0.000000000000000000, 1.000000000000000000, 0.000000000000000000 ) ) ;
#13 = CONICAL_SURFACE ( 'NONE', #148, 0.9900000000000002132, 0.7853981633974331800 ) ;
#14 = DIRECTION ( 'NONE',  ( 0.000000000000000000, -0.7071067811865583419, -0.7071067811865368036 ) ) ;
#15 = PRESENTATION_STYLE_ASSIGNMENT (( #212 ) ) ;
#16 = FACE_OUTER_BOUND ( 'NONE', #127, .T. ) ;
#17 = PRODUCT ( '1578-2-57-15-00-00-03-0', '1578-2-57-15-00-00-03-0', '', ( #105 ) ) ;
#18 = AXIS2_PLACEMENT_3D ( 'NONE', #72, #1, #220 ) ;
#19 = AXIS2_PLACEMENT_3D ( 'NONE', #190, #77, #239 ) ;
#20 = CARTESIAN_POINT ( 'NONE',  ( 0.000000000000000000, 1.089999999999998526, -0.9900000000000002132 ) ) ;
#21 = LINE ( 'NONE', #101, #219 ) ;
#22 = ADVANCED_FACE ( 'NONE', ( #95 ), #175, .T. ) ;
#23 = DIRECTION ( 'NONE',  ( -0.000000000000000000, -1.000000000000000000, -0.000000000000000000 ) ) ;
#24 = CARTESIAN_POINT ( 'NONE',  ( 1.181784161177195324E-16, 9.117891366006542722E-17, -0.9399999999999987255 ) ) ;
#25 =( NAMED_UNIT ( * ) PLANE_ANGLE_UNIT ( ) SI_UNIT ( $, .RADIAN. ) );
#26 = DIRECTION ( 'NONE',  ( 0.000000000000000000, 0.000000000000000000, 1.000000000000000000 ) ) ;
#27 = APPLICATION_PROTOCOL_DEFINITION ( 'draft international standard', 'automotive_design', 1998, #55 ) ;
#28 = ORIENTED_EDGE ( 'NONE', *, *, #67, .T. ) ;
#29 = PRODUCT_DEFINITION_CONTEXT ( 'detailed design', #55, 'design' ) ;
#30 = DIRECTION ( 'NONE',  ( 0.000000000000000000, 0.000000000000000000, -1.000000000000000000 ) ) ;
#31 = CIRCLE ( 'NONE', #58, 0.9400000000000002798 ) ;
#32 = CARTESIAN_POINT ( 'NONE',  ( 0.000000000000000000, 0.05000000000000009992, 0.000000000000000000 ) ) ;
#33 = ORIENTED_EDGE ( 'NONE', *, *, #201, .T. ) ;
#34 = EDGE_LOOP ( 'NONE', ( #54, #70, #181, #8 ) ) ;
#35 = VERTEX_POINT ( 'NONE', #147 ) ;
#36 = CARTESIAN_POINT ( 'NONE',  ( 0.000000000000000000, 0.000000000000000000, -0.9900000000000002132 ) ) ;
#37 = MANIFOLD_SOLID_BREP ( 'Revolve1', #86 ) ;
#38 = DIRECTION ( 'NONE',  ( 0.000000000000000000, 0.000000000000000000, -1.000000000000000000 ) ) ;
#39 = CIRCLE ( 'NONE', #62, 0.9900000000000002132 ) ;
#40 = COLOUR_RGB ( '',1.000000000000000000, 0.8431372549019607865, 0.000000000000000000 ) ;
#41 = LINE ( 'NONE', #168, #225 ) ;
#42 = CARTESIAN_POINT ( 'NONE',  ( 1.181784161177196310E-16, 1.139999999999999902, 0.9400000000000002798 ) ) ;
#43 = APPLICATION_CONTEXT ( 'automotive_design' ) ;
#44 = CARTESIAN_POINT ( 'NONE',  ( 0.000000000000000000, 1.139999999999999902, -0.9400000000000002798 ) ) ;
#45 = SURFACE_SIDE_STYLE ('',( #192 ) ) ;
#46 = APPLICATION_PROTOCOL_DEFINITION ( 'draft international standard', 'automotive_design', 1998, #43 ) ;
#47 =( GEOMETRIC_REPRESENTATION_CONTEXT ( 3 ) GLOBAL_UNCERTAINTY_ASSIGNED_CONTEXT ( ( #50 ) ) GLOBAL_UNIT_ASSIGNED_CONTEXT ( ( #7, #25, #231 ) ) REPRESENTATION_CONTEXT ( 'NONE', 'WORKASPACE' ) );
#48 = AXIS2_PLACEMENT_3D ( 'NONE', #223, #80, #187 ) ;
#49 = EDGE_LOOP ( 'NONE', ( #65, #112, #28, #11 ) ) ;
#50 = UNCERTAINTY_MEASURE_WITH_UNIT (LENGTH_MEASURE( 1.000000000000000082E-05 ), #7, 'distance_accuracy_value', 'NONE');
#51 = EDGE_CURVE ( 'NONE', #35, #125, #97, .T. ) ;
#52 = AXIS2_PLACEMENT_3D ( 'NONE', #117, #130, #38 ) ;
#53 = ORIENTED_EDGE ( 'NONE', *, *, #110, .F. ) ;
#54 = ORIENTED_EDGE ( 'NONE', *, *, #180, .T. ) ;
#55 = APPLICATION_CONTEXT ( 'automotive_design' ) ;
#56 = VERTEX_POINT ( 'NONE', #107 ) ;
#57 =( GEOMETRIC_REPRESENTATION_CONTEXT ( 3 ) GLOBAL_UNCERTAINTY_ASSIGNED_CONTEXT ( ( #177 ) ) GLOBAL_UNIT_ASSIGNED_CONTEXT ( ( #128, #75, #195 ) ) REPRESENTATION_CONTEXT ( 'NONE', 'WORKASPACE' ) );
#58 = AXIS2_PLACEMENT_3D ( 'NONE', #79, #81, #199 ) ;
#59 = DIRECTION ( 'NONE',  ( -0.000000000000000000, -1.000000000000000000, -0.000000000000000000 ) ) ;
#60 = CARTESIAN_POINT ( 'NONE',  ( 0.000000000000000000, 1.089999999999998526, 0.000000000000000000 ) ) ;
#61 = DIRECTION ( 'NONE',  ( 0.000000000000000000, 0.000000000000000000, -1.000000000000000000 ) ) ;
#62 = AXIS2_PLACEMENT_3D ( 'NONE', #166, #224, #151 ) ;
#63 = DIRECTION ( 'NONE',  ( 8.659560562354802203E-17, -0.7071067811865583419, 0.7071067811865368036 ) ) ;
#64 = CARTESIAN_POINT ( 'NONE',  ( 0.000000000000000000, 9.117891366006542722E-17, 0.9399999999999987255 ) ) ;
#65 = ORIENTED_EDGE ( 'NONE', *, *, #119, .F. ) ;
#66 = DIRECTION ( 'NONE',  ( 1.000000000000000000, 0.000000000000000000, 0.000000000000000000 ) ) ;
#67 = EDGE_CURVE ( 'NONE', #125, #35, #218, .T. ) ;
#68 = CYLINDRICAL_SURFACE ( 'NONE', #189, 0.9900000000000002132 ) ;
#69 = VECTOR ( 'NONE', #185, 1000.000000000000000 ) ;
#70 = ORIENTED_EDGE ( 'NONE', *, *, #169, .T. ) ;
#71 = EDGE_LOOP ( 'NONE', ( #93, #122, #155, #146 ) ) ;
#72 = CARTESIAN_POINT ( 'NONE',  ( 0.9399999999999987255, 4.558945683003271361E-17, 0.000000000000000000 ) ) ;
#73 = AXIS2_PLACEMENT_3D ( 'NONE', #171, #172, #153 ) ;
#74 = EDGE_LOOP ( 'NONE', ( #232, #162 ) ) ;
#75 =( NAMED_UNIT ( * ) PLANE_ANGLE_UNIT ( ) SI_UNIT ( $, .RADIAN. ) );
#76 = ORIENTED_EDGE ( 'NONE', *, *, #139, .F. ) ;
#77 = DIRECTION ( 'NONE',  ( 0.000000000000000000, 1.000000000000000000, 0.000000000000000000 ) ) ;
#78 = DIRECTION ( 'NONE',  ( 0.000000000000000000, 0.7071067811865374697, 0.7071067811865575647 ) ) ;
#79 = CARTESIAN_POINT ( 'NONE',  ( 0.000000000000000000, 1.139999999999999902, 0.000000000000000000 ) ) ;
#80 = DIRECTION ( 'NONE',  ( -0.000000000000000000, -1.000000000000000000, -0.000000000000000000 ) ) ;
#81 = DIRECTION ( 'NONE',  ( -0.000000000000000000, -1.000000000000000000, -0.000000000000000000 ) ) ;
#82 = ADVANCED_FACE ( 'NONE', ( #90 ), #160, .T. ) ;
#83 = DIRECTION ( 'NONE',  ( 0.000000000000000000, 0.000000000000000000, -1.000000000000000000 ) ) ;
#84 = VECTOR ( 'NONE', #78, 1000.000000000000000 ) ;
#85 = ADVANCED_BREP_SHAPE_REPRESENTATION ( '1578-2-57-15-00-00-03-0', ( #37, #194 ), #89 ) ;
#86 = CLOSED_SHELL ( 'NONE', ( #22, #149, #161, #82, #211, #108, #237, #221 ) ) ;
#87 = EDGE_LOOP ( 'NONE', ( #193, #53 ) ) ;
#88 = PRESENTATION_LAYER_ASSIGNMENT (  '', '', ( #2 ) ) ;
#89 =( GEOMETRIC_REPRESENTATION_CONTEXT ( 3 ) GLOBAL_UNCERTAINTY_ASSIGNED_CONTEXT ( ( #141 ) ) GLOBAL_UNIT_ASSIGNED_CONTEXT ( ( #173, #118, #135 ) ) REPRESENTATION_CONTEXT ( 'NONE', 'WORKASPACE' ) );
#90 = FACE_OUTER_BOUND ( 'NONE', #74, .T. ) ;
#91 = VERTEX_POINT ( 'NONE', #222 ) ;
#92 = MECHANICAL_DESIGN_GEOMETRIC_PRESENTATION_REPRESENTATION (  '', ( #2 ), #47 ) ;
#93 = ORIENTED_EDGE ( 'NONE', *, *, #207, .F. ) ;
#94 = VECTOR ( 'NONE', #59, 1000.000000000000000 ) ;
#95 = FACE_OUTER_BOUND ( 'NONE', #49, .T. ) ;
#96 = CARTESIAN_POINT ( 'NONE',  ( 0.000000000000000000, 1.089999999999998526, 0.000000000000000000 ) ) ;
#97 = CIRCLE ( 'NONE', #228, 0.9900000000000002132 ) ;
#98 = CONICAL_SURFACE ( 'NONE', #143, 0.9900000000000002132, 0.7853981633974331800 ) ;
#99 = PRODUCT_RELATED_PRODUCT_CATEGORY ( 'part', '', ( #17 ) ) ;
#100 = DIRECTION ( 'NONE',  ( -0.000000000000000000, -1.000000000000000000, -0.000000000000000000 ) ) ;
#101 = CARTESIAN_POINT ( 'NONE',  ( 1.212400331155879949E-16, 1.089999999999998526, 0.9900000000000002132 ) ) ;
#102 = FACE_OUTER_BOUND ( 'NONE', #124, .T. ) ;
#103 = FACE_OUTER_BOUND ( 'NONE', #126, .T. ) ;
#104 = PRODUCT_DEFINITION ( 'UNKNOWN', '', #131, #29 ) ;
#105 = PRODUCT_CONTEXT ( 'NONE', #43, 'mechanical' ) ;
#106 = ORIENTED_EDGE ( 'NONE', *, *, #158, .F. ) ;
#107 = CARTESIAN_POINT ( 'NONE',  ( 1.212400331155879949E-16, 1.089999999999998526, 0.9900000000000002132 ) ) ;
#108 = ADVANCED_FACE ( 'NONE', ( #186 ), #13, .T. ) ;
#109 = DIRECTION ( 'NONE',  ( 0.000000000000000000, 0.000000000000000000, -1.000000000000000000 ) ) ;
#110 = EDGE_CURVE ( 'NONE', #137, #140, #31, .T. ) ;
#111 = LINE ( 'NONE', #235, #214 ) ;
#112 = ORIENTED_EDGE ( 'NONE', *, *, #139, .T. ) ;
#113 = CARTESIAN_POINT ( 'NONE',  ( 0.000000000000000000, 1.089999999999998526, 0.000000000000000000 ) ) ;
#114 = DIRECTION ( 'NONE',  ( -0.000000000000000000, -1.000000000000000000, -0.000000000000000000 ) ) ;
#115 = CARTESIAN_POINT ( 'NONE',  ( 0.000000000000000000, 9.117891366006542722E-17, 0.000000000000000000 ) ) ;
#116 = LINE ( 'NONE', #3, #69 ) ;
#117 = CARTESIAN_POINT ( 'NONE',  ( 0.000000000000000000, 0.000000000000000000, 0.000000000000000000 ) ) ;
#118 =( NAMED_UNIT ( * ) PLANE_ANGLE_UNIT ( ) SI_UNIT ( $, .RADIAN. ) );
#119 = EDGE_CURVE ( 'NONE', #230, #91, #159, .T. ) ;
#120 = CIRCLE ( 'NONE', #48, 0.9400000000000002798 ) ;
#121 = FILL_AREA_STYLE_COLOUR ( '', #206 ) ;
#122 = ORIENTED_EDGE ( 'NONE', *, *, #110, .T. ) ;
#123 = EDGE_CURVE ( 'NONE', #56, #157, #178, .T. ) ;
#124 = EDGE_LOOP ( 'NONE', ( #76, #106, #196, #142 ) ) ;
#125 = VERTEX_POINT ( 'NONE', #129 ) ;
#126 = EDGE_LOOP ( 'NONE', ( #234, #144, #238, #233 ) ) ;
#127 = EDGE_LOOP ( 'NONE', ( #33, #216, #176, #184 ) ) ;
#128 =( LENGTH_UNIT ( ) NAMED_UNIT ( * ) SI_UNIT ( .MILLI., .METRE. ) );
#129 = CARTESIAN_POINT ( 'NONE',  ( 0.000000000000000000, 0.05000000000000009992, -0.9900000000000002132 ) ) ;
#130 = DIRECTION ( 'NONE',  ( -0.000000000000000000, -1.000000000000000000, -0.000000000000000000 ) ) ;
#131 = PRODUCT_DEFINITION_FORMATION_WITH_SPECIFIED_SOURCE ( 'ANY', '', #17, .NOT_KNOWN. ) ;
#132 = DIRECTION ( 'NONE',  ( 0.000000000000000000, 0.000000000000000000, -1.000000000000000000 ) ) ;
#133 = FACE_OUTER_BOUND ( 'NONE', #87, .T. ) ;
#134 = DIRECTION ( 'NONE',  ( -0.000000000000000000, -1.000000000000000000, -0.000000000000000000 ) ) ;
#135 =( NAMED_UNIT ( * ) SI_UNIT ( $, .STERADIAN. ) SOLID_ANGLE_UNIT ( ) );
#136 = EDGE_CURVE ( 'NONE', #157, #125, #150, .T. ) ;
#137 = VERTEX_POINT ( 'NONE', #42 ) ;
#138 = SHAPE_DEFINITION_REPRESENTATION ( #165, #85 ) ;
#139 = EDGE_CURVE ( 'NONE', #230, #125, #116, .T. ) ;
#140 = VERTEX_POINT ( 'NONE', #44 ) ;
#141 = UNCERTAINTY_MEASURE_WITH_UNIT (LENGTH_MEASURE( 1.000000000000000082E-05 ), #173, 'distance_accuracy_value', 'NONE');
#142 = ORIENTED_EDGE ( 'NONE', *, *, #51, .T. ) ;
#143 = AXIS2_PLACEMENT_3D ( 'NONE', #96, #152, #240 ) ;
#144 = ORIENTED_EDGE ( 'NONE', *, *, #123, .T. ) ;
#145 = EDGE_CURVE ( 'NONE', #91, #35, #170, .T. ) ;
#146 = ORIENTED_EDGE ( 'NONE', *, *, #123, .F. ) ;
#147 = CARTESIAN_POINT ( 'NONE',  ( 1.212400331155879949E-16, 0.05000000000000009992, 0.9900000000000002132 ) ) ;
#148 = AXIS2_PLACEMENT_3D ( 'NONE', #60, #23, #61 ) ;
#149 = ADVANCED_FACE ( 'NONE', ( #226 ), #200, .T. ) ;
#150 = LINE ( 'NONE', #36, #94 ) ;
#151 = DIRECTION ( 'NONE',  ( 0.000000000000000000, 0.000000000000000000, -1.000000000000000000 ) ) ;
#152 = DIRECTION ( 'NONE',  ( -0.000000000000000000, -1.000000000000000000, -0.000000000000000000 ) ) ;
#153 = DIRECTION ( 'NONE',  ( 0.000000000000000000, 0.000000000000000000, 1.000000000000000000 ) ) ;
#154 = PRESENTATION_STYLE_ASSIGNMENT (( #210 ) ) ;
#155 = ORIENTED_EDGE ( 'NONE', *, *, #6, .T. ) ;
#156 = CONICAL_SURFACE ( 'NONE', #73, 0.9399999999999987255, 0.7853981633974624899 ) ;
#157 = VERTEX_POINT ( 'NONE', #20 ) ;
#158 = EDGE_CURVE ( 'NONE', #91, #230, #167, .T. ) ;
#159 = CIRCLE ( 'NONE', #213, 0.9399999999999987255 ) ;
#160 = PLANE ( 'NONE',  #18 ) ;
#161 = ADVANCED_FACE ( 'NONE', ( #16 ), #98, .T. ) ;
#162 = ORIENTED_EDGE ( 'NONE', *, *, #119, .T. ) ;
#163 = DIRECTION ( 'NONE',  ( 0.000000000000000000, 0.000000000000000000, 1.000000000000000000 ) ) ;
#164 = FILL_AREA_STYLE ('',( #183 ) ) ;
#165 = PRODUCT_DEFINITION_SHAPE ( 'NONE', 'NONE',  #104 ) ;
#166 = CARTESIAN_POINT ( 'NONE',  ( 0.000000000000000000, 1.089999999999998526, 0.000000000000000000 ) ) ;
#167 = CIRCLE ( 'NONE', #209, 0.9399999999999987255 ) ;
#168 = CARTESIAN_POINT ( 'NONE',  ( 1.212400331155879949E-16, 0.000000000000000000, 0.9900000000000002132 ) ) ;
#169 = EDGE_CURVE ( 'NONE', #56, #35, #41, .T. ) ;
#170 = LINE ( 'NONE', #64, #84 ) ;
#171 = CARTESIAN_POINT ( 'NONE',  ( 0.000000000000000000, 9.117891366006542722E-17, 0.000000000000000000 ) ) ;
#172 = DIRECTION ( 'NONE',  ( 0.000000000000000000, 1.000000000000000000, 0.000000000000000000 ) ) ;
#173 =( LENGTH_UNIT ( ) NAMED_UNIT ( * ) SI_UNIT ( .MILLI., .METRE. ) );
#174 = PRESENTATION_LAYER_ASSIGNMENT (  '', '', ( #203 ) ) ;
#175 = CONICAL_SURFACE ( 'NONE', #236, 0.9399999999999987255, 0.7853981633974624899 ) ;
#176 = ORIENTED_EDGE ( 'NONE', *, *, #180, .F. ) ;
#177 = UNCERTAINTY_MEASURE_WITH_UNIT (LENGTH_MEASURE( 1.000000000000000082E-05 ), #128, 'distance_accuracy_value', 'NONE');
#178 = CIRCLE ( 'NONE', #191, 0.9900000000000002132 ) ;
#179 = SURFACE_STYLE_FILL_AREA ( #164 ) ;
#180 = EDGE_CURVE ( 'NONE', #157, #56, #39, .T. ) ;
#181 = ORIENTED_EDGE ( 'NONE', *, *, #67, .F. ) ;
#182 = CARTESIAN_POINT ( 'NONE',  ( 0.000000000000000000, 0.05000000000000009992, 0.000000000000000000 ) ) ;
#183 = FILL_AREA_STYLE_COLOUR ( '', #40 ) ;
#184 = ORIENTED_EDGE ( 'NONE', *, *, #6, .F. ) ;
#185 = DIRECTION ( 'NONE',  ( 8.659560562355056118E-17, 0.7071067811865374697, -0.7071067811865575647 ) ) ;
#186 = FACE_OUTER_BOUND ( 'NONE', #71, .T. ) ;
#187 = DIRECTION ( 'NONE',  ( 0.000000000000000000, 0.000000000000000000, -1.000000000000000000 ) ) ;
#188 = DIRECTION ( 'NONE',  ( -0.000000000000000000, -1.000000000000000000, -0.000000000000000000 ) ) ;
#189 = AXIS2_PLACEMENT_3D ( 'NONE', #5, #208, #83 ) ;
#190 = CARTESIAN_POINT ( 'NONE',  ( 0.000000000000000000, 1.139999999999997460, 0.000000000000000000 ) ) ;
#191 = AXIS2_PLACEMENT_3D ( 'NONE', #113, #114, #202 ) ;
#192 = SURFACE_STYLE_FILL_AREA ( #227 ) ;
#193 = ORIENTED_EDGE ( 'NONE', *, *, #201, .F. ) ;
#194 = AXIS2_PLACEMENT_3D ( 'NONE', #229, #26, #66 ) ;
#195 =( NAMED_UNIT ( * ) SI_UNIT ( $, .STERADIAN. ) SOLID_ANGLE_UNIT ( ) );
#196 = ORIENTED_EDGE ( 'NONE', *, *, #145, .T. ) ;
#197 = MECHANICAL_DESIGN_GEOMETRIC_PRESENTATION_REPRESENTATION (  '', ( #203 ), #57 ) ;
#198 = DIRECTION ( 'NONE',  ( -0.000000000000000000, -1.000000000000000000, -0.000000000000000000 ) ) ;
#199 = DIRECTION ( 'NONE',  ( 0.000000000000000000, 0.000000000000000000, -1.000000000000000000 ) ) ;
#200 = CYLINDRICAL_SURFACE ( 'NONE', #52, 0.9900000000000002132 ) ;
#201 = EDGE_CURVE ( 'NONE', #140, #137, #120, .T. ) ;
#202 = DIRECTION ( 'NONE',  ( 0.000000000000000000, 0.000000000000000000, -1.000000000000000000 ) ) ;
#203 = STYLED_ITEM ( 'NONE', ( #15 ), #37 ) ;
#204 = PLANE ( 'NONE',  #19 ) ;
#205 = DIRECTION ( 'NONE',  ( 0.000000000000000000, 0.000000000000000000, -1.000000000000000000 ) ) ;
#206 = COLOUR_RGB ( '',0.7921568627450980005, 0.8196078431372548767, 0.9333333333333333481 ) ;
#207 = EDGE_CURVE ( 'NONE', #137, #56, #21, .T. ) ;
#208 = DIRECTION ( 'NONE',  ( -0.000000000000000000, -1.000000000000000000, -0.000000000000000000 ) ) ;
#209 = AXIS2_PLACEMENT_3D ( 'NONE', #115, #100, #132 ) ;
#210 = SURFACE_STYLE_USAGE ( .BOTH. , #45 ) ;
#211 = ADVANCED_FACE ( 'NONE', ( #133 ), #204, .T. ) ;
#212 = SURFACE_STYLE_USAGE ( .BOTH. , #217 ) ;
#213 = AXIS2_PLACEMENT_3D ( 'NONE', #4, #134, #205 ) ;
#214 = VECTOR ( 'NONE', #14, 999.9999999999998863 ) ;
#215 = CARTESIAN_POINT ( 'NONE',  ( 0.000000000000000000, 9.117891366006542722E-17, 0.000000000000000000 ) ) ;
#216 = ORIENTED_EDGE ( 'NONE', *, *, #207, .T. ) ;
#217 = SURFACE_SIDE_STYLE ('',( #179 ) ) ;
#218 = CIRCLE ( 'NONE', #9, 0.9900000000000002132 ) ;
#219 = VECTOR ( 'NONE', #63, 999.9999999999998863 ) ;
#220 = DIRECTION ( 'NONE',  ( 0.000000000000000000, 0.000000000000000000, -1.000000000000000000 ) ) ;
#221 = ADVANCED_FACE ( 'NONE', ( #102 ), #156, .T. ) ;
#222 = CARTESIAN_POINT ( 'NONE',  ( 0.000000000000000000, 9.117891366006542722E-17, 0.9399999999999987255 ) ) ;
#223 = CARTESIAN_POINT ( 'NONE',  ( 0.000000000000000000, 1.139999999999999902, 0.000000000000000000 ) ) ;
#224 = DIRECTION ( 'NONE',  ( -0.000000000000000000, -1.000000000000000000, -0.000000000000000000 ) ) ;
#225 = VECTOR ( 'NONE', #188, 1000.000000000000000 ) ;
#226 = FACE_OUTER_BOUND ( 'NONE', #34, .T. ) ;
#227 = FILL_AREA_STYLE ('',( #121 ) ) ;
#228 = AXIS2_PLACEMENT_3D ( 'NONE', #32, #198, #30 ) ;
#229 = CARTESIAN_POINT ( 'NONE',  ( 0.000000000000000000, 0.000000000000000000, 0.000000000000000000 ) ) ;
#230 = VERTEX_POINT ( 'NONE', #24 ) ;
#231 =( NAMED_UNIT ( * ) SI_UNIT ( $, .STERADIAN. ) SOLID_ANGLE_UNIT ( ) );
#232 = ORIENTED_EDGE ( 'NONE', *, *, #158, .T. ) ;
#233 = ORIENTED_EDGE ( 'NONE', *, *, #51, .F. ) ;
#234 = ORIENTED_EDGE ( 'NONE', *, *, #169, .F. ) ;
#235 = CARTESIAN_POINT ( 'NONE',  ( 0.000000000000000000, 1.089999999999998526, -0.9900000000000002132 ) ) ;
#236 = AXIS2_PLACEMENT_3D ( 'NONE', #215, #12, #163 ) ;
#237 = ADVANCED_FACE ( 'NONE', ( #103 ), #68, .T. ) ;
#238 = ORIENTED_EDGE ( 'NONE', *, *, #136, .T. ) ;
#239 = DIRECTION ( 'NONE',  ( 0.000000000000000000, -0.000000000000000000, 1.000000000000000000 ) ) ;
#240 = DIRECTION ( 'NONE',  ( 0.000000000000000000, 0.000000000000000000, -1.000000000000000000 ) ) ;
ENDSEC;
END-ISO-10303-21;
