ISO-10303-21;
HEADER;
FILE_DESCRIPTION (( 'STEP AP214' ),
    '1' );
FILE_NAME ('4353-0-00-15-00-00-33-0.STEP',
    '2024-02-22T12:50:09',
    ( '' ),
    ( '' ),
    'SwSTEP 2.0',
    'SolidWorks 2022',
    '' );
FILE_SCHEMA (( 'AUTOMOTIVE_DESIGN' ));
ENDSEC;

DATA;
#1 = DIRECTION ( 'NONE',  ( -1.000000000000000000, -0.000000000000000000, -0.000000000000000000 ) ) ;
#2 = CIRCLE ( 'NONE', #100, 0.006000000000000974172 ) ;
#3 = EDGE_CURVE ( 'NONE', #296, #115, #188, .T. ) ;
#4 = DIRECTION ( 'NONE',  ( -1.000000000000000000, -0.000000000000000000, -0.000000000000000000 ) ) ;
#5 = AXIS2_PLACEMENT_3D ( 'NONE', #12, #213, #192 ) ;
#6 = DIRECTION ( 'NONE',  ( 0.000000000000000000, 0.000000000000000000, 1.000000000000000000 ) ) ;
#7 = EDGE_LOOP ( 'NONE', ( #297, #88, #221, #164 ) ) ;
#8 = CARTESIAN_POINT ( 'NONE',  ( 0.01300000000000038104, 0.000000000000000000, 0.000000000000000000 ) ) ;
#9 = DIRECTION ( 'NONE',  ( 1.000000000000000000, 0.000000000000000000, 0.000000000000000000 ) ) ;
#10 = ADVANCED_BREP_SHAPE_REPRESENTATION ( '4353-0-00-15-00-00-33-0', ( #263, #204 ), #80 ) ;
#11 = ORIENTED_EDGE ( 'NONE', *, *, #322, .T. ) ;
#12 = CARTESIAN_POINT ( 'NONE',  ( 0.01300000000000038104, 0.000000000000000000, 0.000000000000000000 ) ) ;
#13 = AXIS2_PLACEMENT_3D ( 'NONE', #47, #325, #226 ) ;
#14 = CARTESIAN_POINT ( 'NONE',  ( 0.01300000000000038104, 0.000000000000000000, 0.000000000000000000 ) ) ;
#15 = SURFACE_STYLE_USAGE ( .BOTH. , #238 ) ;
#16 = ORIENTED_EDGE ( 'NONE', *, *, #53, .F. ) ;
#17 = ORIENTED_EDGE ( 'NONE', *, *, #28, .F. ) ;
#18 = EDGE_CURVE ( 'NONE', #61, #296, #93, .T. ) ;
#19 = CARTESIAN_POINT ( 'NONE',  ( 0.01300000000000038104, 7.347880794885311494E-19, -0.006000000000000974172 ) ) ;
#20 = DIRECTION ( 'NONE',  ( 0.000000000000000000, 0.000000000000000000, 1.000000000000000000 ) ) ;
#21 = CIRCLE ( 'NONE', #280, 0.01499999999999970281 ) ;
#22 = PRODUCT ( '4353-0-00-15-00-00-33-0', '4353-0-00-15-00-00-33-0', '', ( #242 ) ) ;
#23 = LINE ( 'NONE', #275, #133 ) ;
#24 = DIRECTION ( 'NONE',  ( -1.000000000000000000, -0.000000000000000000, -0.000000000000000000 ) ) ;
#25 = UNCERTAINTY_MEASURE_WITH_UNIT (LENGTH_MEASURE( 1.000000000000000082E-05 ), #91, 'distance_accuracy_value', 'NONE');
#26 = CONICAL_SURFACE ( 'NONE', #256, 0.003000000000001033090, 0.7853981633974939092 ) ;
#27 = SURFACE_STYLE_FILL_AREA ( #29 ) ;
#28 = EDGE_CURVE ( 'NONE', #107, #115, #96, .T. ) ;
#29 = FILL_AREA_STYLE ('',( #309 ) ) ;
#30 =( LENGTH_UNIT ( ) NAMED_UNIT ( * ) SI_UNIT ( $, .METRE. ) );
#31 = STYLED_ITEM ( 'NONE', ( #135 ), #263 ) ;
#32 =( NAMED_UNIT ( * ) PLANE_ANGLE_UNIT ( ) SI_UNIT ( $, .RADIAN. ) );
#33 = APPLICATION_PROTOCOL_DEFINITION ( 'draft international standard', 'automotive_design', 1998, #56 ) ;
#34 = ORIENTED_EDGE ( 'NONE', *, *, #148, .F. ) ;
#35 = SURFACE_STYLE_FILL_AREA ( #245 ) ;
#36 = AXIS2_PLACEMENT_3D ( 'NONE', #74, #201, #177 ) ;
#37 = EDGE_LOOP ( 'NONE', ( #41, #294, #146, #169 ) ) ;
#38 = CARTESIAN_POINT ( 'NONE',  ( 0.000000000000000000, 1.836970198720993388E-18, -0.01499999999999970281 ) ) ;
#39 = CARTESIAN_POINT ( 'NONE',  ( 0.01300000000000038104, 1.102182119232729846E-18, -0.009000000000000915254 ) ) ;
#40 = DIRECTION ( 'NONE',  ( 0.000000000000000000, 0.000000000000000000, 1.000000000000000000 ) ) ;
#41 = ORIENTED_EDGE ( 'NONE', *, *, #205, .F. ) ;
#42 = EDGE_CURVE ( 'NONE', #136, #115, #250, .T. ) ;
#43 = ORIENTED_EDGE ( 'NONE', *, *, #310, .T. ) ;
#44 = ORIENTED_EDGE ( 'NONE', *, *, #205, .T. ) ;
#45 = EDGE_CURVE ( 'NONE', #271, #107, #178, .T. ) ;
#46 = ORIENTED_EDGE ( 'NONE', *, *, #236, .F. ) ;
#47 = CARTESIAN_POINT ( 'NONE',  ( 0.000000000000000000, 0.000000000000000000, 0.000000000000000000 ) ) ;
#48 = CARTESIAN_POINT ( 'NONE',  ( 0.08400000000000079625, 0.003000000000001033090, 0.000000000000000000 ) ) ;
#49 = APPLICATION_CONTEXT ( 'automotive_design' ) ;
#50 = CYLINDRICAL_SURFACE ( 'NONE', #258, 0.006000000000000974172 ) ;
#51 = AXIS2_PLACEMENT_3D ( 'NONE', #110, #289, #108 ) ;
#52 = CARTESIAN_POINT ( 'NONE',  ( 5.463695987328526437E-16, 0.000000000000000000, 0.000000000000000000 ) ) ;
#53 = EDGE_CURVE ( 'NONE', #320, #317, #105, .T. ) ;
#54 = CLOSED_SHELL ( 'NONE', ( #106, #129, #262, #286, #171, #326, #179, #303, #193, #228, #86 ) ) ;
#55 = DIRECTION ( 'NONE',  ( 0.000000000000000000, 0.000000000000000000, 1.000000000000000000 ) ) ;
#56 = APPLICATION_CONTEXT ( 'automotive_design' ) ;
#57 = DIRECTION ( 'NONE',  ( 1.000000000000000000, 0.000000000000000000, 0.000000000000000000 ) ) ;
#58 = CARTESIAN_POINT ( 'NONE',  ( 0.08400000000000051870, 0.000000000000000000, 0.000000000000000000 ) ) ;
#59 = AXIS2_PLACEMENT_3D ( 'NONE', #98, #200, #211 ) ;
#60 = LINE ( 'NONE', #259, #329 ) ;
#61 = VERTEX_POINT ( 'NONE', #321 ) ;
#62 = ORIENTED_EDGE ( 'NONE', *, *, #215, .T. ) ;
#63 = VECTOR ( 'NONE', #111, 39.37007874015748143 ) ;
#64 = ORIENTED_EDGE ( 'NONE', *, *, #53, .T. ) ;
#65 = CARTESIAN_POINT ( 'NONE',  ( 0.000000000000000000, 0.000000000000000000, 0.000000000000000000 ) ) ;
#66 = ORIENTED_EDGE ( 'NONE', *, *, #322, .F. ) ;
#67 = CARTESIAN_POINT ( 'NONE',  ( 0.08400000000000051870, 0.000000000000000000, 0.000000000000000000 ) ) ;
#68 = ORIENTED_EDGE ( 'NONE', *, *, #77, .F. ) ;
#69 = DIRECTION ( 'NONE',  ( 0.000000000000000000, 0.000000000000000000, 1.000000000000000000 ) ) ;
#70 = AXIS2_PLACEMENT_3D ( 'NONE', #130, #257, #182 ) ;
#71 = CARTESIAN_POINT ( 'NONE',  ( 0.01000000000000043909, 1.836970198720993388E-18, -0.01499999999999970281 ) ) ;
#72 = DIMENSIONAL_EXPONENTS ( 1.000000000000000000, 0.000000000000000000, 0.000000000000000000, 0.000000000000000000, 0.000000000000000000, 0.000000000000000000, 0.000000000000000000 ) ;
#73 = CARTESIAN_POINT ( 'NONE',  ( 0.01300000000000038104, 0.000000000000000000, 0.006000000000000974172 ) ) ;
#74 = CARTESIAN_POINT ( 'NONE',  ( 0.01000000000000043909, 0.01499999999999970281, 0.000000000000000000 ) ) ;
#75 = PRODUCT_RELATED_PRODUCT_CATEGORY ( 'part', '', ( #22 ) ) ;
#76 = UNCERTAINTY_MEASURE_WITH_UNIT (LENGTH_MEASURE( 1.000000000000000082E-05 ), #104, 'distance_accuracy_value', 'NONE');
#77 = EDGE_CURVE ( 'NONE', #115, #107, #327, .T. ) ;
#78 = TOROIDAL_SURFACE ( 'NONE', #101, 0.009000000000000915254, 0.002999999999999940648 ) ;
#79 = DIRECTION ( 'NONE',  ( -1.000000000000000000, -0.000000000000000000, -0.000000000000000000 ) ) ;
#80 =( GEOMETRIC_REPRESENTATION_CONTEXT ( 3 ) GLOBAL_UNCERTAINTY_ASSIGNED_CONTEXT ( ( #203 ) ) GLOBAL_UNIT_ASSIGNED_CONTEXT ( ( #125, #32, #128 ) ) REPRESENTATION_CONTEXT ( 'NONE', 'WORKASPACE' ) );
#81 = CARTESIAN_POINT ( 'NONE',  ( 2.731847993664263218E-16, 0.01499999999999970281, 0.000000000000000000 ) ) ;
#82 = DIRECTION ( 'NONE',  ( -1.000000000000000000, -0.000000000000000000, -0.000000000000000000 ) ) ;
#83 = STYLED_ITEM ( 'NONE', ( #283 ), #10 ) ;
#84 = DIRECTION ( 'NONE',  ( -0.000000000000000000, 1.000000000000000000, 1.224646799147353207E-16 ) ) ;
#85 =( GEOMETRIC_REPRESENTATION_CONTEXT ( 3 ) GLOBAL_UNCERTAINTY_ASSIGNED_CONTEXT ( ( #76 ) ) GLOBAL_UNIT_ASSIGNED_CONTEXT ( ( #104, #206, #185 ) ) REPRESENTATION_CONTEXT ( 'NONE', 'WORKASPACE' ) );
#86 = ADVANCED_FACE ( 'NONE', ( #194, #295 ), #278, .F. ) ;
#87 = FACE_OUTER_BOUND ( 'NONE', #272, .T. ) ;
#88 = ORIENTED_EDGE ( 'NONE', *, *, #254, .T. ) ;
#89 = CARTESIAN_POINT ( 'NONE',  ( 0.01000000000000043909, 0.000000000000000000, 0.009000000000000915254 ) ) ;
#90 = DIRECTION ( 'NONE',  ( 0.000000000000000000, 0.000000000000000000, 1.000000000000000000 ) ) ;
#91 =( CONVERSION_BASED_UNIT ( 'INCH', #270 ) LENGTH_UNIT ( ) NAMED_UNIT ( #225 ) );
#92 = ORIENTED_EDGE ( 'NONE', *, *, #18, .F. ) ;
#93 = LINE ( 'NONE', #260, #63 ) ;
#94 = ORIENTED_EDGE ( 'NONE', *, *, #288, .T. ) ;
#95 = EDGE_LOOP ( 'NONE', ( #287, #217 ) ) ;
#96 = CIRCLE ( 'NONE', #307, 0.006000000000000974172 ) ;
#97 = DIRECTION ( 'NONE',  ( -0.000000000000000000, 0.000000000000000000, 1.000000000000000000 ) ) ;
#98 = CARTESIAN_POINT ( 'NONE',  ( 0.01000000000000043909, 0.000000000000000000, 0.000000000000000000 ) ) ;
#99 = CARTESIAN_POINT ( 'NONE',  ( 0.000000000000000000, 0.000000000000000000, 0.000000000000000000 ) ) ;
#100 = AXIS2_PLACEMENT_3D ( 'NONE', #140, #137, #143 ) ;
#101 = AXIS2_PLACEMENT_3D ( 'NONE', #301, #196, #222 ) ;
#102 = DIRECTION ( 'NONE',  ( 0.000000000000000000, 0.000000000000000000, 1.000000000000000000 ) ) ;
#103 = DIRECTION ( 'NONE',  ( 0.000000000000000000, 0.000000000000000000, -1.000000000000000000 ) ) ;
#104 =( CONVERSION_BASED_UNIT ( 'INCH', #255 ) LENGTH_UNIT ( ) NAMED_UNIT ( #299 ) );
#105 = CIRCLE ( 'NONE', #300, 0.01499999999999970281 ) ;
#106 = ADVANCED_FACE ( 'NONE', ( #175 ), #78, .F. ) ;
#107 = VERTEX_POINT ( 'NONE', #73 ) ;
#108 = DIRECTION ( 'NONE',  ( 0.000000000000000000, 0.000000000000000000, 1.000000000000000000 ) ) ;
#109 = DIRECTION ( 'NONE',  ( 0.000000000000000000, -1.224646799147352961E-16, 1.000000000000000000 ) ) ;
#110 = CARTESIAN_POINT ( 'NONE',  ( 0.01000000000000043909, 0.000000000000000000, 0.000000000000000000 ) ) ;
#111 = DIRECTION ( 'NONE',  ( -0.7071067811865152652, 8.659560562355327289E-17, -0.7071067811865797692 ) ) ;
#112 = DIRECTION ( 'NONE',  ( -1.000000000000000000, -0.000000000000000000, -0.000000000000000000 ) ) ;
#113 = MECHANICAL_DESIGN_GEOMETRIC_PRESENTATION_REPRESENTATION (  '', ( #31 ), #302 ) ;
#114 = CARTESIAN_POINT ( 'NONE',  ( 0.000000000000000000, 0.000000000000000000, 0.000000000000000000 ) ) ;
#115 = VERTEX_POINT ( 'NONE', #19 ) ;
#116 = ORIENTED_EDGE ( 'NONE', *, *, #148, .T. ) ;
#117 = EDGE_LOOP ( 'NONE', ( #323, #64 ) ) ;
#118 = PLANE ( 'NONE',  #230 ) ;
#119 = AXIS2_PLACEMENT_3D ( 'NONE', #251, #24, #305 ) ;
#120 = CARTESIAN_POINT ( 'NONE',  ( 0.08400000000000051870, 0.000000000000000000, 0.000000000000000000 ) ) ;
#121 = EDGE_CURVE ( 'NONE', #317, #320, #21, .T. ) ;
#122 = CARTESIAN_POINT ( 'NONE',  ( 0.01000000000000043909, 0.000000000000000000, 0.000000000000000000 ) ) ;
#123 = PRODUCT_DEFINITION_CONTEXT ( 'detailed design', #56, 'design' ) ;
#124 = PRESENTATION_LAYER_ASSIGNMENT (  '', '', ( #83 ) ) ;
#125 =( CONVERSION_BASED_UNIT ( 'INCH', #208 ) LENGTH_UNIT ( ) NAMED_UNIT ( #72 ) );
#126 = SURFACE_STYLE_USAGE ( .BOTH. , #311 ) ;
#127 = CONICAL_SURFACE ( 'NONE', #318, 0.003000000000001033090, 0.7853981633974939092 ) ;
#128 =( NAMED_UNIT ( * ) SI_UNIT ( $, .STERADIAN. ) SOLID_ANGLE_UNIT ( ) );
#129 = ADVANCED_FACE ( 'NONE', ( #198 ), #151, .T. ) ;
#130 = CARTESIAN_POINT ( 'NONE',  ( 0.01000000000000043909, 0.000000000000000000, 0.000000000000000000 ) ) ;
#131 = EDGE_CURVE ( 'NONE', #271, #136, #265, .T. ) ;
#132 = APPLICATION_PROTOCOL_DEFINITION ( 'draft international standard', 'automotive_design', 1998, #49 ) ;
#133 = VECTOR ( 'NONE', #170, 39.37007874015748143 ) ;
#134 = DIRECTION ( 'NONE',  ( -1.000000000000000000, -0.000000000000000000, -0.000000000000000000 ) ) ;
#135 = PRESENTATION_STYLE_ASSIGNMENT (( #15 ) ) ;
#136 = VERTEX_POINT ( 'NONE', #174 ) ;
#137 = DIRECTION ( 'NONE',  ( -1.000000000000000000, -0.000000000000000000, -0.000000000000000000 ) ) ;
#138 = AXIS2_PLACEMENT_3D ( 'NONE', #81, #57, #103 ) ;
#139 = DIRECTION ( 'NONE',  ( 0.000000000000000000, 0.000000000000000000, 1.000000000000000000 ) ) ;
#140 = CARTESIAN_POINT ( 'NONE',  ( 0.08100000000000086298, 0.000000000000000000, 0.000000000000000000 ) ) ;
#141 = VERTEX_POINT ( 'NONE', #248 ) ;
#142 = DIRECTION ( 'NONE',  ( 0.000000000000000000, -1.000000000000000000, 0.000000000000000000 ) ) ;
#143 = DIRECTION ( 'NONE',  ( 0.000000000000000000, 0.000000000000000000, 1.000000000000000000 ) ) ;
#144 = VERTEX_POINT ( 'NONE', #304 ) ;
#145 = CARTESIAN_POINT ( 'NONE',  ( 0.01300000000000038104, 0.000000000000000000, 0.009000000000000915254 ) ) ;
#146 = ORIENTED_EDGE ( 'NONE', *, *, #77, .T. ) ;
#147 = FACE_OUTER_BOUND ( 'NONE', #264, .T. ) ;
#148 = EDGE_CURVE ( 'NONE', #141, #107, #23, .T. ) ;
#149 = DIRECTION ( 'NONE',  ( -1.000000000000000000, 0.000000000000000000, -0.000000000000000000 ) ) ;
#150 = AXIS2_PLACEMENT_3D ( 'NONE', #67, #235, #166 ) ;
#151 = CYLINDRICAL_SURFACE ( 'NONE', #119, 0.006000000000000974172 ) ;
#152 = PRODUCT_DEFINITION_SHAPE ( 'NONE', 'NONE',  #277 ) ;
#153 = DIRECTION ( 'NONE',  ( -1.000000000000000000, -0.000000000000000000, -0.000000000000000000 ) ) ;
#154 = DIRECTION ( 'NONE',  ( -0.7071067811865152652, 0.000000000000000000, 0.7071067811865797692 ) ) ;
#155 = CIRCLE ( 'NONE', #70, 0.01499999999999970281 ) ;
#156 = CIRCLE ( 'NONE', #59, 0.009000000000000915254 ) ;
#157 = PLANE ( 'NONE',  #138 ) ;
#158 = CARTESIAN_POINT ( 'NONE',  ( 0.000000000000000000, 7.347880794885311494E-19, -0.006000000000000974172 ) ) ;
#159 = FACE_OUTER_BOUND ( 'NONE', #168, .T. ) ;
#160 = EDGE_LOOP ( 'NONE', ( #233, #246, #116, #68 ) ) ;
#161 =( NAMED_UNIT ( * ) SI_UNIT ( $, .STERADIAN. ) SOLID_ANGLE_UNIT ( ) );
#162 = AXIS2_PLACEMENT_3D ( 'NONE', #122, #298, #69 ) ;
#163 = ORIENTED_EDGE ( 'NONE', *, *, #28, .T. ) ;
#164 = ORIENTED_EDGE ( 'NONE', *, *, #288, .F. ) ;
#165 = ORIENTED_EDGE ( 'NONE', *, *, #310, .F. ) ;
#166 = DIRECTION ( 'NONE',  ( 0.000000000000000000, 0.000000000000000000, 1.000000000000000000 ) ) ;
#167 = ORIENTED_EDGE ( 'NONE', *, *, #131, .T. ) ;
#168 = EDGE_LOOP ( 'NONE', ( #319, #210, #219, #163 ) ) ;
#169 = ORIENTED_EDGE ( 'NONE', *, *, #45, .F. ) ;
#170 = DIRECTION ( 'NONE',  ( -1.000000000000000000, -0.000000000000000000, -0.000000000000000000 ) ) ;
#171 = ADVANCED_FACE ( 'NONE', ( #274 ), #273, .T. ) ;
#172 = EDGE_LOOP ( 'NONE', ( #167, #44 ) ) ;
#173 = AXIS2_PLACEMENT_3D ( 'NONE', #65, #268, #209 ) ;
#174 = CARTESIAN_POINT ( 'NONE',  ( 0.01000000000000043909, 1.102182119232729846E-18, -0.009000000000000915254 ) ) ;
#175 = FACE_OUTER_BOUND ( 'NONE', #37, .T. ) ;
#176 = COLOUR_RGB ( '',1.000000000000000000, 0.9098039215686274384, 0.6196078431372549211 ) ;
#177 = DIRECTION ( 'NONE',  ( -0.000000000000000000, 0.000000000000000000, 1.000000000000000000 ) ) ;
#178 = CIRCLE ( 'NONE', #207, 0.002999999999999940648 ) ;
#179 = ADVANCED_FACE ( 'NONE', ( #147 ), #118, .F. ) ;
#180 = FACE_OUTER_BOUND ( 'NONE', #195, .T. ) ;
#181 = VECTOR ( 'NONE', #154, 39.37007874015748143 ) ;
#182 = DIRECTION ( 'NONE',  ( 0.000000000000000000, 0.000000000000000000, 1.000000000000000000 ) ) ;
#183 =( LENGTH_UNIT ( ) NAMED_UNIT ( * ) SI_UNIT ( $, .METRE. ) );
#184 = DIRECTION ( 'NONE',  ( -1.000000000000000000, -0.000000000000000000, -0.000000000000000000 ) ) ;
#185 =( NAMED_UNIT ( * ) SI_UNIT ( $, .STERADIAN. ) SOLID_ANGLE_UNIT ( ) );
#186 = VERTEX_POINT ( 'NONE', #71 ) ;
#187 =( LENGTH_UNIT ( ) NAMED_UNIT ( * ) SI_UNIT ( $, .METRE. ) );
#188 = LINE ( 'NONE', #158, #234 ) ;
#189 = CIRCLE ( 'NONE', #51, 0.01499999999999970281 ) ;
#190 = FACE_OUTER_BOUND ( 'NONE', #7, .T. ) ;
#191 = ORIENTED_EDGE ( 'NONE', *, *, #197, .F. ) ;
#192 = DIRECTION ( 'NONE',  ( 0.000000000000000000, 0.000000000000000000, 1.000000000000000000 ) ) ;
#193 = ADVANCED_FACE ( 'NONE', ( #330 ), #50, .T. ) ;
#194 = FACE_OUTER_BOUND ( 'NONE', #95, .T. ) ;
#195 = EDGE_LOOP ( 'NONE', ( #92, #292, #43, #46 ) ) ;
#196 = DIRECTION ( 'NONE',  ( -1.000000000000000000, -0.000000000000000000, -0.000000000000000000 ) ) ;
#197 = EDGE_CURVE ( 'NONE', #61, #290, #331, .T. ) ;
#198 = FACE_OUTER_BOUND ( 'NONE', #243, .T. ) ;
#199 = CIRCLE ( 'NONE', #282, 0.006000000000000974172 ) ;
#200 = DIRECTION ( 'NONE',  ( -1.000000000000000000, -0.000000000000000000, -0.000000000000000000 ) ) ;
#201 = DIRECTION ( 'NONE',  ( -1.000000000000000000, 0.000000000000000000, -0.000000000000000000 ) ) ;
#202 = AXIS2_PLACEMENT_3D ( 'NONE', #120, #224, #328 ) ;
#203 = UNCERTAINTY_MEASURE_WITH_UNIT (LENGTH_MEASURE( 1.000000000000000082E-05 ), #125, 'distance_accuracy_value', 'NONE');
#204 = AXIS2_PLACEMENT_3D ( 'NONE', #114, #6, #9 ) ;
#205 = EDGE_CURVE ( 'NONE', #136, #271, #156, .T. ) ;
#206 =( NAMED_UNIT ( * ) PLANE_ANGLE_UNIT ( ) SI_UNIT ( $, .RADIAN. ) );
#207 = AXIS2_PLACEMENT_3D ( 'NONE', #145, #142, #218 ) ;
#208 = LENGTH_MEASURE_WITH_UNIT ( LENGTH_MEASURE( 0.02539999999999999897 ), #30 );
#209 = DIRECTION ( 'NONE',  ( 0.000000000000000000, 0.000000000000000000, 1.000000000000000000 ) ) ;
#210 = ORIENTED_EDGE ( 'NONE', *, *, #131, .F. ) ;
#211 = DIRECTION ( 'NONE',  ( 0.000000000000000000, 0.000000000000000000, 1.000000000000000000 ) ) ;
#212 = DIRECTION ( 'NONE',  ( -1.000000000000000000, -0.000000000000000000, -0.000000000000000000 ) ) ;
#213 = DIRECTION ( 'NONE',  ( -1.000000000000000000, -0.000000000000000000, -0.000000000000000000 ) ) ;
#214 = PRESENTATION_LAYER_ASSIGNMENT (  '', '', ( #31 ) ) ;
#215 = EDGE_CURVE ( 'NONE', #290, #61, #244, .T. ) ;
#216 = DIRECTION ( 'NONE',  ( 0.000000000000000000, 0.000000000000000000, 1.000000000000000000 ) ) ;
#217 = ORIENTED_EDGE ( 'NONE', *, *, #312, .F. ) ;
#218 = DIRECTION ( 'NONE',  ( 0.000000000000000000, 0.000000000000000000, -1.000000000000000000 ) ) ;
#219 = ORIENTED_EDGE ( 'NONE', *, *, #45, .T. ) ;
#220 = ORIENTED_EDGE ( 'NONE', *, *, #18, .T. ) ;
#221 = ORIENTED_EDGE ( 'NONE', *, *, #121, .F. ) ;
#222 = DIRECTION ( 'NONE',  ( 0.000000000000000000, 0.000000000000000000, 1.000000000000000000 ) ) ;
#223 = AXIS2_PLACEMENT_3D ( 'NONE', #39, #84, #109 ) ;
#224 = DIRECTION ( 'NONE',  ( -1.000000000000000000, -0.000000000000000000, -0.000000000000000000 ) ) ;
#225 = DIMENSIONAL_EXPONENTS ( 1.000000000000000000, 0.000000000000000000, 0.000000000000000000, 0.000000000000000000, 0.000000000000000000, 0.000000000000000000, 0.000000000000000000 ) ;
#226 = DIRECTION ( 'NONE',  ( 0.000000000000000000, 0.000000000000000000, 1.000000000000000000 ) ) ;
#227 = COLOUR_RGB ( '',1.000000000000000000, 0.9098039215686274384, 0.6196078431372549211 ) ;
#228 = ADVANCED_FACE ( 'NONE', ( #159 ), #306, .F. ) ;
#229 = CARTESIAN_POINT ( 'NONE',  ( 5.463695987328526437E-16, 1.836970198720993388E-18, -0.01499999999999970281 ) ) ;
#230 = AXIS2_PLACEMENT_3D ( 'NONE', #48, #149, #97 ) ;
#231 = CARTESIAN_POINT ( 'NONE',  ( 5.463695987328526437E-16, 0.000000000000000000, 0.01499999999999970281 ) ) ;
#232 = CARTESIAN_POINT ( 'NONE',  ( 0.08400000000000051870, 0.000000000000000000, 0.003000000000001033090 ) ) ;
#233 = ORIENTED_EDGE ( 'NONE', *, *, #3, .F. ) ;
#234 = VECTOR ( 'NONE', #315, 39.37007874015748143 ) ;
#235 = DIRECTION ( 'NONE',  ( -1.000000000000000000, -0.000000000000000000, -0.000000000000000000 ) ) ;
#236 = EDGE_CURVE ( 'NONE', #296, #141, #2, .T. ) ;
#237 = ORIENTED_EDGE ( 'NONE', *, *, #312, .T. ) ;
#238 = SURFACE_SIDE_STYLE ('',( #35 ) ) ;
#239 = CARTESIAN_POINT ( 'NONE',  ( 5.463695987328526437E-16, 0.000000000000000000, 0.000000000000000000 ) ) ;
#240 = LINE ( 'NONE', #38, #276 ) ;
#241 = ORIENTED_EDGE ( 'NONE', *, *, #215, .F. ) ;
#242 = PRODUCT_CONTEXT ( 'NONE', #49, 'mechanical' ) ;
#243 = EDGE_LOOP ( 'NONE', ( #11, #267, #17, #34 ) ) ;
#244 = CIRCLE ( 'NONE', #150, 0.003000000000001033090 ) ;
#245 = FILL_AREA_STYLE ('',( #261 ) ) ;
#246 = ORIENTED_EDGE ( 'NONE', *, *, #236, .T. ) ;
#247 = PRODUCT_DEFINITION_FORMATION_WITH_SPECIFIED_SOURCE ( 'ANY', '', #22, .NOT_KNOWN. ) ;
#248 = CARTESIAN_POINT ( 'NONE',  ( 0.08100000000000086298, 0.000000000000000000, 0.006000000000000974172 ) ) ;
#249 = DIRECTION ( 'NONE',  ( -1.000000000000000000, -0.000000000000000000, -0.000000000000000000 ) ) ;
#250 = CIRCLE ( 'NONE', #223, 0.002999999999999940648 ) ;
#251 = CARTESIAN_POINT ( 'NONE',  ( 0.000000000000000000, 0.000000000000000000, 0.000000000000000000 ) ) ;
#252 = DIRECTION ( 'NONE',  ( 0.000000000000000000, 0.000000000000000000, 1.000000000000000000 ) ) ;
#253 = EDGE_CURVE ( 'NONE', #144, #186, #189, .T. ) ;
#254 = EDGE_CURVE ( 'NONE', #186, #320, #240, .T. ) ;
#255 = LENGTH_MEASURE_WITH_UNIT ( LENGTH_MEASURE( 0.02539999999999999897 ), #183 );
#256 = AXIS2_PLACEMENT_3D ( 'NONE', #58, #1, #102 ) ;
#257 = DIRECTION ( 'NONE',  ( -1.000000000000000000, -0.000000000000000000, -0.000000000000000000 ) ) ;
#258 = AXIS2_PLACEMENT_3D ( 'NONE', #99, #249, #20 ) ;
#259 = CARTESIAN_POINT ( 'NONE',  ( 0.000000000000000000, 0.000000000000000000, 0.01499999999999970281 ) ) ;
#260 = CARTESIAN_POINT ( 'NONE',  ( 0.08400000000000051870, 3.673940397443324526E-19, -0.003000000000001033090 ) ) ;
#261 = FILL_AREA_STYLE_COLOUR ( '', #176 ) ;
#262 = ADVANCED_FACE ( 'NONE', ( #87 ), #127, .T. ) ;
#263 = MANIFOLD_SOLID_BREP ( 'Imported1', #54 ) ;
#264 = EDGE_LOOP ( 'NONE', ( #241, #191 ) ) ;
#265 = CIRCLE ( 'NONE', #162, 0.009000000000000915254 ) ;
#266 =( NAMED_UNIT ( * ) PLANE_ANGLE_UNIT ( ) SI_UNIT ( $, .RADIAN. ) );
#267 = ORIENTED_EDGE ( 'NONE', *, *, #3, .T. ) ;
#268 = DIRECTION ( 'NONE',  ( -1.000000000000000000, -0.000000000000000000, -0.000000000000000000 ) ) ;
#269 = EDGE_LOOP ( 'NONE', ( #324, #237, #94, #16 ) ) ;
#270 = LENGTH_MEASURE_WITH_UNIT ( LENGTH_MEASURE( 0.02539999999999999897 ), #187 );
#271 = VERTEX_POINT ( 'NONE', #89 ) ;
#272 = EDGE_LOOP ( 'NONE', ( #62, #220, #66, #165 ) ) ;
#273 = CYLINDRICAL_SURFACE ( 'NONE', #13, 0.01499999999999970281 ) ;
#274 = FACE_OUTER_BOUND ( 'NONE', #269, .T. ) ;
#275 = CARTESIAN_POINT ( 'NONE',  ( 0.000000000000000000, 0.000000000000000000, 0.006000000000000974172 ) ) ;
#276 = VECTOR ( 'NONE', #112, 39.37007874015748143 ) ;
#277 = PRODUCT_DEFINITION ( 'UNKNOWN', '', #247, #123 ) ;
#278 = PLANE ( 'NONE',  #36 ) ;
#279 = LINE ( 'NONE', #232, #181 ) ;
#280 = AXIS2_PLACEMENT_3D ( 'NONE', #52, #153, #252 ) ;
#281 = FACE_OUTER_BOUND ( 'NONE', #117, .T. ) ;
#282 = AXIS2_PLACEMENT_3D ( 'NONE', #284, #4, #55 ) ;
#283 = PRESENTATION_STYLE_ASSIGNMENT (( #126 ) ) ;
#284 = CARTESIAN_POINT ( 'NONE',  ( 0.08100000000000086298, 0.000000000000000000, 0.000000000000000000 ) ) ;
#285 = AXIS2_PLACEMENT_3D ( 'NONE', #8, #82, #40 ) ;
#286 = ADVANCED_FACE ( 'NONE', ( #190 ), #293, .T. ) ;
#287 = ORIENTED_EDGE ( 'NONE', *, *, #253, .F. ) ;
#288 = EDGE_CURVE ( 'NONE', #144, #317, #60, .T. ) ;
#289 = DIRECTION ( 'NONE',  ( -1.000000000000000000, -0.000000000000000000, -0.000000000000000000 ) ) ;
#290 = VERTEX_POINT ( 'NONE', #308 ) ;
#291 = SHAPE_DEFINITION_REPRESENTATION ( #152, #10 ) ;
#292 = ORIENTED_EDGE ( 'NONE', *, *, #197, .T. ) ;
#293 = CYLINDRICAL_SURFACE ( 'NONE', #173, 0.01499999999999970281 ) ;
#294 = ORIENTED_EDGE ( 'NONE', *, *, #42, .T. ) ;
#295 = FACE_BOUND ( 'NONE', #172, .T. ) ;
#296 = VERTEX_POINT ( 'NONE', #313 ) ;
#297 = ORIENTED_EDGE ( 'NONE', *, *, #253, .T. ) ;
#298 = DIRECTION ( 'NONE',  ( -1.000000000000000000, -0.000000000000000000, -0.000000000000000000 ) ) ;
#299 = DIMENSIONAL_EXPONENTS ( 1.000000000000000000, 0.000000000000000000, 0.000000000000000000, 0.000000000000000000, 0.000000000000000000, 0.000000000000000000, 0.000000000000000000 ) ;
#300 = AXIS2_PLACEMENT_3D ( 'NONE', #239, #212, #90 ) ;
#301 = CARTESIAN_POINT ( 'NONE',  ( 0.01300000000000038104, 0.000000000000000000, 0.000000000000000000 ) ) ;
#302 =( GEOMETRIC_REPRESENTATION_CONTEXT ( 3 ) GLOBAL_UNCERTAINTY_ASSIGNED_CONTEXT ( ( #25 ) ) GLOBAL_UNIT_ASSIGNED_CONTEXT ( ( #91, #266, #161 ) ) REPRESENTATION_CONTEXT ( 'NONE', 'WORKASPACE' ) );
#303 = ADVANCED_FACE ( 'NONE', ( #180 ), #26, .T. ) ;
#304 = CARTESIAN_POINT ( 'NONE',  ( 0.01000000000000043909, 0.000000000000000000, 0.01499999999999970281 ) ) ;
#305 = DIRECTION ( 'NONE',  ( 0.000000000000000000, 0.000000000000000000, 1.000000000000000000 ) ) ;
#306 = TOROIDAL_SURFACE ( 'NONE', #285, 0.009000000000000915254, 0.002999999999999940648 ) ;
#307 = AXIS2_PLACEMENT_3D ( 'NONE', #14, #134, #139 ) ;
#308 = CARTESIAN_POINT ( 'NONE',  ( 0.08400000000000051870, 0.000000000000000000, 0.003000000000001033090 ) ) ;
#309 = FILL_AREA_STYLE_COLOUR ( '', #227 ) ;
#310 = EDGE_CURVE ( 'NONE', #290, #141, #279, .T. ) ;
#311 = SURFACE_SIDE_STYLE ('',( #27 ) ) ;
#312 = EDGE_CURVE ( 'NONE', #186, #144, #155, .T. ) ;
#313 = CARTESIAN_POINT ( 'NONE',  ( 0.08100000000000086298, 7.347880794885311494E-19, -0.006000000000000974172 ) ) ;
#314 = MECHANICAL_DESIGN_GEOMETRIC_PRESENTATION_REPRESENTATION (  '', ( #83 ), #85 ) ;
#315 = DIRECTION ( 'NONE',  ( -1.000000000000000000, -0.000000000000000000, -0.000000000000000000 ) ) ;
#316 = CARTESIAN_POINT ( 'NONE',  ( 0.08400000000000051870, 0.000000000000000000, 0.000000000000000000 ) ) ;
#317 = VERTEX_POINT ( 'NONE', #231 ) ;
#318 = AXIS2_PLACEMENT_3D ( 'NONE', #316, #184, #216 ) ;
#319 = ORIENTED_EDGE ( 'NONE', *, *, #42, .F. ) ;
#320 = VERTEX_POINT ( 'NONE', #229 ) ;
#321 = CARTESIAN_POINT ( 'NONE',  ( 0.08400000000000051870, 5.510910596164318491E-19, -0.003000000000001033090 ) ) ;
#322 = EDGE_CURVE ( 'NONE', #141, #296, #199, .T. ) ;
#323 = ORIENTED_EDGE ( 'NONE', *, *, #121, .T. ) ;
#324 = ORIENTED_EDGE ( 'NONE', *, *, #254, .F. ) ;
#325 = DIRECTION ( 'NONE',  ( -1.000000000000000000, -0.000000000000000000, -0.000000000000000000 ) ) ;
#326 = ADVANCED_FACE ( 'NONE', ( #281 ), #157, .F. ) ;
#327 = CIRCLE ( 'NONE', #5, 0.006000000000000974172 ) ;
#328 = DIRECTION ( 'NONE',  ( 0.000000000000000000, 0.000000000000000000, 1.000000000000000000 ) ) ;
#329 = VECTOR ( 'NONE', #79, 39.37007874015748143 ) ;
#330 = FACE_OUTER_BOUND ( 'NONE', #160, .T. ) ;
#331 = CIRCLE ( 'NONE', #202, 0.003000000000001033090 ) ;
ENDSEC;
END-ISO-10303-21;
