ISO-10303-21;
HEADER;
FILE_DESCRIPTION (( 'STEP AP214' ),
    '1' );
FILE_NAME ('5849-0-00-15-00-00-03-0.STEP',
    '2024-02-22T12:25:52',
    ( '' ),
    ( '' ),
    'SwSTEP 2.0',
    'SolidWorks 2022',
    '' );
FILE_SCHEMA (( 'AUTOMOTIVE_DESIGN' ));
ENDSEC;

DATA;
#1 = APPLICATION_PROTOCOL_DEFINITION ( 'draft international standard', 'automotive_design', 1998, #116 ) ;
#2 = DIRECTION ( 'NONE',  ( 0.000000000000000000, 0.000000000000000000, -1.000000000000000000 ) ) ;
#3 = ORIENTED_EDGE ( 'NONE', *, *, #157, .F. ) ;
#4 = CARTESIAN_POINT ( 'NONE',  ( 0.05900000000000000383, 4.776122516674669243E-18, 0.03899999999999993056 ) ) ;
#5 = CIRCLE ( 'NONE', #156, 0.02949999999999996722 ) ;
#6 = DIRECTION ( 'NONE',  ( -0.000000000000000000, 0.000000000000000000, -1.000000000000000000 ) ) ;
#7 =( NAMED_UNIT ( * ) SI_UNIT ( $, .STERADIAN. ) SOLID_ANGLE_UNIT ( ) );
#8 = FACE_OUTER_BOUND ( 'NONE', #322, .T. ) ;
#9 = CARTESIAN_POINT ( 'NONE',  ( 0.3249999999999999556, 0.000000000000000000, -0.02949999999999996722 ) ) ;
#10 = CARTESIAN_POINT ( 'NONE',  ( 0.3449999999999999178, 0.000000000000000000, 0.000000000000000000 ) ) ;
#11 =( CONVERSION_BASED_UNIT ( 'INCH', #105 ) LENGTH_UNIT ( ) NAMED_UNIT ( #307 ) );
#12 = LENGTH_MEASURE_WITH_UNIT ( LENGTH_MEASURE( 0.02539999999999999897 ), #152 );
#13 = CARTESIAN_POINT ( 'NONE',  ( 0.3449999999999999178, 0.000000000000000000, 0.000000000000000000 ) ) ;
#14 = FACE_OUTER_BOUND ( 'NONE', #47, .T. ) ;
#15 = CYLINDRICAL_SURFACE ( 'NONE', #285, 0.01949999999999997569 ) ;
#16 = CIRCLE ( 'NONE', #94, 0.01930949101011137856 ) ;
#17 = EDGE_CURVE ( 'NONE', #353, #271, #136, .T. ) ;
#18 = VERTEX_POINT ( 'NONE', #316 ) ;
#19 = EDGE_LOOP ( 'NONE', ( #228, #71, #273, #111 ) ) ;
#20 = VECTOR ( 'NONE', #122, 39.37007874015748143 ) ;
#21 = ORIENTED_EDGE ( 'NONE', *, *, #132, .T. ) ;
#22 = EDGE_CURVE ( 'NONE', #72, #169, #344, .T. ) ;
#23 = DIRECTION ( 'NONE',  ( 1.000000000000000000, -0.000000000000000000, -0.000000000000000000 ) ) ;
#24 = ORIENTED_EDGE ( 'NONE', *, *, #222, .F. ) ;
#25 = CYLINDRICAL_SURFACE ( 'NONE', #129, 0.03899999999999993056 ) ;
#26 = PLANE ( 'NONE',  #77 ) ;
#27 = ADVANCED_BREP_SHAPE_REPRESENTATION ( '5849-0-00-15-00-00-03-0', ( #62, #242 ), #227 ) ;
#28 = EDGE_CURVE ( 'NONE', #279, #57, #305, .T. ) ;
#29 = SURFACE_STYLE_FILL_AREA ( #313 ) ;
#30 =( NAMED_UNIT ( * ) SI_UNIT ( $, .STERADIAN. ) SOLID_ANGLE_UNIT ( ) );
#31 = DIRECTION ( 'NONE',  ( -1.000000000000000000, 0.000000000000000000, 0.000000000000000000 ) ) ;
#32 = SURFACE_SIDE_STYLE ('',( #280 ) ) ;
#33 = CARTESIAN_POINT ( 'NONE',  ( 0.3449999999999999178, 3.612708057484688584E-18, 0.02949999999999996722 ) ) ;
#34 = CARTESIAN_POINT ( 'NONE',  ( 0.3449999999999999178, 0.000000000000000000, 0.01930949101011137856 ) ) ;
#35 = DIRECTION ( 'NONE',  ( 1.000000000000000000, -0.000000000000000000, -0.000000000000000000 ) ) ;
#36 = AXIS2_PLACEMENT_3D ( 'NONE', #232, #259, #284 ) ;
#37 = ORIENTED_EDGE ( 'NONE', *, *, #28, .T. ) ;
#38 = CARTESIAN_POINT ( 'NONE',  ( 0.3449999999999999178, 0.000000000000000000, 0.000000000000000000 ) ) ;
#39 = CARTESIAN_POINT ( 'NONE',  ( 0.3249999999999999556, 0.000000000000000000, 0.000000000000000000 ) ) ;
#40 = AXIS2_PLACEMENT_3D ( 'NONE', #288, #262, #214 ) ;
#41 = ADVANCED_FACE ( 'NONE', ( #121 ), #210, .T. ) ;
#42 = ORIENTED_EDGE ( 'NONE', *, *, #28, .F. ) ;
#43 = ADVANCED_FACE ( 'NONE', ( #8 ), #203, .T. ) ;
#44 = ORIENTED_EDGE ( 'NONE', *, *, #347, .F. ) ;
#45 = CIRCLE ( 'NONE', #350, 0.01949999999999995487 ) ;
#46 = DIRECTION ( 'NONE',  ( 0.000000000000000000, 0.000000000000000000, -1.000000000000000000 ) ) ;
#47 = EDGE_LOOP ( 'NONE', ( #223, #113, #49, #303 ) ) ;
#48 = DIRECTION ( 'NONE',  ( 0.000000000000000000, 0.000000000000000000, 1.000000000000000000 ) ) ;
#49 = ORIENTED_EDGE ( 'NONE', *, *, #187, .T. ) ;
#50 = LENGTH_MEASURE_WITH_UNIT ( LENGTH_MEASURE( 0.02539999999999999897 ), #208 );
#51 = ADVANCED_FACE ( 'NONE', ( #337 ), #26, .T. ) ;
#52 = CARTESIAN_POINT ( 'NONE',  ( 0.3449999999999999178, 0.01930949101011137856, 0.000000000000000000 ) ) ;
#53 = LINE ( 'NONE', #59, #162 ) ;
#54 = DIRECTION ( 'NONE',  ( 1.000000000000000000, 0.000000000000000000, -0.000000000000000000 ) ) ;
#55 = CARTESIAN_POINT ( 'NONE',  ( 0.08899999999999999578, 0.000000000000000000, 0.000000000000000000 ) ) ;
#56 = FILL_AREA_STYLE ('',( #309 ) ) ;
#57 = VERTEX_POINT ( 'NONE', #140 ) ;
#58 = LINE ( 'NONE', #266, #318 ) ;
#59 = CARTESIAN_POINT ( 'NONE',  ( 0.3449999999999999178, 0.000000000000000000, -0.03899999999999993056 ) ) ;
#60 = SURFACE_SIDE_STYLE ('',( #29 ) ) ;
#61 = CARTESIAN_POINT ( 'NONE',  ( 0.05900000000000000383, 0.000000000000000000, -0.01949999999999995487 ) ) ;
#62 = MANIFOLD_SOLID_BREP ( 'Imported1', #254 ) ;
#63 = CARTESIAN_POINT ( 'NONE',  ( 0.3449999999999999178, 0.000000000000000000, 0.000000000000000000 ) ) ;
#64 = PRESENTATION_LAYER_ASSIGNMENT (  '', '', ( #84 ) ) ;
#65 = DIRECTION ( 'NONE',  ( 0.000000000000000000, 0.000000000000000000, -1.000000000000000000 ) ) ;
#66 = DIRECTION ( 'NONE',  ( 1.000000000000000000, -0.000000000000000000, -0.000000000000000000 ) ) ;
#67 =( GEOMETRIC_REPRESENTATION_CONTEXT ( 3 ) GLOBAL_UNCERTAINTY_ASSIGNED_CONTEXT ( ( #331 ) ) GLOBAL_UNIT_ASSIGNED_CONTEXT ( ( #11, #343, #7 ) ) REPRESENTATION_CONTEXT ( 'NONE', 'WORKASPACE' ) );
#68 = VECTOR ( 'NONE', #183, 39.37007874015748143 ) ;
#69 = AXIS2_PLACEMENT_3D ( 'NONE', #173, #290, #107 ) ;
#70 = PRODUCT_DEFINITION_FORMATION_WITH_SPECIFIED_SOURCE ( 'ANY', '', #81, .NOT_KNOWN. ) ;
#71 = ORIENTED_EDGE ( 'NONE', *, *, #319, .T. ) ;
#72 = VERTEX_POINT ( 'NONE', #124 ) ;
#73 = ADVANCED_FACE ( 'NONE', ( #14 ), #268, .T. ) ;
#74 = EDGE_LOOP ( 'NONE', ( #286, #161 ) ) ;
#75 = CARTESIAN_POINT ( 'NONE',  ( 0.3249999999999999556, 0.000000000000000000, 0.000000000000000000 ) ) ;
#76 = EDGE_LOOP ( 'NONE', ( #230, #221 ) ) ;
#77 = AXIS2_PLACEMENT_3D ( 'NONE', #52, #89, #115 ) ;
#78 = EDGE_LOOP ( 'NONE', ( #199, #190, #206, #44 ) ) ;
#79 = DIRECTION ( 'NONE',  ( 0.000000000000000000, 0.000000000000000000, -1.000000000000000000 ) ) ;
#80 = DIRECTION ( 'NONE',  ( 1.000000000000000000, -0.000000000000000000, -0.000000000000000000 ) ) ;
#81 = PRODUCT ( '5849-0-00-15-00-00-03-0', '5849-0-00-15-00-00-03-0', '', ( #340 ) ) ;
#82 = DIRECTION ( 'NONE',  ( 0.000000000000000000, 0.000000000000000000, 1.000000000000000000 ) ) ;
#83 = DIMENSIONAL_EXPONENTS ( 1.000000000000000000, 0.000000000000000000, 0.000000000000000000, 0.000000000000000000, 0.000000000000000000, 0.000000000000000000, 0.000000000000000000 ) ;
#84 = STYLED_ITEM ( 'NONE', ( #143 ), #62 ) ;
#85 =( NAMED_UNIT ( * ) PLANE_ANGLE_UNIT ( ) SI_UNIT ( $, .RADIAN. ) );
#86 = CARTESIAN_POINT ( 'NONE',  ( 0.05900000000000000383, 0.000000000000000000, 0.000000000000000000 ) ) ;
#87 = FACE_OUTER_BOUND ( 'NONE', #137, .T. ) ;
#88 = ADVANCED_FACE ( 'NONE', ( #198, #148 ), #226, .T. ) ;
#89 = DIRECTION ( 'NONE',  ( 1.000000000000000000, 0.000000000000000000, -0.000000000000000000 ) ) ;
#90 = DIRECTION ( 'NONE',  ( 0.000000000000000000, 0.000000000000000000, -1.000000000000000000 ) ) ;
#91 = LINE ( 'NONE', #201, #260 ) ;
#92 = CARTESIAN_POINT ( 'NONE',  ( 0.000000000000000000, 0.000000000000000000, 0.000000000000000000 ) ) ;
#93 = DIRECTION ( 'NONE',  ( 1.000000000000000000, -0.000000000000000000, -0.000000000000000000 ) ) ;
#94 = AXIS2_PLACEMENT_3D ( 'NONE', #153, #66, #291 ) ;
#95 = COLOUR_RGB ( '',1.000000000000000000, 0.8588235294117646523, 0.5568627450980392357 ) ;
#96 = DIRECTION ( 'NONE',  ( 0.000000000000000000, 0.000000000000000000, 1.000000000000000000 ) ) ;
#97 = ADVANCED_FACE ( 'NONE', ( #359 ), #120, .T. ) ;
#98 = CIRCLE ( 'NONE', #300, 0.01949999999999999997 ) ;
#99 = EDGE_LOOP ( 'NONE', ( #299, #233 ) ) ;
#100 = ORIENTED_EDGE ( 'NONE', *, *, #119, .F. ) ;
#101 = AXIS2_PLACEMENT_3D ( 'NONE', #92, #332, #82 ) ;
#102 = ADVANCED_FACE ( 'NONE', ( #312 ), #346, .T. ) ;
#103 = ORIENTED_EDGE ( 'NONE', *, *, #217, .F. ) ;
#104 = ORIENTED_EDGE ( 'NONE', *, *, #22, .F. ) ;
#105 = LENGTH_MEASURE_WITH_UNIT ( LENGTH_MEASURE( 0.02539999999999999897 ), #154 );
#106 = DIRECTION ( 'NONE',  ( 1.000000000000000000, -0.000000000000000000, -0.000000000000000000 ) ) ;
#107 = DIRECTION ( 'NONE',  ( 0.000000000000000000, 0.000000000000000000, 1.000000000000000000 ) ) ;
#108 = ORIENTED_EDGE ( 'NONE', *, *, #17, .T. ) ;
#109 = AXIS2_PLACEMENT_3D ( 'NONE', #75, #224, #238 ) ;
#110 = CARTESIAN_POINT ( 'NONE',  ( 0.000000000000000000, 0.000000000000000000, 0.000000000000000000 ) ) ;
#111 = ORIENTED_EDGE ( 'NONE', *, *, #187, .F. ) ;
#112 = FACE_OUTER_BOUND ( 'NONE', #99, .T. ) ;
#113 = ORIENTED_EDGE ( 'NONE', *, *, #263, .F. ) ;
#114 = DIRECTION ( 'NONE',  ( 1.000000000000000000, -0.000000000000000000, -0.000000000000000000 ) ) ;
#115 = DIRECTION ( 'NONE',  ( -0.000000000000000000, 0.000000000000000000, -1.000000000000000000 ) ) ;
#116 = APPLICATION_CONTEXT ( 'automotive_design' ) ;
#117 = AXIS2_PLACEMENT_3D ( 'NONE', #86, #181, #207 ) ;
#118 = CARTESIAN_POINT ( 'NONE',  ( 0.3449999999999999178, 0.000000000000000000, 0.01930949101011137856 ) ) ;
#119 = EDGE_CURVE ( 'NONE', #353, #296, #193, .T. ) ;
#120 = CYLINDRICAL_SURFACE ( 'NONE', #194, 0.02949999999999996722 ) ;
#121 = FACE_OUTER_BOUND ( 'NONE', #264, .T. ) ;
#122 = DIRECTION ( 'NONE',  ( 1.000000000000000000, -0.000000000000000000, -0.000000000000000000 ) ) ;
#123 = DIRECTION ( 'NONE',  ( 1.000000000000000000, -0.000000000000000000, -0.000000000000000000 ) ) ;
#124 = CARTESIAN_POINT ( 'NONE',  ( 0.08899999999999999578, 0.000000000000000000, -0.03899999999999993056 ) ) ;
#125 = CARTESIAN_POINT ( 'NONE',  ( 0.3449999999999999178, 0.000000000000000000, 0.000000000000000000 ) ) ;
#126 = AXIS2_PLACEMENT_3D ( 'NONE', #125, #31, #48 ) ;
#127 = UNCERTAINTY_MEASURE_WITH_UNIT (LENGTH_MEASURE( 1.000000000000000082E-05 ), #255, 'distance_accuracy_value', 'NONE');
#128 = PRODUCT_RELATED_PRODUCT_CATEGORY ( 'part', '', ( #81 ) ) ;
#129 = AXIS2_PLACEMENT_3D ( 'NONE', #10, #35, #205 ) ;
#130 = VERTEX_POINT ( 'NONE', #61 ) ;
#131 = DIRECTION ( 'NONE',  ( 1.000000000000000000, -0.000000000000000000, -0.000000000000000000 ) ) ;
#132 = EDGE_CURVE ( 'NONE', #130, #296, #218, .T. ) ;
#133 = ORIENTED_EDGE ( 'NONE', *, *, #119, .T. ) ;
#134 = CIRCLE ( 'NONE', #225, 0.02949999999999996722 ) ;
#135 = ORIENTED_EDGE ( 'NONE', *, *, #333, .F. ) ;
#136 = CIRCLE ( 'NONE', #142, 0.01949999999999999997 ) ;
#137 = EDGE_LOOP ( 'NONE', ( #355, #281, #104, #247 ) ) ;
#138 = DIRECTION ( 'NONE',  ( 0.000000000000000000, 0.000000000000000000, -1.000000000000000000 ) ) ;
#139 = ORIENTED_EDGE ( 'NONE', *, *, #217, .T. ) ;
#140 = CARTESIAN_POINT ( 'NONE',  ( 0.3249999999999999556, 3.612708057484688584E-18, 0.02949999999999996722 ) ) ;
#141 = AXIS2_PLACEMENT_3D ( 'NONE', #38, #177, #272 ) ;
#142 = AXIS2_PLACEMENT_3D ( 'NONE', #261, #200, #2 ) ;
#143 = PRESENTATION_STYLE_ASSIGNMENT (( #179 ) ) ;
#144 = DIRECTION ( 'NONE',  ( 0.000000000000000000, 0.000000000000000000, -1.000000000000000000 ) ) ;
#145 = EDGE_CURVE ( 'NONE', #271, #130, #58, .T. ) ;
#146 = DIRECTION ( 'NONE',  ( 1.000000000000000000, -0.000000000000000000, -0.000000000000000000 ) ) ;
#147 = SURFACE_STYLE_USAGE ( .BOTH. , #32 ) ;
#148 = FACE_BOUND ( 'NONE', #76, .T. ) ;
#149 = ORIENTED_EDGE ( 'NONE', *, *, #248, .T. ) ;
#150 = AXIS2_PLACEMENT_3D ( 'NONE', #63, #358, #175 ) ;
#151 = CARTESIAN_POINT ( 'NONE',  ( 0.3449999999999999178, 0.000000000000000000, -0.02949999999999996722 ) ) ;
#152 =( LENGTH_UNIT ( ) NAMED_UNIT ( * ) SI_UNIT ( $, .METRE. ) );
#153 = CARTESIAN_POINT ( 'NONE',  ( 0.3449999999999999178, 0.000000000000000000, 0.000000000000000000 ) ) ;
#154 =( LENGTH_UNIT ( ) NAMED_UNIT ( * ) SI_UNIT ( $, .METRE. ) );
#155 = CARTESIAN_POINT ( 'NONE',  ( 0.05900000000000000383, 0.000000000000000000, 0.000000000000000000 ) ) ;
#156 = AXIS2_PLACEMENT_3D ( 'NONE', #39, #342, #46 ) ;
#157 = EDGE_CURVE ( 'NONE', #57, #250, #5, .T. ) ;
#158 = CIRCLE ( 'NONE', #188, 0.03899999999999993056 ) ;
#159 = EDGE_CURVE ( 'NONE', #250, #57, #293, .T. ) ;
#160 = ORIENTED_EDGE ( 'NONE', *, *, #222, .T. ) ;
#161 = ORIENTED_EDGE ( 'NONE', *, *, #282, .T. ) ;
#162 = VECTOR ( 'NONE', #80, 39.37007874015748143 ) ;
#163 = VERTEX_POINT ( 'NONE', #314 ) ;
#164 = CARTESIAN_POINT ( 'NONE',  ( 0.08899999999999999578, 4.776122516674669243E-18, 0.03899999999999993056 ) ) ;
#165 = VERTEX_POINT ( 'NONE', #235 ) ;
#166 = CYLINDRICAL_SURFACE ( 'NONE', #170, 0.03899999999999993056 ) ;
#167 = EDGE_LOOP ( 'NONE', ( #21, #160 ) ) ;
#168 = CARTESIAN_POINT ( 'NONE',  ( 0.05900000000000000383, 2.388061258337335007E-18, 0.01949999999999995487 ) ) ;
#169 = VERTEX_POINT ( 'NONE', #164 ) ;
#170 = AXIS2_PLACEMENT_3D ( 'NONE', #275, #146, #211 ) ;
#171 = CARTESIAN_POINT ( 'NONE',  ( 0.000000000000000000, 2.388061258337338859E-18, 0.01949999999999999997 ) ) ;
#172 = ADVANCED_FACE ( 'NONE', ( #324 ), #335, .T. ) ;
#173 = CARTESIAN_POINT ( 'NONE',  ( 0.3449999999999999178, 0.000000000000000000, 0.000000000000000000 ) ) ;
#174 = DIMENSIONAL_EXPONENTS ( 1.000000000000000000, 0.000000000000000000, 0.000000000000000000, 0.000000000000000000, 0.000000000000000000, 0.000000000000000000, 0.000000000000000000 ) ;
#175 = DIRECTION ( 'NONE',  ( 0.000000000000000000, 0.000000000000000000, -1.000000000000000000 ) ) ;
#176 = ORIENTED_EDGE ( 'NONE', *, *, #22, .T. ) ;
#177 = DIRECTION ( 'NONE',  ( 1.000000000000000000, -0.000000000000000000, -0.000000000000000000 ) ) ;
#178 = DIRECTION ( 'NONE',  ( 0.000000000000000000, 0.000000000000000000, -1.000000000000000000 ) ) ;
#179 = SURFACE_STYLE_USAGE ( .BOTH. , #60 ) ;
#180 = AXIS2_PLACEMENT_3D ( 'NONE', #325, #54, #6 ) ;
#181 = DIRECTION ( 'NONE',  ( 1.000000000000000000, -0.000000000000000000, -0.000000000000000000 ) ) ;
#182 = DIRECTION ( 'NONE',  ( -0.8910065241883675657, 5.559780123493441596E-17, -0.4539904997395474706 ) ) ;
#183 = DIRECTION ( 'NONE',  ( 1.000000000000000000, -0.000000000000000000, -0.000000000000000000 ) ) ;
#184 = LINE ( 'NONE', #251, #323 ) ;
#185 = AXIS2_PLACEMENT_3D ( 'NONE', #304, #239, #144 ) ;
#186 = ADVANCED_FACE ( 'NONE', ( #321 ), #15, .T. ) ;
#187 = EDGE_CURVE ( 'NONE', #245, #57, #283, .T. ) ;
#188 = AXIS2_PLACEMENT_3D ( 'NONE', #338, #240, #90 ) ;
#189 = PRESENTATION_LAYER_ASSIGNMENT (  '', '', ( #287 ) ) ;
#190 = ORIENTED_EDGE ( 'NONE', *, *, #253, .T. ) ;
#191 = ORIENTED_EDGE ( 'NONE', *, *, #145, .F. ) ;
#192 = ORIENTED_EDGE ( 'NONE', *, *, #159, .F. ) ;
#193 = LINE ( 'NONE', #301, #20 ) ;
#194 = AXIS2_PLACEMENT_3D ( 'NONE', #270, #131, #354 ) ;
#195 = PRODUCT_DEFINITION ( 'UNKNOWN', '', #70, #216 ) ;
#196 = ORIENTED_EDGE ( 'NONE', *, *, #333, .T. ) ;
#197 = APPLICATION_PROTOCOL_DEFINITION ( 'draft international standard', 'automotive_design', 1998, #249 ) ;
#198 = FACE_OUTER_BOUND ( 'NONE', #298, .T. ) ;
#199 = ORIENTED_EDGE ( 'NONE', *, *, #267, .F. ) ;
#200 = DIRECTION ( 'NONE',  ( 1.000000000000000000, -0.000000000000000000, -0.000000000000000000 ) ) ;
#201 = CARTESIAN_POINT ( 'NONE',  ( 0.3449999999999999178, 2.364730635869749172E-18, -0.01930949101011137856 ) ) ;
#202 = CIRCLE ( 'NONE', #40, 0.02949999999999996722 ) ;
#203 = CYLINDRICAL_SURFACE ( 'NONE', #252, 0.02949999999999996722 ) ;
#204 = VECTOR ( 'NONE', #258, 39.37007874015748143 ) ;
#205 = DIRECTION ( 'NONE',  ( 0.000000000000000000, 0.000000000000000000, -1.000000000000000000 ) ) ;
#206 = ORIENTED_EDGE ( 'NONE', *, *, #292, .T. ) ;
#207 = DIRECTION ( 'NONE',  ( 0.000000000000000000, 0.000000000000000000, -1.000000000000000000 ) ) ;
#208 =( LENGTH_UNIT ( ) NAMED_UNIT ( * ) SI_UNIT ( $, .METRE. ) );
#209 = UNCERTAINTY_MEASURE_WITH_UNIT (LENGTH_MEASURE( 1.000000000000000082E-05 ), #276, 'distance_accuracy_value', 'NONE');
#210 = PLANE ( 'NONE',  #101 ) ;
#211 = DIRECTION ( 'NONE',  ( 0.000000000000000000, 0.000000000000000000, -1.000000000000000000 ) ) ;
#212 = CARTESIAN_POINT ( 'NONE',  ( 0.08899999999999999578, 3.612708057484688584E-18, 0.02949999999999996722 ) ) ;
#213 = DIRECTION ( 'NONE',  ( 0.000000000000000000, 0.000000000000000000, -1.000000000000000000 ) ) ;
#214 = DIRECTION ( 'NONE',  ( 0.000000000000000000, 0.000000000000000000, -1.000000000000000000 ) ) ;
#215 = MECHANICAL_DESIGN_GEOMETRIC_PRESENTATION_REPRESENTATION (  '', ( #287 ), #67 ) ;
#216 = PRODUCT_DEFINITION_CONTEXT ( 'detailed design', #249, 'design' ) ;
#217 = EDGE_CURVE ( 'NONE', #163, #250, #317, .T. ) ;
#218 = CIRCLE ( 'NONE', #117, 0.01949999999999995487 ) ;
#219 = ORIENTED_EDGE ( 'NONE', *, *, #347, .T. ) ;
#220 = VERTEX_POINT ( 'NONE', #4 ) ;
#221 = ORIENTED_EDGE ( 'NONE', *, *, #248, .F. ) ;
#222 = EDGE_CURVE ( 'NONE', #296, #130, #45, .T. ) ;
#223 = ORIENTED_EDGE ( 'NONE', *, *, #319, .F. ) ;
#224 = DIRECTION ( 'NONE',  ( 1.000000000000000000, -0.000000000000000000, -0.000000000000000000 ) ) ;
#225 = AXIS2_PLACEMENT_3D ( 'NONE', #336, #114, #178 ) ;
#226 = PLANE ( 'NONE',  #180 ) ;
#227 =( GEOMETRIC_REPRESENTATION_CONTEXT ( 3 ) GLOBAL_UNCERTAINTY_ASSIGNED_CONTEXT ( ( #209 ) ) GLOBAL_UNIT_ASSIGNED_CONTEXT ( ( #276, #278, #30 ) ) REPRESENTATION_CONTEXT ( 'NONE', 'WORKASPACE' ) );
#228 = ORIENTED_EDGE ( 'NONE', *, *, #282, .F. ) ;
#229 = DIRECTION ( 'NONE',  ( 1.000000000000000000, -0.000000000000000000, -0.000000000000000000 ) ) ;
#230 = ORIENTED_EDGE ( 'NONE', *, *, #297, .F. ) ;
#231 = ADVANCED_FACE ( 'NONE', ( #265 ), #166, .T. ) ;
#232 = CARTESIAN_POINT ( 'NONE',  ( 0.05899999999999999689, 0.01949999999999995487, 0.000000000000000000 ) ) ;
#233 = ORIENTED_EDGE ( 'NONE', *, *, #253, .F. ) ;
#234 = CARTESIAN_POINT ( 'NONE',  ( 0.08899999999999999578, 0.000000000000000000, 0.000000000000000000 ) ) ;
#235 = CARTESIAN_POINT ( 'NONE',  ( 0.3449999999999999178, 2.988719346677218878E-18, -0.01930949101011137856 ) ) ;
#236 = FACE_BOUND ( 'NONE', #167, .T. ) ;
#237 = DIRECTION ( 'NONE',  ( 1.000000000000000000, -0.000000000000000000, -0.000000000000000000 ) ) ;
#238 = DIRECTION ( 'NONE',  ( 0.000000000000000000, 0.000000000000000000, -1.000000000000000000 ) ) ;
#239 = DIRECTION ( 'NONE',  ( 1.000000000000000000, -0.000000000000000000, -0.000000000000000000 ) ) ;
#240 = DIRECTION ( 'NONE',  ( 1.000000000000000000, -0.000000000000000000, -0.000000000000000000 ) ) ;
#241 = COLOUR_RGB ( '',1.000000000000000000, 0.8588235294117646523, 0.5568627450980392357 ) ;
#242 = AXIS2_PLACEMENT_3D ( 'NONE', #110, #96, #274 ) ;
#243 = AXIS2_PLACEMENT_3D ( 'NONE', #55, #311, #65 ) ;
#244 = CIRCLE ( 'NONE', #351, 0.03899999999999993056 ) ;
#245 = VERTEX_POINT ( 'NONE', #118 ) ;
#246 =( GEOMETRIC_REPRESENTATION_CONTEXT ( 3 ) GLOBAL_UNCERTAINTY_ASSIGNED_CONTEXT ( ( #127 ) ) GLOBAL_UNIT_ASSIGNED_CONTEXT ( ( #255, #85, #341 ) ) REPRESENTATION_CONTEXT ( 'NONE', 'WORKASPACE' ) );
#247 = ORIENTED_EDGE ( 'NONE', *, *, #292, .F. ) ;
#248 = EDGE_CURVE ( 'NONE', #279, #163, #202, .T. ) ;
#249 = APPLICATION_CONTEXT ( 'automotive_design' ) ;
#250 = VERTEX_POINT ( 'NONE', #9 ) ;
#251 = CARTESIAN_POINT ( 'NONE',  ( 0.3449999999999999178, 4.776122516674669243E-18, 0.03899999999999993056 ) ) ;
#252 = AXIS2_PLACEMENT_3D ( 'NONE', #308, #237, #213 ) ;
#253 = EDGE_CURVE ( 'NONE', #220, #18, #158, .T. ) ;
#254 = CLOSED_SHELL ( 'NONE', ( #102, #97, #345, #186, #41, #172, #294, #231, #88, #43, #73, #51 ) ) ;
#255 =( CONVERSION_BASED_UNIT ( 'INCH', #12 ) LENGTH_UNIT ( ) NAMED_UNIT ( #174 ) );
#256 = CARTESIAN_POINT ( 'NONE',  ( 0.000000000000000000, 0.000000000000000000, 0.000000000000000000 ) ) ;
#257 = EDGE_LOOP ( 'NONE', ( #348, #37, #192, #103 ) ) ;
#258 = DIRECTION ( 'NONE',  ( -0.8910065241883675657, 0.000000000000000000, 0.4539904997395474706 ) ) ;
#259 = DIRECTION ( 'NONE',  ( -1.000000000000000000, 0.000000000000000000, 0.000000000000000000 ) ) ;
#260 = VECTOR ( 'NONE', #182, 39.37007874015748143 ) ;
#261 = CARTESIAN_POINT ( 'NONE',  ( 0.000000000000000000, 0.000000000000000000, 0.000000000000000000 ) ) ;
#262 = DIRECTION ( 'NONE',  ( 1.000000000000000000, -0.000000000000000000, -0.000000000000000000 ) ) ;
#263 = EDGE_CURVE ( 'NONE', #245, #165, #16, .T. ) ;
#264 = EDGE_LOOP ( 'NONE', ( #135, #326 ) ) ;
#265 = FACE_OUTER_BOUND ( 'NONE', #78, .T. ) ;
#266 = CARTESIAN_POINT ( 'NONE',  ( 0.3449999999999999178, 0.000000000000000000, -0.01949999999999997569 ) ) ;
#267 = EDGE_CURVE ( 'NONE', #220, #169, #184, .T. ) ;
#268 = CONICAL_SURFACE ( 'NONE', #69, 0.01930949101011137856, 0.4712388980384697446 ) ;
#269 = VECTOR ( 'NONE', #123, 39.37007874015748143 ) ;
#270 = CARTESIAN_POINT ( 'NONE',  ( 0.3449999999999999178, 0.000000000000000000, 0.000000000000000000 ) ) ;
#271 = VERTEX_POINT ( 'NONE', #339 ) ;
#272 = DIRECTION ( 'NONE',  ( 0.000000000000000000, 0.000000000000000000, -1.000000000000000000 ) ) ;
#273 = ORIENTED_EDGE ( 'NONE', *, *, #159, .T. ) ;
#274 = DIRECTION ( 'NONE',  ( 1.000000000000000000, 0.000000000000000000, 0.000000000000000000 ) ) ;
#275 = CARTESIAN_POINT ( 'NONE',  ( 0.3449999999999999178, 0.000000000000000000, 0.000000000000000000 ) ) ;
#276 =( CONVERSION_BASED_UNIT ( 'INCH', #50 ) LENGTH_UNIT ( ) NAMED_UNIT ( #83 ) );
#277 = FILL_AREA_STYLE_COLOUR ( '', #241 ) ;
#278 =( NAMED_UNIT ( * ) PLANE_ANGLE_UNIT ( ) SI_UNIT ( $, .RADIAN. ) );
#279 = VERTEX_POINT ( 'NONE', #212 ) ;
#280 = SURFACE_STYLE_FILL_AREA ( #56 ) ;
#281 = ORIENTED_EDGE ( 'NONE', *, *, #267, .T. ) ;
#282 = EDGE_CURVE ( 'NONE', #165, #245, #295, .T. ) ;
#283 = LINE ( 'NONE', #34, #204 ) ;
#284 = DIRECTION ( 'NONE',  ( 0.000000000000000000, 0.000000000000000000, 1.000000000000000000 ) ) ;
#285 = AXIS2_PLACEMENT_3D ( 'NONE', #13, #23, #302 ) ;
#286 = ORIENTED_EDGE ( 'NONE', *, *, #263, .T. ) ;
#287 = STYLED_ITEM ( 'NONE', ( #289 ), #27 ) ;
#288 = CARTESIAN_POINT ( 'NONE',  ( 0.08899999999999999578, 0.000000000000000000, 0.000000000000000000 ) ) ;
#289 = PRESENTATION_STYLE_ASSIGNMENT (( #147 ) ) ;
#290 = DIRECTION ( 'NONE',  ( -1.000000000000000000, 0.000000000000000000, 0.000000000000000000 ) ) ;
#291 = DIRECTION ( 'NONE',  ( 0.000000000000000000, 0.000000000000000000, -1.000000000000000000 ) ) ;
#292 = EDGE_CURVE ( 'NONE', #18, #72, #53, .T. ) ;
#293 = CIRCLE ( 'NONE', #109, 0.02949999999999996722 ) ;
#294 = ADVANCED_FACE ( 'NONE', ( #236, #112 ), #330, .T. ) ;
#295 = CIRCLE ( 'NONE', #150, 0.01930949101011137856 ) ;
#296 = VERTEX_POINT ( 'NONE', #168 ) ;
#297 = EDGE_CURVE ( 'NONE', #163, #279, #134, .T. ) ;
#298 = EDGE_LOOP ( 'NONE', ( #176, #219 ) ) ;
#299 = ORIENTED_EDGE ( 'NONE', *, *, #310, .F. ) ;
#300 = AXIS2_PLACEMENT_3D ( 'NONE', #256, #306, #327 ) ;
#301 = CARTESIAN_POINT ( 'NONE',  ( 0.3449999999999999178, 2.388061258337335777E-18, 0.01949999999999997569 ) ) ;
#302 = DIRECTION ( 'NONE',  ( 0.000000000000000000, 0.000000000000000000, -1.000000000000000000 ) ) ;
#303 = ORIENTED_EDGE ( 'NONE', *, *, #157, .T. ) ;
#304 = CARTESIAN_POINT ( 'NONE',  ( 0.05900000000000000383, 0.000000000000000000, 0.000000000000000000 ) ) ;
#305 = LINE ( 'NONE', #33, #68 ) ;
#306 = DIRECTION ( 'NONE',  ( 1.000000000000000000, -0.000000000000000000, -0.000000000000000000 ) ) ;
#307 = DIMENSIONAL_EXPONENTS ( 1.000000000000000000, 0.000000000000000000, 0.000000000000000000, 0.000000000000000000, 0.000000000000000000, 0.000000000000000000, 0.000000000000000000 ) ;
#308 = CARTESIAN_POINT ( 'NONE',  ( 0.3449999999999999178, 0.000000000000000000, 0.000000000000000000 ) ) ;
#309 = FILL_AREA_STYLE_COLOUR ( '', #95 ) ;
#310 = EDGE_CURVE ( 'NONE', #18, #220, #334, .T. ) ;
#311 = DIRECTION ( 'NONE',  ( 1.000000000000000000, -0.000000000000000000, -0.000000000000000000 ) ) ;
#312 = FACE_OUTER_BOUND ( 'NONE', #19, .T. ) ;
#313 = FILL_AREA_STYLE ('',( #277 ) ) ;
#314 = CARTESIAN_POINT ( 'NONE',  ( 0.08899999999999999578, 0.000000000000000000, -0.02949999999999996722 ) ) ;
#315 = DIRECTION ( 'NONE',  ( 1.000000000000000000, -0.000000000000000000, -0.000000000000000000 ) ) ;
#316 = CARTESIAN_POINT ( 'NONE',  ( 0.05900000000000000383, 0.000000000000000000, -0.03899999999999993056 ) ) ;
#317 = LINE ( 'NONE', #151, #269 ) ;
#318 = VECTOR ( 'NONE', #106, 39.37007874015748143 ) ;
#319 = EDGE_CURVE ( 'NONE', #165, #250, #91, .T. ) ;
#320 = ORIENTED_EDGE ( 'NONE', *, *, #145, .T. ) ;
#321 = FACE_OUTER_BOUND ( 'NONE', #352, .T. ) ;
#322 = EDGE_LOOP ( 'NONE', ( #42, #149, #139, #3 ) ) ;
#323 = VECTOR ( 'NONE', #315, 39.37007874015748143 ) ;
#324 = FACE_OUTER_BOUND ( 'NONE', #349, .T. ) ;
#325 = CARTESIAN_POINT ( 'NONE',  ( 0.08899999999999999578, 0.03899999999999993056, 0.000000000000000000 ) ) ;
#326 = ORIENTED_EDGE ( 'NONE', *, *, #17, .F. ) ;
#327 = DIRECTION ( 'NONE',  ( 0.000000000000000000, 0.000000000000000000, -1.000000000000000000 ) ) ;
#328 = PRODUCT_DEFINITION_SHAPE ( 'NONE', 'NONE',  #195 ) ;
#329 = ORIENTED_EDGE ( 'NONE', *, *, #132, .F. ) ;
#330 = PLANE ( 'NONE',  #36 ) ;
#331 = UNCERTAINTY_MEASURE_WITH_UNIT (LENGTH_MEASURE( 1.000000000000000082E-05 ), #11, 'distance_accuracy_value', 'NONE');
#332 = DIRECTION ( 'NONE',  ( -1.000000000000000000, 0.000000000000000000, 0.000000000000000000 ) ) ;
#333 = EDGE_CURVE ( 'NONE', #271, #353, #98, .T. ) ;
#334 = CIRCLE ( 'NONE', #185, 0.03899999999999993056 ) ;
#335 = CYLINDRICAL_SURFACE ( 'NONE', #141, 0.01949999999999997569 ) ;
#336 = CARTESIAN_POINT ( 'NONE',  ( 0.08899999999999999578, 0.000000000000000000, 0.000000000000000000 ) ) ;
#337 = FACE_OUTER_BOUND ( 'NONE', #74, .T. ) ;
#338 = CARTESIAN_POINT ( 'NONE',  ( 0.05900000000000000383, 0.000000000000000000, 0.000000000000000000 ) ) ;
#339 = CARTESIAN_POINT ( 'NONE',  ( 0.000000000000000000, 0.000000000000000000, -0.01949999999999999997 ) ) ;
#340 = PRODUCT_CONTEXT ( 'NONE', #116, 'mechanical' ) ;
#341 =( NAMED_UNIT ( * ) SI_UNIT ( $, .STERADIAN. ) SOLID_ANGLE_UNIT ( ) );
#342 = DIRECTION ( 'NONE',  ( 1.000000000000000000, -0.000000000000000000, -0.000000000000000000 ) ) ;
#343 =( NAMED_UNIT ( * ) PLANE_ANGLE_UNIT ( ) SI_UNIT ( $, .RADIAN. ) );
#344 = CIRCLE ( 'NONE', #243, 0.03899999999999993056 ) ;
#345 = ADVANCED_FACE ( 'NONE', ( #87 ), #25, .T. ) ;
#346 = CONICAL_SURFACE ( 'NONE', #126, 0.01930949101011137856, 0.4712388980384697446 ) ;
#347 = EDGE_CURVE ( 'NONE', #169, #72, #244, .T. ) ;
#348 = ORIENTED_EDGE ( 'NONE', *, *, #297, .T. ) ;
#349 = EDGE_LOOP ( 'NONE', ( #100, #108, #320, #24 ) ) ;
#350 = AXIS2_PLACEMENT_3D ( 'NONE', #155, #93, #138 ) ;
#351 = AXIS2_PLACEMENT_3D ( 'NONE', #234, #229, #79 ) ;
#352 = EDGE_LOOP ( 'NONE', ( #196, #133, #329, #191 ) ) ;
#353 = VERTEX_POINT ( 'NONE', #171 ) ;
#354 = DIRECTION ( 'NONE',  ( 0.000000000000000000, 0.000000000000000000, -1.000000000000000000 ) ) ;
#355 = ORIENTED_EDGE ( 'NONE', *, *, #310, .T. ) ;
#356 = SHAPE_DEFINITION_REPRESENTATION ( #328, #27 ) ;
#357 = MECHANICAL_DESIGN_GEOMETRIC_PRESENTATION_REPRESENTATION (  '', ( #84 ), #246 ) ;
#358 = DIRECTION ( 'NONE',  ( 1.000000000000000000, -0.000000000000000000, -0.000000000000000000 ) ) ;
#359 = FACE_OUTER_BOUND ( 'NONE', #257, .T. ) ;
ENDSEC;
END-ISO-10303-21;
