ISO-10303-21;
HEADER;
FILE_DESCRIPTION (( 'STEP AP214' ),
    '1' );
FILE_NAME ('DIN912 - M3X5.STEP',
    '2023-12-01T08:51:54',
    ( '' ),
    ( '' ),
    'SwSTEP 2.0',
    'SolidWorks 2023',
    '' );
FILE_SCHEMA (( 'AUTOMOTIVE_DESIGN' ));
ENDSEC;

DATA;
#1 = CARTESIAN_POINT ( 'NONE',  ( 3.122849337825752885E-16, 7.800000000000001599, 2.550000000000001599 ) ) ;
#2 = DIRECTION ( 'NONE',  ( -0.000000000000000000, 1.000000000000000000, 0.000000000000000000 ) ) ;
#3 = CARTESIAN_POINT ( 'NONE',  ( 0.000000000000000000, 6.700000000000001066, 0.000000000000000000 ) ) ;
#4 = LINE ( 'NONE', #208, #608 ) ;
#5 = CONICAL_SURFACE ( 'NONE', #194, 1.250000000000000000, 1.047197551196600518 ) ;
#6 = ADVANCED_FACE ( 'NONE', ( #541 ), #40, .T. ) ;
#7 = ORIENTED_EDGE ( 'NONE', *, *, #336, .T. ) ;
#8 = DIRECTION ( 'NONE',  ( -0.000000000000000000, -1.000000000000000000, -0.000000000000000000 ) ) ;
#9 = AXIS2_PLACEMENT_3D ( 'NONE', #337, #594, #80 ) ;
#10 = CARTESIAN_POINT ( 'NONE',  ( 0.000000000000000000, -1.236763205099629010E-15, 0.000000000000000000 ) ) ;
#11 = VECTOR ( 'NONE', #280, 1000.000000000000000 ) ;
#12 = DIRECTION ( 'NONE',  ( -0.000000000000000000, -1.000000000000000000, -0.000000000000000000 ) ) ;
#13 = ORIENTED_EDGE ( 'NONE', *, *, #363, .F. ) ;
#14 = LINE ( 'NONE', #430, #418 ) ;
#15 = LINE ( 'NONE', #579, #459 ) ;
#16 = EDGE_CURVE ( 'NONE', #538, #204, #440, .T. ) ;
#17 = EDGE_LOOP ( 'NONE', ( #317, #483, #90, #553, #498, #480 ) ) ;
#18 = CARTESIAN_POINT ( 'NONE',  ( -2.106761186056140612E-16, 6.700000000000000178, 1.443375672974064550 ) ) ;
#19 = DIRECTION ( 'NONE',  ( -1.502314598737158538E-16, 0.000000000000000000, -1.000000000000000000 ) ) ;
#20 = ORIENTED_EDGE ( 'NONE', *, *, #196, .F. ) ;
#21 = CARTESIAN_POINT ( 'NONE',  ( -0.6250000000000003331, 6.700000000000000178, -1.082531754730548856 ) ) ;
#22 = PLANE ( 'NONE',  #117 ) ;
#23 = VECTOR ( 'NONE', #228, 1000.000000000000000 ) ;
#24 = ORIENTED_EDGE ( 'NONE', *, *, #525, .F. ) ;
#25 = VECTOR ( 'NONE', #510, 1000.000000000000114 ) ;
#26 = PRODUCT_CONTEXT ( 'NONE', #511, 'mechanical' ) ;
#27 = CARTESIAN_POINT ( 'NONE',  ( 0.000000000000000000, 5.000000000000000888, 0.000000000000000000 ) ) ;
#28 = VERTEX_POINT ( 'NONE', #606 ) ;
#29 = ADVANCED_FACE ( 'NONE', ( #156 ), #101, .T. ) ;
#30 = AXIS2_PLACEMENT_3D ( 'NONE', #31, #84, #137 ) ;
#31 = CARTESIAN_POINT ( 'NONE',  ( 0.000000000000000000, 6.700000000000001066, 0.000000000000000000 ) ) ;
#32 = EDGE_LOOP ( 'NONE', ( #569, #423 ) ) ;
#33 = AXIS2_PLACEMENT_3D ( 'NONE', #151, #250, #516 ) ;
#34 = DIRECTION ( 'NONE',  ( 0.000000000000000000, -1.000000000000000000, -0.000000000000000000 ) ) ;
#35 = ADVANCED_FACE ( 'NONE', ( #46, #254 ), #307, .T. ) ;
#36 = VECTOR ( 'NONE', #303, 1000.000000000000000 ) ;
#37 = ORIENTED_EDGE ( 'NONE', *, *, #245, .T. ) ;
#38 = ORIENTED_EDGE ( 'NONE', *, *, #571, .T. ) ;
#39 = FACE_OUTER_BOUND ( 'NONE', #338, .T. ) ;
#40 = PLANE ( 'NONE',  #486 ) ;
#41 = DIRECTION ( 'NONE',  ( -0.000000000000000000, -1.000000000000000000, -0.000000000000000000 ) ) ;
#42 = ORIENTED_EDGE ( 'NONE', *, *, #542, .F. ) ;
#43 = AXIS2_PLACEMENT_3D ( 'NONE', #555, #405, #605 ) ;
#44 = ADVANCED_FACE ( 'NONE', ( #309 ), #412, .T. ) ;
#45 = CARTESIAN_POINT ( 'NONE',  ( 1.249999999999999778, 6.700000000000000178, 0.7216878364870319418 ) ) ;
#46 = FACE_BOUND ( 'NONE', #17, .T. ) ;
#47 = DIRECTION ( 'NONE',  ( 0.000000000000000000, 0.000000000000000000, -1.000000000000000000 ) ) ;
#48 = FACE_OUTER_BOUND ( 'NONE', #488, .T. ) ;
#49 = CARTESIAN_POINT ( 'NONE',  ( 0.000000000000000000, 7.800000000000001599, 0.000000000000000000 ) ) ;
#50 = CARTESIAN_POINT ( 'NONE',  ( 1.562500000000000000, 8.000000000000000000, 0.5412658773652737620 ) ) ;
#51 = ORIENTED_EDGE ( 'NONE', *, *, #314, .F. ) ;
#52 = LINE ( 'NONE', #94, #77 ) ;
#53 = DIRECTION ( 'NONE',  ( 0.000000000000000000, -0.000000000000000000, 1.000000000000000000 ) ) ;
#54 = ORIENTED_EDGE ( 'NONE', *, *, #223, .T. ) ;
#55 = DIRECTION ( 'NONE',  ( -0.000000000000000000, 1.000000000000000000, -0.000000000000000000 ) ) ;
#56 = CARTESIAN_POINT ( 'NONE',  ( 0.000000000000000000, 6.700000000000000178, 0.000000000000000000 ) ) ;
#57 = AXIS2_PLACEMENT_3D ( 'NONE', #320, #629, #218 ) ;
#58 = ORIENTED_EDGE ( 'NONE', *, *, #83, .T. ) ;
#59 = CARTESIAN_POINT ( 'NONE',  ( 3.367778697655222491E-16, 7.800000000000001599, 2.750000000000001332 ) ) ;
#60 = STYLED_ITEM ( 'NONE', ( #187 ), #346 ) ;
#61 = DIRECTION ( 'NONE',  ( 0.000000000000000000, 0.000000000000000000, -1.000000000000000000 ) ) ;
#62 = ORIENTED_EDGE ( 'NONE', *, *, #644, .F. ) ;
#63 = AXIS2_PLACEMENT_3D ( 'NONE', #274, #115, #285 ) ;
#64 = ADVANCED_FACE ( 'NONE', ( #616 ), #568, .F. ) ;
#65 = DIRECTION ( 'NONE',  ( 0.8660254037844384856, 0.000000000000000000, -0.5000000000000002220 ) ) ;
#66 = EDGE_CURVE ( 'NONE', #180, #641, #313, .T. ) ;
#67 = CARTESIAN_POINT ( 'NONE',  ( 1.836970198721035850E-16, -1.236763205099629010E-15, 1.500000000000004885 ) ) ;
#68 = ORIENTED_EDGE ( 'NONE', *, *, #198, .T. ) ;
#69 = CARTESIAN_POINT ( 'NONE',  ( 2.212327359402420786E-16, 8.000000000000000000, -1.443375672974065216 ) ) ;
#70 = DIRECTION ( 'NONE',  ( -0.000000000000000000, -1.000000000000000000, -0.000000000000000000 ) ) ;
#71 = ORIENTED_EDGE ( 'NONE', *, *, #134, .F. ) ;
#72 = CARTESIAN_POINT ( 'NONE',  ( 0.000000000000000000, 6.700000000000001066, 0.000000000000000000 ) ) ;
#73 = ORIENTED_EDGE ( 'NONE', *, *, #453, .T. ) ;
#74 = DIRECTION ( 'NONE',  ( 1.000000000000000000, 0.000000000000000000, 0.000000000000000000 ) ) ;
#75 = EDGE_CURVE ( 'NONE', #278, #595, #556, .T. ) ;
#76 = CARTESIAN_POINT ( 'NONE',  ( -1.250000000000000222, 6.700000000000000178, 0.7216878364870321638 ) ) ;
#77 = VECTOR ( 'NONE', #408, 1000.000000000000000 ) ;
#78 = ORIENTED_EDGE ( 'NONE', *, *, #525, .T. ) ;
#79 = VECTOR ( 'NONE', #406, 1000.000000000000114 ) ;
#80 = DIRECTION ( 'NONE',  ( 0.000000000000000000, -0.000000000000000000, 1.000000000000000000 ) ) ;
#81 = ORIENTED_EDGE ( 'NONE', *, *, #222, .T. ) ;
#82 = ADVANCED_FACE ( 'NONE', ( #48, #517 ), #159, .T. ) ;
#83 = EDGE_CURVE ( 'NONE', #419, #263, #153, .T. ) ;
#84 = DIRECTION ( 'NONE',  ( -0.000000000000000000, -1.000000000000000000, -0.000000000000000000 ) ) ;
#85 = EDGE_CURVE ( 'NONE', #595, #86, #603, .T. ) ;
#86 = VERTEX_POINT ( 'NONE', #104 ) ;
#87 = PLANE ( 'NONE',  #381 ) ;
#88 = CIRCLE ( 'NONE', #472, 1.250000000000000000 ) ;
#89 = ORIENTED_EDGE ( 'NONE', *, *, #514, .T. ) ;
#90 = ORIENTED_EDGE ( 'NONE', *, *, #442, .F. ) ;
#91 = CIRCLE ( 'NONE', #177, 1.500000000000001998 ) ;
#92 = ORIENTED_EDGE ( 'NONE', *, *, #560, .F. ) ;
#93 = TOROIDAL_SURFACE ( 'NONE', #604, 2.550000000000001599, 0.1999999999999996503 ) ;
#94 = CARTESIAN_POINT ( 'NONE',  ( 0.000000000000000000, 6.700000000000001066, 1.250000000000000000 ) ) ;
#95 = ADVANCED_FACE ( 'NONE', ( #468 ), #562, .T. ) ;
#96 = CARTESIAN_POINT ( 'NONE',  ( 1.249999999999999556, 6.700000000000000178, -0.7216878364870333851 ) ) ;
#97 = CARTESIAN_POINT ( 'NONE',  ( 0.000000000000000000, 5.000000000000000888, -1.500000000000001998 ) ) ;
#98 = DIRECTION ( 'NONE',  ( -0.8660254037844385966, 0.000000000000000000, -0.4999999999999998890 ) ) ;
#99 = EDGE_CURVE ( 'NONE', #199, #477, #212, .T. ) ;
#100 = DIRECTION ( 'NONE',  ( 0.000000000000000000, 0.000000000000000000, -1.000000000000000000 ) ) ;
#101 = PLANE ( 'NONE',  #518 ) ;
#102 = ORIENTED_EDGE ( 'NONE', *, *, #305, .F. ) ;
#103 = DIRECTION ( 'NONE',  ( -0.000000000000000000, -1.000000000000000000, -0.000000000000000000 ) ) ;
#104 = CARTESIAN_POINT ( 'NONE',  ( -1.250000000000000222, 6.700000000000000178, -0.7216878364870326079 ) ) ;
#105 = AXIS2_PLACEMENT_3D ( 'NONE', #377, #369, #319 ) ;
#106 = DIRECTION ( 'NONE',  ( 0.000000000000000000, -0.000000000000000000, 1.000000000000000000 ) ) ;
#107 = VECTOR ( 'NONE', #513, 1000.000000000000000 ) ;
#108 = CARTESIAN_POINT ( 'NONE',  ( 1.249999999999999556, 6.700000000000000178, -0.7216878364870333851 ) ) ;
#109 = ORIENTED_EDGE ( 'NONE', *, *, #503, .F. ) ;
#110 = LINE ( 'NONE', #481, #505 ) ;
#111 = LINE ( 'NONE', #421, #348 ) ;
#112 = TOROIDAL_SURFACE ( 'NONE', #552, 2.550000000000001599, 0.1999999999999996503 ) ;
#113 = EDGE_CURVE ( 'NONE', #330, #582, #507, .T. ) ;
#114 = LINE ( 'NONE', #523, #397 ) ;
#115 = DIRECTION ( 'NONE',  ( -0.000000000000000000, -1.000000000000000000, -0.000000000000000000 ) ) ;
#116 = ORIENTED_EDGE ( 'NONE', *, *, #571, .F. ) ;
#117 = AXIS2_PLACEMENT_3D ( 'NONE', #118, #374, #537 ) ;
#118 = CARTESIAN_POINT ( 'NONE',  ( 0.000000000000000000, 6.700000000000000178, 0.000000000000000000 ) ) ;
#119 = ORIENTED_EDGE ( 'NONE', *, *, #222, .F. ) ;
#120 = CARTESIAN_POINT ( 'NONE',  ( 0.000000000000000000, 6.700000000000001066, 0.000000000000000000 ) ) ;
#121 = EDGE_LOOP ( 'NONE', ( #343, #589, #138, #126, #193 ) ) ;
#122 = ADVANCED_FACE ( 'NONE', ( #614 ), #258, .T. ) ;
#123 = CARTESIAN_POINT ( 'NONE',  ( -2.106761186056140612E-16, 6.700000000000000178, 1.443375672974064550 ) ) ;
#124 = FACE_OUTER_BOUND ( 'NONE', #600, .T. ) ;
#125 = AXIS2_PLACEMENT_3D ( 'NONE', #411, #252, #100 ) ;
#126 = ORIENTED_EDGE ( 'NONE', *, *, #590, .F. ) ;
#127 = CARTESIAN_POINT ( 'NONE',  ( 1.249999999999999778, 6.700000000000000178, 0.7216878364870319418 ) ) ;
#128 = VECTOR ( 'NONE', #65, 1000.000000000000114 ) ;
#129 = ORIENTED_EDGE ( 'NONE', *, *, #609, .F. ) ;
#130 = UNCERTAINTY_MEASURE_WITH_UNIT (LENGTH_MEASURE( 1.000000000000000082E-05 ), #220, 'distance_accuracy_value', 'NONE');
#131 = DIRECTION ( 'NONE',  ( -0.5000000000000001110, 0.000000000000000000, 0.8660254037844385966 ) ) ;
#132 = VERTEX_POINT ( 'NONE', #262 ) ;
#133 = EDGE_CURVE ( 'NONE', #448, #477, #4, .T. ) ;
#134 = EDGE_CURVE ( 'NONE', #536, #330, #350, .T. ) ;
#135 = FILL_AREA_STYLE_COLOUR ( '', #653 ) ;
#136 = ORIENTED_EDGE ( 'NONE', *, *, #16, .T. ) ;
#137 = DIRECTION ( 'NONE',  ( 0.000000000000000000, 0.000000000000000000, -1.000000000000000000 ) ) ;
#138 = ORIENTED_EDGE ( 'NONE', *, *, #83, .F. ) ;
#139 = SURFACE_SIDE_STYLE ('',( #294 ) ) ;
#140 = DIRECTION ( 'NONE',  ( -0.000000000000000000, -1.000000000000000000, -0.000000000000000000 ) ) ;
#141 = AXIS2_PLACEMENT_3D ( 'NONE', #241, #439, #497 ) ;
#142 = EDGE_CURVE ( 'NONE', #204, #231, #441, .T. ) ;
#143 = CARTESIAN_POINT ( 'NONE',  ( 0.000000000000000000, 6.700000000000000178, 0.000000000000000000 ) ) ;
#144 = DIRECTION ( 'NONE',  ( -0.000000000000000000, 1.000000000000000000, -0.000000000000000000 ) ) ;
#145 = VECTOR ( 'NONE', #315, 1000.000000000000000 ) ;
#146 = DIRECTION ( 'NONE',  ( -0.000000000000000000, -1.000000000000000000, -0.000000000000000000 ) ) ;
#147 = VECTOR ( 'NONE', #326, 1000.000000000000000 ) ;
#148 = CARTESIAN_POINT ( 'NONE',  ( 0.000000000000000000, 6.700000000000000178, 0.000000000000000000 ) ) ;
#149 = ORIENTED_EDGE ( 'NONE', *, *, #245, .F. ) ;
#150 = ADVANCED_FACE ( 'NONE', ( #584 ), #22, .T. ) ;
#151 = CARTESIAN_POINT ( 'NONE',  ( 0.000000000000000000, 8.000000000000000000, 0.000000000000000000 ) ) ;
#152 = EDGE_CURVE ( 'NONE', #429, #278, #382, .T. ) ;
#153 = LINE ( 'NONE', #564, #107 ) ;
#154 = EDGE_LOOP ( 'NONE', ( #289, #136, #20, #219 ) ) ;
#155 = CARTESIAN_POINT ( 'NONE',  ( 0.000000000000000000, 5.978312163512973676, 0.000000000000000000 ) ) ;
#156 = FACE_OUTER_BOUND ( 'NONE', #658, .T. ) ;
#157 = ORIENTED_EDGE ( 'NONE', *, *, #196, .T. ) ;
#158 = FACE_OUTER_BOUND ( 'NONE', #362, .T. ) ;
#159 = PLANE ( 'NONE',  #400 ) ;
#160 = ORIENTED_EDGE ( 'NONE', *, *, #134, .T. ) ;
#161 = AXIS2_PLACEMENT_3D ( 'NONE', #563, #103, #311 ) ;
#162 = FACE_OUTER_BOUND ( 'NONE', #244, .T. ) ;
#163 = DIRECTION ( 'NONE',  ( -0.000000000000000000, -1.000000000000000000, -0.000000000000000000 ) ) ;
#164 = EDGE_CURVE ( 'NONE', #448, #559, #425, .T. ) ;
#165 = DIRECTION ( 'NONE',  ( 0.5000000000000003331, 0.000000000000000000, 0.8660254037844385966 ) ) ;
#166 = DIRECTION ( 'NONE',  ( 0.8660254037844384856, 0.000000000000000000, -0.5000000000000002220 ) ) ;
#167 = ORIENTED_EDGE ( 'NONE', *, *, #422, .T. ) ;
#168 = CARTESIAN_POINT ( 'NONE',  ( -1.250000000000000222, 6.700000000000000178, -0.7216878364870326079 ) ) ;
#169 = EDGE_LOOP ( 'NONE', ( #345, #651, #410, #426 ) ) ;
#170 = EDGE_CURVE ( 'NONE', #433, #641, #573, .T. ) ;
#171 = PLANE ( 'NONE',  #105 ) ;
#172 = CARTESIAN_POINT ( 'NONE',  ( 1.530808498934191571E-16, 6.700000000000001066, -1.250000000000000000 ) ) ;
#173 = ORIENTED_EDGE ( 'NONE', *, *, #287, .T. ) ;
#174 = DIRECTION ( 'NONE',  ( 0.000000000000000000, 0.000000000000000000, -1.000000000000000000 ) ) ;
#175 = LINE ( 'NONE', #331, #235 ) ;
#176 = EDGE_LOOP ( 'NONE', ( #271, #37, #465, #376 ) ) ;
#177 = AXIS2_PLACEMENT_3D ( 'NONE', #575, #473, #428 ) ;
#178 = CARTESIAN_POINT ( 'NONE',  ( 2.212327359402420786E-16, 6.700000000000000178, -1.443375672974065216 ) ) ;
#179 =( GEOMETRIC_REPRESENTATION_CONTEXT ( 3 ) GLOBAL_UNCERTAINTY_ASSIGNED_CONTEXT ( ( #543 ) ) GLOBAL_UNIT_ASSIGNED_CONTEXT ( ( #499, #395, #391 ) ) REPRESENTATION_CONTEXT ( 'NONE', 'WORKASPACE' ) );
#180 = VERTEX_POINT ( 'NONE', #67 ) ;
#181 = CIRCLE ( 'NONE', #578, 2.750000000000002220 ) ;
#182 = EDGE_LOOP ( 'NONE', ( #54, #38, #7, #234 ) ) ;
#183 = EDGE_CURVE ( 'NONE', #332, #538, #496, .T. ) ;
#184 = DIRECTION ( 'NONE',  ( 0.000000000000000000, 0.000000000000000000, -1.000000000000000000 ) ) ;
#185 = ORIENTED_EDGE ( 'NONE', *, *, #638, .F. ) ;
#186 = ORIENTED_EDGE ( 'NONE', *, *, #508, .T. ) ;
#187 = PRESENTATION_STYLE_ASSIGNMENT (( #540 ) ) ;
#188 = VERTEX_POINT ( 'NONE', #487 ) ;
#189 = VECTOR ( 'NONE', #471, 1000.000000000000000 ) ;
#190 = EDGE_CURVE ( 'NONE', #646, #448, #15, .T. ) ;
#191 = VECTOR ( 'NONE', #265, 1000.000000000000114 ) ;
#192 = DIRECTION ( 'NONE',  ( -1.502314598737158538E-16, 0.000000000000000000, -1.000000000000000000 ) ) ;
#193 = ORIENTED_EDGE ( 'NONE', *, *, #470, .T. ) ;
#194 = AXIS2_PLACEMENT_3D ( 'NONE', #120, #581, #333 ) ;
#195 = DIRECTION ( 'NONE',  ( -0.000000000000000000, 1.000000000000000000, -0.000000000000000000 ) ) ;
#196 = EDGE_CURVE ( 'NONE', #231, #204, #181, .T. ) ;
#197 = DIRECTION ( 'NONE',  ( -0.000000000000000000, -1.000000000000000000, -0.000000000000000000 ) ) ;
#198 = EDGE_CURVE ( 'NONE', #389, #433, #270, .T. ) ;
#199 = VERTEX_POINT ( 'NONE', #476 ) ;
#200 = PRODUCT_RELATED_PRODUCT_CATEGORY ( 'part', '', ( #464 ) ) ;
#201 = DIRECTION ( 'NONE',  ( 0.000000000000000000, 0.000000000000000000, -1.000000000000000000 ) ) ;
#202 = AXIS2_PLACEMENT_3D ( 'NONE', #432, #70, #623 ) ;
#203 = CARTESIAN_POINT ( 'NONE',  ( 2.750000000000002220, 5.000000000000000888, 0.000000000000000000 ) ) ;
#204 = VERTEX_POINT ( 'NONE', #277 ) ;
#205 = DIRECTION ( 'NONE',  ( 1.000000000000000000, 0.000000000000000000, -1.224646799147353207E-16 ) ) ;
#206 = DIRECTION ( 'NONE',  ( -0.000000000000000000, -1.000000000000000000, -0.000000000000000000 ) ) ;
#207 = CARTESIAN_POINT ( 'NONE',  ( 1.249999999999999556, 6.700000000000000178, -0.7216878364870333851 ) ) ;
#208 = CARTESIAN_POINT ( 'NONE',  ( 1.249999999999999778, 6.700000000000000178, 0.7216878364870319418 ) ) ;
#209 = EDGE_LOOP ( 'NONE', ( #89, #62, #415, #129, #534 ) ) ;
#210 = VECTOR ( 'NONE', #195, 1000.000000000000000 ) ;
#211 = DIRECTION ( 'NONE',  ( -0.8660254037844385966, 0.000000000000000000, -0.4999999999999998890 ) ) ;
#212 = LINE ( 'NONE', #50, #191 ) ;
#213 = PRODUCT_DEFINITION_SHAPE ( 'NONE', 'NONE',  #458 ) ;
#214 = ORIENTED_EDGE ( 'NONE', *, *, #142, .T. ) ;
#215 = APPLICATION_CONTEXT ( 'automotive_design' ) ;
#216 = ADVANCED_FACE ( 'NONE', ( #621 ), #221, .F. ) ;
#217 = CONICAL_SURFACE ( 'NONE', #43, 1.250000000000000000, 1.047197551196600518 ) ;
#218 = DIRECTION ( 'NONE',  ( 0.000000000000000000, 0.000000000000000000, -1.000000000000000000 ) ) ;
#219 = ORIENTED_EDGE ( 'NONE', *, *, #577, .F. ) ;
#220 =( LENGTH_UNIT ( ) NAMED_UNIT ( * ) SI_UNIT ( .MILLI., .METRE. ) );
#221 = PLANE ( 'NONE',  #375 ) ;
#222 = EDGE_CURVE ( 'NONE', #595, #248, #88, .T. ) ;
#223 = EDGE_CURVE ( 'NONE', #188, #282, #111, .T. ) ;
#224 = ORIENTED_EDGE ( 'NONE', *, *, #190, .F. ) ;
#225 = DIRECTION ( 'NONE',  ( 0.000000000000000000, 0.000000000000000000, 1.000000000000000000 ) ) ;
#226 = DIRECTION ( 'NONE',  ( 0.000000000000000000, 0.000000000000000000, -1.000000000000000000 ) ) ;
#227 = ORIENTED_EDGE ( 'NONE', *, *, #113, .T. ) ;
#228 = DIRECTION ( 'NONE',  ( -0.000000000000000000, 1.000000000000000000, -0.000000000000000000 ) ) ;
#229 = CARTESIAN_POINT ( 'NONE',  ( 1.249999999999999778, 6.700000000000000178, 0.7216878364870319418 ) ) ;
#230 = AXIS2_PLACEMENT_3D ( 'NONE', #611, #365, #414 ) ;
#231 = VERTEX_POINT ( 'NONE', #370 ) ;
#232 = APPLICATION_PROTOCOL_DEFINITION ( 'draft international standard', 'automotive_design', 1998, #511 ) ;
#233 = CARTESIAN_POINT ( 'NONE',  ( -2.106761186056140612E-16, 6.700000000000000178, 1.443375672974064550 ) ) ;
#234 = ORIENTED_EDGE ( 'NONE', *, *, #314, .T. ) ;
#235 = VECTOR ( 'NONE', #535, 1000.000000000000000 ) ;
#236 = EDGE_CURVE ( 'NONE', #433, #389, #91, .T. ) ;
#237 = CARTESIAN_POINT ( 'NONE',  ( 0.000000000000000000, 7.800000000000001599, -2.750000000000001332 ) ) ;
#238 = CIRCLE ( 'NONE', #301, 1.250000000000000000 ) ;
#239 = ORIENTED_EDGE ( 'NONE', *, *, #442, .T. ) ;
#240 = VECTOR ( 'NONE', #529, 1000.000000000000227 ) ;
#241 = CARTESIAN_POINT ( 'NONE',  ( 0.000000000000000000, 0.000000000000000000, 0.000000000000000000 ) ) ;
#242 = ORIENTED_EDGE ( 'NONE', *, *, #75, .F. ) ;
#243 = CARTESIAN_POINT ( 'NONE',  ( -1.250000000000000222, 6.700000000000000178, 0.7216878364870321638 ) ) ;
#244 = EDGE_LOOP ( 'NONE', ( #292, #300, #224, #116, #643 ) ) ;
#245 = EDGE_CURVE ( 'NONE', #538, #332, #522, .T. ) ;
#246 = DIRECTION ( 'NONE',  ( 0.000000000000000000, -0.000000000000000000, 1.000000000000000000 ) ) ;
#247 = LINE ( 'NONE', #413, #145 ) ;
#248 = VERTEX_POINT ( 'NONE', #172 ) ;
#249 = AXIS2_PLACEMENT_3D ( 'NONE', #268, #328, #174 ) ;
#250 = DIRECTION ( 'NONE',  ( -0.000000000000000000, -1.000000000000000000, -0.000000000000000000 ) ) ;
#251 = CARTESIAN_POINT ( 'NONE',  ( 1.250000000000000000, 8.000000000000000000, 0.000000000000000000 ) ) ;
#252 = DIRECTION ( 'NONE',  ( -0.000000000000000000, -1.000000000000000000, -0.000000000000000000 ) ) ;
#253 = ADVANCED_FACE ( 'NONE', ( #378 ), #5, .F. ) ;
#254 = FACE_OUTER_BOUND ( 'NONE', #451, .T. ) ;
#255 = EDGE_CURVE ( 'NONE', #637, #407, #175, .T. ) ;
#256 = ORIENTED_EDGE ( 'NONE', *, *, #85, .T. ) ;
#257 = CARTESIAN_POINT ( 'NONE',  ( 0.000000000000000000, 8.000000000000000000, 0.000000000000000000 ) ) ;
#258 = CYLINDRICAL_SURFACE ( 'NONE', #528, 2.750000000000001776 ) ;
#259 = EDGE_LOOP ( 'NONE', ( #58, #593, #495 ) ) ;
#260 = AXIS2_PLACEMENT_3D ( 'NONE', #251, #657, #457 ) ;
#261 = CARTESIAN_POINT ( 'NONE',  ( -1.250000000000000222, 6.700000000000000178, 0.000000000000000000 ) ) ;
#262 = CARTESIAN_POINT ( 'NONE',  ( 0.000000000000000000, 6.700000000000001066, 1.250000000000000000 ) ) ;
#263 = VERTEX_POINT ( 'NONE', #76 ) ;
#264 = FACE_OUTER_BOUND ( 'NONE', #580, .T. ) ;
#265 = DIRECTION ( 'NONE',  ( 0.8660254037844384856, 0.000000000000000000, -0.5000000000000002220 ) ) ;
#266 = EDGE_CURVE ( 'NONE', #188, #419, #435, .T. ) ;
#267 = PRESENTATION_LAYER_ASSIGNMENT (  '', '', ( #60 ) ) ;
#268 = CARTESIAN_POINT ( 'NONE',  ( 0.000000000000000000, 6.700000000000001066, 0.000000000000000000 ) ) ;
#269 = DIRECTION ( 'NONE',  ( 0.8660254037844385966, 0.000000000000000000, 0.5000000000000001110 ) ) ;
#270 = CIRCLE ( 'NONE', #659, 1.500000000000001998 ) ;
#271 = ORIENTED_EDGE ( 'NONE', *, *, #16, .F. ) ;
#272 = LINE ( 'NONE', #583, #189 ) ;
#273 = ADVANCED_FACE ( 'NONE', ( #124 ), #87, .T. ) ;
#274 = CARTESIAN_POINT ( 'NONE',  ( 0.000000000000000000, 5.000000000000000888, 0.000000000000000000 ) ) ;
#275 = ORIENTED_EDGE ( 'NONE', *, *, #618, .F. ) ;
#276 = LINE ( 'NONE', #631, #591 ) ;
#277 = CARTESIAN_POINT ( 'NONE',  ( 3.367778697655223970E-16, 5.000000000000000888, 2.750000000000002220 ) ) ;
#278 = VERTEX_POINT ( 'NONE', #178 ) ;
#279 = AXIS2_PLACEMENT_3D ( 'NONE', #485, #635, #74 ) ;
#280 = DIRECTION ( 'NONE',  ( 1.060575238724908640E-16, 0.4999999999999976130, -0.8660254037844400399 ) ) ;
#281 = DIRECTION ( 'NONE',  ( -0.000000000000000000, -1.000000000000000000, -0.000000000000000000 ) ) ;
#282 = VERTEX_POINT ( 'NONE', #233 ) ;
#283 = VECTOR ( 'NONE', #512, 1000.000000000000000 ) ;
#284 = PRODUCT_DEFINITION_CONTEXT ( 'detailed design', #215, 'design' ) ;
#285 = DIRECTION ( 'NONE',  ( 0.000000000000000000, 0.000000000000000000, -1.000000000000000000 ) ) ;
#286 = ORIENTED_EDGE ( 'NONE', *, *, #560, .T. ) ;
#287 = EDGE_CURVE ( 'NONE', #582, #637, #339, .T. ) ;
#288 = CARTESIAN_POINT ( 'NONE',  ( 3.245314017740487934E-16, 8.000000000000000000, 2.550000000000001599 ) ) ;
#289 = ORIENTED_EDGE ( 'NONE', *, *, #183, .T. ) ;
#290 = CIRCLE ( 'NONE', #489, 1.250000000000000000 ) ;
#291 = DIRECTION ( 'NONE',  ( -0.8660254037844385966, 0.000000000000000000, 0.4999999999999999445 ) ) ;
#292 = ORIENTED_EDGE ( 'NONE', *, *, #99, .T. ) ;
#293 = VECTOR ( 'NONE', #19, 1000.000000000000000 ) ;
#294 = SURFACE_STYLE_FILL_AREA ( #546 ) ;
#295 = ADVANCED_FACE ( 'NONE', ( #388 ), #596, .F. ) ;
#296 = EDGE_LOOP ( 'NONE', ( #239, #71, #102, #308, #396 ) ) ;
#297 = DIRECTION ( 'NONE',  ( 1.000000000000000000, 0.000000000000000000, -1.502314598737158538E-16 ) ) ;
#298 = DIRECTION ( 'NONE',  ( -0.000000000000000000, 1.000000000000000000, 0.000000000000000000 ) ) ;
#299 = CARTESIAN_POINT ( 'NONE',  ( 1.249999999999999556, 8.000000000000000000, -0.7216878364870333851 ) ) ;
#300 = ORIENTED_EDGE ( 'NONE', *, *, #133, .F. ) ;
#301 = AXIS2_PLACEMENT_3D ( 'NONE', #3, #146, #353 ) ;
#302 = PLANE ( 'NONE',  #586 ) ;
#303 = DIRECTION ( 'NONE',  ( -0.000000000000000000, 1.000000000000000000, -0.000000000000000000 ) ) ;
#304 = AXIS2_PLACEMENT_3D ( 'NONE', #257, #506, #47 ) ;
#305 = EDGE_CURVE ( 'NONE', #559, #536, #342, .T. ) ;
#306 = CARTESIAN_POINT ( 'NONE',  ( 1.249999999999999778, 8.000000000000000000, 0.7216878364870319418 ) ) ;
#307 = PLANE ( 'NONE',  #260 ) ;
#308 = ORIENTED_EDGE ( 'NONE', *, *, #164, .F. ) ;
#309 = FACE_OUTER_BOUND ( 'NONE', #169, .T. ) ;
#310 = ORIENTED_EDGE ( 'NONE', *, *, #152, .T. ) ;
#311 = DIRECTION ( 'NONE',  ( 0.000000000000000000, 0.000000000000000000, -1.000000000000000000 ) ) ;
#312 = DIRECTION ( 'NONE',  ( 0.000000000000000000, 0.000000000000000000, -1.000000000000000000 ) ) ;
#313 = CIRCLE ( 'NONE', #598, 1.500000000000004885 ) ;
#314 = EDGE_CURVE ( 'NONE', #132, #188, #404, .T. ) ;
#315 = DIRECTION ( 'NONE',  ( -0.000000000000000000, 1.000000000000000000, -0.000000000000000000 ) ) ;
#316 = DIRECTION ( 'NONE',  ( 0.000000000000000000, -1.000000000000000000, -0.000000000000000000 ) ) ;
#317 = ORIENTED_EDGE ( 'NONE', *, *, #287, .F. ) ;
#318 = AXIS2_PLACEMENT_3D ( 'NONE', #243, #131, #588 ) ;
#319 = DIRECTION ( 'NONE',  ( -0.8660254037844385966, 0.000000000000000000, 0.4999999999999999445 ) ) ;
#320 = CARTESIAN_POINT ( 'NONE',  ( 0.000000000000000000, 7.800000000000001599, 0.000000000000000000 ) ) ;
#321 = EDGE_LOOP ( 'NONE', ( #585, #545, #403 ) ) ;
#322 = ADVANCED_FACE ( 'NONE', ( #39 ), #112, .T. ) ;
#323 = CIRCLE ( 'NONE', #33, 2.550000000000001599 ) ;
#324 = ADVANCED_FACE ( 'NONE', ( #551 ), #599, .T. ) ;
#325 = CARTESIAN_POINT ( 'NONE',  ( 0.000000000000000000, 7.800000000000001599, -2.550000000000001599 ) ) ;
#326 = DIRECTION ( 'NONE',  ( -0.000000000000000000, -1.000000000000000000, -0.000000000000000000 ) ) ;
#327 = ORIENTED_EDGE ( 'NONE', *, *, #590, .T. ) ;
#328 = DIRECTION ( 'NONE',  ( -0.000000000000000000, -1.000000000000000000, -0.000000000000000000 ) ) ;
#329 = DIRECTION ( 'NONE',  ( 0.000000000000000000, 0.000000000000000000, -1.000000000000000000 ) ) ;
#330 = VERTEX_POINT ( 'NONE', #299 ) ;
#331 = CARTESIAN_POINT ( 'NONE',  ( -1.250000000000000444, 8.000000000000000000, 0.000000000000000000 ) ) ;
#332 = VERTEX_POINT ( 'NONE', #237 ) ;
#333 = DIRECTION ( 'NONE',  ( 0.000000000000000000, 0.000000000000000000, 1.000000000000000000 ) ) ;
#334 = ORIENTED_EDGE ( 'NONE', *, *, #503, .T. ) ;
#335 = AXIS2_PLACEMENT_3D ( 'NONE', #18, #165, #367 ) ;
#336 = EDGE_CURVE ( 'NONE', #646, #132, #290, .T. ) ;
#337 = CARTESIAN_POINT ( 'NONE',  ( 0.000000000000000000, 6.700000000000000178, 0.000000000000000000 ) ) ;
#338 = EDGE_LOOP ( 'NONE', ( #186, #78, #340, #275 ) ) ;
#339 = LINE ( 'NONE', #493, #602 ) ;
#340 = ORIENTED_EDGE ( 'NONE', *, *, #183, .F. ) ;
#341 = ADVANCED_FACE ( 'NONE', ( #645 ), #443, .F. ) ;
#342 = LINE ( 'NONE', #544, #466 ) ;
#343 = ORIENTED_EDGE ( 'NONE', *, *, #255, .T. ) ;
#344 = DIRECTION ( 'NONE',  ( -0.000000000000000000, -1.000000000000000000, -0.000000000000000000 ) ) ;
#345 = ORIENTED_EDGE ( 'NONE', *, *, #236, .T. ) ;
#346 = MANIFOLD_SOLID_BREP ( 'Key Cutout', #452 ) ;
#347 = ORIENTED_EDGE ( 'NONE', *, *, #152, .F. ) ;
#348 = VECTOR ( 'NONE', #269, 1000.000000000000000 ) ;
#349 = FACE_OUTER_BOUND ( 'NONE', #530, .T. ) ;
#350 = LINE ( 'NONE', #96, #36 ) ;
#351 = CIRCLE ( 'NONE', #438, 1.500000000000004885 ) ;
#352 = ADVANCED_FACE ( 'NONE', ( #436 ), #636, .T. ) ;
#353 = DIRECTION ( 'NONE',  ( 0.000000000000000000, 0.000000000000000000, -1.000000000000000000 ) ) ;
#354 = DIRECTION ( 'NONE',  ( -0.8660254037844387076, 0.000000000000000000, -0.4999999999999999445 ) ) ;
#355 = ORIENTED_EDGE ( 'NONE', *, *, #434, .F. ) ;
#356 = CARTESIAN_POINT ( 'NONE',  ( 0.3124999999999996114, 8.000000000000000000, 1.623797632095822729 ) ) ;
#357 = CARTESIAN_POINT ( 'NONE',  ( 2.212327359402420786E-16, 6.700000000000000178, -1.443375672974065216 ) ) ;
#358 = VERTEX_POINT ( 'NONE', #288 ) ;
#359 = DIRECTION ( 'NONE',  ( -1.224646799147353454E-16, 0.000000000000000000, -1.000000000000000000 ) ) ;
#360 = DIRECTION ( 'NONE',  ( 0.000000000000000000, -0.000000000000000000, 1.000000000000000000 ) ) ;
#361 = ADVANCED_BREP_SHAPE_REPRESENTATION ( 'DIN912 - M3X5', ( #346, #279 ), #501 ) ;
#362 = EDGE_LOOP ( 'NONE', ( #383, #68, #379, #633 ) ) ;
#363 = EDGE_CURVE ( 'NONE', #429, #559, #469, .T. ) ;
#364 = CARTESIAN_POINT ( 'NONE',  ( -1.250000000000000222, 8.000000000000000000, 0.7216878364870321638 ) ) ;
#365 = DIRECTION ( 'NONE',  ( -0.000000000000000000, -1.000000000000000000, -0.000000000000000000 ) ) ;
#366 = VECTOR ( 'NONE', #211, 1000.000000000000227 ) ;
#367 = DIRECTION ( 'NONE',  ( 0.8660254037844384856, 0.000000000000000000, -0.5000000000000002220 ) ) ;
#368 = CARTESIAN_POINT ( 'NONE',  ( 0.000000000000000000, 6.700000000000001066, 0.000000000000000000 ) ) ;
#369 = DIRECTION ( 'NONE',  ( -0.5000000000000000000, 0.000000000000000000, -0.8660254037844387076 ) ) ;
#370 = CARTESIAN_POINT ( 'NONE',  ( 0.000000000000000000, 5.000000000000000888, -2.750000000000002220 ) ) ;
#371 = EDGE_LOOP ( 'NONE', ( #624, #627, #444 ) ) ;
#372 = EDGE_CURVE ( 'NONE', #559, #646, #238, .T. ) ;
#373 =( NAMED_UNIT ( * ) SI_UNIT ( $, .STERADIAN. ) SOLID_ANGLE_UNIT ( ) );
#374 = DIRECTION ( 'NONE',  ( -0.000000000000000000, 1.000000000000000000, 0.000000000000000000 ) ) ;
#375 = AXIS2_PLACEMENT_3D ( 'NONE', #168, #632, #479 ) ;
#376 = ORIENTED_EDGE ( 'NONE', *, *, #142, .F. ) ;
#377 = CARTESIAN_POINT ( 'NONE',  ( 2.212327359402420786E-16, 6.700000000000000178, -1.443375672974065216 ) ) ;
#378 = FACE_OUTER_BOUND ( 'NONE', #474, .T. ) ;
#379 = ORIENTED_EDGE ( 'NONE', *, *, #170, .T. ) ;
#380 = LINE ( 'NONE', #123, #128 ) ;
#381 = AXIS2_PLACEMENT_3D ( 'NONE', #490, #34, #184 ) ;
#382 = LINE ( 'NONE', #524, #240 ) ;
#383 = ORIENTED_EDGE ( 'NONE', *, *, #607, .F. ) ;
#384 = PRODUCT_DEFINITION_FORMATION_WITH_SPECIFIED_SOURCE ( 'ANY', '', #464, .NOT_KNOWN. ) ;
#385 = ADVANCED_FACE ( 'NONE', ( #601 ), #93, .T. ) ;
#386 = SHAPE_DEFINITION_REPRESENTATION ( #213, #361 ) ;
#387 = AXIS2_PLACEMENT_3D ( 'NONE', #450, #615, #454 ) ;
#388 = FACE_OUTER_BOUND ( 'NONE', #209, .T. ) ;
#389 = VERTEX_POINT ( 'NONE', #561 ) ;
#390 = AXIS2_PLACEMENT_3D ( 'NONE', #325, #475, #225 ) ;
#391 =( NAMED_UNIT ( * ) SI_UNIT ( $, .STERADIAN. ) SOLID_ANGLE_UNIT ( ) );
#392 = CARTESIAN_POINT ( 'NONE',  ( 3.367778697655222984E-16, 0.000000000000000000, 2.750000000000001776 ) ) ;
#393 = CARTESIAN_POINT ( 'NONE',  ( 0.000000000000000000, 7.800000000000001599, 0.000000000000000000 ) ) ;
#394 = ORIENTED_EDGE ( 'NONE', *, *, #531, .T. ) ;
#395 =( NAMED_UNIT ( * ) PLANE_ANGLE_UNIT ( ) SI_UNIT ( $, .RADIAN. ) );
#396 = ORIENTED_EDGE ( 'NONE', *, *, #133, .T. ) ;
#397 = VECTOR ( 'NONE', #478, 1000.000000000000000 ) ;
#398 = DIRECTION ( 'NONE',  ( 0.000000000000000000, 0.000000000000000000, -1.000000000000000000 ) ) ;
#399 = ORIENTED_EDGE ( 'NONE', *, *, #372, .F. ) ;
#400 = AXIS2_PLACEMENT_3D ( 'NONE', #203, #316, #409 ) ;
#401 = CARTESIAN_POINT ( 'NONE',  ( 2.212327359402420786E-16, 6.700000000000000178, -1.443375672974065216 ) ) ;
#402 = ADVANCED_FACE ( 'NONE', ( #158 ), #557, .T. ) ;
#403 = ORIENTED_EDGE ( 'NONE', *, *, #363, .T. ) ;
#404 = CIRCLE ( 'NONE', #30, 1.250000000000000000 ) ;
#405 = DIRECTION ( 'NONE',  ( 0.000000000000000000, 1.000000000000000000, 0.000000000000000000 ) ) ;
#406 = DIRECTION ( 'NONE',  ( -0.8660254037844385966, 0.000000000000000000, 0.5000000000000001110 ) ) ;
#407 = VERTEX_POINT ( 'NONE', #364 ) ;
#408 = DIRECTION ( 'NONE',  ( 0.000000000000000000, 0.4999999999999976130, 0.8660254037844400399 ) ) ;
#409 = DIRECTION ( 'NONE',  ( 0.000000000000000000, 0.000000000000000000, -1.000000000000000000 ) ) ;
#410 = ORIENTED_EDGE ( 'NONE', *, *, #422, .F. ) ;
#411 = CARTESIAN_POINT ( 'NONE',  ( 0.000000000000000000, 0.000000000000000000, 0.000000000000000000 ) ) ;
#412 = CYLINDRICAL_SURFACE ( 'NONE', #230, 1.500000000000003553 ) ;
#413 = CARTESIAN_POINT ( 'NONE',  ( -1.250000000000000222, 6.700000000000000178, -0.7216878364870326079 ) ) ;
#414 = DIRECTION ( 'NONE',  ( 0.000000000000000000, 0.000000000000000000, -1.000000000000000000 ) ) ;
#415 = ORIENTED_EDGE ( 'NONE', *, *, #223, .F. ) ;
#416 = CARTESIAN_POINT ( 'NONE',  ( -1.250000000000000222, 8.000000000000000000, -0.7216878364870326079 ) ) ;
#417 = CARTESIAN_POINT ( 'NONE',  ( 0.000000000000000000, 5.000000000000000888, 0.000000000000000000 ) ) ;
#418 = VECTOR ( 'NONE', #55, 1000.000000000000000 ) ;
#419 = VERTEX_POINT ( 'NONE', #261 ) ;
#420 = CARTESIAN_POINT ( 'NONE',  ( 1.249999999999999556, 6.700000000000000178, -0.7216878364870333851 ) ) ;
#421 = CARTESIAN_POINT ( 'NONE',  ( -1.250000000000000222, 6.700000000000000178, 0.7216878364870321638 ) ) ;
#422 = EDGE_CURVE ( 'NONE', #641, #180, #351, .T. ) ;
#423 = ORIENTED_EDGE ( 'NONE', *, *, #198, .F. ) ;
#424 =( NAMED_UNIT ( * ) PLANE_ANGLE_UNIT ( ) SI_UNIT ( $, .RADIAN. ) );
#425 = LINE ( 'NONE', #229, #293 ) ;
#426 = ORIENTED_EDGE ( 'NONE', *, *, #170, .F. ) ;
#427 = PLANE ( 'NONE',  #335 ) ;
#428 = DIRECTION ( 'NONE',  ( 0.000000000000000000, 0.000000000000000000, -1.000000000000000000 ) ) ;
#429 = VERTEX_POINT ( 'NONE', #613 ) ;
#430 = CARTESIAN_POINT ( 'NONE',  ( -1.250000000000000222, 6.700000000000000178, 0.7216878364870321638 ) ) ;
#431 = AXIS2_PLACEMENT_3D ( 'NONE', #108, #455, #354 ) ;
#432 = CARTESIAN_POINT ( 'NONE',  ( 0.000000000000000000, 7.800000000000001599, 0.000000000000000000 ) ) ;
#433 = VERTEX_POINT ( 'NONE', #97 ) ;
#434 = EDGE_CURVE ( 'NONE', #358, #28, #323, .T. ) ;
#435 = CIRCLE ( 'NONE', #634, 1.250000000000000000 ) ;
#436 = FACE_OUTER_BOUND ( 'NONE', #259, .T. ) ;
#437 = ORIENTED_EDGE ( 'NONE', *, *, #618, .T. ) ;
#438 = AXIS2_PLACEMENT_3D ( 'NONE', #650, #456, #460 ) ;
#439 = DIRECTION ( 'NONE',  ( -0.000000000000000000, -1.000000000000000000, -0.000000000000000000 ) ) ;
#440 = LINE ( 'NONE', #392, #548 ) ;
#441 = CIRCLE ( 'NONE', #63, 2.750000000000002220 ) ;
#442 = EDGE_CURVE ( 'NONE', #477, #330, #566, .T. ) ;
#443 = PLANE ( 'NONE',  #574 ) ;
#444 = ORIENTED_EDGE ( 'NONE', *, *, #372, .T. ) ;
#445 = DIRECTION ( 'NONE',  ( 0.000000000000000000, 0.000000000000000000, -1.000000000000000000 ) ) ;
#446 = ORIENTED_EDGE ( 'NONE', *, *, #336, .F. ) ;
#447 = DIRECTION ( 'NONE',  ( -0.000000000000000000, -1.000000000000000000, -0.000000000000000000 ) ) ;
#448 = VERTEX_POINT ( 'NONE', #45 ) ;
#449 = AXIS2_PLACEMENT_3D ( 'NONE', #1, #205, #359 ) ;
#450 = CARTESIAN_POINT ( 'NONE',  ( 0.000000000000000000, 6.700000000000001066, 0.000000000000000000 ) ) ;
#451 = EDGE_LOOP ( 'NONE', ( #521, #355 ) ) ;
#452 = CLOSED_SHELL ( 'NONE', ( #253, #44, #122, #322, #273, #35, #385, #324, #82, #402, #6, #492, #150, #29, #352, #295, #216, #654, #64, #341, #639, #95, #494 ) ) ;
#453 = EDGE_CURVE ( 'NONE', #278, #582, #652, .T. ) ;
#454 = DIRECTION ( 'NONE',  ( 0.000000000000000000, 0.000000000000000000, -1.000000000000000000 ) ) ;
#455 = DIRECTION ( 'NONE',  ( 0.4999999999999999445, 0.000000000000000000, -0.8660254037844387076 ) ) ;
#456 = DIRECTION ( 'NONE',  ( -0.000000000000000000, -1.000000000000000000, -0.000000000000000000 ) ) ;
#457 = DIRECTION ( 'NONE',  ( 0.000000000000000000, -0.000000000000000000, 1.000000000000000000 ) ) ;
#458 = PRODUCT_DEFINITION ( 'UNKNOWN', '', #384, #284 ) ;
#459 = VECTOR ( 'NONE', #166, 1000.000000000000114 ) ;
#460 = DIRECTION ( 'NONE',  ( 0.000000000000000000, 0.000000000000000000, -1.000000000000000000 ) ) ;
#461 = CARTESIAN_POINT ( 'NONE',  ( 0.000000000000000000, 0.000000000000000000, 0.000000000000000000 ) ) ;
#462 = FACE_OUTER_BOUND ( 'NONE', #321, .T. ) ;
#463 = CARTESIAN_POINT ( 'NONE',  ( 2.212327359402420786E-16, 6.700000000000000178, -1.443375672974065216 ) ) ;
#464 = PRODUCT ( 'DIN912 - M3X5', 'DIN912 - M3X5', '', ( #26 ) ) ;
#465 = ORIENTED_EDGE ( 'NONE', *, *, #577, .T. ) ;
#466 = VECTOR ( 'NONE', #640, 1000.000000000000000 ) ;
#467 = CARTESIAN_POINT ( 'NONE',  ( 1.530808498934191571E-16, 6.700000000000001066, -1.250000000000000000 ) ) ;
#468 = FACE_OUTER_BOUND ( 'NONE', #182, .T. ) ;
#469 = CIRCLE ( 'NONE', #387, 1.250000000000000000 ) ;
#470 = EDGE_CURVE ( 'NONE', #86, #637, #247, .T. ) ;
#471 = DIRECTION ( 'NONE',  ( 0.000000000000000000, 0.000000000000000000, 1.000000000000000000 ) ) ;
#472 = AXIS2_PLACEMENT_3D ( 'NONE', #368, #163, #226 ) ;
#473 = DIRECTION ( 'NONE',  ( -0.000000000000000000, -1.000000000000000000, -0.000000000000000000 ) ) ;
#474 = EDGE_LOOP ( 'NONE', ( #109, #286, #119, #42, #526, #51 ) ) ;
#475 = DIRECTION ( 'NONE',  ( -1.000000000000000000, 0.000000000000000000, 0.000000000000000000 ) ) ;
#476 = CARTESIAN_POINT ( 'NONE',  ( -2.106761186056140612E-16, 8.000000000000000000, 1.443375672974064550 ) ) ;
#477 = VERTEX_POINT ( 'NONE', #306 ) ;
#478 = DIRECTION ( 'NONE',  ( -0.000000000000000000, -1.000000000000000000, -0.000000000000000000 ) ) ;
#479 = DIRECTION ( 'NONE',  ( 0.000000000000000000, 0.000000000000000000, 1.000000000000000000 ) ) ;
#480 = ORIENTED_EDGE ( 'NONE', *, *, #255, .F. ) ;
#481 = CARTESIAN_POINT ( 'NONE',  ( 0.000000000000000000, 0.000000000000000000, -2.750000000000001776 ) ) ;
#482 = DIRECTION ( 'NONE',  ( 0.000000000000000000, 0.000000000000000000, -1.000000000000000000 ) ) ;
#483 = ORIENTED_EDGE ( 'NONE', *, *, #113, .F. ) ;
#484 = CIRCLE ( 'NONE', #161, 1.250000000000000000 ) ;
#485 = CARTESIAN_POINT ( 'NONE',  ( 0.000000000000000000, 0.000000000000000000, 0.000000000000000000 ) ) ;
#486 = AXIS2_PLACEMENT_3D ( 'NONE', #549, #298, #246 ) ;
#487 = CARTESIAN_POINT ( 'NONE',  ( -0.6250000000000002220, 6.700000000000000178, 1.082531754730548634 ) ) ;
#488 = EDGE_LOOP ( 'NONE', ( #157, #214 ) ) ;
#489 = AXIS2_PLACEMENT_3D ( 'NONE', #592, #447, #398 ) ;
#490 = CARTESIAN_POINT ( 'NONE',  ( 1.500000000000004885, -6.183816025498145048E-16, 0.000000000000000000 ) ) ;
#491 = EDGE_LOOP ( 'NONE', ( #24, #597, #437, #149 ) ) ;
#492 = ADVANCED_FACE ( 'NONE', ( #462 ), #302, .T. ) ;
#493 = CARTESIAN_POINT ( 'NONE',  ( 0.3124999999999997224, 8.000000000000000000, -1.623797632095823174 ) ) ;
#494 = ADVANCED_FACE ( 'NONE', ( #349 ), #217, .F. ) ;
#495 = ORIENTED_EDGE ( 'NONE', *, *, #266, .T. ) ;
#496 = CIRCLE ( 'NONE', #202, 2.750000000000001332 ) ;
#497 = DIRECTION ( 'NONE',  ( 0.000000000000000000, 0.000000000000000000, -1.000000000000000000 ) ) ;
#498 = ORIENTED_EDGE ( 'NONE', *, *, #514, .F. ) ;
#499 =( LENGTH_UNIT ( ) NAMED_UNIT ( * ) SI_UNIT ( .MILLI., .METRE. ) );
#500 = ORIENTED_EDGE ( 'NONE', *, *, #470, .F. ) ;
#501 =( GEOMETRIC_REPRESENTATION_CONTEXT ( 3 ) GLOBAL_UNCERTAINTY_ASSIGNED_CONTEXT ( ( #130 ) ) GLOBAL_UNIT_ASSIGNED_CONTEXT ( ( #220, #424, #373 ) ) REPRESENTATION_CONTEXT ( 'NONE', 'WORKASPACE' ) );
#502 = VECTOR ( 'NONE', #192, 1000.000000000000000 ) ;
#503 = EDGE_CURVE ( 'NONE', #515, #132, #52, .T. ) ;
#504 = ORIENTED_EDGE ( 'NONE', *, *, #542, .T. ) ;
#505 = VECTOR ( 'NONE', #8, 1000.000000000000000 ) ;
#506 = DIRECTION ( 'NONE',  ( -0.000000000000000000, -1.000000000000000000, -0.000000000000000000 ) ) ;
#507 = LINE ( 'NONE', #558, #649 ) ;
#508 = EDGE_CURVE ( 'NONE', #28, #358, #567, .T. ) ;
#509 = DIRECTION ( 'NONE',  ( -0.000000000000000000, 1.000000000000000000, 0.000000000000000000 ) ) ;
#510 = DIRECTION ( 'NONE',  ( -0.8660254037844385966, 0.000000000000000000, 0.5000000000000001110 ) ) ;
#511 = APPLICATION_CONTEXT ( 'automotive_design' ) ;
#512 = DIRECTION ( 'NONE',  ( 0.8660254037844385966, -0.000000000000000000, 0.5000000000000001110 ) ) ;
#513 = DIRECTION ( 'NONE',  ( 0.000000000000000000, 0.000000000000000000, 1.000000000000000000 ) ) ;
#514 = EDGE_CURVE ( 'NONE', #407, #199, #610, .T. ) ;
#515 = VERTEX_POINT ( 'NONE', #155 ) ;
#516 = DIRECTION ( 'NONE',  ( 0.000000000000000000, 0.000000000000000000, -1.000000000000000000 ) ) ;
#517 = FACE_BOUND ( 'NONE', #32, .T. ) ;
#518 = AXIS2_PLACEMENT_3D ( 'NONE', #56, #2, #360 ) ;
#519 = CARTESIAN_POINT ( 'NONE',  ( 0.000000000000000000, -1.236763205099629010E-15, -1.500000000000004885 ) ) ;
#520 = DIRECTION ( 'NONE',  ( -0.000000000000000000, 1.000000000000000000, 0.000000000000000000 ) ) ;
#521 = ORIENTED_EDGE ( 'NONE', *, *, #508, .F. ) ;
#522 = CIRCLE ( 'NONE', #57, 2.750000000000001332 ) ;
#523 = CARTESIAN_POINT ( 'NONE',  ( 1.836970198721034125E-16, 0.000000000000000000, 1.500000000000003553 ) ) ;
#524 = CARTESIAN_POINT ( 'NONE',  ( 1.249999999999999556, 6.700000000000000178, -0.7216878364870333851 ) ) ;
#525 = EDGE_CURVE ( 'NONE', #358, #538, #620, .T. ) ;
#526 = ORIENTED_EDGE ( 'NONE', *, *, #266, .F. ) ;
#527 = CARTESIAN_POINT ( 'NONE',  ( 0.6250000000000002220, 6.700000000000001066, 1.082531754730548190 ) ) ;
#528 = AXIS2_PLACEMENT_3D ( 'NONE', #461, #206, #312 ) ;
#529 = DIRECTION ( 'NONE',  ( -0.8660254037844385966, 0.000000000000000000, -0.4999999999999998890 ) ) ;
#530 = EDGE_LOOP ( 'NONE', ( #92, #334, #446, #399, #13, #565 ) ) ;
#531 = EDGE_CURVE ( 'NONE', #248, #429, #484, .T. ) ;
#532 = LINE ( 'NONE', #467, #11 ) ;
#533 = CARTESIAN_POINT ( 'NONE',  ( 0.000000000000000000, 0.000000000000000000, -1.500000000000003553 ) ) ;
#534 = ORIENTED_EDGE ( 'NONE', *, *, #550, .T. ) ;
#535 = DIRECTION ( 'NONE',  ( 0.000000000000000000, -0.000000000000000000, 1.000000000000000000 ) ) ;
#536 = VERTEX_POINT ( 'NONE', #207 ) ;
#537 = DIRECTION ( 'NONE',  ( 0.000000000000000000, -0.000000000000000000, 1.000000000000000000 ) ) ;
#538 = VERTEX_POINT ( 'NONE', #59 ) ;
#539 = CIRCLE ( 'NONE', #249, 1.250000000000000000 ) ;
#540 = SURFACE_STYLE_USAGE ( .BOTH. , #139 ) ;
#541 = FACE_OUTER_BOUND ( 'NONE', #371, .T. ) ;
#542 = EDGE_CURVE ( 'NONE', #419, #595, #539, .T. ) ;
#543 = UNCERTAINTY_MEASURE_WITH_UNIT (LENGTH_MEASURE( 1.000000000000000082E-05 ), #499, 'distance_accuracy_value', 'NONE');
#544 = CARTESIAN_POINT ( 'NONE',  ( 1.249999999999999778, 6.700000000000000178, 0.7216878364870319418 ) ) ;
#545 = ORIENTED_EDGE ( 'NONE', *, *, #638, .T. ) ;
#546 = FILL_AREA_STYLE ('',( #135 ) ) ;
#547 = EDGE_LOOP ( 'NONE', ( #227, #617, #347, #185, #160 ) ) ;
#548 = VECTOR ( 'NONE', #140, 1000.000000000000000 ) ;
#549 = CARTESIAN_POINT ( 'NONE',  ( 0.000000000000000000, 6.700000000000000178, 0.000000000000000000 ) ) ;
#550 = EDGE_CURVE ( 'NONE', #263, #407, #14, .T. ) ;
#551 = FACE_OUTER_BOUND ( 'NONE', #176, .T. ) ;
#552 = AXIS2_PLACEMENT_3D ( 'NONE', #393, #344, #445 ) ;
#553 = ORIENTED_EDGE ( 'NONE', *, *, #99, .F. ) ;
#554 = MECHANICAL_DESIGN_GEOMETRIC_PRESENTATION_REPRESENTATION (  '', ( #60 ), #179 ) ;
#555 = CARTESIAN_POINT ( 'NONE',  ( 0.000000000000000000, 6.700000000000001066, 0.000000000000000000 ) ) ;
#556 = LINE ( 'NONE', #463, #25 ) ;
#557 = CYLINDRICAL_SURFACE ( 'NONE', #125, 1.500000000000003553 ) ;
#558 = CARTESIAN_POINT ( 'NONE',  ( 1.562500000000000444, 8.000000000000000000, -0.5412658773652748723 ) ) ;
#559 = VERTEX_POINT ( 'NONE', #625 ) ;
#560 = EDGE_CURVE ( 'NONE', #515, #248, #532, .T. ) ;
#561 = CARTESIAN_POINT ( 'NONE',  ( 1.836970198721033385E-16, 5.000000000000000888, 1.500000000000001998 ) ) ;
#562 = PLANE ( 'NONE',  #570 ) ;
#563 = CARTESIAN_POINT ( 'NONE',  ( 0.000000000000000000, 6.700000000000001066, 0.000000000000000000 ) ) ;
#564 = CARTESIAN_POINT ( 'NONE',  ( -1.250000000000000222, 6.700000000000000178, -0.7216878364870326079 ) ) ;
#565 = ORIENTED_EDGE ( 'NONE', *, *, #531, .F. ) ;
#566 = LINE ( 'NONE', #656, #502 ) ;
#567 = CIRCLE ( 'NONE', #304, 2.550000000000001599 ) ;
#568 = PLANE ( 'NONE',  #431 ) ;
#569 = ORIENTED_EDGE ( 'NONE', *, *, #236, .F. ) ;
#570 = AXIS2_PLACEMENT_3D ( 'NONE', #148, #520, #53 ) ;
#571 = EDGE_CURVE ( 'NONE', #282, #646, #380, .T. ) ;
#572 = CARTESIAN_POINT ( 'NONE',  ( -2.106761186056140612E-16, 6.700000000000000178, 1.443375672974064550 ) ) ;
#573 = LINE ( 'NONE', #533, #147 ) ;
#574 = AXIS2_PLACEMENT_3D ( 'NONE', #127, #297, #642 ) ;
#575 = CARTESIAN_POINT ( 'NONE',  ( 0.000000000000000000, 5.000000000000000888, 0.000000000000000000 ) ) ;
#576 = ORIENTED_EDGE ( 'NONE', *, *, #66, .T. ) ;
#577 = EDGE_CURVE ( 'NONE', #332, #231, #110, .T. ) ;
#578 = AXIS2_PLACEMENT_3D ( 'NONE', #27, #12, #61 ) ;
#579 = CARTESIAN_POINT ( 'NONE',  ( -2.106761186056140612E-16, 6.700000000000000178, 1.443375672974064550 ) ) ;
#580 = EDGE_LOOP ( 'NONE', ( #173, #500, #647, #242, #73 ) ) ;
#581 = DIRECTION ( 'NONE',  ( 0.000000000000000000, 1.000000000000000000, 0.000000000000000000 ) ) ;
#582 = VERTEX_POINT ( 'NONE', #69 ) ;
#583 = CARTESIAN_POINT ( 'NONE',  ( -1.250000000000000222, 6.700000000000000178, -0.7216878364870326079 ) ) ;
#584 = FACE_OUTER_BOUND ( 'NONE', #612, .T. ) ;
#585 = ORIENTED_EDGE ( 'NONE', *, *, #305, .T. ) ;
#586 = AXIS2_PLACEMENT_3D ( 'NONE', #143, #509, #106 ) ;
#587 = APPLICATION_PROTOCOL_DEFINITION ( 'draft international standard', 'automotive_design', 1998, #215 ) ;
#588 = DIRECTION ( 'NONE',  ( 0.8660254037844385966, 0.000000000000000000, 0.5000000000000001110 ) ) ;
#589 = ORIENTED_EDGE ( 'NONE', *, *, #550, .F. ) ;
#590 = EDGE_CURVE ( 'NONE', #86, #419, #272, .T. ) ;
#591 = VECTOR ( 'NONE', #622, 1000.000000000000000 ) ;
#592 = CARTESIAN_POINT ( 'NONE',  ( 0.000000000000000000, 6.700000000000001066, 0.000000000000000000 ) ) ;
#593 = ORIENTED_EDGE ( 'NONE', *, *, #609, .T. ) ;
#594 = DIRECTION ( 'NONE',  ( -0.000000000000000000, 1.000000000000000000, 0.000000000000000000 ) ) ;
#595 = VERTEX_POINT ( 'NONE', #21 ) ;
#596 = PLANE ( 'NONE',  #318 ) ;
#597 = ORIENTED_EDGE ( 'NONE', *, *, #434, .T. ) ;
#598 = AXIS2_PLACEMENT_3D ( 'NONE', #10, #197, #655 ) ;
#599 = CYLINDRICAL_SURFACE ( 'NONE', #141, 2.750000000000001776 ) ;
#600 = EDGE_LOOP ( 'NONE', ( #167, #576 ) ) ;
#601 = FACE_OUTER_BOUND ( 'NONE', #491, .T. ) ;
#602 = VECTOR ( 'NONE', #291, 1000.000000000000114 ) ;
#603 = LINE ( 'NONE', #357, #79 ) ;
#604 = AXIS2_PLACEMENT_3D ( 'NONE', #49, #41, #201 ) ;
#605 = DIRECTION ( 'NONE',  ( 0.000000000000000000, 0.000000000000000000, 1.000000000000000000 ) ) ;
#606 = CARTESIAN_POINT ( 'NONE',  ( 0.000000000000000000, 8.000000000000000000, -2.550000000000001599 ) ) ;
#607 = EDGE_CURVE ( 'NONE', #389, #180, #114, .T. ) ;
#608 = VECTOR ( 'NONE', #144, 1000.000000000000000 ) ;
#609 = EDGE_CURVE ( 'NONE', #263, #188, #276, .T. ) ;
#610 = LINE ( 'NONE', #356, #283 ) ;
#611 = CARTESIAN_POINT ( 'NONE',  ( 0.000000000000000000, 0.000000000000000000, 0.000000000000000000 ) ) ;
#612 = EDGE_LOOP ( 'NONE', ( #310, #630, #81, #394 ) ) ;
#613 = CARTESIAN_POINT ( 'NONE',  ( 0.6250000000000002220, 6.700000000000000178, -1.082531754730548856 ) ) ;
#614 = FACE_OUTER_BOUND ( 'NONE', #154, .T. ) ;
#615 = DIRECTION ( 'NONE',  ( -0.000000000000000000, -1.000000000000000000, -0.000000000000000000 ) ) ;
#616 = FACE_OUTER_BOUND ( 'NONE', #547, .T. ) ;
#617 = ORIENTED_EDGE ( 'NONE', *, *, #453, .F. ) ;
#618 = EDGE_CURVE ( 'NONE', #28, #332, #648, .T. ) ;
#619 = LINE ( 'NONE', #420, #366 ) ;
#620 = CIRCLE ( 'NONE', #449, 0.1999999999999996503 ) ;
#621 = FACE_OUTER_BOUND ( 'NONE', #121, .T. ) ;
#622 = DIRECTION ( 'NONE',  ( 0.8660254037844385966, 0.000000000000000000, 0.5000000000000001110 ) ) ;
#623 = DIRECTION ( 'NONE',  ( 0.000000000000000000, 0.000000000000000000, -1.000000000000000000 ) ) ;
#624 = ORIENTED_EDGE ( 'NONE', *, *, #190, .T. ) ;
#625 = CARTESIAN_POINT ( 'NONE',  ( 1.249999999999999778, 6.700000000000000178, -1.877893248421447803E-16 ) ) ;
#626 = DIRECTION ( 'NONE',  ( -0.000000000000000000, -1.000000000000000000, -0.000000000000000000 ) ) ;
#627 = ORIENTED_EDGE ( 'NONE', *, *, #164, .T. ) ;
#628 = LINE ( 'NONE', #572, #23 ) ;
#629 = DIRECTION ( 'NONE',  ( -0.000000000000000000, -1.000000000000000000, -0.000000000000000000 ) ) ;
#630 = ORIENTED_EDGE ( 'NONE', *, *, #75, .T. ) ;
#631 = CARTESIAN_POINT ( 'NONE',  ( -1.250000000000000222, 6.700000000000000178, 0.7216878364870321638 ) ) ;
#632 = DIRECTION ( 'NONE',  ( -1.000000000000000000, 0.000000000000000000, 0.000000000000000000 ) ) ;
#633 = ORIENTED_EDGE ( 'NONE', *, *, #66, .F. ) ;
#634 = AXIS2_PLACEMENT_3D ( 'NONE', #72, #281, #482 ) ;
#635 = DIRECTION ( 'NONE',  ( 0.000000000000000000, 0.000000000000000000, 1.000000000000000000 ) ) ;
#636 = PLANE ( 'NONE',  #9 ) ;
#637 = VERTEX_POINT ( 'NONE', #416 ) ;
#638 = EDGE_CURVE ( 'NONE', #536, #429, #619, .T. ) ;
#639 = ADVANCED_FACE ( 'NONE', ( #162 ), #427, .F. ) ;
#640 = DIRECTION ( 'NONE',  ( -1.502314598737158538E-16, 0.000000000000000000, -1.000000000000000000 ) ) ;
#641 = VERTEX_POINT ( 'NONE', #519 ) ;
#642 = DIRECTION ( 'NONE',  ( -1.502314598737158538E-16, 0.000000000000000000, -1.000000000000000000 ) ) ;
#643 = ORIENTED_EDGE ( 'NONE', *, *, #644, .T. ) ;
#644 = EDGE_CURVE ( 'NONE', #282, #199, #628, .T. ) ;
#645 = FACE_OUTER_BOUND ( 'NONE', #296, .T. ) ;
#646 = VERTEX_POINT ( 'NONE', #527 ) ;
#647 = ORIENTED_EDGE ( 'NONE', *, *, #85, .F. ) ;
#648 = CIRCLE ( 'NONE', #390, 0.1999999999999996503 ) ;
#649 = VECTOR ( 'NONE', #98, 1000.000000000000227 ) ;
#650 = CARTESIAN_POINT ( 'NONE',  ( 0.000000000000000000, -1.236763205099629010E-15, 0.000000000000000000 ) ) ;
#651 = ORIENTED_EDGE ( 'NONE', *, *, #607, .T. ) ;
#652 = LINE ( 'NONE', #401, #210 ) ;
#653 = COLOUR_RGB ( '',0.7921568627450980005, 0.8196078431372548767, 0.9333333333333333481 ) ;
#654 = ADVANCED_FACE ( 'NONE', ( #264 ), #171, .F. ) ;
#655 = DIRECTION ( 'NONE',  ( 0.000000000000000000, 0.000000000000000000, -1.000000000000000000 ) ) ;
#656 = CARTESIAN_POINT ( 'NONE',  ( 1.249999999999999778, 8.000000000000000000, 4.886438255122546758E-32 ) ) ;
#657 = DIRECTION ( 'NONE',  ( 0.000000000000000000, 1.000000000000000000, 0.000000000000000000 ) ) ;
#658 = EDGE_LOOP ( 'NONE', ( #256, #327, #504 ) ) ;
#659 = AXIS2_PLACEMENT_3D ( 'NONE', #417, #626, #329 ) ;
ENDSEC;
END-ISO-10303-21;
