ISO-10303-21;
HEADER;
FILE_DESCRIPTION (( 'STEP AP214' ),
    '1' );
FILE_NAME ('DIN912 - M4X6.STEP',
    '2023-12-01T09:04:25',
    ( '' ),
    ( '' ),
    'SwSTEP 2.0',
    'SolidWorks 2023',
    '' );
FILE_SCHEMA (( 'AUTOMOTIVE_DESIGN' ));
ENDSEC;

DATA;
#1 = DIRECTION ( 'NONE',  ( 1.000000000000000000, 0.000000000000000000, 1.251928832280965202E-16 ) ) ;
#2 = CARTESIAN_POINT ( 'NONE',  ( 0.000000000000000000, 0.000000000000000000, 0.000000000000000000 ) ) ;
#3 = CIRCLE ( 'NONE', #141, 2.000000000000000888 ) ;
#4 = CARTESIAN_POINT ( 'NONE',  ( 0.000000000000000000, 6.000000000000000000, -2.000000000000000888 ) ) ;
#5 = CARTESIAN_POINT ( 'NONE',  ( 1.499999999999999778, 10.00000000000000178, 0.8660254037844394848 ) ) ;
#6 = CARTESIAN_POINT ( 'NONE',  ( 0.000000000000000000, 10.00000000000000178, 0.000000000000000000 ) ) ;
#7 = AXIS2_PLACEMENT_3D ( 'NONE', #43, #596, #650 ) ;
#8 = CARTESIAN_POINT ( 'NONE',  ( 2.449293598294709866E-16, 0.000000000000000000, 2.000000000000002665 ) ) ;
#9 = CARTESIAN_POINT ( 'NONE',  ( -1.500000000000000000, 7.700000000000001954, -0.8660254037844391517 ) ) ;
#10 = DIRECTION ( 'NONE',  ( 0.000000000000000000, 0.000000000000000000, -1.000000000000000000 ) ) ;
#11 = AXIS2_PLACEMENT_3D ( 'NONE', #317, #212, #175 ) ;
#12 = ORIENTED_EDGE ( 'NONE', *, *, #149, .F. ) ;
#13 = LINE ( 'NONE', #628, #570 ) ;
#14 = LINE ( 'NONE', #269, #248 ) ;
#15 = ORIENTED_EDGE ( 'NONE', *, *, #41, .T. ) ;
#16 = ADVANCED_FACE ( 'NONE', ( #483 ), #30, .T. ) ;
#17 =( NAMED_UNIT ( * ) SI_UNIT ( $, .STERADIAN. ) SOLID_ANGLE_UNIT ( ) );
#18 = EDGE_LOOP ( 'NONE', ( #556, #606, #186 ) ) ;
#19 = AXIS2_PLACEMENT_3D ( 'NONE', #147, #203, #609 ) ;
#20 = DIRECTION ( 'NONE',  ( 0.4999999999999997224, 0.000000000000000000, 0.8660254037844388186 ) ) ;
#21 = DIRECTION ( 'NONE',  ( 0.000000000000000000, -0.000000000000000000, 1.000000000000000000 ) ) ;
#22 = DIRECTION ( 'NONE',  ( 0.000000000000000000, 0.000000000000000000, 1.000000000000000000 ) ) ;
#23 = DIRECTION ( 'NONE',  ( 0.000000000000000000, 0.000000000000000000, -1.000000000000000000 ) ) ;
#24 = ORIENTED_EDGE ( 'NONE', *, *, #398, .T. ) ;
#25 = LINE ( 'NONE', #427, #369 ) ;
#26 = CIRCLE ( 'NONE', #139, 1.500000000000000000 ) ;
#27 = CYLINDRICAL_SURFACE ( 'NONE', #92, 3.500000000000001332 ) ;
#28 = LINE ( 'NONE', #114, #595 ) ;
#29 = FACE_OUTER_BOUND ( 'NONE', #280, .T. ) ;
#30 = PLANE ( 'NONE',  #97 ) ;
#31 = EDGE_CURVE ( 'NONE', #644, #258, #191, .T. ) ;
#32 = VERTEX_POINT ( 'NONE', #270 ) ;
#33 = CARTESIAN_POINT ( 'NONE',  ( 0.000000000000000000, 9.799999999999998934, 0.000000000000000000 ) ) ;
#34 = ORIENTED_EDGE ( 'NONE', *, *, #337, .F. ) ;
#35 = DIRECTION ( 'NONE',  ( -0.000000000000000000, 1.000000000000000000, -0.000000000000000000 ) ) ;
#36 = VERTEX_POINT ( 'NONE', #116 ) ;
#37 = ORIENTED_EDGE ( 'NONE', *, *, #377, .F. ) ;
#38 = AXIS2_PLACEMENT_3D ( 'NONE', #581, #484, #520 ) ;
#39 = EDGE_CURVE ( 'NONE', #285, #106, #228, .T. ) ;
#40 = DIRECTION ( 'NONE',  ( 0.000000000000000000, -0.000000000000000000, 1.000000000000000000 ) ) ;
#41 = EDGE_CURVE ( 'NONE', #161, #597, #107, .T. ) ;
#42 = DIRECTION ( 'NONE',  ( 0.000000000000000000, 0.000000000000000000, -1.000000000000000000 ) ) ;
#43 = CARTESIAN_POINT ( 'NONE',  ( 0.000000000000000000, 0.000000000000000000, 0.000000000000000000 ) ) ;
#44 = EDGE_CURVE ( 'NONE', #59, #193, #577, .T. ) ;
#45 = EDGE_LOOP ( 'NONE', ( #328, #387, #438, #524, #418 ) ) ;
#46 = CARTESIAN_POINT ( 'NONE',  ( 2.449293598294711838E-16, 6.123233995736752477E-17, 2.000000000000004441 ) ) ;
#47 = CARTESIAN_POINT ( 'NONE',  ( 0.000000000000000000, 10.00000000000000178, -3.300000000000000266 ) ) ;
#48 = AXIS2_PLACEMENT_3D ( 'NONE', #166, #366, #567 ) ;
#49 = AXIS2_PLACEMENT_3D ( 'NONE', #496, #599, #286 ) ;
#50 = AXIS2_PLACEMENT_3D ( 'NONE', #643, #490, #42 ) ;
#51 = CARTESIAN_POINT ( 'NONE',  ( 1.500000000000000000, 7.700000000000001954, -0.8660254037844391517 ) ) ;
#52 = DIRECTION ( 'NONE',  ( 0.000000000000000000, 0.000000000000000000, 1.000000000000000000 ) ) ;
#53 = ADVANCED_FACE ( 'NONE', ( #478 ), #327, .T. ) ;
#54 = CIRCLE ( 'NONE', #223, 1.500000000000000000 ) ;
#55 = CARTESIAN_POINT ( 'NONE',  ( 0.000000000000000000, 7.700000000000001954, 0.000000000000000000 ) ) ;
#56 = VERTEX_POINT ( 'NONE', #65 ) ;
#57 = EDGE_CURVE ( 'NONE', #285, #455, #129, .T. ) ;
#58 = LINE ( 'NONE', #298, #504 ) ;
#59 = VERTEX_POINT ( 'NONE', #525 ) ;
#60 = VERTEX_POINT ( 'NONE', #417 ) ;
#61 = LINE ( 'NONE', #257, #488 ) ;
#62 = ADVANCED_FACE ( 'NONE', ( #180 ), #461, .T. ) ;
#63 = CARTESIAN_POINT ( 'NONE',  ( 0.000000000000000000, 6.000000000000000000, 0.000000000000000000 ) ) ;
#64 = AXIS2_PLACEMENT_3D ( 'NONE', #306, #207, #220 ) ;
#65 = CARTESIAN_POINT ( 'NONE',  ( 2.565437599681345918E-16, 7.700000000000001954, -1.732050807568877637 ) ) ;
#66 = ORIENTED_EDGE ( 'NONE', *, *, #361, .T. ) ;
#67 = DIRECTION ( 'NONE',  ( -0.000000000000000000, 1.000000000000000000, -0.000000000000000000 ) ) ;
#68 = DIRECTION ( 'NONE',  ( -0.000000000000000000, 1.000000000000000000, 0.000000000000000000 ) ) ;
#69 = CARTESIAN_POINT ( 'NONE',  ( 0.000000000000000000, 7.700000000000001954, 0.000000000000000000 ) ) ;
#70 = DIRECTION ( 'NONE',  ( 0.000000000000000000, 0.000000000000000000, -1.000000000000000000 ) ) ;
#71 = MANIFOLD_SOLID_BREP ( 'Key Cutout', #170 ) ;
#72 = CARTESIAN_POINT ( 'NONE',  ( 1.836970198721029934E-16, 7.700000000000000178, -1.500000000000000000 ) ) ;
#73 = CYLINDRICAL_SURFACE ( 'NONE', #313, 2.000000000000002665 ) ;
#74 = CARTESIAN_POINT ( 'NONE',  ( 1.093118657321079453E-17, 7.700000000000001954, 1.732050807568877415 ) ) ;
#75 = SURFACE_STYLE_USAGE ( .BOTH. , #261 ) ;
#76 = FACE_OUTER_BOUND ( 'NONE', #304, .T. ) ;
#77 = ORIENTED_EDGE ( 'NONE', *, *, #44, .F. ) ;
#78 = VECTOR ( 'NONE', #448, 1000.000000000000000 ) ;
#79 = DIRECTION ( 'NONE',  ( -0.000000000000000000, -1.000000000000000000, -0.000000000000000000 ) ) ;
#80 = ORIENTED_EDGE ( 'NONE', *, *, #649, .T. ) ;
#81 = AXIS2_PLACEMENT_3D ( 'NONE', #63, #174, #620 ) ;
#82 = AXIS2_PLACEMENT_3D ( 'NONE', #2, #52, #659 ) ;
#83 = DIRECTION ( 'NONE',  ( 0.000000000000000000, 0.000000000000000000, -1.000000000000000000 ) ) ;
#84 = VECTOR ( 'NONE', #345, 1000.000000000000000 ) ;
#85 = VECTOR ( 'NONE', #482, 1000.000000000000000 ) ;
#86 = EDGE_LOOP ( 'NONE', ( #460, #229, #440, #403, #426 ) ) ;
#87 = ORIENTED_EDGE ( 'NONE', *, *, #416, .T. ) ;
#88 = EDGE_CURVE ( 'NONE', #330, #59, #380, .T. ) ;
#89 = ADVANCED_FACE ( 'NONE', ( #171 ), #487, .T. ) ;
#90 = FACE_BOUND ( 'NONE', #413, .T. ) ;
#91 = ORIENTED_EDGE ( 'NONE', *, *, #649, .F. ) ;
#92 = AXIS2_PLACEMENT_3D ( 'NONE', #225, #578, #176 ) ;
#93 = PLANE ( 'NONE',  #341 ) ;
#94 = CARTESIAN_POINT ( 'NONE',  ( 1.499999999999999778, 7.700000000000001954, 0.8660254037844394848 ) ) ;
#95 = CIRCLE ( 'NONE', #656, 2.000000000000004441 ) ;
#96 = EDGE_CURVE ( 'NONE', #274, #349, #566, .T. ) ;
#97 = AXIS2_PLACEMENT_3D ( 'NONE', #379, #68, #21 ) ;
#98 = ORIENTED_EDGE ( 'NONE', *, *, #502, .T. ) ;
#99 = DIRECTION ( 'NONE',  ( -0.000000000000000000, -1.000000000000000000, -0.000000000000000000 ) ) ;
#100 = DIRECTION ( 'NONE',  ( 0.000000000000000000, 0.000000000000000000, -1.000000000000000000 ) ) ;
#101 = VERTEX_POINT ( 'NONE', #219 ) ;
#102 = CIRCLE ( 'NONE', #454, 3.500000000000001776 ) ;
#103 = PRODUCT_RELATED_PRODUCT_CATEGORY ( 'part', '', ( #196 ) ) ;
#104 = EDGE_CURVE ( 'NONE', #56, #60, #25, .T. ) ;
#105 = CARTESIAN_POINT ( 'NONE',  ( 4.286263797015738074E-16, 9.799999999999998934, 3.500000000000001776 ) ) ;
#106 = VERTEX_POINT ( 'NONE', #432 ) ;
#107 = CIRCLE ( 'NONE', #11, 1.500000000000000000 ) ;
#108 = LINE ( 'NONE', #347, #618 ) ;
#109 = ORIENTED_EDGE ( 'NONE', *, *, #266, .F. ) ;
#110 = CARTESIAN_POINT ( 'NONE',  ( 1.500000000000000000, 7.700000000000001954, 1.877893248421447803E-16 ) ) ;
#111 = DIRECTION ( 'NONE',  ( 0.8660254037844388186, 0.000000000000000000, -0.4999999999999997224 ) ) ;
#112 = EDGE_CURVE ( 'NONE', #56, #133, #632, .T. ) ;
#113 = VECTOR ( 'NONE', #142, 1000.000000000000000 ) ;
#114 = CARTESIAN_POINT ( 'NONE',  ( 4.286263797015737581E-16, 0.000000000000000000, 3.500000000000001332 ) ) ;
#115 = DIRECTION ( 'NONE',  ( -1.224646799147352468E-16, 0.000000000000000000, -1.000000000000000000 ) ) ;
#116 = CARTESIAN_POINT ( 'NONE',  ( 0.7500000000000000000, 7.700000000000001954, -1.299038105676658228 ) ) ;
#117 = CARTESIAN_POINT ( 'NONE',  ( -1.500000000000000000, 7.700000000000001954, 0.8660254037844387076 ) ) ;
#118 = CARTESIAN_POINT ( 'NONE',  ( 2.449293598294708880E-16, 6.000000000000000000, 2.000000000000000888 ) ) ;
#119 = VERTEX_POINT ( 'NONE', #4 ) ;
#120 =( GEOMETRIC_REPRESENTATION_CONTEXT ( 3 ) GLOBAL_UNCERTAINTY_ASSIGNED_CONTEXT ( ( #370 ) ) GLOBAL_UNIT_ASSIGNED_CONTEXT ( ( #320, #474, #17 ) ) REPRESENTATION_CONTEXT ( 'NONE', 'WORKASPACE' ) );
#121 = UNCERTAINTY_MEASURE_WITH_UNIT (LENGTH_MEASURE( 1.000000000000000082E-05 ), #350, 'distance_accuracy_value', 'NONE');
#122 = PLANE ( 'NONE',  #200 ) ;
#123 = CARTESIAN_POINT ( 'NONE',  ( -0.7499999999999998890, 7.700000000000001954, 1.299038105676658006 ) ) ;
#124 = ORIENTED_EDGE ( 'NONE', *, *, #377, .T. ) ;
#125 = PRESENTATION_STYLE_ASSIGNMENT (( #75 ) ) ;
#126 = ADVANCED_FACE ( 'NONE', ( #554, #400 ), #600, .T. ) ;
#127 = CARTESIAN_POINT ( 'NONE',  ( 1.500000000000000000, 7.700000000000001954, -0.8660254037844391517 ) ) ;
#128 = LINE ( 'NONE', #523, #422 ) ;
#129 = LINE ( 'NONE', #72, #206 ) ;
#130 = LINE ( 'NONE', #565, #550 ) ;
#131 = CARTESIAN_POINT ( 'NONE',  ( 0.000000000000000000, 9.799999999999998934, 0.000000000000000000 ) ) ;
#132 = ORIENTED_EDGE ( 'NONE', *, *, #137, .T. ) ;
#133 = VERTEX_POINT ( 'NONE', #552 ) ;
#134 = CARTESIAN_POINT ( 'NONE',  ( 0.000000000000000000, 6.123233995736752477E-17, 0.000000000000000000 ) ) ;
#135 = EDGE_LOOP ( 'NONE', ( #12, #471, #645, #513 ) ) ;
#136 = VERTEX_POINT ( 'NONE', #46 ) ;
#137 = EDGE_CURVE ( 'NONE', #258, #59, #251, .T. ) ;
#138 = CARTESIAN_POINT ( 'NONE',  ( 1.499999999999999778, 7.700000000000001954, 0.8660254037844394848 ) ) ;
#139 = AXIS2_PLACEMENT_3D ( 'NONE', #247, #500, #100 ) ;
#140 = CARTESIAN_POINT ( 'NONE',  ( 0.7499999999999995559, 7.700000000000000178, 1.299038105676658228 ) ) ;
#141 = AXIS2_PLACEMENT_3D ( 'NONE', #429, #424, #168 ) ;
#142 = DIRECTION ( 'NONE',  ( -0.000000000000000000, 1.000000000000000000, -0.000000000000000000 ) ) ;
#143 = LINE ( 'NONE', #235, #308 ) ;
#144 = DIRECTION ( 'NONE',  ( 0.000000000000000000, -0.000000000000000000, 1.000000000000000000 ) ) ;
#145 = AXIS2_PLACEMENT_3D ( 'NONE', #245, #625, #530 ) ;
#146 = ORIENTED_EDGE ( 'NONE', *, *, #505, .F. ) ;
#147 = CARTESIAN_POINT ( 'NONE',  ( 0.000000000000000000, 0.000000000000000000, 0.000000000000000000 ) ) ;
#148 = ORIENTED_EDGE ( 'NONE', *, *, #172, .T. ) ;
#149 = EDGE_CURVE ( 'NONE', #330, #263, #28, .T. ) ;
#150 = ADVANCED_FACE ( 'NONE', ( #357 ), #122, .F. ) ;
#151 = ORIENTED_EDGE ( 'NONE', *, *, #172, .F. ) ;
#152 = CARTESIAN_POINT ( 'NONE',  ( 3.500000000000000888, 6.000000000000000000, 0.000000000000000000 ) ) ;
#153 = CYLINDRICAL_SURFACE ( 'NONE', #19, 3.500000000000001332 ) ;
#154 = PRODUCT_CONTEXT ( 'NONE', #356, 'mechanical' ) ;
#155 = DIRECTION ( 'NONE',  ( 0.8660254037844385966, 0.000000000000000000, 0.4999999999999998890 ) ) ;
#156 = ORIENTED_EDGE ( 'NONE', *, *, #537, .T. ) ;
#157 = DIRECTION ( 'NONE',  ( 0.8660254037844387076, 0.000000000000000000, 0.4999999999999998890 ) ) ;
#158 = PLANE ( 'NONE',  #539 ) ;
#159 = ORIENTED_EDGE ( 'NONE', *, *, #408, .F. ) ;
#160 = ADVANCED_FACE ( 'NONE', ( #559 ), #526, .F. ) ;
#161 = VERTEX_POINT ( 'NONE', #110 ) ;
#162 = EDGE_CURVE ( 'NONE', #119, #498, #3, .T. ) ;
#163 = DIRECTION ( 'NONE',  ( 0.000000000000000000, -0.000000000000000000, 1.000000000000000000 ) ) ;
#164 = AXIS2_PLACEMENT_3D ( 'NONE', #51, #354, #300 ) ;
#165 = ORIENTED_EDGE ( 'NONE', *, *, #480, .T. ) ;
#166 = CARTESIAN_POINT ( 'NONE',  ( 0.000000000000000000, 7.700000000000000178, 0.000000000000000000 ) ) ;
#167 = ORIENTED_EDGE ( 'NONE', *, *, #96, .F. ) ;
#168 = DIRECTION ( 'NONE',  ( 0.000000000000000000, 0.000000000000000000, -1.000000000000000000 ) ) ;
#169 = DIRECTION ( 'NONE',  ( 1.000000000000000000, 0.000000000000000000, -1.224646799147353207E-16 ) ) ;
#170 = CLOSED_SHELL ( 'NONE', ( #497, #571, #217, #62, #89, #602, #622, #312, #126, #199, #529, #53, #16, #353, #386, #150, #160, #516, #336, #243, #389, #278, #467 ) ) ;
#171 = FACE_OUTER_BOUND ( 'NONE', #536, .T. ) ;
#172 = EDGE_CURVE ( 'NONE', #498, #119, #642, .T. ) ;
#173 = CARTESIAN_POINT ( 'NONE',  ( 0.000000000000000000, 6.000000000000000000, -3.500000000000000888 ) ) ;
#174 = DIRECTION ( 'NONE',  ( -0.000000000000000000, -1.000000000000000000, -0.000000000000000000 ) ) ;
#175 = DIRECTION ( 'NONE',  ( 0.000000000000000000, 0.000000000000000000, -1.000000000000000000 ) ) ;
#176 = DIRECTION ( 'NONE',  ( 0.000000000000000000, 0.000000000000000000, -1.000000000000000000 ) ) ;
#177 = CIRCLE ( 'NONE', #617, 1.500000000000000000 ) ;
#178 = PLANE ( 'NONE',  #282 ) ;
#179 = ORIENTED_EDGE ( 'NONE', *, *, #416, .F. ) ;
#180 = FACE_OUTER_BOUND ( 'NONE', #384, .T. ) ;
#181 = DIRECTION ( 'NONE',  ( -0.000000000000000000, 1.000000000000000000, 0.000000000000000000 ) ) ;
#182 = ORIENTED_EDGE ( 'NONE', *, *, #489, .T. ) ;
#183 = EDGE_CURVE ( 'NONE', #32, #36, #13, .T. ) ;
#184 = AXIS2_PLACEMENT_3D ( 'NONE', #573, #528, #70 ) ;
#185 = CARTESIAN_POINT ( 'NONE',  ( 1.093118657321079453E-17, 7.700000000000001954, 1.732050807568877415 ) ) ;
#186 = ORIENTED_EDGE ( 'NONE', *, *, #218, .T. ) ;
#187 = ORIENTED_EDGE ( 'NONE', *, *, #610, .F. ) ;
#188 = DIRECTION ( 'NONE',  ( 0.000000000000000000, 0.000000000000000000, 1.000000000000000000 ) ) ;
#189 = AXIS2_PLACEMENT_3D ( 'NONE', #55, #512, #315 ) ;
#190 = LINE ( 'NONE', #588, #78 ) ;
#191 = CIRCLE ( 'NONE', #184, 3.300000000000000266 ) ;
#192 = DIRECTION ( 'NONE',  ( 0.8660254037844387076, -0.000000000000000000, 0.4999999999999998890 ) ) ;
#193 = VERTEX_POINT ( 'NONE', #173 ) ;
#194 = DIRECTION ( 'NONE',  ( 1.251928832280965202E-16, 0.000000000000000000, -1.000000000000000000 ) ) ;
#195 = AXIS2_PLACEMENT_3D ( 'NONE', #216, #208, #23 ) ;
#196 = PRODUCT ( 'DIN912 - M4X6', 'DIN912 - M4X6', '', ( #154 ) ) ;
#197 = EDGE_CURVE ( 'NONE', #32, #551, #374, .T. ) ;
#198 = CARTESIAN_POINT ( 'NONE',  ( -1.500000000000000000, 7.700000000000001954, -0.8660254037844391517 ) ) ;
#199 = ADVANCED_FACE ( 'NONE', ( #309 ), #73, .T. ) ;
#200 = AXIS2_PLACEMENT_3D ( 'NONE', #117, #365, #157 ) ;
#201 = CARTESIAN_POINT ( 'NONE',  ( -1.500000000000000000, 7.700000000000001954, 0.000000000000000000 ) ) ;
#202 = DIRECTION ( 'NONE',  ( -0.000000000000000000, -1.000000000000000000, -0.000000000000000000 ) ) ;
#203 = DIRECTION ( 'NONE',  ( -0.000000000000000000, -1.000000000000000000, -0.000000000000000000 ) ) ;
#204 = EDGE_LOOP ( 'NONE', ( #568, #508, #159, #331 ) ) ;
#205 = VERTEX_POINT ( 'NONE', #619 ) ;
#206 = VECTOR ( 'NONE', #636, 1000.000000000000000 ) ;
#207 = DIRECTION ( 'NONE',  ( -0.000000000000000000, -1.000000000000000000, -0.000000000000000000 ) ) ;
#208 = DIRECTION ( 'NONE',  ( -0.000000000000000000, -1.000000000000000000, -0.000000000000000000 ) ) ;
#209 = DIRECTION ( 'NONE',  ( -0.000000000000000000, -1.000000000000000000, -0.000000000000000000 ) ) ;
#210 = CARTESIAN_POINT ( 'NONE',  ( -1.500000000000000000, 7.700000000000001954, 0.8660254037844387076 ) ) ;
#211 = ORIENTED_EDGE ( 'NONE', *, *, #580, .T. ) ;
#212 = DIRECTION ( 'NONE',  ( -0.000000000000000000, -1.000000000000000000, -0.000000000000000000 ) ) ;
#213 = ORIENTED_EDGE ( 'NONE', *, *, #262, .F. ) ;
#214 = AXIS2_PLACEMENT_3D ( 'NONE', #430, #169, #115 ) ;
#215 = PRODUCT_DEFINITION_CONTEXT ( 'detailed design', #589, 'design' ) ;
#216 = CARTESIAN_POINT ( 'NONE',  ( 0.000000000000000000, 6.123233995736752477E-17, 0.000000000000000000 ) ) ;
#217 = ADVANCED_FACE ( 'NONE', ( #271 ), #27, .T. ) ;
#218 = EDGE_CURVE ( 'NONE', #36, #161, #54, .T. ) ;
#219 = CARTESIAN_POINT ( 'NONE',  ( -1.500000000000000000, 10.00000000000000178, -0.8660254037844391517 ) ) ;
#220 = DIRECTION ( 'NONE',  ( 0.000000000000000000, 0.000000000000000000, -1.000000000000000000 ) ) ;
#221 = DIRECTION ( 'NONE',  ( -0.000000000000000000, 1.000000000000000000, -0.000000000000000000 ) ) ;
#222 = ORIENTED_EDGE ( 'NONE', *, *, #275, .F. ) ;
#223 = AXIS2_PLACEMENT_3D ( 'NONE', #376, #439, #560 ) ;
#224 = DIRECTION ( 'NONE',  ( 0.000000000000000000, 0.000000000000000000, -1.000000000000000000 ) ) ;
#225 = CARTESIAN_POINT ( 'NONE',  ( 0.000000000000000000, 0.000000000000000000, 0.000000000000000000 ) ) ;
#226 = CARTESIAN_POINT ( 'NONE',  ( 0.000000000000000000, 7.700000000000000178, 0.000000000000000000 ) ) ;
#227 = ORIENTED_EDGE ( 'NONE', *, *, #361, .F. ) ;
#228 = LINE ( 'NONE', #311, #557 ) ;
#229 = ORIENTED_EDGE ( 'NONE', *, *, #112, .F. ) ;
#230 = EDGE_CURVE ( 'NONE', #343, #161, #601, .T. ) ;
#231 = CARTESIAN_POINT ( 'NONE',  ( -1.500000000000000000, 7.700000000000001954, -0.8660254037844391517 ) ) ;
#232 = ORIENTED_EDGE ( 'NONE', *, *, #547, .T. ) ;
#233 = AXIS2_PLACEMENT_3D ( 'NONE', #535, #324, #368 ) ;
#234 = ORIENTED_EDGE ( 'NONE', *, *, #88, .F. ) ;
#235 = CARTESIAN_POINT ( 'NONE',  ( 0.000000000000000000, 0.000000000000000000, -2.000000000000002665 ) ) ;
#236 = ORIENTED_EDGE ( 'NONE', *, *, #162, .F. ) ;
#237 = CARTESIAN_POINT ( 'NONE',  ( 0.000000000000000000, 7.700000000000001954, 0.000000000000000000 ) ) ;
#238 = ORIENTED_EDGE ( 'NONE', *, *, #406, .T. ) ;
#239 = FACE_OUTER_BOUND ( 'NONE', #204, .T. ) ;
#240 =( NAMED_UNIT ( * ) PLANE_ANGLE_UNIT ( ) SI_UNIT ( $, .RADIAN. ) );
#241 = CARTESIAN_POINT ( 'NONE',  ( 1.500000000000000000, 7.700000000000001954, -0.8660254037844391517 ) ) ;
#242 = APPLICATION_PROTOCOL_DEFINITION ( 'draft international standard', 'automotive_design', 1998, #589 ) ;
#243 = ADVANCED_FACE ( 'NONE', ( #509 ), #252, .F. ) ;
#244 = CIRCLE ( 'NONE', #633, 1.500000000000000000 ) ;
#245 = CARTESIAN_POINT ( 'NONE',  ( 0.000000000000000000, 9.799999999999998934, -3.300000000000000266 ) ) ;
#246 = CIRCLE ( 'NONE', #333, 3.300000000000000266 ) ;
#247 = CARTESIAN_POINT ( 'NONE',  ( 0.000000000000000000, 7.700000000000000178, 0.000000000000000000 ) ) ;
#248 = VECTOR ( 'NONE', #629, 1000.000000000000000 ) ;
#249 = PRODUCT_DEFINITION_SHAPE ( 'NONE', 'NONE',  #458 ) ;
#250 = DIRECTION ( 'NONE',  ( 0.000000000000000000, 0.000000000000000000, -1.000000000000000000 ) ) ;
#251 = CIRCLE ( 'NONE', #145, 0.2000000000000013989 ) ;
#252 = PLANE ( 'NONE',  #511 ) ;
#253 = DIRECTION ( 'NONE',  ( 1.251928832280965202E-16, 0.000000000000000000, -1.000000000000000000 ) ) ;
#254 = AXIS2_PLACEMENT_3D ( 'NONE', #33, #396, #338 ) ;
#255 = EDGE_CURVE ( 'NONE', #106, #445, #26, .T. ) ;
#256 = EDGE_LOOP ( 'NONE', ( #616, #182 ) ) ;
#257 = CARTESIAN_POINT ( 'NONE',  ( -1.500000000000000000, 7.700000000000001954, 0.8660254037844387076 ) ) ;
#258 = VERTEX_POINT ( 'NONE', #47 ) ;
#259 = AXIS2_PLACEMENT_3D ( 'NONE', #615, #363, #224 ) ;
#260 = FACE_OUTER_BOUND ( 'NONE', #277, .T. ) ;
#261 = SURFACE_SIDE_STYLE ('',( #279 ) ) ;
#262 = EDGE_CURVE ( 'NONE', #258, #644, #246, .T. ) ;
#263 = VERTEX_POINT ( 'NONE', #457 ) ;
#264 = DIRECTION ( 'NONE',  ( 0.000000000000000000, 0.000000000000000000, -1.000000000000000000 ) ) ;
#265 = ORIENTED_EDGE ( 'NONE', *, *, #41, .F. ) ;
#266 = EDGE_CURVE ( 'NONE', #193, #263, #590, .T. ) ;
#267 = CARTESIAN_POINT ( 'NONE',  ( -1.500000000000000000, 7.700000000000001954, -0.8660254037844391517 ) ) ;
#268 = CIRCLE ( 'NONE', #564, 1.500000000000000000 ) ;
#269 = CARTESIAN_POINT ( 'NONE',  ( 1.875000000000000222, 10.00000000000000178, -0.6495190528383294470 ) ) ;
#270 = CARTESIAN_POINT ( 'NONE',  ( 1.500000000000000000, 7.700000000000001954, -0.8660254037844391517 ) ) ;
#271 = FACE_OUTER_BOUND ( 'NONE', #510, .T. ) ;
#272 = DIRECTION ( 'NONE',  ( -0.000000000000000000, -1.000000000000000000, -0.000000000000000000 ) ) ;
#273 = EDGE_LOOP ( 'NONE', ( #517, #412, #473, #388, #156 ) ) ;
#274 = VERTEX_POINT ( 'NONE', #198 ) ;
#275 = EDGE_CURVE ( 'NONE', #205, #348, #58, .T. ) ;
#276 = DIRECTION ( 'NONE',  ( 1.251928832280965202E-16, 0.000000000000000000, -1.000000000000000000 ) ) ;
#277 = EDGE_LOOP ( 'NONE', ( #364, #592, #399, #514, #37, #593 ) ) ;
#278 = ADVANCED_FACE ( 'NONE', ( #402 ), #158, .T. ) ;
#279 = SURFACE_STYLE_FILL_AREA ( #624 ) ;
#280 = EDGE_LOOP ( 'NONE', ( #355, #468, #124 ) ) ;
#281 = CIRCLE ( 'NONE', #81, 3.500000000000000888 ) ;
#282 = AXIS2_PLACEMENT_3D ( 'NONE', #69, #433, #472 ) ;
#283 = CARTESIAN_POINT ( 'NONE',  ( 0.000000000000000000, 7.700000000000000178, 0.000000000000000000 ) ) ;
#284 = ORIENTED_EDGE ( 'NONE', *, *, #344, .T. ) ;
#285 = VERTEX_POINT ( 'NONE', #358 ) ;
#286 = DIRECTION ( 'NONE',  ( 0.000000000000000000, -0.000000000000000000, 1.000000000000000000 ) ) ;
#287 = VECTOR ( 'NONE', #423, 1000.000000000000000 ) ;
#288 = ORIENTED_EDGE ( 'NONE', *, *, #547, .F. ) ;
#289 = DIRECTION ( 'NONE',  ( -0.8660254037844387076, 0.000000000000000000, 0.4999999999999998335 ) ) ;
#290 = EDGE_CURVE ( 'NONE', #445, #299, #108, .T. ) ;
#291 = EDGE_LOOP ( 'NONE', ( #236, #151 ) ) ;
#292 = LINE ( 'NONE', #185, #598 ) ;
#293 = STYLED_ITEM ( 'NONE', ( #125 ), #71 ) ;
#294 = EDGE_CURVE ( 'NONE', #498, #136, #553, .T. ) ;
#295 = ORIENTED_EDGE ( 'NONE', *, *, #290, .T. ) ;
#296 = DIRECTION ( 'NONE',  ( 0.000000000000000000, -1.000000000000000000, -0.000000000000000000 ) ) ;
#297 = FACE_OUTER_BOUND ( 'NONE', #86, .T. ) ;
#298 = CARTESIAN_POINT ( 'NONE',  ( 1.875000000000000444, 10.00000000000000178, 0.6495190528383297801 ) ) ;
#299 = VERTEX_POINT ( 'NONE', #307 ) ;
#300 = DIRECTION ( 'NONE',  ( -0.8660254037844387076, 0.000000000000000000, -0.4999999999999998890 ) ) ;
#301 = EDGE_LOOP ( 'NONE', ( #284, #431, #211, #232 ) ) ;
#302 = AXIS2_PLACEMENT_3D ( 'NONE', #131, #79, #533 ) ;
#303 = DIRECTION ( 'NONE',  ( -0.8660254037844385966, 0.000000000000000000, -0.4999999999999998890 ) ) ;
#304 = EDGE_LOOP ( 'NONE', ( #213, #640 ) ) ;
#305 = ORIENTED_EDGE ( 'NONE', *, *, #255, .T. ) ;
#306 = CARTESIAN_POINT ( 'NONE',  ( 0.000000000000000000, 6.000000000000000000, 0.000000000000000000 ) ) ;
#307 = CARTESIAN_POINT ( 'NONE',  ( 1.093118657321079453E-17, 7.700000000000001954, 1.732050807568877415 ) ) ;
#308 = VECTOR ( 'NONE', #646, 1000.000000000000000 ) ;
#309 = FACE_OUTER_BOUND ( 'NONE', #639, .T. ) ;
#310 = CARTESIAN_POINT ( 'NONE',  ( 1.093118657321079453E-17, 7.700000000000001954, 1.732050807568877415 ) ) ;
#311 = CARTESIAN_POINT ( 'NONE',  ( 0.000000000000000000, 7.700000000000000178, 1.500000000000000000 ) ) ;
#312 = ADVANCED_FACE ( 'NONE', ( #548 ), #153, .T. ) ;
#313 = AXIS2_PLACEMENT_3D ( 'NONE', #518, #209, #419 ) ;
#314 = DIRECTION ( 'NONE',  ( 0.000000000000000000, 0.000000000000000000, 1.000000000000000000 ) ) ;
#315 = DIRECTION ( 'NONE',  ( 0.000000000000000000, -0.000000000000000000, 1.000000000000000000 ) ) ;
#316 = ORIENTED_EDGE ( 'NONE', *, *, #294, .F. ) ;
#317 = CARTESIAN_POINT ( 'NONE',  ( 0.000000000000000000, 7.700000000000000178, 0.000000000000000000 ) ) ;
#318 = DIRECTION ( 'NONE',  ( 0.000000000000000000, 0.000000000000000000, 1.000000000000000000 ) ) ;
#319 = ORIENTED_EDGE ( 'NONE', *, *, #326, .F. ) ;
#320 =( LENGTH_UNIT ( ) NAMED_UNIT ( * ) SI_UNIT ( .MILLI., .METRE. ) );
#321 = DIRECTION ( 'NONE',  ( -0.000000000000000000, 1.000000000000000000, -0.000000000000000000 ) ) ;
#322 = CARTESIAN_POINT ( 'NONE',  ( 0.000000000000000000, 7.700000000000000178, 0.000000000000000000 ) ) ;
#323 = ORIENTED_EDGE ( 'NONE', *, *, #31, .T. ) ;
#324 = DIRECTION ( 'NONE',  ( -0.000000000000000000, -1.000000000000000000, -0.000000000000000000 ) ) ;
#325 = CARTESIAN_POINT ( 'NONE',  ( 0.000000000000000000, 7.700000000000000178, 0.000000000000000000 ) ) ;
#326 = EDGE_CURVE ( 'NONE', #382, #445, #546, .T. ) ;
#327 = PLANE ( 'NONE',  #38 ) ;
#328 = ORIENTED_EDGE ( 'NONE', *, *, #647, .T. ) ;
#329 = DIRECTION ( 'NONE',  ( -0.000000000000000000, -1.000000000000000000, -0.000000000000000000 ) ) ;
#330 = VERTEX_POINT ( 'NONE', #105 ) ;
#331 = ORIENTED_EDGE ( 'NONE', *, *, #623, .F. ) ;
#332 = AXIS2_PLACEMENT_3D ( 'NONE', #226, #519, #318 ) ;
#333 = AXIS2_PLACEMENT_3D ( 'NONE', #6, #607, #351 ) ;
#334 = VECTOR ( 'NONE', #163, 1000.000000000000000 ) ;
#335 = CARTESIAN_POINT ( 'NONE',  ( 0.000000000000000000, 6.123233995736752477E-17, -2.000000000000004441 ) ) ;
#336 = ADVANCED_FACE ( 'NONE', ( #297 ), #507, .F. ) ;
#337 = EDGE_CURVE ( 'NONE', #59, #330, #102, .T. ) ;
#338 = DIRECTION ( 'NONE',  ( 0.000000000000000000, 0.000000000000000000, -1.000000000000000000 ) ) ;
#339 = ORIENTED_EDGE ( 'NONE', *, *, #57, .F. ) ;
#340 = DIRECTION ( 'NONE',  ( -0.000000000000000000, -1.000000000000000000, -0.000000000000000000 ) ) ;
#341 = AXIS2_PLACEMENT_3D ( 'NONE', #237, #181, #40 ) ;
#342 = TOROIDAL_SURFACE ( 'NONE', #254, 3.300000000000000266, 0.2000000000000013989 ) ;
#343 = VERTEX_POINT ( 'NONE', #459 ) ;
#344 = EDGE_CURVE ( 'NONE', #36, #56, #555, .T. ) ;
#345 = DIRECTION ( 'NONE',  ( -0.000000000000000000, -1.000000000000000000, -0.000000000000000000 ) ) ;
#346 = VECTOR ( 'NONE', #321, 1000.000000000000000 ) ;
#347 = CARTESIAN_POINT ( 'NONE',  ( -1.500000000000000000, 7.700000000000001954, 0.8660254037844387076 ) ) ;
#348 = VERTEX_POINT ( 'NONE', #5 ) ;
#349 = VERTEX_POINT ( 'NONE', #201 ) ;
#350 =( LENGTH_UNIT ( ) NAMED_UNIT ( * ) SI_UNIT ( .MILLI., .METRE. ) );
#351 = DIRECTION ( 'NONE',  ( 0.000000000000000000, 0.000000000000000000, -1.000000000000000000 ) ) ;
#352 = ORIENTED_EDGE ( 'NONE', *, *, #569, .T. ) ;
#353 = ADVANCED_FACE ( 'NONE', ( #410 ), #655, .T. ) ;
#354 = DIRECTION ( 'NONE',  ( 0.4999999999999998890, 0.000000000000000000, -0.8660254037844387076 ) ) ;
#355 = ORIENTED_EDGE ( 'NONE', *, *, #637, .T. ) ;
#356 = APPLICATION_CONTEXT ( 'automotive_design' ) ;
#357 = FACE_OUTER_BOUND ( 'NONE', #635, .T. ) ;
#358 = CARTESIAN_POINT ( 'NONE',  ( 0.000000000000000000, 6.833974596215567132, 0.000000000000000000 ) ) ;
#359 = CARTESIAN_POINT ( 'NONE',  ( 1.836970198721029934E-16, 7.700000000000000178, -1.500000000000000000 ) ) ;
#360 = AXIS2_PLACEMENT_3D ( 'NONE', #310, #20, #378 ) ;
#361 = EDGE_CURVE ( 'NONE', #348, #551, #130, .T. ) ;
#362 = CIRCLE ( 'NONE', #214, 0.2000000000000013989 ) ;
#363 = DIRECTION ( 'NONE',  ( 0.000000000000000000, -1.000000000000000000, -0.000000000000000000 ) ) ;
#364 = ORIENTED_EDGE ( 'NONE', *, *, #39, .F. ) ;
#365 = DIRECTION ( 'NONE',  ( -0.4999999999999998890, 0.000000000000000000, 0.8660254037844387076 ) ) ;
#366 = DIRECTION ( 'NONE',  ( 0.000000000000000000, 1.000000000000000000, 0.000000000000000000 ) ) ;
#367 = EDGE_LOOP ( 'NONE', ( #339, #492, #146, #265, #641, #288 ) ) ;
#368 = DIRECTION ( 'NONE',  ( 0.000000000000000000, 0.000000000000000000, -1.000000000000000000 ) ) ;
#369 = VECTOR ( 'NONE', #627, 1000.000000000000000 ) ;
#370 = UNCERTAINTY_MEASURE_WITH_UNIT (LENGTH_MEASURE( 1.000000000000000082E-05 ), #320, 'distance_accuracy_value', 'NONE');
#371 = DIRECTION ( 'NONE',  ( -1.000000000000000000, 0.000000000000000000, 0.000000000000000000 ) ) ;
#372 = CARTESIAN_POINT ( 'NONE',  ( 2.565437599681345918E-16, 7.700000000000001954, -1.732050807568877637 ) ) ;
#373 = FILL_AREA_STYLE_COLOUR ( '', #481 ) ;
#374 = LINE ( 'NONE', #127, #346 ) ;
#375 = DIRECTION ( 'NONE',  ( -0.000000000000000000, -1.000000000000000000, -0.000000000000000000 ) ) ;
#376 = CARTESIAN_POINT ( 'NONE',  ( 0.000000000000000000, 7.700000000000000178, 0.000000000000000000 ) ) ;
#377 = EDGE_CURVE ( 'NONE', #445, #349, #268, .T. ) ;
#378 = DIRECTION ( 'NONE',  ( 0.8660254037844388186, 0.000000000000000000, -0.4999999999999997224 ) ) ;
#379 = CARTESIAN_POINT ( 'NONE',  ( 0.000000000000000000, 7.700000000000001954, 0.000000000000000000 ) ) ;
#380 = CIRCLE ( 'NONE', #302, 3.500000000000001776 ) ;
#381 = CARTESIAN_POINT ( 'NONE',  ( 0.3750000000000003331, 10.00000000000000178, -1.948557158514987231 ) ) ;
#382 = VERTEX_POINT ( 'NONE', #210 ) ;
#383 = ORIENTED_EDGE ( 'NONE', *, *, #654, .T. ) ;
#384 = EDGE_LOOP ( 'NONE', ( #540, #404, #34, #651 ) ) ;
#385 = FACE_OUTER_BOUND ( 'NONE', #549, .T. ) ;
#386 = ADVANCED_FACE ( 'NONE', ( #29 ), #178, .T. ) ;
#387 = ORIENTED_EDGE ( 'NONE', *, *, #502, .F. ) ;
#388 = ORIENTED_EDGE ( 'NONE', *, *, #480, .F. ) ;
#389 = ADVANCED_FACE ( 'NONE', ( #634 ), #576, .F. ) ;
#390 = VECTOR ( 'NONE', #401, 1000.000000000000227 ) ;
#391 = DIRECTION ( 'NONE',  ( -0.000000000000000000, -1.000000000000000000, -0.000000000000000000 ) ) ;
#392 = ORIENTED_EDGE ( 'NONE', *, *, #149, .T. ) ;
#393 = DIRECTION ( 'NONE',  ( 0.000000000000000000, 0.000000000000000000, -1.000000000000000000 ) ) ;
#394 = VECTOR ( 'NONE', #22, 1000.000000000000000 ) ;
#395 = ORIENTED_EDGE ( 'NONE', *, *, #594, .F. ) ;
#396 = DIRECTION ( 'NONE',  ( -0.000000000000000000, -1.000000000000000000, -0.000000000000000000 ) ) ;
#397 = CIRCLE ( 'NONE', #50, 1.500000000000000000 ) ;
#398 = EDGE_CURVE ( 'NONE', #382, #582, #61, .T. ) ;
#399 = ORIENTED_EDGE ( 'NONE', *, *, #580, .F. ) ;
#400 = FACE_BOUND ( 'NONE', #291, .T. ) ;
#401 = DIRECTION ( 'NONE',  ( 0.8660254037844385966, 0.000000000000000000, 0.4999999999999998890 ) ) ;
#402 = FACE_OUTER_BOUND ( 'NONE', #522, .T. ) ;
#403 = ORIENTED_EDGE ( 'NONE', *, *, #183, .F. ) ;
#404 = ORIENTED_EDGE ( 'NONE', *, *, #444, .T. ) ;
#405 = CARTESIAN_POINT ( 'NONE',  ( 0.000000000000000000, 6.000000000000000000, 0.000000000000000000 ) ) ;
#406 = EDGE_CURVE ( 'NONE', #597, #343, #579, .T. ) ;
#407 = DIRECTION ( 'NONE',  ( -0.000000000000000000, 1.000000000000000000, -0.000000000000000000 ) ) ;
#408 = EDGE_CURVE ( 'NONE', #583, #136, #658, .T. ) ;
#409 = CARTESIAN_POINT ( 'NONE',  ( -1.500000000000000000, 7.700000000000001954, 0.8660254037844387076 ) ) ;
#410 = FACE_OUTER_BOUND ( 'NONE', #447, .T. ) ;
#411 = ORIENTED_EDGE ( 'NONE', *, *, #444, .F. ) ;
#412 = ORIENTED_EDGE ( 'NONE', *, *, #569, .F. ) ;
#413 = EDGE_LOOP ( 'NONE', ( #630, #561, #227, #222, #187, #179 ) ) ;
#414 = DIRECTION ( 'NONE',  ( -0.8660254037844385966, 0.000000000000000000, -0.4999999999999998890 ) ) ;
#415 = LINE ( 'NONE', #614, #334 ) ;
#416 = EDGE_CURVE ( 'NONE', #101, #582, #415, .T. ) ;
#417 = CARTESIAN_POINT ( 'NONE',  ( -0.7499999999999998890, 7.700000000000001954, -1.299038105676658450 ) ) ;
#418 = ORIENTED_EDGE ( 'NONE', *, *, #112, .T. ) ;
#419 = DIRECTION ( 'NONE',  ( 0.000000000000000000, 0.000000000000000000, -1.000000000000000000 ) ) ;
#420 = LINE ( 'NONE', #74, #562 ) ;
#421 = ORIENTED_EDGE ( 'NONE', *, *, #337, .T. ) ;
#422 = VECTOR ( 'NONE', #67, 1000.000000000000000 ) ;
#423 = DIRECTION ( 'NONE',  ( -0.000000000000000000, -1.000000000000000000, -0.000000000000000000 ) ) ;
#424 = DIRECTION ( 'NONE',  ( -0.000000000000000000, -1.000000000000000000, -0.000000000000000000 ) ) ;
#425 = DIRECTION ( 'NONE',  ( 0.8660254037844388186, 0.000000000000000000, -0.4999999999999997224 ) ) ;
#426 = ORIENTED_EDGE ( 'NONE', *, *, #197, .T. ) ;
#427 = CARTESIAN_POINT ( 'NONE',  ( 2.565437599681345918E-16, 7.700000000000001954, -1.732050807568877637 ) ) ;
#428 = VECTOR ( 'NONE', #194, 1000.000000000000000 ) ;
#429 = CARTESIAN_POINT ( 'NONE',  ( 0.000000000000000000, 6.000000000000000000, 0.000000000000000000 ) ) ;
#430 = CARTESIAN_POINT ( 'NONE',  ( 4.041334437186266003E-16, 9.799999999999998934, 3.300000000000000266 ) ) ;
#431 = ORIENTED_EDGE ( 'NONE', *, *, #104, .T. ) ;
#432 = CARTESIAN_POINT ( 'NONE',  ( 0.000000000000000000, 7.700000000000000178, 1.500000000000000000 ) ) ;
#433 = DIRECTION ( 'NONE',  ( -0.000000000000000000, 1.000000000000000000, 0.000000000000000000 ) ) ;
#434 = ORIENTED_EDGE ( 'NONE', *, *, #408, .T. ) ;
#435 =( GEOMETRIC_REPRESENTATION_CONTEXT ( 3 ) GLOBAL_UNCERTAINTY_ASSIGNED_CONTEXT ( ( #121 ) ) GLOBAL_UNIT_ASSIGNED_CONTEXT ( ( #350, #240, #608 ) ) REPRESENTATION_CONTEXT ( 'NONE', 'WORKASPACE' ) );
#436 = DIRECTION ( 'NONE',  ( 0.000000000000000000, 0.4999999999999976130, 0.8660254037844400399 ) ) ;
#437 = CARTESIAN_POINT ( 'NONE',  ( 4.163799117101002038E-16, 10.00000000000000178, 3.300000000000000266 ) ) ;
#438 = ORIENTED_EDGE ( 'NONE', *, *, #558, .F. ) ;
#439 = DIRECTION ( 'NONE',  ( -0.000000000000000000, -1.000000000000000000, -0.000000000000000000 ) ) ;
#440 = ORIENTED_EDGE ( 'NONE', *, *, #344, .F. ) ;
#441 = ORIENTED_EDGE ( 'NONE', *, *, #230, .T. ) ;
#442 = AXIS2_PLACEMENT_3D ( 'NONE', #152, #296, #499 ) ;
#443 = CYLINDRICAL_SURFACE ( 'NONE', #7, 2.000000000000002665 ) ;
#444 = EDGE_CURVE ( 'NONE', #644, #330, #362, .T. ) ;
#445 = VERTEX_POINT ( 'NONE', #123 ) ;
#446 = PLANE ( 'NONE',  #49 ) ;
#447 = EDGE_LOOP ( 'NONE', ( #586, #648, #383 ) ) ;
#448 = DIRECTION ( 'NONE',  ( -0.8660254037844387076, 0.000000000000000000, 0.4999999999999998335 ) ) ;
#449 = ORIENTED_EDGE ( 'NONE', *, *, #637, .F. ) ;
#450 = LINE ( 'NONE', #652, #563 ) ;
#451 = EDGE_CURVE ( 'NONE', #551, #133, #14, .T. ) ;
#452 = DIRECTION ( 'NONE',  ( 0.000000000000000000, 0.000000000000000000, -1.000000000000000000 ) ) ;
#453 = PRODUCT_DEFINITION_FORMATION_WITH_SPECIFIED_SOURCE ( 'ANY', '', #196, .NOT_KNOWN. ) ;
#454 = AXIS2_PLACEMENT_3D ( 'NONE', #515, #99, #250 ) ;
#455 = VERTEX_POINT ( 'NONE', #359 ) ;
#456 = SHAPE_DEFINITION_REPRESENTATION ( #249, #605 ) ;
#457 = CARTESIAN_POINT ( 'NONE',  ( 4.286263797015737088E-16, 6.000000000000000000, 3.500000000000000888 ) ) ;
#458 = PRODUCT_DEFINITION ( 'UNKNOWN', '', #453, #215 ) ;
#459 = CARTESIAN_POINT ( 'NONE',  ( 1.499999999999999778, 7.700000000000001954, 0.8660254037844394848 ) ) ;
#460 = ORIENTED_EDGE ( 'NONE', *, *, #451, .T. ) ;
#461 = TOROIDAL_SURFACE ( 'NONE', #233, 3.300000000000000266, 0.2000000000000013989 ) ;
#462 = ORIENTED_EDGE ( 'NONE', *, *, #290, .F. ) ;
#463 = CARTESIAN_POINT ( 'NONE',  ( 1.499999999999999778, 7.700000000000001954, 0.8660254037844394848 ) ) ;
#464 = APPLICATION_PROTOCOL_DEFINITION ( 'draft international standard', 'automotive_design', 1998, #356 ) ;
#465 = VECTOR ( 'NONE', #188, 1000.000000000000000 ) ;
#466 = DIRECTION ( 'NONE',  ( -0.000000000000000000, 1.000000000000000000, 0.000000000000000000 ) ) ;
#467 = ADVANCED_FACE ( 'NONE', ( #531 ), #506, .F. ) ;
#468 = ORIENTED_EDGE ( 'NONE', *, *, #326, .T. ) ;
#469 = DIRECTION ( 'NONE',  ( 1.251928832280965202E-16, 0.000000000000000000, -1.000000000000000000 ) ) ;
#470 = VECTOR ( 'NONE', #407, 1000.000000000000000 ) ;
#471 = ORIENTED_EDGE ( 'NONE', *, *, #88, .T. ) ;
#472 = DIRECTION ( 'NONE',  ( 0.000000000000000000, -0.000000000000000000, 1.000000000000000000 ) ) ;
#473 = ORIENTED_EDGE ( 'NONE', *, *, #406, .F. ) ;
#474 =( NAMED_UNIT ( * ) PLANE_ANGLE_UNIT ( ) SI_UNIT ( $, .RADIAN. ) );
#475 = ORIENTED_EDGE ( 'NONE', *, *, #610, .T. ) ;
#476 = FACE_OUTER_BOUND ( 'NONE', #45, .T. ) ;
#477 = VECTOR ( 'NONE', #303, 1000.000000000000227 ) ;
#478 = FACE_OUTER_BOUND ( 'NONE', #18, .T. ) ;
#479 = CARTESIAN_POINT ( 'NONE',  ( 1.093118657321079453E-17, 7.700000000000001954, 1.732050807568877415 ) ) ;
#480 = EDGE_CURVE ( 'NONE', #299, #597, #420, .T. ) ;
#481 = COLOUR_RGB ( '',0.7921568627450980005, 0.8196078431372548767, 0.9333333333333333481 ) ;
#482 = DIRECTION ( 'NONE',  ( 0.8660254037844388186, 0.000000000000000000, -0.4999999999999997224 ) ) ;
#483 = FACE_OUTER_BOUND ( 'NONE', #301, .T. ) ;
#484 = DIRECTION ( 'NONE',  ( -0.000000000000000000, 1.000000000000000000, 0.000000000000000000 ) ) ;
#485 = LINE ( 'NONE', #231, #465 ) ;
#486 = CIRCLE ( 'NONE', #503, 1.500000000000000000 ) ;
#487 = PLANE ( 'NONE',  #259 ) ;
#488 = VECTOR ( 'NONE', #221, 1000.000000000000000 ) ;
#489 = EDGE_CURVE ( 'NONE', #263, #193, #281, .T. ) ;
#490 = DIRECTION ( 'NONE',  ( -0.000000000000000000, -1.000000000000000000, -0.000000000000000000 ) ) ;
#491 = ORIENTED_EDGE ( 'NONE', *, *, #537, .F. ) ;
#492 = ORIENTED_EDGE ( 'NONE', *, *, #39, .T. ) ;
#493 = FACE_OUTER_BOUND ( 'NONE', #613, .T. ) ;
#494 = EDGE_LOOP ( 'NONE', ( #87, #591, #449, #167, #98 ) ) ;
#495 = DIRECTION ( 'NONE',  ( 0.000000000000000000, 0.000000000000000000, -1.000000000000000000 ) ) ;
#496 = CARTESIAN_POINT ( 'NONE',  ( 1.500000000000000000, 10.00000000000000178, 0.000000000000000000 ) ) ;
#497 = ADVANCED_FACE ( 'NONE', ( #260 ), #538, .F. ) ;
#498 = VERTEX_POINT ( 'NONE', #118 ) ;
#499 = DIRECTION ( 'NONE',  ( 0.000000000000000000, 0.000000000000000000, -1.000000000000000000 ) ) ;
#500 = DIRECTION ( 'NONE',  ( -0.000000000000000000, -1.000000000000000000, -0.000000000000000000 ) ) ;
#501 = CARTESIAN_POINT ( 'NONE',  ( 2.565437599681345918E-16, 7.700000000000001954, -1.732050807568877637 ) ) ;
#502 = EDGE_CURVE ( 'NONE', #274, #101, #128, .T. ) ;
#503 = AXIS2_PLACEMENT_3D ( 'NONE', #322, #272, #264 ) ;
#504 = VECTOR ( 'NONE', #111, 1000.000000000000000 ) ;
#505 = EDGE_CURVE ( 'NONE', #597, #106, #486, .T. ) ;
#506 = CONICAL_SURFACE ( 'NONE', #332, 1.500000000000000000, 1.047197551196600518 ) ;
#507 = PLANE ( 'NONE',  #164 ) ;
#508 = ORIENTED_EDGE ( 'NONE', *, *, #294, .T. ) ;
#509 = FACE_OUTER_BOUND ( 'NONE', #532, .T. ) ;
#510 = EDGE_LOOP ( 'NONE', ( #421, #392, #109, #77 ) ) ;
#511 = AXIS2_PLACEMENT_3D ( 'NONE', #612, #1, #253 ) ;
#512 = DIRECTION ( 'NONE',  ( -0.000000000000000000, 1.000000000000000000, 0.000000000000000000 ) ) ;
#513 = ORIENTED_EDGE ( 'NONE', *, *, #489, .F. ) ;
#514 = ORIENTED_EDGE ( 'NONE', *, *, #654, .F. ) ;
#515 = CARTESIAN_POINT ( 'NONE',  ( 0.000000000000000000, 9.799999999999998934, 0.000000000000000000 ) ) ;
#516 = ADVANCED_FACE ( 'NONE', ( #476 ), #626, .F. ) ;
#517 = ORIENTED_EDGE ( 'NONE', *, *, #275, .T. ) ;
#518 = CARTESIAN_POINT ( 'NONE',  ( 0.000000000000000000, 0.000000000000000000, 0.000000000000000000 ) ) ;
#519 = DIRECTION ( 'NONE',  ( 0.000000000000000000, 1.000000000000000000, 0.000000000000000000 ) ) ;
#520 = DIRECTION ( 'NONE',  ( 0.000000000000000000, -0.000000000000000000, 1.000000000000000000 ) ) ;
#521 = AXIS2_PLACEMENT_3D ( 'NONE', #9, #371, #314 ) ;
#522 = EDGE_LOOP ( 'NONE', ( #295, #165, #621, #305 ) ) ;
#523 = CARTESIAN_POINT ( 'NONE',  ( -1.500000000000000000, 7.700000000000001954, -0.8660254037844391517 ) ) ;
#524 = ORIENTED_EDGE ( 'NONE', *, *, #104, .F. ) ;
#525 = CARTESIAN_POINT ( 'NONE',  ( 0.000000000000000000, 9.799999999999998934, -3.500000000000001776 ) ) ;
#526 = PLANE ( 'NONE',  #521 ) ;
#527 = DIRECTION ( 'NONE',  ( -0.8660254037844387076, 0.000000000000000000, 0.4999999999999998335 ) ) ;
#528 = DIRECTION ( 'NONE',  ( -0.000000000000000000, -1.000000000000000000, -0.000000000000000000 ) ) ;
#529 = ADVANCED_FACE ( 'NONE', ( #385 ), #93, .T. ) ;
#530 = DIRECTION ( 'NONE',  ( 0.000000000000000000, 0.000000000000000000, 1.000000000000000000 ) ) ;
#531 = FACE_OUTER_BOUND ( 'NONE', #367, .T. ) ;
#532 = EDGE_LOOP ( 'NONE', ( #66, #653, #395, #604, #352 ) ) ;
#533 = DIRECTION ( 'NONE',  ( 0.000000000000000000, 0.000000000000000000, -1.000000000000000000 ) ) ;
#534 = LINE ( 'NONE', #138, #113 ) ;
#535 = CARTESIAN_POINT ( 'NONE',  ( 0.000000000000000000, 9.799999999999998934, 0.000000000000000000 ) ) ;
#536 = EDGE_LOOP ( 'NONE', ( #434, #80 ) ) ;
#537 = EDGE_CURVE ( 'NONE', #299, #205, #292, .T. ) ;
#538 = CONICAL_SURFACE ( 'NONE', #48, 1.500000000000000000, 1.047197551196600518 ) ;
#539 = AXIS2_PLACEMENT_3D ( 'NONE', #603, #466, #144 ) ;
#540 = ORIENTED_EDGE ( 'NONE', *, *, #262, .T. ) ;
#541 = CARTESIAN_POINT ( 'NONE',  ( -1.500000000000000000, 10.00000000000000178, 0.8660254037844387076 ) ) ;
#542 = CARTESIAN_POINT ( 'NONE',  ( 0.000000000000000000, 7.700000000000000178, 0.000000000000000000 ) ) ;
#543 = LINE ( 'NONE', #94, #575 ) ;
#544 = VECTOR ( 'NONE', #289, 1000.000000000000114 ) ;
#545 = PRESENTATION_LAYER_ASSIGNMENT (  '', '', ( #293 ) ) ;
#546 = LINE ( 'NONE', #409, #390 ) ;
#547 = EDGE_CURVE ( 'NONE', #455, #36, #397, .T. ) ;
#548 = FACE_OUTER_BOUND ( 'NONE', #135, .T. ) ;
#549 = EDGE_LOOP ( 'NONE', ( #238, #441, #15 ) ) ;
#550 = VECTOR ( 'NONE', #469, 1000.000000000000000 ) ;
#551 = VERTEX_POINT ( 'NONE', #585 ) ;
#552 = CARTESIAN_POINT ( 'NONE',  ( 2.565437599681345918E-16, 10.00000000000000178, -1.732050807568877637 ) ) ;
#553 = LINE ( 'NONE', #8, #84 ) ;
#554 = FACE_OUTER_BOUND ( 'NONE', #256, .T. ) ;
#555 = LINE ( 'NONE', #241, #477 ) ;
#556 = ORIENTED_EDGE ( 'NONE', *, *, #594, .T. ) ;
#557 = VECTOR ( 'NONE', #436, 1000.000000000000000 ) ;
#558 = EDGE_CURVE ( 'NONE', #60, #274, #190, .T. ) ;
#559 = FACE_OUTER_BOUND ( 'NONE', #494, .T. ) ;
#560 = DIRECTION ( 'NONE',  ( 0.000000000000000000, 0.000000000000000000, -1.000000000000000000 ) ) ;
#561 = ORIENTED_EDGE ( 'NONE', *, *, #451, .F. ) ;
#562 = VECTOR ( 'NONE', #425, 1000.000000000000000 ) ;
#563 = VECTOR ( 'NONE', #192, 1000.000000000000000 ) ;
#564 = AXIS2_PLACEMENT_3D ( 'NONE', #325, #375, #10 ) ;
#565 = CARTESIAN_POINT ( 'NONE',  ( 1.500000000000000000, 10.00000000000000178, -1.357343959756263019E-32 ) ) ;
#566 = LINE ( 'NONE', #267, #394 ) ;
#567 = DIRECTION ( 'NONE',  ( 0.000000000000000000, 0.000000000000000000, 1.000000000000000000 ) ) ;
#568 = ORIENTED_EDGE ( 'NONE', *, *, #162, .T. ) ;
#569 = EDGE_CURVE ( 'NONE', #343, #348, #534, .T. ) ;
#570 = VECTOR ( 'NONE', #414, 1000.000000000000227 ) ;
#571 = ADVANCED_FACE ( 'NONE', ( #239 ), #443, .T. ) ;
#572 = DIRECTION ( 'NONE',  ( -0.4999999999999998335, 0.000000000000000000, -0.8660254037844387076 ) ) ;
#573 = CARTESIAN_POINT ( 'NONE',  ( 0.000000000000000000, 10.00000000000000178, 0.000000000000000000 ) ) ;
#574 = CARTESIAN_POINT ( 'NONE',  ( 0.000000000000000000, 0.000000000000000000, -3.500000000000001332 ) ) ;
#575 = VECTOR ( 'NONE', #276, 1000.000000000000000 ) ;
#576 = PLANE ( 'NONE',  #360 ) ;
#577 = LINE ( 'NONE', #574, #287 ) ;
#578 = DIRECTION ( 'NONE',  ( -0.000000000000000000, -1.000000000000000000, -0.000000000000000000 ) ) ;
#579 = LINE ( 'NONE', #479, #85 ) ;
#580 = EDGE_CURVE ( 'NONE', #60, #455, #244, .T. ) ;
#581 = CARTESIAN_POINT ( 'NONE',  ( 0.000000000000000000, 7.700000000000001954, 0.000000000000000000 ) ) ;
#582 = VERTEX_POINT ( 'NONE', #541 ) ;
#583 = VERTEX_POINT ( 'NONE', #335 ) ;
#584 = MECHANICAL_DESIGN_GEOMETRIC_PRESENTATION_REPRESENTATION (  '', ( #293 ), #120 ) ;
#585 = CARTESIAN_POINT ( 'NONE',  ( 1.500000000000000000, 10.00000000000000178, -0.8660254037844391517 ) ) ;
#586 = ORIENTED_EDGE ( 'NONE', *, *, #558, .T. ) ;
#587 = ORIENTED_EDGE ( 'NONE', *, *, #623, .T. ) ;
#588 = CARTESIAN_POINT ( 'NONE',  ( 2.565437599681345918E-16, 7.700000000000001954, -1.732050807568877637 ) ) ;
#589 = APPLICATION_CONTEXT ( 'automotive_design' ) ;
#590 = CIRCLE ( 'NONE', #657, 3.500000000000000888 ) ;
#591 = ORIENTED_EDGE ( 'NONE', *, *, #398, .F. ) ;
#592 = ORIENTED_EDGE ( 'NONE', *, *, #57, .T. ) ;
#593 = ORIENTED_EDGE ( 'NONE', *, *, #255, .F. ) ;
#594 = EDGE_CURVE ( 'NONE', #161, #32, #543, .T. ) ;
#595 = VECTOR ( 'NONE', #611, 1000.000000000000000 ) ;
#596 = DIRECTION ( 'NONE',  ( -0.000000000000000000, -1.000000000000000000, -0.000000000000000000 ) ) ;
#597 = VERTEX_POINT ( 'NONE', #140 ) ;
#598 = VECTOR ( 'NONE', #35, 1000.000000000000000 ) ;
#599 = DIRECTION ( 'NONE',  ( 0.000000000000000000, 1.000000000000000000, 0.000000000000000000 ) ) ;
#600 = PLANE ( 'NONE',  #442 ) ;
#601 = LINE ( 'NONE', #463, #428 ) ;
#602 = ADVANCED_FACE ( 'NONE', ( #90, #76 ), #446, .T. ) ;
#603 = CARTESIAN_POINT ( 'NONE',  ( 0.000000000000000000, 7.700000000000001954, 0.000000000000000000 ) ) ;
#604 = ORIENTED_EDGE ( 'NONE', *, *, #230, .F. ) ;
#605 = ADVANCED_BREP_SHAPE_REPRESENTATION ( 'DIN912 - M4X6', ( #71, #82 ), #435 ) ;
#606 = ORIENTED_EDGE ( 'NONE', *, *, #183, .T. ) ;
#607 = DIRECTION ( 'NONE',  ( -0.000000000000000000, -1.000000000000000000, -0.000000000000000000 ) ) ;
#608 =( NAMED_UNIT ( * ) SI_UNIT ( $, .STERADIAN. ) SOLID_ANGLE_UNIT ( ) );
#609 = DIRECTION ( 'NONE',  ( 0.000000000000000000, 0.000000000000000000, -1.000000000000000000 ) ) ;
#610 = EDGE_CURVE ( 'NONE', #582, #205, #450, .T. ) ;
#611 = DIRECTION ( 'NONE',  ( -0.000000000000000000, -1.000000000000000000, -0.000000000000000000 ) ) ;
#612 = CARTESIAN_POINT ( 'NONE',  ( 1.499999999999999778, 7.700000000000001954, 0.8660254037844394848 ) ) ;
#613 = EDGE_LOOP ( 'NONE', ( #411, #323, #132, #234 ) ) ;
#614 = CARTESIAN_POINT ( 'NONE',  ( -1.500000000000000000, 10.00000000000000178, 0.000000000000000000 ) ) ;
#615 = CARTESIAN_POINT ( 'NONE',  ( 2.000000000000004441, 3.061616997868376239E-17, 0.000000000000000000 ) ) ;
#616 = ORIENTED_EDGE ( 'NONE', *, *, #266, .T. ) ;
#617 = AXIS2_PLACEMENT_3D ( 'NONE', #283, #391, #495 ) ;
#618 = VECTOR ( 'NONE', #155, 1000.000000000000227 ) ;
#619 = CARTESIAN_POINT ( 'NONE',  ( 1.093118657321079453E-17, 10.00000000000000178, 1.732050807568877415 ) ) ;
#620 = DIRECTION ( 'NONE',  ( 0.000000000000000000, 0.000000000000000000, -1.000000000000000000 ) ) ;
#621 = ORIENTED_EDGE ( 'NONE', *, *, #505, .T. ) ;
#622 = ADVANCED_FACE ( 'NONE', ( #493 ), #342, .T. ) ;
#623 = EDGE_CURVE ( 'NONE', #119, #583, #143, .T. ) ;
#624 = FILL_AREA_STYLE ('',( #373 ) ) ;
#625 = DIRECTION ( 'NONE',  ( -1.000000000000000000, 0.000000000000000000, 0.000000000000000000 ) ) ;
#626 = PLANE ( 'NONE',  #631 ) ;
#627 = DIRECTION ( 'NONE',  ( -0.8660254037844387076, 0.000000000000000000, 0.4999999999999998335 ) ) ;
#628 = CARTESIAN_POINT ( 'NONE',  ( 1.500000000000000000, 7.700000000000001954, -0.8660254037844391517 ) ) ;
#629 = DIRECTION ( 'NONE',  ( -0.8660254037844387076, 0.000000000000000000, -0.4999999999999998890 ) ) ;
#630 = ORIENTED_EDGE ( 'NONE', *, *, #647, .F. ) ;
#631 = AXIS2_PLACEMENT_3D ( 'NONE', #372, #572, #527 ) ;
#632 = LINE ( 'NONE', #501, #470 ) ;
#633 = AXIS2_PLACEMENT_3D ( 'NONE', #542, #340, #393 ) ;
#634 = FACE_OUTER_BOUND ( 'NONE', #273, .T. ) ;
#635 = EDGE_LOOP ( 'NONE', ( #475, #491, #462, #319, #24 ) ) ;
#636 = DIRECTION ( 'NONE',  ( 1.060575238724908640E-16, 0.4999999999999976130, -0.8660254037844400399 ) ) ;
#637 = EDGE_CURVE ( 'NONE', #349, #382, #485, .T. ) ;
#638 = LINE ( 'NONE', #381, #544 ) ;
#639 = EDGE_LOOP ( 'NONE', ( #316, #148, #587, #91 ) ) ;
#640 = ORIENTED_EDGE ( 'NONE', *, *, #31, .F. ) ;
#641 = ORIENTED_EDGE ( 'NONE', *, *, #218, .F. ) ;
#642 = CIRCLE ( 'NONE', #64, 2.000000000000000888 ) ;
#643 = CARTESIAN_POINT ( 'NONE',  ( 0.000000000000000000, 7.700000000000000178, 0.000000000000000000 ) ) ;
#644 = VERTEX_POINT ( 'NONE', #437 ) ;
#645 = ORIENTED_EDGE ( 'NONE', *, *, #44, .T. ) ;
#646 = DIRECTION ( 'NONE',  ( -0.000000000000000000, -1.000000000000000000, -0.000000000000000000 ) ) ;
#647 = EDGE_CURVE ( 'NONE', #133, #101, #638, .T. ) ;
#648 = ORIENTED_EDGE ( 'NONE', *, *, #96, .T. ) ;
#649 = EDGE_CURVE ( 'NONE', #136, #583, #95, .T. ) ;
#650 = DIRECTION ( 'NONE',  ( 0.000000000000000000, 0.000000000000000000, -1.000000000000000000 ) ) ;
#651 = ORIENTED_EDGE ( 'NONE', *, *, #137, .F. ) ;
#652 = CARTESIAN_POINT ( 'NONE',  ( 0.3750000000000003331, 10.00000000000000178, 1.948557158514987009 ) ) ;
#653 = ORIENTED_EDGE ( 'NONE', *, *, #197, .F. ) ;
#654 = EDGE_CURVE ( 'NONE', #349, #60, #177, .T. ) ;
#655 = PLANE ( 'NONE',  #189 ) ;
#656 = AXIS2_PLACEMENT_3D ( 'NONE', #134, #329, #83 ) ;
#657 = AXIS2_PLACEMENT_3D ( 'NONE', #405, #202, #452 ) ;
#658 = CIRCLE ( 'NONE', #195, 2.000000000000004441 ) ;
#659 = DIRECTION ( 'NONE',  ( 1.000000000000000000, 0.000000000000000000, 0.000000000000000000 ) ) ;
ENDSEC;
END-ISO-10303-21;
