ISO-10303-21;
HEADER;
FILE_DESCRIPTION (( 'STEP AP214' ),
    '1' );
FILE_NAME ('DIN912 - M8X12.STEP',
    '2023-12-01T09:45:16',
    ( '' ),
    ( '' ),
    'SwSTEP 2.0',
    'SolidWorks 2023',
    '' );
FILE_SCHEMA (( 'AUTOMOTIVE_DESIGN' ));
ENDSEC;

DATA;
#1 = EDGE_CURVE ( 'NONE', #386, #583, #620, .T. ) ;
#2 = DIRECTION ( 'NONE',  ( -0.000000000000000000, -1.000000000000000000, -0.000000000000000000 ) ) ;
#3 = EDGE_LOOP ( 'NONE', ( #125, #410, #383, #231 ) ) ;
#4 = LINE ( 'NONE', #13, #641 ) ;
#5 = CARTESIAN_POINT ( 'NONE',  ( 0.000000000000000000, 12.00000000000000000, -3.999999999999998224 ) ) ;
#6 = ADVANCED_FACE ( 'NONE', ( #165 ), #367, .F. ) ;
#7 = PRESENTATION_STYLE_ASSIGNMENT (( #459 ) ) ;
#8 = DIRECTION ( 'NONE',  ( 0.000000000000000000, -0.000000000000000000, 1.000000000000000000 ) ) ;
#9 = EDGE_CURVE ( 'NONE', #427, #414, #195, .T. ) ;
#10 = CARTESIAN_POINT ( 'NONE',  ( 0.000000000000000000, 15.99999999999999645, 0.000000000000000000 ) ) ;
#11 = CARTESIAN_POINT ( 'NONE',  ( 0.000000000000000000, 12.00000000000000000, 0.000000000000000000 ) ) ;
#12 = ADVANCED_FACE ( 'NONE', ( #491 ), #658, .F. ) ;
#13 = CARTESIAN_POINT ( 'NONE',  ( -1.310243621811477179E-15, 15.99999999999999645, 3.464101615137755719 ) ) ;
#14 = VECTOR ( 'NONE', #566, 1000.000000000000000 ) ;
#15 = ORIENTED_EDGE ( 'NONE', *, *, #626, .F. ) ;
#16 = ORIENTED_EDGE ( 'NONE', *, *, #650, .F. ) ;
#17 = DIRECTION ( 'NONE',  ( 0.000000000000000000, 0.000000000000000000, -1.000000000000000000 ) ) ;
#18 = ORIENTED_EDGE ( 'NONE', *, *, #294, .F. ) ;
#19 = DIRECTION ( 'NONE',  ( -0.000000000000000000, 1.000000000000000000, 0.000000000000000000 ) ) ;
#20 = VECTOR ( 'NONE', #256, 1000.000000000000114 ) ;
#21 = EDGE_LOOP ( 'NONE', ( #451, #463, #92 ) ) ;
#22 = CIRCLE ( 'NONE', #145, 0.1999999999999987899 ) ;
#23 = DIRECTION ( 'NONE',  ( -0.000000000000000000, -1.000000000000000000, -0.000000000000000000 ) ) ;
#24 = VECTOR ( 'NONE', #90, 1000.000000000000227 ) ;
#25 = ORIENTED_EDGE ( 'NONE', *, *, #576, .T. ) ;
#26 = CARTESIAN_POINT ( 'NONE',  ( 0.000000000000000000, 15.99999999999999645, 3.000000000000000000 ) ) ;
#27 = VERTEX_POINT ( 'NONE', #541 ) ;
#28 = ORIENTED_EDGE ( 'NONE', *, *, #577, .T. ) ;
#29 = DIRECTION ( 'NONE',  ( -0.000000000000000000, -1.000000000000000000, -0.000000000000000000 ) ) ;
#30 = ORIENTED_EDGE ( 'NONE', *, *, #343, .T. ) ;
#31 = AXIS2_PLACEMENT_3D ( 'NONE', #84, #654, #235 ) ;
#32 = EDGE_CURVE ( 'NONE', #618, #134, #22, .T. ) ;
#33 = VERTEX_POINT ( 'NONE', #402 ) ;
#34 = ADVANCED_FACE ( 'NONE', ( #49 ), #450, .T. ) ;
#35 = LINE ( 'NONE', #87, #251 ) ;
#36 = DIRECTION ( 'NONE',  ( -1.224646799147353947E-16, 0.000000000000000000, -1.000000000000000000 ) ) ;
#37 = ORIENTED_EDGE ( 'NONE', *, *, #284, .F. ) ;
#38 = DIRECTION ( 'NONE',  ( 0.8660254037844388186, 0.000000000000000000, -0.4999999999999996114 ) ) ;
#39 = ADVANCED_FACE ( 'NONE', ( #242 ), #609, .T. ) ;
#40 = DIRECTION ( 'NONE',  ( -0.000000000000000000, 1.000000000000000000, -0.000000000000000000 ) ) ;
#41 = VERTEX_POINT ( 'NONE', #290 ) ;
#42 = CARTESIAN_POINT ( 'NONE',  ( 0.000000000000000000, 15.99999999999999645, 0.000000000000000000 ) ) ;
#43 = DIRECTION ( 'NONE',  ( 0.000000000000000000, 1.000000000000000000, 0.000000000000000000 ) ) ;
#44 = CARTESIAN_POINT ( 'NONE',  ( -1.310243621811477179E-15, 15.99999999999999645, 3.464101615137755719 ) ) ;
#45 = PLANE ( 'NONE',  #655 ) ;
#46 = AXIS2_PLACEMENT_3D ( 'NONE', #117, #317, #516 ) ;
#47 = VECTOR ( 'NONE', #464, 1000.000000000000000 ) ;
#48 = ORIENTED_EDGE ( 'NONE', *, *, #253, .T. ) ;
#49 = FACE_OUTER_BOUND ( 'NONE', #468, .T. ) ;
#50 = PLANE ( 'NONE',  #318 ) ;
#51 = CIRCLE ( 'NONE', #31, 4.000000000000001776 ) ;
#52 = DIRECTION ( 'NONE',  ( 0.000000000000000000, 0.000000000000000000, 1.000000000000000000 ) ) ;
#53 = CARTESIAN_POINT ( 'NONE',  ( 0.000000000000000000, 15.99999999999999645, 0.000000000000000000 ) ) ;
#54 = VECTOR ( 'NONE', #281, 1000.000000000000000 ) ;
#55 = EDGE_CURVE ( 'NONE', #420, #172, #219, .T. ) ;
#56 = DIRECTION ( 'NONE',  ( -0.8660254037844387076, 0.000000000000000000, 0.4999999999999997780 ) ) ;
#57 = ORIENTED_EDGE ( 'NONE', *, *, #359, .F. ) ;
#58 = PLANE ( 'NONE',  #363 ) ;
#59 = ORIENTED_EDGE ( 'NONE', *, *, #365, .F. ) ;
#60 = ORIENTED_EDGE ( 'NONE', *, *, #85, .T. ) ;
#61 = CARTESIAN_POINT ( 'NONE',  ( 3.000000000000000000, 19.99999999999999645, 0.000000000000000000 ) ) ;
#62 = DIRECTION ( 'NONE',  ( 0.000000000000000000, 0.000000000000000000, -1.000000000000000000 ) ) ;
#63 = LINE ( 'NONE', #66, #130 ) ;
#64 = EDGE_LOOP ( 'NONE', ( #16, #69, #607, #328 ) ) ;
#65 = CARTESIAN_POINT ( 'NONE',  ( -3.000000000000000888, 15.99999999999999645, 1.732050807568877859 ) ) ;
#66 = CARTESIAN_POINT ( 'NONE',  ( 4.898587196589412829E-16, 0.000000000000000000, 4.000000000000000000 ) ) ;
#67 = VERTEX_POINT ( 'NONE', #350 ) ;
#68 = DIRECTION ( 'NONE',  ( 0.000000000000000000, 0.4999999999999979461, 0.8660254037844397068 ) ) ;
#69 = ORIENTED_EDGE ( 'NONE', *, *, #55, .T. ) ;
#70 = DIRECTION ( 'NONE',  ( -0.000000000000000000, -1.000000000000000000, -0.000000000000000000 ) ) ;
#71 = ORIENTED_EDGE ( 'NONE', *, *, #429, .F. ) ;
#72 = CARTESIAN_POINT ( 'NONE',  ( -2.027631620441657612E-17, 15.99999999999999645, -3.464101615137756607 ) ) ;
#73 = AXIS2_PLACEMENT_3D ( 'NONE', #223, #428, #636 ) ;
#74 = AXIS2_PLACEMENT_3D ( 'NONE', #226, #23, #266 ) ;
#75 = EDGE_LOOP ( 'NONE', ( #581, #169, #295, #578, #591 ) ) ;
#76 = DIRECTION ( 'NONE',  ( 0.000000000000000000, 0.000000000000000000, 1.000000000000000000 ) ) ;
#77 = ORIENTED_EDGE ( 'NONE', *, *, #551, .T. ) ;
#78 = CARTESIAN_POINT ( 'NONE',  ( -3.000000000000000888, 15.99999999999999645, 1.732050807568877859 ) ) ;
#79 = MECHANICAL_DESIGN_GEOMETRIC_PRESENTATION_REPRESENTATION (  '', ( #570 ), #160 ) ;
#80 = EDGE_LOOP ( 'NONE', ( #121, #25, #368 ) ) ;
#81 = ADVANCED_FACE ( 'NONE', ( #234 ), #45, .T. ) ;
#82 = ORIENTED_EDGE ( 'NONE', *, *, #239, .F. ) ;
#83 = DIRECTION ( 'NONE',  ( 0.000000000000000000, 0.000000000000000000, 1.000000000000000000 ) ) ;
#84 = CARTESIAN_POINT ( 'NONE',  ( 0.000000000000000000, 1.836970198721029934E-16, 0.000000000000000000 ) ) ;
#85 = EDGE_CURVE ( 'NONE', #274, #585, #141, .T. ) ;
#86 = ORIENTED_EDGE ( 'NONE', *, *, #398, .F. ) ;
#87 = CARTESIAN_POINT ( 'NONE',  ( -1.310243621811477179E-15, 15.99999999999999645, 3.464101615137755719 ) ) ;
#88 = CARTESIAN_POINT ( 'NONE',  ( -1.310243621811477179E-15, 19.99999999999999645, 3.464101615137755719 ) ) ;
#89 = EDGE_CURVE ( 'NONE', #597, #585, #100, .T. ) ;
#90 = DIRECTION ( 'NONE',  ( 0.8660254037844384856, -0.000000000000000000, 0.5000000000000001110 ) ) ;
#91 = DIRECTION ( 'NONE',  ( -0.000000000000000000, -1.000000000000000000, -0.000000000000000000 ) ) ;
#92 = ORIENTED_EDGE ( 'NONE', *, *, #244, .T. ) ;
#93 = APPLICATION_PROTOCOL_DEFINITION ( 'draft international standard', 'automotive_design', 1998, #472 ) ;
#94 = CARTESIAN_POINT ( 'NONE',  ( 0.000000000000000000, 12.00000000000000000, -6.500000000000000888 ) ) ;
#95 = EDGE_CURVE ( 'NONE', #227, #283, #443, .T. ) ;
#96 = CYLINDRICAL_SURFACE ( 'NONE', #305, 6.500000000000000000 ) ;
#97 = ORIENTED_EDGE ( 'NONE', *, *, #454, .F. ) ;
#98 = ORIENTED_EDGE ( 'NONE', *, *, #457, .T. ) ;
#99 = DIRECTION ( 'NONE',  ( 0.000000000000000000, 0.000000000000000000, 1.000000000000000000 ) ) ;
#100 = LINE ( 'NONE', #342, #610 ) ;
#101 = VECTOR ( 'NONE', #119, 1000.000000000000227 ) ;
#102 = CARTESIAN_POINT ( 'NONE',  ( 3.000000000000000000, 15.99999999999999645, 1.732050807568879414 ) ) ;
#103 = ADVANCED_FACE ( 'NONE', ( #543 ), #341, .F. ) ;
#104 = DIRECTION ( 'NONE',  ( -0.000000000000000000, -1.000000000000000000, -0.000000000000000000 ) ) ;
#105 = LINE ( 'NONE', #613, #186 ) ;
#106 = AXIS2_PLACEMENT_3D ( 'NONE', #61, #115, #8 ) ;
#107 = FILL_AREA_STYLE ('',( #456 ) ) ;
#108 = DIRECTION ( 'NONE',  ( -0.000000000000000000, -1.000000000000000000, -0.000000000000000000 ) ) ;
#109 = CLOSED_SHELL ( 'NONE', ( #103, #356, #39, #521, #34, #218, #646, #127, #154, #590, #198, #389, #81, #370, #310, #478, #6, #339, #12, #349, #499, #316, #537 ) ) ;
#110 = AXIS2_PLACEMENT_3D ( 'NONE', #344, #392, #288 ) ;
#111 = CYLINDRICAL_SURFACE ( 'NONE', #659, 4.000000000000000000 ) ;
#112 = FACE_OUTER_BOUND ( 'NONE', #193, .T. ) ;
#113 = ORIENTED_EDGE ( 'NONE', *, *, #442, .T. ) ;
#114 = CARTESIAN_POINT ( 'NONE',  ( 3.673940397442059868E-16, 15.99999999999999645, -3.000000000000000000 ) ) ;
#115 = DIRECTION ( 'NONE',  ( 0.000000000000000000, 1.000000000000000000, 0.000000000000000000 ) ) ;
#116 = EDGE_CURVE ( 'NONE', #414, #427, #51, .T. ) ;
#117 = CARTESIAN_POINT ( 'NONE',  ( -3.000000000000000888, 15.99999999999999645, -1.732050807568879636 ) ) ;
#118 = VERTEX_POINT ( 'NONE', #88 ) ;
#119 = DIRECTION ( 'NONE',  ( -0.8660254037844385966, 0.000000000000000000, -0.4999999999999998890 ) ) ;
#120 = CARTESIAN_POINT ( 'NONE',  ( 0.000000000000000000, 15.99999999999999645, 3.000000000000000000 ) ) ;
#121 = ORIENTED_EDGE ( 'NONE', *, *, #550, .T. ) ;
#122 = PLANE ( 'NONE',  #243 ) ;
#123 = ORIENTED_EDGE ( 'NONE', *, *, #580, .T. ) ;
#124 = DIRECTION ( 'NONE',  ( -0.8660254037844387076, 0.000000000000000000, 0.4999999999999997224 ) ) ;
#125 = ORIENTED_EDGE ( 'NONE', *, *, #139, .T. ) ;
#126 = EDGE_CURVE ( 'NONE', #481, #161, #142, .T. ) ;
#127 = ADVANCED_FACE ( 'NONE', ( #453 ), #96, .T. ) ;
#128 = CARTESIAN_POINT ( 'NONE',  ( 0.000000000000000000, 15.99999999999999645, 0.000000000000000000 ) ) ;
#129 = DIRECTION ( 'NONE',  ( -0.000000000000000000, -1.000000000000000000, -0.000000000000000000 ) ) ;
#130 = VECTOR ( 'NONE', #587, 1000.000000000000000 ) ;
#131 = EDGE_LOOP ( 'NONE', ( #476, #175, #553, #262, #208, #18 ) ) ;
#132 = AXIS2_PLACEMENT_3D ( 'NONE', #483, #330, #62 ) ;
#133 = DIRECTION ( 'NONE',  ( -0.000000000000000000, 1.000000000000000000, 0.000000000000000000 ) ) ;
#134 = VERTEX_POINT ( 'NONE', #504 ) ;
#135 = ORIENTED_EDGE ( 'NONE', *, *, #506, .F. ) ;
#136 = CARTESIAN_POINT ( 'NONE',  ( 0.000000000000000000, 19.79999999999999716, 0.000000000000000000 ) ) ;
#137 = PRESENTATION_LAYER_ASSIGNMENT (  '', '', ( #570 ) ) ;
#138 = FACE_BOUND ( 'NONE', #216, .T. ) ;
#139 = EDGE_CURVE ( 'NONE', #638, #618, #651, .T. ) ;
#140 = CARTESIAN_POINT ( 'NONE',  ( -1.500000000000000666, 15.99999999999999645, -2.598076211353318676 ) ) ;
#141 = LINE ( 'NONE', #298, #361 ) ;
#142 = CIRCLE ( 'NONE', #381, 3.000000000000000000 ) ;
#143 = EDGE_CURVE ( 'NONE', #172, #427, #345, .T. ) ;
#144 = DIRECTION ( 'NONE',  ( -0.8660254037844387076, 0.000000000000000000, 0.4999999999999997780 ) ) ;
#145 = AXIS2_PLACEMENT_3D ( 'NONE', #200, #202, #36 ) ;
#146 = AXIS2_PLACEMENT_3D ( 'NONE', #487, #29, #417 ) ;
#147 = DIRECTION ( 'NONE',  ( 0.000000000000000000, 0.000000000000000000, -1.000000000000000000 ) ) ;
#148 = LINE ( 'NONE', #44, #545 ) ;
#149 = DIRECTION ( 'NONE',  ( -0.000000000000000000, -1.000000000000000000, -0.000000000000000000 ) ) ;
#150 = FACE_OUTER_BOUND ( 'NONE', #3, .T. ) ;
#151 = DIRECTION ( 'NONE',  ( 0.000000000000000000, 0.000000000000000000, -1.000000000000000000 ) ) ;
#152 = VECTOR ( 'NONE', #91, 1000.000000000000000 ) ;
#153 = CARTESIAN_POINT ( 'NONE',  ( 3.000000000000000000, 15.99999999999999645, -1.732050807568879192 ) ) ;
#154 = ADVANCED_FACE ( 'NONE', ( #405, #138 ), #50, .T. ) ;
#155 = UNCERTAINTY_MEASURE_WITH_UNIT (LENGTH_MEASURE( 1.000000000000000082E-05 ), #158, 'distance_accuracy_value', 'NONE');
#156 = CARTESIAN_POINT ( 'NONE',  ( 3.000000000000000000, 19.99999999999999645, 0.000000000000000000 ) ) ;
#157 = CARTESIAN_POINT ( 'NONE',  ( 0.000000000000000000, 19.79999999999999716, -6.499999999999999112 ) ) ;
#158 =( LENGTH_UNIT ( ) NAMED_UNIT ( * ) SI_UNIT ( .MILLI., .METRE. ) );
#159 = CARTESIAN_POINT ( 'NONE',  ( -3.000000000000000888, 19.99999999999999645, 0.000000000000000000 ) ) ;
#160 =( GEOMETRIC_REPRESENTATION_CONTEXT ( 3 ) GLOBAL_UNCERTAINTY_ASSIGNED_CONTEXT ( ( #155 ) ) GLOBAL_UNIT_ASSIGNED_CONTEXT ( ( #158, #319, #221 ) ) REPRESENTATION_CONTEXT ( 'NONE', 'WORKASPACE' ) );
#161 = VERTEX_POINT ( 'NONE', #209 ) ;
#162 = AXIS2_PLACEMENT_3D ( 'NONE', #327, #633, #519 ) ;
#163 = DIRECTION ( 'NONE',  ( -0.000000000000000000, 1.000000000000000000, 0.000000000000000000 ) ) ;
#164 = CONICAL_SURFACE ( 'NONE', #391, 3.000000000000000000, 1.047197551196600074 ) ;
#165 = FACE_OUTER_BOUND ( 'NONE', #642, .T. ) ;
#166 = CIRCLE ( 'NONE', #536, 3.000000000000000000 ) ;
#167 = ORIENTED_EDGE ( 'NONE', *, *, #529, .T. ) ;
#168 = CARTESIAN_POINT ( 'NONE',  ( 7.960204194457797449E-16, 12.00000000000000000, 6.500000000000001776 ) ) ;
#169 = ORIENTED_EDGE ( 'NONE', *, *, #306, .F. ) ;
#170 = FACE_OUTER_BOUND ( 'NONE', #80, .T. ) ;
#171 = VECTOR ( 'NONE', #448, 1000.000000000000000 ) ;
#172 = VERTEX_POINT ( 'NONE', #5 ) ;
#173 = CARTESIAN_POINT ( 'NONE',  ( 0.000000000000000000, 12.00000000000000000, 0.000000000000000000 ) ) ;
#174 = EDGE_CURVE ( 'NONE', #118, #323, #509, .T. ) ;
#175 = ORIENTED_EDGE ( 'NONE', *, *, #580, .F. ) ;
#176 = PLANE ( 'NONE',  #162 ) ;
#177 = ORIENTED_EDGE ( 'NONE', *, *, #55, .F. ) ;
#178 = EDGE_CURVE ( 'NONE', #323, #27, #206, .T. ) ;
#179 = CARTESIAN_POINT ( 'NONE',  ( -1.310243621811477179E-15, 15.99999999999999645, 3.464101615137755719 ) ) ;
#180 = VERTEX_POINT ( 'NONE', #507 ) ;
#181 = DIRECTION ( 'NONE',  ( -0.000000000000000000, 1.000000000000000000, 0.000000000000000000 ) ) ;
#182 = CIRCLE ( 'NONE', #554, 3.999999999999998224 ) ;
#183 = ORIENTED_EDGE ( 'NONE', *, *, #228, .F. ) ;
#184 = EDGE_LOOP ( 'NONE', ( #59, #276, #431, #71, #272, #628 ) ) ;
#185 = DIRECTION ( 'NONE',  ( 0.8660254037844388186, 0.000000000000000000, -0.4999999999999996114 ) ) ;
#186 = VECTOR ( 'NONE', #56, 1000.000000000000114 ) ;
#187 = ORIENTED_EDGE ( 'NONE', *, *, #294, .T. ) ;
#188 = AXIS2_PLACEMENT_3D ( 'NONE', #42, #346, #237 ) ;
#189 = CARTESIAN_POINT ( 'NONE',  ( 0.7499999999999984457, 19.99999999999999645, 3.897114317029975350 ) ) ;
#190 = DIRECTION ( 'NONE',  ( 0.4999999999999999445, 0.000000000000000000, -0.8660254037844387076 ) ) ;
#191 = FACE_OUTER_BOUND ( 'NONE', #588, .T. ) ;
#192 = DIRECTION ( 'NONE',  ( 0.000000000000000000, 0.000000000000000000, -1.000000000000000000 ) ) ;
#193 = EDGE_LOOP ( 'NONE', ( #28, #488, #604 ) ) ;
#194 = CARTESIAN_POINT ( 'NONE',  ( 3.750000000000000888, 19.99999999999999645, -1.299038105676659560 ) ) ;
#195 = CIRCLE ( 'NONE', #132, 4.000000000000001776 ) ;
#196 = CIRCLE ( 'NONE', #374, 3.000000000000000000 ) ;
#197 = CARTESIAN_POINT ( 'NONE',  ( 3.000000000000000000, 15.99999999999999645, 1.732050807568879414 ) ) ;
#198 = ADVANCED_FACE ( 'NONE', ( #622 ), #412, .T. ) ;
#199 = PRODUCT_CONTEXT ( 'NONE', #544, 'mechanical' ) ;
#200 = CARTESIAN_POINT ( 'NONE',  ( 7.715274834628325378E-16, 19.79999999999999716, 6.299999999999999822 ) ) ;
#201 = EDGE_CURVE ( 'NONE', #635, #33, #515, .T. ) ;
#202 = DIRECTION ( 'NONE',  ( 1.000000000000000000, 0.000000000000000000, -1.224646799147353207E-16 ) ) ;
#203 = LINE ( 'NONE', #205, #335 ) ;
#204 = DIRECTION ( 'NONE',  ( -0.000000000000000000, -1.000000000000000000, -0.000000000000000000 ) ) ;
#205 = CARTESIAN_POINT ( 'NONE',  ( 3.000000000000000000, 15.99999999999999645, 1.732050807568879414 ) ) ;
#206 = LINE ( 'NONE', #156, #351 ) ;
#207 = CARTESIAN_POINT ( 'NONE',  ( 0.000000000000000000, 0.000000000000000000, -6.500000000000000000 ) ) ;
#208 = ORIENTED_EDGE ( 'NONE', *, *, #475, .F. ) ;
#209 = CARTESIAN_POINT ( 'NONE',  ( 3.673940397442059868E-16, 15.99999999999999645, -3.000000000000000000 ) ) ;
#210 = DIRECTION ( 'NONE',  ( 0.000000000000000000, 0.000000000000000000, -1.000000000000000000 ) ) ;
#211 = DIRECTION ( 'NONE',  ( -0.000000000000000000, 1.000000000000000000, -0.000000000000000000 ) ) ;
#212 = ORIENTED_EDGE ( 'NONE', *, *, #1, .T. ) ;
#213 = ORIENTED_EDGE ( 'NONE', *, *, #442, .F. ) ;
#214 = EDGE_CURVE ( 'NONE', #644, #118, #4, .T. ) ;
#215 = CARTESIAN_POINT ( 'NONE',  ( 0.000000000000000000, 15.99999999999999645, 0.000000000000000000 ) ) ;
#216 = EDGE_LOOP ( 'NONE', ( #183, #177 ) ) ;
#217 = FACE_OUTER_BOUND ( 'NONE', #21, .T. ) ;
#218 = ADVANCED_FACE ( 'NONE', ( #304, #512 ), #571, .T. ) ;
#219 = CIRCLE ( 'NONE', #479, 3.999999999999998224 ) ;
#220 = AXIS2_PLACEMENT_3D ( 'NONE', #525, #589, #332 ) ;
#221 =( NAMED_UNIT ( * ) SI_UNIT ( $, .STERADIAN. ) SOLID_ANGLE_UNIT ( ) );
#222 = EDGE_LOOP ( 'NONE', ( #309, #461 ) ) ;
#223 = CARTESIAN_POINT ( 'NONE',  ( 0.000000000000000000, 15.99999999999999645, 0.000000000000000000 ) ) ;
#224 = FACE_OUTER_BOUND ( 'NONE', #245, .T. ) ;
#225 = ORIENTED_EDGE ( 'NONE', *, *, #485, .F. ) ;
#226 = CARTESIAN_POINT ( 'NONE',  ( 0.000000000000000000, 15.99999999999999645, 0.000000000000000000 ) ) ;
#227 = VERTEX_POINT ( 'NONE', #354 ) ;
#228 = EDGE_CURVE ( 'NONE', #172, #420, #182, .T. ) ;
#229 = ORIENTED_EDGE ( 'NONE', *, *, #631, .T. ) ;
#230 = LINE ( 'NONE', #549, #568 ) ;
#231 = ORIENTED_EDGE ( 'NONE', *, *, #631, .F. ) ;
#232 = VERTEX_POINT ( 'NONE', #157 ) ;
#233 = DIRECTION ( 'NONE',  ( 0.8660254037844384856, 0.000000000000000000, 0.5000000000000001110 ) ) ;
#234 = FACE_OUTER_BOUND ( 'NONE', #600, .T. ) ;
#235 = DIRECTION ( 'NONE',  ( 0.000000000000000000, 0.000000000000000000, -1.000000000000000000 ) ) ;
#236 = ORIENTED_EDGE ( 'NONE', *, *, #576, .F. ) ;
#237 = DIRECTION ( 'NONE',  ( 0.000000000000000000, 0.000000000000000000, -1.000000000000000000 ) ) ;
#238 = DIRECTION ( 'NONE',  ( 0.000000000000000000, 0.000000000000000000, -1.000000000000000000 ) ) ;
#239 = EDGE_CURVE ( 'NONE', #283, #500, #466, .T. ) ;
#240 = TOROIDAL_SURFACE ( 'NONE', #527, 6.299999999999999822, 0.1999999999999992339 ) ;
#241 = CARTESIAN_POINT ( 'NONE',  ( -3.000000000000000888, 15.99999999999999645, 1.732050807568877859 ) ) ;
#242 = FACE_OUTER_BOUND ( 'NONE', #333, .T. ) ;
#243 = AXIS2_PLACEMENT_3D ( 'NONE', #72, #324, #124 ) ;
#244 = EDGE_CURVE ( 'NONE', #500, #227, #413, .T. ) ;
#245 = EDGE_LOOP ( 'NONE', ( #278, #435, #229, #135 ) ) ;
#246 = VECTOR ( 'NONE', #446, 1000.000000000000000 ) ;
#247 = SURFACE_SIDE_STYLE ('',( #569 ) ) ;
#248 = DIRECTION ( 'NONE',  ( -0.000000000000000000, 1.000000000000000000, 0.000000000000000000 ) ) ;
#249 = DIRECTION ( 'NONE',  ( 0.000000000000000000, -0.000000000000000000, 1.000000000000000000 ) ) ;
#250 = DIRECTION ( 'NONE',  ( -0.8660254037844385966, 0.000000000000000000, -0.4999999999999998890 ) ) ;
#251 = VECTOR ( 'NONE', #648, 1000.000000000000114 ) ;
#252 = CARTESIAN_POINT ( 'NONE',  ( 3.750000000000000888, 19.99999999999999645, 1.299038105676660226 ) ) ;
#253 = EDGE_CURVE ( 'NONE', #134, #386, #455, .T. ) ;
#254 = ORIENTED_EDGE ( 'NONE', *, *, #253, .F. ) ;
#255 = DIRECTION ( 'NONE',  ( 0.000000000000000000, 0.000000000000000000, -1.000000000000000000 ) ) ;
#256 = DIRECTION ( 'NONE',  ( 0.8660254037844388186, 0.000000000000000000, -0.4999999999999996114 ) ) ;
#257 = ORIENTED_EDGE ( 'NONE', *, *, #434, .T. ) ;
#258 = DIRECTION ( 'NONE',  ( 0.000000000000000000, 0.000000000000000000, -1.000000000000000000 ) ) ;
#259 = EDGE_LOOP ( 'NONE', ( #296, #567, #378 ) ) ;
#260 = EDGE_CURVE ( 'NONE', #419, #481, #105, .T. ) ;
#261 = VECTOR ( 'NONE', #68, 1000.000000000000114 ) ;
#262 = ORIENTED_EDGE ( 'NONE', *, *, #174, .F. ) ;
#263 = LINE ( 'NONE', #65, #467 ) ;
#264 = AXIS2_PLACEMENT_3D ( 'NONE', #395, #542, #494 ) ;
#265 = ORIENTED_EDGE ( 'NONE', *, *, #343, .F. ) ;
#266 = DIRECTION ( 'NONE',  ( 0.000000000000000000, 0.000000000000000000, -1.000000000000000000 ) ) ;
#267 = ORIENTED_EDGE ( 'NONE', *, *, #89, .T. ) ;
#268 = VECTOR ( 'NONE', #147, 1000.000000000000000 ) ;
#269 = CARTESIAN_POINT ( 'NONE',  ( 4.898587196589414801E-16, 1.836970198721029934E-16, 4.000000000000001776 ) ) ;
#270 = AXIS2_PLACEMENT_3D ( 'NONE', #347, #2, #151 ) ;
#271 = AXIS2_PLACEMENT_3D ( 'NONE', #492, #490, #38 ) ;
#272 = ORIENTED_EDGE ( 'NONE', *, *, #430, .F. ) ;
#273 = LINE ( 'NONE', #26, #261 ) ;
#274 = VERTEX_POINT ( 'NONE', #559 ) ;
#275 = VECTOR ( 'NONE', #462, 1000.000000000000114 ) ;
#276 = ORIENTED_EDGE ( 'NONE', *, *, #612, .T. ) ;
#277 = DIRECTION ( 'NONE',  ( 0.000000000000000000, 0.000000000000000000, -1.000000000000000000 ) ) ;
#278 = ORIENTED_EDGE ( 'NONE', *, *, #32, .F. ) ;
#279 = APPLICATION_PROTOCOL_DEFINITION ( 'draft international standard', 'automotive_design', 1998, #544 ) ;
#280 = ORIENTED_EDGE ( 'NONE', *, *, #214, .T. ) ;
#281 = DIRECTION ( 'NONE',  ( -0.000000000000000000, 1.000000000000000000, -0.000000000000000000 ) ) ;
#282 = CARTESIAN_POINT ( 'NONE',  ( 3.000000000000000000, 15.99999999999999645, -1.732050807568879192 ) ) ;
#283 = VERTEX_POINT ( 'NONE', #153 ) ;
#284 = EDGE_CURVE ( 'NONE', #232, #583, #460, .T. ) ;
#285 = LINE ( 'NONE', #403, #565 ) ;
#286 = DIRECTION ( 'NONE',  ( 0.000000000000000000, 0.000000000000000000, -1.000000000000000000 ) ) ;
#287 = ADVANCED_BREP_SHAPE_REPRESENTATION ( 'DIN912 - M8X12', ( #634, #314 ), #653 ) ;
#288 = DIRECTION ( 'NONE',  ( 0.8660254037844385966, 0.000000000000000000, 0.5000000000000002220 ) ) ;
#289 = EDGE_CURVE ( 'NONE', #67, #227, #409, .T. ) ;
#290 = CARTESIAN_POINT ( 'NONE',  ( -3.000000000000000888, 15.99999999999999645, 0.000000000000000000 ) ) ;
#291 = CARTESIAN_POINT ( 'NONE',  ( -3.000000000000000888, 19.99999999999999645, -1.732050807568879636 ) ) ;
#292 = DIRECTION ( 'NONE',  ( -0.000000000000000000, -1.000000000000000000, -0.000000000000000000 ) ) ;
#293 = AXIS2_PLACEMENT_3D ( 'NONE', #616, #163, #366 ) ;
#294 = EDGE_CURVE ( 'NONE', #585, #437, #617, .T. ) ;
#295 = ORIENTED_EDGE ( 'NONE', *, *, #95, .F. ) ;
#296 = ORIENTED_EDGE ( 'NONE', *, *, #454, .T. ) ;
#297 = CARTESIAN_POINT ( 'NONE',  ( -2.027631620441657612E-17, 15.99999999999999645, -3.464101615137756607 ) ) ;
#298 = CARTESIAN_POINT ( 'NONE',  ( 0.7500000000000002220, 19.99999999999999645, -3.897114317029975794 ) ) ;
#299 = VECTOR ( 'NONE', #249, 1000.000000000000000 ) ;
#300 = DIRECTION ( 'NONE',  ( 0.000000000000000000, 0.000000000000000000, -1.000000000000000000 ) ) ;
#301 = DIRECTION ( 'NONE',  ( 0.000000000000000000, 0.000000000000000000, -1.000000000000000000 ) ) ;
#302 = UNCERTAINTY_MEASURE_WITH_UNIT (LENGTH_MEASURE( 1.000000000000000082E-05 ), #624, 'distance_accuracy_value', 'NONE');
#303 = CARTESIAN_POINT ( 'NONE',  ( 7.837739514543059934E-16, 19.99999999999999645, 6.299999999999999822 ) ) ;
#304 = FACE_BOUND ( 'NONE', #131, .T. ) ;
#305 = AXIS2_PLACEMENT_3D ( 'NONE', #649, #292, #192 ) ;
#306 = EDGE_CURVE ( 'NONE', #283, #27, #360, .T. ) ;
#307 = DIRECTION ( 'NONE',  ( 0.000000000000000000, 0.000000000000000000, -1.000000000000000000 ) ) ;
#308 = CIRCLE ( 'NONE', #73, 3.000000000000000000 ) ;
#309 = ORIENTED_EDGE ( 'NONE', *, *, #139, .F. ) ;
#310 = ADVANCED_FACE ( 'NONE', ( #112 ), #58, .T. ) ;
#311 = CARTESIAN_POINT ( 'NONE',  ( 3.000000000000000000, 15.99999999999999645, -1.732050807568879192 ) ) ;
#312 = ORIENTED_EDGE ( 'NONE', *, *, #201, .T. ) ;
#313 = CARTESIAN_POINT ( 'NONE',  ( 0.000000000000000000, 19.79999999999999716, -6.299999999999999822 ) ) ;
#314 = AXIS2_PLACEMENT_3D ( 'NONE', #439, #76, #593 ) ;
#315 = CARTESIAN_POINT ( 'NONE',  ( 7.960204194457795477E-16, 0.000000000000000000, 6.500000000000000000 ) ) ;
#316 = ADVANCED_FACE ( 'NONE', ( #528 ), #369, .T. ) ;
#317 = DIRECTION ( 'NONE',  ( -1.000000000000000000, 0.000000000000000000, 0.000000000000000000 ) ) ;
#318 = AXIS2_PLACEMENT_3D ( 'NONE', #615, #408, #258 ) ;
#319 =( NAMED_UNIT ( * ) PLANE_ANGLE_UNIT ( ) SI_UNIT ( $, .RADIAN. ) );
#320 = ORIENTED_EDGE ( 'NONE', *, *, #322, .F. ) ;
#321 = CYLINDRICAL_SURFACE ( 'NONE', #558, 4.000000000000000000 ) ;
#322 = EDGE_CURVE ( 'NONE', #161, #500, #387, .T. ) ;
#323 = VERTEX_POINT ( 'NONE', #533 ) ;
#324 = DIRECTION ( 'NONE',  ( -0.4999999999999997780, 0.000000000000000000, -0.8660254037844388186 ) ) ;
#325 =( NAMED_UNIT ( * ) SI_UNIT ( $, .STERADIAN. ) SOLID_ANGLE_UNIT ( ) );
#326 = ORIENTED_EDGE ( 'NONE', *, *, #1, .F. ) ;
#327 = CARTESIAN_POINT ( 'NONE',  ( 3.000000000000000000, 15.99999999999999645, 1.732050807568879414 ) ) ;
#328 = ORIENTED_EDGE ( 'NONE', *, *, #116, .F. ) ;
#329 = DIRECTION ( 'NONE',  ( 0.000000000000000000, -0.000000000000000000, 1.000000000000000000 ) ) ;
#330 = DIRECTION ( 'NONE',  ( -0.000000000000000000, -1.000000000000000000, -0.000000000000000000 ) ) ;
#331 = ORIENTED_EDGE ( 'NONE', *, *, #126, .T. ) ;
#332 = DIRECTION ( 'NONE',  ( 0.000000000000000000, -0.000000000000000000, 1.000000000000000000 ) ) ;
#333 = EDGE_LOOP ( 'NONE', ( #167, #48, #86, #37 ) ) ;
#334 = AXIS2_PLACEMENT_3D ( 'NONE', #502, #555, #540 ) ;
#335 = VECTOR ( 'NONE', #611, 1000.000000000000000 ) ;
#336 = ORIENTED_EDGE ( 'NONE', *, *, #322, .T. ) ;
#337 = FACE_OUTER_BOUND ( 'NONE', #524, .T. ) ;
#338 = CARTESIAN_POINT ( 'NONE',  ( 0.000000000000000000, 12.00000000000000000, 0.000000000000000000 ) ) ;
#339 = ADVANCED_FACE ( 'NONE', ( #482 ), #122, .F. ) ;
#340 = CARTESIAN_POINT ( 'NONE',  ( 1.500000000000000444, 15.99999999999999645, -2.598076211353317344 ) ) ;
#341 = CONICAL_SURFACE ( 'NONE', #371, 3.000000000000000000, 1.047197551196600074 ) ;
#342 = CARTESIAN_POINT ( 'NONE',  ( -3.000000000000000888, 15.99999999999999645, -1.732050807568879636 ) ) ;
#343 = EDGE_CURVE ( 'NONE', #500, #419, #421, .T. ) ;
#344 = CARTESIAN_POINT ( 'NONE',  ( -3.000000000000000888, 15.99999999999999645, 1.732050807568877859 ) ) ;
#345 = LINE ( 'NONE', #547, #152 ) ;
#346 = DIRECTION ( 'NONE',  ( -0.000000000000000000, -1.000000000000000000, -0.000000000000000000 ) ) ;
#347 = CARTESIAN_POINT ( 'NONE',  ( 0.000000000000000000, 0.000000000000000000, 0.000000000000000000 ) ) ;
#348 = DIRECTION ( 'NONE',  ( 0.000000000000000000, 1.000000000000000000, 0.000000000000000000 ) ) ;
#349 = ADVANCED_FACE ( 'NONE', ( #373 ), #176, .F. ) ;
#350 = CARTESIAN_POINT ( 'NONE',  ( 3.000000000000000000, 15.99999999999999645, 1.732050807568879414 ) ) ;
#351 = VECTOR ( 'NONE', #458, 1000.000000000000000 ) ;
#352 = DIRECTION ( 'NONE',  ( -0.000000000000000000, -1.000000000000000000, -0.000000000000000000 ) ) ;
#353 = AXIS2_PLACEMENT_3D ( 'NONE', #215, #19, #384 ) ;
#354 = CARTESIAN_POINT ( 'NONE',  ( 3.000000000000000000, 15.99999999999999645, 0.000000000000000000 ) ) ;
#355 = PRODUCT_DEFINITION_CONTEXT ( 'detailed design', #472, 'design' ) ;
#356 = ADVANCED_FACE ( 'NONE', ( #523 ), #321, .T. ) ;
#357 = CARTESIAN_POINT ( 'NONE',  ( 0.000000000000000000, 15.99999999999999645, 0.000000000000000000 ) ) ;
#358 = CARTESIAN_POINT ( 'NONE',  ( 0.000000000000000000, 15.99999999999999645, 0.000000000000000000 ) ) ;
#359 = EDGE_CURVE ( 'NONE', #33, #644, #263, .T. ) ;
#360 = LINE ( 'NONE', #407, #14 ) ;
#361 = VECTOR ( 'NONE', #556, 1000.000000000000114 ) ;
#362 = AXIS2_PLACEMENT_3D ( 'NONE', #136, #608, #497 ) ;
#363 = AXIS2_PLACEMENT_3D ( 'NONE', #10, #181, #579 ) ;
#364 = VERTEX_POINT ( 'NONE', #78 ) ;
#365 = EDGE_CURVE ( 'NONE', #623, #635, #273, .T. ) ;
#366 = DIRECTION ( 'NONE',  ( 0.000000000000000000, -0.000000000000000000, 1.000000000000000000 ) ) ;
#367 = PLANE ( 'NONE',  #46 ) ;
#368 = ORIENTED_EDGE ( 'NONE', *, *, #429, .T. ) ;
#369 = PLANE ( 'NONE',  #645 ) ;
#370 = ADVANCED_FACE ( 'NONE', ( #170 ), #639, .T. ) ;
#371 = AXIS2_PLACEMENT_3D ( 'NONE', #647, #43, #447 ) ;
#372 = EDGE_LOOP ( 'NONE', ( #501, #510, #57, #225, #257 ) ) ;
#373 = FACE_OUTER_BOUND ( 'NONE', #75, .T. ) ;
#374 = AXIS2_PLACEMENT_3D ( 'NONE', #379, #471, #17 ) ;
#375 =( NAMED_UNIT ( * ) PLANE_ANGLE_UNIT ( ) SI_UNIT ( $, .RADIAN. ) );
#376 = EDGE_LOOP ( 'NONE', ( #254, #400, #526, #326 ) ) ;
#377 = DIRECTION ( 'NONE',  ( -0.000000000000000000, -1.000000000000000000, -0.000000000000000000 ) ) ;
#378 = ORIENTED_EDGE ( 'NONE', *, *, #619, .T. ) ;
#379 = CARTESIAN_POINT ( 'NONE',  ( 0.000000000000000000, 15.99999999999999645, 0.000000000000000000 ) ) ;
#380 = EDGE_LOOP ( 'NONE', ( #496, #548, #465, #394 ) ) ;
#381 = AXIS2_PLACEMENT_3D ( 'NONE', #445, #149, #286 ) ;
#382 = DIRECTION ( 'NONE',  ( 0.000000000000000000, 0.000000000000000000, -1.000000000000000000 ) ) ;
#383 = ORIENTED_EDGE ( 'NONE', *, *, #529, .F. ) ;
#384 = DIRECTION ( 'NONE',  ( 0.000000000000000000, -0.000000000000000000, 1.000000000000000000 ) ) ;
#385 = ORIENTED_EDGE ( 'NONE', *, *, #612, .F. ) ;
#386 = VERTEX_POINT ( 'NONE', #168 ) ;
#387 = CIRCLE ( 'NONE', #74, 3.000000000000000000 ) ;
#388 = LINE ( 'NONE', #297, #470 ) ;
#389 = ADVANCED_FACE ( 'NONE', ( #217 ), #423, .T. ) ;
#390 = EDGE_LOOP ( 'NONE', ( #60, #489, #530, #640, #113 ) ) ;
#391 = AXIS2_PLACEMENT_3D ( 'NONE', #601, #348, #83 ) ;
#392 = DIRECTION ( 'NONE',  ( -0.5000000000000002220, 0.000000000000000000, 0.8660254037844385966 ) ) ;
#393 = DIRECTION ( 'NONE',  ( 0.000000000000000000, 0.000000000000000000, -1.000000000000000000 ) ) ;
#394 = ORIENTED_EDGE ( 'NONE', *, *, #143, .F. ) ;
#395 = CARTESIAN_POINT ( 'NONE',  ( 0.000000000000000000, 19.79999999999999716, 0.000000000000000000 ) ) ;
#396 = AXIS2_PLACEMENT_3D ( 'NONE', #53, #204, #514 ) ;
#397 = CARTESIAN_POINT ( 'NONE',  ( 0.000000000000000000, 19.99999999999999645, 0.000000000000000000 ) ) ;
#398 = EDGE_CURVE ( 'NONE', #583, #386, #508, .T. ) ;
#399 = AXIS2_PLACEMENT_3D ( 'NONE', #493, #495, #404 ) ;
#400 = ORIENTED_EDGE ( 'NONE', *, *, #506, .T. ) ;
#401 = FACE_OUTER_BOUND ( 'NONE', #372, .T. ) ;
#402 = CARTESIAN_POINT ( 'NONE',  ( -1.500000000000000888, 15.99999999999999645, 2.598076211353316456 ) ) ;
#403 = CARTESIAN_POINT ( 'NONE',  ( -3.000000000000000888, 15.99999999999999645, 1.732050807568877859 ) ) ;
#404 = DIRECTION ( 'NONE',  ( 0.000000000000000000, 0.000000000000000000, -1.000000000000000000 ) ) ;
#405 = FACE_OUTER_BOUND ( 'NONE', #518, .T. ) ;
#406 = DIRECTION ( 'NONE',  ( -0.000000000000000000, -1.000000000000000000, -0.000000000000000000 ) ) ;
#407 = CARTESIAN_POINT ( 'NONE',  ( 3.000000000000000000, 15.99999999999999645, -1.732050807568879192 ) ) ;
#408 = DIRECTION ( 'NONE',  ( 0.000000000000000000, -1.000000000000000000, -0.000000000000000000 ) ) ;
#409 = LINE ( 'NONE', #102, #592 ) ;
#410 = ORIENTED_EDGE ( 'NONE', *, *, #32, .T. ) ;
#411 = LINE ( 'NONE', #114, #275 ) ;
#412 = PLANE ( 'NONE',  #293 ) ;
#413 = CIRCLE ( 'NONE', #449, 3.000000000000000000 ) ;
#414 = VERTEX_POINT ( 'NONE', #269 ) ;
#415 = EDGE_CURVE ( 'NONE', #618, #638, #480, .T. ) ;
#416 = VECTOR ( 'NONE', #605, 1000.000000000000227 ) ;
#417 = DIRECTION ( 'NONE',  ( 0.000000000000000000, 0.000000000000000000, -1.000000000000000000 ) ) ;
#418 = AXIS2_PLACEMENT_3D ( 'NONE', #313, #614, #52 ) ;
#419 = VERTEX_POINT ( 'NONE', #477 ) ;
#420 = VERTEX_POINT ( 'NONE', #627 ) ;
#421 = LINE ( 'NONE', #630, #101 ) ;
#422 = ORIENTED_EDGE ( 'NONE', *, *, #116, .T. ) ;
#423 = PLANE ( 'NONE',  #220 ) ;
#424 = AXIS2_PLACEMENT_3D ( 'NONE', #282, #190, #498 ) ;
#425 = AXIS2_PLACEMENT_3D ( 'NONE', #173, #377, #277 ) ;
#426 = CARTESIAN_POINT ( 'NONE',  ( 0.000000000000000000, 19.99999999999999645, -6.299999999999999822 ) ) ;
#427 = VERTEX_POINT ( 'NONE', #575 ) ;
#428 = DIRECTION ( 'NONE',  ( -0.000000000000000000, -1.000000000000000000, -0.000000000000000000 ) ) ;
#429 = EDGE_CURVE ( 'NONE', #41, #481, #308, .T. ) ;
#430 = EDGE_CURVE ( 'NONE', #33, #41, #196, .T. ) ;
#431 = ORIENTED_EDGE ( 'NONE', *, *, #126, .F. ) ;
#432 = DIRECTION ( 'NONE',  ( 0.8660254037844384856, 0.000000000000000000, 0.5000000000000001110 ) ) ;
#433 = ORIENTED_EDGE ( 'NONE', *, *, #551, .F. ) ;
#434 = EDGE_CURVE ( 'NONE', #364, #437, #584, .T. ) ;
#435 = ORIENTED_EDGE ( 'NONE', *, *, #415, .T. ) ;
#436 = CARTESIAN_POINT ( 'NONE',  ( -3.000000000000000888, 15.99999999999999645, -1.732050807568879636 ) ) ;
#437 = VERTEX_POINT ( 'NONE', #444 ) ;
#438 = PRODUCT_DEFINITION_SHAPE ( 'NONE', 'NONE',  #621 ) ;
#439 = CARTESIAN_POINT ( 'NONE',  ( 0.000000000000000000, 0.000000000000000000, 0.000000000000000000 ) ) ;
#440 = EDGE_LOOP ( 'NONE', ( #539, #98, #77, #312 ) ) ;
#441 = PLANE ( 'NONE',  #110 ) ;
#442 = EDGE_CURVE ( 'NONE', #419, #274, #598, .T. ) ;
#443 = LINE ( 'NONE', #197, #268 ) ;
#444 = CARTESIAN_POINT ( 'NONE',  ( -3.000000000000000888, 19.99999999999999645, 1.732050807568877859 ) ) ;
#445 = CARTESIAN_POINT ( 'NONE',  ( 0.000000000000000000, 15.99999999999999645, 0.000000000000000000 ) ) ;
#446 = DIRECTION ( 'NONE',  ( 0.000000000000000000, 0.000000000000000000, 1.000000000000000000 ) ) ;
#447 = DIRECTION ( 'NONE',  ( 0.000000000000000000, 0.000000000000000000, 1.000000000000000000 ) ) ;
#448 = DIRECTION ( 'NONE',  ( -0.000000000000000000, 1.000000000000000000, -0.000000000000000000 ) ) ;
#449 = AXIS2_PLACEMENT_3D ( 'NONE', #358, #108, #307 ) ;
#450 = PLANE ( 'NONE',  #399 ) ;
#451 = ORIENTED_EDGE ( 'NONE', *, *, #95, .T. ) ;
#452 = CARTESIAN_POINT ( 'NONE',  ( 0.000000000000000000, 0.000000000000000000, 0.000000000000000000 ) ) ;
#453 = FACE_OUTER_BOUND ( 'NONE', #376, .T. ) ;
#454 = EDGE_CURVE ( 'NONE', #180, #67, #148, .T. ) ;
#455 = LINE ( 'NONE', #315, #503 ) ;
#456 = FILL_AREA_STYLE_COLOUR ( '', #484 ) ;
#457 = EDGE_CURVE ( 'NONE', #644, #180, #35, .T. ) ;
#458 = DIRECTION ( 'NONE',  ( 0.000000000000000000, 0.000000000000000000, -1.000000000000000000 ) ) ;
#459 = SURFACE_STYLE_USAGE ( .BOTH. , #247 ) ;
#460 = LINE ( 'NONE', #207, #47 ) ;
#461 = ORIENTED_EDGE ( 'NONE', *, *, #415, .F. ) ;
#462 = DIRECTION ( 'NONE',  ( 1.060575238724908147E-16, 0.4999999999999979461, -0.8660254037844397068 ) ) ;
#463 = ORIENTED_EDGE ( 'NONE', *, *, #239, .T. ) ;
#464 = DIRECTION ( 'NONE',  ( -0.000000000000000000, -1.000000000000000000, -0.000000000000000000 ) ) ;
#465 = ORIENTED_EDGE ( 'NONE', *, *, #9, .F. ) ;
#466 = LINE ( 'NONE', #311, #531 ) ;
#467 = VECTOR ( 'NONE', #432, 1000.000000000000227 ) ;
#468 = EDGE_LOOP ( 'NONE', ( #522, #422 ) ) ;
#469 = ORIENTED_EDGE ( 'NONE', *, *, #577, .F. ) ;
#470 = VECTOR ( 'NONE', #144, 1000.000000000000114 ) ;
#471 = DIRECTION ( 'NONE',  ( -0.000000000000000000, -1.000000000000000000, -0.000000000000000000 ) ) ;
#472 = APPLICATION_CONTEXT ( 'automotive_design' ) ;
#473 = ORIENTED_EDGE ( 'NONE', *, *, #434, .F. ) ;
#474 = DIRECTION ( 'NONE',  ( 0.000000000000000000, 0.000000000000000000, -1.000000000000000000 ) ) ;
#475 = EDGE_CURVE ( 'NONE', #437, #118, #657, .T. ) ;
#476 = ORIENTED_EDGE ( 'NONE', *, *, #85, .F. ) ;
#477 = CARTESIAN_POINT ( 'NONE',  ( -2.027631620441657612E-17, 15.99999999999999645, -3.464101615137756607 ) ) ;
#478 = ADVANCED_FACE ( 'NONE', ( #401 ), #441, .F. ) ;
#479 = AXIS2_PLACEMENT_3D ( 'NONE', #338, #552, #393 ) ;
#480 = CIRCLE ( 'NONE', #146, 6.299999999999999822 ) ;
#481 = VERTEX_POINT ( 'NONE', #140 ) ;
#482 = FACE_OUTER_BOUND ( 'NONE', #390, .T. ) ;
#483 = CARTESIAN_POINT ( 'NONE',  ( 0.000000000000000000, 1.836970198721029934E-16, 0.000000000000000000 ) ) ;
#484 = COLOUR_RGB ( '',0.7921568627450980005, 0.8196078431372548767, 0.9333333333333333481 ) ;
#485 = EDGE_CURVE ( 'NONE', #364, #33, #285, .T. ) ;
#486 = ORIENTED_EDGE ( 'NONE', *, *, #306, .T. ) ;
#487 = CARTESIAN_POINT ( 'NONE',  ( 0.000000000000000000, 19.99999999999999645, 0.000000000000000000 ) ) ;
#488 = ORIENTED_EDGE ( 'NONE', *, *, #485, .T. ) ;
#489 = ORIENTED_EDGE ( 'NONE', *, *, #89, .F. ) ;
#490 = DIRECTION ( 'NONE',  ( 0.4999999999999996114, 0.000000000000000000, 0.8660254037844388186 ) ) ;
#491 = FACE_OUTER_BOUND ( 'NONE', #572, .T. ) ;
#492 = CARTESIAN_POINT ( 'NONE',  ( -1.310243621811477179E-15, 15.99999999999999645, 3.464101615137755719 ) ) ;
#493 = CARTESIAN_POINT ( 'NONE',  ( 4.000000000000001776, 9.184850993605149670E-17, 0.000000000000000000 ) ) ;
#494 = DIRECTION ( 'NONE',  ( 0.000000000000000000, 0.000000000000000000, -1.000000000000000000 ) ) ;
#495 = DIRECTION ( 'NONE',  ( 0.000000000000000000, -1.000000000000000000, -0.000000000000000000 ) ) ;
#496 = ORIENTED_EDGE ( 'NONE', *, *, #228, .T. ) ;
#497 = DIRECTION ( 'NONE',  ( 0.000000000000000000, 0.000000000000000000, -1.000000000000000000 ) ) ;
#498 = DIRECTION ( 'NONE',  ( -0.8660254037844387076, 0.000000000000000000, -0.4999999999999999445 ) ) ;
#499 = ADVANCED_FACE ( 'NONE', ( #191 ), #546, .F. ) ;
#500 = VERTEX_POINT ( 'NONE', #340 ) ;
#501 = ORIENTED_EDGE ( 'NONE', *, *, #475, .T. ) ;
#502 = CARTESIAN_POINT ( 'NONE',  ( 0.000000000000000000, 19.79999999999999716, 0.000000000000000000 ) ) ;
#503 = VECTOR ( 'NONE', #352, 1000.000000000000000 ) ;
#504 = CARTESIAN_POINT ( 'NONE',  ( 7.960204194457795477E-16, 19.79999999999999716, 6.499999999999999112 ) ) ;
#505 = DIRECTION ( 'NONE',  ( 0.000000000000000000, 0.000000000000000000, -1.000000000000000000 ) ) ;
#506 = EDGE_CURVE ( 'NONE', #134, #232, #656, .T. ) ;
#507 = CARTESIAN_POINT ( 'NONE',  ( 1.499999999999999112, 15.99999999999999645, 2.598076211353316900 ) ) ;
#508 = CIRCLE ( 'NONE', #425, 6.500000000000000888 ) ;
#509 = LINE ( 'NONE', #252, #20 ) ;
#510 = ORIENTED_EDGE ( 'NONE', *, *, #214, .F. ) ;
#511 = FACE_OUTER_BOUND ( 'NONE', #64, .T. ) ;
#512 = FACE_OUTER_BOUND ( 'NONE', #222, .T. ) ;
#513 = ORIENTED_EDGE ( 'NONE', *, *, #365, .T. ) ;
#514 = DIRECTION ( 'NONE',  ( 0.000000000000000000, 0.000000000000000000, -1.000000000000000000 ) ) ;
#515 = CIRCLE ( 'NONE', #396, 3.000000000000000000 ) ;
#516 = DIRECTION ( 'NONE',  ( 0.000000000000000000, 0.000000000000000000, 1.000000000000000000 ) ) ;
#517 = DIRECTION ( 'NONE',  ( -0.000000000000000000, -1.000000000000000000, -0.000000000000000000 ) ) ;
#518 = EDGE_LOOP ( 'NONE', ( #535, #212 ) ) ;
#519 = DIRECTION ( 'NONE',  ( 0.000000000000000000, 0.000000000000000000, -1.000000000000000000 ) ) ;
#520 = PRODUCT_RELATED_PRODUCT_CATEGORY ( 'part', '', ( #538 ) ) ;
#521 = ADVANCED_FACE ( 'NONE', ( #150 ), #560, .T. ) ;
#522 = ORIENTED_EDGE ( 'NONE', *, *, #9, .T. ) ;
#523 = FACE_OUTER_BOUND ( 'NONE', #380, .T. ) ;
#524 = EDGE_LOOP ( 'NONE', ( #385, #513, #433, #574, #594, #320 ) ) ;
#525 = CARTESIAN_POINT ( 'NONE',  ( 0.000000000000000000, 15.99999999999999645, 0.000000000000000000 ) ) ;
#526 = ORIENTED_EDGE ( 'NONE', *, *, #284, .T. ) ;
#527 = AXIS2_PLACEMENT_3D ( 'NONE', #637, #517, #382 ) ;
#528 = FACE_OUTER_BOUND ( 'NONE', #440, .T. ) ;
#529 = EDGE_CURVE ( 'NONE', #232, #134, #596, .T. ) ;
#530 = ORIENTED_EDGE ( 'NONE', *, *, #550, .F. ) ;
#531 = VECTOR ( 'NONE', #250, 1000.000000000000227 ) ;
#532 = ORIENTED_EDGE ( 'NONE', *, *, #260, .T. ) ;
#533 = CARTESIAN_POINT ( 'NONE',  ( 3.000000000000000000, 19.99999999999999645, 1.732050807568879414 ) ) ;
#534 = CIRCLE ( 'NONE', #188, 3.000000000000000000 ) ;
#535 = ORIENTED_EDGE ( 'NONE', *, *, #398, .T. ) ;
#536 = AXIS2_PLACEMENT_3D ( 'NONE', #357, #104, #300 ) ;
#537 = ADVANCED_FACE ( 'NONE', ( #337 ), #164, .F. ) ;
#538 = PRODUCT ( 'DIN912 - M8X12', 'DIN912 - M8X12', '', ( #199 ) ) ;
#539 = ORIENTED_EDGE ( 'NONE', *, *, #359, .T. ) ;
#540 = DIRECTION ( 'NONE',  ( 0.000000000000000000, 0.000000000000000000, -1.000000000000000000 ) ) ;
#541 = CARTESIAN_POINT ( 'NONE',  ( 3.000000000000000000, 19.99999999999999645, -1.732050807568879192 ) ) ;
#542 = DIRECTION ( 'NONE',  ( -0.000000000000000000, -1.000000000000000000, -0.000000000000000000 ) ) ;
#543 = FACE_OUTER_BOUND ( 'NONE', #184, .T. ) ;
#544 = APPLICATION_CONTEXT ( 'automotive_design' ) ;
#545 = VECTOR ( 'NONE', #185, 1000.000000000000114 ) ;
#546 = PLANE ( 'NONE',  #271 ) ;
#547 = CARTESIAN_POINT ( 'NONE',  ( 0.000000000000000000, 0.000000000000000000, -4.000000000000000000 ) ) ;
#548 = ORIENTED_EDGE ( 'NONE', *, *, #650, .T. ) ;
#549 = CARTESIAN_POINT ( 'NONE',  ( -3.000000000000000888, 15.99999999999999645, -1.732050807568879636 ) ) ;
#550 = EDGE_CURVE ( 'NONE', #481, #597, #388, .T. ) ;
#551 = EDGE_CURVE ( 'NONE', #180, #635, #534, .T. ) ;
#552 = DIRECTION ( 'NONE',  ( -0.000000000000000000, -1.000000000000000000, -0.000000000000000000 ) ) ;
#553 = ORIENTED_EDGE ( 'NONE', *, *, #178, .F. ) ;
#554 = AXIS2_PLACEMENT_3D ( 'NONE', #562, #563, #505 ) ;
#555 = DIRECTION ( 'NONE',  ( -0.000000000000000000, -1.000000000000000000, -0.000000000000000000 ) ) ;
#556 = DIRECTION ( 'NONE',  ( -0.8660254037844387076, 0.000000000000000000, 0.4999999999999997224 ) ) ;
#557 = CARTESIAN_POINT ( 'NONE',  ( 0.000000000000000000, 14.26794919243112858, 0.000000000000000000 ) ) ;
#558 = AXIS2_PLACEMENT_3D ( 'NONE', #582, #70, #474 ) ;
#559 = CARTESIAN_POINT ( 'NONE',  ( -2.027631620441657612E-17, 19.99999999999999645, -3.464101615137756607 ) ) ;
#560 = TOROIDAL_SURFACE ( 'NONE', #334, 6.299999999999999822, 0.1999999999999992339 ) ;
#561 = CARTESIAN_POINT ( 'NONE',  ( -3.000000000000000888, 15.99999999999999645, -1.732050807568879636 ) ) ;
#562 = CARTESIAN_POINT ( 'NONE',  ( 0.000000000000000000, 12.00000000000000000, 0.000000000000000000 ) ) ;
#563 = DIRECTION ( 'NONE',  ( -0.000000000000000000, -1.000000000000000000, -0.000000000000000000 ) ) ;
#564 = AXIS2_PLACEMENT_3D ( 'NONE', #11, #129, #210 ) ;
#565 = VECTOR ( 'NONE', #233, 1000.000000000000227 ) ;
#566 = DIRECTION ( 'NONE',  ( -0.000000000000000000, 1.000000000000000000, -0.000000000000000000 ) ) ;
#567 = ORIENTED_EDGE ( 'NONE', *, *, #289, .T. ) ;
#568 = VECTOR ( 'NONE', #99, 1000.000000000000000 ) ;
#569 = SURFACE_STYLE_FILL_AREA ( #107 ) ;
#570 = STYLED_ITEM ( 'NONE', ( #7 ), #634 ) ;
#571 = PLANE ( 'NONE',  #106 ) ;
#572 = EDGE_LOOP ( 'NONE', ( #123, #213, #265, #82, #486 ) ) ;
#573 = PRODUCT_DEFINITION_FORMATION_WITH_SPECIFIED_SOURCE ( 'ANY', '', #538, .NOT_KNOWN. ) ;
#574 = ORIENTED_EDGE ( 'NONE', *, *, #619, .F. ) ;
#575 = CARTESIAN_POINT ( 'NONE',  ( 0.000000000000000000, 1.836970198721029934E-16, -4.000000000000001776 ) ) ;
#576 = EDGE_CURVE ( 'NONE', #597, #41, #230, .T. ) ;
#577 = EDGE_CURVE ( 'NONE', #41, #364, #652, .T. ) ;
#578 = ORIENTED_EDGE ( 'NONE', *, *, #289, .F. ) ;
#579 = DIRECTION ( 'NONE',  ( 0.000000000000000000, -0.000000000000000000, 1.000000000000000000 ) ) ;
#580 = EDGE_CURVE ( 'NONE', #27, #274, #643, .T. ) ;
#581 = ORIENTED_EDGE ( 'NONE', *, *, #178, .T. ) ;
#582 = CARTESIAN_POINT ( 'NONE',  ( 0.000000000000000000, 0.000000000000000000, 0.000000000000000000 ) ) ;
#583 = VERTEX_POINT ( 'NONE', #94 ) ;
#584 = LINE ( 'NONE', #241, #54 ) ;
#585 = VERTEX_POINT ( 'NONE', #291 ) ;
#586 = AXIS2_PLACEMENT_3D ( 'NONE', #397, #602, #238 ) ;
#587 = DIRECTION ( 'NONE',  ( -0.000000000000000000, -1.000000000000000000, -0.000000000000000000 ) ) ;
#588 = EDGE_LOOP ( 'NONE', ( #632, #15, #97, #629, #280 ) ) ;
#589 = DIRECTION ( 'NONE',  ( -0.000000000000000000, 1.000000000000000000, 0.000000000000000000 ) ) ;
#590 = ADVANCED_FACE ( 'NONE', ( #511 ), #111, .T. ) ;
#591 = ORIENTED_EDGE ( 'NONE', *, *, #626, .T. ) ;
#592 = VECTOR ( 'NONE', #301, 1000.000000000000000 ) ;
#593 = DIRECTION ( 'NONE',  ( 1.000000000000000000, 0.000000000000000000, 0.000000000000000000 ) ) ;
#594 = ORIENTED_EDGE ( 'NONE', *, *, #244, .F. ) ;
#595 = CARTESIAN_POINT ( 'NONE',  ( -2.027631620441657612E-17, 15.99999999999999645, -3.464101615137756607 ) ) ;
#596 = CIRCLE ( 'NONE', #264, 6.499999999999999112 ) ;
#597 = VERTEX_POINT ( 'NONE', #561 ) ;
#598 = LINE ( 'NONE', #595, #171 ) ;
#599 = DIRECTION ( 'NONE',  ( 0.000000000000000000, -0.000000000000000000, 1.000000000000000000 ) ) ;
#600 = EDGE_LOOP ( 'NONE', ( #30, #532, #331, #336 ) ) ;
#601 = CARTESIAN_POINT ( 'NONE',  ( 0.000000000000000000, 15.99999999999999645, 0.000000000000000000 ) ) ;
#602 = DIRECTION ( 'NONE',  ( -0.000000000000000000, -1.000000000000000000, -0.000000000000000000 ) ) ;
#603 = SHAPE_DEFINITION_REPRESENTATION ( #438, #287 ) ;
#604 = ORIENTED_EDGE ( 'NONE', *, *, #430, .T. ) ;
#605 = DIRECTION ( 'NONE',  ( -0.8660254037844385966, 0.000000000000000000, -0.4999999999999998890 ) ) ;
#606 = CARTESIAN_POINT ( 'NONE',  ( 0.000000000000000000, 15.99999999999999645, 0.000000000000000000 ) ) ;
#607 = ORIENTED_EDGE ( 'NONE', *, *, #143, .T. ) ;
#608 = DIRECTION ( 'NONE',  ( -0.000000000000000000, -1.000000000000000000, -0.000000000000000000 ) ) ;
#609 = CYLINDRICAL_SURFACE ( 'NONE', #270, 6.500000000000000000 ) ;
#610 = VECTOR ( 'NONE', #40, 1000.000000000000000 ) ;
#611 = DIRECTION ( 'NONE',  ( -0.000000000000000000, 1.000000000000000000, -0.000000000000000000 ) ) ;
#612 = EDGE_CURVE ( 'NONE', #623, #161, #411, .T. ) ;
#613 = CARTESIAN_POINT ( 'NONE',  ( -2.027631620441657612E-17, 15.99999999999999645, -3.464101615137756607 ) ) ;
#614 = DIRECTION ( 'NONE',  ( -1.000000000000000000, 0.000000000000000000, 0.000000000000000000 ) ) ;
#615 = CARTESIAN_POINT ( 'NONE',  ( 6.500000000000000888, 12.00000000000000000, 0.000000000000000000 ) ) ;
#616 = CARTESIAN_POINT ( 'NONE',  ( 0.000000000000000000, 15.99999999999999645, 0.000000000000000000 ) ) ;
#617 = LINE ( 'NONE', #159, #299 ) ;
#618 = VERTEX_POINT ( 'NONE', #303 ) ;
#619 = EDGE_CURVE ( 'NONE', #227, #180, #166, .T. ) ;
#620 = CIRCLE ( 'NONE', #564, 6.500000000000000888 ) ;
#621 = PRODUCT_DEFINITION ( 'UNKNOWN', '', #573, #355 ) ;
#622 = FACE_OUTER_BOUND ( 'NONE', #259, .T. ) ;
#623 = VERTEX_POINT ( 'NONE', #557 ) ;
#624 =( LENGTH_UNIT ( ) NAMED_UNIT ( * ) SI_UNIT ( .MILLI., .METRE. ) );
#625 = CIRCLE ( 'NONE', #418, 0.1999999999999987899 ) ;
#626 = EDGE_CURVE ( 'NONE', #67, #323, #203, .T. ) ;
#627 = CARTESIAN_POINT ( 'NONE',  ( 4.898587196589411843E-16, 12.00000000000000000, 3.999999999999998224 ) ) ;
#628 = ORIENTED_EDGE ( 'NONE', *, *, #201, .F. ) ;
#629 = ORIENTED_EDGE ( 'NONE', *, *, #457, .F. ) ;
#630 = CARTESIAN_POINT ( 'NONE',  ( 3.000000000000000000, 15.99999999999999645, -1.732050807568879192 ) ) ;
#631 = EDGE_CURVE ( 'NONE', #638, #232, #625, .T. ) ;
#632 = ORIENTED_EDGE ( 'NONE', *, *, #174, .T. ) ;
#633 = DIRECTION ( 'NONE',  ( 1.000000000000000000, 0.000000000000000000, 0.000000000000000000 ) ) ;
#634 = MANIFOLD_SOLID_BREP ( 'Key Cutout', #109 ) ;
#635 = VERTEX_POINT ( 'NONE', #120 ) ;
#636 = DIRECTION ( 'NONE',  ( 0.000000000000000000, 0.000000000000000000, -1.000000000000000000 ) ) ;
#637 = CARTESIAN_POINT ( 'NONE',  ( 0.000000000000000000, 19.79999999999999716, 0.000000000000000000 ) ) ;
#638 = VERTEX_POINT ( 'NONE', #426 ) ;
#639 = PLANE ( 'NONE',  #353 ) ;
#640 = ORIENTED_EDGE ( 'NONE', *, *, #260, .F. ) ;
#641 = VECTOR ( 'NONE', #211, 1000.000000000000000 ) ;
#642 = EDGE_LOOP ( 'NONE', ( #187, #473, #469, #236, #267 ) ) ;
#643 = LINE ( 'NONE', #194, #416 ) ;
#644 = VERTEX_POINT ( 'NONE', #179 ) ;
#645 = AXIS2_PLACEMENT_3D ( 'NONE', #128, #133, #329 ) ;
#646 = ADVANCED_FACE ( 'NONE', ( #224 ), #240, .T. ) ;
#647 = CARTESIAN_POINT ( 'NONE',  ( 0.000000000000000000, 15.99999999999999645, 0.000000000000000000 ) ) ;
#648 = DIRECTION ( 'NONE',  ( 0.8660254037844388186, 0.000000000000000000, -0.4999999999999996114 ) ) ;
#649 = CARTESIAN_POINT ( 'NONE',  ( 0.000000000000000000, 0.000000000000000000, 0.000000000000000000 ) ) ;
#650 = EDGE_CURVE ( 'NONE', #420, #414, #63, .T. ) ;
#651 = CIRCLE ( 'NONE', #586, 6.299999999999999822 ) ;
#652 = LINE ( 'NONE', #436, #246 ) ;
#653 =( GEOMETRIC_REPRESENTATION_CONTEXT ( 3 ) GLOBAL_UNCERTAINTY_ASSIGNED_CONTEXT ( ( #302 ) ) GLOBAL_UNIT_ASSIGNED_CONTEXT ( ( #624, #375, #325 ) ) REPRESENTATION_CONTEXT ( 'NONE', 'WORKASPACE' ) );
#654 = DIRECTION ( 'NONE',  ( -0.000000000000000000, -1.000000000000000000, -0.000000000000000000 ) ) ;
#655 = AXIS2_PLACEMENT_3D ( 'NONE', #606, #248, #599 ) ;
#656 = CIRCLE ( 'NONE', #362, 6.499999999999999112 ) ;
#657 = LINE ( 'NONE', #189, #24 ) ;
#658 = PLANE ( 'NONE',  #424 ) ;
#659 = AXIS2_PLACEMENT_3D ( 'NONE', #452, #406, #255 ) ;
ENDSEC;
END-ISO-10303-21;
