ISO-10303-21;
HEADER;
FILE_DESCRIPTION (( 'STEP AP214' ),
    '1' );
FILE_NAME ('DIN912 - M5X8.STEP',
    '2023-12-01T09:17:08',
    ( '' ),
    ( '' ),
    'SwSTEP 2.0',
    'SolidWorks 2023',
    '' );
FILE_SCHEMA (( 'AUTOMOTIVE_DESIGN' ));
ENDSEC;

DATA;
#1 = DIRECTION ( 'NONE',  ( 2.793644756525155442E-18, -1.000000000000000000, -0.000000000000000000 ) ) ;
#2 = DIRECTION ( 'NONE',  ( -0.8660254037844387076, -2.419367328299977472E-18, -0.4999999999999998890 ) ) ;
#3 = ORIENTED_EDGE ( 'NONE', *, *, #465, .T. ) ;
#4 = CARTESIAN_POINT ( 'NONE',  ( 0.000000000000000000, 10.30000000000000071, 0.000000000000000000 ) ) ;
#5 = DIRECTION ( 'NONE',  ( 0.8660254037844397068, 0.4999999999999979461, 1.060575238724908147E-16 ) ) ;
#6 = PLANE ( 'NONE',  #80 ) ;
#7 = EDGE_LOOP ( 'NONE', ( #176, #164, #125 ) ) ;
#8 = DIRECTION ( 'NONE',  ( 0.000000000000000000, 0.000000000000000000, 1.000000000000000000 ) ) ;
#9 = CARTESIAN_POINT ( 'NONE',  ( -9.128801346521024115E-16, 10.30000000000000071, 2.309401076758504257 ) ) ;
#10 = PLANE ( 'NONE',  #590 ) ;
#11 = VERTEX_POINT ( 'NONE', #76 ) ;
#12 = DIRECTION ( 'NONE',  ( -0.000000000000000000, 1.000000000000000000, -0.000000000000000000 ) ) ;
#13 = LINE ( 'NONE', #71, #464 ) ;
#14 = DIRECTION ( 'NONE',  ( 2.793644756525155442E-18, -1.000000000000000000, -0.000000000000000000 ) ) ;
#15 = ORIENTED_EDGE ( 'NONE', *, *, #127, .F. ) ;
#16 = DIRECTION ( 'NONE',  ( 0.000000000000000000, 0.000000000000000000, -1.000000000000000000 ) ) ;
#17 = APPLICATION_PROTOCOL_DEFINITION ( 'draft international standard', 'automotive_design', 1998, #286 ) ;
#18 = ADVANCED_FACE ( 'NONE', ( #223 ), #468, .T. ) ;
#19 = CIRCLE ( 'NONE', #47, 0.1999999999999983458 ) ;
#20 = ORIENTED_EDGE ( 'NONE', *, *, #142, .T. ) ;
#21 = DIRECTION ( 'NONE',  ( 1.000000000000000000, 0.000000000000000000, 0.000000000000000000 ) ) ;
#22 = EDGE_CURVE ( 'NONE', #182, #564, #340, .T. ) ;
#23 = CARTESIAN_POINT ( 'NONE',  ( 2.500000000000001332, 3.410822592434009296E-17, 0.000000000000000000 ) ) ;
#24 = VECTOR ( 'NONE', #506, 1000.000000000000000 ) ;
#25 = FILL_AREA_STYLE_COLOUR ( '', #276 ) ;
#26 = VECTOR ( 'NONE', #253, 1000.000000000000000 ) ;
#27 = ORIENTED_EDGE ( 'NONE', *, *, #48, .F. ) ;
#28 =( GEOMETRIC_REPRESENTATION_CONTEXT ( 3 ) GLOBAL_UNCERTAINTY_ASSIGNED_CONTEXT ( ( #391 ) ) GLOBAL_UNIT_ASSIGNED_CONTEXT ( ( #376, #614, #368 ) ) REPRESENTATION_CONTEXT ( 'NONE', 'WORKASPACE' ) );
#29 = DIRECTION ( 'NONE',  ( -1.000000000000000000, 0.000000000000000000, 0.000000000000000000 ) ) ;
#30 = ORIENTED_EDGE ( 'NONE', *, *, #301, .F. ) ;
#31 = LINE ( 'NONE', #126, #352 ) ;
#32 = ORIENTED_EDGE ( 'NONE', *, *, #63, .T. ) ;
#33 = FILL_AREA_STYLE ('',( #25 ) ) ;
#34 = CARTESIAN_POINT ( 'NONE',  ( 2.000000000000000000, 10.30000000000000071, 1.154700538379252794 ) ) ;
#35 = CARTESIAN_POINT ( 'NONE',  ( -9.128801346521024115E-16, 13.00000000000000178, 2.309401076758504257 ) ) ;
#36 = CIRCLE ( 'NONE', #540, 2.000000000000000000 ) ;
#37 = ORIENTED_EDGE ( 'NONE', *, *, #627, .F. ) ;
#38 = EDGE_CURVE ( 'NONE', #351, #435, #19, .T. ) ;
#39 = DIRECTION ( 'NONE',  ( 1.000000000000000000, 0.000000000000000000, 0.000000000000000000 ) ) ;
#40 = EDGE_CURVE ( 'NONE', #575, #145, #240, .T. ) ;
#41 = CARTESIAN_POINT ( 'NONE',  ( -2.000000000000000888, 10.30000000000000071, 1.154700538379251906 ) ) ;
#42 = VECTOR ( 'NONE', #5, 1000.000000000000114 ) ;
#43 = DIRECTION ( 'NONE',  ( 1.000000000000000000, 0.000000000000000000, 0.000000000000000000 ) ) ;
#44 = ORIENTED_EDGE ( 'NONE', *, *, #339, .F. ) ;
#45 = CARTESIAN_POINT ( 'NONE',  ( -2.000000000000000000, 10.30000000000000071, 0.000000000000000000 ) ) ;
#46 = EDGE_CURVE ( 'NONE', #525, #575, #222, .T. ) ;
#47 = AXIS2_PLACEMENT_3D ( 'NONE', #233, #335, #99 ) ;
#48 = EDGE_CURVE ( 'NONE', #325, #207, #101, .T. ) ;
#49 = DIRECTION ( 'NONE',  ( -0.8660254037844387076, 0.000000000000000000, 0.4999999999999998335 ) ) ;
#50 = CYLINDRICAL_SURFACE ( 'NONE', #87, 4.250000000000000000 ) ;
#51 = DIRECTION ( 'NONE',  ( 2.793644756525155442E-18, -1.000000000000000000, -0.000000000000000000 ) ) ;
#52 = VECTOR ( 'NONE', #8, 1000.000000000000000 ) ;
#53 = CARTESIAN_POINT ( 'NONE',  ( 2.500000000000000444, 13.00000000000000178, -0.8660254037844400399 ) ) ;
#54 = VERTEX_POINT ( 'NONE', #577 ) ;
#55 = PLANE ( 'NONE',  #224 ) ;
#56 = CIRCLE ( 'NONE', #579, 4.250000000000000000 ) ;
#57 = CYLINDRICAL_SURFACE ( 'NONE', #423, 2.500000000000000444 ) ;
#58 = DIRECTION ( 'NONE',  ( 0.4999999999999998890, 0.000000000000000000, -0.8660254037844387076 ) ) ;
#59 = ORIENTED_EDGE ( 'NONE', *, *, #567, .T. ) ;
#60 = PLANE ( 'NONE',  #384 ) ;
#61 = AXIS2_PLACEMENT_3D ( 'NONE', #344, #96, #534 ) ;
#62 = PLANE ( 'NONE',  #128 ) ;
#63 = EDGE_CURVE ( 'NONE', #564, #525, #36, .T. ) ;
#64 = CARTESIAN_POINT ( 'NONE',  ( 1.602467364578572919E-16, 10.30000000000000071, -2.309401076758504701 ) ) ;
#65 = EDGE_LOOP ( 'NONE', ( #319, #104, #85, #212, #129, #611 ) ) ;
#66 = CARTESIAN_POINT ( 'NONE',  ( 1.000000000000000444, 10.30000000000000071, -1.732050807568878525 ) ) ;
#67 = EDGE_CURVE ( 'NONE', #197, #185, #144, .T. ) ;
#68 = DIRECTION ( 'NONE',  ( 2.793644756525155442E-18, -1.000000000000000000, -0.000000000000000000 ) ) ;
#69 = CARTESIAN_POINT ( 'NONE',  ( 2.000000000000000000, 10.30000000000000071, 1.154700538379252794 ) ) ;
#70 = VERTEX_POINT ( 'NONE', #626 ) ;
#71 = CARTESIAN_POINT ( 'NONE',  ( -2.000000000000000888, 10.30000000000000071, -1.154700538379252794 ) ) ;
#72 = AXIS2_PLACEMENT_3D ( 'NONE', #414, #601, #498 ) ;
#73 = ORIENTED_EDGE ( 'NONE', *, *, #292, .F. ) ;
#74 = EDGE_CURVE ( 'NONE', #428, #333, #75, .T. ) ;
#75 = CIRCLE ( 'NONE', #400, 2.000000000000000000 ) ;
#76 = CARTESIAN_POINT ( 'NONE',  ( 2.000000000000000000, 10.30000000000000071, -1.154700538379253016 ) ) ;
#77 = PLANE ( 'NONE',  #143 ) ;
#78 = ORIENTED_EDGE ( 'NONE', *, *, #565, .T. ) ;
#79 = TOROIDAL_SURFACE ( 'NONE', #141, 4.050000000000001599, 0.1999999999999983458 ) ;
#80 = AXIS2_PLACEMENT_3D ( 'NONE', #542, #410, #610 ) ;
#81 = ORIENTED_EDGE ( 'NONE', *, *, #496, .T. ) ;
#82 = AXIS2_PLACEMENT_3D ( 'NONE', #424, #519, #280 ) ;
#83 = CARTESIAN_POINT ( 'NONE',  ( 2.500000000000000000, 8.000000000000000000, 0.000000000000000000 ) ) ;
#84 = PRODUCT_DEFINITION_CONTEXT ( 'detailed design', #594, 'design' ) ;
#85 = ORIENTED_EDGE ( 'NONE', *, *, #334, .F. ) ;
#86 = ORIENTED_EDGE ( 'NONE', *, *, #337, .F. ) ;
#87 = AXIS2_PLACEMENT_3D ( 'NONE', #117, #388, #586 ) ;
#88 = LINE ( 'NONE', #188, #314 ) ;
#89 = EDGE_LOOP ( 'NONE', ( #267, #521, #32 ) ) ;
#90 = SURFACE_SIDE_STYLE ('',( #583 ) ) ;
#91 = ADVANCED_FACE ( 'NONE', ( #532 ), #432, .F. ) ;
#92 = AXIS2_PLACEMENT_3D ( 'NONE', #350, #452, #318 ) ;
#93 = CARTESIAN_POINT ( 'NONE',  ( -2.877454099220909924E-17, 10.30000000000000071, 0.000000000000000000 ) ) ;
#94 = ADVANCED_FACE ( 'NONE', ( #296 ), #389, .F. ) ;
#95 = DIRECTION ( 'NONE',  ( 2.793644756525155442E-18, -1.000000000000000000, -0.000000000000000000 ) ) ;
#96 = DIRECTION ( 'NONE',  ( -0.5000000000000003331, 0.000000000000000000, 0.8660254037844385966 ) ) ;
#97 = ORIENTED_EDGE ( 'NONE', *, *, #529, .F. ) ;
#98 = CARTESIAN_POINT ( 'NONE',  ( -1.515502778875136077E-34, 5.424822806605438907E-17, 0.000000000000000000 ) ) ;
#99 = DIRECTION ( 'NONE',  ( -1.000000000000000000, 0.000000000000000000, 0.000000000000000000 ) ) ;
#100 = DIRECTION ( 'NONE',  ( 0.8660254037844388186, 2.419367328299977857E-18, -0.4999999999999997224 ) ) ;
#101 = CIRCLE ( 'NONE', #466, 4.250000000000000888 ) ;
#102 = DIRECTION ( 'NONE',  ( -0.000000000000000000, 1.000000000000000000, 0.000000000000000000 ) ) ;
#103 = CARTESIAN_POINT ( 'NONE',  ( -2.234915805220124354E-17, 8.000000000000000000, 0.000000000000000000 ) ) ;
#104 = ORIENTED_EDGE ( 'NONE', *, *, #323, .F. ) ;
#105 = ADVANCED_BREP_SHAPE_REPRESENTATION ( 'DIN912 - M5X8', ( #398, #82 ), #28 ) ;
#106 = DIRECTION ( 'NONE',  ( 1.000000000000000000, 2.793644756525157368E-18, 0.000000000000000000 ) ) ;
#107 = DIRECTION ( 'NONE',  ( 1.000000000000000000, 2.793644756525157368E-18, 0.000000000000000000 ) ) ;
#108 = CIRCLE ( 'NONE', #246, 2.500000000000000000 ) ;
#109 = DIRECTION ( 'NONE',  ( 2.793644756525155442E-18, -1.000000000000000000, -0.000000000000000000 ) ) ;
#110 = EDGE_LOOP ( 'NONE', ( #383, #30 ) ) ;
#111 = LINE ( 'NONE', #402, #52 ) ;
#112 = EDGE_CURVE ( 'NONE', #145, #185, #580, .T. ) ;
#113 = DIRECTION ( 'NONE',  ( 0.000000000000000000, -0.000000000000000000, 1.000000000000000000 ) ) ;
#114 = VECTOR ( 'NONE', #546, 1000.000000000000000 ) ;
#115 = DIRECTION ( 'NONE',  ( 2.793644756525155442E-18, -1.000000000000000000, -0.000000000000000000 ) ) ;
#116 = EDGE_LOOP ( 'NONE', ( #603, #138 ) ) ;
#117 = CARTESIAN_POINT ( 'NONE',  ( 0.000000000000000000, 0.000000000000000000, 0.000000000000000000 ) ) ;
#118 = AXIS2_PLACEMENT_3D ( 'NONE', #211, #312, #256 ) ;
#119 = CARTESIAN_POINT ( 'NONE',  ( 0.000000000000000000, 10.30000000000000071, 0.000000000000000000 ) ) ;
#120 = DIRECTION ( 'NONE',  ( 1.000000000000000000, 2.793644756525155057E-18, 0.000000000000000000 ) ) ;
#121 = EDGE_LOOP ( 'NONE', ( #509, #596, #631, #174, #274 ) ) ;
#122 = CARTESIAN_POINT ( 'NONE',  ( -1.515502778875136077E-34, 5.424822806605438907E-17, 0.000000000000000000 ) ) ;
#123 = CARTESIAN_POINT ( 'NONE',  ( -2.500000000000001776, 4.726411617474148756E-17, 3.061616997868385113E-16 ) ) ;
#124 = ADVANCED_FACE ( 'NONE', ( #630 ), #150, .F. ) ;
#125 = ORIENTED_EDGE ( 'NONE', *, *, #189, .T. ) ;
#126 = CARTESIAN_POINT ( 'NONE',  ( 2.000000000000000000, 10.30000000000000071, 1.154700538379252794 ) ) ;
#127 = EDGE_CURVE ( 'NONE', #54, #257, #530, .T. ) ;
#128 = AXIS2_PLACEMENT_3D ( 'NONE', #306, #597, #255 ) ;
#129 = ORIENTED_EDGE ( 'NONE', *, *, #67, .F. ) ;
#130 = DIRECTION ( 'NONE',  ( 2.793644756525155442E-18, -1.000000000000000000, -0.000000000000000000 ) ) ;
#131 = VECTOR ( 'NONE', #338, 1000.000000000000000 ) ;
#132 = ORIENTED_EDGE ( 'NONE', *, *, #67, .T. ) ;
#133 = CARTESIAN_POINT ( 'NONE',  ( -2.877454099220909924E-17, 10.30000000000000071, 0.000000000000000000 ) ) ;
#134 = VERTEX_POINT ( 'NONE', #290 ) ;
#135 = SHAPE_DEFINITION_REPRESENTATION ( #159, #105 ) ;
#136 = ORIENTED_EDGE ( 'NONE', *, *, #419, .T. ) ;
#137 = AXIS2_PLACEMENT_3D ( 'NONE', #119, #317, #510 ) ;
#138 = ORIENTED_EDGE ( 'NONE', *, *, #529, .T. ) ;
#139 = DIRECTION ( 'NONE',  ( -0.8660254037844387076, 0.000000000000000000, 0.4999999999999998335 ) ) ;
#140 = EDGE_LOOP ( 'NONE', ( #160, #394 ) ) ;
#141 = AXIS2_PLACEMENT_3D ( 'NONE', #613, #130, #179 ) ;
#142 = EDGE_CURVE ( 'NONE', #333, #467, #584, .T. ) ;
#143 = AXIS2_PLACEMENT_3D ( 'NONE', #200, #298, #502 ) ;
#144 = LINE ( 'NONE', #237, #269 ) ;
#145 = VERTEX_POINT ( 'NONE', #235 ) ;
#146 = CARTESIAN_POINT ( 'NONE',  ( -9.128801346521024115E-16, 10.30000000000000071, 2.309401076758504257 ) ) ;
#147 = VECTOR ( 'NONE', #438, 1000.000000000000000 ) ;
#148 = DIRECTION ( 'NONE',  ( 1.000000000000000000, 0.000000000000000000, -1.224646799147351975E-16 ) ) ;
#149 = FACE_OUTER_BOUND ( 'NONE', #326, .T. ) ;
#150 = PLANE ( 'NONE',  #61 ) ;
#151 = CARTESIAN_POINT ( 'NONE',  ( 2.500000000000000444, 13.00000000000000178, 0.8660254037844401509 ) ) ;
#152 = VECTOR ( 'NONE', #163, 1000.000000000000114 ) ;
#153 = FACE_OUTER_BOUND ( 'NONE', #178, .T. ) ;
#154 = FACE_OUTER_BOUND ( 'NONE', #121, .T. ) ;
#155 = ORIENTED_EDGE ( 'NONE', *, *, #359, .F. ) ;
#156 = CARTESIAN_POINT ( 'NONE',  ( 2.000000000000000000, 10.30000000000000071, -1.154700538379253016 ) ) ;
#157 = AXIS2_PLACEMENT_3D ( 'NONE', #195, #199, #623 ) ;
#158 = CARTESIAN_POINT ( 'NONE',  ( 2.000000000000000000, 13.00000000000000178, 1.154700538379252794 ) ) ;
#159 = PRODUCT_DEFINITION_SHAPE ( 'NONE', 'NONE',  #203 ) ;
#160 = ORIENTED_EDGE ( 'NONE', *, *, #48, .T. ) ;
#161 = LINE ( 'NONE', #151, #576 ) ;
#162 = EDGE_CURVE ( 'NONE', #428, #297, #238, .T. ) ;
#163 = DIRECTION ( 'NONE',  ( -0.8660254037844387076, -2.419367328299977472E-18, 0.4999999999999998335 ) ) ;
#164 = ORIENTED_EDGE ( 'NONE', *, *, #447, .T. ) ;
#165 = DIRECTION ( 'NONE',  ( 2.793644756525155442E-18, -1.000000000000000000, -0.000000000000000000 ) ) ;
#166 = CIRCLE ( 'NONE', #194, 4.050000000000001599 ) ;
#167 = CARTESIAN_POINT ( 'NONE',  ( -2.000000000000000888, 10.30000000000000071, 1.154700538379251906 ) ) ;
#168 = CARTESIAN_POINT ( 'NONE',  ( -2.000000000000000888, 10.30000000000000071, 1.154700538379251906 ) ) ;
#169 = EDGE_LOOP ( 'NONE', ( #526, #401, #430 ) ) ;
#170 = CARTESIAN_POINT ( 'NONE',  ( -9.128801346521024115E-16, 10.30000000000000071, 2.309401076758504257 ) ) ;
#171 = LINE ( 'NONE', #605, #152 ) ;
#172 = EDGE_CURVE ( 'NONE', #467, #554, #88, .T. ) ;
#173 = CYLINDRICAL_SURFACE ( 'NONE', #528, 2.500000000000000444 ) ;
#174 = ORIENTED_EDGE ( 'NONE', *, *, #447, .F. ) ;
#175 = DIRECTION ( 'NONE',  ( -0.8660254037844387076, 0.000000000000000000, 0.4999999999999998335 ) ) ;
#176 = ORIENTED_EDGE ( 'NONE', *, *, #545, .T. ) ;
#177 = AXIS2_PLACEMENT_3D ( 'NONE', #341, #536, #589 ) ;
#178 = EDGE_LOOP ( 'NONE', ( #377, #493, #472, #322, #533 ) ) ;
#179 = DIRECTION ( 'NONE',  ( 1.000000000000000000, 2.793644756525155442E-18, 0.000000000000000000 ) ) ;
#180 = DIRECTION ( 'NONE',  ( -2.793644756525155442E-18, 1.000000000000000000, 0.000000000000000000 ) ) ;
#181 = ORIENTED_EDGE ( 'NONE', *, *, #189, .F. ) ;
#182 = VERTEX_POINT ( 'NONE', #34 ) ;
#183 = CARTESIAN_POINT ( 'NONE',  ( 1.602467364578572919E-16, 10.30000000000000071, -2.309401076758504701 ) ) ;
#184 = EDGE_CURVE ( 'NONE', #134, #284, #582, .T. ) ;
#185 = VERTEX_POINT ( 'NONE', #35 ) ;
#186 = AXIS2_PLACEMENT_3D ( 'NONE', #364, #608, #412 ) ;
#187 = ADVANCED_FACE ( 'NONE', ( #293 ), #173, .T. ) ;
#188 = CARTESIAN_POINT ( 'NONE',  ( 2.000000000000000000, 10.30000000000000071, -1.154700538379253016 ) ) ;
#189 = EDGE_CURVE ( 'NONE', #467, #564, #369, .T. ) ;
#190 = DIRECTION ( 'NONE',  ( 2.793644756525155442E-18, -1.000000000000000000, -0.000000000000000000 ) ) ;
#191 = ORIENTED_EDGE ( 'NONE', *, *, #38, .T. ) ;
#192 =( LENGTH_UNIT ( ) NAMED_UNIT ( * ) SI_UNIT ( .MILLI., .METRE. ) );
#193 = VECTOR ( 'NONE', #516, 1000.000000000000000 ) ;
#194 = AXIS2_PLACEMENT_3D ( 'NONE', #263, #14, #302 ) ;
#195 = CARTESIAN_POINT ( 'NONE',  ( -2.000000000000000888, 10.30000000000000071, -1.154700538379252794 ) ) ;
#196 = DIRECTION ( 'NONE',  ( -0.8660254037844387076, 0.000000000000000000, -0.4999999999999999445 ) ) ;
#197 = VERTEX_POINT ( 'NONE', #602 ) ;
#198 = FACE_OUTER_BOUND ( 'NONE', #558, .T. ) ;
#199 = DIRECTION ( 'NONE',  ( -1.000000000000000000, 0.000000000000000000, 0.000000000000000000 ) ) ;
#200 = CARTESIAN_POINT ( 'NONE',  ( 2.000000000000000000, 13.00000000000000178, 0.000000000000000000 ) ) ;
#201 = CARTESIAN_POINT ( 'NONE',  ( 0.000000000000000000, 0.000000000000000000, 0.000000000000000000 ) ) ;
#202 = CARTESIAN_POINT ( 'NONE',  ( 0.000000000000000000, 12.80000000000000249, 0.000000000000000000 ) ) ;
#203 = PRODUCT_DEFINITION ( 'UNKNOWN', '', #524, #84 ) ;
#204 = LINE ( 'NONE', #395, #308 ) ;
#205 = DIRECTION ( 'NONE',  ( 0.8660254037844388186, 0.000000000000000000, -0.4999999999999997224 ) ) ;
#206 = CARTESIAN_POINT ( 'NONE',  ( 4.250000000000000888, 8.000000000000000000, 0.000000000000000000 ) ) ;
#207 = VERTEX_POINT ( 'NONE', #220 ) ;
#208 = DIRECTION ( 'NONE',  ( -0.000000000000000000, 1.000000000000000000, 0.000000000000000000 ) ) ;
#209 = EDGE_CURVE ( 'NONE', #351, #134, #633, .T. ) ;
#210 = LINE ( 'NONE', #403, #358 ) ;
#211 = CARTESIAN_POINT ( 'NONE',  ( -2.877454099220909924E-17, 10.30000000000000071, 0.000000000000000000 ) ) ;
#212 = ORIENTED_EDGE ( 'NONE', *, *, #465, .F. ) ;
#213 = DIRECTION ( 'NONE',  ( 0.000000000000000000, -0.000000000000000000, 1.000000000000000000 ) ) ;
#214 = PLANE ( 'NONE',  #137 ) ;
#215 = DIRECTION ( 'NONE',  ( 1.000000000000000000, 0.000000000000000000, 0.000000000000000000 ) ) ;
#216 = ORIENTED_EDGE ( 'NONE', *, *, #289, .F. ) ;
#217 = LINE ( 'NONE', #170, #439 ) ;
#218 = LINE ( 'NONE', #9, #114 ) ;
#219 = VECTOR ( 'NONE', #397, 1000.000000000000114 ) ;
#220 = CARTESIAN_POINT ( 'NONE',  ( -4.250000000000000888, 8.000000000000000000, 5.204748896376251685E-16 ) ) ;
#221 = EDGE_LOOP ( 'NONE', ( #15, #363, #136, #97 ) ) ;
#222 = CIRCLE ( 'NONE', #514, 2.000000000000000000 ) ;
#223 = FACE_OUTER_BOUND ( 'NONE', #116, .T. ) ;
#224 = AXIS2_PLACEMENT_3D ( 'NONE', #4, #208, #310 ) ;
#225 = ORIENTED_EDGE ( 'NONE', *, *, #301, .T. ) ;
#226 = FACE_OUTER_BOUND ( 'NONE', #236, .T. ) ;
#227 = CIRCLE ( 'NONE', #186, 4.250000000000000000 ) ;
#228 = ADVANCED_FACE ( 'NONE', ( #154 ), #10, .F. ) ;
#229 = ORIENTED_EDGE ( 'NONE', *, *, #359, .T. ) ;
#230 = VECTOR ( 'NONE', #486, 1000.000000000000000 ) ;
#231 = ORIENTED_EDGE ( 'NONE', *, *, #588, .T. ) ;
#232 = ORIENTED_EDGE ( 'NONE', *, *, #527, .F. ) ;
#233 = CARTESIAN_POINT ( 'NONE',  ( 4.050000000000001599, 12.80000000000000249, 0.000000000000000000 ) ) ;
#234 = AXIS2_PLACEMENT_3D ( 'NONE', #386, #587, #139 ) ;
#235 = CARTESIAN_POINT ( 'NONE',  ( -9.128801346521024115E-16, 10.30000000000000071, 2.309401076758504257 ) ) ;
#236 = EDGE_LOOP ( 'NONE', ( #440, #453, #621, #328 ) ) ;
#237 = CARTESIAN_POINT ( 'NONE',  ( 0.4999999999999987232, 13.00000000000000178, 2.598076211353316900 ) ) ;
#238 = LINE ( 'NONE', #479, #147 ) ;
#239 = VECTOR ( 'NONE', #456, 1000.000000000000000 ) ;
#240 = LINE ( 'NONE', #41, #416 ) ;
#241 = ORIENTED_EDGE ( 'NONE', *, *, #282, .F. ) ;
#242 = DIRECTION ( 'NONE',  ( -0.8660254037844397068, 0.4999999999999979461, 0.000000000000000000 ) ) ;
#243 = PRODUCT_RELATED_PRODUCT_CATEGORY ( 'part', '', ( #254 ) ) ;
#244 = CARTESIAN_POINT ( 'NONE',  ( -3.575865288352200075E-17, 12.80000000000000249, 0.000000000000000000 ) ) ;
#245 = DIRECTION ( 'NONE',  ( -0.000000000000000000, 1.000000000000000000, 0.000000000000000000 ) ) ;
#246 = AXIS2_PLACEMENT_3D ( 'NONE', #372, #429, #21 ) ;
#247 = ADVANCED_FACE ( 'NONE', ( #508 ), #504, .F. ) ;
#248 = FACE_OUTER_BOUND ( 'NONE', #140, .T. ) ;
#249 = CYLINDRICAL_SURFACE ( 'NONE', #522, 4.250000000000000000 ) ;
#250 = VECTOR ( 'NONE', #2, 1000.000000000000114 ) ;
#251 = ORIENTED_EDGE ( 'NONE', *, *, #547, .F. ) ;
#252 = ADVANCED_FACE ( 'NONE', ( #307 ), #6, .T. ) ;
#253 = DIRECTION ( 'NONE',  ( -0.000000000000000000, 1.000000000000000000, -0.000000000000000000 ) ) ;
#254 = PRODUCT ( 'DIN912 - M5X8', 'DIN912 - M5X8', '', ( #427 ) ) ;
#255 = DIRECTION ( 'NONE',  ( 0.8660254037844388186, 0.000000000000000000, -0.4999999999999997224 ) ) ;
#256 = DIRECTION ( 'NONE',  ( 1.000000000000000000, 0.000000000000000000, 0.000000000000000000 ) ) ;
#257 = VERTEX_POINT ( 'NONE', #123 ) ;
#258 = CARTESIAN_POINT ( 'NONE',  ( 0.000000000000000000, 10.30000000000000071, 0.000000000000000000 ) ) ;
#259 = DIRECTION ( 'NONE',  ( 2.793644756525155442E-18, -1.000000000000000000, -0.000000000000000000 ) ) ;
#260 = DIRECTION ( 'NONE',  ( 2.793644756525155442E-18, -1.000000000000000000, -0.000000000000000000 ) ) ;
#261 = VERTEX_POINT ( 'NONE', #446 ) ;
#262 = FACE_BOUND ( 'NONE', #543, .T. ) ;
#263 = CARTESIAN_POINT ( 'NONE',  ( -3.631738183482701882E-17, 13.00000000000000178, 0.000000000000000000 ) ) ;
#264 = ORIENTED_EDGE ( 'NONE', *, *, #22, .F. ) ;
#265 = LINE ( 'NONE', #569, #422 ) ;
#266 = DIRECTION ( 'NONE',  ( -0.000000000000000000, 1.000000000000000000, -0.000000000000000000 ) ) ;
#267 = ORIENTED_EDGE ( 'NONE', *, *, #527, .T. ) ;
#268 = LINE ( 'NONE', #324, #193 ) ;
#269 = VECTOR ( 'NONE', #288, 1000.000000000000000 ) ;
#270 = EDGE_LOOP ( 'NONE', ( #78, #37, #216, #44, #81 ) ) ;
#271 = CARTESIAN_POINT ( 'NONE',  ( 2.000000000000000000, 13.00000000000000178, -1.154700538379253016 ) ) ;
#272 = EDGE_CURVE ( 'NONE', #207, #325, #420, .T. ) ;
#273 = VECTOR ( 'NONE', #175, 1000.000000000000114 ) ;
#274 = ORIENTED_EDGE ( 'NONE', *, *, #451, .T. ) ;
#275 = DIRECTION ( 'NONE',  ( -0.000000000000000000, 1.000000000000000000, -0.000000000000000000 ) ) ;
#276 = COLOUR_RGB ( '',0.7921568627450980005, 0.8196078431372548767, 0.9333333333333333481 ) ;
#277 = AXIS2_PLACEMENT_3D ( 'NONE', #392, #1, #460 ) ;
#278 = EDGE_LOOP ( 'NONE', ( #281, #86, #418, #568, #330 ) ) ;
#279 = LINE ( 'NONE', #566, #552 ) ;
#280 = DIRECTION ( 'NONE',  ( 1.000000000000000000, 0.000000000000000000, 0.000000000000000000 ) ) ;
#281 = ORIENTED_EDGE ( 'NONE', *, *, #409, .T. ) ;
#282 = EDGE_CURVE ( 'NONE', #435, #325, #404, .T. ) ;
#283 = ADVANCED_FACE ( 'NONE', ( #354 ), #382, .T. ) ;
#284 = VERTEX_POINT ( 'NONE', #415 ) ;
#285 = CARTESIAN_POINT ( 'NONE',  ( -4.050000000000001599, 12.80000000000000249, 4.959819536546782572E-16 ) ) ;
#286 = APPLICATION_CONTEXT ( 'automotive_design' ) ;
#287 = ORIENTED_EDGE ( 'NONE', *, *, #419, .F. ) ;
#288 = DIRECTION ( 'NONE',  ( 0.8660254037844384856, 2.419367328299977087E-18, 0.5000000000000002220 ) ) ;
#289 = EDGE_CURVE ( 'NONE', #333, #599, #499, .T. ) ;
#290 = CARTESIAN_POINT ( 'NONE',  ( -4.050000000000001599, 13.00000000000000178, 5.082284216461516143E-16 ) ) ;
#291 = EDGE_LOOP ( 'NONE', ( #132, #405, #578, #367, #348 ) ) ;
#292 = EDGE_CURVE ( 'NONE', #284, #435, #56, .T. ) ;
#293 = FACE_OUTER_BOUND ( 'NONE', #221, .T. ) ;
#294 = DIRECTION ( 'NONE',  ( 2.793644756525155442E-18, -1.000000000000000000, -0.000000000000000000 ) ) ;
#295 = CIRCLE ( 'NONE', #413, 2.000000000000000000 ) ;
#296 = FACE_OUTER_BOUND ( 'NONE', #270, .T. ) ;
#297 = VERTEX_POINT ( 'NONE', #168 ) ;
#298 = DIRECTION ( 'NONE',  ( -2.793644756525155442E-18, 1.000000000000000000, 0.000000000000000000 ) ) ;
#299 = ADVANCED_FACE ( 'NONE', ( #361 ), #249, .T. ) ;
#300 = FACE_OUTER_BOUND ( 'NONE', #620, .T. ) ;
#301 = EDGE_CURVE ( 'NONE', #134, #351, #166, .T. ) ;
#302 = DIRECTION ( 'NONE',  ( 1.000000000000000000, 0.000000000000000000, 0.000000000000000000 ) ) ;
#303 = ORIENTED_EDGE ( 'NONE', *, *, #545, .F. ) ;
#304 = CARTESIAN_POINT ( 'NONE',  ( -2.000000000000000888, 13.00000000000000178, -1.154700538379252794 ) ) ;
#305 = AXIS2_PLACEMENT_3D ( 'NONE', #604, #357, #555 ) ;
#306 = CARTESIAN_POINT ( 'NONE',  ( -9.128801346521024115E-16, 10.30000000000000071, 2.309401076758504257 ) ) ;
#307 = FACE_OUTER_BOUND ( 'NONE', #89, .T. ) ;
#308 = VECTOR ( 'NONE', #165, 1000.000000000000000 ) ;
#309 = ORIENTED_EDGE ( 'NONE', *, *, #292, .T. ) ;
#310 = DIRECTION ( 'NONE',  ( 0.000000000000000000, -0.000000000000000000, 1.000000000000000000 ) ) ;
#311 = CARTESIAN_POINT ( 'NONE',  ( -2.877454099220909924E-17, 10.30000000000000071, 0.000000000000000000 ) ) ;
#312 = DIRECTION ( 'NONE',  ( 2.793644756525155442E-18, -1.000000000000000000, -0.000000000000000000 ) ) ;
#313 = AXIS2_PLACEMENT_3D ( 'NONE', #285, #387, #148 ) ;
#314 = VECTOR ( 'NONE', #196, 1000.000000000000000 ) ;
#315 = EDGE_LOOP ( 'NONE', ( #375, #59, #231 ) ) ;
#316 = FACE_OUTER_BOUND ( 'NONE', #7, .T. ) ;
#317 = DIRECTION ( 'NONE',  ( -0.000000000000000000, 1.000000000000000000, 0.000000000000000000 ) ) ;
#318 = DIRECTION ( 'NONE',  ( 1.000000000000000000, 0.000000000000000000, 0.000000000000000000 ) ) ;
#319 = ORIENTED_EDGE ( 'NONE', *, *, #565, .F. ) ;
#320 = CARTESIAN_POINT ( 'NONE',  ( -1.000000000000001332, 10.30000000000000071, 1.732050807568878303 ) ) ;
#321 = ORIENTED_EDGE ( 'NONE', *, *, #547, .T. ) ;
#322 = ORIENTED_EDGE ( 'NONE', *, *, #46, .F. ) ;
#323 = EDGE_CURVE ( 'NONE', #379, #483, #492, .T. ) ;
#324 = CARTESIAN_POINT ( 'NONE',  ( -2.000000000000000888, 10.30000000000000071, -1.154700538379252794 ) ) ;
#325 = VERTEX_POINT ( 'NONE', #206 ) ;
#326 = EDGE_LOOP ( 'NONE', ( #572, #635, #181, #417, #470 ) ) ;
#327 = CIRCLE ( 'NONE', #72, 2.500000000000000000 ) ;
#328 = ORIENTED_EDGE ( 'NONE', *, *, #38, .F. ) ;
#329 = AXIS2_PLACEMENT_3D ( 'NONE', #23, #421, #616 ) ;
#330 = ORIENTED_EDGE ( 'NONE', *, *, #627, .T. ) ;
#331 = DIRECTION ( 'NONE',  ( 2.793644756525155442E-18, -1.000000000000000000, -0.000000000000000000 ) ) ;
#332 =( GEOMETRIC_REPRESENTATION_CONTEXT ( 3 ) GLOBAL_UNCERTAINTY_ASSIGNED_CONTEXT ( ( #342 ) ) GLOBAL_UNIT_ASSIGNED_CONTEXT ( ( #192, #390, #454 ) ) REPRESENTATION_CONTEXT ( 'NONE', 'WORKASPACE' ) );
#333 = VERTEX_POINT ( 'NONE', #399 ) ;
#334 = EDGE_CURVE ( 'NONE', #517, #379, #265, .T. ) ;
#335 = DIRECTION ( 'NONE',  ( 0.000000000000000000, 0.000000000000000000, -1.000000000000000000 ) ) ;
#336 = VERTEX_POINT ( 'NONE', #83 ) ;
#337 = EDGE_CURVE ( 'NONE', #297, #197, #279, .T. ) ;
#338 = DIRECTION ( 'NONE',  ( -0.000000000000000000, 1.000000000000000000, -0.000000000000000000 ) ) ;
#339 = EDGE_CURVE ( 'NONE', #554, #333, #518, .T. ) ;
#340 = LINE ( 'NONE', #434, #362 ) ;
#341 = CARTESIAN_POINT ( 'NONE',  ( -2.877454099220909924E-17, 10.30000000000000071, 0.000000000000000000 ) ) ;
#342 = UNCERTAINTY_MEASURE_WITH_UNIT (LENGTH_MEASURE( 1.000000000000000082E-05 ), #192, 'distance_accuracy_value', 'NONE');
#343 = EDGE_CURVE ( 'NONE', #54, #336, #108, .T. ) ;
#344 = CARTESIAN_POINT ( 'NONE',  ( -2.000000000000000888, 10.30000000000000071, 1.154700538379251906 ) ) ;
#345 = CARTESIAN_POINT ( 'NONE',  ( 1.602467364578572919E-16, 10.30000000000000071, -2.309401076758504701 ) ) ;
#346 = DIRECTION ( 'NONE',  ( 1.000000000000000000, 0.000000000000000000, 0.000000000000000000 ) ) ;
#347 = CARTESIAN_POINT ( 'NONE',  ( 0.000000000000000000, 0.000000000000000000, 0.000000000000000000 ) ) ;
#348 = ORIENTED_EDGE ( 'NONE', *, *, #337, .T. ) ;
#349 = FACE_OUTER_BOUND ( 'NONE', #169, .T. ) ;
#350 = CARTESIAN_POINT ( 'NONE',  ( -3.631738183482701882E-17, 13.00000000000000178, 0.000000000000000000 ) ) ;
#351 = VERTEX_POINT ( 'NONE', #473 ) ;
#352 = VECTOR ( 'NONE', #563, 1000.000000000000000 ) ;
#353 = CARTESIAN_POINT ( 'NONE',  ( -4.250000000000000000, -1.187299021523191130E-17, 5.204748896376250699E-16 ) ) ;
#354 = FACE_OUTER_BOUND ( 'NONE', #370, .T. ) ;
#355 = PRESENTATION_LAYER_ASSIGNMENT (  '', '', ( #625 ) ) ;
#356 = ORIENTED_EDGE ( 'NONE', *, *, #334, .T. ) ;
#357 = DIRECTION ( 'NONE',  ( -0.000000000000000000, 1.000000000000000000, 0.000000000000000000 ) ) ;
#358 = VECTOR ( 'NONE', #609, 1000.000000000000000 ) ;
#359 = EDGE_CURVE ( 'NONE', #182, #517, #31, .T. ) ;
#360 = LINE ( 'NONE', #167, #219 ) ;
#361 = FACE_OUTER_BOUND ( 'NONE', #462, .T. ) ;
#362 = VECTOR ( 'NONE', #482, 1000.000000000000000 ) ;
#363 = ORIENTED_EDGE ( 'NONE', *, *, #343, .T. ) ;
#364 = CARTESIAN_POINT ( 'NONE',  ( -3.575865288352200075E-17, 12.80000000000000249, 0.000000000000000000 ) ) ;
#365 = LINE ( 'NONE', #353, #239 ) ;
#366 = CARTESIAN_POINT ( 'NONE',  ( 2.000000000000000000, 10.30000000000000071, -1.154700538379253016 ) ) ;
#367 = ORIENTED_EDGE ( 'NONE', *, *, #567, .F. ) ;
#368 =( NAMED_UNIT ( * ) SI_UNIT ( $, .STERADIAN. ) SOLID_ANGLE_UNIT ( ) );
#369 = CIRCLE ( 'NONE', #118, 2.000000000000000000 ) ;
#370 = EDGE_LOOP ( 'NONE', ( #374, #225, #191, #73 ) ) ;
#371 = CONICAL_SURFACE ( 'NONE', #177, 2.000000000000000000, 1.047197551196600074 ) ;
#372 = CARTESIAN_POINT ( 'NONE',  ( -2.234915805220124354E-17, 8.000000000000000000, 0.000000000000000000 ) ) ;
#373 = ADVANCED_FACE ( 'NONE', ( #226 ), #79, .T. ) ;
#374 = ORIENTED_EDGE ( 'NONE', *, *, #184, .F. ) ;
#375 = ORIENTED_EDGE ( 'NONE', *, *, #162, .T. ) ;
#376 =( LENGTH_UNIT ( ) NAMED_UNIT ( * ) SI_UNIT ( .MILLI., .METRE. ) );
#377 = ORIENTED_EDGE ( 'NONE', *, *, #520, .F. ) ;
#378 = AXIS2_PLACEMENT_3D ( 'NONE', #122, #68, #107 ) ;
#379 = VERTEX_POINT ( 'NONE', #271 ) ;
#380 = DIRECTION ( 'NONE',  ( 1.000000000000000000, 0.000000000000000000, 0.000000000000000000 ) ) ;
#381 = DIRECTION ( 'NONE',  ( 0.8660254037844384856, 0.000000000000000000, 0.5000000000000003331 ) ) ;
#382 = TOROIDAL_SURFACE ( 'NONE', #551, 4.050000000000001599, 0.1999999999999983458 ) ;
#383 = ORIENTED_EDGE ( 'NONE', *, *, #209, .F. ) ;
#384 = AXIS2_PLACEMENT_3D ( 'NONE', #258, #245, #213 ) ;
#385 = EDGE_CURVE ( 'NONE', #599, #428, #268, .T. ) ;
#386 = CARTESIAN_POINT ( 'NONE',  ( 1.602467364578572919E-16, 10.30000000000000071, -2.309401076758504701 ) ) ;
#387 = DIRECTION ( 'NONE',  ( 1.224646799147353207E-16, 3.421228109033318438E-34, 1.000000000000000000 ) ) ;
#388 = DIRECTION ( 'NONE',  ( 2.793644756525155442E-18, -1.000000000000000000, -0.000000000000000000 ) ) ;
#389 = PLANE ( 'NONE',  #234 ) ;
#390 =( NAMED_UNIT ( * ) PLANE_ANGLE_UNIT ( ) SI_UNIT ( $, .RADIAN. ) );
#391 = UNCERTAINTY_MEASURE_WITH_UNIT (LENGTH_MEASURE( 1.000000000000000082E-05 ), #376, 'distance_accuracy_value', 'NONE');
#392 = CARTESIAN_POINT ( 'NONE',  ( 4.250000000000000888, 8.000000000000000000, 0.000000000000000000 ) ) ;
#393 = DIRECTION ( 'NONE',  ( 2.793644756525155442E-18, -1.000000000000000000, -0.000000000000000000 ) ) ;
#394 = ORIENTED_EDGE ( 'NONE', *, *, #272, .T. ) ;
#395 = CARTESIAN_POINT ( 'NONE',  ( 2.500000000000000444, 6.984111891312889183E-18, 0.000000000000000000 ) ) ;
#396 = AXIS2_PLACEMENT_3D ( 'NONE', #69, #443, #548 ) ;
#397 = DIRECTION ( 'NONE',  ( 0.8660254037844384856, 0.000000000000000000, 0.5000000000000003331 ) ) ;
#398 = MANIFOLD_SOLID_BREP ( 'Key Cutout', #632 ) ;
#399 = CARTESIAN_POINT ( 'NONE',  ( -1.000000000000000000, 10.30000000000000071, -1.732050807568878081 ) ) ;
#400 = AXIS2_PLACEMENT_3D ( 'NONE', #535, #190, #43 ) ;
#401 = ORIENTED_EDGE ( 'NONE', *, *, #385, .T. ) ;
#402 = CARTESIAN_POINT ( 'NONE',  ( -2.000000000000000888, 13.00000000000000178, 0.000000000000000000 ) ) ;
#403 = CARTESIAN_POINT ( 'NONE',  ( 2.000000000000000000, 10.30000000000000071, 1.154700538379252794 ) ) ;
#404 = LINE ( 'NONE', #457, #469 ) ;
#405 = ORIENTED_EDGE ( 'NONE', *, *, #112, .F. ) ;
#406 = PLANE ( 'NONE',  #305 ) ;
#407 = ADVANCED_FACE ( 'NONE', ( #550, #538 ), #77, .T. ) ;
#408 = CARTESIAN_POINT ( 'NONE',  ( 1.602467364578572919E-16, 10.30000000000000071, -2.309401076758504701 ) ) ;
#409 = EDGE_CURVE ( 'NONE', #448, #197, #111, .T. ) ;
#410 = DIRECTION ( 'NONE',  ( -0.000000000000000000, 1.000000000000000000, 0.000000000000000000 ) ) ;
#411 = ORIENTED_EDGE ( 'NONE', *, *, #46, .T. ) ;
#412 = DIRECTION ( 'NONE',  ( 1.000000000000000000, 0.000000000000000000, 0.000000000000000000 ) ) ;
#413 = AXIS2_PLACEMENT_3D ( 'NONE', #311, #51, #346 ) ;
#414 = CARTESIAN_POINT ( 'NONE',  ( -2.234915805220124354E-17, 8.000000000000000000, 0.000000000000000000 ) ) ;
#415 = CARTESIAN_POINT ( 'NONE',  ( -4.250000000000000000, 12.80000000000000249, 5.204748896376250699E-16 ) ) ;
#416 = VECTOR ( 'NONE', #381, 1000.000000000000114 ) ;
#417 = ORIENTED_EDGE ( 'NONE', *, *, #142, .F. ) ;
#418 = ORIENTED_EDGE ( 'NONE', *, *, #162, .F. ) ;
#419 = EDGE_CURVE ( 'NONE', #336, #70, #204, .T. ) ;
#420 = CIRCLE ( 'NONE', #437, 4.250000000000000888 ) ;
#421 = DIRECTION ( 'NONE',  ( 2.793644756525155442E-18, -1.000000000000000000, -0.000000000000000000 ) ) ;
#422 = VECTOR ( 'NONE', #16, 1000.000000000000000 ) ;
#423 = AXIS2_PLACEMENT_3D ( 'NONE', #201, #259, #491 ) ;
#424 = CARTESIAN_POINT ( 'NONE',  ( 0.000000000000000000, 0.000000000000000000, 0.000000000000000000 ) ) ;
#425 = ORIENTED_EDGE ( 'NONE', *, *, #511, .F. ) ;
#426 = AXIS2_PLACEMENT_3D ( 'NONE', #585, #331, #622 ) ;
#427 = PRODUCT_CONTEXT ( 'NONE', #286, 'mechanical' ) ;
#428 = VERTEX_POINT ( 'NONE', #544 ) ;
#429 = DIRECTION ( 'NONE',  ( 2.793644756525155442E-18, -1.000000000000000000, -0.000000000000000000 ) ) ;
#430 = ORIENTED_EDGE ( 'NONE', *, *, #74, .T. ) ;
#431 = AXIS2_PLACEMENT_3D ( 'NONE', #541, #102, #113 ) ;
#432 = PLANE ( 'NONE',  #157 ) ;
#433 = EDGE_CURVE ( 'NONE', #70, #257, #495, .T. ) ;
#434 = CARTESIAN_POINT ( 'NONE',  ( 2.000000000000000000, 10.30000000000000071, 1.154700538379252794 ) ) ;
#435 = VERTEX_POINT ( 'NONE', #490 ) ;
#436 = DIRECTION ( 'NONE',  ( 2.793644756525155442E-18, -1.000000000000000000, -0.000000000000000000 ) ) ;
#437 = AXIS2_PLACEMENT_3D ( 'NONE', #103, #606, #489 ) ;
#438 = DIRECTION ( 'NONE',  ( 0.000000000000000000, 0.000000000000000000, 1.000000000000000000 ) ) ;
#439 = VECTOR ( 'NONE', #205, 1000.000000000000000 ) ;
#440 = ORIENTED_EDGE ( 'NONE', *, *, #209, .T. ) ;
#441 = CARTESIAN_POINT ( 'NONE',  ( -2.877454099220909924E-17, 10.30000000000000071, 0.000000000000000000 ) ) ;
#442 = CARTESIAN_POINT ( 'NONE',  ( 1.602467364578572919E-16, 13.00000000000000178, -2.309401076758504701 ) ) ;
#443 = DIRECTION ( 'NONE',  ( 1.000000000000000000, 0.000000000000000000, 0.000000000000000000 ) ) ;
#444 = LINE ( 'NONE', #345, #497 ) ;
#445 = PLANE ( 'NONE',  #277 ) ;
#446 = CARTESIAN_POINT ( 'NONE',  ( -2.554871788780914880E-17, 9.145299461620755466, 0.000000000000000000 ) ) ;
#447 = EDGE_CURVE ( 'NONE', #11, #467, #449, .T. ) ;
#448 = VERTEX_POINT ( 'NONE', #304 ) ;
#449 = LINE ( 'NONE', #600, #24 ) ;
#450 = LINE ( 'NONE', #559, #42 ) ;
#451 = EDGE_CURVE ( 'NONE', #11, #379, #488, .T. ) ;
#452 = DIRECTION ( 'NONE',  ( 2.793644756525155442E-18, -1.000000000000000000, -0.000000000000000000 ) ) ;
#453 = ORIENTED_EDGE ( 'NONE', *, *, #184, .T. ) ;
#454 =( NAMED_UNIT ( * ) SI_UNIT ( $, .STERADIAN. ) SOLID_ANGLE_UNIT ( ) );
#455 = ADVANCED_FACE ( 'NONE', ( #494 ), #55, .T. ) ;
#456 = DIRECTION ( 'NONE',  ( 2.793644756525155442E-18, -1.000000000000000000, -0.000000000000000000 ) ) ;
#457 = CARTESIAN_POINT ( 'NONE',  ( 4.250000000000000000, 1.187299021523191130E-17, 0.000000000000000000 ) ) ;
#458 = ORIENTED_EDGE ( 'NONE', *, *, #272, .F. ) ;
#459 = FACE_OUTER_BOUND ( 'NONE', #607, .T. ) ;
#460 = DIRECTION ( 'NONE',  ( 1.000000000000000000, 2.793644756525155442E-18, 0.000000000000000000 ) ) ;
#461 = DIRECTION ( 'NONE',  ( 1.000000000000000000, 2.793644756525155442E-18, 0.000000000000000000 ) ) ;
#462 = EDGE_LOOP ( 'NONE', ( #581, #309, #612, #458 ) ) ;
#463 = ADVANCED_FACE ( 'NONE', ( #316 ), #60, .T. ) ;
#464 = VECTOR ( 'NONE', #266, 1000.000000000000000 ) ;
#465 = EDGE_CURVE ( 'NONE', #185, #517, #161, .T. ) ;
#466 = AXIS2_PLACEMENT_3D ( 'NONE', #574, #95, #380 ) ;
#467 = VERTEX_POINT ( 'NONE', #66 ) ;
#468 = PLANE ( 'NONE',  #329 ) ;
#469 = VECTOR ( 'NONE', #115, 1000.000000000000000 ) ;
#470 = ORIENTED_EDGE ( 'NONE', *, *, #74, .F. ) ;
#471 = ADVANCED_FACE ( 'NONE', ( #198 ), #406, .T. ) ;
#472 = ORIENTED_EDGE ( 'NONE', *, *, #588, .F. ) ;
#473 = CARTESIAN_POINT ( 'NONE',  ( 4.050000000000001599, 13.00000000000000178, 0.000000000000000000 ) ) ;
#474 = ORIENTED_EDGE ( 'NONE', *, *, #501, .T. ) ;
#475 = ADVANCED_FACE ( 'NONE', ( #459 ), #50, .T. ) ;
#476 = ORIENTED_EDGE ( 'NONE', *, *, #451, .F. ) ;
#477 = ADVANCED_FACE ( 'NONE', ( #149 ), #371, .F. ) ;
#478 = CONICAL_SURFACE ( 'NONE', #513, 2.000000000000000000, 1.047197551196600074 ) ;
#479 = CARTESIAN_POINT ( 'NONE',  ( -2.000000000000000888, 10.30000000000000071, -1.154700538379252794 ) ) ;
#480 = EDGE_CURVE ( 'NONE', #261, #428, #636, .T. ) ;
#481 = ORIENTED_EDGE ( 'NONE', *, *, #339, .T. ) ;
#482 = DIRECTION ( 'NONE',  ( 0.000000000000000000, 0.000000000000000000, -1.000000000000000000 ) ) ;
#483 = VERTEX_POINT ( 'NONE', #442 ) ;
#484 = DIRECTION ( 'NONE',  ( 2.793644756525155442E-18, -1.000000000000000000, -0.000000000000000000 ) ) ;
#485 = EDGE_LOOP ( 'NONE', ( #356, #476, #303, #264, #229 ) ) ;
#486 = DIRECTION ( 'NONE',  ( 2.793644756525155442E-18, -1.000000000000000000, -0.000000000000000000 ) ) ;
#487 = ORIENTED_EDGE ( 'NONE', *, *, #573, .T. ) ;
#488 = LINE ( 'NONE', #156, #26 ) ;
#489 = DIRECTION ( 'NONE',  ( 1.000000000000000000, 0.000000000000000000, 0.000000000000000000 ) ) ;
#490 = CARTESIAN_POINT ( 'NONE',  ( 4.250000000000000000, 12.80000000000000249, 0.000000000000000000 ) ) ;
#491 = DIRECTION ( 'NONE',  ( 1.000000000000000000, 2.793644756525155057E-18, 0.000000000000000000 ) ) ;
#492 = LINE ( 'NONE', #53, #250 ) ;
#493 = ORIENTED_EDGE ( 'NONE', *, *, #480, .T. ) ;
#494 = FACE_OUTER_BOUND ( 'NONE', #619, .T. ) ;
#495 = CIRCLE ( 'NONE', #639, 2.500000000000001332 ) ;
#496 = EDGE_CURVE ( 'NONE', #554, #483, #444, .T. ) ;
#497 = VECTOR ( 'NONE', #12, 1000.000000000000000 ) ;
#498 = DIRECTION ( 'NONE',  ( 1.000000000000000000, 0.000000000000000000, 0.000000000000000000 ) ) ;
#499 = LINE ( 'NONE', #64, #531 ) ;
#500 = ORIENTED_EDGE ( 'NONE', *, *, #40, .T. ) ;
#501 = EDGE_CURVE ( 'NONE', #435, #284, #227, .T. ) ;
#502 = DIRECTION ( 'NONE',  ( -1.000000000000000000, -2.793644756525155442E-18, 0.000000000000000000 ) ) ;
#503 = FACE_OUTER_BOUND ( 'NONE', #315, .T. ) ;
#504 = PLANE ( 'NONE',  #396 ) ;
#505 = ORIENTED_EDGE ( 'NONE', *, *, #343, .F. ) ;
#506 = DIRECTION ( 'NONE',  ( -0.8660254037844387076, 0.000000000000000000, -0.4999999999999999445 ) ) ;
#507 = CARTESIAN_POINT ( 'NONE',  ( -2.000000000000000888, 10.30000000000000071, -1.154700538379252794 ) ) ;
#508 = FACE_OUTER_BOUND ( 'NONE', #485, .T. ) ;
#509 = ORIENTED_EDGE ( 'NONE', *, *, #323, .T. ) ;
#510 = DIRECTION ( 'NONE',  ( 0.000000000000000000, -0.000000000000000000, 1.000000000000000000 ) ) ;
#511 = EDGE_CURVE ( 'NONE', #145, #525, #217, .T. ) ;
#512 = ORIENTED_EDGE ( 'NONE', *, *, #112, .T. ) ;
#513 = AXIS2_PLACEMENT_3D ( 'NONE', #133, #180, #29 ) ;
#514 = AXIS2_PLACEMENT_3D ( 'NONE', #441, #436, #634 ) ;
#515 = ORIENTED_EDGE ( 'NONE', *, *, #127, .T. ) ;
#516 = DIRECTION ( 'NONE',  ( 0.000000000000000000, 0.000000000000000000, 1.000000000000000000 ) ) ;
#517 = VERTEX_POINT ( 'NONE', #158 ) ;
#518 = LINE ( 'NONE', #183, #273 ) ;
#519 = DIRECTION ( 'NONE',  ( 0.000000000000000000, 0.000000000000000000, 1.000000000000000000 ) ) ;
#520 = EDGE_CURVE ( 'NONE', #261, #564, #450, .T. ) ;
#521 = ORIENTED_EDGE ( 'NONE', *, *, #22, .T. ) ;
#522 = AXIS2_PLACEMENT_3D ( 'NONE', #347, #557, #593 ) ;
#523 = ADVANCED_FACE ( 'NONE', ( #349 ), #553, .T. ) ;
#524 = PRODUCT_DEFINITION_FORMATION_WITH_SPECIFIED_SOURCE ( 'ANY', '', #254, .NOT_KNOWN. ) ;
#525 = VERTEX_POINT ( 'NONE', #556 ) ;
#526 = ORIENTED_EDGE ( 'NONE', *, *, #289, .T. ) ;
#527 = EDGE_CURVE ( 'NONE', #525, #182, #218, .T. ) ;
#528 = AXIS2_PLACEMENT_3D ( 'NONE', #560, #260, #120 ) ;
#529 = EDGE_CURVE ( 'NONE', #257, #70, #595, .T. ) ;
#530 = LINE ( 'NONE', #537, #230 ) ;
#531 = VECTOR ( 'NONE', #49, 1000.000000000000114 ) ;
#532 = FACE_OUTER_BOUND ( 'NONE', #278, .T. ) ;
#533 = ORIENTED_EDGE ( 'NONE', *, *, #63, .F. ) ;
#534 = DIRECTION ( 'NONE',  ( 0.8660254037844384856, 0.000000000000000000, 0.5000000000000002220 ) ) ;
#535 = CARTESIAN_POINT ( 'NONE',  ( -2.877454099220909924E-17, 10.30000000000000071, 0.000000000000000000 ) ) ;
#536 = DIRECTION ( 'NONE',  ( -2.793644756525155442E-18, 1.000000000000000000, 0.000000000000000000 ) ) ;
#537 = CARTESIAN_POINT ( 'NONE',  ( -2.500000000000000444, -6.984111891312889183E-18, 3.061616997868383634E-16 ) ) ;
#538 = FACE_OUTER_BOUND ( 'NONE', #110, .T. ) ;
#539 = ADVANCED_FACE ( 'NONE', ( #638 ), #62, .F. ) ;
#540 = AXIS2_PLACEMENT_3D ( 'NONE', #93, #484, #39 ) ;
#541 = CARTESIAN_POINT ( 'NONE',  ( 0.000000000000000000, 10.30000000000000071, 0.000000000000000000 ) ) ;
#542 = CARTESIAN_POINT ( 'NONE',  ( 0.000000000000000000, 10.30000000000000071, 0.000000000000000000 ) ) ;
#543 = EDGE_LOOP ( 'NONE', ( #251, #505 ) ) ;
#544 = CARTESIAN_POINT ( 'NONE',  ( -2.000000000000000888, 10.30000000000000071, 0.000000000000000000 ) ) ;
#545 = EDGE_CURVE ( 'NONE', #564, #11, #210, .T. ) ;
#546 = DIRECTION ( 'NONE',  ( 0.8660254037844388186, 0.000000000000000000, -0.4999999999999997224 ) ) ;
#547 = EDGE_CURVE ( 'NONE', #336, #54, #327, .T. ) ;
#548 = DIRECTION ( 'NONE',  ( 0.000000000000000000, 0.000000000000000000, -1.000000000000000000 ) ) ;
#549 = ORIENTED_EDGE ( 'NONE', *, *, #172, .T. ) ;
#550 = FACE_BOUND ( 'NONE', #65, .T. ) ;
#551 = AXIS2_PLACEMENT_3D ( 'NONE', #202, #109, #461 ) ;
#552 = VECTOR ( 'NONE', #275, 1000.000000000000000 ) ;
#553 = PLANE ( 'NONE',  #431 ) ;
#554 = VERTEX_POINT ( 'NONE', #408 ) ;
#555 = DIRECTION ( 'NONE',  ( 0.000000000000000000, -0.000000000000000000, 1.000000000000000000 ) ) ;
#556 = CARTESIAN_POINT ( 'NONE',  ( 0.9999999999999993339, 10.30000000000000071, 1.732050807568877637 ) ) ;
#557 = DIRECTION ( 'NONE',  ( 2.793644756525155442E-18, -1.000000000000000000, -0.000000000000000000 ) ) ;
#558 = EDGE_LOOP ( 'NONE', ( #500, #562, #411 ) ) ;
#559 = CARTESIAN_POINT ( 'NONE',  ( 2.000000000000000000, 10.30000000000000071, 2.449293598294706414E-16 ) ) ;
#560 = CARTESIAN_POINT ( 'NONE',  ( 0.000000000000000000, 0.000000000000000000, 0.000000000000000000 ) ) ;
#561 = ORIENTED_EDGE ( 'NONE', *, *, #433, .F. ) ;
#562 = ORIENTED_EDGE ( 'NONE', *, *, #511, .T. ) ;
#563 = DIRECTION ( 'NONE',  ( -0.000000000000000000, 1.000000000000000000, -0.000000000000000000 ) ) ;
#564 = VERTEX_POINT ( 'NONE', #591 ) ;
#565 = EDGE_CURVE ( 'NONE', #483, #448, #171, .T. ) ;
#566 = CARTESIAN_POINT ( 'NONE',  ( -2.000000000000000888, 10.30000000000000071, 1.154700538379251906 ) ) ;
#567 = EDGE_CURVE ( 'NONE', #297, #575, #360, .T. ) ;
#568 = ORIENTED_EDGE ( 'NONE', *, *, #385, .F. ) ;
#569 = CARTESIAN_POINT ( 'NONE',  ( 2.000000000000000000, 13.00000000000000178, 0.000000000000000000 ) ) ;
#570 = EDGE_LOOP ( 'NONE', ( #3, #155, #232, #425, #512 ) ) ;
#571 = ADVANCED_FACE ( 'NONE', ( #300 ), #57, .T. ) ;
#572 = ORIENTED_EDGE ( 'NONE', *, *, #480, .F. ) ;
#573 = EDGE_CURVE ( 'NONE', #284, #207, #365, .T. ) ;
#574 = CARTESIAN_POINT ( 'NONE',  ( -2.234915805220124354E-17, 8.000000000000000000, 0.000000000000000000 ) ) ;
#575 = VERTEX_POINT ( 'NONE', #320 ) ;
#576 = VECTOR ( 'NONE', #100, 1000.000000000000000 ) ;
#577 = CARTESIAN_POINT ( 'NONE',  ( -2.500000000000000000, 8.000000000000000000, 3.061616997868383141E-16 ) ) ;
#578 = ORIENTED_EDGE ( 'NONE', *, *, #40, .F. ) ;
#579 = AXIS2_PLACEMENT_3D ( 'NONE', #244, #393, #215 ) ;
#580 = LINE ( 'NONE', #146, #131 ) ;
#581 = ORIENTED_EDGE ( 'NONE', *, *, #573, .F. ) ;
#582 = CIRCLE ( 'NONE', #313, 0.1999999999999983458 ) ;
#583 = SURFACE_STYLE_FILL_AREA ( #33 ) ;
#584 = CIRCLE ( 'NONE', #426, 2.000000000000000000 ) ;
#585 = CARTESIAN_POINT ( 'NONE',  ( -2.877454099220909924E-17, 10.30000000000000071, 0.000000000000000000 ) ) ;
#586 = DIRECTION ( 'NONE',  ( 1.000000000000000000, 2.793644756525155442E-18, 0.000000000000000000 ) ) ;
#587 = DIRECTION ( 'NONE',  ( -0.4999999999999998335, 0.000000000000000000, -0.8660254037844387076 ) ) ;
#588 = EDGE_CURVE ( 'NONE', #575, #428, #295, .T. ) ;
#589 = DIRECTION ( 'NONE',  ( -1.000000000000000000, 0.000000000000000000, 0.000000000000000000 ) ) ;
#590 = AXIS2_PLACEMENT_3D ( 'NONE', #366, #58, #598 ) ;
#591 = CARTESIAN_POINT ( 'NONE',  ( 1.999999999999999112, 10.30000000000000071, 0.000000000000000000 ) ) ;
#592 = ADVANCED_FACE ( 'NONE', ( #503 ), #214, .T. ) ;
#593 = DIRECTION ( 'NONE',  ( 1.000000000000000000, 2.793644756525155442E-18, 0.000000000000000000 ) ) ;
#594 = APPLICATION_CONTEXT ( 'automotive_design' ) ;
#595 = CIRCLE ( 'NONE', #378, 2.500000000000001332 ) ;
#596 = ORIENTED_EDGE ( 'NONE', *, *, #496, .F. ) ;
#597 = DIRECTION ( 'NONE',  ( 0.4999999999999997224, 0.000000000000000000, 0.8660254037844388186 ) ) ;
#598 = DIRECTION ( 'NONE',  ( -0.8660254037844387076, 0.000000000000000000, -0.4999999999999998890 ) ) ;
#599 = VERTEX_POINT ( 'NONE', #507 ) ;
#600 = CARTESIAN_POINT ( 'NONE',  ( 2.000000000000000000, 10.30000000000000071, -1.154700538379253016 ) ) ;
#601 = DIRECTION ( 'NONE',  ( 2.793644756525155442E-18, -1.000000000000000000, -0.000000000000000000 ) ) ;
#602 = CARTESIAN_POINT ( 'NONE',  ( -2.000000000000000888, 13.00000000000000178, 1.154700538379251906 ) ) ;
#603 = ORIENTED_EDGE ( 'NONE', *, *, #433, .T. ) ;
#604 = CARTESIAN_POINT ( 'NONE',  ( 0.000000000000000000, 10.30000000000000071, 0.000000000000000000 ) ) ;
#605 = CARTESIAN_POINT ( 'NONE',  ( 0.5000000000000000000, 13.00000000000000178, -2.598076211353317344 ) ) ;
#606 = DIRECTION ( 'NONE',  ( 2.793644756525155442E-18, -1.000000000000000000, -0.000000000000000000 ) ) ;
#607 = EDGE_LOOP ( 'NONE', ( #474, #487, #27, #241 ) ) ;
#608 = DIRECTION ( 'NONE',  ( 2.793644756525155442E-18, -1.000000000000000000, -0.000000000000000000 ) ) ;
#609 = DIRECTION ( 'NONE',  ( 0.000000000000000000, 0.000000000000000000, -1.000000000000000000 ) ) ;
#610 = DIRECTION ( 'NONE',  ( 0.000000000000000000, -0.000000000000000000, 1.000000000000000000 ) ) ;
#611 = ORIENTED_EDGE ( 'NONE', *, *, #409, .F. ) ;
#612 = ORIENTED_EDGE ( 'NONE', *, *, #282, .T. ) ;
#613 = CARTESIAN_POINT ( 'NONE',  ( 0.000000000000000000, 12.80000000000000249, 0.000000000000000000 ) ) ;
#614 =( NAMED_UNIT ( * ) PLANE_ANGLE_UNIT ( ) SI_UNIT ( $, .RADIAN. ) );
#615 = VECTOR ( 'NONE', #242, 1000.000000000000114 ) ;
#616 = DIRECTION ( 'NONE',  ( 1.000000000000000000, 2.793644756525155442E-18, 0.000000000000000000 ) ) ;
#617 = APPLICATION_PROTOCOL_DEFINITION ( 'draft international standard', 'automotive_design', 1998, #594 ) ;
#618 = ADVANCED_FACE ( 'NONE', ( #248, #262 ), #445, .T. ) ;
#619 = EDGE_LOOP ( 'NONE', ( #549, #481, #20 ) ) ;
#620 = EDGE_LOOP ( 'NONE', ( #321, #515, #561, #287 ) ) ;
#621 = ORIENTED_EDGE ( 'NONE', *, *, #501, .F. ) ;
#622 = DIRECTION ( 'NONE',  ( 1.000000000000000000, 0.000000000000000000, 0.000000000000000000 ) ) ;
#623 = DIRECTION ( 'NONE',  ( 0.000000000000000000, 0.000000000000000000, 1.000000000000000000 ) ) ;
#624 = SURFACE_STYLE_USAGE ( .BOTH. , #90 ) ;
#625 = STYLED_ITEM ( 'NONE', ( #629 ), #398 ) ;
#626 = CARTESIAN_POINT ( 'NONE',  ( 2.500000000000001332, 6.123233995736727825E-17, 0.000000000000000000 ) ) ;
#627 = EDGE_CURVE ( 'NONE', #599, #448, #13, .T. ) ;
#628 = MECHANICAL_DESIGN_GEOMETRIC_PRESENTATION_REPRESENTATION (  '', ( #625 ), #332 ) ;
#629 = PRESENTATION_STYLE_ASSIGNMENT (( #624 ) ) ;
#630 = FACE_OUTER_BOUND ( 'NONE', #291, .T. ) ;
#631 = ORIENTED_EDGE ( 'NONE', *, *, #172, .F. ) ;
#632 = CLOSED_SHELL ( 'NONE', ( #477, #571, #475, #373, #18, #407, #283, #299, #618, #187, #252, #463, #455, #523, #592, #124, #91, #94, #228, #247, #539, #471, #637 ) ) ;
#633 = CIRCLE ( 'NONE', #92, 4.050000000000001599 ) ;
#634 = DIRECTION ( 'NONE',  ( 1.000000000000000000, 0.000000000000000000, 0.000000000000000000 ) ) ;
#635 = ORIENTED_EDGE ( 'NONE', *, *, #520, .T. ) ;
#636 = LINE ( 'NONE', #45, #615 ) ;
#637 = ADVANCED_FACE ( 'NONE', ( #153 ), #478, .F. ) ;
#638 = FACE_OUTER_BOUND ( 'NONE', #570, .T. ) ;
#639 = AXIS2_PLACEMENT_3D ( 'NONE', #98, #294, #106 ) ;
ENDSEC;
END-ISO-10303-21;
