ISO-10303-21;
HEADER;
FILE_DESCRIPTION (( 'STEP AP214' ),
    '1' );
FILE_NAME ('DIN912 - M2.5X4.STEP',
    '2023-12-01T08:24:39',
    ( '' ),
    ( '' ),
    'SwSTEP 2.0',
    'SolidWorks 2023',
    '' );
FILE_SCHEMA (( 'AUTOMOTIVE_DESIGN' ));
ENDSEC;

DATA;
#1 = DIRECTION ( 'NONE',  ( -1.000000000000000000, 0.000000000000000000, 0.000000000000000000 ) ) ;
#2 = STYLED_ITEM ( 'NONE', ( #338 ), #418 ) ;
#3 = CARTESIAN_POINT ( 'NONE',  ( 0.000000000000000000, 5.399999999999998579, 0.000000000000000000 ) ) ;
#4 = DIRECTION ( 'NONE',  ( 0.000000000000000000, 0.000000000000000000, -1.000000000000000000 ) ) ;
#5 = CARTESIAN_POINT ( 'NONE',  ( 1.259420702368994198E-16, 5.399999999999998579, -1.154700538379251684 ) ) ;
#6 = CARTESIAN_POINT ( 'NONE',  ( -0.5000000000000000000, 5.399999999999998579, -0.8660254037844390407 ) ) ;
#7 = CARTESIAN_POINT ( 'NONE',  ( 0.000000000000000000, 6.499999999999999112, 0.000000000000000000 ) ) ;
#8 = CIRCLE ( 'NONE', #279, 2.050000000000002487 ) ;
#9 = DIRECTION ( 'NONE',  ( 0.000000000000000000, 0.000000000000000000, -1.000000000000000000 ) ) ;
#10 = PLANE ( 'NONE',  #25 ) ;
#11 = VECTOR ( 'NONE', #24, 1000.000000000000000 ) ;
#12 = FACE_OUTER_BOUND ( 'NONE', #183, .T. ) ;
#13 = PRODUCT_RELATED_PRODUCT_CATEGORY ( 'part', '', ( #146 ) ) ;
#14 =( LENGTH_UNIT ( ) NAMED_UNIT ( * ) SI_UNIT ( .MILLI., .METRE. ) );
#15 = DIRECTION ( 'NONE',  ( -0.8660254037844384856, 0.000000000000000000, -0.5000000000000002220 ) ) ;
#16 = ORIENTED_EDGE ( 'NONE', *, *, #256, .T. ) ;
#17 = DIRECTION ( 'NONE',  ( 0.000000000000000000, 0.000000000000000000, 1.000000000000000000 ) ) ;
#18 = EDGE_CURVE ( 'NONE', #612, #135, #294, .T. ) ;
#19 = CARTESIAN_POINT ( 'NONE',  ( 0.000000000000000000, 5.399999999999998579, 0.000000000000000000 ) ) ;
#20 = AXIS2_PLACEMENT_3D ( 'NONE', #119, #436, #126 ) ;
#21 = EDGE_LOOP ( 'NONE', ( #483, #263, #250, #138 ) ) ;
#22 = DIRECTION ( 'NONE',  ( 0.000000000000000000, 0.4999999999999979461, 0.8660254037844397068 ) ) ;
#23 = VECTOR ( 'NONE', #308, 1000.000000000000000 ) ;
#24 = DIRECTION ( 'NONE',  ( -0.000000000000000000, 1.000000000000000000, -0.000000000000000000 ) ) ;
#25 = AXIS2_PLACEMENT_3D ( 'NONE', #317, #277, #221 ) ;
#26 = ORIENTED_EDGE ( 'NONE', *, *, #54, .F. ) ;
#27 = PLANE ( 'NONE',  #356 ) ;
#28 = CARTESIAN_POINT ( 'NONE',  ( -1.000000000000000000, 5.399999999999998579, -0.5773502691896259531 ) ) ;
#29 = EDGE_LOOP ( 'NONE', ( #148, #345, #226 ) ) ;
#30 = PLANE ( 'NONE',  #47 ) ;
#31 = ORIENTED_EDGE ( 'NONE', *, *, #378, .F. ) ;
#32 = ADVANCED_FACE ( 'NONE', ( #166 ), #533, .F. ) ;
#33 = ADVANCED_FACE ( 'NONE', ( #517 ), #273, .T. ) ;
#34 = FACE_OUTER_BOUND ( 'NONE', #246, .T. ) ;
#35 = EDGE_LOOP ( 'NONE', ( #16, #492, #407, #89 ) ) ;
#36 = PRODUCT_CONTEXT ( 'NONE', #363, 'mechanical' ) ;
#37 = DIRECTION ( 'NONE',  ( 0.000000000000000000, -0.000000000000000000, 1.000000000000000000 ) ) ;
#38 = AXIS2_PLACEMENT_3D ( 'NONE', #99, #519, #50 ) ;
#39 = DIRECTION ( 'NONE',  ( 0.8660254037844385966, 0.000000000000000000, 0.5000000000000000000 ) ) ;
#40 = EDGE_CURVE ( 'NONE', #496, #127, #522, .T. ) ;
#41 = CARTESIAN_POINT ( 'NONE',  ( 0.000000000000000000, 0.000000000000000000, -2.250000000000001776 ) ) ;
#42 = VERTEX_POINT ( 'NONE', #6 ) ;
#43 = VECTOR ( 'NONE', #569, 1000.000000000000114 ) ;
#44 = FACE_OUTER_BOUND ( 'NONE', #403, .T. ) ;
#45 = ORIENTED_EDGE ( 'NONE', *, *, #469, .F. ) ;
#46 = PRODUCT_DEFINITION_SHAPE ( 'NONE', 'NONE',  #136 ) ;
#47 = AXIS2_PLACEMENT_3D ( 'NONE', #96, #198, #341 ) ;
#48 =( LENGTH_UNIT ( ) NAMED_UNIT ( * ) SI_UNIT ( .MILLI., .METRE. ) );
#49 = ORIENTED_EDGE ( 'NONE', *, *, #268, .F. ) ;
#50 = DIRECTION ( 'NONE',  ( 0.000000000000000000, 0.000000000000000000, -1.000000000000000000 ) ) ;
#51 = CARTESIAN_POINT ( 'NONE',  ( -1.000000000000000000, 5.399999999999998579, -0.5773502691896259531 ) ) ;
#52 = ORIENTED_EDGE ( 'NONE', *, *, #339, .T. ) ;
#53 = EDGE_CURVE ( 'NONE', #170, #186, #103, .T. ) ;
#54 = EDGE_CURVE ( 'NONE', #276, #233, #368, .T. ) ;
#55 = PLANE ( 'NONE',  #310 ) ;
#56 = CARTESIAN_POINT ( 'NONE',  ( 0.000000000000000000, 4.000000000000000000, 0.000000000000000000 ) ) ;
#57 = MECHANICAL_DESIGN_GEOMETRIC_PRESENTATION_REPRESENTATION (  '', ( #2 ), #88 ) ;
#58 = DIRECTION ( 'NONE',  ( 0.000000000000000000, 0.000000000000000000, -1.000000000000000000 ) ) ;
#59 = LINE ( 'NONE', #615, #196 ) ;
#60 = ORIENTED_EDGE ( 'NONE', *, *, #621, .F. ) ;
#61 = AXIS2_PLACEMENT_3D ( 'NONE', #77, #283, #485 ) ;
#62 = DIRECTION ( 'NONE',  ( 0.000000000000000000, -0.000000000000000000, 1.000000000000000000 ) ) ;
#63 = CARTESIAN_POINT ( 'NONE',  ( -1.000000000000000000, 5.399999999999998579, 0.5773502691896258421 ) ) ;
#64 = DIRECTION ( 'NONE',  ( -0.000000000000000000, -1.000000000000000000, -0.000000000000000000 ) ) ;
#65 = AXIS2_PLACEMENT_3D ( 'NONE', #194, #651, #37 ) ;
#66 = CARTESIAN_POINT ( 'NONE',  ( 0.000000000000000000, 4.000000000000000000, -2.250000000000002665 ) ) ;
#67 = ORIENTED_EDGE ( 'NONE', *, *, #318, .F. ) ;
#68 = AXIS2_PLACEMENT_3D ( 'NONE', #463, #609, #420 ) ;
#69 = VECTOR ( 'NONE', #39, 1000.000000000000227 ) ;
#70 = DIRECTION ( 'NONE',  ( -0.000000000000000000, 1.000000000000000000, 0.000000000000000000 ) ) ;
#71 = LINE ( 'NONE', #28, #11 ) ;
#72 = ORIENTED_EDGE ( 'NONE', *, *, #606, .T. ) ;
#73 = CARTESIAN_POINT ( 'NONE',  ( 0.000000000000000000, 0.000000000000000000, 0.000000000000000000 ) ) ;
#74 = CARTESIAN_POINT ( 'NONE',  ( 0.000000000000000000, 6.499999999999999112, 0.000000000000000000 ) ) ;
#75 = AXIS2_PLACEMENT_3D ( 'NONE', #364, #510, #62 ) ;
#76 = VERTEX_POINT ( 'NONE', #306 ) ;
#77 = CARTESIAN_POINT ( 'NONE',  ( 0.000000000000000000, 5.399999999999998579, 0.000000000000000000 ) ) ;
#78 = DIRECTION ( 'NONE',  ( 0.000000000000000000, 0.000000000000000000, -1.000000000000000000 ) ) ;
#79 = VERTEX_POINT ( 'NONE', #608 ) ;
#80 = EDGE_CURVE ( 'NONE', #233, #542, #59, .T. ) ;
#81 = PLANE ( 'NONE',  #559 ) ;
#82 = ADVANCED_FACE ( 'NONE', ( #560 ), #262, .T. ) ;
#83 = ORIENTED_EDGE ( 'NONE', *, *, #53, .T. ) ;
#84 = DIRECTION ( 'NONE',  ( -0.000000000000000000, -1.000000000000000000, -0.000000000000000000 ) ) ;
#85 = ORIENTED_EDGE ( 'NONE', *, *, #141, .F. ) ;
#86 = DIRECTION ( 'NONE',  ( 1.000000000000000000, 0.000000000000000000, 0.000000000000000000 ) ) ;
#87 = FACE_OUTER_BOUND ( 'NONE', #242, .T. ) ;
#88 =( GEOMETRIC_REPRESENTATION_CONTEXT ( 3 ) GLOBAL_UNCERTAINTY_ASSIGNED_CONTEXT ( ( #248 ) ) GLOBAL_UNIT_ASSIGNED_CONTEXT ( ( #48, #657, #106 ) ) REPRESENTATION_CONTEXT ( 'NONE', 'WORKASPACE' ) );
#89 = ORIENTED_EDGE ( 'NONE', *, *, #314, .F. ) ;
#90 = EDGE_CURVE ( 'NONE', #115, #145, #212, .T. ) ;
#91 = FACE_OUTER_BOUND ( 'NONE', #200, .T. ) ;
#92 = VECTOR ( 'NONE', #17, 1000.000000000000000 ) ;
#93 = ORIENTED_EDGE ( 'NONE', *, *, #291, .T. ) ;
#94 = PLANE ( 'NONE',  #65 ) ;
#95 = VERTEX_POINT ( 'NONE', #618 ) ;
#96 = CARTESIAN_POINT ( 'NONE',  ( 1.000000000000000000, 6.499999999999999112, 0.000000000000000000 ) ) ;
#97 = ORIENTED_EDGE ( 'NONE', *, *, #314, .T. ) ;
#98 = AXIS2_PLACEMENT_3D ( 'NONE', #630, #335, #579 ) ;
#99 = CARTESIAN_POINT ( 'NONE',  ( 0.000000000000000000, 0.000000000000000000, 0.000000000000000000 ) ) ;
#100 = EDGE_CURVE ( 'NONE', #186, #542, #503, .T. ) ;
#101 = EDGE_CURVE ( 'NONE', #244, #646, #366, .T. ) ;
#102 = CARTESIAN_POINT ( 'NONE',  ( 0.2499999999999998890, 6.499999999999999112, 1.299038105676658006 ) ) ;
#103 = CIRCLE ( 'NONE', #358, 1.000000000000000000 ) ;
#104 = ORIENTED_EDGE ( 'NONE', *, *, #404, .F. ) ;
#105 = ADVANCED_BREP_SHAPE_REPRESENTATION ( 'DIN912 - M2.5X4', ( #418, #489 ), #134 ) ;
#106 =( NAMED_UNIT ( * ) SI_UNIT ( $, .STERADIAN. ) SOLID_ANGLE_UNIT ( ) );
#107 = DIRECTION ( 'NONE',  ( -0.000000000000000000, -1.000000000000000000, -0.000000000000000000 ) ) ;
#108 = CIRCLE ( 'NONE', #405, 1.000000000000000000 ) ;
#109 = DIRECTION ( 'NONE',  ( 0.5000000000000003331, 0.000000000000000000, -0.8660254037844385966 ) ) ;
#110 = CARTESIAN_POINT ( 'NONE',  ( -1.000000000000000000, 5.399999999999998579, 0.5773502691896258421 ) ) ;
#111 = CIRCLE ( 'NONE', #567, 1.250000000000002887 ) ;
#112 = EDGE_CURVE ( 'NONE', #422, #603, #426, .T. ) ;
#113 = FACE_OUTER_BOUND ( 'NONE', #557, .T. ) ;
#114 = CARTESIAN_POINT ( 'NONE',  ( 0.9999999999999997780, 6.499999999999999112, 0.000000000000000000 ) ) ;
#115 = VERTEX_POINT ( 'NONE', #218 ) ;
#116 = DIRECTION ( 'NONE',  ( 0.000000000000000000, 0.000000000000000000, -1.000000000000000000 ) ) ;
#117 = EDGE_LOOP ( 'NONE', ( #342, #140, #537, #479 ) ) ;
#118 = CARTESIAN_POINT ( 'NONE',  ( -1.000000000000000000, 5.399999999999998579, -0.5773502691896259531 ) ) ;
#119 = CARTESIAN_POINT ( 'NONE',  ( 0.000000000000000000, 5.399999999999998579, 0.000000000000000000 ) ) ;
#120 = EDGE_LOOP ( 'NONE', ( #190, #72, #219, #281 ) ) ;
#121 = CYLINDRICAL_SURFACE ( 'NONE', #180, 1.250000000000001554 ) ;
#122 = CARTESIAN_POINT ( 'NONE',  ( -1.000000000000000000, 5.399999999999998579, -0.5773502691896259531 ) ) ;
#123 = ORIENTED_EDGE ( 'NONE', *, *, #173, .T. ) ;
#124 = AXIS2_PLACEMENT_3D ( 'NONE', #505, #163, #516 ) ;
#125 = FACE_OUTER_BOUND ( 'NONE', #117, .T. ) ;
#126 = DIRECTION ( 'NONE',  ( 0.000000000000000000, 0.000000000000000000, -1.000000000000000000 ) ) ;
#127 = VERTEX_POINT ( 'NONE', #428 ) ;
#128 = DIRECTION ( 'NONE',  ( -0.000000000000000000, -1.000000000000000000, -0.000000000000000000 ) ) ;
#129 = DIRECTION ( 'NONE',  ( 0.000000000000000000, 0.000000000000000000, -1.000000000000000000 ) ) ;
#130 = AXIS2_PLACEMENT_3D ( 'NONE', #566, #64, #156 ) ;
#131 = ORIENTED_EDGE ( 'NONE', *, *, #631, .T. ) ;
#132 = DIRECTION ( 'NONE',  ( -0.000000000000000000, -1.000000000000000000, -0.000000000000000000 ) ) ;
#133 = CIRCLE ( 'NONE', #153, 1.000000000000000000 ) ;
#134 =( GEOMETRIC_REPRESENTATION_CONTEXT ( 3 ) GLOBAL_UNCERTAINTY_ASSIGNED_CONTEXT ( ( #348 ) ) GLOBAL_UNIT_ASSIGNED_CONTEXT ( ( #14, #477, #181 ) ) REPRESENTATION_CONTEXT ( 'NONE', 'WORKASPACE' ) );
#135 = VERTEX_POINT ( 'NONE', #214 ) ;
#136 = PRODUCT_DEFINITION ( 'UNKNOWN', '', #369, #408 ) ;
#137 = FACE_OUTER_BOUND ( 'NONE', #501, .T. ) ;
#138 = ORIENTED_EDGE ( 'NONE', *, *, #112, .F. ) ;
#139 = DIRECTION ( 'NONE',  ( 0.000000000000000000, -0.000000000000000000, 1.000000000000000000 ) ) ;
#140 = ORIENTED_EDGE ( 'NONE', *, *, #141, .T. ) ;
#141 = EDGE_CURVE ( 'NONE', #95, #603, #484, .T. ) ;
#142 = FACE_OUTER_BOUND ( 'NONE', #296, .T. ) ;
#143 = ORIENTED_EDGE ( 'NONE', *, *, #597, .T. ) ;
#144 = CARTESIAN_POINT ( 'NONE',  ( 0.2500000000000004441, 6.499999999999999112, -1.299038105676657784 ) ) ;
#145 = VERTEX_POINT ( 'NONE', #206 ) ;
#146 = PRODUCT ( 'DIN912 - M2.5X4', 'DIN912 - M2.5X4', '', ( #36 ) ) ;
#147 = PLANE ( 'NONE',  #282 ) ;
#148 = ORIENTED_EDGE ( 'NONE', *, *, #621, .T. ) ;
#149 = EDGE_CURVE ( 'NONE', #175, #417, #421, .T. ) ;
#150 = EDGE_CURVE ( 'NONE', #320, #417, #208, .T. ) ;
#151 = DIRECTION ( 'NONE',  ( -0.000000000000000000, -1.000000000000000000, -0.000000000000000000 ) ) ;
#152 = DIRECTION ( 'NONE',  ( 0.000000000000000000, 0.000000000000000000, -1.000000000000000000 ) ) ;
#153 = AXIS2_PLACEMENT_3D ( 'NONE', #19, #178, #478 ) ;
#154 = PLANE ( 'NONE',  #654 ) ;
#155 = VECTOR ( 'NONE', #633, 1000.000000000000000 ) ;
#156 = DIRECTION ( 'NONE',  ( 0.000000000000000000, 0.000000000000000000, -1.000000000000000000 ) ) ;
#157 = CLOSED_SHELL ( 'NONE', ( #32, #585, #269, #33, #346, #326, #526, #622, #443, #515, #232, #337, #398, #82, #595, #161, #290, #392, #480, #644, #506, #575, #223 ) ) ;
#158 = ORIENTED_EDGE ( 'NONE', *, *, #203, .F. ) ;
#159 = LINE ( 'NONE', #5, #230 ) ;
#160 = CARTESIAN_POINT ( 'NONE',  ( 0.000000000000000000, 6.299999999999999822, 0.000000000000000000 ) ) ;
#161 = ADVANCED_FACE ( 'NONE', ( #572 ), #312, .F. ) ;
#162 = AXIS2_PLACEMENT_3D ( 'NONE', #160, #370, #513 ) ;
#163 = DIRECTION ( 'NONE',  ( 0.4999999999999996114, 0.000000000000000000, 0.8660254037844388186 ) ) ;
#164 = DIRECTION ( 'NONE',  ( 0.000000000000000000, 0.000000000000000000, 1.000000000000000000 ) ) ;
#165 = CARTESIAN_POINT ( 'NONE',  ( 8.370298119817764338E-18, 5.399999999999998579, 1.154700538379251684 ) ) ;
#166 = FACE_OUTER_BOUND ( 'NONE', #523, .T. ) ;
#167 = EDGE_LOOP ( 'NONE', ( #584, #352, #97, #600 ) ) ;
#168 = LINE ( 'NONE', #535, #582 ) ;
#169 = DIRECTION ( 'NONE',  ( 0.000000000000000000, 0.000000000000000000, 1.000000000000000000 ) ) ;
#170 = VERTEX_POINT ( 'NONE', #520 ) ;
#171 = LINE ( 'NONE', #234, #634 ) ;
#172 = EDGE_CURVE ( 'NONE', #301, #325, #309, .T. ) ;
#173 = EDGE_CURVE ( 'NONE', #542, #276, #589, .T. ) ;
#174 = CARTESIAN_POINT ( 'NONE',  ( 8.370298119817764338E-18, 5.399999999999998579, 1.154700538379251684 ) ) ;
#175 = VERTEX_POINT ( 'NONE', #635 ) ;
#176 = PRESENTATION_LAYER_ASSIGNMENT (  '', '', ( #2 ) ) ;
#177 = CARTESIAN_POINT ( 'NONE',  ( 2.632990618166811700E-16, 6.499999999999999112, 2.050000000000002487 ) ) ;
#178 = DIRECTION ( 'NONE',  ( -0.000000000000000000, -1.000000000000000000, -0.000000000000000000 ) ) ;
#179 = ORIENTED_EDGE ( 'NONE', *, *, #413, .F. ) ;
#180 = AXIS2_PLACEMENT_3D ( 'NONE', #490, #376, #322 ) ;
#181 =( NAMED_UNIT ( * ) SI_UNIT ( $, .STERADIAN. ) SOLID_ANGLE_UNIT ( ) );
#182 = CARTESIAN_POINT ( 'NONE',  ( 0.000000000000000000, 0.000000000000000000, 0.000000000000000000 ) ) ;
#183 = EDGE_LOOP ( 'NONE', ( #52, #439, #391, #396, #340 ) ) ;
#184 = CARTESIAN_POINT ( 'NONE',  ( 2.755455298081547243E-16, 0.000000000000000000, 2.250000000000001776 ) ) ;
#185 = CARTESIAN_POINT ( 'NONE',  ( 0.000000000000000000, 4.000000000000000000, 0.000000000000000000 ) ) ;
#186 = VERTEX_POINT ( 'NONE', #576 ) ;
#187 = APPLICATION_PROTOCOL_DEFINITION ( 'draft international standard', 'automotive_design', 1998, #363 ) ;
#188 = LINE ( 'NONE', #548, #199 ) ;
#189 = AXIS2_PLACEMENT_3D ( 'NONE', #390, #132, #544 ) ;
#190 = ORIENTED_EDGE ( 'NONE', *, *, #278, .T. ) ;
#191 = VECTOR ( 'NONE', #470, 1000.000000000000000 ) ;
#192 = CARTESIAN_POINT ( 'NONE',  ( 0.9999999999999997780, 6.499999999999999112, 0.5773502691896263972 ) ) ;
#193 = ORIENTED_EDGE ( 'NONE', *, *, #90, .T. ) ;
#194 = CARTESIAN_POINT ( 'NONE',  ( 0.000000000000000000, 5.399999999999998579, 0.000000000000000000 ) ) ;
#195 = ORIENTED_EDGE ( 'NONE', *, *, #574, .T. ) ;
#196 = VECTOR ( 'NONE', #9, 1000.000000000000000 ) ;
#197 = DIRECTION ( 'NONE',  ( 0.000000000000000000, 0.000000000000000000, 1.000000000000000000 ) ) ;
#198 = DIRECTION ( 'NONE',  ( 0.000000000000000000, 1.000000000000000000, 0.000000000000000000 ) ) ;
#199 = VECTOR ( 'NONE', #497, 1000.000000000000000 ) ;
#200 = EDGE_LOOP ( 'NONE', ( #229, #375, #60, #511, #361 ) ) ;
#201 = CARTESIAN_POINT ( 'NONE',  ( 0.000000000000000000, 5.399999999999998579, 0.000000000000000000 ) ) ;
#202 = ORIENTED_EDGE ( 'NONE', *, *, #100, .F. ) ;
#203 = EDGE_CURVE ( 'NONE', #632, #422, #8, .T. ) ;
#204 = EDGE_CURVE ( 'NONE', #542, #175, #532, .T. ) ;
#205 = CARTESIAN_POINT ( 'NONE',  ( 1.259420702368994198E-16, 5.399999999999998579, -1.154700538379251684 ) ) ;
#206 = CARTESIAN_POINT ( 'NONE',  ( 8.370298119817764338E-18, 6.499999999999999112, 1.154700538379251684 ) ) ;
#207 = DIRECTION ( 'NONE',  ( -0.8660254037844384856, 0.000000000000000000, -0.5000000000000002220 ) ) ;
#208 = LINE ( 'NONE', #114, #216 ) ;
#209 = DIRECTION ( 'NONE',  ( -0.000000000000000000, -1.000000000000000000, -0.000000000000000000 ) ) ;
#210 = EDGE_CURVE ( 'NONE', #42, #170, #617, .T. ) ;
#211 = TOROIDAL_SURFACE ( 'NONE', #347, 2.050000000000002487, 0.1999999999999992339 ) ;
#212 = LINE ( 'NONE', #102, #402 ) ;
#213 = LINE ( 'NONE', #205, #292 ) ;
#214 = CARTESIAN_POINT ( 'NONE',  ( 8.370298119817764338E-18, 5.399999999999998579, 1.154700538379251684 ) ) ;
#215 = ORIENTED_EDGE ( 'NONE', *, *, #540, .T. ) ;
#216 = VECTOR ( 'NONE', #4, 1000.000000000000000 ) ;
#217 = LINE ( 'NONE', #165, #23 ) ;
#218 = CARTESIAN_POINT ( 'NONE',  ( -1.000000000000000000, 6.499999999999999112, 0.5773502691896258421 ) ) ;
#219 = ORIENTED_EDGE ( 'NONE', *, *, #101, .F. ) ;
#220 = CIRCLE ( 'NONE', #642, 1.250000000000002887 ) ;
#221 = DIRECTION ( 'NONE',  ( 0.000000000000000000, 0.000000000000000000, -1.000000000000000000 ) ) ;
#222 = DIRECTION ( 'NONE',  ( 0.8660254037844388186, 0.000000000000000000, -0.4999999999999996669 ) ) ;
#223 = ADVANCED_FACE ( 'NONE', ( #590 ), #529, .F. ) ;
#224 = EDGE_CURVE ( 'NONE', #496, #79, #71, .T. ) ;
#225 = LINE ( 'NONE', #174, #334 ) ;
#226 = ORIENTED_EDGE ( 'NONE', *, *, #253, .T. ) ;
#227 = CARTESIAN_POINT ( 'NONE',  ( 0.000000000000000000, 5.399999999999998579, 1.000000000000000000 ) ) ;
#228 = CARTESIAN_POINT ( 'NONE',  ( 0.000000000000000000, 5.399999999999998579, 0.000000000000000000 ) ) ;
#229 = ORIENTED_EDGE ( 'NONE', *, *, #404, .T. ) ;
#230 = VECTOR ( 'NONE', #427, 1000.000000000000114 ) ;
#231 = CARTESIAN_POINT ( 'NONE',  ( 0.9999999999999997780, 5.399999999999998579, -0.5773502691896258421 ) ) ;
#232 = ADVANCED_FACE ( 'NONE', ( #235 ), #491, .T. ) ;
#233 = VERTEX_POINT ( 'NONE', #284 ) ;
#234 = CARTESIAN_POINT ( 'NONE',  ( 1.250000000000000000, 6.499999999999999112, -0.4330127018922190762 ) ) ;
#235 = FACE_OUTER_BOUND ( 'NONE', #384, .T. ) ;
#236 = EDGE_CURVE ( 'NONE', #652, #325, #270, .T. ) ;
#237 = ORIENTED_EDGE ( 'NONE', *, *, #150, .F. ) ;
#238 = LINE ( 'NONE', #240, #629 ) ;
#239 = VERTEX_POINT ( 'NONE', #271 ) ;
#240 = CARTESIAN_POINT ( 'NONE',  ( 1.250000000000000222, 6.499999999999999112, 0.4330127018922200199 ) ) ;
#241 = CIRCLE ( 'NONE', #189, 2.250000000000001776 ) ;
#242 = EDGE_LOOP ( 'NONE', ( #449, #158 ) ) ;
#243 = PLANE ( 'NONE',  #447 ) ;
#244 = VERTEX_POINT ( 'NONE', #66 ) ;
#245 = DIRECTION ( 'NONE',  ( 0.000000000000000000, 0.000000000000000000, -1.000000000000000000 ) ) ;
#246 = EDGE_LOOP ( 'NONE', ( #456, #298, #425, #83 ) ) ;
#247 = VECTOR ( 'NONE', #374, 1000.000000000000000 ) ;
#248 = UNCERTAINTY_MEASURE_WITH_UNIT (LENGTH_MEASURE( 1.000000000000000082E-05 ), #48, 'distance_accuracy_value', 'NONE');
#249 = CARTESIAN_POINT ( 'NONE',  ( 0.000000000000000000, 5.399999999999998579, 0.000000000000000000 ) ) ;
#250 = ORIENTED_EDGE ( 'NONE', *, *, #278, .F. ) ;
#251 = DIRECTION ( 'NONE',  ( 0.000000000000000000, 0.000000000000000000, -1.000000000000000000 ) ) ;
#252 = ORIENTED_EDGE ( 'NONE', *, *, #204, .F. ) ;
#253 = EDGE_CURVE ( 'NONE', #127, #42, #133, .T. ) ;
#254 = DIRECTION ( 'NONE',  ( -0.000000000000000000, -1.000000000000000000, -0.000000000000000000 ) ) ;
#255 = ORIENTED_EDGE ( 'NONE', *, *, #563, .F. ) ;
#256 = EDGE_CURVE ( 'NONE', #76, #301, #220, .T. ) ;
#257 = DIRECTION ( 'NONE',  ( -0.000000000000000000, 1.000000000000000000, -0.000000000000000000 ) ) ;
#258 = DIRECTION ( 'NONE',  ( 0.8660254037844385966, -0.000000000000000000, 0.5000000000000001110 ) ) ;
#259 = VECTOR ( 'NONE', #84, 1000.000000000000000 ) ;
#260 = CARTESIAN_POINT ( 'NONE',  ( 0.9999999999999997780, 5.399999999999998579, 0.000000000000000000 ) ) ;
#261 = AXIS2_PLACEMENT_3D ( 'NONE', #3, #151, #251 ) ;
#262 = PLANE ( 'NONE',  #75 ) ;
#263 = ORIENTED_EDGE ( 'NONE', *, *, #318, .T. ) ;
#264 = CARTESIAN_POINT ( 'NONE',  ( 2.250000000000002665, 4.000000000000000000, 0.000000000000000000 ) ) ;
#265 = CARTESIAN_POINT ( 'NONE',  ( 1.530808498934193296E-16, 0.000000000000000000, 1.250000000000001554 ) ) ;
#266 = LINE ( 'NONE', #63, #155 ) ;
#267 = DIRECTION ( 'NONE',  ( 0.000000000000000000, 0.000000000000000000, 1.000000000000000000 ) ) ;
#268 = EDGE_CURVE ( 'NONE', #186, #636, #328, .T. ) ;
#269 = ADVANCED_FACE ( 'NONE', ( #441 ), #438, .T. ) ;
#270 = CIRCLE ( 'NONE', #98, 1.250000000000000444 ) ;
#271 = CARTESIAN_POINT ( 'NONE',  ( 0.000000000000000000, 4.822649730810375956, 0.000000000000000000 ) ) ;
#272 = ORIENTED_EDGE ( 'NONE', *, *, #90, .F. ) ;
#273 = TOROIDAL_SURFACE ( 'NONE', #397, 2.050000000000002487, 0.1999999999999992339 ) ;
#274 = CYLINDRICAL_SURFACE ( 'NONE', #553, 2.250000000000001776 ) ;
#275 = CARTESIAN_POINT ( 'NONE',  ( 1.530808498934195022E-16, 4.000000000000000000, 1.250000000000002887 ) ) ;
#276 = VERTEX_POINT ( 'NONE', #541 ) ;
#277 = DIRECTION ( 'NONE',  ( 1.000000000000000000, 0.000000000000000000, 0.000000000000000000 ) ) ;
#278 = EDGE_CURVE ( 'NONE', #603, #95, #241, .T. ) ;
#279 = AXIS2_PLACEMENT_3D ( 'NONE', #74, #432, #331 ) ;
#280 = CARTESIAN_POINT ( 'NONE',  ( 0.9999999999999997780, 5.399999999999998579, 0.5773502691896263972 ) ) ;
#281 = ORIENTED_EDGE ( 'NONE', *, *, #393, .F. ) ;
#282 = AXIS2_PLACEMENT_3D ( 'NONE', #452, #599, #288 ) ;
#283 = DIRECTION ( 'NONE',  ( -0.000000000000000000, 1.000000000000000000, 0.000000000000000000 ) ) ;
#284 = CARTESIAN_POINT ( 'NONE',  ( 0.9999999999999997780, 5.399999999999998579, 0.5773502691896263972 ) ) ;
#285 = EDGE_LOOP ( 'NONE', ( #639, #400, #641, #329, #202, #658 ) ) ;
#286 = DIRECTION ( 'NONE',  ( -1.000000000000000000, 0.000000000000000000, 0.000000000000000000 ) ) ;
#287 = ORIENTED_EDGE ( 'NONE', *, *, #18, .F. ) ;
#288 = DIRECTION ( 'NONE',  ( -0.8660254037844387076, 0.000000000000000000, 0.4999999999999998335 ) ) ;
#289 = ORIENTED_EDGE ( 'NONE', *, *, #54, .T. ) ;
#290 = ADVANCED_FACE ( 'NONE', ( #12 ), #81, .F. ) ;
#291 = EDGE_CURVE ( 'NONE', #135, #276, #225, .T. ) ;
#292 = VECTOR ( 'NONE', #257, 1000.000000000000000 ) ;
#293 = FACE_BOUND ( 'NONE', #627, .T. ) ;
#294 = LINE ( 'NONE', #549, #69 ) ;
#295 = LINE ( 'NONE', #41, #259 ) ;
#296 = EDGE_LOOP ( 'NONE', ( #649, #316 ) ) ;
#297 = DIRECTION ( 'NONE',  ( 0.000000000000000000, -0.000000000000000000, 1.000000000000000000 ) ) ;
#298 = ORIENTED_EDGE ( 'NONE', *, *, #461, .T. ) ;
#299 = AXIS2_PLACEMENT_3D ( 'NONE', #486, #638, #536 ) ;
#300 = DIRECTION ( 'NONE',  ( -0.000000000000000000, -1.000000000000000000, -0.000000000000000000 ) ) ;
#301 = VERTEX_POINT ( 'NONE', #275 ) ;
#302 = CIRCLE ( 'NONE', #610, 0.1999999999999992339 ) ;
#303 = CARTESIAN_POINT ( 'NONE',  ( 0.9999999999999997780, 5.399999999999998579, -0.5773502691896258421 ) ) ;
#304 = VERTEX_POINT ( 'NONE', #624 ) ;
#305 = DIRECTION ( 'NONE',  ( 0.000000000000000000, 0.000000000000000000, -1.000000000000000000 ) ) ;
#306 = CARTESIAN_POINT ( 'NONE',  ( 0.000000000000000000, 4.000000000000000000, -1.250000000000002887 ) ) ;
#307 = ORIENTED_EDGE ( 'NONE', *, *, #100, .T. ) ;
#308 = DIRECTION ( 'NONE',  ( -0.000000000000000000, 1.000000000000000000, -0.000000000000000000 ) ) ;
#309 = LINE ( 'NONE', #265, #389 ) ;
#310 = AXIS2_PLACEMENT_3D ( 'NONE', #264, #415, #614 ) ;
#311 = ORIENTED_EDGE ( 'NONE', *, *, #574, .F. ) ;
#312 = PLANE ( 'NONE',  #565 ) ;
#313 = CARTESIAN_POINT ( 'NONE',  ( 1.259420702368994198E-16, 5.399999999999998579, -1.154700538379251684 ) ) ;
#314 = EDGE_CURVE ( 'NONE', #76, #652, #433, .T. ) ;
#315 = DIRECTION ( 'NONE',  ( 0.000000000000000000, 0.000000000000000000, -1.000000000000000000 ) ) ;
#316 = ORIENTED_EDGE ( 'NONE', *, *, #527, .T. ) ;
#317 = CARTESIAN_POINT ( 'NONE',  ( 0.9999999999999997780, 5.399999999999998579, 0.5773502691896263972 ) ) ;
#318 = EDGE_CURVE ( 'NONE', #632, #95, #302, .T. ) ;
#319 = DIRECTION ( 'NONE',  ( 0.000000000000000000, 0.000000000000000000, 1.000000000000000000 ) ) ;
#320 = VERTEX_POINT ( 'NONE', #192 ) ;
#321 = VECTOR ( 'NONE', #297, 1000.000000000000000 ) ;
#322 = DIRECTION ( 'NONE',  ( 0.000000000000000000, 0.000000000000000000, -1.000000000000000000 ) ) ;
#323 = CARTESIAN_POINT ( 'NONE',  ( 2.510525938252077144E-16, 6.299999999999999822, 2.050000000000002487 ) ) ;
#324 = CIRCLE ( 'NONE', #68, 1.250000000000000444 ) ;
#325 = VERTEX_POINT ( 'NONE', #640 ) ;
#326 = ADVANCED_FACE ( 'NONE', ( #293, #87 ), #30, .T. ) ;
#327 = FACE_OUTER_BOUND ( 'NONE', #605, .T. ) ;
#328 = LINE ( 'NONE', #231, #592 ) ;
#329 = ORIENTED_EDGE ( 'NONE', *, *, #173, .F. ) ;
#330 = DIRECTION ( 'NONE',  ( -0.000000000000000000, -1.000000000000000000, -0.000000000000000000 ) ) ;
#331 = DIRECTION ( 'NONE',  ( 0.000000000000000000, 0.000000000000000000, -1.000000000000000000 ) ) ;
#332 = ORIENTED_EDGE ( 'NONE', *, *, #414, .T. ) ;
#333 = SHAPE_DEFINITION_REPRESENTATION ( #46, #105 ) ;
#334 = VECTOR ( 'NONE', #222, 1000.000000000000114 ) ;
#335 = DIRECTION ( 'NONE',  ( -0.000000000000000000, -1.000000000000000000, -0.000000000000000000 ) ) ;
#336 = EDGE_LOOP ( 'NONE', ( #195, #45, #49, #255, #365 ) ) ;
#337 = ADVANCED_FACE ( 'NONE', ( #44 ), #94, .T. ) ;
#338 = PRESENTATION_STYLE_ASSIGNMENT (( #349 ) ) ;
#339 = EDGE_CURVE ( 'NONE', #79, #115, #409, .T. ) ;
#340 = ORIENTED_EDGE ( 'NONE', *, *, #224, .T. ) ;
#341 = DIRECTION ( 'NONE',  ( 0.000000000000000000, -0.000000000000000000, 1.000000000000000000 ) ) ;
#342 = ORIENTED_EDGE ( 'NONE', *, *, #606, .F. ) ;
#343 = COLOUR_RGB ( '',0.7921568627450980005, 0.8196078431372548767, 0.9333333333333333481 ) ;
#344 = DIRECTION ( 'NONE',  ( 0.000000000000000000, 0.000000000000000000, -1.000000000000000000 ) ) ;
#345 = ORIENTED_EDGE ( 'NONE', *, *, #40, .T. ) ;
#346 = ADVANCED_FACE ( 'NONE', ( #142 ), #243, .T. ) ;
#347 = AXIS2_PLACEMENT_3D ( 'NONE', #466, #616, #509 ) ;
#348 = UNCERTAINTY_MEASURE_WITH_UNIT (LENGTH_MEASURE( 1.000000000000000082E-05 ), #14, 'distance_accuracy_value', 'NONE');
#349 = SURFACE_STYLE_USAGE ( .BOTH. , #645 ) ;
#350 = ORIENTED_EDGE ( 'NONE', *, *, #413, .T. ) ;
#351 = CARTESIAN_POINT ( 'NONE',  ( -1.000000000000000000, 5.399999999999998579, 0.5773502691896258421 ) ) ;
#352 = ORIENTED_EDGE ( 'NONE', *, *, #462, .T. ) ;
#353 = FACE_OUTER_BOUND ( 'NONE', #167, .T. ) ;
#354 = CARTESIAN_POINT ( 'NONE',  ( 0.000000000000000000, 5.399999999999998579, 0.000000000000000000 ) ) ;
#355 = VECTOR ( 'NONE', #377, 1000.000000000000000 ) ;
#356 = AXIS2_PLACEMENT_3D ( 'NONE', #530, #70, #573 ) ;
#357 = DIRECTION ( 'NONE',  ( -0.000000000000000000, -1.000000000000000000, -0.000000000000000000 ) ) ;
#358 = AXIS2_PLACEMENT_3D ( 'NONE', #464, #412, #475 ) ;
#359 = EDGE_CURVE ( 'NONE', #460, #612, #604, .T. ) ;
#360 = CARTESIAN_POINT ( 'NONE',  ( 0.000000000000000000, 6.299999999999999822, -2.050000000000002487 ) ) ;
#361 = ORIENTED_EDGE ( 'NONE', *, *, #469, .T. ) ;
#362 = FACE_OUTER_BOUND ( 'NONE', #336, .T. ) ;
#363 = APPLICATION_CONTEXT ( 'automotive_design' ) ;
#364 = CARTESIAN_POINT ( 'NONE',  ( 0.000000000000000000, 5.399999999999998579, 0.000000000000000000 ) ) ;
#365 = ORIENTED_EDGE ( 'NONE', *, *, #149, .T. ) ;
#366 = CIRCLE ( 'NONE', #650, 2.250000000000002665 ) ;
#367 = CARTESIAN_POINT ( 'NONE',  ( 0.000000000000000000, 6.499999999999999112, -2.050000000000002487 ) ) ;
#368 = LINE ( 'NONE', #620, #43 ) ;
#369 = PRODUCT_DEFINITION_FORMATION_WITH_SPECIFIED_SOURCE ( 'ANY', '', #146, .NOT_KNOWN. ) ;
#370 = DIRECTION ( 'NONE',  ( -0.000000000000000000, -1.000000000000000000, -0.000000000000000000 ) ) ;
#371 = ORIENTED_EDGE ( 'NONE', *, *, #653, .F. ) ;
#372 = EDGE_CURVE ( 'NONE', #276, #410, #108, .T. ) ;
#373 = CARTESIAN_POINT ( 'NONE',  ( 1.224646799147353207E-16, 5.399999999999998579, -1.000000000000000000 ) ) ;
#374 = DIRECTION ( 'NONE',  ( 0.000000000000000000, 0.000000000000000000, -1.000000000000000000 ) ) ;
#375 = ORIENTED_EDGE ( 'NONE', *, *, #224, .F. ) ;
#376 = DIRECTION ( 'NONE',  ( -0.000000000000000000, -1.000000000000000000, -0.000000000000000000 ) ) ;
#377 = DIRECTION ( 'NONE',  ( -0.000000000000000000, -1.000000000000000000, -0.000000000000000000 ) ) ;
#378 = EDGE_CURVE ( 'NONE', #233, #320, #188, .T. ) ;
#379 = ORIENTED_EDGE ( 'NONE', *, *, #253, .F. ) ;
#380 = VECTOR ( 'NONE', #556, 1000.000000000000000 ) ;
#381 = PLANE ( 'NONE',  #61 ) ;
#382 = DIRECTION ( 'NONE',  ( 0.000000000000000000, -0.000000000000000000, 1.000000000000000000 ) ) ;
#383 = CIRCLE ( 'NONE', #613, 1.000000000000000000 ) ;
#384 = EDGE_LOOP ( 'NONE', ( #289, #591, #123 ) ) ;
#385 = CARTESIAN_POINT ( 'NONE',  ( 0.9999999999999997780, 5.399999999999998579, -0.5773502691896258421 ) ) ;
#386 = DIRECTION ( 'NONE',  ( -0.000000000000000000, -1.000000000000000000, -0.000000000000000000 ) ) ;
#387 = ORIENTED_EDGE ( 'NONE', *, *, #149, .F. ) ;
#388 = LINE ( 'NONE', #385, #450 ) ;
#389 = VECTOR ( 'NONE', #472, 1000.000000000000000 ) ;
#390 = CARTESIAN_POINT ( 'NONE',  ( 0.000000000000000000, 6.299999999999999822, 0.000000000000000000 ) ) ;
#391 = ORIENTED_EDGE ( 'NONE', *, *, #643, .F. ) ;
#392 = ADVANCED_FACE ( 'NONE', ( #91 ), #147, .F. ) ;
#393 = EDGE_CURVE ( 'NONE', #603, #244, #295, .T. ) ;
#394 = AXIS2_PLACEMENT_3D ( 'NONE', #228, #482, #382 ) ;
#395 = PLANE ( 'NONE',  #601 ) ;
#396 = ORIENTED_EDGE ( 'NONE', *, *, #40, .F. ) ;
#397 = AXIS2_PLACEMENT_3D ( 'NONE', #416, #107, #315 ) ;
#398 = ADVANCED_FACE ( 'NONE', ( #34 ), #395, .T. ) ;
#399 = DIRECTION ( 'NONE',  ( -0.000000000000000000, 1.000000000000000000, 0.000000000000000000 ) ) ;
#400 = ORIENTED_EDGE ( 'NONE', *, *, #653, .T. ) ;
#401 = DIRECTION ( 'NONE',  ( -0.000000000000000000, -1.000000000000000000, -0.000000000000000000 ) ) ;
#402 = VECTOR ( 'NONE', #258, 1000.000000000000114 ) ;
#403 = EDGE_LOOP ( 'NONE', ( #498, #453, #307 ) ) ;
#404 = EDGE_CURVE ( 'NONE', #304, #79, #448, .T. ) ;
#405 = AXIS2_PLACEMENT_3D ( 'NONE', #201, #401, #554 ) ;
#406 = FILL_AREA_STYLE_COLOUR ( '', #343 ) ;
#407 = ORIENTED_EDGE ( 'NONE', *, *, #236, .F. ) ;
#408 = PRODUCT_DEFINITION_CONTEXT ( 'detailed design', #659, 'design' ) ;
#409 = LINE ( 'NONE', #457, #321 ) ;
#410 = VERTEX_POINT ( 'NONE', #493 ) ;
#411 = CARTESIAN_POINT ( 'NONE',  ( 0.9999999999999997780, 5.399999999999998579, -0.5773502691896258421 ) ) ;
#412 = DIRECTION ( 'NONE',  ( -0.000000000000000000, -1.000000000000000000, -0.000000000000000000 ) ) ;
#413 = EDGE_CURVE ( 'NONE', #145, #320, #238, .T. ) ;
#414 = EDGE_CURVE ( 'NONE', #646, #244, #550, .T. ) ;
#415 = DIRECTION ( 'NONE',  ( 0.000000000000000000, -1.000000000000000000, -0.000000000000000000 ) ) ;
#416 = CARTESIAN_POINT ( 'NONE',  ( 0.000000000000000000, 6.299999999999999822, 0.000000000000000000 ) ) ;
#417 = VERTEX_POINT ( 'NONE', #593 ) ;
#418 = MANIFOLD_SOLID_BREP ( 'Key Cutout', #157 ) ;
#419 = VECTOR ( 'NONE', #481, 1000.000000000000114 ) ;
#420 = DIRECTION ( 'NONE',  ( 0.000000000000000000, 0.000000000000000000, -1.000000000000000000 ) ) ;
#421 = LINE ( 'NONE', #303, #538 ) ;
#422 = VERTEX_POINT ( 'NONE', #367 ) ;
#423 = FACE_OUTER_BOUND ( 'NONE', #598, .T. ) ;
#424 = DIRECTION ( 'NONE',  ( 0.000000000000000000, 1.000000000000000000, 0.000000000000000000 ) ) ;
#425 = ORIENTED_EDGE ( 'NONE', *, *, #210, .T. ) ;
#426 = CIRCLE ( 'NONE', #455, 0.1999999999999992339 ) ;
#427 = DIRECTION ( 'NONE',  ( -0.8660254037844387076, 0.000000000000000000, 0.4999999999999998335 ) ) ;
#428 = CARTESIAN_POINT ( 'NONE',  ( -1.000000000000000000, 5.399999999999998579, 0.000000000000000000 ) ) ;
#429 = EDGE_LOOP ( 'NONE', ( #504, #495, #215 ) ) ;
#430 = AXIS2_PLACEMENT_3D ( 'NONE', #587, #525, #319 ) ;
#431 = CARTESIAN_POINT ( 'NONE',  ( 2.755455298081548722E-16, 4.000000000000000000, 2.250000000000002665 ) ) ;
#432 = DIRECTION ( 'NONE',  ( -0.000000000000000000, -1.000000000000000000, -0.000000000000000000 ) ) ;
#433 = LINE ( 'NONE', #626, #355 ) ;
#434 = EDGE_LOOP ( 'NONE', ( #442, #93, #473, #580 ) ) ;
#435 = FACE_OUTER_BOUND ( 'NONE', #429, .T. ) ;
#436 = DIRECTION ( 'NONE',  ( -0.000000000000000000, -1.000000000000000000, -0.000000000000000000 ) ) ;
#437 = EDGE_LOOP ( 'NONE', ( #518, #459 ) ) ;
#438 = CYLINDRICAL_SURFACE ( 'NONE', #476, 2.250000000000001776 ) ;
#439 = ORIENTED_EDGE ( 'NONE', *, *, #597, .F. ) ;
#440 = LINE ( 'NONE', #184, #531 ) ;
#441 = FACE_OUTER_BOUND ( 'NONE', #120, .T. ) ;
#442 = ORIENTED_EDGE ( 'NONE', *, *, #18, .T. ) ;
#443 = ADVANCED_FACE ( 'NONE', ( #137, #568 ), #55, .T. ) ;
#444 = APPLICATION_PROTOCOL_DEFINITION ( 'draft international standard', 'automotive_design', 1998, #659 ) ;
#445 = DIRECTION ( 'NONE',  ( -0.000000000000000000, -1.000000000000000000, -0.000000000000000000 ) ) ;
#446 = ORIENTED_EDGE ( 'NONE', *, *, #378, .T. ) ;
#447 = AXIS2_PLACEMENT_3D ( 'NONE', #655, #596, #344 ) ;
#448 = LINE ( 'NONE', #144, #380 ) ;
#449 = ORIENTED_EDGE ( 'NONE', *, *, #494, .F. ) ;
#450 = VECTOR ( 'NONE', #625, 1000.000000000000114 ) ;
#451 = EDGE_CURVE ( 'NONE', #135, #145, #217, .T. ) ;
#452 = CARTESIAN_POINT ( 'NONE',  ( 1.259420702368994198E-16, 5.399999999999998579, -1.154700538379251684 ) ) ;
#453 = ORIENTED_EDGE ( 'NONE', *, *, #563, .T. ) ;
#454 = CARTESIAN_POINT ( 'NONE',  ( 0.000000000000000000, 4.000000000000000000, 0.000000000000000000 ) ) ;
#455 = AXIS2_PLACEMENT_3D ( 'NONE', #360, #1, #267 ) ;
#456 = ORIENTED_EDGE ( 'NONE', *, *, #268, .T. ) ;
#457 = CARTESIAN_POINT ( 'NONE',  ( -1.000000000000000000, 6.499999999999999112, 0.000000000000000000 ) ) ;
#458 = VECTOR ( 'NONE', #22, 1000.000000000000114 ) ;
#459 = ORIENTED_EDGE ( 'NONE', *, *, #462, .F. ) ;
#460 = VERTEX_POINT ( 'NONE', #471 ) ;
#461 = EDGE_CURVE ( 'NONE', #636, #42, #159, .T. ) ;
#462 = EDGE_CURVE ( 'NONE', #301, #76, #111, .T. ) ;
#463 = CARTESIAN_POINT ( 'NONE',  ( 0.000000000000000000, 3.061616997868357133E-17, 0.000000000000000000 ) ) ;
#464 = CARTESIAN_POINT ( 'NONE',  ( 0.000000000000000000, 5.399999999999998579, 0.000000000000000000 ) ) ;
#465 = AXIS2_PLACEMENT_3D ( 'NONE', #454, #445, #245 ) ;
#466 = CARTESIAN_POINT ( 'NONE',  ( 0.000000000000000000, 6.299999999999999822, 0.000000000000000000 ) ) ;
#467 = DIRECTION ( 'NONE',  ( -0.000000000000000000, 1.000000000000000000, -0.000000000000000000 ) ) ;
#468 = AXIS2_PLACEMENT_3D ( 'NONE', #7, #357, #305 ) ;
#469 = EDGE_CURVE ( 'NONE', #636, #304, #213, .T. ) ;
#470 = DIRECTION ( 'NONE',  ( 0.000000000000000000, 0.000000000000000000, 1.000000000000000000 ) ) ;
#471 = CARTESIAN_POINT ( 'NONE',  ( -1.000000000000000000, 5.399999999999998579, 0.5773502691896258421 ) ) ;
#472 = DIRECTION ( 'NONE',  ( -0.000000000000000000, -1.000000000000000000, -0.000000000000000000 ) ) ;
#473 = ORIENTED_EDGE ( 'NONE', *, *, #372, .T. ) ;
#474 = CARTESIAN_POINT ( 'NONE',  ( -0.5000000000000000000, 5.399999999999998579, 0.8660254037844385966 ) ) ;
#475 = DIRECTION ( 'NONE',  ( 0.000000000000000000, 0.000000000000000000, -1.000000000000000000 ) ) ;
#476 = AXIS2_PLACEMENT_3D ( 'NONE', #182, #386, #129 ) ;
#477 =( NAMED_UNIT ( * ) PLANE_ANGLE_UNIT ( ) SI_UNIT ( $, .RADIAN. ) );
#478 = DIRECTION ( 'NONE',  ( 0.000000000000000000, 0.000000000000000000, -1.000000000000000000 ) ) ;
#479 = ORIENTED_EDGE ( 'NONE', *, *, #414, .F. ) ;
#480 = ADVANCED_FACE ( 'NONE', ( #362 ), #154, .F. ) ;
#481 = DIRECTION ( 'NONE',  ( 1.060575238724908147E-16, 0.4999999999999979461, -0.8660254037844397068 ) ) ;
#482 = DIRECTION ( 'NONE',  ( -0.000000000000000000, 1.000000000000000000, 0.000000000000000000 ) ) ;
#483 = ORIENTED_EDGE ( 'NONE', *, *, #494, .T. ) ;
#484 = CIRCLE ( 'NONE', #162, 2.250000000000001776 ) ;
#485 = DIRECTION ( 'NONE',  ( 0.000000000000000000, -0.000000000000000000, 1.000000000000000000 ) ) ;
#486 = CARTESIAN_POINT ( 'NONE',  ( 0.000000000000000000, 5.399999999999998579, 0.000000000000000000 ) ) ;
#487 = ORIENTED_EDGE ( 'NONE', *, *, #112, .T. ) ;
#488 = CIRCLE ( 'NONE', #468, 2.050000000000002487 ) ;
#489 = AXIS2_PLACEMENT_3D ( 'NONE', #543, #197, #86 ) ;
#490 = CARTESIAN_POINT ( 'NONE',  ( 0.000000000000000000, 0.000000000000000000, 0.000000000000000000 ) ) ;
#491 = PLANE ( 'NONE',  #394 ) ;
#492 = ORIENTED_EDGE ( 'NONE', *, *, #172, .T. ) ;
#493 = CARTESIAN_POINT ( 'NONE',  ( 0.000000000000000000, 5.399999999999998579, 1.000000000000000000 ) ) ;
#494 = EDGE_CURVE ( 'NONE', #422, #632, #488, .T. ) ;
#495 = ORIENTED_EDGE ( 'NONE', *, *, #359, .T. ) ;
#496 = VERTEX_POINT ( 'NONE', #607 ) ;
#497 = DIRECTION ( 'NONE',  ( -0.000000000000000000, 1.000000000000000000, -0.000000000000000000 ) ) ;
#498 = ORIENTED_EDGE ( 'NONE', *, *, #204, .T. ) ;
#499 = CIRCLE ( 'NONE', #261, 1.000000000000000000 ) ;
#500 = DIRECTION ( 'NONE',  ( 0.8660254037844385966, 0.000000000000000000, 0.5000000000000000000 ) ) ;
#501 = EDGE_LOOP ( 'NONE', ( #577, #332 ) ) ;
#502 = DIRECTION ( 'NONE',  ( 0.8660254037844388186, 0.000000000000000000, -0.4999999999999996114 ) ) ;
#503 = CIRCLE ( 'NONE', #130, 1.000000000000000000 ) ;
#504 = ORIENTED_EDGE ( 'NONE', *, *, #643, .T. ) ;
#505 = CARTESIAN_POINT ( 'NONE',  ( 8.370298119817764338E-18, 5.399999999999998579, 1.154700538379251684 ) ) ;
#506 = ADVANCED_FACE ( 'NONE', ( #113 ), #512, .F. ) ;
#507 = EDGE_CURVE ( 'NONE', #410, #612, #499, .T. ) ;
#508 = ORIENTED_EDGE ( 'NONE', *, *, #451, .F. ) ;
#509 = DIRECTION ( 'NONE',  ( 0.000000000000000000, 0.000000000000000000, -1.000000000000000000 ) ) ;
#510 = DIRECTION ( 'NONE',  ( -0.000000000000000000, 1.000000000000000000, 0.000000000000000000 ) ) ;
#511 = ORIENTED_EDGE ( 'NONE', *, *, #461, .F. ) ;
#512 = PLANE ( 'NONE',  #124 ) ;
#513 = DIRECTION ( 'NONE',  ( 0.000000000000000000, 0.000000000000000000, -1.000000000000000000 ) ) ;
#514 = ORIENTED_EDGE ( 'NONE', *, *, #203, .T. ) ;
#515 = ADVANCED_FACE ( 'NONE', ( #353 ), #558, .T. ) ;
#516 = DIRECTION ( 'NONE',  ( 0.8660254037844388186, 0.000000000000000000, -0.4999999999999996114 ) ) ;
#517 = FACE_OUTER_BOUND ( 'NONE', #21, .T. ) ;
#518 = ORIENTED_EDGE ( 'NONE', *, *, #256, .F. ) ;
#519 = DIRECTION ( 'NONE',  ( -0.000000000000000000, -1.000000000000000000, -0.000000000000000000 ) ) ;
#520 = CARTESIAN_POINT ( 'NONE',  ( 1.224646799147353207E-16, 5.399999999999998579, -1.000000000000000000 ) ) ;
#521 = LINE ( 'NONE', #118, #92 ) ;
#522 = LINE ( 'NONE', #51, #191 ) ;
#523 = EDGE_LOOP ( 'NONE', ( #371, #131, #528, #379, #547, #552 ) ) ;
#524 = LINE ( 'NONE', #227, #458 ) ;
#525 = DIRECTION ( 'NONE',  ( 0.000000000000000000, 1.000000000000000000, 0.000000000000000000 ) ) ;
#526 = ADVANCED_FACE ( 'NONE', ( #423 ), #211, .T. ) ;
#527 = EDGE_CURVE ( 'NONE', #325, #652, #324, .T. ) ;
#528 = ORIENTED_EDGE ( 'NONE', *, *, #210, .F. ) ;
#529 = CONICAL_SURFACE ( 'NONE', #430, 1.000000000000000000, 1.047197551196600074 ) ;
#530 = CARTESIAN_POINT ( 'NONE',  ( 0.000000000000000000, 5.399999999999998579, 0.000000000000000000 ) ) ;
#531 = VECTOR ( 'NONE', #128, 1000.000000000000000 ) ;
#532 = LINE ( 'NONE', #280, #247 ) ;
#533 = CONICAL_SURFACE ( 'NONE', #647, 1.000000000000000000, 1.047197551196600074 ) ;
#534 = ORIENTED_EDGE ( 'NONE', *, *, #451, .T. ) ;
#535 = CARTESIAN_POINT ( 'NONE',  ( 1.259420702368994198E-16, 5.399999999999998579, -1.154700538379251684 ) ) ;
#536 = DIRECTION ( 'NONE',  ( 0.000000000000000000, 0.000000000000000000, -1.000000000000000000 ) ) ;
#537 = ORIENTED_EDGE ( 'NONE', *, *, #393, .T. ) ;
#538 = VECTOR ( 'NONE', #467, 1000.000000000000000 ) ;
#539 = LINE ( 'NONE', #373, #419 ) ;
#540 = EDGE_CURVE ( 'NONE', #612, #127, #383, .T. ) ;
#541 = CARTESIAN_POINT ( 'NONE',  ( 0.4999999999999996669, 5.399999999999998579, 0.8660254037844389297 ) ) ;
#542 = VERTEX_POINT ( 'NONE', #260 ) ;
#543 = CARTESIAN_POINT ( 'NONE',  ( 0.000000000000000000, 0.000000000000000000, 0.000000000000000000 ) ) ;
#544 = DIRECTION ( 'NONE',  ( 0.000000000000000000, 0.000000000000000000, -1.000000000000000000 ) ) ;
#545 = ORIENTED_EDGE ( 'NONE', *, *, #150, .T. ) ;
#546 = FILL_AREA_STYLE ('',( #406 ) ) ;
#547 = ORIENTED_EDGE ( 'NONE', *, *, #540, .F. ) ;
#548 = CARTESIAN_POINT ( 'NONE',  ( 0.9999999999999997780, 5.399999999999998579, 0.5773502691896263972 ) ) ;
#549 = CARTESIAN_POINT ( 'NONE',  ( -1.000000000000000000, 5.399999999999998579, 0.5773502691896258421 ) ) ;
#550 = CIRCLE ( 'NONE', #465, 2.250000000000002665 ) ;
#551 = DIRECTION ( 'NONE',  ( 1.000000000000000000, 0.000000000000000000, -1.224646799147353207E-16 ) ) ;
#552 = ORIENTED_EDGE ( 'NONE', *, *, #507, .F. ) ;
#553 = AXIS2_PLACEMENT_3D ( 'NONE', #73, #330, #116 ) ;
#554 = DIRECTION ( 'NONE',  ( 0.000000000000000000, 0.000000000000000000, -1.000000000000000000 ) ) ;
#555 = ORIENTED_EDGE ( 'NONE', *, *, #359, .F. ) ;
#556 = DIRECTION ( 'NONE',  ( -0.8660254037844387076, 0.000000000000000000, 0.4999999999999998335 ) ) ;
#557 = EDGE_LOOP ( 'NONE', ( #350, #31, #26, #570, #534 ) ) ;
#558 = CYLINDRICAL_SURFACE ( 'NONE', #38, 1.250000000000001554 ) ;
#559 = AXIS2_PLACEMENT_3D ( 'NONE', #122, #286, #169 ) ;
#560 = FACE_OUTER_BOUND ( 'NONE', #29, .T. ) ;
#561 = CARTESIAN_POINT ( 'NONE',  ( 0.000000000000000000, 5.399999999999998579, 0.000000000000000000 ) ) ;
#562 = DIRECTION ( 'NONE',  ( 0.8660254037844385966, 0.000000000000000000, 0.5000000000000001110 ) ) ;
#563 = EDGE_CURVE ( 'NONE', #175, #186, #388, .T. ) ;
#564 = DIRECTION ( 'NONE',  ( 0.000000000000000000, 0.000000000000000000, -1.000000000000000000 ) ) ;
#565 = AXIS2_PLACEMENT_3D ( 'NONE', #110, #611, #562 ) ;
#566 = CARTESIAN_POINT ( 'NONE',  ( 0.000000000000000000, 5.399999999999998579, 0.000000000000000000 ) ) ;
#567 = AXIS2_PLACEMENT_3D ( 'NONE', #571, #300, #564 ) ;
#568 = FACE_BOUND ( 'NONE', #437, .T. ) ;
#569 = DIRECTION ( 'NONE',  ( 0.8660254037844388186, 0.000000000000000000, -0.4999999999999996669 ) ) ;
#570 = ORIENTED_EDGE ( 'NONE', *, *, #291, .F. ) ;
#571 = CARTESIAN_POINT ( 'NONE',  ( 0.000000000000000000, 4.000000000000000000, 0.000000000000000000 ) ) ;
#572 = FACE_OUTER_BOUND ( 'NONE', #588, .T. ) ;
#573 = DIRECTION ( 'NONE',  ( 0.000000000000000000, -0.000000000000000000, 1.000000000000000000 ) ) ;
#574 = EDGE_CURVE ( 'NONE', #417, #304, #171, .T. ) ;
#575 = ADVANCED_FACE ( 'NONE', ( #586 ), #381, .T. ) ;
#576 = CARTESIAN_POINT ( 'NONE',  ( 0.5000000000000002220, 5.399999999999998579, -0.8660254037844385966 ) ) ;
#577 = ORIENTED_EDGE ( 'NONE', *, *, #101, .T. ) ;
#578 = FACE_OUTER_BOUND ( 'NONE', #35, .T. ) ;
#579 = DIRECTION ( 'NONE',  ( 0.000000000000000000, 0.000000000000000000, -1.000000000000000000 ) ) ;
#580 = ORIENTED_EDGE ( 'NONE', *, *, #507, .T. ) ;
#581 = DIRECTION ( 'NONE',  ( -0.8660254037844387076, 0.000000000000000000, 0.4999999999999998335 ) ) ;
#582 = VECTOR ( 'NONE', #581, 1000.000000000000114 ) ;
#583 = DIRECTION ( 'NONE',  ( -0.000000000000000000, -1.000000000000000000, -0.000000000000000000 ) ) ;
#584 = ORIENTED_EDGE ( 'NONE', *, *, #172, .F. ) ;
#585 = ADVANCED_FACE ( 'NONE', ( #578 ), #121, .T. ) ;
#586 = FACE_OUTER_BOUND ( 'NONE', #434, .T. ) ;
#587 = CARTESIAN_POINT ( 'NONE',  ( 0.000000000000000000, 5.399999999999998579, 0.000000000000000000 ) ) ;
#588 = EDGE_LOOP ( 'NONE', ( #193, #508, #287, #555, #143 ) ) ;
#589 = CIRCLE ( 'NONE', #299, 1.000000000000000000 ) ;
#590 = FACE_OUTER_BOUND ( 'NONE', #285, .T. ) ;
#591 = ORIENTED_EDGE ( 'NONE', *, *, #80, .T. ) ;
#592 = VECTOR ( 'NONE', #15, 1000.000000000000114 ) ;
#593 = CARTESIAN_POINT ( 'NONE',  ( 0.9999999999999997780, 6.499999999999999112, -0.5773502691896258421 ) ) ;
#594 = ORIENTED_EDGE ( 'NONE', *, *, #339, .F. ) ;
#595 = ADVANCED_FACE ( 'NONE', ( #435 ), #27, .T. ) ;
#596 = DIRECTION ( 'NONE',  ( 0.000000000000000000, -1.000000000000000000, -0.000000000000000000 ) ) ;
#597 = EDGE_CURVE ( 'NONE', #460, #115, #266, .T. ) ;
#598 = EDGE_LOOP ( 'NONE', ( #67, #514, #487, #85 ) ) ;
#599 = DIRECTION ( 'NONE',  ( -0.4999999999999998335, 0.000000000000000000, -0.8660254037844387076 ) ) ;
#600 = ORIENTED_EDGE ( 'NONE', *, *, #527, .F. ) ;
#601 = AXIS2_PLACEMENT_3D ( 'NONE', #249, #399, #139 ) ;
#602 = SURFACE_STYLE_FILL_AREA ( #546 ) ;
#603 = VERTEX_POINT ( 'NONE', #628 ) ;
#604 = LINE ( 'NONE', #351, #619 ) ;
#605 = EDGE_LOOP ( 'NONE', ( #545, #387, #252, #656, #446 ) ) ;
#606 = EDGE_CURVE ( 'NONE', #95, #646, #440, .T. ) ;
#607 = CARTESIAN_POINT ( 'NONE',  ( -1.000000000000000000, 5.399999999999998579, -0.5773502691896259531 ) ) ;
#608 = CARTESIAN_POINT ( 'NONE',  ( -1.000000000000000000, 6.499999999999999112, -0.5773502691896259531 ) ) ;
#609 = DIRECTION ( 'NONE',  ( -0.000000000000000000, -1.000000000000000000, -0.000000000000000000 ) ) ;
#610 = AXIS2_PLACEMENT_3D ( 'NONE', #323, #551, #648 ) ;
#611 = DIRECTION ( 'NONE',  ( -0.5000000000000001110, 0.000000000000000000, 0.8660254037844385966 ) ) ;
#612 = VERTEX_POINT ( 'NONE', #474 ) ;
#613 = AXIS2_PLACEMENT_3D ( 'NONE', #561, #209, #58 ) ;
#614 = DIRECTION ( 'NONE',  ( 0.000000000000000000, 0.000000000000000000, -1.000000000000000000 ) ) ;
#615 = CARTESIAN_POINT ( 'NONE',  ( 0.9999999999999997780, 5.399999999999998579, 0.5773502691896263972 ) ) ;
#616 = DIRECTION ( 'NONE',  ( -0.000000000000000000, -1.000000000000000000, -0.000000000000000000 ) ) ;
#617 = CIRCLE ( 'NONE', #20, 1.000000000000000000 ) ;
#618 = CARTESIAN_POINT ( 'NONE',  ( 2.755455298081546750E-16, 6.299999999999999822, 2.250000000000001776 ) ) ;
#619 = VECTOR ( 'NONE', #500, 1000.000000000000227 ) ;
#620 = CARTESIAN_POINT ( 'NONE',  ( 8.370298119817764338E-18, 5.399999999999998579, 1.154700538379251684 ) ) ;
#621 = EDGE_CURVE ( 'NONE', #42, #496, #168, .T. ) ;
#622 = ADVANCED_FACE ( 'NONE', ( #125 ), #274, .T. ) ;
#623 = CARTESIAN_POINT ( 'NONE',  ( 0.000000000000000000, 3.061616997868357133E-17, -1.250000000000000444 ) ) ;
#624 = CARTESIAN_POINT ( 'NONE',  ( 1.259420702368994198E-16, 6.499999999999999112, -1.154700538379251684 ) ) ;
#625 = DIRECTION ( 'NONE',  ( -0.8660254037844384856, 0.000000000000000000, -0.5000000000000002220 ) ) ;
#626 = CARTESIAN_POINT ( 'NONE',  ( 0.000000000000000000, 0.000000000000000000, -1.250000000000001554 ) ) ;
#627 = EDGE_LOOP ( 'NONE', ( #104, #311, #237, #179, #272, #594 ) ) ;
#628 = CARTESIAN_POINT ( 'NONE',  ( 0.000000000000000000, 6.299999999999999822, -2.250000000000001776 ) ) ;
#629 = VECTOR ( 'NONE', #502, 1000.000000000000000 ) ;
#630 = CARTESIAN_POINT ( 'NONE',  ( 0.000000000000000000, 3.061616997868357133E-17, 0.000000000000000000 ) ) ;
#631 = EDGE_CURVE ( 'NONE', #239, #170, #539, .T. ) ;
#632 = VERTEX_POINT ( 'NONE', #177 ) ;
#633 = DIRECTION ( 'NONE',  ( -0.000000000000000000, 1.000000000000000000, -0.000000000000000000 ) ) ;
#634 = VECTOR ( 'NONE', #637, 1000.000000000000000 ) ;
#635 = CARTESIAN_POINT ( 'NONE',  ( 0.9999999999999997780, 5.399999999999998579, -0.5773502691896258421 ) ) ;
#636 = VERTEX_POINT ( 'NONE', #313 ) ;
#637 = DIRECTION ( 'NONE',  ( -0.8660254037844384856, 0.000000000000000000, -0.5000000000000002220 ) ) ;
#638 = DIRECTION ( 'NONE',  ( -0.000000000000000000, -1.000000000000000000, -0.000000000000000000 ) ) ;
#639 = ORIENTED_EDGE ( 'NONE', *, *, #631, .F. ) ;
#640 = CARTESIAN_POINT ( 'NONE',  ( 1.530808498934192557E-16, 3.061616997868357133E-17, 1.250000000000000444 ) ) ;
#641 = ORIENTED_EDGE ( 'NONE', *, *, #372, .F. ) ;
#642 = AXIS2_PLACEMENT_3D ( 'NONE', #185, #583, #78 ) ;
#643 = EDGE_CURVE ( 'NONE', #127, #460, #521, .T. ) ;
#644 = ADVANCED_FACE ( 'NONE', ( #327 ), #10, .F. ) ;
#645 = SURFACE_SIDE_STYLE ('',( #602 ) ) ;
#646 = VERTEX_POINT ( 'NONE', #431 ) ;
#647 = AXIS2_PLACEMENT_3D ( 'NONE', #354, #424, #164 ) ;
#648 = DIRECTION ( 'NONE',  ( -1.224646799147353700E-16, 0.000000000000000000, -1.000000000000000000 ) ) ;
#649 = ORIENTED_EDGE ( 'NONE', *, *, #236, .T. ) ;
#650 = AXIS2_PLACEMENT_3D ( 'NONE', #56, #254, #152 ) ;
#651 = DIRECTION ( 'NONE',  ( -0.000000000000000000, 1.000000000000000000, 0.000000000000000000 ) ) ;
#652 = VERTEX_POINT ( 'NONE', #623 ) ;
#653 = EDGE_CURVE ( 'NONE', #239, #410, #524, .T. ) ;
#654 = AXIS2_PLACEMENT_3D ( 'NONE', #411, #109, #207 ) ;
#655 = CARTESIAN_POINT ( 'NONE',  ( 1.250000000000000444, 1.530808498934178567E-17, 0.000000000000000000 ) ) ;
#656 = ORIENTED_EDGE ( 'NONE', *, *, #80, .F. ) ;
#657 =( NAMED_UNIT ( * ) PLANE_ANGLE_UNIT ( ) SI_UNIT ( $, .RADIAN. ) );
#658 = ORIENTED_EDGE ( 'NONE', *, *, #53, .F. ) ;
#659 = APPLICATION_CONTEXT ( 'automotive_design' ) ;
ENDSEC;
END-ISO-10303-21;
