ISO-10303-21;
HEADER;
FILE_DESCRIPTION (( 'STEP AP214' ),
    '1' );
FILE_NAME ('DIN912 - M6X10.STEP',
    '2023-12-01T09:35:19',
    ( '' ),
    ( '' ),
    'SwSTEP 2.0',
    'SolidWorks 2023',
    '' );
FILE_SCHEMA (( 'AUTOMOTIVE_DESIGN' ));
ENDSEC;

DATA;
#1 = FACE_OUTER_BOUND ( 'NONE', #284, .T. ) ;
#2 = EDGE_CURVE ( 'NONE', #293, #318, #73, .T. ) ;
#3 = DIRECTION ( 'NONE',  ( 3.297233936995233371E-18, -1.000000000000000000, -0.000000000000000000 ) ) ;
#4 = AXIS2_PLACEMENT_3D ( 'NONE', #301, #168, #441 ) ;
#5 = CARTESIAN_POINT ( 'NONE',  ( 2.499999999999999112, 13.00000000000000178, 1.443375672974066326 ) ) ;
#6 = DIRECTION ( 'NONE',  ( 1.000000000000000000, 0.000000000000000000, 0.000000000000000000 ) ) ;
#7 = PLANE ( 'NONE',  #340 ) ;
#8 = DIRECTION ( 'NONE',  ( -1.000000000000000000, -3.297233936995233371E-18, 0.000000000000000000 ) ) ;
#9 = DIRECTION ( 'NONE',  ( -3.297233936995233371E-18, 1.000000000000000000, 0.000000000000000000 ) ) ;
#10 = VERTEX_POINT ( 'NONE', #326 ) ;
#11 = VECTOR ( 'NONE', #22, 1000.000000000000000 ) ;
#12 = ORIENTED_EDGE ( 'NONE', *, *, #77, .F. ) ;
#13 = DIRECTION ( 'NONE',  ( 1.000000000000000000, 3.297233936995233371E-18, 0.000000000000000000 ) ) ;
#14 = CARTESIAN_POINT ( 'NONE',  ( 2.500000000000000000, 16.00000000000000000, 0.000000000000000000 ) ) ;
#15 = ADVANCED_FACE ( 'NONE', ( #356 ), #175, .T. ) ;
#16 = DIRECTION ( 'NONE',  ( -0.000000000000000000, 1.000000000000000000, 0.000000000000000000 ) ) ;
#17 = DIRECTION ( 'NONE',  ( 0.000000000000000000, -0.000000000000000000, 1.000000000000000000 ) ) ;
#18 = FACE_OUTER_BOUND ( 'NONE', #287, .T. ) ;
#19 = ADVANCED_FACE ( 'NONE', ( #532 ), #529, .T. ) ;
#20 = CARTESIAN_POINT ( 'NONE',  ( -4.956376268149975009E-16, 13.00000000000000178, 2.886751345948129543 ) ) ;
#21 = ORIENTED_EDGE ( 'NONE', *, *, #440, .T. ) ;
#22 = DIRECTION ( 'NONE',  ( 0.000000000000000000, 0.000000000000000000, 1.000000000000000000 ) ) ;
#23 = DIRECTION ( 'NONE',  ( -0.000000000000000000, 1.000000000000000000, 0.000000000000000000 ) ) ;
#24 = EDGE_LOOP ( 'NONE', ( #338, #537, #584, #469, #273 ) ) ;
#25 =( GEOMETRIC_REPRESENTATION_CONTEXT ( 3 ) GLOBAL_UNCERTAINTY_ASSIGNED_CONTEXT ( ( #419 ) ) GLOBAL_UNIT_ASSIGNED_CONTEXT ( ( #442, #587, #210 ) ) REPRESENTATION_CONTEXT ( 'NONE', 'WORKASPACE' ) );
#26 = TOROIDAL_SURFACE ( 'NONE', #466, 4.800000000000000711, 0.1999999999999992339 ) ;
#27 = DIRECTION ( 'NONE',  ( -0.8660254037844387076, 0.000000000000000000, 0.4999999999999998890 ) ) ;
#28 = EDGE_LOOP ( 'NONE', ( #280, #212, #217, #398 ) ) ;
#29 = ORIENTED_EDGE ( 'NONE', *, *, #278, .F. ) ;
#30 = ADVANCED_FACE ( 'NONE', ( #250, #45 ), #281, .T. ) ;
#31 = CARTESIAN_POINT ( 'NONE',  ( -3.810489392817463788E-17, 11.55662432702594344, 0.000000000000000000 ) ) ;
#32 = EDGE_CURVE ( 'NONE', #109, #566, #433, .T. ) ;
#33 = EDGE_LOOP ( 'NONE', ( #224, #166, #513, #580, #300, #157 ) ) ;
#34 = DIRECTION ( 'NONE',  ( 0.8660254037844397068, 0.4999999999999979461, 1.060575238724908147E-16 ) ) ;
#35 = DIRECTION ( 'NONE',  ( 0.8660254037844388186, 0.000000000000000000, -0.4999999999999997780 ) ) ;
#36 = VERTEX_POINT ( 'NONE', #244 ) ;
#37 = DIRECTION ( 'NONE',  ( 1.000000000000000000, 3.297233936995232986E-18, 0.000000000000000000 ) ) ;
#38 = STYLED_ITEM ( 'NONE', ( #449 ), #632 ) ;
#39 = LINE ( 'NONE', #245, #501 ) ;
#40 = ORIENTED_EDGE ( 'NONE', *, *, #608, .T. ) ;
#41 = PLANE ( 'NONE',  #108 ) ;
#42 = EDGE_CURVE ( 'NONE', #424, #128, #380, .T. ) ;
#43 = CARTESIAN_POINT ( 'NONE',  ( -3.297233936995233217E-17, 10.00000000000000000, 0.000000000000000000 ) ) ;
#44 = ORIENTED_EDGE ( 'NONE', *, *, #381, .T. ) ;
#45 = FACE_BOUND ( 'NONE', #123, .T. ) ;
#46 = LINE ( 'NONE', #530, #171 ) ;
#47 = FACE_OUTER_BOUND ( 'NONE', #238, .T. ) ;
#48 = DIRECTION ( 'NONE',  ( 1.502314598737157799E-16, 0.000000000000000000, -1.000000000000000000 ) ) ;
#49 = CARTESIAN_POINT ( 'NONE',  ( -2.500000000000000444, 16.00000000000000000, 1.443375672974064772 ) ) ;
#50 = VECTOR ( 'NONE', #154, 1000.000000000000000 ) ;
#51 = CIRCLE ( 'NONE', #62, 0.1999999999999987899 ) ;
#52 = PRODUCT_DEFINITION ( 'UNKNOWN', '', #68, #570 ) ;
#53 = LINE ( 'NONE', #299, #511 ) ;
#54 = ORIENTED_EDGE ( 'NONE', *, *, #101, .F. ) ;
#55 = DIRECTION ( 'NONE',  ( 3.297233936995233371E-18, -1.000000000000000000, -0.000000000000000000 ) ) ;
#56 = CARTESIAN_POINT ( 'NONE',  ( 2.499999999999999112, 13.00000000000000178, 1.443375672974066326 ) ) ;
#57 = VERTEX_POINT ( 'NONE', #96 ) ;
#58 = APPLICATION_PROTOCOL_DEFINITION ( 'draft international standard', 'automotive_design', 1998, #547 ) ;
#59 = CARTESIAN_POINT ( 'NONE',  ( -3.000000000000000888, -9.891701810985702424E-18, 3.673940397442060854E-16 ) ) ;
#60 = VECTOR ( 'NONE', #146, 1000.000000000000114 ) ;
#61 = EDGE_CURVE ( 'NONE', #127, #424, #339, .T. ) ;
#62 = AXIS2_PLACEMENT_3D ( 'NONE', #358, #308, #258 ) ;
#63 = LINE ( 'NONE', #604, #329 ) ;
#64 = VERTEX_POINT ( 'NONE', #291 ) ;
#65 = CARTESIAN_POINT ( 'NONE',  ( 0.000000000000000000, 13.00000000000000178, 0.000000000000000000 ) ) ;
#66 = ADVANCED_FACE ( 'NONE', ( #294 ), #487, .T. ) ;
#67 = LINE ( 'NONE', #417, #11 ) ;
#68 = PRODUCT_DEFINITION_FORMATION_WITH_SPECIFIED_SOURCE ( 'ANY', '', #363, .NOT_KNOWN. ) ;
#69 = LINE ( 'NONE', #20, #409 ) ;
#70 = ORIENTED_EDGE ( 'NONE', *, *, #186, .F. ) ;
#71 = ORIENTED_EDGE ( 'NONE', *, *, #32, .T. ) ;
#72 = DIRECTION ( 'NONE',  ( 0.8660254037844388186, 0.000000000000000000, -0.4999999999999997780 ) ) ;
#73 = LINE ( 'NONE', #401, #78 ) ;
#74 = CARTESIAN_POINT ( 'NONE',  ( 1.438083753007605768E-16, 13.00000000000000178, -2.886751345948130432 ) ) ;
#75 = AXIS2_PLACEMENT_3D ( 'NONE', #133, #485, #84 ) ;
#76 = VERTEX_POINT ( 'NONE', #288 ) ;
#77 = EDGE_CURVE ( 'NONE', #421, #318, #234, .T. ) ;
#78 = VECTOR ( 'NONE', #610, 1000.000000000000000 ) ;
#79 = CIRCLE ( 'NONE', #437, 3.000000000000000000 ) ;
#80 = CARTESIAN_POINT ( 'NONE',  ( -4.956376268149975009E-16, 13.00000000000000178, 2.886751345948129543 ) ) ;
#81 = ORIENTED_EDGE ( 'NONE', *, *, #236, .T. ) ;
#82 = ORIENTED_EDGE ( 'NONE', *, *, #473, .F. ) ;
#83 = EDGE_CURVE ( 'NONE', #57, #486, #585, .T. ) ;
#84 = DIRECTION ( 'NONE',  ( 0.8660254037844387076, 0.000000000000000000, -0.4999999999999997780 ) ) ;
#85 = ORIENTED_EDGE ( 'NONE', *, *, #199, .F. ) ;
#86 = DIRECTION ( 'NONE',  ( 3.297233936995233371E-18, -1.000000000000000000, -0.000000000000000000 ) ) ;
#87 = LINE ( 'NONE', #476, #150 ) ;
#88 = ADVANCED_FACE ( 'NONE', ( #344 ), #41, .T. ) ;
#89 = EDGE_LOOP ( 'NONE', ( #594, #194, #82, #467, #370 ) ) ;
#90 = CARTESIAN_POINT ( 'NONE',  ( -2.500000000000000444, 13.00000000000000178, 1.443375672974064772 ) ) ;
#91 = AXIS2_PLACEMENT_3D ( 'NONE', #503, #55, #496 ) ;
#92 = AXIS2_PLACEMENT_3D ( 'NONE', #335, #425, #639 ) ;
#93 = DIRECTION ( 'NONE',  ( -1.000000000000000000, 0.000000000000000000, 0.000000000000000000 ) ) ;
#94 = AXIS2_PLACEMENT_3D ( 'NONE', #458, #515, #125 ) ;
#95 = EDGE_LOOP ( 'NONE', ( #275, #40, #518 ) ) ;
#96 = CARTESIAN_POINT ( 'NONE',  ( 3.000000000000000000, 10.00000000000000000, 0.000000000000000000 ) ) ;
#97 = ADVANCED_FACE ( 'NONE', ( #47 ), #100, .T. ) ;
#98 = LINE ( 'NONE', #330, #362 ) ;
#99 = VERTEX_POINT ( 'NONE', #206 ) ;
#100 = CYLINDRICAL_SURFACE ( 'NONE', #276, 3.000000000000000888 ) ;
#101 = EDGE_CURVE ( 'NONE', #500, #64, #253, .T. ) ;
#102 = SURFACE_STYLE_FILL_AREA ( #352 ) ;
#103 = LINE ( 'NONE', #219, #407 ) ;
#104 = VERTEX_POINT ( 'NONE', #526 ) ;
#105 = EDGE_CURVE ( 'NONE', #64, #557, #317, .T. ) ;
#106 = LINE ( 'NONE', #541, #233 ) ;
#107 = DIRECTION ( 'NONE',  ( 0.5000000000000001110, 0.000000000000000000, -0.8660254037844387076 ) ) ;
#108 = AXIS2_PLACEMENT_3D ( 'NONE', #470, #393, #285 ) ;
#109 = VERTEX_POINT ( 'NONE', #195 ) ;
#110 = DIRECTION ( 'NONE',  ( 3.297233936995233371E-18, -1.000000000000000000, -0.000000000000000000 ) ) ;
#111 = DIRECTION ( 'NONE',  ( 1.000000000000000000, 0.000000000000000000, 0.000000000000000000 ) ) ;
#112 = DIRECTION ( 'NONE',  ( 1.502314598737157799E-16, 0.000000000000000000, -1.000000000000000000 ) ) ;
#113 = EDGE_LOOP ( 'NONE', ( #131, #522, #631 ) ) ;
#114 = CARTESIAN_POINT ( 'NONE',  ( -2.500000000000000444, 13.00000000000000178, 1.443375672974064772 ) ) ;
#115 = ORIENTED_EDGE ( 'NONE', *, *, #117, .F. ) ;
#116 = VECTOR ( 'NONE', #593, 1000.000000000000114 ) ;
#117 = EDGE_CURVE ( 'NONE', #557, #127, #390, .T. ) ;
#118 = AXIS2_PLACEMENT_3D ( 'NONE', #612, #176, #365 ) ;
#119 = DIRECTION ( 'NONE',  ( -0.5000000000000001110, 0.000000000000000000, 0.8660254037844385966 ) ) ;
#120 = VERTEX_POINT ( 'NONE', #247 ) ;
#121 = FACE_OUTER_BOUND ( 'NONE', #577, .T. ) ;
#122 = CARTESIAN_POINT ( 'NONE',  ( 1.438083753007605768E-16, 13.00000000000000178, -2.886751345948130432 ) ) ;
#123 = EDGE_LOOP ( 'NONE', ( #638, #324 ) ) ;
#124 = AXIS2_PLACEMENT_3D ( 'NONE', #423, #626, #190 ) ;
#125 = DIRECTION ( 'NONE',  ( 1.000000000000000000, 0.000000000000000000, 0.000000000000000000 ) ) ;
#126 = EDGE_CURVE ( 'NONE', #477, #76, #480, .T. ) ;
#127 = VERTEX_POINT ( 'NONE', #635 ) ;
#128 = VERTEX_POINT ( 'NONE', #581 ) ;
#129 = VERTEX_POINT ( 'NONE', #49 ) ;
#130 = CARTESIAN_POINT ( 'NONE',  ( -3.297233936995233217E-17, 10.00000000000000000, 0.000000000000000000 ) ) ;
#131 = ORIENTED_EDGE ( 'NONE', *, *, #328, .T. ) ;
#132 = EDGE_CURVE ( 'NONE', #120, #76, #596, .T. ) ;
#133 = CARTESIAN_POINT ( 'NONE',  ( -4.956376268149975009E-16, 13.00000000000000178, 2.886751345948129543 ) ) ;
#134 = ORIENTED_EDGE ( 'NONE', *, *, #422, .F. ) ;
#135 = EDGE_LOOP ( 'NONE', ( #331, #183, #621, #189, #418 ) ) ;
#136 = ORIENTED_EDGE ( 'NONE', *, *, #305, .T. ) ;
#137 = EDGE_CURVE ( 'NONE', #64, #185, #450, .T. ) ;
#138 = CIRCLE ( 'NONE', #492, 2.500000000000000000 ) ;
#139 = VECTOR ( 'NONE', #272, 1000.000000000000000 ) ;
#140 = PLANE ( 'NONE',  #75 ) ;
#141 = ORIENTED_EDGE ( 'NONE', *, *, #199, .T. ) ;
#142 = DIRECTION ( 'NONE',  ( 1.000000000000000000, 0.000000000000000000, 0.000000000000000000 ) ) ;
#143 = EDGE_CURVE ( 'NONE', #559, #36, #53, .T. ) ;
#144 = DIRECTION ( 'NONE',  ( 3.297233936995233371E-18, -1.000000000000000000, -0.000000000000000000 ) ) ;
#145 = EDGE_LOOP ( 'NONE', ( #271, #70, #134, #629, #136 ) ) ;
#146 = DIRECTION ( 'NONE',  ( -0.8660254037844387076, -2.855488351658051508E-18, 0.4999999999999998890 ) ) ;
#147 = DIRECTION ( 'NONE',  ( 3.297233936995233371E-18, -1.000000000000000000, -0.000000000000000000 ) ) ;
#148 = ORIENTED_EDGE ( 'NONE', *, *, #508, .F. ) ;
#149 = DIRECTION ( 'NONE',  ( 1.000000000000000000, 3.297233936995233371E-18, 0.000000000000000000 ) ) ;
#150 = VECTOR ( 'NONE', #151, 1000.000000000000000 ) ;
#151 = DIRECTION ( 'NONE',  ( 1.502314598737157799E-16, 4.953482678999533085E-34, -1.000000000000000000 ) ) ;
#152 = VECTOR ( 'NONE', #311, 1000.000000000000114 ) ;
#153 = VERTEX_POINT ( 'NONE', #114 ) ;
#155 = EDGE_CURVE ( 'NONE', #104, #99, #361, .T. ) ;
#154 = DIRECTION ( 'NONE',  ( 3.297233936995233371E-18, -1.000000000000000000, -0.000000000000000000 ) ) ;
#156 = CARTESIAN_POINT ( 'NONE',  ( -4.956376268149975009E-16, 13.00000000000000178, 2.886751345948129543 ) ) ;
#157 = ORIENTED_EDGE ( 'NONE', *, *, #381, .F. ) ;
#158 = ADVANCED_FACE ( 'NONE', ( #497 ), #263, .F. ) ;
#159 = DIRECTION ( 'NONE',  ( 1.000000000000000000, 3.297233936995233756E-18, 0.000000000000000000 ) ) ;
#160 = FACE_OUTER_BOUND ( 'NONE', #246, .T. ) ;
#161 = ORIENTED_EDGE ( 'NONE', *, *, #310, .T. ) ;
#162 = CARTESIAN_POINT ( 'NONE',  ( 2.499999999999999556, 13.00000000000000178, -1.443375672974066104 ) ) ;
#163 = CARTESIAN_POINT ( 'NONE',  ( -1.692820944432426581E-34, 5.134063814638196564E-17, 0.000000000000000000 ) ) ;
#164 = CARTESIAN_POINT ( 'NONE',  ( 2.499999999999999556, 13.00000000000000178, -1.443375672974066104 ) ) ;
#165 = LINE ( 'NONE', #164, #225 ) ;
#166 = ORIENTED_EDGE ( 'NONE', *, *, #519, .F. ) ;
#167 = VECTOR ( 'NONE', #35, 1000.000000000000114 ) ;
#168 = DIRECTION ( 'NONE',  ( -3.297233936995233371E-18, 1.000000000000000000, 0.000000000000000000 ) ) ;
#169 = ORIENTED_EDGE ( 'NONE', *, *, #627, .T. ) ;
#170 = VECTOR ( 'NONE', #34, 1000.000000000000114 ) ;
#171 = VECTOR ( 'NONE', #420, 1000.000000000000000 ) ;
#172 = PLANE ( 'NONE',  #309 ) ;
#173 = PRODUCT_RELATED_PRODUCT_CATEGORY ( 'part', '', ( #363 ) ) ;
#174 = CARTESIAN_POINT ( 'NONE',  ( 2.499999999999999556, 13.00000000000000178, -1.443375672974066104 ) ) ;
#175 = PLANE ( 'NONE',  #616 ) ;
#176 = DIRECTION ( 'NONE',  ( 3.297233936995233371E-18, -1.000000000000000000, -0.000000000000000000 ) ) ;
#177 = CARTESIAN_POINT ( 'NONE',  ( 0.000000000000000000, 13.00000000000000178, 0.000000000000000000 ) ) ;
#178 = AXIS2_PLACEMENT_3D ( 'NONE', #549, #107, #303 ) ;
#179 = AXIS2_PLACEMENT_3D ( 'NONE', #130, #231, #452 ) ;
#180 = ADVANCED_FACE ( 'NONE', ( #295, #259 ), #353, .T. ) ;
#181 = DIRECTION ( 'NONE',  ( 3.297233936995233371E-18, -1.000000000000000000, -0.000000000000000000 ) ) ;
#182 = ORIENTED_EDGE ( 'NONE', *, *, #101, .T. ) ;
#183 = ORIENTED_EDGE ( 'NONE', *, *, #305, .F. ) ;
#184 = DIRECTION ( 'NONE',  ( 0.000000000000000000, -0.000000000000000000, 1.000000000000000000 ) ) ;
#185 = VERTEX_POINT ( 'NONE', #162 ) ;
#186 = EDGE_CURVE ( 'NONE', #120, #109, #404, .T. ) ;
#187 = UNCERTAINTY_MEASURE_WITH_UNIT (LENGTH_MEASURE( 1.000000000000000082E-05 ), #208, 'distance_accuracy_value', 'NONE');
#188 = CARTESIAN_POINT ( 'NONE',  ( -2.500000000000000444, 16.00000000000000000, -1.443375672974066104 ) ) ;
#189 = ORIENTED_EDGE ( 'NONE', *, *, #608, .F. ) ;
#190 = DIRECTION ( 'NONE',  ( 1.000000000000000000, 0.000000000000000000, 0.000000000000000000 ) ) ;
#191 = COLOUR_RGB ( '',0.7921568627450980005, 0.8196078431372548767, 0.9333333333333333481 ) ;
#192 = AXIS2_PLACEMENT_3D ( 'NONE', #377, #575, #142 ) ;
#193 = DIRECTION ( 'NONE',  ( 0.8660254037844388186, 2.855488351658051893E-18, -0.4999999999999998335 ) ) ;
#194 = ORIENTED_EDGE ( 'NONE', *, *, #143, .F. ) ;
#195 = CARTESIAN_POINT ( 'NONE',  ( 1.438083753007605768E-16, 16.00000000000000000, -2.886751345948130432 ) ) ;
#196 = CARTESIAN_POINT ( 'NONE',  ( -2.500000000000000444, 13.00000000000000178, -1.443375672974066104 ) ) ;
#197 = ORIENTED_EDGE ( 'NONE', *, *, #426, .T. ) ;
#198 = CARTESIAN_POINT ( 'NONE',  ( 0.000000000000000000, 0.000000000000000000, 0.000000000000000000 ) ) ;
#199 = EDGE_CURVE ( 'NONE', #249, #290, #562, .T. ) ;
#200 = DIRECTION ( 'NONE',  ( 0.000000000000000000, 0.000000000000000000, -1.000000000000000000 ) ) ;
#201 = AXIS2_PLACEMENT_3D ( 'NONE', #252, #378, #93 ) ;
#202 = DIRECTION ( 'NONE',  ( -0.000000000000000000, 1.000000000000000000, -0.000000000000000000 ) ) ;
#203 = VECTOR ( 'NONE', #445, 1000.000000000000000 ) ;
#204 = DIRECTION ( 'NONE',  ( -1.000000000000000000, 0.000000000000000000, 0.000000000000000000 ) ) ;
#205 = AXIS2_PLACEMENT_3D ( 'NONE', #211, #110, #406 ) ;
#206 = CARTESIAN_POINT ( 'NONE',  ( -3.000000000000001776, 4.144893633539625859E-17, 3.673940397442061840E-16 ) ) ;
#207 = VECTOR ( 'NONE', #572, 999.9999999999998863 ) ;
#208 =( LENGTH_UNIT ( ) NAMED_UNIT ( * ) SI_UNIT ( .MILLI., .METRE. ) );
#209 = DIRECTION ( 'NONE',  ( 0.000000000000000000, -0.000000000000000000, 1.000000000000000000 ) ) ;
#210 =( NAMED_UNIT ( * ) SI_UNIT ( $, .STERADIAN. ) SOLID_ANGLE_UNIT ( ) );
#211 = CARTESIAN_POINT ( 'NONE',  ( -1.692820944432426581E-34, 5.134063814638196564E-17, 0.000000000000000000 ) ) ;
#212 = ORIENTED_EDGE ( 'NONE', *, *, #155, .T. ) ;
#213 = FILL_AREA_STYLE_COLOUR ( '', #191 ) ;
#214 = AXIS2_PLACEMENT_3D ( 'NONE', #633, #438, #13 ) ;
#215 = CARTESIAN_POINT ( 'NONE',  ( -5.275574299192373393E-17, 16.00000000000000000, 0.000000000000000000 ) ) ;
#216 = VECTOR ( 'NONE', #546, 1000.000000000000000 ) ;
#217 = ORIENTED_EDGE ( 'NONE', *, *, #266, .F. ) ;
#218 =( NAMED_UNIT ( * ) SI_UNIT ( $, .STERADIAN. ) SOLID_ANGLE_UNIT ( ) );
#219 = CARTESIAN_POINT ( 'NONE',  ( -2.500000000000000444, 13.00000000000000178, 1.443375672974064772 ) ) ;
#220 = ORIENTED_EDGE ( 'NONE', *, *, #328, .F. ) ;
#221 = DIRECTION ( 'NONE',  ( -0.000000000000000000, 1.000000000000000000, -0.000000000000000000 ) ) ;
#223 = ADVANCED_FACE ( 'NONE', ( #551 ), #265, .T. ) ;
#222 = CARTESIAN_POINT ( 'NONE',  ( -4.286404118093803921E-17, 13.00000000000000178, 0.000000000000000000 ) ) ;
#224 = ORIENTED_EDGE ( 'NONE', *, *, #32, .F. ) ;
#225 = VECTOR ( 'NONE', #355, 999.9999999999998863 ) ;
#226 = VECTOR ( 'NONE', #558, 1000.000000000000114 ) ;
#227 = CARTESIAN_POINT ( 'NONE',  ( 0.000000000000000000, 13.00000000000000178, 0.000000000000000000 ) ) ;
#228 = DIRECTION ( 'NONE',  ( 3.297233936995233371E-18, -1.000000000000000000, -0.000000000000000000 ) ) ;
#229 = ORIENTED_EDGE ( 'NONE', *, *, #137, .T. ) ;
#230 = EDGE_CURVE ( 'NONE', #153, #129, #103, .T. ) ;
#231 = DIRECTION ( 'NONE',  ( 3.297233936995233371E-18, -1.000000000000000000, -0.000000000000000000 ) ) ;
#232 = ORIENTED_EDGE ( 'NONE', *, *, #414, .T. ) ;
#233 = VECTOR ( 'NONE', #548, 1000.000000000000000 ) ;
#234 = CIRCLE ( 'NONE', #464, 5.000000000000000888 ) ;
#235 = CIRCLE ( 'NONE', #586, 2.500000000000000000 ) ;
#236 = EDGE_CURVE ( 'NONE', #10, #64, #138, .T. ) ;
#237 = CARTESIAN_POINT ( 'NONE',  ( 0.000000000000000000, 0.000000000000000000, 0.000000000000000000 ) ) ;
#238 = EDGE_LOOP ( 'NONE', ( #597, #197, #531, #564 ) ) ;
#239 = CARTESIAN_POINT ( 'NONE',  ( 5.000000000000000888, 10.00000000000000000, 0.000000000000000000 ) ) ;
#240 = EDGE_CURVE ( 'NONE', #185, #10, #165, .T. ) ;
#241 = ORIENTED_EDGE ( 'NONE', *, *, #266, .T. ) ;
#242 = CARTESIAN_POINT ( 'NONE',  ( 3.000000000000000888, 9.891701810985702424E-18, 0.000000000000000000 ) ) ;
#243 = LINE ( 'NONE', #472, #385 ) ;
#244 = CARTESIAN_POINT ( 'NONE',  ( 2.499999999999999112, 16.00000000000000000, 1.443375672974066326 ) ) ;
#245 = CARTESIAN_POINT ( 'NONE',  ( -2.500000000000000444, 13.00000000000000178, 1.443375672974064772 ) ) ;
#246 = EDGE_LOOP ( 'NONE', ( #598, #141, #542, #296 ) ) ;
#247 = CARTESIAN_POINT ( 'NONE',  ( 1.438083753007605768E-16, 13.00000000000000178, -2.886751345948130432 ) ) ;
#248 = DIRECTION ( 'NONE',  ( 3.297233936995233371E-18, -1.000000000000000000, -0.000000000000000000 ) ) ;
#249 = VERTEX_POINT ( 'NONE', #490 ) ;
#250 = FACE_OUTER_BOUND ( 'NONE', #471, .T. ) ;
#251 = EDGE_CURVE ( 'NONE', #249, #293, #51, .T. ) ;
#252 = CARTESIAN_POINT ( 'NONE',  ( -4.286404118093803921E-17, 13.00000000000000178, 0.000000000000000000 ) ) ;
#253 = LINE ( 'NONE', #539, #170 ) ;
#254 =( NAMED_UNIT ( * ) PLANE_ANGLE_UNIT ( ) SI_UNIT ( $, .RADIAN. ) );
#255 = AXIS2_PLACEMENT_3D ( 'NONE', #618, #181, #371 ) ;
#256 = DIRECTION ( 'NONE',  ( 3.297233936995233371E-18, -1.000000000000000000, -0.000000000000000000 ) ) ;
#257 = DIRECTION ( 'NONE',  ( -0.000000000000000000, 1.000000000000000000, 0.000000000000000000 ) ) ;
#258 = DIRECTION ( 'NONE',  ( 1.000000000000000000, 0.000000000000000000, -1.224646799147353947E-16 ) ) ;
#259 = FACE_OUTER_BOUND ( 'NONE', #368, .T. ) ;
#260 = ORIENTED_EDGE ( 'NONE', *, *, #105, .F. ) ;
#261 = LINE ( 'NONE', #5, #571 ) ;
#262 = AXIS2_PLACEMENT_3D ( 'NONE', #451, #16, #209 ) ;
#263 = PLANE ( 'NONE',  #178 ) ;
#264 = AXIS2_PLACEMENT_3D ( 'NONE', #65, #509, #17 ) ;
#265 = PLANE ( 'NONE',  #262 ) ;
#266 = EDGE_CURVE ( 'NONE', #486, #99, #391, .T. ) ;
#267 = PLANE ( 'NONE',  #502 ) ;
#268 = DIRECTION ( 'NONE',  ( 3.297233936995233371E-18, -1.000000000000000000, -0.000000000000000000 ) ) ;
#269 = ORIENTED_EDGE ( 'NONE', *, *, #555, .T. ) ;
#270 = CARTESIAN_POINT ( 'NONE',  ( 2.499999999999999556, 16.00000000000000000, -1.443375672974066104 ) ) ;
#271 = ORIENTED_EDGE ( 'NONE', *, *, #519, .T. ) ;
#272 = DIRECTION ( 'NONE',  ( -0.000000000000000000, 1.000000000000000000, -0.000000000000000000 ) ) ;
#273 = ORIENTED_EDGE ( 'NONE', *, *, #230, .T. ) ;
#274 = CARTESIAN_POINT ( 'NONE',  ( -2.500000000000000444, 13.00000000000000178, -1.443375672974066104 ) ) ;
#275 = ORIENTED_EDGE ( 'NONE', *, *, #473, .T. ) ;
#276 = AXIS2_PLACEMENT_3D ( 'NONE', #198, #3, #37 ) ;
#277 = TOROIDAL_SURFACE ( 'NONE', #118, 4.800000000000000711, 0.1999999999999992339 ) ;
#278 = EDGE_CURVE ( 'NONE', #569, #421, #63, .T. ) ;
#279 = CARTESIAN_POINT ( 'NONE',  ( 0.000000000000000000, 15.80000000000000071, 0.000000000000000000 ) ) ;
#280 = ORIENTED_EDGE ( 'NONE', *, *, #394, .T. ) ;
#281 = PLANE ( 'NONE',  #92 ) ;
#282 = DIRECTION ( 'NONE',  ( 0.000000000000000000, 0.000000000000000000, 1.000000000000000000 ) ) ;
#283 = ADVANCED_FACE ( 'NONE', ( #443 ), #341, .F. ) ;
#284 = EDGE_LOOP ( 'NONE', ( #54, #161, #320, #115, #260 ) ) ;
#285 = DIRECTION ( 'NONE',  ( 0.000000000000000000, -0.000000000000000000, 1.000000000000000000 ) ) ;
#286 = DIRECTION ( 'NONE',  ( 1.000000000000000000, 3.297233936995233371E-18, 0.000000000000000000 ) ) ;
#287 = EDGE_LOOP ( 'NONE', ( #169, #525, #432, #148 ) ) ;
#288 = CARTESIAN_POINT ( 'NONE',  ( -1.250000000000000666, 13.00000000000000178, -2.165063509461098601 ) ) ;
#289 = LINE ( 'NONE', #196, #488 ) ;
#290 = VERTEX_POINT ( 'NONE', #396 ) ;
#291 = CARTESIAN_POINT ( 'NONE',  ( 2.499999999999998224, 13.00000000000000178, 3.755786496842891662E-16 ) ) ;
#292 = DIRECTION ( 'NONE',  ( 1.000000000000000000, 0.000000000000000000, 0.000000000000000000 ) ) ;
#293 = VERTEX_POINT ( 'NONE', #591 ) ;
#294 = FACE_OUTER_BOUND ( 'NONE', #634, .T. ) ;
#295 = FACE_BOUND ( 'NONE', #33, .T. ) ;
#296 = ORIENTED_EDGE ( 'NONE', *, *, #555, .F. ) ;
#297 = ADVANCED_FACE ( 'NONE', ( #160 ), #277, .T. ) ;
#298 = SURFACE_SIDE_STYLE ('',( #102 ) ) ;
#299 = CARTESIAN_POINT ( 'NONE',  ( 2.499999999999999112, 13.00000000000000178, 1.443375672974066326 ) ) ;
#300 = ORIENTED_EDGE ( 'NONE', *, *, #439, .F. ) ;
#301 = CARTESIAN_POINT ( 'NONE',  ( -4.286404118093803921E-17, 13.00000000000000178, 0.000000000000000000 ) ) ;
#302 = PRODUCT_CONTEXT ( 'NONE', #514, 'mechanical' ) ;
#303 = DIRECTION ( 'NONE',  ( -0.8660254037844385966, 0.000000000000000000, -0.5000000000000000000 ) ) ;
#304 = ORIENTED_EDGE ( 'NONE', *, *, #440, .F. ) ;
#305 = EDGE_CURVE ( 'NONE', #185, #373, #609, .T. ) ;
#306 = FACE_OUTER_BOUND ( 'NONE', #383, .T. ) ;
#307 = AXIS2_PLACEMENT_3D ( 'NONE', #588, #346, #149 ) ;
#308 = DIRECTION ( 'NONE',  ( 1.224646799147353207E-16, 4.037946986981238536E-34, 1.000000000000000000 ) ) ;
#309 = AXIS2_PLACEMENT_3D ( 'NONE', #512, #563, #553 ) ;
#310 = EDGE_CURVE ( 'NONE', #500, #477, #408, .T. ) ;
#311 = DIRECTION ( 'NONE',  ( -0.8660254037844387076, 0.000000000000000000, 0.4999999999999998890 ) ) ;
#312 = ADVANCED_FACE ( 'NONE', ( #455 ), #267, .T. ) ;
#313 = DIRECTION ( 'NONE',  ( 0.8660254037844385966, 0.000000000000000000, 0.5000000000000001110 ) ) ;
#314 = EDGE_LOOP ( 'NONE', ( #624, #269, #334, #304 ) ) ;
#315 = FACE_OUTER_BOUND ( 'NONE', #135, .T. ) ;
#316 = AXIS2_PLACEMENT_3D ( 'NONE', #354, #498, #111 ) ;
#317 = CIRCLE ( 'NONE', #124, 2.500000000000000000 ) ;
#318 = VERTEX_POINT ( 'NONE', #319 ) ;
#319 = CARTESIAN_POINT ( 'NONE',  ( -5.000000000000000888, 10.00000000000000000, 6.123233995736767268E-16 ) ) ;
#320 = ORIENTED_EDGE ( 'NONE', *, *, #402, .F. ) ;
#321 = PLANE ( 'NONE',  #535 ) ;
#322 = CIRCLE ( 'NONE', #461, 0.1999999999999987899 ) ;
#323 = CARTESIAN_POINT ( 'NONE',  ( -4.956376268149975009E-16, 13.00000000000000178, 2.886751345948129543 ) ) ;
#324 = ORIENTED_EDGE ( 'NONE', *, *, #426, .F. ) ;
#325 = AXIS2_PLACEMENT_3D ( 'NONE', #568, #248, #431 ) ;
#326 = CARTESIAN_POINT ( 'NONE',  ( 1.250000000000000888, 13.00000000000000178, -2.165063509461098157 ) ) ;
#327 = AXIS2_PLACEMENT_3D ( 'NONE', #215, #543, #504 ) ;
#328 = EDGE_CURVE ( 'NONE', #76, #350, #411, .T. ) ;
#329 = VECTOR ( 'NONE', #256, 1000.000000000000000 ) ;
#330 = CARTESIAN_POINT ( 'NONE',  ( 2.499999999999999556, 13.00000000000000178, -1.443375672974066104 ) ) ;
#331 = ORIENTED_EDGE ( 'NONE', *, *, #589, .T. ) ;
#332 = DIRECTION ( 'NONE',  ( 1.000000000000000000, 0.000000000000000000, 0.000000000000000000 ) ) ;
#333 = CARTESIAN_POINT ( 'NONE',  ( 4.999999999999999112, 15.80000000000000071, 0.000000000000000000 ) ) ;
#334 = ORIENTED_EDGE ( 'NONE', *, *, #278, .T. ) ;
#335 = CARTESIAN_POINT ( 'NONE',  ( 5.000000000000000888, 10.00000000000000000, 0.000000000000000000 ) ) ;
#336 = AXIS2_PLACEMENT_3D ( 'NONE', #375, #582, #292 ) ;
#337 = DIRECTION ( 'NONE',  ( -0.8660254037844387076, 0.000000000000000000, -0.5000000000000001110 ) ) ;
#338 = ORIENTED_EDGE ( 'NONE', *, *, #439, .T. ) ;
#339 = LINE ( 'NONE', #90, #399 ) ;
#340 = AXIS2_PLACEMENT_3D ( 'NONE', #348, #204, #403 ) ;
#341 = CONICAL_SURFACE ( 'NONE', #4, 2.500000000000000000, 1.047197551196600074 ) ;
#342 = DIRECTION ( 'NONE',  ( 0.8660254037844385966, 0.000000000000000000, 0.5000000000000001110 ) ) ;
#343 = ORIENTED_EDGE ( 'NONE', *, *, #240, .T. ) ;
#344 = FACE_OUTER_BOUND ( 'NONE', #360, .T. ) ;
#345 = ADVANCED_FACE ( 'NONE', ( #315 ), #172, .F. ) ;
#346 = DIRECTION ( 'NONE',  ( 3.297233936995233371E-18, -1.000000000000000000, -0.000000000000000000 ) ) ;
#347 = EDGE_LOOP ( 'NONE', ( #412, #182, #560, #456, #544 ) ) ;
#348 = CARTESIAN_POINT ( 'NONE',  ( -2.500000000000000444, 13.00000000000000178, -1.443375672974066104 ) ) ;
#349 = CARTESIAN_POINT ( 'NONE',  ( 1.438083753007605768E-16, 13.00000000000000178, -2.886751345948130432 ) ) ;
#350 = VERTEX_POINT ( 'NONE', #274 ) ;
#351 = EDGE_CURVE ( 'NONE', #569, #293, #369, .T. ) ;
#352 = FILL_AREA_STYLE ('',( #213 ) ) ;
#353 = PLANE ( 'NONE',  #521 ) ;
#354 = CARTESIAN_POINT ( 'NONE',  ( 0.000000000000000000, 0.000000000000000000, 0.000000000000000000 ) ) ;
#355 = DIRECTION ( 'NONE',  ( -0.8660254037844387076, 0.000000000000000000, -0.5000000000000001110 ) ) ;
#356 = FACE_OUTER_BOUND ( 'NONE', #387, .T. ) ;
#357 = FACE_OUTER_BOUND ( 'NONE', #113, .T. ) ;
#359 = EDGE_CURVE ( 'NONE', #424, #557, #69, .T. ) ;
#358 = CARTESIAN_POINT ( 'NONE',  ( -4.800000000000000711, 15.80000000000000071, 5.878304635907295197E-16 ) ) ;
#360 = EDGE_LOOP ( 'NONE', ( #602, #482, #232 ) ) ;
#361 = LINE ( 'NONE', #59, #203 ) ;
#362 = VECTOR ( 'NONE', #337, 999.9999999999998863 ) ;
#363 = PRODUCT ( 'DIN912 - M6X10', 'DIN912 - M6X10', '', ( #302 ) ) ;
#364 = PLANE ( 'NONE',  #523 ) ;
#365 = DIRECTION ( 'NONE',  ( 1.000000000000000000, 3.297233936995233371E-18, 0.000000000000000000 ) ) ;
#366 = DIRECTION ( 'NONE',  ( -0.000000000000000000, 1.000000000000000000, 0.000000000000000000 ) ) ;
#367 = AXIS2_PLACEMENT_3D ( 'NONE', #163, #599, #159 ) ;
#368 = EDGE_LOOP ( 'NONE', ( #474, #85 ) ) ;
#369 = CIRCLE ( 'NONE', #94, 4.999999999999999112 ) ;
#370 = ORIENTED_EDGE ( 'NONE', *, *, #42, .T. ) ;
#371 = DIRECTION ( 'NONE',  ( 1.000000000000000000, 0.000000000000000000, 0.000000000000000000 ) ) ;
#372 = LINE ( 'NONE', #579, #207 ) ;
#373 = VERTEX_POINT ( 'NONE', #270 ) ;
#374 = ADVANCED_FACE ( 'NONE', ( #565 ), #517, .T. ) ;
#375 = CARTESIAN_POINT ( 'NONE',  ( -3.297233936995233217E-17, 10.00000000000000000, 0.000000000000000000 ) ) ;
#376 = ORIENTED_EDGE ( 'NONE', *, *, #620, .F. ) ;
#377 = CARTESIAN_POINT ( 'NONE',  ( -4.286404118093803921E-17, 13.00000000000000178, 0.000000000000000000 ) ) ;
#378 = DIRECTION ( 'NONE',  ( -3.297233936995233371E-18, 1.000000000000000000, 0.000000000000000000 ) ) ;
#379 = ORIENTED_EDGE ( 'NONE', *, *, #2, .T. ) ;
#380 = LINE ( 'NONE', #156, #447 ) ;
#381 = EDGE_CURVE ( 'NONE', #566, #129, #67, .T. ) ;
#382 = DIRECTION ( 'NONE',  ( -1.000000000000000000, 0.000000000000000000, 0.000000000000000000 ) ) ;
#383 = EDGE_LOOP ( 'NONE', ( #44, #574, #613, #622, #554 ) ) ;
#384 = CARTESIAN_POINT ( 'NONE',  ( 0.6249999999999998890, 16.00000000000000000, -3.247595264191646347 ) ) ;
#385 = VECTOR ( 'NONE', #481, 1000.000000000000000 ) ;
#386 = CARTESIAN_POINT ( 'NONE',  ( 3.125000000000000000, 16.00000000000000000, 1.082531754730549078 ) ) ;
#387 = EDGE_LOOP ( 'NONE', ( #590, #505, #516 ) ) ;
#388 = DIRECTION ( 'NONE',  ( 3.297233936995233371E-18, -1.000000000000000000, -0.000000000000000000 ) ) ;
#389 = CIRCLE ( 'NONE', #91, 4.800000000000000711 ) ;
#390 = CIRCLE ( 'NONE', #192, 2.500000000000000000 ) ;
#391 = CIRCLE ( 'NONE', #205, 3.000000000000001332 ) ;
#392 = PLANE ( 'NONE',  #478 ) ;
#394 = EDGE_CURVE ( 'NONE', #57, #104, #493, .T. ) ;
#393 = DIRECTION ( 'NONE',  ( -0.000000000000000000, 1.000000000000000000, 0.000000000000000000 ) ) ;
#395 = DIRECTION ( 'NONE',  ( 0.000000000000000000, -0.000000000000000000, 1.000000000000000000 ) ) ;
#396 = CARTESIAN_POINT ( 'NONE',  ( 4.800000000000000711, 16.00000000000000000, 0.000000000000000000 ) ) ;
#397 = ADVANCED_FACE ( 'NONE', ( #415 ), #364, .F. ) ;
#398 = ORIENTED_EDGE ( 'NONE', *, *, #83, .F. ) ;
#399 = VECTOR ( 'NONE', #630, 1000.000000000000000 ) ;
#400 = DIRECTION ( 'NONE',  ( -0.000000000000000000, 1.000000000000000000, -0.000000000000000000 ) ) ;
#401 = CARTESIAN_POINT ( 'NONE',  ( -5.000000000000000000, -1.648616968497616608E-17, 6.123233995736766282E-16 ) ) ;
#402 = EDGE_CURVE ( 'NONE', #127, #477, #617, .T. ) ;
#403 = DIRECTION ( 'NONE',  ( 0.000000000000000000, 0.000000000000000000, 1.000000000000000000 ) ) ;
#404 = LINE ( 'NONE', #349, #216 ) ;
#405 = ADVANCED_FACE ( 'NONE', ( #121 ), #321, .F. ) ;
#406 = DIRECTION ( 'NONE',  ( 1.000000000000000000, 3.297233936995233756E-18, 0.000000000000000000 ) ) ;
#407 = VECTOR ( 'NONE', #400, 1000.000000000000000 ) ;
#408 = LINE ( 'NONE', #413, #226 ) ;
#409 = VECTOR ( 'NONE', #72, 1000.000000000000114 ) ;
#410 = ADVANCED_FACE ( 'NONE', ( #619 ), #506, .T. ) ;
#411 = LINE ( 'NONE', #122, #152 ) ;
#412 = ORIENTED_EDGE ( 'NONE', *, *, #310, .F. ) ;
#413 = CARTESIAN_POINT ( 'NONE',  ( -2.500000000000000000, 13.00000000000000178, 0.000000000000000000 ) ) ;
#414 = EDGE_CURVE ( 'NONE', #76, #10, #235, .T. ) ;
#415 = FACE_OUTER_BOUND ( 'NONE', #24, .T. ) ;
#416 = ADVANCED_FACE ( 'NONE', ( #18 ), #26, .T. ) ;
#417 = CARTESIAN_POINT ( 'NONE',  ( -2.500000000000000888, 16.00000000000000000, 0.000000000000000000 ) ) ;
#418 = ORIENTED_EDGE ( 'NONE', *, *, #143, .T. ) ;
#419 = UNCERTAINTY_MEASURE_WITH_UNIT (LENGTH_MEASURE( 1.000000000000000082E-05 ), #442, 'distance_accuracy_value', 'NONE');
#420 = DIRECTION ( 'NONE',  ( 0.8660254037844385966, 2.855488351658051123E-18, 0.5000000000000001110 ) ) ;
#421 = VERTEX_POINT ( 'NONE', #239 ) ;
#422 = EDGE_CURVE ( 'NONE', #10, #120, #98, .T. ) ;
#423 = CARTESIAN_POINT ( 'NONE',  ( -4.286404118093803921E-17, 13.00000000000000178, 0.000000000000000000 ) ) ;
#424 = VERTEX_POINT ( 'NONE', #323 ) ;
#425 = DIRECTION ( 'NONE',  ( 3.297233936995233371E-18, -1.000000000000000000, -0.000000000000000000 ) ) ;
#426 = EDGE_CURVE ( 'NONE', #104, #57, #79, .T. ) ;
#427 = AXIS2_PLACEMENT_3D ( 'NONE', #430, #86, #332 ) ;
#428 = FACE_OUTER_BOUND ( 'NONE', #507, .T. ) ;
#429 = ORIENTED_EDGE ( 'NONE', *, *, #359, .T. ) ;
#430 = CARTESIAN_POINT ( 'NONE',  ( -4.286404118093803921E-17, 13.00000000000000178, 0.000000000000000000 ) ) ;
#431 = DIRECTION ( 'NONE',  ( 1.000000000000000000, 0.000000000000000000, 0.000000000000000000 ) ) ;
#432 = ORIENTED_EDGE ( 'NONE', *, *, #351, .F. ) ;
#433 = LINE ( 'NONE', #384, #60 ) ;
#434 = LINE ( 'NONE', #80, #167 ) ;
#435 = DIRECTION ( 'NONE',  ( 1.000000000000000000, 3.297233936995233371E-18, 0.000000000000000000 ) ) ;
#436 = VECTOR ( 'NONE', #112, 1000.000000000000000 ) ;
#437 = AXIS2_PLACEMENT_3D ( 'NONE', #43, #147, #520 ) ;
#438 = DIRECTION ( 'NONE',  ( 3.297233936995233371E-18, -1.000000000000000000, -0.000000000000000000 ) ) ;
#439 = EDGE_CURVE ( 'NONE', #129, #128, #46, .T. ) ;
#440 = EDGE_CURVE ( 'NONE', #318, #421, #606, .T. ) ;
#441 = DIRECTION ( 'NONE',  ( -1.000000000000000000, 0.000000000000000000, 0.000000000000000000 ) ) ;
#442 =( LENGTH_UNIT ( ) NAMED_UNIT ( * ) SI_UNIT ( .MILLI., .METRE. ) );
#443 = FACE_OUTER_BOUND ( 'NONE', #347, .T. ) ;
#444 = ORIENTED_EDGE ( 'NONE', *, *, #77, .T. ) ;
#445 = DIRECTION ( 'NONE',  ( 3.297233936995233371E-18, -1.000000000000000000, -0.000000000000000000 ) ) ;
#446 = ORIENTED_EDGE ( 'NONE', *, *, #625, .T. ) ;
#447 = VECTOR ( 'NONE', #202, 1000.000000000000000 ) ;
#448 = AXIS2_PLACEMENT_3D ( 'NONE', #237, #228, #607 ) ;
#449 = PRESENTATION_STYLE_ASSIGNMENT (( #489 ) ) ;
#450 = LINE ( 'NONE', #56, #436 ) ;
#451 = CARTESIAN_POINT ( 'NONE',  ( 0.000000000000000000, 13.00000000000000178, 0.000000000000000000 ) ) ;
#452 = DIRECTION ( 'NONE',  ( 1.000000000000000000, 0.000000000000000000, 0.000000000000000000 ) ) ;
#453 = DIRECTION ( 'NONE',  ( 1.000000000000000000, 0.000000000000000000, 0.000000000000000000 ) ) ;
#454 = SHAPE_DEFINITION_REPRESENTATION ( #545, #603 ) ;
#455 = FACE_OUTER_BOUND ( 'NONE', #614, .T. ) ;
#456 = ORIENTED_EDGE ( 'NONE', *, *, #414, .F. ) ;
#457 = ORIENTED_EDGE ( 'NONE', *, *, #117, .T. ) ;
#458 = CARTESIAN_POINT ( 'NONE',  ( -5.209629620452469543E-17, 15.80000000000000071, 0.000000000000000000 ) ) ;
#459 = CONICAL_SURFACE ( 'NONE', #201, 2.500000000000000000, 1.047197551196600074 ) ;
#460 = ORIENTED_EDGE ( 'NONE', *, *, #186, .T. ) ;
#461 = AXIS2_PLACEMENT_3D ( 'NONE', #623, #200, #382 ) ;
#462 = ADVANCED_FACE ( 'NONE', ( #1 ), #459, .F. ) ;
#463 = DIRECTION ( 'NONE',  ( -0.4999999999999998890, 0.000000000000000000, -0.8660254037844387076 ) ) ;
#464 = AXIS2_PLACEMENT_3D ( 'NONE', #479, #475, #538 ) ;
#465 = ORIENTED_EDGE ( 'NONE', *, *, #61, .T. ) ;
#466 = AXIS2_PLACEMENT_3D ( 'NONE', #279, #144, #286 ) ;
#467 = ORIENTED_EDGE ( 'NONE', *, *, #359, .F. ) ;
#468 = CARTESIAN_POINT ( 'NONE',  ( 3.000000000000001332, 6.123233995736767268E-17, 0.000000000000000000 ) ) ;
#469 = ORIENTED_EDGE ( 'NONE', *, *, #600, .F. ) ;
#470 = CARTESIAN_POINT ( 'NONE',  ( 0.000000000000000000, 13.00000000000000178, 0.000000000000000000 ) ) ;
#471 = EDGE_LOOP ( 'NONE', ( #444, #21 ) ) ;
#472 = CARTESIAN_POINT ( 'NONE',  ( -2.500000000000000444, 13.00000000000000178, -1.443375672974066104 ) ) ;
#473 = EDGE_CURVE ( 'NONE', #557, #559, #434, .T. ) ;
#474 = ORIENTED_EDGE ( 'NONE', *, *, #627, .F. ) ;
#475 = DIRECTION ( 'NONE',  ( 3.297233936995233371E-18, -1.000000000000000000, -0.000000000000000000 ) ) ;
#476 = CARTESIAN_POINT ( 'NONE',  ( 2.499999999999999556, 16.00000000000000000, -9.772876510245091326E-32 ) ) ;
#477 = VERTEX_POINT ( 'NONE', #527 ) ;
#478 = AXIS2_PLACEMENT_3D ( 'NONE', #550, #257, #395 ) ;
#479 = CARTESIAN_POINT ( 'NONE',  ( -3.297233936995233217E-17, 10.00000000000000000, 0.000000000000000000 ) ) ;
#480 = CIRCLE ( 'NONE', #427, 2.500000000000000000 ) ;
#481 = DIRECTION ( 'NONE',  ( 0.000000000000000000, 0.000000000000000000, 1.000000000000000000 ) ) ;
#482 = ORIENTED_EDGE ( 'NONE', *, *, #132, .T. ) ;
#483 = CARTESIAN_POINT ( 'NONE',  ( 0.000000000000000000, 0.000000000000000000, 0.000000000000000000 ) ) ;
#484 = EDGE_CURVE ( 'NONE', #477, #153, #289, .T. ) ;
#485 = DIRECTION ( 'NONE',  ( 0.4999999999999998335, 0.000000000000000000, 0.8660254037844388186 ) ) ;
#486 = VERTEX_POINT ( 'NONE', #468 ) ;
#487 = CYLINDRICAL_SURFACE ( 'NONE', #534, 5.000000000000000000 ) ;
#488 = VECTOR ( 'NONE', #282, 1000.000000000000000 ) ;
#489 = SURFACE_STYLE_USAGE ( .BOTH. , #298 ) ;
#490 = CARTESIAN_POINT ( 'NONE',  ( -4.800000000000000711, 16.00000000000000000, 6.000769315822030740E-16 ) ) ;
#491 = ORIENTED_EDGE ( 'NONE', *, *, #351, .T. ) ;
#492 = AXIS2_PLACEMENT_3D ( 'NONE', #601, #499, #6 ) ;
#493 = CIRCLE ( 'NONE', #179, 3.000000000000000000 ) ;
#494 = ADVANCED_FACE ( 'NONE', ( #524 ), #140, .F. ) ;
#495 = CARTESIAN_POINT ( 'NONE',  ( 1.438083753007605768E-16, 13.00000000000000178, -2.886751345948130432 ) ) ;
#496 = DIRECTION ( 'NONE',  ( 1.000000000000000000, 0.000000000000000000, 0.000000000000000000 ) ) ;
#497 = FACE_OUTER_BOUND ( 'NONE', #145, .T. ) ;
#498 = DIRECTION ( 'NONE',  ( 0.000000000000000000, 0.000000000000000000, 1.000000000000000000 ) ) ;
#499 = DIRECTION ( 'NONE',  ( 3.297233936995233371E-18, -1.000000000000000000, -0.000000000000000000 ) ) ;
#500 = VERTEX_POINT ( 'NONE', #31 ) ;
#501 = VECTOR ( 'NONE', #342, 1000.000000000000000 ) ;
#502 = AXIS2_PLACEMENT_3D ( 'NONE', #227, #366, #184 ) ;
#503 = CARTESIAN_POINT ( 'NONE',  ( -5.275574299192373393E-17, 16.00000000000000000, 0.000000000000000000 ) ) ;
#504 = DIRECTION ( 'NONE',  ( 1.000000000000000000, 0.000000000000000000, 0.000000000000000000 ) ) ;
#505 = ORIENTED_EDGE ( 'NONE', *, *, #600, .T. ) ;
#506 = PLANE ( 'NONE',  #264 ) ;
#507 = EDGE_LOOP ( 'NONE', ( #241, #446 ) ) ;
#508 = EDGE_CURVE ( 'NONE', #290, #569, #322, .T. ) ;
#509 = DIRECTION ( 'NONE',  ( -0.000000000000000000, 1.000000000000000000, 0.000000000000000000 ) ) ;
#510 = VECTOR ( 'NONE', #193, 999.9999999999998863 ) ;
#511 = VECTOR ( 'NONE', #221, 1000.000000000000000 ) ;
#512 = CARTESIAN_POINT ( 'NONE',  ( 2.499999999999999112, 13.00000000000000178, 1.443375672974066326 ) ) ;
#513 = ORIENTED_EDGE ( 'NONE', *, *, #589, .F. ) ;
#514 = APPLICATION_CONTEXT ( 'automotive_design' ) ;
#515 = DIRECTION ( 'NONE',  ( 3.297233936995233371E-18, -1.000000000000000000, -0.000000000000000000 ) ) ;
#516 = ORIENTED_EDGE ( 'NONE', *, *, #402, .T. ) ;
#517 = CYLINDRICAL_SURFACE ( 'NONE', #448, 3.000000000000000888 ) ;
#518 = ORIENTED_EDGE ( 'NONE', *, *, #105, .T. ) ;
#519 = EDGE_CURVE ( 'NONE', #373, #109, #372, .T. ) ;
#520 = DIRECTION ( 'NONE',  ( 1.000000000000000000, 0.000000000000000000, 0.000000000000000000 ) ) ;
#521 = AXIS2_PLACEMENT_3D ( 'NONE', #14, #9, #8 ) ;
#522 = ORIENTED_EDGE ( 'NONE', *, *, #533, .T. ) ;
#523 = AXIS2_PLACEMENT_3D ( 'NONE', #556, #119, #313 ) ;
#524 = FACE_OUTER_BOUND ( 'NONE', #89, .T. ) ;
#525 = ORIENTED_EDGE ( 'NONE', *, *, #251, .T. ) ;
#526 = CARTESIAN_POINT ( 'NONE',  ( -3.000000000000000000, 10.00000000000000000, 3.673940397442060361E-16 ) ) ;
#527 = CARTESIAN_POINT ( 'NONE',  ( -2.500000000000000444, 13.00000000000000178, 0.000000000000000000 ) ) ;
#528 = ORIENTED_EDGE ( 'NONE', *, *, #132, .F. ) ;
#529 = CYLINDRICAL_SURFACE ( 'NONE', #307, 5.000000000000000000 ) ;
#530 = CARTESIAN_POINT ( 'NONE',  ( 0.6249999999999990008, 16.00000000000000000, 3.247595264191645903 ) ) ;
#531 = ORIENTED_EDGE ( 'NONE', *, *, #83, .T. ) ;
#533 = EDGE_CURVE ( 'NONE', #350, #477, #243, .T. ) ;
#532 = FACE_OUTER_BOUND ( 'NONE', #314, .T. ) ;
#534 = AXIS2_PLACEMENT_3D ( 'NONE', #483, #388, #435 ) ;
#535 = AXIS2_PLACEMENT_3D ( 'NONE', #74, #463, #27 ) ;
#536 = PLANE ( 'NONE',  #214 ) ;
#537 = ORIENTED_EDGE ( 'NONE', *, *, #42, .F. ) ;
#538 = DIRECTION ( 'NONE',  ( 1.000000000000000000, 0.000000000000000000, 0.000000000000000000 ) ) ;
#539 = CARTESIAN_POINT ( 'NONE',  ( 2.500000000000000000, 13.00000000000000178, 3.061616997868383141E-16 ) ) ;
#540 = EDGE_LOOP ( 'NONE', ( #229, #343, #81 ) ) ;
#541 = CARTESIAN_POINT ( 'NONE',  ( -2.500000000000000444, 13.00000000000000178, -1.443375672974066104 ) ) ;
#542 = ORIENTED_EDGE ( 'NONE', *, *, #508, .T. ) ;
#543 = DIRECTION ( 'NONE',  ( 3.297233936995233371E-18, -1.000000000000000000, -0.000000000000000000 ) ) ;
#544 = ORIENTED_EDGE ( 'NONE', *, *, #126, .F. ) ;
#545 = PRODUCT_DEFINITION_SHAPE ( 'NONE', 'NONE',  #52 ) ;
#546 = DIRECTION ( 'NONE',  ( -0.000000000000000000, 1.000000000000000000, -0.000000000000000000 ) ) ;
#547 = APPLICATION_CONTEXT ( 'automotive_design' ) ;
#548 = DIRECTION ( 'NONE',  ( -0.000000000000000000, 1.000000000000000000, -0.000000000000000000 ) ) ;
#549 = CARTESIAN_POINT ( 'NONE',  ( 2.499999999999999556, 13.00000000000000178, -1.443375672974066104 ) ) ;
#550 = CARTESIAN_POINT ( 'NONE',  ( 0.000000000000000000, 13.00000000000000178, 0.000000000000000000 ) ) ;
#551 = FACE_OUTER_BOUND ( 'NONE', #540, .T. ) ;
#552 = CIRCLE ( 'NONE', #367, 3.000000000000001332 ) ;
#553 = DIRECTION ( 'NONE',  ( 1.502314598737157799E-16, 0.000000000000000000, -1.000000000000000000 ) ) ;
#554 = ORIENTED_EDGE ( 'NONE', *, *, #620, .T. ) ;
#555 = EDGE_CURVE ( 'NONE', #293, #569, #592, .T. ) ;
#556 = CARTESIAN_POINT ( 'NONE',  ( -2.500000000000000444, 13.00000000000000178, 1.443375672974064772 ) ) ;
#557 = VERTEX_POINT ( 'NONE', #637 ) ;
#558 = DIRECTION ( 'NONE',  ( -0.8660254037844397068, 0.4999999999999979461, 0.000000000000000000 ) ) ;
#559 = VERTEX_POINT ( 'NONE', #628 ) ;
#560 = ORIENTED_EDGE ( 'NONE', *, *, #236, .F. ) ;
#561 = MECHANICAL_DESIGN_GEOMETRIC_PRESENTATION_REPRESENTATION (  '', ( #38 ), #583 ) ;
#562 = CIRCLE ( 'NONE', #327, 4.800000000000000711 ) ;
#563 = DIRECTION ( 'NONE',  ( 1.000000000000000000, 0.000000000000000000, 1.502314598737157799E-16 ) ) ;
#564 = ORIENTED_EDGE ( 'NONE', *, *, #625, .F. ) ;
#565 = FACE_OUTER_BOUND ( 'NONE', #28, .T. ) ;
#566 = VERTEX_POINT ( 'NONE', #188 ) ;
#567 = EDGE_CURVE ( 'NONE', #128, #36, #576, .T. ) ;
#568 = CARTESIAN_POINT ( 'NONE',  ( -5.209629620452469543E-17, 15.80000000000000071, 0.000000000000000000 ) ) ;
#569 = VERTEX_POINT ( 'NONE', #333 ) ;
#570 = PRODUCT_DEFINITION_CONTEXT ( 'detailed design', #547, 'design' ) ;
#571 = VECTOR ( 'NONE', #48, 1000.000000000000000 ) ;
#572 = DIRECTION ( 'NONE',  ( -0.8660254037844387076, -2.855488351658051508E-18, -0.5000000000000001110 ) ) ;
#573 = CLOSED_SHELL ( 'NONE', ( #283, #374, #66, #416, #605, #180, #297, #19, #30, #97, #410, #223, #88, #636, #15, #397, #611, #405, #158, #345, #494, #312, #462 ) ) ;
#574 = ORIENTED_EDGE ( 'NONE', *, *, #230, .F. ) ;
#575 = DIRECTION ( 'NONE',  ( 3.297233936995233371E-18, -1.000000000000000000, -0.000000000000000000 ) ) ;
#576 = LINE ( 'NONE', #386, #510 ) ;
#577 = EDGE_LOOP ( 'NONE', ( #71, #376, #220, #528, #460 ) ) ;
#578 = DIRECTION ( 'NONE',  ( 0.000000000000000000, -0.000000000000000000, 1.000000000000000000 ) ) ;
#579 = CARTESIAN_POINT ( 'NONE',  ( 3.125000000000000444, 16.00000000000000000, -1.082531754730549300 ) ) ;
#580 = ORIENTED_EDGE ( 'NONE', *, *, #567, .F. ) ;
#581 = CARTESIAN_POINT ( 'NONE',  ( -4.956376268149975009E-16, 16.00000000000000000, 2.886751345948129543 ) ) ;
#582 = DIRECTION ( 'NONE',  ( 3.297233936995233371E-18, -1.000000000000000000, -0.000000000000000000 ) ) ;
#583 =( GEOMETRIC_REPRESENTATION_CONTEXT ( 3 ) GLOBAL_UNCERTAINTY_ASSIGNED_CONTEXT ( ( #187 ) ) GLOBAL_UNIT_ASSIGNED_CONTEXT ( ( #208, #254, #218 ) ) REPRESENTATION_CONTEXT ( 'NONE', 'WORKASPACE' ) );
#584 = ORIENTED_EDGE ( 'NONE', *, *, #61, .F. ) ;
#585 = LINE ( 'NONE', #242, #50 ) ;
#586 = AXIS2_PLACEMENT_3D ( 'NONE', #222, #268, #453 ) ;
#587 =( NAMED_UNIT ( * ) PLANE_ANGLE_UNIT ( ) SI_UNIT ( $, .RADIAN. ) );
#588 = CARTESIAN_POINT ( 'NONE',  ( 0.000000000000000000, 0.000000000000000000, 0.000000000000000000 ) ) ;
#589 = EDGE_CURVE ( 'NONE', #36, #373, #87, .T. ) ;
#590 = ORIENTED_EDGE ( 'NONE', *, *, #484, .T. ) ;
#591 = CARTESIAN_POINT ( 'NONE',  ( -4.999999999999999112, 15.80000000000000071, 6.123233995736765296E-16 ) ) ;
#592 = CIRCLE ( 'NONE', #325, 4.999999999999999112 ) ;
#593 = DIRECTION ( 'NONE',  ( -0.8660254037844387076, 0.000000000000000000, 0.4999999999999998890 ) ) ;
#594 = ORIENTED_EDGE ( 'NONE', *, *, #567, .T. ) ;
#595 = APPLICATION_PROTOCOL_DEFINITION ( 'draft international standard', 'automotive_design', 1998, #514 ) ;
#596 = LINE ( 'NONE', #495, #116 ) ;
#597 = ORIENTED_EDGE ( 'NONE', *, *, #155, .F. ) ;
#598 = ORIENTED_EDGE ( 'NONE', *, *, #251, .F. ) ;
#599 = DIRECTION ( 'NONE',  ( 3.297233936995233371E-18, -1.000000000000000000, -0.000000000000000000 ) ) ;
#600 = EDGE_CURVE ( 'NONE', #153, #127, #39, .T. ) ;
#601 = CARTESIAN_POINT ( 'NONE',  ( -4.286404118093803921E-17, 13.00000000000000178, 0.000000000000000000 ) ) ;
#602 = ORIENTED_EDGE ( 'NONE', *, *, #422, .T. ) ;
#603 = ADVANCED_BREP_SHAPE_REPRESENTATION ( 'DIN912 - M6X10', ( #632, #316 ), #25 ) ;
#605 = ADVANCED_FACE ( 'NONE', ( #428 ), #536, .T. ) ;
#604 = CARTESIAN_POINT ( 'NONE',  ( 5.000000000000000000, 1.648616968497616608E-17, 0.000000000000000000 ) ) ;
#606 = CIRCLE ( 'NONE', #336, 5.000000000000000888 ) ;
#607 = DIRECTION ( 'NONE',  ( 1.000000000000000000, 3.297233936995232986E-18, 0.000000000000000000 ) ) ;
#608 = EDGE_CURVE ( 'NONE', #559, #64, #261, .T. ) ;
#609 = LINE ( 'NONE', #174, #139 ) ;
#610 = DIRECTION ( 'NONE',  ( 3.297233936995233371E-18, -1.000000000000000000, -0.000000000000000000 ) ) ;
#611 = ADVANCED_FACE ( 'NONE', ( #306 ), #7, .F. ) ;
#612 = CARTESIAN_POINT ( 'NONE',  ( 0.000000000000000000, 15.80000000000000071, 0.000000000000000000 ) ) ;
#613 = ORIENTED_EDGE ( 'NONE', *, *, #484, .F. ) ;
#614 = EDGE_LOOP ( 'NONE', ( #465, #429, #457 ) ) ;
#615 = PRESENTATION_LAYER_ASSIGNMENT (  '', '', ( #38 ) ) ;
#616 = AXIS2_PLACEMENT_3D ( 'NONE', #177, #23, #578 ) ;
#617 = CIRCLE ( 'NONE', #255, 2.500000000000000000 ) ;
#618 = CARTESIAN_POINT ( 'NONE',  ( -4.286404118093803921E-17, 13.00000000000000178, 0.000000000000000000 ) ) ;
#619 = FACE_OUTER_BOUND ( 'NONE', #95, .T. ) ;
#620 = EDGE_CURVE ( 'NONE', #350, #566, #106, .T. ) ;
#621 = ORIENTED_EDGE ( 'NONE', *, *, #137, .F. ) ;
#622 = ORIENTED_EDGE ( 'NONE', *, *, #533, .F. ) ;
#623 = CARTESIAN_POINT ( 'NONE',  ( 4.800000000000000711, 15.80000000000000071, 0.000000000000000000 ) ) ;
#624 = ORIENTED_EDGE ( 'NONE', *, *, #2, .F. ) ;
#625 = EDGE_CURVE ( 'NONE', #99, #486, #552, .T. ) ;
#626 = DIRECTION ( 'NONE',  ( 3.297233936995233371E-18, -1.000000000000000000, -0.000000000000000000 ) ) ;
#627 = EDGE_CURVE ( 'NONE', #290, #249, #389, .T. ) ;
#628 = CARTESIAN_POINT ( 'NONE',  ( 2.499999999999999112, 13.00000000000000178, 1.443375672974066326 ) ) ;
#629 = ORIENTED_EDGE ( 'NONE', *, *, #240, .F. ) ;
#630 = DIRECTION ( 'NONE',  ( 0.8660254037844385966, 0.000000000000000000, 0.5000000000000001110 ) ) ;
#631 = ORIENTED_EDGE ( 'NONE', *, *, #126, .T. ) ;
#632 = MANIFOLD_SOLID_BREP ( 'Key Cutout', #573 ) ;
#633 = CARTESIAN_POINT ( 'NONE',  ( 3.000000000000001332, 3.556202088417669295E-17, 0.000000000000000000 ) ) ;
#634 = EDGE_LOOP ( 'NONE', ( #491, #379, #12, #29 ) ) ;
#635 = CARTESIAN_POINT ( 'NONE',  ( -1.250000000000000444, 13.00000000000000178, 2.165063509461097269 ) ) ;
#636 = ADVANCED_FACE ( 'NONE', ( #357 ), #392, .T. ) ;
#637 = CARTESIAN_POINT ( 'NONE',  ( 1.249999999999999556, 13.00000000000000178, 2.165063509461097269 ) ) ;
#638 = ORIENTED_EDGE ( 'NONE', *, *, #394, .F. ) ;
#639 = DIRECTION ( 'NONE',  ( 1.000000000000000000, 3.297233936995233371E-18, 0.000000000000000000 ) ) ;
ENDSEC;
END-ISO-10303-21;
