ISO-10303-21;
HEADER;
FILE_DESCRIPTION (( 'STEP AP214' ),
    '1' );
FILE_NAME ('DIN912 - M2X4.STEP',
    '2023-12-01T08:03:12',
    ( '' ),
    ( '' ),
    'SwSTEP 2.0',
    'SolidWorks 2023',
    '' );
FILE_SCHEMA (( 'AUTOMOTIVE_DESIGN' ));
ENDSEC;

DATA;
#1 = EDGE_LOOP ( 'NONE', ( #607, #63, #201, #332 ) ) ;
#2 = CYLINDRICAL_SURFACE ( 'NONE', #6, 1.000000000000001110 ) ;
#3 = EDGE_CURVE ( 'NONE', #507, #474, #372, .T. ) ;
#4 = ORIENTED_EDGE ( 'NONE', *, *, #486, .F. ) ;
#5 = DIRECTION ( 'NONE',  ( -0.000000000000000000, -1.000000000000000000, -0.000000000000000000 ) ) ;
#6 = AXIS2_PLACEMENT_3D ( 'NONE', #294, #198, #613 ) ;
#7 = CARTESIAN_POINT ( 'NONE',  ( 0.000000000000000000, 5.000000000000001776, 0.000000000000000000 ) ) ;
#8 = VECTOR ( 'NONE', #102, 1000.000000000000000 ) ;
#9 = CARTESIAN_POINT ( 'NONE',  ( -0.3749999999999999445, 5.000000000000001776, -0.6495190528383294470 ) ) ;
#10 = EDGE_CURVE ( 'NONE', #296, #571, #117, .T. ) ;
#11 = DIRECTION ( 'NONE',  ( 0.000000000000000000, 0.000000000000000000, 1.000000000000000000 ) ) ;
#12 = DIRECTION ( 'NONE',  ( 0.000000000000000000, 1.000000000000000000, 0.000000000000000000 ) ) ;
#13 = ORIENTED_EDGE ( 'NONE', *, *, #108, .F. ) ;
#14 = EDGE_CURVE ( 'NONE', #100, #387, #308, .T. ) ;
#15 = CARTESIAN_POINT ( 'NONE',  ( 0.000000000000000000, 5.000000000000000888, 0.000000000000000000 ) ) ;
#16 = CYLINDRICAL_SURFACE ( 'NONE', #384, 1.899999999999999911 ) ;
#17 = PLANE ( 'NONE',  #375 ) ;
#18 = VECTOR ( 'NONE', #631, 1000.000000000000000 ) ;
#19 = ORIENTED_EDGE ( 'NONE', *, *, #157, .F. ) ;
#20 = CARTESIAN_POINT ( 'NONE',  ( 0.000000000000000000, -6.123233995736790688E-17, 0.000000000000000000 ) ) ;
#21 = EDGE_CURVE ( 'NONE', #144, #285, #630, .T. ) ;
#22 = CARTESIAN_POINT ( 'NONE',  ( 0.9375000000000003331, 6.000000000000001776, -0.3247595264191651676 ) ) ;
#23 = DIRECTION ( 'NONE',  ( 1.000000000000000000, 0.000000000000000000, -1.224646799147353207E-16 ) ) ;
#24 = DIRECTION ( 'NONE',  ( -1.000000000000000000, 0.000000000000000000, 0.000000000000000000 ) ) ;
#25 = DIRECTION ( 'NONE',  ( -0.000000000000000000, -1.000000000000000000, -0.000000000000000000 ) ) ;
#26 = AXIS2_PLACEMENT_3D ( 'NONE', #258, #68, #465 ) ;
#27 = AXIS2_PLACEMENT_3D ( 'NONE', #570, #64, #265 ) ;
#28 =( GEOMETRIC_REPRESENTATION_CONTEXT ( 3 ) GLOBAL_UNCERTAINTY_ASSIGNED_CONTEXT ( ( #276 ) ) GLOBAL_UNIT_ASSIGNED_CONTEXT ( ( #484, #333, #535 ) ) REPRESENTATION_CONTEXT ( 'NONE', 'WORKASPACE' ) );
#29 = CARTESIAN_POINT ( 'NONE',  ( -0.7500000000000001110, 5.000000000000001776, 0.000000000000000000 ) ) ;
#30 = PLANE ( 'NONE',  #330 ) ;
#31 = ORIENTED_EDGE ( 'NONE', *, *, #241, .F. ) ;
#32 = DIRECTION ( 'NONE',  ( 0.000000000000000000, 0.000000000000000000, -1.000000000000000000 ) ) ;
#33 = ORIENTED_EDGE ( 'NONE', *, *, #504, .F. ) ;
#34 = ADVANCED_FACE ( 'NONE', ( #264 ), #16, .T. ) ;
#35 = ORIENTED_EDGE ( 'NONE', *, *, #137, .T. ) ;
#36 = AXIS2_PLACEMENT_3D ( 'NONE', #20, #216, #576 ) ;
#37 = VECTOR ( 'NONE', #614, 1000.000000000000000 ) ;
#38 = DIRECTION ( 'NONE',  ( -0.000000000000000000, 1.000000000000000000, -0.000000000000000000 ) ) ;
#39 = ORIENTED_EDGE ( 'NONE', *, *, #245, .F. ) ;
#40 = DIRECTION ( 'NONE',  ( 0.000000000000000000, 0.4999999999999979461, 0.8660254037844397068 ) ) ;
#41 = EDGE_CURVE ( 'NONE', #435, #558, #185, .T. ) ;
#42 = APPLICATION_PROTOCOL_DEFINITION ( 'draft international standard', 'automotive_design', 1998, #170 ) ;
#43 = VERTEX_POINT ( 'NONE', #624 ) ;
#44 = LINE ( 'NONE', #247, #134 ) ;
#45 = CARTESIAN_POINT ( 'NONE',  ( 0.000000000000000000, 5.000000000000001776, 0.000000000000000000 ) ) ;
#46 = ADVANCED_FACE ( 'NONE', ( #307 ), #572, .T. ) ;
#47 = ORIENTED_EDGE ( 'NONE', *, *, #422, .F. ) ;
#48 = DIRECTION ( 'NONE',  ( -1.224646799147353207E-16, 0.000000000000000000, -1.000000000000000000 ) ) ;
#49 = STYLED_ITEM ( 'NONE', ( #629 ), #527 ) ;
#50 = ORIENTED_EDGE ( 'NONE', *, *, #3, .T. ) ;
#51 = EDGE_CURVE ( 'NONE', #349, #283, #338, .T. ) ;
#52 = LINE ( 'NONE', #141, #503 ) ;
#53 = DIRECTION ( 'NONE',  ( 0.000000000000000000, -0.000000000000000000, 1.000000000000000000 ) ) ;
#54 = ORIENTED_EDGE ( 'NONE', *, *, #401, .F. ) ;
#55 = CARTESIAN_POINT ( 'NONE',  ( 0.000000000000000000, 5.000000000000000888, 0.000000000000000000 ) ) ;
#56 = CARTESIAN_POINT ( 'NONE',  ( 0.000000000000000000, 0.000000000000000000, 0.000000000000000000 ) ) ;
#57 = LINE ( 'NONE', #523, #318 ) ;
#58 = ORIENTED_EDGE ( 'NONE', *, *, #90, .F. ) ;
#59 = CARTESIAN_POINT ( 'NONE',  ( 0.000000000000000000, 6.000000000000001776, 0.000000000000000000 ) ) ;
#60 = CARTESIAN_POINT ( 'NONE',  ( 0.7499999999999995559, 5.000000000000001776, 0.4330127018922195758 ) ) ;
#61 = ADVANCED_FACE ( 'NONE', ( #156, #513 ), #269, .T. ) ;
#62 = DIRECTION ( 'NONE',  ( -0.8660254037844388186, 0.000000000000000000, 0.4999999999999997224 ) ) ;
#63 = ORIENTED_EDGE ( 'NONE', *, *, #146, .T. ) ;
#64 = DIRECTION ( 'NONE',  ( 0.4999999999999996114, 0.000000000000000000, 0.8660254037844388186 ) ) ;
#65 = ORIENTED_EDGE ( 'NONE', *, *, #108, .T. ) ;
#66 = FACE_BOUND ( 'NONE', #424, .T. ) ;
#67 = VECTOR ( 'NONE', #368, 1000.000000000000000 ) ;
#68 = DIRECTION ( 'NONE',  ( -0.000000000000000000, -1.000000000000000000, -0.000000000000000000 ) ) ;
#69 = PLANE ( 'NONE',  #91 ) ;
#70 = ADVANCED_FACE ( 'NONE', ( #565 ), #461, .F. ) ;
#71 = LINE ( 'NONE', #526, #249 ) ;
#72 = DIRECTION ( 'NONE',  ( -0.000000000000000000, -1.000000000000000000, -0.000000000000000000 ) ) ;
#73 = CARTESIAN_POINT ( 'NONE',  ( 1.093118657321079453E-17, 5.000000000000001776, 0.8660254037844382635 ) ) ;
#74 = CARTESIAN_POINT ( 'NONE',  ( 0.000000000000000000, 4.000000000000000000, -0.9999999999999995559 ) ) ;
#75 = CARTESIAN_POINT ( 'NONE',  ( 0.000000000000000000, 0.000000000000000000, -1.000000000000001110 ) ) ;
#76 = DIRECTION ( 'NONE',  ( 0.000000000000000000, 0.000000000000000000, 1.000000000000000000 ) ) ;
#77 = EDGE_CURVE ( 'NONE', #285, #43, #114, .T. ) ;
#78 = PLANE ( 'NONE',  #250 ) ;
#79 = VERTEX_POINT ( 'NONE', #211 ) ;
#80 = AXIS2_PLACEMENT_3D ( 'NONE', #553, #449, #243 ) ;
#81 = CIRCLE ( 'NONE', #637, 0.9999999999999995559 ) ;
#82 = CARTESIAN_POINT ( 'NONE',  ( 0.000000000000000000, 5.800000000000001599, -1.699999999999999734 ) ) ;
#83 = CARTESIAN_POINT ( 'NONE',  ( -1.450678315324153825E-17, 6.000000000000001776, -0.8660254037844391517 ) ) ;
#84 = ADVANCED_FACE ( 'NONE', ( #410 ), #359, .F. ) ;
#85 = EDGE_LOOP ( 'NONE', ( #591, #311, #379, #230 ) ) ;
#86 = CARTESIAN_POINT ( 'NONE',  ( 0.9375000000000000000, 6.000000000000001776, 0.3247595264191647790 ) ) ;
#87 = ORIENTED_EDGE ( 'NONE', *, *, #273, .T. ) ;
#88 = PRODUCT_CONTEXT ( 'NONE', #522, 'mechanical' ) ;
#89 = ORIENTED_EDGE ( 'NONE', *, *, #157, .T. ) ;
#90 = EDGE_CURVE ( 'NONE', #466, #285, #123, .T. ) ;
#91 = AXIS2_PLACEMENT_3D ( 'NONE', #519, #306, #366 ) ;
#92 = PLANE ( 'NONE',  #476 ) ;
#93 = ORIENTED_EDGE ( 'NONE', *, *, #467, .T. ) ;
#94 = CARTESIAN_POINT ( 'NONE',  ( 1.093118657321079453E-17, 5.000000000000001776, 0.8660254037844382635 ) ) ;
#95 = DIRECTION ( 'NONE',  ( 0.000000000000000000, -0.000000000000000000, 1.000000000000000000 ) ) ;
#96 = EDGE_LOOP ( 'NONE', ( #399, #35, #154, #650 ) ) ;
#97 = FACE_OUTER_BOUND ( 'NONE', #85, .T. ) ;
#98 = CARTESIAN_POINT ( 'NONE',  ( 0.7499999999999997780, 5.000000000000001776, -0.4330127018922202420 ) ) ;
#99 = EDGE_CURVE ( 'NONE', #169, #382, #525, .T. ) ;
#100 = VERTEX_POINT ( 'NONE', #272 ) ;
#101 = CARTESIAN_POINT ( 'NONE',  ( 0.000000000000000000, 5.800000000000001599, -1.899999999999999911 ) ) ;
#102 = DIRECTION ( 'NONE',  ( -0.000000000000000000, -1.000000000000000000, -0.000000000000000000 ) ) ;
#103 = AXIS2_PLACEMENT_3D ( 'NONE', #196, #147, #95 ) ;
#104 = ORIENTED_EDGE ( 'NONE', *, *, #422, .T. ) ;
#105 = CARTESIAN_POINT ( 'NONE',  ( 0.000000000000000000, -6.123233995736790688E-17, 0.000000000000000000 ) ) ;
#106 = EDGE_LOOP ( 'NONE', ( #50, #190, #540, #445, #514 ) ) ;
#107 = FACE_OUTER_BOUND ( 'NONE', #552, .T. ) ;
#108 = EDGE_CURVE ( 'NONE', #495, #458, #609, .T. ) ;
#109 = DIRECTION ( 'NONE',  ( -0.000000000000000000, -1.000000000000000000, -0.000000000000000000 ) ) ;
#110 = ADVANCED_FACE ( 'NONE', ( #107 ), #645, .T. ) ;
#111 = ORIENTED_EDGE ( 'NONE', *, *, #504, .T. ) ;
#112 = CIRCLE ( 'NONE', #483, 0.7500000000000000000 ) ;
#113 = CIRCLE ( 'NONE', #545, 0.2000000000000003164 ) ;
#114 = LINE ( 'NONE', #159, #248 ) ;
#115 = CARTESIAN_POINT ( 'NONE',  ( 0.7499999999999996669, 5.000000000000001776, 1.877893248421445831E-16 ) ) ;
#116 = EDGE_CURVE ( 'NONE', #543, #262, #597, .T. ) ;
#117 = LINE ( 'NONE', #164, #67 ) ;
#118 = DIRECTION ( 'NONE',  ( 0.000000000000000000, 0.000000000000000000, -1.000000000000000000 ) ) ;
#119 = ORIENTED_EDGE ( 'NONE', *, *, #467, .F. ) ;
#120 = EDGE_CURVE ( 'NONE', #466, #641, #290, .T. ) ;
#121 = ORIENTED_EDGE ( 'NONE', *, *, #590, .F. ) ;
#122 = DIRECTION ( 'NONE',  ( 0.8660254037844388186, 0.000000000000000000, -0.4999999999999996114 ) ) ;
#123 = CIRCLE ( 'NONE', #405, 0.7500000000000000000 ) ;
#124 = ORIENTED_EDGE ( 'NONE', *, *, #512, .T. ) ;
#125 = DIRECTION ( 'NONE',  ( 0.000000000000000000, -0.000000000000000000, 1.000000000000000000 ) ) ;
#126 = CARTESIAN_POINT ( 'NONE',  ( 1.224646799147356412E-16, -6.123233995736790688E-17, 1.000000000000002665 ) ) ;
#127 = DIRECTION ( 'NONE',  ( -0.000000000000000000, -1.000000000000000000, -0.000000000000000000 ) ) ;
#128 = CARTESIAN_POINT ( 'NONE',  ( 0.3749999999999997780, 5.000000000000000888, 0.6495190528383291140 ) ) ;
#129 = EDGE_LOOP ( 'NONE', ( #104, #536, #487, #281 ) ) ;
#130 = PRODUCT_RELATED_PRODUCT_CATEGORY ( 'part', '', ( #537 ) ) ;
#131 = DIRECTION ( 'NONE',  ( 0.8660254037844388186, 0.000000000000000000, -0.4999999999999996669 ) ) ;
#132 = SURFACE_STYLE_FILL_AREA ( #587 ) ;
#133 = ORIENTED_EDGE ( 'NONE', *, *, #443, .T. ) ;
#134 = VECTOR ( 'NONE', #205, 1000.000000000000000 ) ;
#135 = PRESENTATION_LAYER_ASSIGNMENT (  '', '', ( #49 ) ) ;
#136 = ORIENTED_EDGE ( 'NONE', *, *, #602, .F. ) ;
#137 = EDGE_CURVE ( 'NONE', #169, #569, #343, .T. ) ;
#138 = ORIENTED_EDGE ( 'NONE', *, *, #652, .T. ) ;
#139 = PLANE ( 'NONE',  #103 ) ;
#140 = ORIENTED_EDGE ( 'NONE', *, *, #10, .T. ) ;
#141 = CARTESIAN_POINT ( 'NONE',  ( 0.7499999999999997780, 5.000000000000001776, -0.4330127018922202420 ) ) ;
#142 = AXIS2_PLACEMENT_3D ( 'NONE', #547, #446, #459 ) ;
#143 = VECTOR ( 'NONE', #606, 1000.000000000000114 ) ;
#144 = VERTEX_POINT ( 'NONE', #253 ) ;
#145 = CARTESIAN_POINT ( 'NONE',  ( -0.7500000000000000000, 6.000000000000001776, 0.000000000000000000 ) ) ;
#146 = EDGE_CURVE ( 'NONE', #458, #189, #206, .T. ) ;
#147 = DIRECTION ( 'NONE',  ( -0.000000000000000000, 1.000000000000000000, 0.000000000000000000 ) ) ;
#148 = ORIENTED_EDGE ( 'NONE', *, *, #388, .F. ) ;
#149 = DIRECTION ( 'NONE',  ( -0.000000000000000000, 1.000000000000000000, 0.000000000000000000 ) ) ;
#150 = EDGE_LOOP ( 'NONE', ( #124, #65, #389, #491 ) ) ;
#151 = DIRECTION ( 'NONE',  ( -0.000000000000000000, -1.000000000000000000, -0.000000000000000000 ) ) ;
#152 = AXIS2_PLACEMENT_3D ( 'NONE', #659, #191, #560 ) ;
#153 = AXIS2_PLACEMENT_3D ( 'NONE', #158, #12, #412 ) ;
#154 = ORIENTED_EDGE ( 'NONE', *, *, #628, .T. ) ;
#155 = FACE_OUTER_BOUND ( 'NONE', #1, .T. ) ;
#156 = FACE_OUTER_BOUND ( 'NONE', #299, .T. ) ;
#157 = EDGE_CURVE ( 'NONE', #296, #569, #112, .T. ) ;
#158 = CARTESIAN_POINT ( 'NONE',  ( 0.000000000000000000, 5.000000000000000888, 0.000000000000000000 ) ) ;
#159 = CARTESIAN_POINT ( 'NONE',  ( -1.450678315324153825E-17, 5.000000000000001776, -0.8660254037844391517 ) ) ;
#160 = DIRECTION ( 'NONE',  ( 1.000000000000000000, 0.000000000000000000, 2.503857664561928925E-16 ) ) ;
#161 = EDGE_CURVE ( 'NONE', #43, #474, #44, .T. ) ;
#162 = CIRCLE ( 'NONE', #152, 0.7500000000000000000 ) ;
#163 = VECTOR ( 'NONE', #131, 1000.000000000000114 ) ;
#164 = CARTESIAN_POINT ( 'NONE',  ( 0.7499999999999995559, 5.000000000000001776, 0.4330127018922195758 ) ) ;
#165 = ORIENTED_EDGE ( 'NONE', *, *, #344, .F. ) ;
#166 = ADVANCED_FACE ( 'NONE', ( #454 ), #654, .T. ) ;
#167 = ORIENTED_EDGE ( 'NONE', *, *, #397, .T. ) ;
#168 = CARTESIAN_POINT ( 'NONE',  ( 0.000000000000000000, 4.000000000000000888, 0.000000000000000000 ) ) ;
#169 = VERTEX_POINT ( 'NONE', #396 ) ;
#170 = APPLICATION_CONTEXT ( 'automotive_design' ) ;
#171 = DIRECTION ( 'NONE',  ( -0.000000000000000000, -1.000000000000000000, -0.000000000000000000 ) ) ;
#172 = FACE_OUTER_BOUND ( 'NONE', #150, .T. ) ;
#173 = DIRECTION ( 'NONE',  ( -0.8660254037844388186, 0.000000000000000000, 0.4999999999999997224 ) ) ;
#174 = VECTOR ( 'NONE', #426, 1000.000000000000000 ) ;
#175 = CIRCLE ( 'NONE', #408, 0.7500000000000000000 ) ;
#176 = DIRECTION ( 'NONE',  ( 0.000000000000000000, 1.000000000000000000, 0.000000000000000000 ) ) ;
#177 = CARTESIAN_POINT ( 'NONE',  ( 2.204364238465235576E-16, 6.000000000000001776, 1.699999999999999734 ) ) ;
#178 = ORIENTED_EDGE ( 'NONE', *, *, #41, .T. ) ;
#179 = EDGE_CURVE ( 'NONE', #532, #296, #162, .T. ) ;
#180 = DIRECTION ( 'NONE',  ( 0.000000000000000000, 0.000000000000000000, -1.000000000000000000 ) ) ;
#181 = CARTESIAN_POINT ( 'NONE',  ( -0.7500000000000001110, 5.000000000000001776, 0.4330127018922189097 ) ) ;
#182 = EDGE_LOOP ( 'NONE', ( #140, #346, #252 ) ) ;
#183 = DIRECTION ( 'NONE',  ( -0.000000000000000000, -1.000000000000000000, -0.000000000000000000 ) ) ;
#184 = SURFACE_SIDE_STYLE ('',( #132 ) ) ;
#185 = CIRCLE ( 'NONE', #36, 1.000000000000002665 ) ;
#186 = ORIENTED_EDGE ( 'NONE', *, *, #273, .F. ) ;
#187 = VECTOR ( 'NONE', #381, 1000.000000000000114 ) ;
#188 = EDGE_CURVE ( 'NONE', #301, #382, #419, .T. ) ;
#189 = VERTEX_POINT ( 'NONE', #101 ) ;
#190 = ORIENTED_EDGE ( 'NONE', *, *, #161, .F. ) ;
#191 = DIRECTION ( 'NONE',  ( -0.000000000000000000, -1.000000000000000000, -0.000000000000000000 ) ) ;
#192 = CARTESIAN_POINT ( 'NONE',  ( 1.000000000000002665, -3.061616997868395344E-17, 0.000000000000000000 ) ) ;
#193 = ORIENTED_EDGE ( 'NONE', *, *, #634, .F. ) ;
#194 = DIRECTION ( 'NONE',  ( -0.000000000000000000, -1.000000000000000000, -0.000000000000000000 ) ) ;
#195 = CIRCLE ( 'NONE', #567, 1.000000000000002665 ) ;
#196 = CARTESIAN_POINT ( 'NONE',  ( 0.000000000000000000, 5.000000000000001776, 0.000000000000000000 ) ) ;
#197 = ORIENTED_EDGE ( 'NONE', *, *, #146, .F. ) ;
#198 = DIRECTION ( 'NONE',  ( -0.000000000000000000, -1.000000000000000000, -0.000000000000000000 ) ) ;
#199 = ADVANCED_FACE ( 'NONE', ( #297 ), #620, .F. ) ;
#200 = DIRECTION ( 'NONE',  ( 0.000000000000000000, 0.000000000000000000, -1.000000000000000000 ) ) ;
#201 = ORIENTED_EDGE ( 'NONE', *, *, #634, .T. ) ;
#202 = DIRECTION ( 'NONE',  ( 0.000000000000000000, 0.000000000000000000, 1.000000000000000000 ) ) ;
#203 = EDGE_CURVE ( 'NONE', #474, #301, #501, .T. ) ;
#204 = ORIENTED_EDGE ( 'NONE', *, *, #241, .T. ) ;
#205 = DIRECTION ( 'NONE',  ( -0.000000000000000000, 1.000000000000000000, -0.000000000000000000 ) ) ;
#206 = CIRCLE ( 'NONE', #80, 1.899999999999999911 ) ;
#207 = AXIS2_PLACEMENT_3D ( 'NONE', #168, #479, #430 ) ;
#208 = CIRCLE ( 'NONE', #331, 0.7500000000000000000 ) ;
#209 = EDGE_CURVE ( 'NONE', #571, #532, #52, .T. ) ;
#210 = DIRECTION ( 'NONE',  ( -0.8660254037844388186, 0.000000000000000000, 0.4999999999999997224 ) ) ;
#211 = CARTESIAN_POINT ( 'NONE',  ( 0.7499999999999995559, 6.000000000000001776, 0.4330127018922195758 ) ) ;
#212 = CARTESIAN_POINT ( 'NONE',  ( -1.450678315324153825E-17, 5.000000000000001776, -0.8660254037844391517 ) ) ;
#213 = VERTEX_POINT ( 'NONE', #550 ) ;
#214 = DIRECTION ( 'NONE',  ( 0.000000000000000000, 0.000000000000000000, -1.000000000000000000 ) ) ;
#215 = ADVANCED_FACE ( 'NONE', ( #97 ), #2, .T. ) ;
#216 = DIRECTION ( 'NONE',  ( -0.000000000000000000, -1.000000000000000000, -0.000000000000000000 ) ) ;
#217 = FACE_OUTER_BOUND ( 'NONE', #356, .T. ) ;
#218 = ORIENTED_EDGE ( 'NONE', *, *, #257, .F. ) ;
#219 = DIRECTION ( 'NONE',  ( 0.000000000000000000, -1.000000000000000000, -0.000000000000000000 ) ) ;
#220 = PLANE ( 'NONE',  #363 ) ;
#221 = CARTESIAN_POINT ( 'NONE',  ( 0.000000000000000000, -6.123233995736790688E-17, -1.000000000000002665 ) ) ;
#222 = ADVANCED_FACE ( 'NONE', ( #155 ), #357, .T. ) ;
#223 = CARTESIAN_POINT ( 'NONE',  ( 2.326828918379971365E-16, 0.000000000000000000, 1.899999999999999911 ) ) ;
#224 = DIRECTION ( 'NONE',  ( 0.000000000000000000, 0.000000000000000000, -1.000000000000000000 ) ) ;
#225 = DIRECTION ( 'NONE',  ( 0.4999999999999997780, 0.000000000000000000, -0.8660254037844388186 ) ) ;
#226 = EDGE_CURVE ( 'NONE', #558, #435, #195, .T. ) ;
#227 = AXIS2_PLACEMENT_3D ( 'NONE', #59, #314, #214 ) ;
#228 = CARTESIAN_POINT ( 'NONE',  ( 0.000000000000000000, 5.800000000000001599, 0.000000000000000000 ) ) ;
#229 = DIRECTION ( 'NONE',  ( -0.000000000000000000, -1.000000000000000000, -0.000000000000000000 ) ) ;
#230 = ORIENTED_EDGE ( 'NONE', *, *, #226, .F. ) ;
#231 = CARTESIAN_POINT ( 'NONE',  ( 0.7499999999999995559, 5.000000000000001776, 0.4330127018922195758 ) ) ;
#232 = DIRECTION ( 'NONE',  ( 0.000000000000000000, 0.000000000000000000, -1.000000000000000000 ) ) ;
#233 = ORIENTED_EDGE ( 'NONE', *, *, #99, .F. ) ;
#234 = VECTOR ( 'NONE', #481, 1000.000000000000000 ) ;
#235 = ORIENTED_EDGE ( 'NONE', *, *, #3, .F. ) ;
#236 = VECTOR ( 'NONE', #25, 1000.000000000000000 ) ;
#237 = LINE ( 'NONE', #300, #395 ) ;
#238 = ORIENTED_EDGE ( 'NONE', *, *, #320, .F. ) ;
#239 = DIRECTION ( 'NONE',  ( 0.000000000000000000, -0.000000000000000000, 1.000000000000000000 ) ) ;
#240 = CARTESIAN_POINT ( 'NONE',  ( 0.000000000000000000, 0.000000000000000000, 0.000000000000000000 ) ) ;
#241 = EDGE_CURVE ( 'NONE', #456, #466, #298, .T. ) ;
#242 = ORIENTED_EDGE ( 'NONE', *, *, #188, .F. ) ;
#243 = DIRECTION ( 'NONE',  ( 0.000000000000000000, 0.000000000000000000, -1.000000000000000000 ) ) ;
#244 = CARTESIAN_POINT ( 'NONE',  ( 0.000000000000000000, 5.000000000000000888, 0.000000000000000000 ) ) ;
#245 = EDGE_CURVE ( 'NONE', #262, #456, #417, .T. ) ;
#246 = ORIENTED_EDGE ( 'NONE', *, *, #120, .F. ) ;
#247 = CARTESIAN_POINT ( 'NONE',  ( -0.7500000000000001110, 5.000000000000001776, -0.4330127018922200755 ) ) ;
#248 = VECTOR ( 'NONE', #62, 1000.000000000000114 ) ;
#249 = VECTOR ( 'NONE', #488, 1000.000000000000114 ) ;
#250 = AXIS2_PLACEMENT_3D ( 'NONE', #45, #541, #53 ) ;
#251 =( LENGTH_UNIT ( ) NAMED_UNIT ( * ) SI_UNIT ( .MILLI., .METRE. ) );
#252 = ORIENTED_EDGE ( 'NONE', *, *, #179, .T. ) ;
#253 = CARTESIAN_POINT ( 'NONE',  ( -1.450678315324153825E-17, 5.000000000000001776, -0.8660254037844391517 ) ) ;
#254 = EDGE_LOOP ( 'NONE', ( #518, #460, #325 ) ) ;
#255 = ORIENTED_EDGE ( 'NONE', *, *, #209, .F. ) ;
#256 = DIRECTION ( 'NONE',  ( 0.000000000000000000, 0.000000000000000000, -1.000000000000000000 ) ) ;
#257 = EDGE_CURVE ( 'NONE', #144, #507, #515, .T. ) ;
#258 = CARTESIAN_POINT ( 'NONE',  ( 0.000000000000000000, 4.000000000000000888, 0.000000000000000000 ) ) ;
#259 = DIRECTION ( 'NONE',  ( -0.000000000000000000, 1.000000000000000000, 0.000000000000000000 ) ) ;
#260 = DIRECTION ( 'NONE',  ( -1.000000000000000000, 0.000000000000000000, 0.000000000000000000 ) ) ;
#261 = FACE_OUTER_BOUND ( 'NONE', #546, .T. ) ;
#262 = VERTEX_POINT ( 'NONE', #468 ) ;
#263 = EDGE_LOOP ( 'NONE', ( #178, #404 ) ) ;
#264 = FACE_OUTER_BOUND ( 'NONE', #402, .T. ) ;
#265 = DIRECTION ( 'NONE',  ( 0.8660254037844388186, 0.000000000000000000, -0.4999999999999996114 ) ) ;
#266 = ORIENTED_EDGE ( 'NONE', *, *, #397, .F. ) ;
#267 = AXIS2_PLACEMENT_3D ( 'NONE', #7, #316, #521 ) ;
#268 = CIRCLE ( 'NONE', #227, 1.699999999999999734 ) ;
#269 = PLANE ( 'NONE',  #392 ) ;
#270 = DIRECTION ( 'NONE',  ( -0.000000000000000000, 1.000000000000000000, -0.000000000000000000 ) ) ;
#271 = DIRECTION ( 'NONE',  ( -0.000000000000000000, -1.000000000000000000, -0.000000000000000000 ) ) ;
#272 = CARTESIAN_POINT ( 'NONE',  ( 1.224646799147353454E-16, 4.000000000000000000, 0.9999999999999995559 ) ) ;
#273 = EDGE_CURVE ( 'NONE', #495, #213, #268, .T. ) ;
#274 = LINE ( 'NONE', #231, #174 ) ;
#275 = DIRECTION ( 'NONE',  ( -0.000000000000000000, -1.000000000000000000, -0.000000000000000000 ) ) ;
#276 = UNCERTAINTY_MEASURE_WITH_UNIT (LENGTH_MEASURE( 1.000000000000000082E-05 ), #484, 'distance_accuracy_value', 'NONE');
#277 = CARTESIAN_POINT ( 'NONE',  ( -0.7500000000000001110, 6.000000000000001776, -0.4330127018922200755 ) ) ;
#278 = CLOSED_SHELL ( 'NONE', ( #199, #610, #34, #464, #622, #411, #110, #222, #61, #215, #351, #46, #166, #282, #577, #492, #70, #84, #529, #302, #312, #596, #291 ) ) ;
#279 = CONICAL_SURFACE ( 'NONE', #153, 0.7500000000000000000, 1.047197551196600074 ) ;
#280 = DIRECTION ( 'NONE',  ( 0.000000000000000000, -0.000000000000000000, 1.000000000000000000 ) ) ;
#281 = ORIENTED_EDGE ( 'NONE', *, *, #562, .F. ) ;
#282 = ADVANCED_FACE ( 'NONE', ( #414 ), #69, .T. ) ;
#283 = VERTEX_POINT ( 'NONE', #462 ) ;
#284 = CARTESIAN_POINT ( 'NONE',  ( 0.000000000000000000, 5.000000000000000888, 0.000000000000000000 ) ) ;
#285 = VERTEX_POINT ( 'NONE', #9 ) ;
#286 = PRODUCT_DEFINITION_SHAPE ( 'NONE', 'NONE',  #362 ) ;
#287 = ORIENTED_EDGE ( 'NONE', *, *, #10, .F. ) ;
#288 = AXIS2_PLACEMENT_3D ( 'NONE', #575, #225, #524 ) ;
#289 = ORIENTED_EDGE ( 'NONE', *, *, #556, .F. ) ;
#290 = LINE ( 'NONE', #457, #361 ) ;
#291 = ADVANCED_FACE ( 'NONE', ( #261 ), #279, .F. ) ;
#292 = FACE_OUTER_BOUND ( 'NONE', #96, .T. ) ;
#293 = ORIENTED_EDGE ( 'NONE', *, *, #116, .F. ) ;
#294 = CARTESIAN_POINT ( 'NONE',  ( 0.000000000000000000, 0.000000000000000000, 0.000000000000000000 ) ) ;
#295 = DIRECTION ( 'NONE',  ( 0.000000000000000000, 0.000000000000000000, -1.000000000000000000 ) ) ;
#296 = VERTEX_POINT ( 'NONE', #115 ) ;
#297 = FACE_OUTER_BOUND ( 'NONE', #588, .T. ) ;
#298 = CIRCLE ( 'NONE', #431, 0.7500000000000000000 ) ;
#299 = EDGE_LOOP ( 'NONE', ( #509, #658 ) ) ;
#300 = CARTESIAN_POINT ( 'NONE',  ( 0.000000000000000000, 0.000000000000000000, -1.899999999999999911 ) ) ;
#301 = VERTEX_POINT ( 'NONE', #618 ) ;
#302 = ADVANCED_FACE ( 'NONE', ( #471 ), #17, .F. ) ;
#303 = DIRECTION ( 'NONE',  ( -0.000000000000000000, -1.000000000000000000, -0.000000000000000000 ) ) ;
#304 = ORIENTED_EDGE ( 'NONE', *, *, #436, .T. ) ;
#305 = EDGE_LOOP ( 'NONE', ( #138, #593, #111, #416 ) ) ;
#306 = DIRECTION ( 'NONE',  ( -0.000000000000000000, 1.000000000000000000, 0.000000000000000000 ) ) ;
#307 = FACE_OUTER_BOUND ( 'NONE', #182, .T. ) ;
#308 = CIRCLE ( 'NONE', #472, 0.9999999999999995559 ) ;
#309 = VECTOR ( 'NONE', #566, 1000.000000000000000 ) ;
#310 = ORIENTED_EDGE ( 'NONE', *, *, #556, .T. ) ;
#311 = ORIENTED_EDGE ( 'NONE', *, *, #14, .T. ) ;
#312 = ADVANCED_FACE ( 'NONE', ( #217 ), #573, .F. ) ;
#313 = DIRECTION ( 'NONE',  ( -0.8660254037844388186, 0.000000000000000000, 0.4999999999999997224 ) ) ;
#314 = DIRECTION ( 'NONE',  ( -0.000000000000000000, -1.000000000000000000, -0.000000000000000000 ) ) ;
#315 = ORIENTED_EDGE ( 'NONE', *, *, #179, .F. ) ;
#316 = DIRECTION ( 'NONE',  ( -0.000000000000000000, 1.000000000000000000, 0.000000000000000000 ) ) ;
#317 = DIRECTION ( 'NONE',  ( 0.8660254037844387076, 0.000000000000000000, 0.4999999999999999445 ) ) ;
#318 = VECTOR ( 'NONE', #270, 1000.000000000000000 ) ;
#319 = DIRECTION ( 'NONE',  ( 0.000000000000000000, 0.000000000000000000, -1.000000000000000000 ) ) ;
#320 = EDGE_CURVE ( 'NONE', #79, #367, #420, .T. ) ;
#321 = FACE_OUTER_BOUND ( 'NONE', #470, .T. ) ;
#322 = ADVANCED_BREP_SHAPE_REPRESENTATION ( 'DIN912 - M2X4', ( #527, #657 ), #568 ) ;
#323 = CARTESIAN_POINT ( 'NONE',  ( -0.7500000000000001110, 5.000000000000001776, -0.4330127018922200755 ) ) ;
#324 = CARTESIAN_POINT ( 'NONE',  ( 0.7499999999999997780, 5.000000000000001776, -0.4330127018922202420 ) ) ;
#325 = ORIENTED_EDGE ( 'NONE', *, *, #90, .T. ) ;
#326 = LINE ( 'NONE', #223, #534 ) ;
#327 = EDGE_CURVE ( 'NONE', #456, #169, #625, .T. ) ;
#328 = SURFACE_STYLE_USAGE ( .BOTH. , #184 ) ;
#329 = AXIS2_PLACEMENT_3D ( 'NONE', #506, #601, #390 ) ;
#330 = AXIS2_PLACEMENT_3D ( 'NONE', #181, #489, #633 ) ;
#331 = AXIS2_PLACEMENT_3D ( 'NONE', #284, #275, #232 ) ;
#332 = ORIENTED_EDGE ( 'NONE', *, *, #51, .F. ) ;
#333 =( NAMED_UNIT ( * ) PLANE_ANGLE_UNIT ( ) SI_UNIT ( $, .RADIAN. ) );
#334 = ORIENTED_EDGE ( 'NONE', *, *, #327, .F. ) ;
#335 = CARTESIAN_POINT ( 'NONE',  ( -0.7500000000000001110, 5.000000000000001776, 0.4330127018922189097 ) ) ;
#336 = ORIENTED_EDGE ( 'NONE', *, *, #116, .T. ) ;
#337 = DIRECTION ( 'NONE',  ( 0.8660254037844387076, 0.000000000000000000, 0.4999999999999999445 ) ) ;
#338 = CIRCLE ( 'NONE', #26, 1.899999999999999911 ) ;
#339 = LINE ( 'NONE', #60, #37 ) ;
#340 = ORIENTED_EDGE ( 'NONE', *, *, #539, .F. ) ;
#341 = TOROIDAL_SURFACE ( 'NONE', #453, 1.699999999999999734, 0.2000000000000003164 ) ;
#342 = AXIS2_PLACEMENT_3D ( 'NONE', #244, #647, #551 ) ;
#343 = LINE ( 'NONE', #94, #493 ) ;
#344 = EDGE_CURVE ( 'NONE', #641, #301, #57, .T. ) ;
#345 = CARTESIAN_POINT ( 'NONE',  ( 1.224646799147354686E-16, 0.000000000000000000, 1.000000000000001110 ) ) ;
#346 = ORIENTED_EDGE ( 'NONE', *, *, #209, .T. ) ;
#347 = CARTESIAN_POINT ( 'NONE',  ( 0.1875000000000003886, 6.000000000000001776, 0.9742785792574930603 ) ) ;
#348 = FACE_OUTER_BOUND ( 'NONE', #263, .T. ) ;
#349 = VERTEX_POINT ( 'NONE', #373 ) ;
#350 = DIRECTION ( 'NONE',  ( 0.8660254037844387076, -0.000000000000000000, 0.4999999999999998890 ) ) ;
#351 = ADVANCED_FACE ( 'NONE', ( #478 ), #220, .T. ) ;
#352 = EDGE_LOOP ( 'NONE', ( #442, #612, #204 ) ) ;
#353 = VECTOR ( 'NONE', #40, 1000.000000000000114 ) ;
#354 = DIRECTION ( 'NONE',  ( 0.000000000000000000, 0.000000000000000000, -1.000000000000000000 ) ) ;
#355 = CIRCLE ( 'NONE', #579, 1.899999999999999911 ) ;
#356 = EDGE_LOOP ( 'NONE', ( #469, #561, #119, #595, #626 ) ) ;
#357 = CYLINDRICAL_SURFACE ( 'NONE', #589, 1.899999999999999911 ) ;
#358 = CARTESIAN_POINT ( 'NONE',  ( -0.7500000000000001110, 5.000000000000001776, -0.4330127018922200755 ) ) ;
#359 = PLANE ( 'NONE',  #655 ) ;
#360 = CARTESIAN_POINT ( 'NONE',  ( 0.7499999999999996669, 6.000000000000001776, -8.144063758537577017E-32 ) ) ;
#361 = VECTOR ( 'NONE', #202, 1000.000000000000000 ) ;
#362 = PRODUCT_DEFINITION ( 'UNKNOWN', '', #441, #557 ) ;
#363 = AXIS2_PLACEMENT_3D ( 'NONE', #578, #259, #280 ) ;
#364 = CIRCLE ( 'NONE', #342, 0.7500000000000000000 ) ;
#365 = CARTESIAN_POINT ( 'NONE',  ( 0.000000000000000000, 4.000000000000000000, 0.000000000000000000 ) ) ;
#366 = DIRECTION ( 'NONE',  ( 0.000000000000000000, -0.000000000000000000, 1.000000000000000000 ) ) ;
#367 = VERTEX_POINT ( 'NONE', #434 ) ;
#368 = DIRECTION ( 'NONE',  ( 2.503857664561928925E-16, 0.000000000000000000, -1.000000000000000000 ) ) ;
#369 = CARTESIAN_POINT ( 'NONE',  ( -0.7500000000000001110, 5.000000000000001776, 0.4330127018922189097 ) ) ;
#370 = FACE_OUTER_BOUND ( 'NONE', #623, .T. ) ;
#371 = EDGE_CURVE ( 'NONE', #648, #79, #339, .T. ) ;
#372 = LINE ( 'NONE', #477, #598 ) ;
#373 = CARTESIAN_POINT ( 'NONE',  ( 2.326828918379971365E-16, 4.000000000000000888, 1.899999999999999911 ) ) ;
#374 = PLANE ( 'NONE',  #394 ) ;
#375 = AXIS2_PLACEMENT_3D ( 'NONE', #425, #160, #511 ) ;
#376 = CARTESIAN_POINT ( 'NONE',  ( 0.3750000000000001110, 5.000000000000001776, -0.6495190528383296691 ) ) ;
#377 = CARTESIAN_POINT ( 'NONE',  ( 0.000000000000000000, 5.000000000000000888, 0.000000000000000000 ) ) ;
#378 = DIRECTION ( 'NONE',  ( -0.000000000000000000, -1.000000000000000000, -0.000000000000000000 ) ) ;
#379 = ORIENTED_EDGE ( 'NONE', *, *, #562, .T. ) ;
#380 = CARTESIAN_POINT ( 'NONE',  ( 0.7500000000000000000, 6.000000000000001776, 0.000000000000000000 ) ) ;
#381 = DIRECTION ( 'NONE',  ( -0.8660254037844387076, 0.000000000000000000, -0.4999999999999997224 ) ) ;
#382 = VERTEX_POINT ( 'NONE', #423 ) ;
#383 = FACE_OUTER_BOUND ( 'NONE', #520, .T. ) ;
#384 = AXIS2_PLACEMENT_3D ( 'NONE', #56, #413, #619 ) ;
#385 = CARTESIAN_POINT ( 'NONE',  ( 9.184850993605149670E-17, 5.000000000000000888, -0.7500000000000000000 ) ) ;
#386 = ORIENTED_EDGE ( 'NONE', *, *, #590, .T. ) ;
#387 = VERTEX_POINT ( 'NONE', #74 ) ;
#388 = EDGE_CURVE ( 'NONE', #43, #466, #580, .T. ) ;
#389 = ORIENTED_EDGE ( 'NONE', *, *, #517, .F. ) ;
#390 = DIRECTION ( 'NONE',  ( 0.000000000000000000, 0.000000000000000000, 1.000000000000000000 ) ) ;
#391 = DIRECTION ( 'NONE',  ( -0.000000000000000000, -1.000000000000000000, -0.000000000000000000 ) ) ;
#392 = AXIS2_PLACEMENT_3D ( 'NONE', #615, #219, #319 ) ;
#393 = ORIENTED_EDGE ( 'NONE', *, *, #652, .F. ) ;
#394 = AXIS2_PLACEMENT_3D ( 'NONE', #380, #176, #125 ) ;
#395 = VECTOR ( 'NONE', #391, 1000.000000000000000 ) ;
#396 = CARTESIAN_POINT ( 'NONE',  ( 1.093118657321079453E-17, 5.000000000000001776, 0.8660254037844382635 ) ) ;
#397 = EDGE_CURVE ( 'NONE', #543, #500, #71, .T. ) ;
#398 = LINE ( 'NONE', #499, #559 ) ;
#399 = ORIENTED_EDGE ( 'NONE', *, *, #327, .T. ) ;
#400 = CARTESIAN_POINT ( 'NONE',  ( 0.000000000000000000, 0.000000000000000000, 0.000000000000000000 ) ) ;
#401 = EDGE_CURVE ( 'NONE', #283, #349, #407, .T. ) ;
#402 = EDGE_LOOP ( 'NONE', ( #549, #505, #54, #193 ) ) ;
#403 = DIRECTION ( 'NONE',  ( 0.000000000000000000, -0.000000000000000000, 1.000000000000000000 ) ) ;
#404 = ORIENTED_EDGE ( 'NONE', *, *, #226, .T. ) ;
#405 = AXIS2_PLACEMENT_3D ( 'NONE', #377, #127, #224 ) ;
#406 = CARTESIAN_POINT ( 'NONE',  ( 0.000000000000000000, 5.000000000000001776, 0.000000000000000000 ) ) ;
#407 = CIRCLE ( 'NONE', #207, 1.899999999999999911 ) ;
#408 = AXIS2_PLACEMENT_3D ( 'NONE', #432, #271, #581 ) ;
#409 = DIRECTION ( 'NONE',  ( 0.000000000000000000, 0.000000000000000000, -1.000000000000000000 ) ) ;
#410 = FACE_OUTER_BOUND ( 'NONE', #106, .T. ) ;
#411 = ADVANCED_FACE ( 'NONE', ( #66, #383 ), #374, .T. ) ;
#412 = DIRECTION ( 'NONE',  ( 0.000000000000000000, 0.000000000000000000, 1.000000000000000000 ) ) ;
#413 = DIRECTION ( 'NONE',  ( -0.000000000000000000, -1.000000000000000000, -0.000000000000000000 ) ) ;
#414 = FACE_OUTER_BOUND ( 'NONE', #254, .T. ) ;
#415 = VECTOR ( 'NONE', #403, 1000.000000000000000 ) ;
#416 = ORIENTED_EDGE ( 'NONE', *, *, #539, .T. ) ;
#417 = CIRCLE ( 'NONE', #555, 0.7500000000000000000 ) ;
#418 = CIRCLE ( 'NONE', #463, 1.699999999999999734 ) ;
#419 = LINE ( 'NONE', #347, #533 ) ;
#420 = LINE ( 'NONE', #360, #18 ) ;
#421 = EDGE_LOOP ( 'NONE', ( #497, #165, #246, #148, #600 ) ) ;
#422 = EDGE_CURVE ( 'NONE', #387, #100, #81, .T. ) ;
#423 = CARTESIAN_POINT ( 'NONE',  ( 1.093118657321079453E-17, 6.000000000000001776, 0.8660254037844382635 ) ) ;
#424 = EDGE_LOOP ( 'NONE', ( #235, #289, #238, #4, #242, #510 ) ) ;
#425 = CARTESIAN_POINT ( 'NONE',  ( 0.7499999999999995559, 5.000000000000001776, 0.4330127018922195758 ) ) ;
#426 = DIRECTION ( 'NONE',  ( 2.503857664561928925E-16, 0.000000000000000000, -1.000000000000000000 ) ) ;
#427 = FILL_AREA_STYLE_COLOUR ( '', #485 ) ;
#428 = CARTESIAN_POINT ( 'NONE',  ( 2.081899558550500033E-16, 5.800000000000001599, 1.699999999999999734 ) ) ;
#429 = AXIS2_PLACEMENT_3D ( 'NONE', #358, #260, #11 ) ;
#430 = DIRECTION ( 'NONE',  ( 0.000000000000000000, 0.000000000000000000, -1.000000000000000000 ) ) ;
#431 = AXIS2_PLACEMENT_3D ( 'NONE', #55, #5, #563 ) ;
#432 = CARTESIAN_POINT ( 'NONE',  ( 0.000000000000000000, 5.000000000000000888, 0.000000000000000000 ) ) ;
#433 = LINE ( 'NONE', #586, #163 ) ;
#434 = CARTESIAN_POINT ( 'NONE',  ( 0.7499999999999997780, 6.000000000000001776, -0.4330127018922202420 ) ) ;
#435 = VERTEX_POINT ( 'NONE', #221 ) ;
#436 = EDGE_CURVE ( 'NONE', #648, #296, #274, .T. ) ;
#437 = DIRECTION ( 'NONE',  ( 0.000000000000000000, 0.000000000000000000, -1.000000000000000000 ) ) ;
#438 = EDGE_LOOP ( 'NONE', ( #653, #121, #287, #604, #516 ) ) ;
#439 = VECTOR ( 'NONE', #313, 1000.000000000000114 ) ;
#440 = CYLINDRICAL_SURFACE ( 'NONE', #646, 1.000000000000001110 ) ;
#441 = PRODUCT_DEFINITION_FORMATION_WITH_SPECIFIED_SOURCE ( 'ANY', '', #537, .NOT_KNOWN. ) ;
#442 = ORIENTED_EDGE ( 'NONE', *, *, #120, .T. ) ;
#443 = EDGE_CURVE ( 'NONE', #213, #189, #113, .T. ) ;
#444 = DIRECTION ( 'NONE',  ( -0.000000000000000000, -1.000000000000000000, -0.000000000000000000 ) ) ;
#445 = ORIENTED_EDGE ( 'NONE', *, *, #21, .F. ) ;
#446 = DIRECTION ( 'NONE',  ( -0.000000000000000000, -1.000000000000000000, -0.000000000000000000 ) ) ;
#447 = DIRECTION ( 'NONE',  ( 0.000000000000000000, 0.000000000000000000, 1.000000000000000000 ) ) ;
#448 = EDGE_LOOP ( 'NONE', ( #47, #617 ) ) ;
#449 = DIRECTION ( 'NONE',  ( -0.000000000000000000, -1.000000000000000000, -0.000000000000000000 ) ) ;
#450 =( NAMED_UNIT ( * ) PLANE_ANGLE_UNIT ( ) SI_UNIT ( $, .RADIAN. ) );
#451 = AXIS2_PLACEMENT_3D ( 'NONE', #406, #149, #239 ) ;
#452 = EDGE_LOOP ( 'NONE', ( #93, #304, #89 ) ) ;
#453 = AXIS2_PLACEMENT_3D ( 'NONE', #228, #183, #180 ) ;
#454 = FACE_OUTER_BOUND ( 'NONE', #305, .T. ) ;
#455 =( NAMED_UNIT ( * ) SI_UNIT ( $, .STERADIAN. ) SOLID_ANGLE_UNIT ( ) );
#456 = VERTEX_POINT ( 'NONE', #627 ) ;
#457 = CARTESIAN_POINT ( 'NONE',  ( -0.7500000000000001110, 5.000000000000001776, -0.4330127018922200755 ) ) ;
#458 = VERTEX_POINT ( 'NONE', #642 ) ;
#459 = DIRECTION ( 'NONE',  ( 0.000000000000000000, 0.000000000000000000, -1.000000000000000000 ) ) ;
#460 = ORIENTED_EDGE ( 'NONE', *, *, #388, .T. ) ;
#461 = PLANE ( 'NONE',  #429 ) ;
#462 = CARTESIAN_POINT ( 'NONE',  ( 0.000000000000000000, 4.000000000000000888, -1.899999999999999911 ) ) ;
#463 = AXIS2_PLACEMENT_3D ( 'NONE', #640, #229, #639 ) ;
#464 = ADVANCED_FACE ( 'NONE', ( #172 ), #341, .T. ) ;
#465 = DIRECTION ( 'NONE',  ( 0.000000000000000000, 0.000000000000000000, -1.000000000000000000 ) ) ;
#466 = VERTEX_POINT ( 'NONE', #29 ) ;
#467 = EDGE_CURVE ( 'NONE', #569, #648, #433, .T. ) ;
#468 = CARTESIAN_POINT ( 'NONE',  ( 0.000000000000000000, 5.000000000000000888, 0.7500000000000000000 ) ) ;
#469 = ORIENTED_EDGE ( 'NONE', *, *, #486, .T. ) ;
#470 = EDGE_LOOP ( 'NONE', ( #490, #233, #334, #136, #644 ) ) ;
#471 = FACE_OUTER_BOUND ( 'NONE', #438, .T. ) ;
#472 = AXIS2_PLACEMENT_3D ( 'NONE', #365, #109, #409 ) ;
#473 = EDGE_CURVE ( 'NONE', #458, #349, #326, .T. ) ;
#474 = VERTEX_POINT ( 'NONE', #277 ) ;
#475 = MECHANICAL_DESIGN_GEOMETRIC_PRESENTATION_REPRESENTATION (  '', ( #49 ), #28 ) ;
#476 = AXIS2_PLACEMENT_3D ( 'NONE', #192, #508, #295 ) ;
#477 = CARTESIAN_POINT ( 'NONE',  ( 0.1875000000000000555, 6.000000000000001776, -0.9742785792574940595 ) ) ;
#478 = FACE_OUTER_BOUND ( 'NONE', #452, .T. ) ;
#479 = DIRECTION ( 'NONE',  ( -0.000000000000000000, -1.000000000000000000, -0.000000000000000000 ) ) ;
#480 = LINE ( 'NONE', #22, #187 ) ;
#481 = DIRECTION ( 'NONE',  ( -0.000000000000000000, 1.000000000000000000, -0.000000000000000000 ) ) ;
#482 = PLANE ( 'NONE',  #288 ) ;
#483 = AXIS2_PLACEMENT_3D ( 'NONE', #605, #194, #496 ) ;
#484 =( LENGTH_UNIT ( ) NAMED_UNIT ( * ) SI_UNIT ( .MILLI., .METRE. ) );
#485 = COLOUR_RGB ( '',0.7921568627450980005, 0.8196078431372548767, 0.9333333333333333481 ) ;
#486 = EDGE_CURVE ( 'NONE', #382, #79, #643, .T. ) ;
#487 = ORIENTED_EDGE ( 'NONE', *, *, #41, .F. ) ;
#488 = DIRECTION ( 'NONE',  ( 1.060575238724908147E-16, 0.4999999999999979461, -0.8660254037844397068 ) ) ;
#489 = DIRECTION ( 'NONE',  ( -0.4999999999999998890, 0.000000000000000000, 0.8660254037844387076 ) ) ;
#490 = ORIENTED_EDGE ( 'NONE', *, *, #188, .T. ) ;
#491 = ORIENTED_EDGE ( 'NONE', *, *, #443, .F. ) ;
#492 = ADVANCED_FACE ( 'NONE', ( #321 ), #30, .F. ) ;
#493 = VECTOR ( 'NONE', #651, 1000.000000000000114 ) ;
#494 = LINE ( 'NONE', #548, #638 ) ;
#495 = VERTEX_POINT ( 'NONE', #177 ) ;
#496 = DIRECTION ( 'NONE',  ( 0.000000000000000000, 0.000000000000000000, -1.000000000000000000 ) ) ;
#497 = ORIENTED_EDGE ( 'NONE', *, *, #203, .T. ) ;
#498 = CARTESIAN_POINT ( 'NONE',  ( 0.000000000000000000, 5.000000000000000888, 0.7500000000000000000 ) ) ;
#499 = CARTESIAN_POINT ( 'NONE',  ( -0.7500000000000001110, 5.000000000000001776, 0.4330127018922189097 ) ) ;
#500 = VERTEX_POINT ( 'NONE', #385 ) ;
#501 = LINE ( 'NONE', #145, #415 ) ;
#502 = LINE ( 'NONE', #345, #8 ) ;
#503 = VECTOR ( 'NONE', #608, 1000.000000000000114 ) ;
#504 = EDGE_CURVE ( 'NONE', #285, #500, #208, .T. ) ;
#505 = ORIENTED_EDGE ( 'NONE', *, *, #473, .T. ) ;
#506 = CARTESIAN_POINT ( 'NONE',  ( 0.000000000000000000, 5.000000000000000888, 0.000000000000000000 ) ) ;
#507 = VERTEX_POINT ( 'NONE', #83 ) ;
#508 = DIRECTION ( 'NONE',  ( 0.000000000000000000, -1.000000000000000000, -0.000000000000000000 ) ) ;
#509 = ORIENTED_EDGE ( 'NONE', *, *, #401, .T. ) ;
#510 = ORIENTED_EDGE ( 'NONE', *, *, #203, .F. ) ;
#511 = DIRECTION ( 'NONE',  ( 2.503857664561928925E-16, 0.000000000000000000, -1.000000000000000000 ) ) ;
#512 = EDGE_CURVE ( 'NONE', #213, #495, #418, .T. ) ;
#513 = FACE_BOUND ( 'NONE', #448, .T. ) ;
#514 = ORIENTED_EDGE ( 'NONE', *, *, #257, .T. ) ;
#515 = LINE ( 'NONE', #212, #309 ) ;
#516 = ORIENTED_EDGE ( 'NONE', *, *, #371, .T. ) ;
#517 = EDGE_CURVE ( 'NONE', #189, #458, #355, .T. ) ;
#518 = ORIENTED_EDGE ( 'NONE', *, *, #77, .T. ) ;
#519 = CARTESIAN_POINT ( 'NONE',  ( 0.000000000000000000, 5.000000000000001776, 0.000000000000000000 ) ) ;
#520 = EDGE_LOOP ( 'NONE', ( #585, #186 ) ) ;
#521 = DIRECTION ( 'NONE',  ( 0.000000000000000000, -0.000000000000000000, 1.000000000000000000 ) ) ;
#522 = APPLICATION_CONTEXT ( 'automotive_design' ) ;
#523 = CARTESIAN_POINT ( 'NONE',  ( -0.7500000000000001110, 5.000000000000001776, 0.4330127018922189097 ) ) ;
#524 = DIRECTION ( 'NONE',  ( -0.8660254037844387076, 0.000000000000000000, -0.4999999999999997224 ) ) ;
#525 = LINE ( 'NONE', #73, #234 ) ;
#526 = CARTESIAN_POINT ( 'NONE',  ( 9.184850993605149670E-17, 5.000000000000000888, -0.7500000000000000000 ) ) ;
#527 = MANIFOLD_SOLID_BREP ( 'Key Cutout', #278 ) ;
#528 = LINE ( 'NONE', #75, #236 ) ;
#529 = ADVANCED_FACE ( 'NONE', ( #370 ), #482, .F. ) ;
#530 = DIRECTION ( 'NONE',  ( -0.000000000000000000, -1.000000000000000000, -0.000000000000000000 ) ) ;
#531 = FACE_OUTER_BOUND ( 'NONE', #352, .T. ) ;
#532 = VERTEX_POINT ( 'NONE', #376 ) ;
#533 = VECTOR ( 'NONE', #350, 1000.000000000000000 ) ;
#534 = VECTOR ( 'NONE', #72, 1000.000000000000000 ) ;
#535 =( NAMED_UNIT ( * ) SI_UNIT ( $, .STERADIAN. ) SOLID_ANGLE_UNIT ( ) );
#536 = ORIENTED_EDGE ( 'NONE', *, *, #583, .T. ) ;
#537 = PRODUCT ( 'DIN912 - M2X4', 'DIN912 - M2X4', '', ( #88 ) ) ;
#538 = CARTESIAN_POINT ( 'NONE',  ( 0.000000000000000000, 5.800000000000001599, 0.000000000000000000 ) ) ;
#539 = EDGE_CURVE ( 'NONE', #500, #532, #175, .T. ) ;
#540 = ORIENTED_EDGE ( 'NONE', *, *, #77, .F. ) ;
#541 = DIRECTION ( 'NONE',  ( -0.000000000000000000, 1.000000000000000000, 0.000000000000000000 ) ) ;
#542 = UNCERTAINTY_MEASURE_WITH_UNIT (LENGTH_MEASURE( 1.000000000000000082E-05 ), #251, 'distance_accuracy_value', 'NONE');
#543 = VERTEX_POINT ( 'NONE', #584 ) ;
#544 = FACE_OUTER_BOUND ( 'NONE', #129, .T. ) ;
#545 = AXIS2_PLACEMENT_3D ( 'NONE', #82, #24, #76 ) ;
#546 = EDGE_LOOP ( 'NONE', ( #266, #336, #616, #19, #315, #340 ) ) ;
#547 = CARTESIAN_POINT ( 'NONE',  ( 0.000000000000000000, 5.800000000000001599, 0.000000000000000000 ) ) ;
#548 = CARTESIAN_POINT ( 'NONE',  ( 0.7499999999999997780, 5.000000000000001776, -0.4330127018922202420 ) ) ;
#549 = ORIENTED_EDGE ( 'NONE', *, *, #517, .T. ) ;
#550 = CARTESIAN_POINT ( 'NONE',  ( 0.000000000000000000, 6.000000000000001776, -1.699999999999999734 ) ) ;
#551 = DIRECTION ( 'NONE',  ( 0.000000000000000000, 0.000000000000000000, -1.000000000000000000 ) ) ;
#552 = EDGE_LOOP ( 'NONE', ( #13, #87, #133, #197 ) ) ;
#553 = CARTESIAN_POINT ( 'NONE',  ( 0.000000000000000000, 5.800000000000001599, 0.000000000000000000 ) ) ;
#554 = DIRECTION ( 'NONE',  ( 1.000000000000000000, 0.000000000000000000, 0.000000000000000000 ) ) ;
#555 = AXIS2_PLACEMENT_3D ( 'NONE', #15, #171, #118 ) ;
#556 = EDGE_CURVE ( 'NONE', #367, #507, #480, .T. ) ;
#557 = PRODUCT_DEFINITION_CONTEXT ( 'detailed design', #170, 'design' ) ;
#558 = VERTEX_POINT ( 'NONE', #126 ) ;
#559 = VECTOR ( 'NONE', #337, 1000.000000000000000 ) ;
#560 = DIRECTION ( 'NONE',  ( 0.000000000000000000, 0.000000000000000000, -1.000000000000000000 ) ) ;
#561 = ORIENTED_EDGE ( 'NONE', *, *, #371, .F. ) ;
#562 = EDGE_CURVE ( 'NONE', #387, #435, #528, .T. ) ;
#563 = DIRECTION ( 'NONE',  ( 0.000000000000000000, 0.000000000000000000, -1.000000000000000000 ) ) ;
#564 = CARTESIAN_POINT ( 'NONE',  ( -1.450678315324153825E-17, 5.000000000000001776, -0.8660254037844391517 ) ) ;
#565 = FACE_OUTER_BOUND ( 'NONE', #421, .T. ) ;
#566 = DIRECTION ( 'NONE',  ( -0.000000000000000000, 1.000000000000000000, -0.000000000000000000 ) ) ;
#567 = AXIS2_PLACEMENT_3D ( 'NONE', #105, #303, #256 ) ;
#568 =( GEOMETRIC_REPRESENTATION_CONTEXT ( 3 ) GLOBAL_UNCERTAINTY_ASSIGNED_CONTEXT ( ( #542 ) ) GLOBAL_UNIT_ASSIGNED_CONTEXT ( ( #251, #450, #455 ) ) REPRESENTATION_CONTEXT ( 'NONE', 'WORKASPACE' ) );
#569 = VERTEX_POINT ( 'NONE', #128 ) ;
#570 = CARTESIAN_POINT ( 'NONE',  ( 1.093118657321079453E-17, 5.000000000000001776, 0.8660254037844382635 ) ) ;
#571 = VERTEX_POINT ( 'NONE', #324 ) ;
#572 = PLANE ( 'NONE',  #267 ) ;
#573 = PLANE ( 'NONE',  #27 ) ;
#574 = DIRECTION ( 'NONE',  ( 0.000000000000000000, 0.000000000000000000, 1.000000000000000000 ) ) ;
#575 = CARTESIAN_POINT ( 'NONE',  ( 0.7499999999999997780, 5.000000000000001776, -0.4330127018922202420 ) ) ;
#576 = DIRECTION ( 'NONE',  ( 0.000000000000000000, 0.000000000000000000, -1.000000000000000000 ) ) ;
#577 = ADVANCED_FACE ( 'NONE', ( #531 ), #78, .T. ) ;
#578 = CARTESIAN_POINT ( 'NONE',  ( 0.000000000000000000, 5.000000000000001776, 0.000000000000000000 ) ) ;
#579 = AXIS2_PLACEMENT_3D ( 'NONE', #538, #378, #437 ) ;
#580 = LINE ( 'NONE', #323, #599 ) ;
#581 = DIRECTION ( 'NONE',  ( 0.000000000000000000, 0.000000000000000000, -1.000000000000000000 ) ) ;
#582 = DIRECTION ( 'NONE',  ( -0.4999999999999997224, 0.000000000000000000, -0.8660254037844388186 ) ) ;
#583 = EDGE_CURVE ( 'NONE', #100, #558, #502, .T. ) ;
#584 = CARTESIAN_POINT ( 'NONE',  ( 0.000000000000000000, 4.566987298107783921, 0.000000000000000000 ) ) ;
#585 = ORIENTED_EDGE ( 'NONE', *, *, #512, .F. ) ;
#586 = CARTESIAN_POINT ( 'NONE',  ( 1.093118657321079453E-17, 5.000000000000001776, 0.8660254037844382635 ) ) ;
#587 = FILL_AREA_STYLE ('',( #427 ) ) ;
#588 = EDGE_LOOP ( 'NONE', ( #293, #167, #33, #58, #31, #39 ) ) ;
#589 = AXIS2_PLACEMENT_3D ( 'NONE', #400, #151, #354 ) ;
#590 = EDGE_CURVE ( 'NONE', #571, #367, #494, .T. ) ;
#591 = ORIENTED_EDGE ( 'NONE', *, *, #583, .F. ) ;
#592 = SHAPE_DEFINITION_REPRESENTATION ( #286, #322 ) ;
#593 = ORIENTED_EDGE ( 'NONE', *, *, #21, .T. ) ;
#594 = APPLICATION_PROTOCOL_DEFINITION ( 'draft international standard', 'automotive_design', 1998, #522 ) ;
#595 = ORIENTED_EDGE ( 'NONE', *, *, #137, .F. ) ;
#596 = ADVANCED_FACE ( 'NONE', ( #292 ), #139, .T. ) ;
#597 = LINE ( 'NONE', #498, #353 ) ;
#598 = VECTOR ( 'NONE', #210, 1000.000000000000114 ) ;
#599 = VECTOR ( 'NONE', #574, 1000.000000000000000 ) ;
#600 = ORIENTED_EDGE ( 'NONE', *, *, #161, .T. ) ;
#601 = DIRECTION ( 'NONE',  ( 0.000000000000000000, 1.000000000000000000, 0.000000000000000000 ) ) ;
#602 = EDGE_CURVE ( 'NONE', #641, #456, #398, .T. ) ;
#603 = CARTESIAN_POINT ( 'NONE',  ( 0.000000000000000000, 0.000000000000000000, 0.000000000000000000 ) ) ;
#604 = ORIENTED_EDGE ( 'NONE', *, *, #436, .F. ) ;
#605 = CARTESIAN_POINT ( 'NONE',  ( 0.000000000000000000, 5.000000000000000888, 0.000000000000000000 ) ) ;
#606 = DIRECTION ( 'NONE',  ( -0.8660254037844387076, 0.000000000000000000, -0.4999999999999997224 ) ) ;
#607 = ORIENTED_EDGE ( 'NONE', *, *, #473, .F. ) ;
#608 = DIRECTION ( 'NONE',  ( -0.8660254037844387076, 0.000000000000000000, -0.4999999999999997224 ) ) ;
#609 = CIRCLE ( 'NONE', #636, 0.2000000000000003164 ) ;
#610 = ADVANCED_FACE ( 'NONE', ( #544 ), #440, .T. ) ;
#611 = VECTOR ( 'NONE', #317, 1000.000000000000000 ) ;
#612 = ORIENTED_EDGE ( 'NONE', *, *, #602, .T. ) ;
#613 = DIRECTION ( 'NONE',  ( 0.000000000000000000, 0.000000000000000000, -1.000000000000000000 ) ) ;
#614 = DIRECTION ( 'NONE',  ( -0.000000000000000000, 1.000000000000000000, -0.000000000000000000 ) ) ;
#615 = CARTESIAN_POINT ( 'NONE',  ( 1.899999999999999911, 4.000000000000000000, 0.000000000000000000 ) ) ;
#616 = ORIENTED_EDGE ( 'NONE', *, *, #628, .F. ) ;
#617 = ORIENTED_EDGE ( 'NONE', *, *, #14, .F. ) ;
#618 = CARTESIAN_POINT ( 'NONE',  ( -0.7500000000000001110, 6.000000000000001776, 0.4330127018922189097 ) ) ;
#619 = DIRECTION ( 'NONE',  ( 0.000000000000000000, 0.000000000000000000, -1.000000000000000000 ) ) ;
#620 = CONICAL_SURFACE ( 'NONE', #329, 0.7500000000000000000, 1.047197551196600074 ) ;
#621 = VECTOR ( 'NONE', #122, 1000.000000000000114 ) ;
#622 = ADVANCED_FACE ( 'NONE', ( #348 ), #92, .T. ) ;
#623 = EDGE_LOOP ( 'NONE', ( #310, #218, #393, #255, #386 ) ) ;
#624 = CARTESIAN_POINT ( 'NONE',  ( -0.7500000000000001110, 5.000000000000001776, -0.4330127018922200755 ) ) ;
#625 = LINE ( 'NONE', #369, #611 ) ;
#626 = ORIENTED_EDGE ( 'NONE', *, *, #99, .T. ) ;
#627 = CARTESIAN_POINT ( 'NONE',  ( -0.3749999999999997780, 5.000000000000001776, 0.6495190528383287809 ) ) ;
#628 = EDGE_CURVE ( 'NONE', #569, #262, #364, .T. ) ;
#629 = PRESENTATION_STYLE_ASSIGNMENT (( #328 ) ) ;
#630 = LINE ( 'NONE', #564, #439 ) ;
#631 = DIRECTION ( 'NONE',  ( 2.503857664561928925E-16, 0.000000000000000000, -1.000000000000000000 ) ) ;
#632 = CARTESIAN_POINT ( 'NONE',  ( 0.000000000000000000, 4.000000000000000000, 0.000000000000000000 ) ) ;
#633 = DIRECTION ( 'NONE',  ( 0.8660254037844387076, 0.000000000000000000, 0.4999999999999998890 ) ) ;
#634 = EDGE_CURVE ( 'NONE', #189, #283, #237, .T. ) ;
#635 = CARTESIAN_POINT ( 'NONE',  ( -1.450678315324153825E-17, 5.000000000000001776, -0.8660254037844391517 ) ) ;
#636 = AXIS2_PLACEMENT_3D ( 'NONE', #428, #23, #48 ) ;
#637 = AXIS2_PLACEMENT_3D ( 'NONE', #632, #530, #32 ) ;
#638 = VECTOR ( 'NONE', #38, 1000.000000000000000 ) ;
#639 = DIRECTION ( 'NONE',  ( 0.000000000000000000, 0.000000000000000000, -1.000000000000000000 ) ) ;
#640 = CARTESIAN_POINT ( 'NONE',  ( 0.000000000000000000, 6.000000000000001776, 0.000000000000000000 ) ) ;
#641 = VERTEX_POINT ( 'NONE', #335 ) ;
#642 = CARTESIAN_POINT ( 'NONE',  ( 2.326828918379971365E-16, 5.800000000000001599, 1.899999999999999911 ) ) ;
#643 = LINE ( 'NONE', #86, #621 ) ;
#644 = ORIENTED_EDGE ( 'NONE', *, *, #344, .T. ) ;
#645 = TOROIDAL_SURFACE ( 'NONE', #142, 1.699999999999999734, 0.2000000000000003164 ) ;
#646 = AXIS2_PLACEMENT_3D ( 'NONE', #603, #444, #200 ) ;
#647 = DIRECTION ( 'NONE',  ( -0.000000000000000000, -1.000000000000000000, -0.000000000000000000 ) ) ;
#648 = VERTEX_POINT ( 'NONE', #649 ) ;
#649 = CARTESIAN_POINT ( 'NONE',  ( 0.7499999999999995559, 5.000000000000001776, 0.4330127018922195758 ) ) ;
#650 = ORIENTED_EDGE ( 'NONE', *, *, #245, .T. ) ;
#651 = DIRECTION ( 'NONE',  ( 0.8660254037844388186, 0.000000000000000000, -0.4999999999999996669 ) ) ;
#652 = EDGE_CURVE ( 'NONE', #532, #144, #656, .T. ) ;
#653 = ORIENTED_EDGE ( 'NONE', *, *, #320, .T. ) ;
#654 = PLANE ( 'NONE',  #451 ) ;
#655 = AXIS2_PLACEMENT_3D ( 'NONE', #635, #582, #173 ) ;
#656 = LINE ( 'NONE', #98, #143 ) ;
#657 = AXIS2_PLACEMENT_3D ( 'NONE', #240, #447, #554 ) ;
#658 = ORIENTED_EDGE ( 'NONE', *, *, #51, .T. ) ;
#659 = CARTESIAN_POINT ( 'NONE',  ( 0.000000000000000000, 5.000000000000000888, 0.000000000000000000 ) ) ;
ENDSEC;
END-ISO-10303-21;
