ISO-10303-21;
HEADER;
FILE_DESCRIPTION (( 'STEP AP214' ),
    '1' );
FILE_NAME ('SC-79.STEP',
    '2026-09-21T08:17:21',
    ( '' ),
    ( '' ),
    'SwSTEP 2.0',
    'SolidWorks 2022',
    '' );
FILE_SCHEMA (( 'AUTOMOTIVE_DESIGN' ));
ENDSEC;

DATA;
#1 = DIRECTION ( 'NONE',  ( 0.000000000000000000, -1.000000000000000000, 0.000000000000000000 ) ) ;
#2 = EDGE_LOOP ( 'NONE', ( #505, #997, #82, #759 ) ) ;
#3 = VECTOR ( 'NONE', #225, 1000.000000000000000 ) ;
#4 = EDGE_CURVE ( 'NONE', #274, #352, #377, .T. ) ;
#5 = ORIENTED_EDGE ( 'NONE', *, *, #640, .F. ) ;
#6 = VECTOR ( 'NONE', #812, 1000.000000000000000 ) ;
#7 = FACE_OUTER_BOUND ( 'NONE', #587, .T. ) ;
#8 = ORIENTED_EDGE ( 'NONE', *, *, #277, .T. ) ;
#9 = VECTOR ( 'NONE', #162, 1000.000000000000000 ) ;
#10 = EDGE_CURVE ( 'NONE', #333, #929, #302, .T. ) ;
#11 = PLANE ( 'NONE',  #518 ) ;
#12 = DIRECTION ( 'NONE',  ( 0.000000000000000000, 0.000000000000000000, -1.000000000000000000 ) ) ;
#13 = VERTEX_POINT ( 'NONE', #636 ) ;
#14 = CARTESIAN_POINT ( 'NONE',  ( 0.8000000000000000444, 0.1399999999999999856, 0.1499999999999999944 ) ) ;
#15 = ORIENTED_EDGE ( 'NONE', *, *, #818, .F. ) ;
#16 = PLANE ( 'NONE',  #973 ) ;
#17 = LINE ( 'NONE', #626, #498 ) ;
#18 = ORIENTED_EDGE ( 'NONE', *, *, #210, .T. ) ;
#19 = CARTESIAN_POINT ( 'NONE',  ( -0.4500000000000000111, 0.6500000000000000222, 0.3571861658946609563 ) ) ;
#20 = FACE_OUTER_BOUND ( 'NONE', #344, .T. ) ;
#21 = CARTESIAN_POINT ( 'NONE',  ( 0.5999999999999999778, 0.000000000000000000, 0.4000000000000000222 ) ) ;
#22 = LINE ( 'NONE', #423, #115 ) ;
#23 = VECTOR ( 'NONE', #1018, 1000.000000000000000 ) ;
#24 =( GEOMETRIC_REPRESENTATION_CONTEXT ( 3 ) GLOBAL_UNCERTAINTY_ASSIGNED_CONTEXT ( ( #353 ) ) GLOBAL_UNIT_ASSIGNED_CONTEXT ( ( #300, #67, #1037 ) ) REPRESENTATION_CONTEXT ( 'NONE', 'WORKASPACE' ) );
#25 = PLANE ( 'NONE',  #102 ) ;
#26 = ORIENTED_EDGE ( 'NONE', *, *, #1047, .T. ) ;
#27 = CARTESIAN_POINT ( 'NONE',  ( -0.4500000000000000111, 0.6500000000000000222, 0.3571861658946609563 ) ) ;
#28 = DIRECTION ( 'NONE',  ( 1.000000000000000000, 0.000000000000000000, -2.710505431213760099E-16 ) ) ;
#29 = EDGE_CURVE ( 'NONE', #406, #924, #298, .T. ) ;
#30 =( LENGTH_UNIT ( ) NAMED_UNIT ( * ) SI_UNIT ( .MILLI., .METRE. ) );
#31 = CARTESIAN_POINT ( 'NONE',  ( -0.4500000000000000111, 0.6500000000000000222, -0.3571861658946609563 ) ) ;
#32 = CARTESIAN_POINT ( 'NONE',  ( 0.5000000000000000000, 0.1399999999999999856, 0.1499999999999999944 ) ) ;
#33 = CARTESIAN_POINT ( 'NONE',  ( -0.5999999999999999778, 9.084006722947959426E-18, -0.1499999999999999944 ) ) ;
#34 = CARTESIAN_POINT ( 'NONE',  ( -0.5000000000000000000, 0.000000000000000000, 0.1499999999999999944 ) ) ;
#35 = LINE ( 'NONE', #722, #6 ) ;
#36 = EDGE_CURVE ( 'NONE', #855, #861, #541, .T. ) ;
#37 = AXIS2_PLACEMENT_3D ( 'NONE', #959, #625, #196 ) ;
#38 = FACE_OUTER_BOUND ( 'NONE', #2, .T. ) ;
#39 = CARTESIAN_POINT ( 'NONE',  ( -0.5999999999999999778, 0.000000000000000000, -0.4000000000000000222 ) ) ;
#40 = CARTESIAN_POINT ( 'NONE',  ( -0.5999999999999999778, 0.000000000000000000, 0.4000000000000000222 ) ) ;
#41 = VECTOR ( 'NONE', #1062, 1000.000000000000000 ) ;
#42 = VECTOR ( 'NONE', #708, 1000.000000000000000 ) ;
#43 = ADVANCED_FACE ( 'NONE', ( #391 ), #373, .T. ) ;
#44 = LINE ( 'NONE', #999, #633 ) ;
#45 = SURFACE_STYLE_FILL_AREA ( #390 ) ;
#46 = DIRECTION ( 'NONE',  ( 0.000000000000000000, -1.000000000000000000, 0.000000000000000000 ) ) ;
#47 = VERTEX_POINT ( 'NONE', #32 ) ;
#48 = ORIENTED_EDGE ( 'NONE', *, *, #138, .T. ) ;
#49 = CARTESIAN_POINT ( 'NONE',  ( -0.4500000000000000111, 0.6999999999999999556, 0.3571861658946609563 ) ) ;
#50 = VECTOR ( 'NONE', #975, 1000.000000000000000 ) ;
#51 = VECTOR ( 'NONE', #613, 1000.000000000000000 ) ;
#52 = LINE ( 'NONE', #1095, #1036 ) ;
#53 = EDGE_LOOP ( 'NONE', ( #263, #580, #1021, #451 ) ) ;
#54 = ADVANCED_FACE ( 'NONE', ( #20 ), #896, .T. ) ;
#55 = ORIENTED_EDGE ( 'NONE', *, *, #679, .F. ) ;
#56 = STYLED_ITEM ( 'NONE', ( #650 ), #233 ) ;
#57 = VECTOR ( 'NONE', #503, 1000.000000000000000 ) ;
#58 = CARTESIAN_POINT ( 'NONE',  ( -0.2999999999999999889, 0.6999999999999999556, 0.3571861658946609563 ) ) ;
#59 = CARTESIAN_POINT ( 'NONE',  ( -0.4500000000000000111, 0.6999999999999999556, 0.3571861658946609563 ) ) ;
#60 = ORIENTED_EDGE ( 'NONE', *, *, #1114, .F. ) ;
#61 = ORIENTED_EDGE ( 'NONE', *, *, #755, .T. ) ;
#62 = DIRECTION ( 'NONE',  ( 0.000000000000000000, -1.000000000000000000, 0.000000000000000000 ) ) ;
#63 = PRODUCT_RELATED_PRODUCT_CATEGORY ( 'part', '', ( #1060 ) ) ;
#64 = FACE_OUTER_BOUND ( 'NONE', #228, .T. ) ;
#65 = FILL_AREA_STYLE ('',( #1088 ) ) ;
#66 = ORIENTED_EDGE ( 'NONE', *, *, #588, .F. ) ;
#67 =( NAMED_UNIT ( * ) PLANE_ANGLE_UNIT ( ) SI_UNIT ( $, .RADIAN. ) );
#68 = ORIENTED_EDGE ( 'NONE', *, *, #474, .T. ) ;
#69 = CARTESIAN_POINT ( 'NONE',  ( 0.000000000000000000, 0.1399999999999999856, 0.000000000000000000 ) ) ;
#70 = EDGE_CURVE ( 'NONE', #574, #1001, #971, .T. ) ;
#71 = SURFACE_SIDE_STYLE ('',( #649 ) ) ;
#72 = SURFACE_SIDE_STYLE ('',( #519 ) ) ;
#73 = EDGE_LOOP ( 'NONE', ( #68, #668, #906, #996 ) ) ;
#74 = VECTOR ( 'NONE', #833, 1000.000000000000000 ) ;
#75 = VERTEX_POINT ( 'NONE', #880 ) ;
#76 = DIRECTION ( 'NONE',  ( -0.000000000000000000, 1.000000000000000000, 0.000000000000000000 ) ) ;
#77 = LINE ( 'NONE', #922, #469 ) ;
#78 = EDGE_CURVE ( 'NONE', #496, #920, #133, .T. ) ;
#79 = VECTOR ( 'NONE', #194, 1000.000000000000000 ) ;
#80 = CARTESIAN_POINT ( 'NONE',  ( 0.5000000000000000000, 0.1399999999999999856, 0.1499999999999999944 ) ) ;
#81 = CARTESIAN_POINT ( 'NONE',  ( -0.2999999999999999889, 0.6500000000000000222, -0.3571861658946609563 ) ) ;
#82 = ORIENTED_EDGE ( 'NONE', *, *, #736, .F. ) ;
#83 = EDGE_LOOP ( 'NONE', ( #783, #614, #158, #602 ) ) ;
#84 = SURFACE_STYLE_USAGE ( .BOTH. , #72 ) ;
#85 = ORIENTED_EDGE ( 'NONE', *, *, #378, .T. ) ;
#86 = LINE ( 'NONE', #942, #859 ) ;
#87 = ORIENTED_EDGE ( 'NONE', *, *, #409, .F. ) ;
#88 = EDGE_CURVE ( 'NONE', #534, #531, #808, .T. ) ;
#89 = PLANE ( 'NONE',  #670 ) ;
#90 = CARTESIAN_POINT ( 'NONE',  ( -0.5999999999999999778, 0.000000000000000000, 0.4000000000000000222 ) ) ;
#91 = ORIENTED_EDGE ( 'NONE', *, *, #679, .T. ) ;
#92 = DIRECTION ( 'NONE',  ( 1.000000000000000000, -1.477212402250936060E-15, 0.000000000000000000 ) ) ;
#93 = LINE ( 'NONE', #435, #844 ) ;
#94 = EDGE_LOOP ( 'NONE', ( #873, #508, #706, #15, #60, #145 ) ) ;
#95 =( GEOMETRIC_REPRESENTATION_CONTEXT ( 3 ) GLOBAL_UNCERTAINTY_ASSIGNED_CONTEXT ( ( #495 ) ) GLOBAL_UNIT_ASSIGNED_CONTEXT ( ( #30, #950, #532 ) ) REPRESENTATION_CONTEXT ( 'NONE', 'WORKASPACE' ) );
#96 = EDGE_CURVE ( 'NONE', #1096, #848, #797, .T. ) ;
#97 = CARTESIAN_POINT ( 'NONE',  ( -0.8000000000000000444, 0.1399999999999999856, 0.1499999999999999944 ) ) ;
#98 = ORIENTED_EDGE ( 'NONE', *, *, #29, .F. ) ;
#99 = VECTOR ( 'NONE', #834, 1000.000000000000000 ) ;
#100 = DIRECTION ( 'NONE',  ( 1.000000000000000000, 0.000000000000000000, -9.035018104045869462E-17 ) ) ;
#101 = ORIENTED_EDGE ( 'NONE', *, *, #88, .T. ) ;
#102 = AXIS2_PLACEMENT_3D ( 'NONE', #644, #869, #891 ) ;
#103 = CARTESIAN_POINT ( 'NONE',  ( -0.4500000000000000111, 0.6500000000000000222, 0.3571861658946609563 ) ) ;
#104 = DIRECTION ( 'NONE',  ( -1.000000000000000000, 0.000000000000000000, 0.000000000000000000 ) ) ;
#105 = ORIENTED_EDGE ( 'NONE', *, *, #648, .F. ) ;
#106 = CARTESIAN_POINT ( 'NONE',  ( 0.000000000000000000, 0.6999999999999999556, 0.000000000000000000 ) ) ;
#107 = ORIENTED_EDGE ( 'NONE', *, *, #436, .T. ) ;
#108 = DIRECTION ( 'NONE',  ( 0.000000000000000000, 0.000000000000000000, -1.000000000000000000 ) ) ;
#109 = ADVANCED_FACE ( 'NONE', ( #623 ), #885, .F. ) ;
#110 = LINE ( 'NONE', #1072, #207 ) ;
#111 = VERTEX_POINT ( 'NONE', #1064 ) ;
#112 = DIRECTION ( 'NONE',  ( 0.000000000000000000, 1.000000000000000000, 0.000000000000000000 ) ) ;
#113 =( NAMED_UNIT ( * ) PLANE_ANGLE_UNIT ( ) SI_UNIT ( $, .RADIAN. ) );
#114 = DIRECTION ( 'NONE',  ( 0.000000000000000000, 0.000000000000000000, 1.000000000000000000 ) ) ;
#115 = VECTOR ( 'NONE', #761, 999.9999999999998863 ) ;
#116 = LINE ( 'NONE', #930, #813 ) ;
#117 = VECTOR ( 'NONE', #346, 1000.000000000000000 ) ;
#118 = CARTESIAN_POINT ( 'NONE',  ( -0.5000000000000000000, 0.000000000000000000, 0.1499999999999999944 ) ) ;
#119 = DIRECTION ( 'NONE',  ( 0.06104853953485699786, -0.9981347984218670311, -1.654723979768980131E-17 ) ) ;
#120 = CARTESIAN_POINT ( 'NONE',  ( -0.5999999999999999778, 0.000000000000000000, 0.4000000000000000222 ) ) ;
#121 = VECTOR ( 'NONE', #28, 1000.000000000000000 ) ;
#122 = LINE ( 'NONE', #968, #881 ) ;
#123 = CARTESIAN_POINT ( 'NONE',  ( -0.5000000000000000000, 0.000000000000000000, -0.1499999999999999944 ) ) ;
#124 = CARTESIAN_POINT ( 'NONE',  ( 0.5000000000000000000, 0.1399999999999999856, -0.1499999999999999944 ) ) ;
#125 = EDGE_CURVE ( 'NONE', #847, #688, #289, .T. ) ;
#126 = CARTESIAN_POINT ( 'NONE',  ( -0.8000000000000000444, 0.000000000000000000, 0.1499999999999999944 ) ) ;
#127 = CARTESIAN_POINT ( 'NONE',  ( -0.4500000000000000111, 0.6500000000000000222, -0.3571861658946609563 ) ) ;
#128 = DIRECTION ( 'NONE',  ( -1.000000000000000000, 0.000000000000000000, 1.517698998461839981E-16 ) ) ;
#129 = CARTESIAN_POINT ( 'NONE',  ( -0.4500000000000000111, 0.6999999999999999556, 0.3571861658946609563 ) ) ;
#130 = EDGE_CURVE ( 'NONE', #821, #445, #200, .T. ) ;
#131 = PRODUCT_DEFINITION_FORMATION_WITH_SPECIFIED_SOURCE ( 'ANY', '', #1060, .NOT_KNOWN. ) ;
#132 = DIRECTION ( 'NONE',  ( 1.000000000000000000, 0.000000000000000000, -2.710505431213760099E-16 ) ) ;
#133 = LINE ( 'NONE', #965, #42 ) ;
#134 = CARTESIAN_POINT ( 'NONE',  ( -0.5000000000000000000, 0.1399999999999999856, 0.1499999999999999944 ) ) ;
#135 = DIRECTION ( 'NONE',  ( 0.000000000000000000, 0.000000000000000000, -1.000000000000000000 ) ) ;
#136 = ORIENTED_EDGE ( 'NONE', *, *, #903, .T. ) ;
#137 = ORIENTED_EDGE ( 'NONE', *, *, #339, .T. ) ;
#138 = EDGE_CURVE ( 'NONE', #316, #333, #801, .T. ) ;
#139 = ORIENTED_EDGE ( 'NONE', *, *, #838, .T. ) ;
#140 = VERTEX_POINT ( 'NONE', #129 ) ;
#141 = DIRECTION ( 'NONE',  ( 0.000000000000000000, -1.000000000000000000, 0.000000000000000000 ) ) ;
#142 = CARTESIAN_POINT ( 'NONE',  ( 0.8000000000000000444, 0.000000000000000000, -0.1499999999999999944 ) ) ;
#143 = VECTOR ( 'NONE', #939, 1000.000000000000000 ) ;
#144 =( LENGTH_UNIT ( ) NAMED_UNIT ( * ) SI_UNIT ( .MILLI., .METRE. ) );
#145 = ORIENTED_EDGE ( 'NONE', *, *, #1038, .T. ) ;
#146 = ORIENTED_EDGE ( 'NONE', *, *, #88, .F. ) ;
#147 = CARTESIAN_POINT ( 'NONE',  ( 0.8000000000000000444, 0.1399999999999999856, 0.1499999999999999944 ) ) ;
#148 = VECTOR ( 'NONE', #384, 1000.000000000000000 ) ;
#149 = MECHANICAL_DESIGN_GEOMETRIC_PRESENTATION_REPRESENTATION (  '', ( #641 ), #779 ) ;
#150 = DIRECTION ( 'NONE',  ( 1.000000000000000000, 0.000000000000000000, -2.710505431213760099E-16 ) ) ;
#151 = CARTESIAN_POINT ( 'NONE',  ( -0.8000000000000000444, 0.1399999999999999856, -0.1499999999999999944 ) ) ;
#152 = FACE_OUTER_BOUND ( 'NONE', #823, .T. ) ;
#153 = ORIENTED_EDGE ( 'NONE', *, *, #736, .T. ) ;
#154 = EDGE_LOOP ( 'NONE', ( #828, #764, #172, #26 ) ) ;
#155 = EDGE_CURVE ( 'NONE', #742, #250, #35, .T. ) ;
#156 = CARTESIAN_POINT ( 'NONE',  ( -0.8000000000000000444, 0.1399999999999999856, -0.1499999999999999944 ) ) ;
#157 = CARTESIAN_POINT ( 'NONE',  ( 0.8000000000000000444, 0.1399999999999999856, -0.1499999999999999944 ) ) ;
#158 = ORIENTED_EDGE ( 'NONE', *, *, #362, .F. ) ;
#159 = VERTEX_POINT ( 'NONE', #1074 ) ;
#160 = ADVANCED_FACE ( 'NONE', ( #209 ), #551, .F. ) ;
#161 = FACE_OUTER_BOUND ( 'NONE', #1097, .T. ) ;
#162 = DIRECTION ( 'NONE',  ( 0.000000000000000000, -1.000000000000000000, 0.000000000000000000 ) ) ;
#163 = EDGE_LOOP ( 'NONE', ( #166, #690, #497, #1026 ) ) ;
#164 = PRESENTATION_LAYER_ASSIGNMENT (  '', '', ( #721 ) ) ;
#165 = AXIS2_PLACEMENT_3D ( 'NONE', #440, #1, #176 ) ;
#166 = ORIENTED_EDGE ( 'NONE', *, *, #851, .T. ) ;
#167 = CARTESIAN_POINT ( 'NONE',  ( -0.5000000000000000000, 0.1399999999999999856, 0.1499999999999999944 ) ) ;
#168 = ADVANCED_FACE ( 'NONE', ( #1106 ), #923, .T. ) ;
#169 = VECTOR ( 'NONE', #647, 1000.000000000000000 ) ;
#170 = PRESENTATION_STYLE_ASSIGNMENT (( #84 ) ) ;
#171 = ORIENTED_EDGE ( 'NONE', *, *, #1058, .F. ) ;
#172 = ORIENTED_EDGE ( 'NONE', *, *, #1005, .F. ) ;
#173 = LINE ( 'NONE', #694, #9 ) ;
#174 = ORIENTED_EDGE ( 'NONE', *, *, #1022, .F. ) ;
#175 = EDGE_CURVE ( 'NONE', #850, #606, #492, .T. ) ;
#176 = DIRECTION ( 'NONE',  ( 0.000000000000000000, 0.000000000000000000, -1.000000000000000000 ) ) ;
#177 = ORIENTED_EDGE ( 'NONE', *, *, #607, .F. ) ;
#178 =( NAMED_UNIT ( * ) SI_UNIT ( $, .STERADIAN. ) SOLID_ANGLE_UNIT ( ) );
#179 = ORIENTED_EDGE ( 'NONE', *, *, #354, .T. ) ;
#180 = CARTESIAN_POINT ( 'NONE',  ( 3.227183475372995231E-17, 0.6999999999999999556, 0.3571861658946609563 ) ) ;
#181 = ORIENTED_EDGE ( 'NONE', *, *, #4, .T. ) ;
#182 = VECTOR ( 'NONE', #191, 1000.000000000000000 ) ;
#183 = PLANE ( 'NONE',  #637 ) ;
#184 = PLANE ( 'NONE',  #980 ) ;
#185 = EDGE_LOOP ( 'NONE', ( #737, #1013, #788, #428 ) ) ;
#186 = DIRECTION ( 'NONE',  ( 2.710505431213760099E-16, 0.000000000000000000, -1.000000000000000000 ) ) ;
#187 = PLANE ( 'NONE',  #386 ) ;
#188 = VERTEX_POINT ( 'NONE', #151 ) ;
#189 = CARTESIAN_POINT ( 'NONE',  ( -0.8000000000000000444, 0.000000000000000000, -0.1499999999999999944 ) ) ;
#190 = EDGE_CURVE ( 'NONE', #877, #924, #415, .T. ) ;
#191 = DIRECTION ( 'NONE',  ( 0.000000000000000000, -1.000000000000000000, 0.000000000000000000 ) ) ;
#192 = FACE_OUTER_BOUND ( 'NONE', #412, .T. ) ;
#193 = ORIENTED_EDGE ( 'NONE', *, *, #890, .T. ) ;
#194 = DIRECTION ( 'NONE',  ( -1.517698998461839981E-16, 0.000000000000000000, -1.000000000000000000 ) ) ;
#195 = CARTESIAN_POINT ( 'NONE',  ( 0.8000000000000000444, 0.1399999999999999856, -0.1499999999999999944 ) ) ;
#196 = DIRECTION ( 'NONE',  ( 1.000000000000000000, 0.000000000000000000, 0.000000000000000000 ) ) ;
#197 = EDGE_CURVE ( 'NONE', #606, #47, #733, .T. ) ;
#198 = DIRECTION ( 'NONE',  ( 0.000000000000000000, 0.000000000000000000, 1.000000000000000000 ) ) ;
#199 = LINE ( 'NONE', #19, #434 ) ;
#200 = LINE ( 'NONE', #460, #886 ) ;
#201 = VECTOR ( 'NONE', #108, 1000.000000000000000 ) ;
#202 = MECHANICAL_DESIGN_GEOMETRIC_PRESENTATION_REPRESENTATION (  '', ( #521 ), #1029 ) ;
#203 = CARTESIAN_POINT ( 'NONE',  ( 0.5955442970518470824, 0.07285009924673870041, -0.3955442970518465162 ) ) ;
#204 = ADVANCED_FACE ( 'NONE', ( #395 ), #827, .T. ) ;
#205 = CARTESIAN_POINT ( 'NONE',  ( 0.000000000000000000, 0.6999999999999999556, 0.000000000000000000 ) ) ;
#206 = MECHANICAL_DESIGN_GEOMETRIC_PRESENTATION_REPRESENTATION (  '', ( #56 ), #1012 ) ;
#207 = VECTOR ( 'NONE', #381, 1000.000000000000000 ) ;
#208 = LINE ( 'NONE', #203, #829 ) ;
#209 = FACE_OUTER_BOUND ( 'NONE', #83, .T. ) ;
#210 = EDGE_CURVE ( 'NONE', #316, #1096, #52, .T. ) ;
#211 = DIRECTION ( 'NONE',  ( 0.000000000000000000, 1.000000000000000000, 0.000000000000000000 ) ) ;
#212 = SURFACE_STYLE_FILL_AREA ( #570 ) ;
#213 = CARTESIAN_POINT ( 'NONE',  ( 0.8000000000000000444, 0.1399999999999999856, -0.1499999999999999944 ) ) ;
#214 = CARTESIAN_POINT ( 'NONE',  ( -0.4500000000000000111, 0.6999999999999999556, -0.3571861658946609563 ) ) ;
#215 = SHAPE_DEFINITION_REPRESENTATION ( #878, #944 ) ;
#216 = VERTEX_POINT ( 'NONE', #59 ) ;
#217 = UNCERTAINTY_MEASURE_WITH_UNIT (LENGTH_MEASURE( 1.000000000000000082E-05 ), #144, 'distance_accuracy_value', 'NONE');
#218 = DIRECTION ( 'NONE',  ( -0.06104853953485699786, 0.9981347984218670311, 1.654723979768980131E-17 ) ) ;
#219 = VECTOR ( 'NONE', #681, 1000.000000000000000 ) ;
#220 = AXIS2_PLACEMENT_3D ( 'NONE', #1075, #135, #760 ) ;
#221 = DIRECTION ( 'NONE',  ( -2.710505431213760099E-16, 0.000000000000000000, 1.000000000000000000 ) ) ;
#222 = VERTEX_POINT ( 'NONE', #315 ) ;
#223 = ORIENTED_EDGE ( 'NONE', *, *, #747, .F. ) ;
#224 = EDGE_CURVE ( 'NONE', #1096, #1032, #327, .T. ) ;
#225 = DIRECTION ( 'NONE',  ( 0.000000000000000000, 1.000000000000000000, 0.000000000000000000 ) ) ;
#226 = PRODUCT_CONTEXT ( 'NONE', #241, 'mechanical' ) ;
#227 = CARTESIAN_POINT ( 'NONE',  ( -0.8000000000000000444, 0.1399999999999999856, -0.1499999999999999944 ) ) ;
#228 = EDGE_LOOP ( 'NONE', ( #611, #55, #777, #835 ) ) ;
#229 = VERTEX_POINT ( 'NONE', #232 ) ;
#230 = DIRECTION ( 'NONE',  ( 1.000000000000000000, 0.000000000000000000, 0.000000000000000000 ) ) ;
#231 = EDGE_CURVE ( 'NONE', #688, #534, #365, .T. ) ;
#232 = CARTESIAN_POINT ( 'NONE',  ( -0.4500000000000000111, 0.6500000000000000222, -0.3571861658946609563 ) ) ;
#233 = MANIFOLD_SOLID_BREP ( 'NONE', #1059 ) ;
#234 = ORIENTED_EDGE ( 'NONE', *, *, #558, .F. ) ;
#235 = LINE ( 'NONE', #826, #366 ) ;
#236 = VECTOR ( 'NONE', #410, 1000.000000000000000 ) ;
#237 = VECTOR ( 'NONE', #601, 999.9999999999998863 ) ;
#238 = ORIENTED_EDGE ( 'NONE', *, *, #362, .T. ) ;
#239 = EDGE_CURVE ( 'NONE', #188, #794, #730, .T. ) ;
#240 = ORIENTED_EDGE ( 'NONE', *, *, #984, .F. ) ;
#241 = APPLICATION_CONTEXT ( 'automotive_design' ) ;
#242 = VECTOR ( 'NONE', #699, 1000.000000000000000 ) ;
#243 = CARTESIAN_POINT ( 'NONE',  ( -0.2999999999999999889, 0.6500000000000000222, 0.3571861658946609563 ) ) ;
#244 = ORIENTED_EDGE ( 'NONE', *, *, #588, .T. ) ;
#245 = EDGE_CURVE ( 'NONE', #416, #406, #398, .T. ) ;
#246 = ORIENTED_EDGE ( 'NONE', *, *, #393, .T. ) ;
#247 = CARTESIAN_POINT ( 'NONE',  ( -0.2999999999999999889, 0.6999999999999999556, -0.3571861658946609563 ) ) ;
#248 = DIRECTION ( 'NONE',  ( 1.000000000000000000, 0.000000000000000000, 2.710505431213760099E-16 ) ) ;
#249 = DIRECTION ( 'NONE',  ( 0.000000000000000000, 1.000000000000000000, 0.000000000000000000 ) ) ;
#250 = VERTEX_POINT ( 'NONE', #81 ) ;
#251 = ORIENTED_EDGE ( 'NONE', *, *, #354, .F. ) ;
#252 = MANIFOLD_SOLID_BREP ( 'NONE', #563 ) ;
#253 = PLANE ( 'NONE',  #932 ) ;
#254 = VECTOR ( 'NONE', #727, 1000.000000000000000 ) ;
#255 = CARTESIAN_POINT ( 'NONE',  ( 0.5000000000000000000, 0.000000000000000000, 0.1499999999999999944 ) ) ;
#256 = ORIENTED_EDGE ( 'NONE', *, *, #378, .F. ) ;
#257 = PRESENTATION_LAYER_ASSIGNMENT (  '', '', ( #542 ) ) ;
#258 = LINE ( 'NONE', #696, #610 ) ;
#259 = ORIENTED_EDGE ( 'NONE', *, *, #967, .F. ) ;
#260 = FACE_OUTER_BOUND ( 'NONE', #590, .T. ) ;
#261 = EDGE_CURVE ( 'NONE', #847, #791, #1117, .T. ) ;
#262 = FILL_AREA_STYLE_COLOUR ( '', #371 ) ;
#263 = ORIENTED_EDGE ( 'NONE', *, *, #598, .T. ) ;
#264 = PLANE ( 'NONE',  #485 ) ;
#265 = CARTESIAN_POINT ( 'NONE',  ( -0.5999999999999999778, 0.000000000000000000, 0.4000000000000000222 ) ) ;
#266 = ORIENTED_EDGE ( 'NONE', *, *, #654, .T. ) ;
#267 = CARTESIAN_POINT ( 'NONE',  ( 0.8000000000000000444, 0.1399999999999999856, 0.1499999999999999944 ) ) ;
#268 = VERTEX_POINT ( 'NONE', #682 ) ;
#269 = CARTESIAN_POINT ( 'NONE',  ( -0.2999999999999999889, 0.6500000000000000222, 0.3571861658946609563 ) ) ;
#270 = ORIENTED_EDGE ( 'NONE', *, *, #125, .F. ) ;
#271 = PRESENTATION_STYLE_ASSIGNMENT (( #418 ) ) ;
#272 = CARTESIAN_POINT ( 'NONE',  ( 0.5999999999999999778, 0.000000000000000000, -0.1499999999999999944 ) ) ;
#273 = LINE ( 'NONE', #594, #692 ) ;
#274 = VERTEX_POINT ( 'NONE', #1039 ) ;
#275 = PLANE ( 'NONE',  #368 ) ;
#276 = EDGE_LOOP ( 'NONE', ( #1040, #478, #1090, #244 ) ) ;
#277 = EDGE_CURVE ( 'NONE', #188, #222, #424, .T. ) ;
#278 = AXIS2_PLACEMENT_3D ( 'NONE', #642, #128, #112 ) ;
#279 = CARTESIAN_POINT ( 'NONE',  ( 0.5000000000000000000, 0.000000000000000000, -0.1499999999999999944 ) ) ;
#280 = DIRECTION ( 'NONE',  ( 0.000000000000000000, 0.000000000000000000, -1.000000000000000000 ) ) ;
#281 = LINE ( 'NONE', #360, #340 ) ;
#282 = EDGE_LOOP ( 'NONE', ( #85, #439, #153, #179 ) ) ;
#283 = CARTESIAN_POINT ( 'NONE',  ( -0.8000000000000000444, 0.1399999999999999856, 0.1499999999999999944 ) ) ;
#284 = EDGE_CURVE ( 'NONE', #554, #850, #677, .T. ) ;
#285 = LINE ( 'NONE', #189, #432 ) ;
#286 = CARTESIAN_POINT ( 'NONE',  ( -0.8000000000000000444, 0.1399999999999999856, -0.1499999999999999944 ) ) ;
#287 = CARTESIAN_POINT ( 'NONE',  ( -0.2999999999999999889, 0.6500000000000000222, 0.3571861658946609563 ) ) ;
#288 = DIRECTION ( 'NONE',  ( 1.000000000000000000, 0.000000000000000000, 0.000000000000000000 ) ) ;
#289 = LINE ( 'NONE', #124, #1077 ) ;
#290 = ADVANCED_FACE ( 'NONE', ( #507 ), #767, .F. ) ;
#291 = DIRECTION ( 'NONE',  ( -1.517698998461839981E-16, 0.000000000000000000, -1.000000000000000000 ) ) ;
#292 = FACE_OUTER_BOUND ( 'NONE', #154, .T. ) ;
#293 = CARTESIAN_POINT ( 'NONE',  ( -0.5999999999999999778, 0.000000000000000000, 0.4000000000000000222 ) ) ;
#294 = VECTOR ( 'NONE', #589, 1000.000000000000000 ) ;
#295 = AXIS2_PLACEMENT_3D ( 'NONE', #635, #304, #383 ) ;
#296 = ADVANCED_FACE ( 'NONE', ( #1045 ), #927, .F. ) ;
#297 = CARTESIAN_POINT ( 'NONE',  ( -0.4500000000000000111, 0.6500000000000000222, 0.3571861658946609563 ) ) ;
#298 = LINE ( 'NONE', #40, #148 ) ;
#299 = VECTOR ( 'NONE', #332, 1000.000000000000000 ) ;
#300 =( LENGTH_UNIT ( ) NAMED_UNIT ( * ) SI_UNIT ( .MILLI., .METRE. ) );
#301 = DIRECTION ( 'NONE',  ( 1.000000000000000000, 0.000000000000000000, 2.710505431213760099E-16 ) ) ;
#302 = LINE ( 'NONE', #293, #330 ) ;
#303 = FILL_AREA_STYLE ('',( #1083 ) ) ;
#304 = DIRECTION ( 'NONE',  ( 0.000000000000000000, 0.000000000000000000, 1.000000000000000000 ) ) ;
#305 = SURFACE_STYLE_USAGE ( .BOTH. , #819 ) ;
#306 = DIRECTION ( 'NONE',  ( -0.000000000000000000, 1.000000000000000000, 0.000000000000000000 ) ) ;
#307 = EDGE_CURVE ( 'NONE', #606, #274, #173, .T. ) ;
#308 = VECTOR ( 'NONE', #104, 1000.000000000000000 ) ;
#309 = AXIS2_PLACEMENT_3D ( 'NONE', #789, #363, #1056 ) ;
#310 = FACE_OUTER_BOUND ( 'NONE', #489, .T. ) ;
#311 = ORIENTED_EDGE ( 'NONE', *, *, #261, .T. ) ;
#312 = ORIENTED_EDGE ( 'NONE', *, *, #245, .T. ) ;
#313 = DIRECTION ( 'NONE',  ( 1.000000000000000000, 0.000000000000000000, 0.000000000000000000 ) ) ;
#314 = DIRECTION ( 'NONE',  ( 1.000000000000000000, 0.000000000000000000, 2.710505431213760099E-16 ) ) ;
#315 = CARTESIAN_POINT ( 'NONE',  ( -0.8000000000000000444, 0.1399999999999999856, 0.1499999999999999944 ) ) ;
#316 = VERTEX_POINT ( 'NONE', #510 ) ;
#317 = ORIENTED_EDGE ( 'NONE', *, *, #565, .T. ) ;
#318 = CARTESIAN_POINT ( 'NONE',  ( -0.5999999999999999778, 0.000000000000000000, 0.4000000000000000222 ) ) ;
#319 = EDGE_CURVE ( 'NONE', #75, #742, #935, .T. ) ;
#320 = DIRECTION ( 'NONE',  ( 0.000000000000000000, -1.000000000000000000, 0.000000000000000000 ) ) ;
#321 = ORIENTED_EDGE ( 'NONE', *, *, #674, .F. ) ;
#322 = ORIENTED_EDGE ( 'NONE', *, *, #393, .F. ) ;
#323 = CARTESIAN_POINT ( 'NONE',  ( 0.000000000000000000, 0.000000000000000000, 0.000000000000000000 ) ) ;
#324 = VECTOR ( 'NONE', #211, 1000.000000000000000 ) ;
#325 = EDGE_CURVE ( 'NONE', #496, #861, #1122, .T. ) ;
#326 = COLOUR_RGB ( '',0.2509803921568627416, 0.2509803921568627416, 0.2509803921568627416 ) ;
#327 = LINE ( 'NONE', #905, #99 ) ;
#328 = ORIENTED_EDGE ( 'NONE', *, *, #919, .T. ) ;
#329 = ORIENTED_EDGE ( 'NONE', *, *, #138, .F. ) ;
#330 = VECTOR ( 'NONE', #468, 1000.000000000000000 ) ;
#331 = CARTESIAN_POINT ( 'NONE',  ( -0.5000000000000000000, 0.1399999999999999856, -0.1499999999999999944 ) ) ;
#332 = DIRECTION ( 'NONE',  ( 3.614007241618350250E-16, 0.000000000000000000, 1.000000000000000000 ) ) ;
#333 = VERTEX_POINT ( 'NONE', #90 ) ;
#334 = ADVANCED_FACE ( 'NONE', ( #687 ), #846, .F. ) ;
#335 = DIRECTION ( 'NONE',  ( 0.000000000000000000, 1.000000000000000000, 0.000000000000000000 ) ) ;
#336 = DIRECTION ( 'NONE',  ( 2.710505431213760099E-16, 0.000000000000000000, -1.000000000000000000 ) ) ;
#337 = ORIENTED_EDGE ( 'NONE', *, *, #96, .T. ) ;
#338 = ORIENTED_EDGE ( 'NONE', *, *, #851, .F. ) ;
#339 = EDGE_CURVE ( 'NONE', #907, #13, #605, .T. ) ;
#340 = VECTOR ( 'NONE', #705, 1000.000000000000000 ) ;
#341 = DIRECTION ( 'NONE',  ( 0.000000000000000000, 0.000000000000000000, -1.000000000000000000 ) ) ;
#342 = VECTOR ( 'NONE', #341, 1000.000000000000000 ) ;
#343 = DIRECTION ( 'NONE',  ( 1.000000000000000000, 0.000000000000000000, 0.000000000000000000 ) ) ;
#344 = EDGE_LOOP ( 'NONE', ( #902, #270, #311, #136 ) ) ;
#345 = DIRECTION ( 'NONE',  ( 0.000000000000000000, -1.000000000000000000, 0.000000000000000000 ) ) ;
#346 = DIRECTION ( 'NONE',  ( 1.517698998461839981E-16, 0.000000000000000000, 1.000000000000000000 ) ) ;
#347 = ORIENTED_EDGE ( 'NONE', *, *, #70, .T. ) ;
#348 = VECTOR ( 'NONE', #982, 1000.000000000000000 ) ;
#349 = DIRECTION ( 'NONE',  ( 3.614007241618350250E-16, 0.000000000000000000, -1.000000000000000000 ) ) ;
#350 = ORIENTED_EDGE ( 'NONE', *, *, #1085, .F. ) ;
#351 = CARTESIAN_POINT ( 'NONE',  ( -0.5914372331789320425, 0.1399999999999999856, 0.1499999999999999944 ) ) ;
#352 = VERTEX_POINT ( 'NONE', #255 ) ;
#353 = UNCERTAINTY_MEASURE_WITH_UNIT (LENGTH_MEASURE( 1.000000000000000082E-05 ), #300, 'distance_accuracy_value', 'NONE');
#354 = EDGE_CURVE ( 'NONE', #855, #407, #273, .T. ) ;
#355 = CARTESIAN_POINT ( 'NONE',  ( -0.2999999999999999889, 0.6500000000000000222, -0.3571861658946609563 ) ) ;
#356 = ORIENTED_EDGE ( 'NONE', *, *, #499, .T. ) ;
#357 = FACE_OUTER_BOUND ( 'NONE', #595, .T. ) ;
#358 = DIRECTION ( 'NONE',  ( 1.000000000000000000, 0.000000000000000000, -2.710505431213760099E-16 ) ) ;
#359 = CARTESIAN_POINT ( 'NONE',  ( 0.000000000000000000, 0.6500000000000000222, 0.000000000000000000 ) ) ;
#360 = CARTESIAN_POINT ( 'NONE',  ( 0.000000000000000000, 0.6999999999999999556, -0.3571861658946609563 ) ) ;
#361 = ORIENTED_EDGE ( 'NONE', *, *, #1047, .F. ) ;
#362 = EDGE_CURVE ( 'NONE', #596, #188, #467, .T. ) ;
#363 = DIRECTION ( 'NONE',  ( 0.000000000000000000, 0.06104853953485699786, -0.9981347984218670311 ) ) ;
#364 = LINE ( 'NONE', #180, #1052 ) ;
#365 = LINE ( 'NONE', #817, #725 ) ;
#366 = VECTOR ( 'NONE', #1094, 1000.000000000000000 ) ;
#367 = ADVANCED_FACE ( 'NONE', ( #38 ), #969, .F. ) ;
#368 = AXIS2_PLACEMENT_3D ( 'NONE', #106, #540, #1063 ) ;
#369 = PLANE ( 'NONE',  #752 ) ;
#370 = PLANE ( 'NONE',  #1092 ) ;
#371 = COLOUR_RGB ( '',0.7921568627450980005, 0.8196078431372548767, 0.9333333333333333481 ) ;
#372 =( NAMED_UNIT ( * ) SI_UNIT ( $, .STERADIAN. ) SOLID_ANGLE_UNIT ( ) );
#373 = PLANE ( 'NONE',  #1093 ) ;
#374 = ADVANCED_FACE ( 'NONE', ( #292 ), #25, .F. ) ;
#375 = CARTESIAN_POINT ( 'NONE',  ( -0.5000000000000000000, 0.1399999999999999856, 0.1499999999999999944 ) ) ;
#376 = CARTESIAN_POINT ( 'NONE',  ( 0.8000000000000000444, 0.1399999999999999856, 0.1499999999999999944 ) ) ;
#377 = LINE ( 'NONE', #472, #459 ) ;
#378 = EDGE_CURVE ( 'NONE', #407, #422, #110, .T. ) ;
#379 = SURFACE_STYLE_USAGE ( .BOTH. , #803 ) ;
#380 = CARTESIAN_POINT ( 'NONE',  ( 0.5999999999999999778, 0.000000000000000000, 0.4000000000000000222 ) ) ;
#381 = DIRECTION ( 'NONE',  ( 1.517698998461839981E-16, 0.000000000000000000, 1.000000000000000000 ) ) ;
#382 = PLANE ( 'NONE',  #278 ) ;
#383 = DIRECTION ( 'NONE',  ( 1.000000000000000000, 0.000000000000000000, 0.000000000000000000 ) ) ;
#384 = DIRECTION ( 'NONE',  ( 0.000000000000000000, 0.000000000000000000, 1.000000000000000000 ) ) ;
#385 = AXIS2_PLACEMENT_3D ( 'NONE', #147, #603, #462 ) ;
#386 = AXIS2_PLACEMENT_3D ( 'NONE', #530, #790, #608 ) ;
#387 = PRESENTATION_STYLE_ASSIGNMENT (( #379 ) ) ;
#388 = FACE_OUTER_BOUND ( 'NONE', #586, .T. ) ;
#389 = LINE ( 'NONE', #39, #254 ) ;
#390 = FILL_AREA_STYLE ('',( #807 ) ) ;
#391 = FACE_OUTER_BOUND ( 'NONE', #948, .T. ) ;
#392 = DIRECTION ( 'NONE',  ( 0.000000000000000000, -1.000000000000000000, 0.000000000000000000 ) ) ;
#393 = EDGE_CURVE ( 'NONE', #513, #13, #208, .T. ) ;
#394 =( NAMED_UNIT ( * ) PLANE_ANGLE_UNIT ( ) SI_UNIT ( $, .RADIAN. ) );
#395 = FACE_OUTER_BOUND ( 'NONE', #569, .T. ) ;
#396 = CARTESIAN_POINT ( 'NONE',  ( 0.5571861658946609674, 0.6999999999999999556, -0.3571861658946609563 ) ) ;
#397 = SURFACE_SIDE_STYLE ('',( #45 ) ) ;
#398 = LINE ( 'NONE', #657, #711 ) ;
#399 = ADVANCED_FACE ( 'NONE', ( #388 ), #184, .F. ) ;
#400 = ORIENTED_EDGE ( 'NONE', *, *, #572, .F. ) ;
#401 = ORIENTED_EDGE ( 'NONE', *, *, #413, .F. ) ;
#402 = VECTOR ( 'NONE', #621, 1000.000000000000000 ) ;
#403 = FILL_AREA_STYLE_COLOUR ( '', #326 ) ;
#404 = PLANE ( 'NONE',  #453 ) ;
#405 = DIRECTION ( 'NONE',  ( -2.710505431213760099E-16, 0.000000000000000000, -1.000000000000000000 ) ) ;
#406 = VERTEX_POINT ( 'NONE', #444 ) ;
#407 = VERTEX_POINT ( 'NONE', #450 ) ;
#408 = AXIS2_PLACEMENT_3D ( 'NONE', #741, #405, #567 ) ;
#409 = EDGE_CURVE ( 'NONE', #229, #75, #631, .T. ) ;
#410 = DIRECTION ( 'NONE',  ( 1.000000000000000000, 0.000000000000000000, -2.710505431213760099E-16 ) ) ;
#411 = EDGE_LOOP ( 'NONE', ( #1042, #177, #1089, #328 ) ) ;
#412 = EDGE_LOOP ( 'NONE', ( #700, #240, #901, #487 ) ) ;
#413 = EDGE_CURVE ( 'NONE', #907, #688, #799, .T. ) ;
#414 = DIRECTION ( 'NONE',  ( 0.000000000000000000, 0.000000000000000000, -1.000000000000000000 ) ) ;
#415 = LINE ( 'NONE', #1000, #1111 ) ;
#416 = VERTEX_POINT ( 'NONE', #720 ) ;
#417 = ORIENTED_EDGE ( 'NONE', *, *, #197, .T. ) ;
#418 = SURFACE_STYLE_USAGE ( .BOTH. , #71 ) ;
#419 = AXIS2_PLACEMENT_3D ( 'NONE', #449, #966, #335 ) ;
#420 = CARTESIAN_POINT ( 'NONE',  ( -0.2999999999999999889, 0.6999999999999999556, -0.3571861658946609563 ) ) ;
#421 = ORIENTED_EDGE ( 'NONE', *, *, #474, .F. ) ;
#422 = VERTEX_POINT ( 'NONE', #297 ) ;
#423 = CARTESIAN_POINT ( 'NONE',  ( 0.5999999999999999778, 0.000000000000000000, 0.4000000000000000222 ) ) ;
#424 = LINE ( 'NONE', #953, #299 ) ;
#425 = ORIENTED_EDGE ( 'NONE', *, *, #786, .F. ) ;
#426 = ADVANCED_FACE ( 'NONE', ( #192 ), #370, .F. ) ;
#427 = ORIENTED_EDGE ( 'NONE', *, *, #96, .F. ) ;
#428 = ORIENTED_EDGE ( 'NONE', *, *, #693, .F. ) ;
#429 = CARTESIAN_POINT ( 'NONE',  ( -0.8000000000000000444, 0.1399999999999999856, 0.1499999999999999944 ) ) ;
#430 = CARTESIAN_POINT ( 'NONE',  ( -0.4500000000000000111, 0.6500000000000000222, -0.3571861658946609563 ) ) ;
#431 = ORIENTED_EDGE ( 'NONE', *, *, #967, .T. ) ;
#432 = VECTOR ( 'NONE', #926, 1000.000000000000000 ) ;
#433 = VERTEX_POINT ( 'NONE', #883 ) ;
#434 = VECTOR ( 'NONE', #288, 1000.000000000000000 ) ;
#435 = CARTESIAN_POINT ( 'NONE',  ( -0.4500000000000000111, 0.6500000000000000222, -0.3571861658946609563 ) ) ;
#436 = EDGE_CURVE ( 'NONE', #554, #734, #458, .T. ) ;
#437 = VECTOR ( 'NONE', #1019, 1000.000000000000000 ) ;
#438 = DIRECTION ( 'NONE',  ( 0.000000000000000000, -1.000000000000000000, 0.000000000000000000 ) ) ;
#439 = ORIENTED_EDGE ( 'NONE', *, *, #1005, .T. ) ;
#440 = CARTESIAN_POINT ( 'NONE',  ( 0.000000000000000000, 0.000000000000000000, 0.000000000000000000 ) ) ;
#441 = ORIENTED_EDGE ( 'NONE', *, *, #29, .T. ) ;
#442 = DIRECTION ( 'NONE',  ( 0.000000000000000000, 1.000000000000000000, 0.000000000000000000 ) ) ;
#443 = EDGE_CURVE ( 'NONE', #222, #751, #1080, .T. ) ;
#444 = CARTESIAN_POINT ( 'NONE',  ( -0.5999999999999999778, 0.000000000000000000, -0.4000000000000000222 ) ) ;
#445 = VERTEX_POINT ( 'NONE', #123 ) ;
#446 = CARTESIAN_POINT ( 'NONE',  ( -0.5000000000000000000, 0.1399999999999999856, 0.1499999999999999944 ) ) ;
#447 = DIRECTION ( 'NONE',  ( 0.000000000000000000, 0.000000000000000000, -1.000000000000000000 ) ) ;
#448 = EDGE_LOOP ( 'NONE', ( #770, #350, #667, #91 ) ) ;
#449 = CARTESIAN_POINT ( 'NONE',  ( -0.4500000000000000111, 0.6500000000000000222, -0.3571861658946609563 ) ) ;
#450 = CARTESIAN_POINT ( 'NONE',  ( -0.4500000000000000111, 0.6500000000000000222, -0.3571861658946609563 ) ) ;
#451 = ORIENTED_EDGE ( 'NONE', *, *, #615, .T. ) ;
#452 = EDGE_CURVE ( 'NONE', #433, #531, #17, .T. ) ;
#453 = AXIS2_PLACEMENT_3D ( 'NONE', #213, #894, #150 ) ;
#454 = CARTESIAN_POINT ( 'NONE',  ( -0.2999999999999999889, 0.6500000000000000222, -0.3571861658946609563 ) ) ;
#455 = AXIS2_PLACEMENT_3D ( 'NONE', #486, #1004, #480 ) ;
#456 = LINE ( 'NONE', #941, #236 ) ;
#457 = FACE_OUTER_BOUND ( 'NONE', #411, .T. ) ;
#458 = LINE ( 'NONE', #726, #41 ) ;
#459 = VECTOR ( 'NONE', #114, 1000.000000000000000 ) ;
#460 = CARTESIAN_POINT ( 'NONE',  ( -0.5000000000000000000, 0.000000000000000000, 0.1499999999999999944 ) ) ;
#461 = EDGE_CURVE ( 'NONE', #250, #229, #527, .T. ) ;
#462 = DIRECTION ( 'NONE',  ( -3.614007241618350250E-16, 0.000000000000000000, 1.000000000000000000 ) ) ;
#463 = CARTESIAN_POINT ( 'NONE',  ( -0.5000000000000000000, 0.1399999999999999856, 0.1499999999999999944 ) ) ;
#464 = LINE ( 'NONE', #33, #632 ) ;
#465 = CARTESIAN_POINT ( 'NONE',  ( -0.4500000000000000111, 0.6999999999999999556, -0.3571861658946609563 ) ) ;
#466 = DIRECTION ( 'NONE',  ( 0.000000000000000000, 0.000000000000000000, -1.000000000000000000 ) ) ;
#467 = LINE ( 'NONE', #286, #348 ) ;
#468 = DIRECTION ( 'NONE',  ( 1.000000000000000000, 0.000000000000000000, -9.035018104045869462E-17 ) ) ;
#469 = VECTOR ( 'NONE', #500, 1000.000000000000000 ) ;
#470 = CARTESIAN_POINT ( 'NONE',  ( 0.8000000000000000444, 0.1399999999999999856, -0.1499999999999999944 ) ) ;
#471 = DIRECTION ( 'NONE',  ( 0.000000000000000000, 0.000000000000000000, -1.000000000000000000 ) ) ;
#472 = CARTESIAN_POINT ( 'NONE',  ( 0.5000000000000000000, 0.000000000000000000, 0.1499999999999999944 ) ) ;
#473 = AXIS2_PLACEMENT_3D ( 'NONE', #227, #221, #1006 ) ;
#474 = EDGE_CURVE ( 'NONE', #513, #861, #281, .T. ) ;
#475 = LINE ( 'NONE', #134, #74 ) ;
#476 = DIRECTION ( 'NONE',  ( -1.000000000000000000, 0.000000000000000000, 2.710505431213760099E-16 ) ) ;
#477 = ORIENTED_EDGE ( 'NONE', *, *, #903, .F. ) ;
#478 = ORIENTED_EDGE ( 'NONE', *, *, #499, .F. ) ;
#479 = LINE ( 'NONE', #126, #1051 ) ;
#480 = DIRECTION ( 'NONE',  ( 1.000000000000000000, 0.000000000000000000, 0.000000000000000000 ) ) ;
#481 = CARTESIAN_POINT ( 'NONE',  ( 0.5000000000000000000, 0.1399999999999999856, 0.1499999999999999944 ) ) ;
#482 = ORIENTED_EDGE ( 'NONE', *, *, #1114, .T. ) ;
#483 = EDGE_CURVE ( 'NONE', #1032, #924, #464, .T. ) ;
#484 = EDGE_LOOP ( 'NONE', ( #757, #562, #338, #5 ) ) ;
#485 = AXIS2_PLACEMENT_3D ( 'NONE', #429, #186, #612 ) ;
#486 = CARTESIAN_POINT ( 'NONE',  ( -0.4500000000000000111, 0.6500000000000000222, 0.3571861658946609563 ) ) ;
#487 = ORIENTED_EDGE ( 'NONE', *, *, #933, .T. ) ;
#488 = ADVANCED_FACE ( 'NONE', ( #533 ), #538, .F. ) ;
#489 = EDGE_LOOP ( 'NONE', ( #678, #564, #1010, #1121 ) ) ;
#490 = LINE ( 'NONE', #832, #735 ) ;
#491 = FACE_OUTER_BOUND ( 'NONE', #917, .T. ) ;
#492 = LINE ( 'NONE', #157, #778 ) ;
#493 = ORIENTED_EDGE ( 'NONE', *, *, #36, .T. ) ;
#494 = ORIENTED_EDGE ( 'NONE', *, *, #461, .T. ) ;
#495 = UNCERTAINTY_MEASURE_WITH_UNIT (LENGTH_MEASURE( 1.000000000000000082E-05 ), #30, 'distance_accuracy_value', 'NONE');
#496 = VERTEX_POINT ( 'NONE', #58 ) ;
#497 = ORIENTED_EDGE ( 'NONE', *, *, #277, .F. ) ;
#498 = VECTOR ( 'NONE', #119, 1000.000000000000000 ) ;
#499 = EDGE_CURVE ( 'NONE', #848, #746, #475, .T. ) ;
#500 = DIRECTION ( 'NONE',  ( -1.000000000000000000, 0.000000000000000000, 0.000000000000000000 ) ) ;
#501 = MECHANICAL_DESIGN_GEOMETRIC_PRESENTATION_REPRESENTATION (  '', ( #721 ), #95 ) ;
#502 = VECTOR ( 'NONE', #707, 1000.000000000000000 ) ;
#503 = DIRECTION ( 'NONE',  ( -1.517698998461839981E-16, 0.000000000000000000, -1.000000000000000000 ) ) ;
#504 = ORIENTED_EDGE ( 'NONE', *, *, #284, .T. ) ;
#505 = ORIENTED_EDGE ( 'NONE', *, *, #325, .T. ) ;
#506 = ADVANCED_FACE ( 'NONE', ( #64 ), #732, .T. ) ;
#507 = FACE_OUTER_BOUND ( 'NONE', #750, .T. ) ;
#508 = ORIENTED_EDGE ( 'NONE', *, *, #654, .F. ) ;
#509 = ORIENTED_EDGE ( 'NONE', *, *, #175, .T. ) ;
#510 = CARTESIAN_POINT ( 'NONE',  ( -0.5999999999999999778, 0.000000000000000000, 0.1499999999999999944 ) ) ;
#511 = VERTEX_POINT ( 'NONE', #988 ) ;
#512 = CARTESIAN_POINT ( 'NONE',  ( -0.5000000000000000000, 0.1399999999999999856, 0.1499999999999999944 ) ) ;
#513 = VERTEX_POINT ( 'NONE', #396 ) ;
#514 = EDGE_CURVE ( 'NONE', #316, #746, #1086, .T. ) ;
#515 = LINE ( 'NONE', #1044, #182 ) ;
#516 = FACE_OUTER_BOUND ( 'NONE', #1113, .T. ) ;
#517 = VECTOR ( 'NONE', #301, 1000.000000000000000 ) ;
#518 = AXIS2_PLACEMENT_3D ( 'NONE', #380, #1053, #280 ) ;
#519 = SURFACE_STYLE_FILL_AREA ( #756 ) ;
#520 = VERTEX_POINT ( 'NONE', #985 ) ;
#521 = STYLED_ITEM ( 'NONE', ( #646 ), #944 ) ;
#522 = CARTESIAN_POINT ( 'NONE',  ( 0.8000000000000000444, 0.000000000000000000, -0.1499999999999999944 ) ) ;
#523 = ORIENTED_EDGE ( 'NONE', *, *, #190, .T. ) ;
#524 = EDGE_CURVE ( 'NONE', #1068, #496, #822, .T. ) ;
#525 = FACE_OUTER_BOUND ( 'NONE', #781, .T. ) ;
#526 = AXIS2_PLACEMENT_3D ( 'NONE', #774, #1031, #780 ) ;
#527 = LINE ( 'NONE', #31, #308 ) ;
#528 = ORIENTED_EDGE ( 'NONE', *, *, #307, .T. ) ;
#529 = DIRECTION ( 'NONE',  ( 9.018165974019735310E-17, 0.06104853953485699786, 0.9981347984218670311 ) ) ;
#530 = CARTESIAN_POINT ( 'NONE',  ( 0.000000000000000000, 0.1399999999999999856, 0.000000000000000000 ) ) ;
#531 = VERTEX_POINT ( 'NONE', #899 ) ;
#532 =( NAMED_UNIT ( * ) SI_UNIT ( $, .STERADIAN. ) SOLID_ANGLE_UNIT ( ) );
#533 = FACE_OUTER_BOUND ( 'NONE', #841, .T. ) ;
#534 = VERTEX_POINT ( 'NONE', #578 ) ;
#535 = LINE ( 'NONE', #14, #796 ) ;
#536 = DIRECTION ( 'NONE',  ( 1.000000000000000000, 0.000000000000000000, 2.710505431213760099E-16 ) ) ;
#537 = EDGE_CURVE ( 'NONE', #140, #574, #553, .T. ) ;
#538 = PLANE ( 'NONE',  #843 ) ;
#539 = DIRECTION ( 'NONE',  ( -1.517698998461839981E-16, 0.000000000000000000, -1.000000000000000000 ) ) ;
#540 = DIRECTION ( 'NONE',  ( 0.000000000000000000, -1.000000000000000000, 0.000000000000000000 ) ) ;
#541 = LINE ( 'NONE', #454, #169 ) ;
#542 = STYLED_ITEM ( 'NONE', ( #387 ), #972 ) ;
#543 = CARTESIAN_POINT ( 'NONE',  ( 0.5000000000000000000, 0.1399999999999999856, -0.1499999999999999944 ) ) ;
#544 = DIRECTION ( 'NONE',  ( 0.000000000000000000, 0.000000000000000000, 1.000000000000000000 ) ) ;
#545 = VECTOR ( 'NONE', #548, 1000.000000000000000 ) ;
#546 = DIRECTION ( 'NONE',  ( 0.06093509489717567618, -0.9962799949912396480, -0.06093509489717567618 ) ) ;
#547 = AXIS2_PLACEMENT_3D ( 'NONE', #97, #336, #438 ) ;
#548 = DIRECTION ( 'NONE',  ( 0.000000000000000000, 0.000000000000000000, 1.000000000000000000 ) ) ;
#549 = DIRECTION ( 'NONE',  ( 0.000000000000000000, 0.000000000000000000, -1.000000000000000000 ) ) ;
#550 = APPLICATION_PROTOCOL_DEFINITION ( 'draft international standard', 'automotive_design', 1998, #1118 ) ;
#551 = PLANE ( 'NONE',  #473 ) ;
#552 = ADVANCED_FACE ( 'NONE', ( #310 ), #404, .F. ) ;
#553 = LINE ( 'NONE', #49, #576 ) ;
#554 = VERTEX_POINT ( 'NONE', #559 ) ;
#555 = AXIS2_PLACEMENT_3D ( 'NONE', #655, #392, #665 ) ;
#556 = ADVANCED_FACE ( 'NONE', ( #1100 ), #740, .F. ) ;
#557 = VECTOR ( 'NONE', #544, 1000.000000000000000 ) ;
#558 = EDGE_CURVE ( 'NONE', #929, #531, #235, .T. ) ;
#559 = CARTESIAN_POINT ( 'NONE',  ( 0.8000000000000000444, 0.1399999999999999856, 0.1499999999999999944 ) ) ;
#560 =( NAMED_UNIT ( * ) SI_UNIT ( $, .STERADIAN. ) SOLID_ANGLE_UNIT ( ) );
#561 = PLANE ( 'NONE',  #220 ) ;
#562 = ORIENTED_EDGE ( 'NONE', *, *, #598, .F. ) ;
#563 = CLOSED_SHELL ( 'NONE', ( #1065, #556, #296, #334, #160, #426 ) ) ;
#564 = ORIENTED_EDGE ( 'NONE', *, *, #307, .F. ) ;
#565 = EDGE_CURVE ( 'NONE', #352, #734, #729, .T. ) ;
#566 = DIRECTION ( 'NONE',  ( -1.000000000000000000, 0.000000000000000000, 2.710505431213760099E-16 ) ) ;
#567 = DIRECTION ( 'NONE',  ( -1.000000000000000000, 0.000000000000000000, 2.710505431213760099E-16 ) ) ;
#568 = ORIENTED_EDGE ( 'NONE', *, *, #452, .F. ) ;
#569 = EDGE_LOOP ( 'NONE', ( #763, #609, #695, #48, #599, #775, #312, #441 ) ) ;
#570 = FILL_AREA_STYLE ('',( #403 ) ) ;
#571 = CARTESIAN_POINT ( 'NONE',  ( -0.2999999999999999889, 0.6500000000000000222, 0.3571861658946609563 ) ) ;
#572 = EDGE_CURVE ( 'NONE', #920, #513, #44, .T. ) ;
#573 = DIRECTION ( 'NONE',  ( 0.000000000000000000, 0.000000000000000000, 1.000000000000000000 ) ) ;
#574 = VERTEX_POINT ( 'NONE', #748 ) ;
#575 = EDGE_LOOP ( 'NONE', ( #910, #940, #494, #928 ) ) ;
#576 = VECTOR ( 'NONE', #230, 1000.000000000000000 ) ;
#577 = PLANE ( 'NONE',  #385 ) ;
#578 = CARTESIAN_POINT ( 'NONE',  ( 0.5000000000000000000, 0.000000000000000000, 0.1499999999999999944 ) ) ;
#579 = DIRECTION ( 'NONE',  ( -0.9981347984218670311, 0.06104853953485699786, 0.000000000000000000 ) ) ;
#580 = ORIENTED_EDGE ( 'NONE', *, *, #933, .F. ) ;
#581 = ORIENTED_EDGE ( 'NONE', *, *, #514, .F. ) ;
#582 = AXIS2_PLACEMENT_3D ( 'NONE', #662, #579, #916 ) ;
#583 = AXIS2_PLACEMENT_3D ( 'NONE', #876, #977, #1067 ) ;
#584 = DIRECTION ( 'NONE',  ( 2.710505431213760099E-16, 0.000000000000000000, 1.000000000000000000 ) ) ;
#585 =( NAMED_UNIT ( * ) PLANE_ANGLE_UNIT ( ) SI_UNIT ( $, .RADIAN. ) );
#586 = EDGE_LOOP ( 'NONE', ( #701, #174, #251, #493 ) ) ;
#587 = EDGE_LOOP ( 'NONE', ( #87, #825, #943, #675 ) ) ;
#588 = EDGE_CURVE ( 'NONE', #111, #877, #914, .T. ) ;
#589 = DIRECTION ( 'NONE',  ( 0.000000000000000000, -1.000000000000000000, 0.000000000000000000 ) ) ;
#590 = EDGE_LOOP ( 'NONE', ( #504, #509, #417, #840 ) ) ;
#591 = ADVANCED_FACE ( 'NONE', ( #491 ), #1105, .T. ) ;
#592 = MANIFOLD_SOLID_BREP ( 'NONE', #798 ) ;
#593 = VECTOR ( 'NONE', #141, 1000.000000000000000 ) ;
#594 = CARTESIAN_POINT ( 'NONE',  ( -0.4500000000000000111, 0.6500000000000000222, -0.3571861658946609563 ) ) ;
#595 = EDGE_LOOP ( 'NONE', ( #18, #337, #356, #581 ) ) ;
#596 = VERTEX_POINT ( 'NONE', #331 ) ;
#597 = AXIS2_PLACEMENT_3D ( 'NONE', #643, #728, #978 ) ;
#598 = EDGE_CURVE ( 'NONE', #268, #821, #816, .T. ) ;
#599 = ORIENTED_EDGE ( 'NONE', *, *, #1038, .F. ) ;
#600 = FACE_OUTER_BOUND ( 'NONE', #94, .T. ) ;
#601 = DIRECTION ( 'NONE',  ( -0.06093509489717567618, -0.9962799949912396480, 0.06093509489717567618 ) ) ;
#602 = ORIENTED_EDGE ( 'NONE', *, *, #984, .T. ) ;
#603 = DIRECTION ( 'NONE',  ( -1.000000000000000000, 0.000000000000000000, -3.614007241618350250E-16 ) ) ;
#604 = CARTESIAN_POINT ( 'NONE',  ( -0.5000000000000000000, 0.000000000000000000, -0.1499999999999999944 ) ) ;
#605 = LINE ( 'NONE', #1025, #918 ) ;
#606 = VERTEX_POINT ( 'NONE', #1110 ) ;
#607 = EDGE_CURVE ( 'NONE', #742, #574, #754, .T. ) ;
#608 = DIRECTION ( 'NONE',  ( 0.000000000000000000, 0.000000000000000000, -1.000000000000000000 ) ) ;
#609 = ORIENTED_EDGE ( 'NONE', *, *, #224, .F. ) ;
#610 = VECTOR ( 'NONE', #539, 1000.000000000000000 ) ;
#611 = ORIENTED_EDGE ( 'NONE', *, *, #537, .F. ) ;
#612 = DIRECTION ( 'NONE',  ( 0.000000000000000000, -1.000000000000000000, 0.000000000000000000 ) ) ;
#613 = DIRECTION ( 'NONE',  ( 0.000000000000000000, 1.000000000000000000, 0.000000000000000000 ) ) ;
#614 = ORIENTED_EDGE ( 'NONE', *, *, #239, .F. ) ;
#615 = EDGE_CURVE ( 'NONE', #222, #268, #1011, .T. ) ;
#616 = LINE ( 'NONE', #103, #792 ) ;
#617 = VECTOR ( 'NONE', #793, 1000.000000000000000 ) ;
#618 = VECTOR ( 'NONE', #46, 1000.000000000000000 ) ;
#619 = DIRECTION ( 'NONE',  ( 0.000000000000000000, -1.000000000000000000, 0.000000000000000000 ) ) ;
#620 = ORIENTED_EDGE ( 'NONE', *, *, #537, .T. ) ;
#621 = DIRECTION ( 'NONE',  ( -1.000000000000000000, 0.000000000000000000, 0.000000000000000000 ) ) ;
#622 = DIRECTION ( 'NONE',  ( -0.000000000000000000, 1.000000000000000000, 0.000000000000000000 ) ) ;
#623 = FACE_OUTER_BOUND ( 'NONE', #73, .T. ) ;
#624 = ADVANCED_FACE ( 'NONE', ( #525 ), #369, .T. ) ;
#625 = DIRECTION ( 'NONE',  ( -0.000000000000000000, 1.000000000000000000, 0.000000000000000000 ) ) ;
#626 = CARTESIAN_POINT ( 'NONE',  ( 0.5999999999999999778, 4.129093964976350446E-18, 0.1499999999999999944 ) ) ;
#627 = LINE ( 'NONE', #265, #237 ) ;
#628 = DIRECTION ( 'NONE',  ( 0.000000000000000000, -1.000000000000000000, 0.000000000000000000 ) ) ;
#629 = LINE ( 'NONE', #976, #723 ) ;
#630 = PRODUCT_DEFINITION ( 'UNKNOWN', '', #131, #931 ) ;
#631 = LINE ( 'NONE', #127, #617 ) ;
#632 = VECTOR ( 'NONE', #1054, 1000.000000000000000 ) ;
#633 = VECTOR ( 'NONE', #414, 1000.000000000000000 ) ;
#634 = LINE ( 'NONE', #465, #402 ) ;
#635 = CARTESIAN_POINT ( 'NONE',  ( 0.000000000000000000, 0.000000000000000000, 0.000000000000000000 ) ) ;
#636 = CARTESIAN_POINT ( 'NONE',  ( 0.5999999999999999778, 0.000000000000000000, -0.4000000000000000222 ) ) ;
#637 = AXIS2_PLACEMENT_3D ( 'NONE', #785, #306, #313 ) ;
#638 = CARTESIAN_POINT ( 'NONE',  ( 0.5999999999999999778, 9.084006722947959426E-18, -0.1499999999999999944 ) ) ;
#639 = CARTESIAN_POINT ( 'NONE',  ( -0.5000000000000000000, 0.1399999999999999856, 0.1499999999999999944 ) ) ;
#640 = EDGE_CURVE ( 'NONE', #445, #794, #285, .T. ) ;
#641 = STYLED_ITEM ( 'NONE', ( #170 ), #252 ) ;
#642 = CARTESIAN_POINT ( 'NONE',  ( -0.4500000000000000111, 0.6500000000000000222, -0.3571861658946609563 ) ) ;
#643 = CARTESIAN_POINT ( 'NONE',  ( 0.5000000000000000000, 0.1399999999999999856, 0.1499999999999999944 ) ) ;
#644 = CARTESIAN_POINT ( 'NONE',  ( -0.4500000000000000111, 0.6500000000000000222, 0.3571861658946609563 ) ) ;
#645 = FACE_OUTER_BOUND ( 'NONE', #1115, .T. ) ;
#646 = PRESENTATION_STYLE_ASSIGNMENT (( #1073 ) ) ;
#647 = DIRECTION ( 'NONE',  ( 0.000000000000000000, 1.000000000000000000, 0.000000000000000000 ) ) ;
#648 = EDGE_CURVE ( 'NONE', #511, #416, #77, .T. ) ;
#649 = SURFACE_STYLE_FILL_AREA ( #303 ) ;
#650 = PRESENTATION_STYLE_ASSIGNMENT (( #305 ) ) ;
#651 = VECTOR ( 'NONE', #963, 1000.000000000000000 ) ;
#652 = ORIENTED_EDGE ( 'NONE', *, *, #724, .F. ) ;
#653 = VECTOR ( 'NONE', #1070, 1000.000000000000000 ) ;
#654 = EDGE_CURVE ( 'NONE', #920, #929, #22, .T. ) ;
#655 = CARTESIAN_POINT ( 'NONE',  ( 0.000000000000000000, 0.1399999999999999856, 0.000000000000000000 ) ) ;
#656 = APPLICATION_PROTOCOL_DEFINITION ( 'draft international standard', 'automotive_design', 1998, #241 ) ;
#657 = CARTESIAN_POINT ( 'NONE',  ( -0.5970295313678980476, 0.04856673283115919837, -0.3970295313678979809 ) ) ;
#658 = ORIENTED_EDGE ( 'NONE', *, *, #231, .T. ) ;
#659 = ORIENTED_EDGE ( 'NONE', *, *, #514, .T. ) ;
#660 = ADVANCED_FACE ( 'NONE', ( #1061 ), #1116, .F. ) ;
#661 = CARTESIAN_POINT ( 'NONE',  ( 0.8000000000000000444, 0.000000000000000000, 0.1499999999999999944 ) ) ;
#662 = CARTESIAN_POINT ( 'NONE',  ( -0.5999999999999999778, 0.000000000000000000, 0.4000000000000000222 ) ) ;
#663 = EDGE_LOOP ( 'NONE', ( #768, #137, #322, #400, #266, #684, #568, #852 ) ) ;
#664 = ORIENTED_EDGE ( 'NONE', *, *, #4, .F. ) ;
#665 = DIRECTION ( 'NONE',  ( 0.000000000000000000, 0.000000000000000000, -1.000000000000000000 ) ) ;
#666 = DIRECTION ( 'NONE',  ( 0.06104853953485699786, 0.9981347984218670311, 1.654723979768980131E-17 ) ) ;
#667 = ORIENTED_EDGE ( 'NONE', *, *, #409, .T. ) ;
#668 = ORIENTED_EDGE ( 'NONE', *, *, #325, .F. ) ;
#669 = CARTESIAN_POINT ( 'NONE',  ( 0.8000000000000000444, 0.000000000000000000, 0.1499999999999999944 ) ) ;
#670 = AXIS2_PLACEMENT_3D ( 'NONE', #167, #773, #913 ) ;
#671 = CARTESIAN_POINT ( 'NONE',  ( -0.8000000000000000444, 0.1399999999999999856, 0.1499999999999999944 ) ) ;
#672 = SURFACE_STYLE_FILL_AREA ( #65 ) ;
#673 = ORIENTED_EDGE ( 'NONE', *, *, #674, .T. ) ;
#674 = EDGE_CURVE ( 'NONE', #111, #1032, #865, .T. ) ;
#675 = ORIENTED_EDGE ( 'NONE', *, *, #319, .F. ) ;
#676 = CARTESIAN_POINT ( 'NONE',  ( -0.8000000000000000444, 0.000000000000000000, 0.1499999999999999944 ) ) ;
#677 = LINE ( 'NONE', #267, #867 ) ;
#678 = ORIENTED_EDGE ( 'NONE', *, *, #786, .T. ) ;
#679 = EDGE_CURVE ( 'NONE', #75, #140, #616, .T. ) ;
#680 = DIRECTION ( 'NONE',  ( 1.000000000000000000, 0.000000000000000000, 0.000000000000000000 ) ) ;
#681 = DIRECTION ( 'NONE',  ( -1.000000000000000000, 0.000000000000000000, -2.710505431213760099E-16 ) ) ;
#682 = CARTESIAN_POINT ( 'NONE',  ( -0.8000000000000000444, 0.000000000000000000, 0.1499999999999999944 ) ) ;
#683 = ORIENTED_EDGE ( 'NONE', *, *, #1081, .T. ) ;
#684 = ORIENTED_EDGE ( 'NONE', *, *, #558, .T. ) ;
#685 = ADVANCED_FACE ( 'NONE', ( #784 ), #16, .T. ) ;
#686 = AXIS2_PLACEMENT_3D ( 'NONE', #955, #622, #964 ) ;
#687 = FACE_OUTER_BOUND ( 'NONE', #163, .T. ) ;
#688 = VERTEX_POINT ( 'NONE', #279 ) ;
#689 = LINE ( 'NONE', #1034, #117 ) ;
#690 = ORIENTED_EDGE ( 'NONE', *, *, #615, .F. ) ;
#691 = PRESENTATION_LAYER_ASSIGNMENT (  '', '', ( #56 ) ) ;
#692 = VECTOR ( 'NONE', #805, 1000.000000000000000 ) ;
#693 = EDGE_CURVE ( 'NONE', #433, #1109, #958, .T. ) ;
#694 = CARTESIAN_POINT ( 'NONE',  ( 0.5000000000000000000, 0.1399999999999999856, -0.1499999999999999944 ) ) ;
#695 = ORIENTED_EDGE ( 'NONE', *, *, #210, .F. ) ;
#696 = CARTESIAN_POINT ( 'NONE',  ( -0.2999999999999999889, 0.6500000000000000222, -0.3571861658946609563 ) ) ;
#697 = LINE ( 'NONE', #27, #51 ) ;
#698 = EDGE_LOOP ( 'NONE', ( #1055, #146, #477, #744 ) ) ;
#699 = DIRECTION ( 'NONE',  ( 0.000000000000000000, 0.000000000000000000, 1.000000000000000000 ) ) ;
#700 = ORIENTED_EDGE ( 'NONE', *, *, #130, .T. ) ;
#701 = ORIENTED_EDGE ( 'NONE', *, *, #747, .T. ) ;
#702 = DIRECTION ( 'NONE',  ( -0.000000000000000000, 1.000000000000000000, 0.000000000000000000 ) ) ;
#703 = LINE ( 'NONE', #375, #653 ) ;
#704 = VECTOR ( 'NONE', #1003, 1000.000000000000000 ) ;
#705 = DIRECTION ( 'NONE',  ( -1.000000000000000000, 0.000000000000000000, 0.000000000000000000 ) ) ;
#706 = ORIENTED_EDGE ( 'NONE', *, *, #78, .F. ) ;
#707 = DIRECTION ( 'NONE',  ( 0.000000000000000000, 1.000000000000000000, 0.000000000000000000 ) ) ;
#708 = DIRECTION ( 'NONE',  ( 1.000000000000000000, 0.000000000000000000, -9.035018104045869462E-17 ) ) ;
#709 = EDGE_CURVE ( 'NONE', #47, #554, #456, .T. ) ;
#710 = DIRECTION ( 'NONE',  ( 1.000000000000000000, 0.000000000000000000, -2.710505431213760099E-16 ) ) ;
#711 = VECTOR ( 'NONE', #995, 999.9999999999998863 ) ;
#712 = CARTESIAN_POINT ( 'NONE',  ( -4.065758146820635465E-17, 0.000000000000000000, -0.1499999999999999944 ) ) ;
#713 =( LENGTH_UNIT ( ) NAMED_UNIT ( * ) SI_UNIT ( .MILLI., .METRE. ) );
#714 = DIRECTION ( 'NONE',  ( 0.000000000000000000, 0.000000000000000000, -1.000000000000000000 ) ) ;
#715 = ADVANCED_FACE ( 'NONE', ( #357 ), #264, .T. ) ;
#716 = DIRECTION ( 'NONE',  ( -2.710505431213760099E-16, 0.000000000000000000, -1.000000000000000000 ) ) ;
#717 = ORIENTED_EDGE ( 'NONE', *, *, #957, .F. ) ;
#718 = ADVANCED_FACE ( 'NONE', ( #600 ), #1098, .T. ) ;
#719 = PLANE ( 'NONE',  #1028 ) ;
#720 = CARTESIAN_POINT ( 'NONE',  ( -0.5571861658946609674, 0.6999999999999999556, -0.3571861658946609563 ) ) ;
#721 = STYLED_ITEM ( 'NONE', ( #271 ), #592 ) ;
#722 = CARTESIAN_POINT ( 'NONE',  ( -0.2999999999999999889, 0.6500000000000000222, -0.3571861658946609563 ) ) ;
#723 = VECTOR ( 'NONE', #887, 1000.000000000000000 ) ;
#724 = EDGE_CURVE ( 'NONE', #850, #1102, #490, .T. ) ;
#725 = VECTOR ( 'NONE', #909, 1000.000000000000000 ) ;
#726 = CARTESIAN_POINT ( 'NONE',  ( 0.8000000000000000444, 0.1399999999999999856, 0.1499999999999999944 ) ) ;
#727 = DIRECTION ( 'NONE',  ( -1.000000000000000000, 0.000000000000000000, 0.000000000000000000 ) ) ;
#728 = DIRECTION ( 'NONE',  ( 1.000000000000000000, 0.000000000000000000, 0.000000000000000000 ) ) ;
#729 = LINE ( 'NONE', #661, #772 ) ;
#730 = LINE ( 'NONE', #900, #618 ) ;
#731 = FACE_OUTER_BOUND ( 'NONE', #575, .T. ) ;
#732 = PLANE ( 'NONE',  #455 ) ;
#733 = LINE ( 'NONE', #481, #915 ) ;
#734 = VERTEX_POINT ( 'NONE', #669 ) ;
#735 = VECTOR ( 'NONE', #62, 1000.000000000000000 ) ;
#736 = EDGE_CURVE ( 'NONE', #1068, #855, #258, .T. ) ;
#737 = ORIENTED_EDGE ( 'NONE', *, *, #1120, .F. ) ;
#738 = CARTESIAN_POINT ( 'NONE',  ( -0.5000000000000000000, 0.1399999999999999856, -0.1499999999999999944 ) ) ;
#739 = LINE ( 'NONE', #142, #704 ) ;
#740 = PLANE ( 'NONE',  #555 ) ;
#741 = CARTESIAN_POINT ( 'NONE',  ( 0.8000000000000000444, 0.1399999999999999856, 0.1499999999999999944 ) ) ;
#742 = VERTEX_POINT ( 'NONE', #287 ) ;
#743 = VECTOR ( 'NONE', #889, 1000.000000000000000 ) ;
#744 = ORIENTED_EDGE ( 'NONE', *, *, #1120, .T. ) ;
#745 = ORIENTED_EDGE ( 'NONE', *, *, #245, .F. ) ;
#746 = VERTEX_POINT ( 'NONE', #34 ) ;
#747 = EDGE_CURVE ( 'NONE', #861, #511, #800, .T. ) ;
#748 = CARTESIAN_POINT ( 'NONE',  ( -0.2999999999999999889, 0.6999999999999999556, 0.3571861658946609563 ) ) ;
#749 = DIRECTION ( 'NONE',  ( -1.000000000000000000, 0.000000000000000000, -2.710505431213760099E-16 ) ) ;
#750 = EDGE_LOOP ( 'NONE', ( #181, #991, #864, #528 ) ) ;
#751 = VERTEX_POINT ( 'NONE', #446 ) ;
#752 = AXIS2_PLACEMENT_3D ( 'NONE', #195, #584, #710 ) ;
#753 = DIRECTION ( 'NONE',  ( 3.614007241618350250E-16, 0.000000000000000000, 1.000000000000000000 ) ) ;
#754 = LINE ( 'NONE', #243, #23 ) ;
#755 = EDGE_CURVE ( 'NONE', #1001, #520, #634, .T. ) ;
#756 = FILL_AREA_STYLE ('',( #262 ) ) ;
#757 = ORIENTED_EDGE ( 'NONE', *, *, #130, .F. ) ;
#758 = ADVANCED_FACE ( 'NONE', ( #806 ), #382, .T. ) ;
#759 = ORIENTED_EDGE ( 'NONE', *, *, #524, .T. ) ;
#760 = DIRECTION ( 'NONE',  ( 0.000000000000000000, -1.000000000000000000, 0.000000000000000000 ) ) ;
#761 = DIRECTION ( 'NONE',  ( 0.06093509489717567618, -0.9962799949912396480, 0.06093509489717567618 ) ) ;
#762 = CARTESIAN_POINT ( 'NONE',  ( 0.5000000000000000000, 0.1399999999999999856, 0.1499999999999999944 ) ) ;
#763 = ORIENTED_EDGE ( 'NONE', *, *, #483, .F. ) ;
#764 = ORIENTED_EDGE ( 'NONE', *, *, #524, .F. ) ;
#765 = EDGE_CURVE ( 'NONE', #13, #406, #389, .T. ) ;
#766 = LINE ( 'NONE', #1023, #342 ) ;
#767 = PLANE ( 'NONE',  #1014 ) ;
#768 = ORIENTED_EDGE ( 'NONE', *, *, #911, .F. ) ;
#769 = PLANE ( 'NONE',  #165 ) ;
#770 = ORIENTED_EDGE ( 'NONE', *, *, #998, .F. ) ;
#771 = ADVANCED_FACE ( 'NONE', ( #645 ), #871, .T. ) ;
#772 = VECTOR ( 'NONE', #132, 1000.000000000000000 ) ;
#773 = DIRECTION ( 'NONE',  ( -1.000000000000000000, 0.000000000000000000, 0.000000000000000000 ) ) ;
#774 = CARTESIAN_POINT ( 'NONE',  ( -0.8000000000000000444, 0.1399999999999999856, 0.1499999999999999944 ) ) ;
#775 = ORIENTED_EDGE ( 'NONE', *, *, #949, .F. ) ;
#776 = DIRECTION ( 'NONE',  ( 0.000000000000000000, 1.000000000000000000, 0.000000000000000000 ) ) ;
#777 = ORIENTED_EDGE ( 'NONE', *, *, #319, .T. ) ;
#778 = VECTOR ( 'NONE', #476, 1000.000000000000000 ) ;
#779 =( GEOMETRIC_REPRESENTATION_CONTEXT ( 3 ) GLOBAL_UNCERTAINTY_ASSIGNED_CONTEXT ( ( #842 ) ) GLOBAL_UNIT_ASSIGNED_CONTEXT ( ( #860, #945, #178 ) ) REPRESENTATION_CONTEXT ( 'NONE', 'WORKASPACE' ) );
#780 = DIRECTION ( 'NONE',  ( -3.614007241618350250E-16, 0.000000000000000000, -1.000000000000000000 ) ) ;
#781 = EDGE_LOOP ( 'NONE', ( #937, #139, #956, #401 ) ) ;
#782 = DIRECTION ( 'NONE',  ( 3.614007241618350250E-16, 0.000000000000000000, -1.000000000000000000 ) ) ;
#783 = ORIENTED_EDGE ( 'NONE', *, *, #640, .T. ) ;
#784 = FACE_OUTER_BOUND ( 'NONE', #282, .T. ) ;
#785 = CARTESIAN_POINT ( 'NONE',  ( 0.000000000000000000, 0.000000000000000000, 0.000000000000000000 ) ) ;
#786 = EDGE_CURVE ( 'NONE', #1102, #274, #739, .T. ) ;
#787 = DIRECTION ( 'NONE',  ( -1.000000000000000000, 0.000000000000000000, 2.710505431213760099E-16 ) ) ;
#788 = ORIENTED_EDGE ( 'NONE', *, *, #838, .F. ) ;
#789 = CARTESIAN_POINT ( 'NONE',  ( -0.5999999999999999778, 0.000000000000000000, -0.4000000000000000222 ) ) ;
#790 = DIRECTION ( 'NONE',  ( 0.000000000000000000, -1.000000000000000000, 0.000000000000000000 ) ) ;
#791 = VERTEX_POINT ( 'NONE', #893 ) ;
#792 = VECTOR ( 'NONE', #442, 1000.000000000000000 ) ;
#793 = DIRECTION ( 'NONE',  ( 1.517698998461839981E-16, 0.000000000000000000, 1.000000000000000000 ) ) ;
#794 = VERTEX_POINT ( 'NONE', #837 ) ;
#795 = ADVANCED_FACE ( 'NONE', ( #260 ), #1016, .T. ) ;
#796 = VECTOR ( 'NONE', #358, 1000.000000000000000 ) ;
#797 = LINE ( 'NONE', #283, #743 ) ;
#798 = CLOSED_SHELL ( 'NONE', ( #987, #795, #488, #290, #552, #802 ) ) ;
#799 = LINE ( 'NONE', #712, #1076 ) ;
#800 = LINE ( 'NONE', #214, #651 ) ;
#801 = LINE ( 'NONE', #120, #545 ) ;
#802 = ADVANCED_FACE ( 'NONE', ( #938 ), #577, .F. ) ;
#803 = SURFACE_SIDE_STYLE ('',( #212 ) ) ;
#804 = LINE ( 'NONE', #981, #50 ) ;
#805 = DIRECTION ( 'NONE',  ( -1.000000000000000000, 0.000000000000000000, 0.000000000000000000 ) ) ;
#806 = FACE_OUTER_BOUND ( 'NONE', #448, .T. ) ;
#807 = FILL_AREA_STYLE_COLOUR ( '', #882 ) ;
#808 = LINE ( 'NONE', #1057, #121 ) ;
#809 = ADVANCED_FACE ( 'NONE', ( #1069 ), #11, .T. ) ;
#810 = DIRECTION ( 'NONE',  ( -1.000000000000000000, 0.000000000000000000, 0.000000000000000000 ) ) ;
#811 = VECTOR ( 'NONE', #218, 1000.000000000000000 ) ;
#812 = DIRECTION ( 'NONE',  ( -1.517698998461839981E-16, 0.000000000000000000, -1.000000000000000000 ) ) ;
#813 = VECTOR ( 'NONE', #345, 1000.000000000000000 ) ;
#814 = CARTESIAN_POINT ( 'NONE',  ( 0.5571861658946609674, 0.6999999999999999556, 0.3571861658946609563 ) ) ;
#815 = CLOSED_SHELL ( 'NONE', ( #685, #374, #367, #399, #660, #898, #715, #43, #1099, #54, #168, #624, #884, #109, #718, #771, #591, #204, #809, #992 ) ) ;
#816 = LINE ( 'NONE', #676, #824 ) ;
#817 = CARTESIAN_POINT ( 'NONE',  ( 0.5000000000000000000, 0.000000000000000000, 0.1499999999999999944 ) ) ;
#818 = EDGE_CURVE ( 'NONE', #216, #496, #122, .T. ) ;
#819 = SURFACE_SIDE_STYLE ('',( #672 ) ) ;
#820 = EDGE_LOOP ( 'NONE', ( #1101, #652, #857, #107 ) ) ;
#821 = VERTEX_POINT ( 'NONE', #118 ) ;
#822 = LINE ( 'NONE', #571, #3 ) ;
#823 = EDGE_LOOP ( 'NONE', ( #482, #259, #1123, #1007 ) ) ;
#824 = VECTOR ( 'NONE', #248, 1000.000000000000000 ) ;
#825 = ORIENTED_EDGE ( 'NONE', *, *, #461, .F. ) ;
#826 = CARTESIAN_POINT ( 'NONE',  ( 0.5999999999999999778, 0.000000000000000000, 0.4000000000000000222 ) ) ;
#827 = PLANE ( 'NONE',  #582 ) ;
#828 = ORIENTED_EDGE ( 'NONE', *, *, #818, .T. ) ;
#829 = VECTOR ( 'NONE', #546, 999.9999999999998863 ) ;
#830 = ORIENTED_EDGE ( 'NONE', *, *, #709, .F. ) ;
#831 = ADVANCED_FACE ( 'NONE', ( #457 ), #719, .T. ) ;
#832 = CARTESIAN_POINT ( 'NONE',  ( 0.8000000000000000444, 0.1399999999999999856, -0.1499999999999999944 ) ) ;
#833 = DIRECTION ( 'NONE',  ( 0.000000000000000000, -1.000000000000000000, 0.000000000000000000 ) ) ;
#834 = DIRECTION ( 'NONE',  ( 0.000000000000000000, 0.000000000000000000, -1.000000000000000000 ) ) ;
#835 = ORIENTED_EDGE ( 'NONE', *, *, #607, .T. ) ;
#836 = ORIENTED_EDGE ( 'NONE', *, *, #998, .T. ) ;
#837 = CARTESIAN_POINT ( 'NONE',  ( -0.8000000000000000444, 0.000000000000000000, -0.1499999999999999944 ) ) ;
#838 = EDGE_CURVE ( 'NONE', #1109, #847, #804, .T. ) ;
#839 = FACE_OUTER_BOUND ( 'NONE', #185, .T. ) ;
#840 = ORIENTED_EDGE ( 'NONE', *, *, #709, .T. ) ;
#841 = EDGE_LOOP ( 'NONE', ( #317, #1107, #830, #193 ) ) ;
#842 = UNCERTAINTY_MEASURE_WITH_UNIT (LENGTH_MEASURE( 1.000000000000000082E-05 ), #860, 'distance_accuracy_value', 'NONE');
#843 = AXIS2_PLACEMENT_3D ( 'NONE', #376, #716, #566 ) ;
#844 = VECTOR ( 'NONE', #776, 1000.000000000000000 ) ;
#845 = LINE ( 'NONE', #80, #143 ) ;
#846 = PLANE ( 'NONE',  #526 ) ;
#847 = VERTEX_POINT ( 'NONE', #543 ) ;
#848 = VERTEX_POINT ( 'NONE', #463 ) ;
#849 = CARTESIAN_POINT ( 'NONE',  ( 0.5000000000000000000, 0.1399999999999999856, 0.1499999999999999944 ) ) ;
#850 = VERTEX_POINT ( 'NONE', #470 ) ;
#851 = EDGE_CURVE ( 'NONE', #794, #268, #479, .T. ) ;
#852 = ORIENTED_EDGE ( 'NONE', *, *, #693, .T. ) ;
#853 = FACE_OUTER_BOUND ( 'NONE', #276, .T. ) ;
#854 = CARTESIAN_POINT ( 'NONE',  ( -0.4500000000000000111, 0.6500000000000000222, 0.3571861658946609563 ) ) ;
#855 = VERTEX_POINT ( 'NONE', #1017 ) ;
#856 = CARTESIAN_POINT ( 'NONE',  ( -0.2999999999999999889, 0.6999999999999999556, -0.3571861658946609563 ) ) ;
#857 = ORIENTED_EDGE ( 'NONE', *, *, #284, .F. ) ;
#858 = AXIS2_PLACEMENT_3D ( 'NONE', #318, #529, #92 ) ;
#859 = VECTOR ( 'NONE', #782, 1000.000000000000000 ) ;
#860 =( LENGTH_UNIT ( ) NAMED_UNIT ( * ) SI_UNIT ( .MILLI., .METRE. ) );
#861 = VERTEX_POINT ( 'NONE', #247 ) ;
#862 = LINE ( 'NONE', #1024, #557 ) ;
#863 = FACE_OUTER_BOUND ( 'NONE', #484, .T. ) ;
#864 = ORIENTED_EDGE ( 'NONE', *, *, #197, .F. ) ;
#865 = LINE ( 'NONE', #156, #219 ) ;
#866 = ADVANCED_FACE ( 'NONE', ( #161 ), #868, .T. ) ;
#867 = VECTOR ( 'NONE', #349, 1000.000000000000000 ) ;
#868 = PLANE ( 'NONE',  #37 ) ;
#869 = DIRECTION ( 'NONE',  ( 0.000000000000000000, 0.000000000000000000, 1.000000000000000000 ) ) ;
#870 = EDGE_LOOP ( 'NONE', ( #683, #238, #8, #1035 ) ) ;
#871 = PLANE ( 'NONE',  #309 ) ;
#872 = PLANE ( 'NONE',  #686 ) ;
#873 = ORIENTED_EDGE ( 'NONE', *, *, #10, .T. ) ;
#874 = CARTESIAN_POINT ( 'NONE',  ( 0.5914372331789320425, 0.1399999999999999856, 0.4000000000000000222 ) ) ;
#875 = EDGE_CURVE ( 'NONE', #746, #877, #766, .T. ) ;
#876 = CARTESIAN_POINT ( 'NONE',  ( -0.2999999999999999889, 0.6500000000000000222, -0.3571861658946609563 ) ) ;
#877 = VERTEX_POINT ( 'NONE', #604 ) ;
#878 = PRODUCT_DEFINITION_SHAPE ( 'NONE', 'NONE',  #630 ) ;
#879 = CARTESIAN_POINT ( 'NONE',  ( -0.5914372331789320425, 0.1399999999999999856, -0.1499999999999999944 ) ) ;
#880 = CARTESIAN_POINT ( 'NONE',  ( -0.4500000000000000111, 0.6500000000000000222, 0.3571861658946609563 ) ) ;
#881 = VECTOR ( 'NONE', #960, 1000.000000000000000 ) ;
#882 = COLOUR_RGB ( '',0.7921568627450980005, 0.8196078431372548767, 0.9333333333333333481 ) ;
#883 = CARTESIAN_POINT ( 'NONE',  ( 0.5914372331789320425, 0.1399999999999999856, 0.1499999999999999944 ) ) ;
#884 = ADVANCED_FACE ( 'NONE', ( #839 ), #253, .F. ) ;
#885 = PLANE ( 'NONE',  #979 ) ;
#886 = VECTOR ( 'NONE', #466, 1000.000000000000000 ) ;
#887 = DIRECTION ( 'NONE',  ( 1.517698998461839981E-16, 0.000000000000000000, 1.000000000000000000 ) ) ;
#888 = CARTESIAN_POINT ( 'NONE',  ( -0.8000000000000000444, 0.1399999999999999856, 0.1499999999999999944 ) ) ;
#889 = DIRECTION ( 'NONE',  ( 1.000000000000000000, 0.000000000000000000, 2.710505431213760099E-16 ) ) ;
#890 = EDGE_CURVE ( 'NONE', #47, #352, #845, .T. ) ;
#891 = DIRECTION ( 'NONE',  ( 1.000000000000000000, 0.000000000000000000, 0.000000000000000000 ) ) ;
#892 = CARTESIAN_POINT ( 'NONE',  ( -0.8000000000000000444, 0.1399999999999999856, -0.1499999999999999944 ) ) ;
#893 = CARTESIAN_POINT ( 'NONE',  ( 0.5000000000000000000, 0.1399999999999999856, 0.1499999999999999944 ) ) ;
#894 = DIRECTION ( 'NONE',  ( 2.710505431213760099E-16, 0.000000000000000000, 1.000000000000000000 ) ) ;
#895 = AXIS2_PLACEMENT_3D ( 'NONE', #69, #76, #680 ) ;
#896 = PLANE ( 'NONE',  #597 ) ;
#897 = LINE ( 'NONE', #1078, #324 ) ;
#898 = ADVANCED_FACE ( 'NONE', ( #853 ), #89, .T. ) ;
#899 = CARTESIAN_POINT ( 'NONE',  ( 0.5999999999999999778, 0.000000000000000000, 0.1499999999999999944 ) ) ;
#900 = CARTESIAN_POINT ( 'NONE',  ( -0.8000000000000000444, 0.1399999999999999856, -0.1499999999999999944 ) ) ;
#901 = ORIENTED_EDGE ( 'NONE', *, *, #1081, .F. ) ;
#902 = ORIENTED_EDGE ( 'NONE', *, *, #231, .F. ) ;
#903 = EDGE_CURVE ( 'NONE', #791, #534, #515, .T. ) ;
#904 = CARTESIAN_POINT ( 'NONE',  ( -4.065758146820645325E-17, 0.000000000000000000, 0.1499999999999999944 ) ) ;
#905 = CARTESIAN_POINT ( 'NONE',  ( -0.5914372331789320425, 0.1399999999999999856, 0.4000000000000000222 ) ) ;
#906 = ORIENTED_EDGE ( 'NONE', *, *, #78, .T. ) ;
#907 = VERTEX_POINT ( 'NONE', #272 ) ;
#908 = CARTESIAN_POINT ( 'NONE',  ( -0.5000000000000000000, 0.1399999999999999856, -0.1499999999999999944 ) ) ;
#909 = DIRECTION ( 'NONE',  ( 0.000000000000000000, 0.000000000000000000, 1.000000000000000000 ) ) ;
#910 = ORIENTED_EDGE ( 'NONE', *, *, #755, .F. ) ;
#911 = EDGE_CURVE ( 'NONE', #907, #1109, #951, .T. ) ;
#912 = ORIENTED_EDGE ( 'NONE', *, *, #190, .F. ) ;
#913 = DIRECTION ( 'NONE',  ( 0.000000000000000000, 0.000000000000000000, 1.000000000000000000 ) ) ;
#914 = LINE ( 'NONE', #908, #1008 ) ;
#915 = VECTOR ( 'NONE', #573, 1000.000000000000000 ) ;
#916 = DIRECTION ( 'NONE',  ( 0.000000000000000000, 0.000000000000000000, 1.000000000000000000 ) ) ;
#917 = EDGE_LOOP ( 'NONE', ( #954, #523, #98, #925, #962, #1049, #658, #101, #234, #936, #329, #659 ) ) ;
#918 = VECTOR ( 'NONE', #12, 1000.000000000000000 ) ;
#919 = EDGE_CURVE ( 'NONE', #250, #1001, #897, .T. ) ;
#920 = VERTEX_POINT ( 'NONE', #814 ) ;
#921 = UNCERTAINTY_MEASURE_WITH_UNIT (LENGTH_MEASURE( 1.000000000000000082E-05 ), #713, 'distance_accuracy_value', 'NONE');
#922 = CARTESIAN_POINT ( 'NONE',  ( 0.000000000000000000, 0.6999999999999999556, -0.3571861658946609563 ) ) ;
#923 = PLANE ( 'NONE',  #408 ) ;
#924 = VERTEX_POINT ( 'NONE', #1043 ) ;
#925 = ORIENTED_EDGE ( 'NONE', *, *, #765, .F. ) ;
#926 = DIRECTION ( 'NONE',  ( -1.000000000000000000, 0.000000000000000000, -2.710505431213760099E-16 ) ) ;
#927 = PLANE ( 'NONE',  #547 ) ;
#928 = ORIENTED_EDGE ( 'NONE', *, *, #1085, .T. ) ;
#929 = VERTEX_POINT ( 'NONE', #21 ) ;
#930 = CARTESIAN_POINT ( 'NONE',  ( -0.5000000000000000000, 0.1399999999999999856, 0.1499999999999999944 ) ) ;
#931 = PRODUCT_DEFINITION_CONTEXT ( 'detailed design', #1118, 'design' ) ;
#932 = AXIS2_PLACEMENT_3D ( 'NONE', #1112, #934, #1030 ) ;
#933 = EDGE_CURVE ( 'NONE', #751, #821, #116, .T. ) ;
#934 = DIRECTION ( 'NONE',  ( -0.000000000000000000, 1.000000000000000000, 0.000000000000000000 ) ) ;
#935 = LINE ( 'NONE', #854, #437 ) ;
#936 = ORIENTED_EDGE ( 'NONE', *, *, #10, .F. ) ;
#937 = ORIENTED_EDGE ( 'NONE', *, *, #911, .T. ) ;
#938 = FACE_OUTER_BOUND ( 'NONE', #820, .T. ) ;
#939 = DIRECTION ( 'NONE',  ( 0.000000000000000000, -1.000000000000000000, 0.000000000000000000 ) ) ;
#940 = ORIENTED_EDGE ( 'NONE', *, *, #919, .F. ) ;
#941 = CARTESIAN_POINT ( 'NONE',  ( 0.8000000000000000444, 0.1399999999999999856, 0.1499999999999999944 ) ) ;
#942 = CARTESIAN_POINT ( 'NONE',  ( 0.8000000000000000444, 0.000000000000000000, 0.1499999999999999944 ) ) ;
#943 = ORIENTED_EDGE ( 'NONE', *, *, #155, .F. ) ;
#944 = ADVANCED_BREP_SHAPE_REPRESENTATION ( 'SC-79', ( #592, #252, #972, #233, #295 ), #1009 ) ;
#945 =( NAMED_UNIT ( * ) PLANE_ANGLE_UNIT ( ) SI_UNIT ( $, .RADIAN. ) );
#946 = ORIENTED_EDGE ( 'NONE', *, *, #224, .T. ) ;
#947 = CARTESIAN_POINT ( 'NONE',  ( 0.5914372331789320425, 0.1399999999999999856, -0.1499999999999999944 ) ) ;
#948 = EDGE_LOOP ( 'NONE', ( #1119, #912, #66, #673 ) ) ;
#949 = EDGE_CURVE ( 'NONE', #416, #159, #862, .T. ) ;
#950 =( NAMED_UNIT ( * ) PLANE_ANGLE_UNIT ( ) SI_UNIT ( $, .RADIAN. ) );
#951 = LINE ( 'NONE', #638, #811 ) ;
#952 = PRESENTATION_LAYER_ASSIGNMENT (  '', '', ( #521 ) ) ;
#953 = CARTESIAN_POINT ( 'NONE',  ( -0.8000000000000000444, 0.1399999999999999856, 0.1499999999999999944 ) ) ;
#954 = ORIENTED_EDGE ( 'NONE', *, *, #875, .T. ) ;
#955 = CARTESIAN_POINT ( 'NONE',  ( 0.000000000000000000, 0.6500000000000000222, 0.000000000000000000 ) ) ;
#956 = ORIENTED_EDGE ( 'NONE', *, *, #125, .T. ) ;
#957 = EDGE_CURVE ( 'NONE', #848, #111, #703, .T. ) ;
#958 = LINE ( 'NONE', #874, #201 ) ;
#959 = CARTESIAN_POINT ( 'NONE',  ( 0.000000000000000000, 0.6999999999999999556, 0.000000000000000000 ) ) ;
#960 = DIRECTION ( 'NONE',  ( 1.000000000000000000, 0.000000000000000000, 0.000000000000000000 ) ) ;
#961 = CARTESIAN_POINT ( 'NONE',  ( -0.4500000000000000111, 0.6500000000000000222, -0.3571861658946609563 ) ) ;
#962 = ORIENTED_EDGE ( 'NONE', *, *, #339, .F. ) ;
#963 = DIRECTION ( 'NONE',  ( -1.000000000000000000, 0.000000000000000000, 0.000000000000000000 ) ) ;
#964 = DIRECTION ( 'NONE',  ( 1.000000000000000000, 0.000000000000000000, 0.000000000000000000 ) ) ;
#965 = CARTESIAN_POINT ( 'NONE',  ( 3.227183475372995231E-17, 0.6999999999999999556, 0.3571861658946609563 ) ) ;
#966 = DIRECTION ( 'NONE',  ( -1.000000000000000000, 0.000000000000000000, 1.517698998461839981E-16 ) ) ;
#967 = EDGE_CURVE ( 'NONE', #511, #216, #629, .T. ) ;
#968 = CARTESIAN_POINT ( 'NONE',  ( -0.4500000000000000111, 0.6999999999999999556, 0.3571861658946609563 ) ) ;
#969 = PLANE ( 'NONE',  #583 ) ;
#970 = LINE ( 'NONE', #512, #990 ) ;
#971 = LINE ( 'NONE', #986, #79 ) ;
#972 = MANIFOLD_SOLID_BREP ( 'NONE', #815 ) ;
#973 = AXIS2_PLACEMENT_3D ( 'NONE', #359, #702, #1050 ) ;
#974 = ADVANCED_FACE ( 'NONE', ( #731 ), #561, .T. ) ;
#975 = DIRECTION ( 'NONE',  ( -1.000000000000000000, 0.000000000000000000, 2.710505431213760099E-16 ) ) ;
#976 = CARTESIAN_POINT ( 'NONE',  ( -0.4500000000000000111, 0.6999999999999999556, -0.3571861658946609563 ) ) ;
#977 = DIRECTION ( 'NONE',  ( 1.000000000000000000, 0.000000000000000000, -1.517698998461839981E-16 ) ) ;
#978 = DIRECTION ( 'NONE',  ( 0.000000000000000000, 1.000000000000000000, 0.000000000000000000 ) ) ;
#979 = AXIS2_PLACEMENT_3D ( 'NONE', #205, #983, #714 ) ;
#980 = AXIS2_PLACEMENT_3D ( 'NONE', #961, #549, #619 ) ;
#981 = CARTESIAN_POINT ( 'NONE',  ( 0.8000000000000000444, 0.1399999999999999856, -0.1499999999999999944 ) ) ;
#982 = DIRECTION ( 'NONE',  ( -1.000000000000000000, 0.000000000000000000, -2.710505431213760099E-16 ) ) ;
#983 = DIRECTION ( 'NONE',  ( 0.000000000000000000, -1.000000000000000000, 0.000000000000000000 ) ) ;
#984 = EDGE_CURVE ( 'NONE', #596, #445, #1104, .T. ) ;
#985 = CARTESIAN_POINT ( 'NONE',  ( -0.4500000000000000111, 0.6999999999999999556, -0.3571861658946609563 ) ) ;
#986 = CARTESIAN_POINT ( 'NONE',  ( -0.2999999999999999889, 0.6999999999999999556, -0.3571861658946609563 ) ) ;
#987 = ADVANCED_FACE ( 'NONE', ( #516 ), #183, .F. ) ;
#988 = CARTESIAN_POINT ( 'NONE',  ( -0.4500000000000000111, 0.6999999999999999556, -0.3571861658946609563 ) ) ;
#989 = AXIS2_PLACEMENT_3D ( 'NONE', #323, #993, #471 ) ;
#990 = VECTOR ( 'NONE', #447, 1000.000000000000000 ) ;
#991 = ORIENTED_EDGE ( 'NONE', *, *, #890, .F. ) ;
#992 = ADVANCED_FACE ( 'NONE', ( #152 ), #275, .F. ) ;
#993 = DIRECTION ( 'NONE',  ( 0.000000000000000000, -1.000000000000000000, 0.000000000000000000 ) ) ;
#994 =( NAMED_UNIT ( * ) SI_UNIT ( $, .STERADIAN. ) SOLID_ANGLE_UNIT ( ) );
#995 = DIRECTION ( 'NONE',  ( -0.06093509489717567618, -0.9962799949912396480, -0.06093509489717567618 ) ) ;
#996 = ORIENTED_EDGE ( 'NONE', *, *, #572, .T. ) ;
#997 = ORIENTED_EDGE ( 'NONE', *, *, #36, .F. ) ;
#998 = EDGE_CURVE ( 'NONE', #520, #140, #689, .T. ) ;
#999 = CARTESIAN_POINT ( 'NONE',  ( 0.5571861658946609674, 0.6999999999999999556, 0.000000000000000000 ) ) ;
#1000 = CARTESIAN_POINT ( 'NONE',  ( -0.8000000000000000444, 0.000000000000000000, -0.1499999999999999944 ) ) ;
#1001 = VERTEX_POINT ( 'NONE', #856 ) ;
#1002 = ORIENTED_EDGE ( 'NONE', *, *, #1022, .T. ) ;
#1003 = DIRECTION ( 'NONE',  ( -1.000000000000000000, 0.000000000000000000, 2.710505431213760099E-16 ) ) ;
#1004 = DIRECTION ( 'NONE',  ( 0.000000000000000000, 0.000000000000000000, 1.000000000000000000 ) ) ;
#1005 = EDGE_CURVE ( 'NONE', #422, #1068, #199, .T. ) ;
#1006 = DIRECTION ( 'NONE',  ( 1.000000000000000000, 0.000000000000000000, 2.710505431213760099E-16 ) ) ;
#1007 = ORIENTED_EDGE ( 'NONE', *, *, #949, .T. ) ;
#1008 = VECTOR ( 'NONE', #320, 1000.000000000000000 ) ;
#1009 =( GEOMETRIC_REPRESENTATION_CONTEXT ( 3 ) GLOBAL_UNCERTAINTY_ASSIGNED_CONTEXT ( ( #921 ) ) GLOBAL_UNIT_ASSIGNED_CONTEXT ( ( #713, #113, #372 ) ) REPRESENTATION_CONTEXT ( 'NONE', 'WORKASPACE' ) );
#1010 = ORIENTED_EDGE ( 'NONE', *, *, #175, .F. ) ;
#1011 = LINE ( 'NONE', #671, #294 ) ;
#1012 =( GEOMETRIC_REPRESENTATION_CONTEXT ( 3 ) GLOBAL_UNCERTAINTY_ASSIGNED_CONTEXT ( ( #217 ) ) GLOBAL_UNIT_ASSIGNED_CONTEXT ( ( #144, #585, #560 ) ) REPRESENTATION_CONTEXT ( 'NONE', 'WORKASPACE' ) );
#1013 = ORIENTED_EDGE ( 'NONE', *, *, #261, .F. ) ;
#1014 = AXIS2_PLACEMENT_3D ( 'NONE', #849, #343, #249 ) ;
#1015 = ORIENTED_EDGE ( 'NONE', *, *, #765, .T. ) ;
#1016 = PLANE ( 'NONE',  #895 ) ;
#1017 = CARTESIAN_POINT ( 'NONE',  ( -0.2999999999999999889, 0.6500000000000000222, -0.3571861658946609563 ) ) ;
#1018 = DIRECTION ( 'NONE',  ( 0.000000000000000000, 1.000000000000000000, 0.000000000000000000 ) ) ;
#1019 = DIRECTION ( 'NONE',  ( 1.000000000000000000, 0.000000000000000000, 0.000000000000000000 ) ) ;
#1020 = EDGE_LOOP ( 'NONE', ( #431, #361, #256, #1002 ) ) ;
#1021 = ORIENTED_EDGE ( 'NONE', *, *, #443, .F. ) ;
#1022 = EDGE_CURVE ( 'NONE', #407, #511, #1048, .T. ) ;
#1023 = CARTESIAN_POINT ( 'NONE',  ( -0.5000000000000000000, 0.000000000000000000, 0.1499999999999999944 ) ) ;
#1024 = CARTESIAN_POINT ( 'NONE',  ( -0.5571861658946609674, 0.6999999999999999556, 0.000000000000000000 ) ) ;
#1025 = CARTESIAN_POINT ( 'NONE',  ( 0.5999999999999999778, 0.000000000000000000, 0.4000000000000000222 ) ) ;
#1026 = ORIENTED_EDGE ( 'NONE', *, *, #239, .T. ) ;
#1027 = ORIENTED_EDGE ( 'NONE', *, *, #565, .F. ) ;
#1028 = AXIS2_PLACEMENT_3D ( 'NONE', #355, #1066, #291 ) ;
#1029 =( GEOMETRIC_REPRESENTATION_CONTEXT ( 3 ) GLOBAL_UNCERTAINTY_ASSIGNED_CONTEXT ( ( #1103 ) ) GLOBAL_UNIT_ASSIGNED_CONTEXT ( ( #1084, #394, #994 ) ) REPRESENTATION_CONTEXT ( 'NONE', 'WORKASPACE' ) );
#1030 = DIRECTION ( 'NONE',  ( 1.000000000000000000, 0.000000000000000000, 0.000000000000000000 ) ) ;
#1031 = DIRECTION ( 'NONE',  ( 1.000000000000000000, 0.000000000000000000, -3.614007241618350250E-16 ) ) ;
#1032 = VERTEX_POINT ( 'NONE', #879 ) ;
#1033 = COLOUR_RGB ( '',1.000000000000000000, 1.000000000000000000, 1.000000000000000000 ) ;
#1034 = CARTESIAN_POINT ( 'NONE',  ( -0.4500000000000000111, 0.6999999999999999556, -0.3571861658946609563 ) ) ;
#1035 = ORIENTED_EDGE ( 'NONE', *, *, #443, .T. ) ;
#1036 = VECTOR ( 'NONE', #666, 1000.000000000000000 ) ;
#1037 =( NAMED_UNIT ( * ) SI_UNIT ( $, .STERADIAN. ) SOLID_ANGLE_UNIT ( ) );
#1038 = EDGE_CURVE ( 'NONE', #159, #333, #627, .T. ) ;
#1039 = CARTESIAN_POINT ( 'NONE',  ( 0.5000000000000000000, 0.000000000000000000, -0.1499999999999999944 ) ) ;
#1040 = ORIENTED_EDGE ( 'NONE', *, *, #875, .F. ) ;
#1041 = FACE_OUTER_BOUND ( 'NONE', #1046, .T. ) ;
#1042 = ORIENTED_EDGE ( 'NONE', *, *, #70, .F. ) ;
#1043 = CARTESIAN_POINT ( 'NONE',  ( -0.5999999999999999778, 0.000000000000000000, -0.1499999999999999944 ) ) ;
#1044 = CARTESIAN_POINT ( 'NONE',  ( 0.5000000000000000000, 0.1399999999999999856, 0.1499999999999999944 ) ) ;
#1045 = FACE_OUTER_BOUND ( 'NONE', #53, .T. ) ;
#1046 = EDGE_LOOP ( 'NONE', ( #946, #321, #717, #427 ) ) ;
#1047 = EDGE_CURVE ( 'NONE', #422, #216, #697, .T. ) ;
#1048 = LINE ( 'NONE', #430, #502 ) ;
#1049 = ORIENTED_EDGE ( 'NONE', *, *, #413, .T. ) ;
#1050 = DIRECTION ( 'NONE',  ( 1.000000000000000000, 0.000000000000000000, 0.000000000000000000 ) ) ;
#1051 = VECTOR ( 'NONE', #753, 1000.000000000000000 ) ;
#1052 = VECTOR ( 'NONE', #100, 1000.000000000000000 ) ;
#1053 = DIRECTION ( 'NONE',  ( 0.9981347984218670311, 0.06104853953485699786, 0.000000000000000000 ) ) ;
#1054 = DIRECTION ( 'NONE',  ( -0.06104853953485699786, -0.9981347984218670311, -1.654723979768980131E-17 ) ) ;
#1055 = ORIENTED_EDGE ( 'NONE', *, *, #452, .T. ) ;
#1056 = DIRECTION ( 'NONE',  ( -1.000000000000000000, 0.000000000000000000, 0.000000000000000000 ) ) ;
#1057 = CARTESIAN_POINT ( 'NONE',  ( 0.8000000000000000444, 0.000000000000000000, 0.1499999999999999944 ) ) ;
#1058 = EDGE_CURVE ( 'NONE', #734, #1102, #86, .T. ) ;
#1059 = CLOSED_SHELL ( 'NONE', ( #866, #1091, #506, #831, #974, #758 ) ) ;
#1060 = PRODUCT ( 'SC-79', 'SC-79', '', ( #226 ) ) ;
#1061 = FACE_OUTER_BOUND ( 'NONE', #1020, .T. ) ;
#1062 = DIRECTION ( 'NONE',  ( 0.000000000000000000, -1.000000000000000000, 0.000000000000000000 ) ) ;
#1063 = DIRECTION ( 'NONE',  ( 0.000000000000000000, 0.000000000000000000, -1.000000000000000000 ) ) ;
#1064 = CARTESIAN_POINT ( 'NONE',  ( -0.5000000000000000000, 0.1399999999999999856, -0.1499999999999999944 ) ) ;
#1065 = ADVANCED_FACE ( 'NONE', ( #863 ), #769, .T. ) ;
#1066 = DIRECTION ( 'NONE',  ( 1.000000000000000000, 0.000000000000000000, -1.517698998461839981E-16 ) ) ;
#1067 = DIRECTION ( 'NONE',  ( -1.517698998461839981E-16, 0.000000000000000000, -1.000000000000000000 ) ) ;
#1068 = VERTEX_POINT ( 'NONE', #269 ) ;
#1069 = FACE_OUTER_BOUND ( 'NONE', #663, .T. ) ;
#1070 = DIRECTION ( 'NONE',  ( 0.000000000000000000, 0.000000000000000000, -1.000000000000000000 ) ) ;
#1071 = MECHANICAL_DESIGN_GEOMETRIC_PRESENTATION_REPRESENTATION (  '', ( #542 ), #24 ) ;
#1072 = CARTESIAN_POINT ( 'NONE',  ( -0.4500000000000000111, 0.6500000000000000222, -0.3571861658946609563 ) ) ;
#1073 = SURFACE_STYLE_USAGE ( .BOTH. , #397 ) ;
#1074 = CARTESIAN_POINT ( 'NONE',  ( -0.5571861658946609674, 0.6999999999999999556, 0.3571861658946609563 ) ) ;
#1075 = CARTESIAN_POINT ( 'NONE',  ( -0.4500000000000000111, 0.6500000000000000222, -0.3571861658946609563 ) ) ;
#1076 = VECTOR ( 'NONE', #787, 1000.000000000000000 ) ;
#1077 = VECTOR ( 'NONE', #628, 1000.000000000000000 ) ;
#1078 = CARTESIAN_POINT ( 'NONE',  ( -0.2999999999999999889, 0.6500000000000000222, -0.3571861658946609563 ) ) ;
#1079 = PRESENTATION_LAYER_ASSIGNMENT (  '', '', ( #641 ) ) ;
#1080 = LINE ( 'NONE', #888, #517 ) ;
#1081 = EDGE_CURVE ( 'NONE', #751, #596, #970, .T. ) ;
#1082 = DIRECTION ( 'NONE',  ( -2.710505431213760099E-16, 0.000000000000000000, 1.000000000000000000 ) ) ;
#1083 = FILL_AREA_STYLE_COLOUR ( '', #1087 ) ;
#1084 =( LENGTH_UNIT ( ) NAMED_UNIT ( * ) SI_UNIT ( .MILLI., .METRE. ) );
#1085 = EDGE_CURVE ( 'NONE', #229, #520, #93, .T. ) ;
#1086 = LINE ( 'NONE', #904, #1108 ) ;
#1087 = COLOUR_RGB ( '',0.7921568627450980005, 0.8196078431372548767, 0.9333333333333333481 ) ;
#1088 = FILL_AREA_STYLE_COLOUR ( '', #1033 ) ;
#1089 = ORIENTED_EDGE ( 'NONE', *, *, #155, .T. ) ;
#1090 = ORIENTED_EDGE ( 'NONE', *, *, #957, .T. ) ;
#1091 = ADVANCED_FACE ( 'NONE', ( #7 ), #872, .F. ) ;
#1092 = AXIS2_PLACEMENT_3D ( 'NONE', #639, #810, #198 ) ;
#1093 = AXIS2_PLACEMENT_3D ( 'NONE', #892, #1082, #536 ) ;
#1094 = DIRECTION ( 'NONE',  ( 0.000000000000000000, 0.000000000000000000, -1.000000000000000000 ) ) ;
#1095 = CARTESIAN_POINT ( 'NONE',  ( -0.5999999999999999778, 4.129093964976350446E-18, 0.1499999999999999944 ) ) ;
#1096 = VERTEX_POINT ( 'NONE', #351 ) ;
#1097 = EDGE_LOOP ( 'NONE', ( #836, #620, #347, #61 ) ) ;
#1098 = PLANE ( 'NONE',  #858 ) ;
#1099 = ADVANCED_FACE ( 'NONE', ( #1041 ), #187, .T. ) ;
#1100 = FACE_OUTER_BOUND ( 'NONE', #870, .T. ) ;
#1101 = ORIENTED_EDGE ( 'NONE', *, *, #1058, .T. ) ;
#1102 = VERTEX_POINT ( 'NONE', #522 ) ;
#1103 = UNCERTAINTY_MEASURE_WITH_UNIT (LENGTH_MEASURE( 1.000000000000000082E-05 ), #1084, 'distance_accuracy_value', 'NONE');
#1104 = LINE ( 'NONE', #738, #593 ) ;
#1105 = PLANE ( 'NONE',  #989 ) ;
#1106 = FACE_OUTER_BOUND ( 'NONE', #698, .T. ) ;
#1107 = ORIENTED_EDGE ( 'NONE', *, *, #436, .F. ) ;
#1108 = VECTOR ( 'NONE', #314, 1000.000000000000000 ) ;
#1109 = VERTEX_POINT ( 'NONE', #947 ) ;
#1110 = CARTESIAN_POINT ( 'NONE',  ( 0.5000000000000000000, 0.1399999999999999856, -0.1499999999999999944 ) ) ;
#1111 = VECTOR ( 'NONE', #749, 1000.000000000000000 ) ;
#1112 = CARTESIAN_POINT ( 'NONE',  ( 0.000000000000000000, 0.1399999999999999856, 0.000000000000000000 ) ) ;
#1113 = EDGE_LOOP ( 'NONE', ( #171, #1027, #664, #425 ) ) ;
#1114 = EDGE_CURVE ( 'NONE', #159, #216, #364, .T. ) ;
#1115 = EDGE_LOOP ( 'NONE', ( #1015, #745, #105, #223, #421, #246 ) ) ;
#1116 = PLANE ( 'NONE',  #419 ) ;
#1117 = LINE ( 'NONE', #762, #242 ) ;
#1118 = APPLICATION_CONTEXT ( 'automotive_design' ) ;
#1119 = ORIENTED_EDGE ( 'NONE', *, *, #483, .T. ) ;
#1120 = EDGE_CURVE ( 'NONE', #791, #433, #535, .T. ) ;
#1121 = ORIENTED_EDGE ( 'NONE', *, *, #724, .T. ) ;
#1122 = LINE ( 'NONE', #420, #57 ) ;
#1123 = ORIENTED_EDGE ( 'NONE', *, *, #648, .T. ) ;
ENDSEC;
END-ISO-10303-21;
